<svg width="124" height="87" viewBox="0 0 124 87" fill="none" xmlns="http://www.w3.org/2000/svg">
<path d="M0 25C0 11.1929 11.1929 0 25 0H99C112.807 0 124 11.1929 124 25V62C124 75.8071 112.807 87 99 87H25C11.1929 87 0 75.8071 0 62V25Z" fill="#2E3235"/>
<path d="M62 9.6875C57.7848 9.6875 53.6642 10.9375 50.1594 13.2793C46.6546 15.6212 43.9229 18.9497 42.3098 22.8441C40.6967 26.7384 40.2747 31.0236 41.097 35.1579C41.9194 39.2921 43.9492 43.0896 46.9298 46.0702C49.9104 49.0508 53.7079 51.0806 57.8421 51.903C61.9764 52.7253 66.2616 52.3033 70.1559 50.6902C74.0503 49.0771 77.3788 46.3454 79.7207 42.8406C82.0625 39.3358 83.3125 35.2152 83.3125 31C83.3063 25.3495 81.0589 19.9321 77.0634 15.9366C73.0678 11.9411 67.6505 9.69369 62 9.6875ZM62 50.9375C58.0567 50.9375 54.202 49.7682 50.9233 47.5774C47.6446 45.3867 45.0892 42.2729 43.5802 38.6298C42.0711 34.9867 41.6763 30.9779 42.4456 27.1104C43.2149 23.2429 45.1137 19.6904 47.9021 16.9021C50.6904 14.1137 54.2429 12.2149 58.1104 11.4456C61.9779 10.6763 65.9866 11.0711 69.6298 12.5802C73.2729 14.0892 76.3867 16.6446 78.5774 19.9233C80.7682 23.202 81.9375 27.0567 81.9375 31C81.9313 36.2859 79.8288 41.3534 76.0911 45.0911C72.3534 48.8288 67.2859 50.9313 62 50.9375Z" fill="white"/>
<path d="M71.625 28.9375C70.6732 28.9375 69.7427 29.2197 68.9513 29.7486C68.1599 30.2774 67.5431 31.029 67.1788 31.9083C66.8146 32.7877 66.7193 33.7553 66.905 34.6889C67.0907 35.6224 67.549 36.4799 68.222 37.153C68.8951 37.826 69.7526 38.2843 70.6861 38.47C71.6197 38.6557 72.5873 38.5604 73.4667 38.1962C74.346 37.8319 75.0976 37.2151 75.6264 36.4237C76.1552 35.6323 76.4375 34.7018 76.4375 33.75C76.4359 32.4741 75.9283 31.251 75.0261 30.3489C74.124 29.4467 72.9008 28.9391 71.625 28.9375ZM71.625 37.1875C70.9451 37.1875 70.2805 36.9859 69.7152 36.6082C69.1499 36.2305 68.7093 35.6936 68.4492 35.0655C68.189 34.4374 68.1209 33.7462 68.2535 33.0794C68.3862 32.4126 68.7136 31.8001 69.1943 31.3193C69.6751 30.8386 70.2876 30.5112 70.9544 30.3785C71.6212 30.2459 72.3124 30.314 72.9405 30.5742C73.5686 30.8343 74.1055 31.2749 74.4832 31.8402C74.8609 32.4055 75.0625 33.0701 75.0625 33.75C75.0614 34.6613 74.6989 35.5351 74.0545 36.1795C73.4101 36.8239 72.5363 37.1864 71.625 37.1875Z" fill="white"/>
<path d="M63.0821 12.5063C62.9646 12.5616 62.8652 12.6491 62.7953 12.7586C62.7255 12.8681 62.6881 12.9951 62.6875 13.125V14.5199C60.2283 14.4209 57.7779 14.8718 55.5149 15.8397C53.252 16.8076 51.2335 18.2681 49.6064 20.1148C49.158 20.2374 48.7492 20.4743 48.4198 20.8023L48.2362 20.9873C45.6026 23.6534 44.1257 27.25 44.1257 30.9976C44.1257 34.7452 45.6026 38.3418 48.2362 41.0079L48.4205 41.1942C48.7495 41.522 49.1579 41.7589 49.6058 41.8817C51.0439 43.5211 52.7929 44.8588 54.7516 45.8175C56.7103 46.7763 58.8397 47.337 61.0165 47.4672C63.1934 47.5973 65.3744 47.2944 67.4334 46.576C69.4924 45.8575 71.3884 44.7377 73.0117 43.2815C73.1327 43.2162 73.2551 43.1543 73.3733 43.0849L75.1189 42.0536C76.5474 41.2497 77.7391 40.0837 78.574 38.673C79.4089 37.2623 79.8576 35.6566 79.875 34.0174C79.8637 32.6432 79.5457 31.2888 78.9442 30.0531C78.3428 28.8174 77.473 27.7316 76.3983 26.875H79.1875C79.3291 26.875 79.4672 26.8314 79.583 26.75C79.6988 26.6686 79.7866 26.5534 79.8345 26.4202C79.8825 26.287 79.8881 26.1423 79.8506 26.0057C79.8132 25.8692 79.7346 25.7476 79.6254 25.6574L63.8129 12.5949C63.7121 12.5124 63.5898 12.4602 63.4604 12.4445C63.331 12.4288 63.1998 12.4502 63.0821 12.5063ZM62.6875 15.9046V26.1875C62.6875 26.3698 62.7599 26.5447 62.8889 26.6736C63.0178 26.8026 63.1927 26.875 63.375 26.875H65.0312C64.4065 27.6846 64.0661 28.6774 64.0625 29.6999C64.0602 30.166 63.9604 30.6264 63.7695 31.0516C63.5786 31.4767 63.3009 31.8573 62.9543 32.1688L61.175 33.8187C60.4681 34.4734 59.9285 35.2879 59.6013 36.1941C58.4338 34.6005 57.8371 32.6602 57.9073 30.686C57.9775 28.7119 58.7106 26.8189 59.9884 25.3123L60.6642 24.5176C61.106 23.9917 61.3362 23.3202 61.3099 22.6338C61.2836 21.9475 61.0027 21.2956 60.5219 20.8051C60.2706 20.5491 59.9707 20.346 59.6397 20.2078C59.3088 20.0695 58.9535 19.9989 58.5948 20C58.2366 19.9992 57.8817 20.0699 57.5512 20.208C57.2206 20.3462 56.921 20.5489 56.6698 20.8044L56.5186 20.9563C56.4759 20.9061 56.4409 20.8511 56.3941 20.8037C56.1431 20.5483 55.8435 20.3457 55.5131 20.2077C55.1826 20.0697 54.8279 19.9991 54.4698 20C54.1116 19.9992 53.7567 20.0699 53.4262 20.208C53.0956 20.3462 52.796 20.5489 52.5448 20.8044L52.3936 20.9563C52.3509 20.9061 52.3159 20.8511 52.2691 20.8037C52.0214 20.5532 51.7271 20.3536 51.4029 20.2159C54.2287 17.4343 58.0348 15.8752 62 15.875C62.2282 15.875 62.4579 15.8943 62.6875 15.9046ZM56.5351 37.4852L55.8599 36.6904C54.5122 35.1007 53.7725 33.0842 53.7725 31C53.7725 28.9158 54.5122 26.8993 55.8599 25.3096L56.5358 24.5148C56.7895 24.2117 56.9748 23.8573 57.0789 23.4759C57.1829 23.0946 57.2033 22.6952 57.1387 22.3052C57.2459 22.1883 57.3504 22.0701 57.4625 21.9573L57.6461 21.7717C57.7698 21.6459 57.9174 21.546 58.0802 21.4779C58.2429 21.4098 58.4177 21.3748 58.5941 21.375C58.7705 21.3748 58.9451 21.4099 59.1077 21.478C59.2704 21.5461 59.4179 21.6459 59.5415 21.7717C59.7809 22.0169 59.9205 22.3424 59.9332 22.6848C59.9459 23.0273 59.8308 23.3622 59.6102 23.6245L58.9358 24.4193C57.3764 26.2577 56.5204 28.5902 56.5204 31.001C56.5204 33.4118 57.3764 35.7443 58.9358 37.5828L59.2555 37.9561C59.2555 38.0118 59.2466 38.0668 59.2466 38.1225C59.2504 38.804 59.3766 39.4793 59.6192 40.1162C59.5903 40.152 59.5711 40.1939 59.5387 40.2269C59.4156 40.3525 59.2688 40.4524 59.1067 40.5207C58.9447 40.5891 58.7707 40.6245 58.5948 40.625C58.4185 40.6252 58.2439 40.5903 58.0813 40.5224C57.9186 40.4544 57.7711 40.3546 57.6474 40.229L57.4625 40.0413C57.3511 39.9292 57.2466 39.811 57.1394 39.6976C57.2043 39.307 57.1839 38.9071 57.0796 38.5252C56.9753 38.1433 56.7895 37.7885 56.5351 37.4852ZM52.4101 37.4852L51.7349 36.6904C50.3872 35.1007 49.6475 33.0842 49.6475 31C49.6475 28.9158 50.3872 26.8993 51.7349 25.3096L52.4108 24.5148C52.6645 24.2117 52.8498 23.8573 52.9539 23.4759C53.0579 23.0946 53.0783 22.6952 53.0137 22.3052C53.1209 22.1883 53.2254 22.0701 53.3375 21.9573L53.5211 21.7717C53.6448 21.6459 53.7924 21.546 53.9552 21.4779C54.1179 21.4098 54.2927 21.3748 54.4691 21.375C54.6455 21.3748 54.8201 21.4099 54.9827 21.478C55.1454 21.5461 55.2929 21.6459 55.4165 21.7717C55.6559 22.0169 55.7955 22.3424 55.8082 22.6848C55.8209 23.0273 55.7058 23.3622 55.4852 23.6245L54.8108 24.4193C53.2519 26.2576 52.3962 28.5897 52.3962 31C52.3962 33.4103 53.2519 35.7424 54.8108 37.5807L55.4846 38.3755C55.7062 38.6379 55.822 38.9736 55.8093 39.3169C55.7966 39.6602 55.6563 39.9864 55.4158 40.2318C55.2921 40.3567 55.1447 40.4558 54.9823 40.5234C54.8199 40.5909 54.6457 40.6254 54.4698 40.625C54.2935 40.6252 54.1189 40.5903 53.9563 40.5224C53.7936 40.4544 53.6461 40.3546 53.5224 40.229L53.3375 40.0413C53.2261 39.9292 53.1216 39.811 53.0144 39.6976C53.0793 39.307 53.0589 38.9071 52.9546 38.5252C52.8503 38.1433 52.6645 37.7885 52.4101 37.4852ZM49.2125 40.042C46.8351 37.6335 45.5021 34.3855 45.5021 31.0014C45.5021 27.6172 46.8351 24.3692 49.2125 21.9608L49.3961 21.7751C49.5195 21.6487 49.667 21.5482 49.8297 21.4795C49.9925 21.4108 50.1674 21.3752 50.3441 21.375C50.5205 21.3748 50.6951 21.4099 50.8577 21.478C51.0204 21.5461 51.1679 21.6459 51.2915 21.7717C51.5309 22.0169 51.6705 22.3424 51.6832 22.6848C51.6959 23.0273 51.5808 23.3622 51.3602 23.6245L50.6858 24.4193C49.1269 26.2576 48.2712 28.5897 48.2712 31C48.2712 33.4103 49.1269 35.7424 50.6858 37.5807L51.3596 38.3755C51.5812 38.6379 51.697 38.9736 51.6843 39.3169C51.6716 39.6602 51.5313 39.9864 51.2908 40.2318C51.1671 40.3567 51.0197 40.4558 50.8573 40.5234C50.6949 40.5909 50.5207 40.6254 50.3448 40.625C50.1685 40.6252 49.9939 40.5903 49.8313 40.5224C49.6686 40.4544 49.5211 40.3546 49.3974 40.229L49.2125 40.042ZM62 46.125C58.0346 46.125 54.2282 44.5659 51.4022 41.7841C51.7264 41.6464 52.0207 41.4468 52.2684 41.1963C52.3152 41.1489 52.3503 41.0932 52.3936 41.043L52.5448 41.1963C52.7959 41.4516 53.0955 41.6542 53.4259 41.7922C53.7564 41.9302 54.111 42.0009 54.4691 42C54.8273 42.001 55.1822 41.9305 55.5127 41.7924C55.8433 41.6544 56.143 41.4518 56.3941 41.1963C56.4409 41.1489 56.4759 41.0932 56.5192 41.043L56.6705 41.1963C56.9215 41.4515 57.221 41.6541 57.5513 41.7921C57.8816 41.9301 58.2361 42.0008 58.5941 42C59.2102 41.9976 59.8066 41.7827 60.2826 41.3916C60.5385 41.7694 60.8363 42.1172 61.1702 42.4283C62.8189 43.938 64.9779 44.7675 67.2133 44.75C67.6189 44.75 68.0218 44.7232 68.4226 44.6813C66.4141 45.6294 64.221 46.1224 62 46.125ZM78.5 34.0174C78.4821 35.4182 78.0956 36.7895 77.3793 37.9934C76.663 39.1973 75.6422 40.1912 74.4197 40.8752L72.6741 41.9065C71.0174 42.8742 69.132 43.3812 67.2133 43.375C65.3264 43.3817 63.5048 42.6845 62.1045 41.4197C61.639 41.0057 61.2664 40.4978 61.0112 39.9295C60.7561 39.3611 60.6242 38.7452 60.6242 38.1222C60.6242 37.4991 60.7561 36.8832 61.0112 36.3148C61.2664 35.7465 61.639 35.2386 62.1045 34.8246L63.8872 33.1746C64.3703 32.7329 64.7573 32.1964 65.024 31.5986C65.2907 31.0008 65.4315 30.3545 65.4375 29.6999C65.4855 28.7248 65.9172 27.8081 66.6385 27.1501C67.3597 26.4921 68.312 26.146 69.2875 26.1875H70.5662C72.6528 26.1866 74.6556 27.008 76.1407 28.4736C77.6257 29.9393 78.4734 31.9311 78.5 34.0174ZM64.0625 14.5846L77.2763 25.5H74.0766C72.9615 25.0475 71.7697 24.814 70.5662 24.8125H69.2875C68.3572 24.8114 67.4421 25.048 66.6289 25.5H64.0625V14.5846Z" fill="white"/>
<path d="M66.8125 18.625H65.4375V20H66.8125V18.625Z" fill="white"/>
<path d="M69.5625 21.375H68.1875V22.75H69.5625V21.375Z" fill="white"/>
<path d="M66.8125 22.75H65.4375V24.125H66.8125V22.75Z" fill="white"/>
<path d="M39.6914 68H35.9473V59.5449H39.627C40.4199 59.5449 41.0488 59.7344 41.5137 60.1133C41.9785 60.4922 42.2109 61.0059 42.2109 61.6543C42.2109 62.1152 42.0586 62.5195 41.7539 62.8672C41.4531 63.2148 41.0762 63.4219 40.623 63.4883V63.5352C41.2012 63.5781 41.6777 63.791 42.0527 64.1738C42.4277 64.5566 42.6152 65.0254 42.6152 65.5801C42.6152 66.3262 42.3535 66.916 41.8301 67.3496C41.3066 67.7832 40.5938 68 39.6914 68ZM37.7168 60.8633V63.0605H38.9883C39.4609 63.0605 39.8262 62.9629 40.084 62.7676C40.3418 62.5684 40.4707 62.2891 40.4707 61.9297C40.4707 61.5898 40.3574 61.3281 40.1309 61.1445C39.9043 60.957 39.584 60.8633 39.1699 60.8633H37.7168ZM37.7168 66.6816H39.2402C39.752 66.6816 40.1406 66.5762 40.4062 66.3652C40.6758 66.1504 40.8105 65.8418 40.8105 65.4395C40.8105 65.0449 40.6719 64.7441 40.3945 64.5371C40.1211 64.3301 39.7227 64.2266 39.1992 64.2266H37.7168V66.6816Z" fill="white"/>
<path d="M43.4766 68V61.7188H45.1289V62.8496H45.1641C45.2734 62.4512 45.457 62.1465 45.7148 61.9355C45.9727 61.7246 46.2871 61.6191 46.6582 61.6191C46.8379 61.6191 47 61.6406 47.1445 61.6836V63.1895C46.9844 63.123 46.7773 63.0898 46.5234 63.0898C46.1016 63.0898 45.7734 63.2129 45.5391 63.459C45.3047 63.7051 45.1875 64.0488 45.1875 64.4902V68H43.4766Z" fill="white"/>
<path d="M50.4551 62.8496C50.084 62.8496 49.7734 62.9766 49.5234 63.2305C49.2773 63.4844 49.1387 63.8086 49.1074 64.2031H51.7734C51.7539 63.8008 51.623 63.4746 51.3809 63.2246C51.1426 62.9746 50.834 62.8496 50.4551 62.8496ZM51.7969 66.0781H53.3672C53.2734 66.6953 52.9648 67.1934 52.4414 67.5723C51.9219 67.9473 51.2754 68.1348 50.502 68.1348C49.5371 68.1348 48.7793 67.8457 48.2285 67.2676C47.6816 66.6895 47.4082 65.8965 47.4082 64.8887C47.4082 63.8848 47.6816 63.084 48.2285 62.4863C48.7754 61.8848 49.5117 61.584 50.4375 61.584C51.3477 61.584 52.0723 61.8691 52.6113 62.4395C53.1504 63.0098 53.4199 63.7734 53.4199 64.7305V65.252H49.0898V65.3574C49.0898 65.8066 49.2207 66.1719 49.4824 66.4531C49.748 66.7305 50.0977 66.8691 50.5312 66.8691C50.8438 66.8691 51.1133 66.7988 51.3398 66.6582C51.5664 66.5137 51.7188 66.3203 51.7969 66.0781Z" fill="white"/>
<path d="M56.7305 66.8633C57.1094 66.8633 57.4297 66.7539 57.6914 66.5352C57.957 66.3125 58.0898 66.0332 58.0898 65.6973V65.2402L56.7656 65.3223C56.4453 65.3457 56.1973 65.4258 56.0215 65.5625C55.8496 65.6992 55.7637 65.8789 55.7637 66.1016C55.7637 66.3359 55.8516 66.5215 56.0273 66.6582C56.2031 66.7949 56.4375 66.8633 56.7305 66.8633ZM56.168 68.0996C55.5625 68.0996 55.0605 67.9219 54.6621 67.5664C54.2637 67.2109 54.0645 66.7539 54.0645 66.1953C54.0645 65.625 54.2754 65.1777 54.6973 64.8535C55.1191 64.5293 55.7227 64.3438 56.5078 64.2969L58.0898 64.2031V63.7871C58.0898 63.498 57.9941 63.2715 57.8027 63.1074C57.6152 62.9434 57.3594 62.8613 57.0352 62.8613C56.7227 62.8613 56.4668 62.9316 56.2676 63.0723C56.0723 63.2129 55.9531 63.4023 55.9102 63.6406H54.3457C54.377 63.0234 54.6406 62.5273 55.1367 62.1523C55.6328 61.7734 56.291 61.584 57.1113 61.584C57.916 61.584 58.5605 61.7754 59.0449 62.1582C59.5293 62.541 59.7715 63.0488 59.7715 63.6816V68H58.1191V67.0391H58.084C57.9121 67.3672 57.6504 67.627 57.2988 67.8184C56.9473 68.0059 56.5703 68.0996 56.168 68.0996Z" fill="white"/>
<path d="M62.6543 64.2383L64.7871 61.7188H66.7266L64.3301 64.4141L66.8438 68H64.875L63.0762 65.4453L62.6309 65.9258V68H60.9199V59.5449H62.6309V64.2383H62.6543Z" fill="white"/>
<path d="M67.793 68V63.0078H66.9375V61.748H67.793V61.2734C67.793 60.6484 67.9531 60.1914 68.2734 59.9023C68.5977 59.6133 69.127 59.4688 69.8613 59.4688C70.1973 59.4688 70.4883 59.4941 70.7344 59.5449V60.6758C70.6094 60.6523 70.4551 60.6406 70.2715 60.6406C69.7324 60.6406 69.4629 60.8711 69.4629 61.332V61.748H70.7109V63.0078H69.5039V68H67.793Z" fill="white"/>
<path d="M73.7109 66.8633C74.0898 66.8633 74.4102 66.7539 74.6719 66.5352C74.9375 66.3125 75.0703 66.0332 75.0703 65.6973V65.2402L73.7461 65.3223C73.4258 65.3457 73.1777 65.4258 73.002 65.5625C72.8301 65.6992 72.7441 65.8789 72.7441 66.1016C72.7441 66.3359 72.832 66.5215 73.0078 66.6582C73.1836 66.7949 73.418 66.8633 73.7109 66.8633ZM73.1484 68.0996C72.543 68.0996 72.041 67.9219 71.6426 67.5664C71.2441 67.2109 71.0449 66.7539 71.0449 66.1953C71.0449 65.625 71.2559 65.1777 71.6777 64.8535C72.0996 64.5293 72.7031 64.3438 73.4883 64.2969L75.0703 64.2031V63.7871C75.0703 63.498 74.9746 63.2715 74.7832 63.1074C74.5957 62.9434 74.3398 62.8613 74.0156 62.8613C73.7031 62.8613 73.4473 62.9316 73.248 63.0723C73.0527 63.2129 72.9336 63.4023 72.8906 63.6406H71.3262C71.3574 63.0234 71.6211 62.5273 72.1172 62.1523C72.6133 61.7734 73.2715 61.584 74.0918 61.584C74.8965 61.584 75.541 61.7754 76.0254 62.1582C76.5098 62.541 76.752 63.0488 76.752 63.6816V68H75.0996V67.0391H75.0645C74.8926 67.3672 74.6309 67.627 74.2793 67.8184C73.9277 68.0059 73.5508 68.0996 73.1484 68.0996Z" fill="white"/>
<path d="M77.7539 63.5645C77.7539 62.9668 77.9941 62.4883 78.4746 62.1289C78.9551 61.7656 79.5977 61.584 80.4023 61.584C81.1875 61.584 81.8184 61.7676 82.2949 62.1348C82.7715 62.502 83.0156 62.9902 83.0273 63.5996H81.4512C81.4316 63.3457 81.3262 63.1465 81.1348 63.002C80.9473 62.8574 80.6953 62.7852 80.3789 62.7852C80.082 62.7852 79.8438 62.8477 79.6641 62.9727C79.4883 63.0938 79.4004 63.2559 79.4004 63.459C79.4004 63.7637 79.6738 63.9805 80.2207 64.1094L81.4219 64.3672C82.0508 64.5078 82.502 64.7129 82.7754 64.9824C83.0527 65.248 83.1914 65.6152 83.1914 66.084C83.1914 66.7012 82.9336 67.1973 82.418 67.5723C81.9023 67.9473 81.2285 68.1348 80.3965 68.1348C79.5684 68.1348 78.9062 67.9512 78.4102 67.584C77.9141 67.2168 77.6426 66.7227 77.5957 66.1016H79.2656C79.3086 66.3672 79.4297 66.5723 79.6289 66.7168C79.832 66.8613 80.1035 66.9336 80.4434 66.9336C80.7676 66.9336 81.0215 66.875 81.2051 66.7578C81.3926 66.6367 81.4863 66.4727 81.4863 66.2656C81.4863 66.1055 81.4277 65.9785 81.3105 65.8848C81.1934 65.7871 80.9941 65.7051 80.7129 65.6387L79.5527 65.3809C78.3535 65.1074 77.7539 64.502 77.7539 63.5645Z" fill="white"/>
<path d="M84.5039 60.2715H86.2148V61.7188H87.375V63.0078H86.2148V66.0137C86.2148 66.4863 86.4609 66.7227 86.9531 66.7227C87.1133 66.7227 87.252 66.7129 87.3691 66.6934V67.9531C87.1699 68 86.8984 68.0234 86.5547 68.0234C85.8164 68.0234 85.2891 67.8906 84.9727 67.625C84.6602 67.3594 84.5039 66.9199 84.5039 66.3066V63.0078H83.6191V61.7188H84.5039V60.2715Z" fill="white"/>
</svg>
