<svg width="146" height="109" viewBox="0 0 146 109" fill="none" xmlns="http://www.w3.org/2000/svg">
<g filter="url(#filter0_d_356_185)">
<mask id="path-1-outside-1_356_185" maskUnits="userSpaceOnUse" x="10" y="10" width="126" height="89" fill="black">
<rect fill="white" x="10" y="10" width="126" height="89"/>
<path d="M11 36C11 22.1929 22.1929 11 36 11H110C123.807 11 135 22.1929 135 36V73C135 86.8071 123.807 98 110 98H36C22.1929 98 11 86.8071 11 73V36Z"/>
<path d="M73 20.6875C68.7848 20.6875 64.6642 21.9375 61.1594 24.2793C57.6546 26.6212 54.9229 29.9497 53.3098 33.8441C51.6967 37.7384 51.2747 42.0236 52.097 46.1579C52.9194 50.2921 54.9492 54.0896 57.9298 57.0702C60.9104 60.0508 64.7079 62.0806 68.8421 62.903C72.9764 63.7253 77.2616 63.3033 81.1559 61.6902C85.0503 60.0771 88.3788 57.3454 90.7207 53.8406C93.0625 50.3358 94.3125 46.2152 94.3125 42C94.3063 36.3495 92.0589 30.9321 88.0634 26.9366C84.0678 22.9411 78.6505 20.6937 73 20.6875ZM73 61.9375C69.0567 61.9375 65.202 60.7682 61.9233 58.5774C58.6446 56.3867 56.0892 53.2729 54.5802 49.6298C53.0711 45.9867 52.6763 41.9779 53.4456 38.1104C54.2149 34.2429 56.1137 30.6904 58.9021 27.9021C61.6904 25.1137 65.2429 23.2149 69.1104 22.4456C72.9779 21.6763 76.9866 22.0711 80.6298 23.5802C84.2729 25.0892 87.3867 27.6446 89.5774 30.9233C91.7682 34.202 92.9375 38.0567 92.9375 42C92.9313 47.2859 90.8288 52.3534 87.0911 56.0911C83.3534 59.8288 78.2859 61.9313 73 61.9375Z"/>
<path d="M82.625 39.9375C81.6732 39.9375 80.7427 40.2197 79.9513 40.7486C79.1599 41.2774 78.5431 42.029 78.1788 42.9083C77.8146 43.7877 77.7193 44.7553 77.905 45.6889C78.0907 46.6224 78.549 47.4799 79.222 48.153C79.8951 48.826 80.7526 49.2843 81.6861 49.47C82.6197 49.6557 83.5873 49.5604 84.4667 49.1962C85.346 48.8319 86.0976 48.2151 86.6264 47.4237C87.1552 46.6323 87.4375 45.7018 87.4375 44.75C87.4359 43.4741 86.9283 42.251 86.0261 41.3489C85.124 40.4467 83.9008 39.9391 82.625 39.9375ZM82.625 48.1875C81.9451 48.1875 81.2805 47.9859 80.7152 47.6082C80.1499 47.2305 79.7093 46.6936 79.4492 46.0655C79.189 45.4374 79.1209 44.7462 79.2535 44.0794C79.3862 43.4126 79.7136 42.8001 80.1943 42.3193C80.6751 41.8386 81.2876 41.5112 81.9544 41.3785C82.6212 41.2459 83.3124 41.314 83.9405 41.5742C84.5686 41.8343 85.1055 42.2749 85.4832 42.8402C85.8609 43.4055 86.0625 44.0701 86.0625 44.75C86.0614 45.6613 85.6989 46.5351 85.0545 47.1795C84.4101 47.8239 83.5363 48.1864 82.625 48.1875Z"/>
<path d="M74.0821 23.5063C73.9646 23.5616 73.8652 23.6491 73.7953 23.7586C73.7255 23.8681 73.6881 23.9951 73.6875 24.125V25.5199C71.2283 25.4209 68.7779 25.8718 66.5149 26.8397C64.252 27.8076 62.2335 29.2681 60.6064 31.1148C60.158 31.2374 59.7492 31.4743 59.4198 31.8023L59.2362 31.9873C56.6026 34.6534 55.1257 38.25 55.1257 41.9976C55.1257 45.7452 56.6026 49.3418 59.2362 52.0079L59.4205 52.1942C59.7495 52.522 60.1579 52.7589 60.6058 52.8817C62.0439 54.5211 63.7929 55.8588 65.7516 56.8175C67.7103 57.7763 69.8397 58.337 72.0165 58.4672C74.1934 58.5973 76.3744 58.2944 78.4334 57.576C80.4924 56.8575 82.3884 55.7377 84.0117 54.2815C84.1327 54.2162 84.2551 54.1543 84.3733 54.0849L86.1189 53.0536C87.5474 52.2497 88.7391 51.0837 89.574 49.673C90.4089 48.2623 90.8576 46.6566 90.875 45.0174C90.8637 43.6432 90.5457 42.2888 89.9442 41.0531C89.3428 39.8174 88.473 38.7316 87.3983 37.875H90.1875C90.3291 37.875 90.4672 37.8314 90.583 37.75C90.6988 37.6686 90.7866 37.5534 90.8345 37.4202C90.8825 37.287 90.8881 37.1423 90.8506 37.0057C90.8132 36.8692 90.7346 36.7476 90.6254 36.6574L74.8129 23.5949C74.7121 23.5124 74.5898 23.4602 74.4604 23.4445C74.331 23.4288 74.1998 23.4502 74.0821 23.5063ZM73.6875 26.9046V37.1875C73.6875 37.3698 73.7599 37.5447 73.8889 37.6736C74.0178 37.8026 74.1927 37.875 74.375 37.875H76.0312C75.4065 38.6846 75.0661 39.6774 75.0625 40.6999C75.0602 41.166 74.9604 41.6264 74.7695 42.0516C74.5786 42.4767 74.3009 42.8573 73.9543 43.1688L72.175 44.8187C71.4681 45.4734 70.9285 46.2879 70.6013 47.1941C69.4338 45.6005 68.8371 43.6602 68.9073 41.686C68.9775 39.7119 69.7106 37.8189 70.9884 36.3123L71.6642 35.5176C72.106 34.9917 72.3362 34.3202 72.3099 33.6338C72.2836 32.9475 72.0027 32.2956 71.5219 31.8051C71.2706 31.5491 70.9707 31.346 70.6397 31.2078C70.3088 31.0695 69.9535 30.9989 69.5948 31C69.2366 30.9992 68.8817 31.0699 68.5512 31.208C68.2206 31.3462 67.921 31.5489 67.6698 31.8044L67.5186 31.9563C67.4759 31.9061 67.4409 31.8511 67.3941 31.8037C67.1431 31.5483 66.8435 31.3457 66.5131 31.2077C66.1826 31.0697 65.8279 30.9991 65.4698 31C65.1116 30.9992 64.7567 31.0699 64.4262 31.208C64.0956 31.3462 63.796 31.5489 63.5448 31.8044L63.3936 31.9563C63.3509 31.9061 63.3159 31.8511 63.2691 31.8037C63.0214 31.5532 62.7271 31.3536 62.4029 31.2159C65.2287 28.4343 69.0348 26.8752 73 26.875C73.2282 26.875 73.4579 26.8943 73.6875 26.9046ZM67.5351 48.4852L66.8599 47.6904C65.5122 46.1007 64.7725 44.0842 64.7725 42C64.7725 39.9158 65.5122 37.8993 66.8599 36.3096L67.5358 35.5148C67.7895 35.2117 67.9748 34.8573 68.0789 34.4759C68.1829 34.0946 68.2033 33.6952 68.1387 33.3052C68.2459 33.1883 68.3504 33.0701 68.4625 32.9573L68.6461 32.7717C68.7698 32.6459 68.9174 32.546 69.0802 32.4779C69.2429 32.4098 69.4177 32.3748 69.5941 32.375C69.7705 32.3748 69.9451 32.4099 70.1077 32.478C70.2704 32.5461 70.4179 32.6459 70.5415 32.7717C70.7809 33.0169 70.9205 33.3424 70.9332 33.6848C70.9459 34.0273 70.8308 34.3622 70.6102 34.6245L69.9358 35.4193C68.3764 37.2577 67.5204 39.5902 67.5204 42.001C67.5204 44.4118 68.3764 46.7443 69.9358 48.5828L70.2555 48.9561C70.2555 49.0118 70.2466 49.0668 70.2466 49.1225C70.2504 49.804 70.3766 50.4793 70.6192 51.1162C70.5903 51.152 70.5711 51.1939 70.5387 51.2269C70.4156 51.3525 70.2688 51.4524 70.1067 51.5207C69.9447 51.5891 69.7707 51.6245 69.5948 51.625C69.4185 51.6252 69.2439 51.5903 69.0813 51.5224C68.9186 51.4544 68.7711 51.3546 68.6474 51.229L68.4625 51.0413C68.3511 50.9292 68.2466 50.811 68.1394 50.6976C68.2043 50.307 68.1839 49.9071 68.0796 49.5252C67.9753 49.1433 67.7895 48.7885 67.5351 48.4852ZM63.4101 48.4852L62.7349 47.6904C61.3872 46.1007 60.6475 44.0842 60.6475 42C60.6475 39.9158 61.3872 37.8993 62.7349 36.3096L63.4108 35.5148C63.6645 35.2117 63.8498 34.8573 63.9539 34.4759C64.0579 34.0946 64.0783 33.6952 64.0137 33.3052C64.1209 33.1883 64.2254 33.0701 64.3375 32.9573L64.5211 32.7717C64.6448 32.6459 64.7924 32.546 64.9552 32.4779C65.1179 32.4098 65.2927 32.3748 65.4691 32.375C65.6455 32.3748 65.8201 32.4099 65.9827 32.478C66.1454 32.5461 66.2929 32.6459 66.4165 32.7717C66.6559 33.0169 66.7955 33.3424 66.8082 33.6848C66.8209 34.0273 66.7058 34.3622 66.4852 34.6245L65.8108 35.4193C64.2519 37.2576 63.3962 39.5897 63.3962 42C63.3962 44.4103 64.2519 46.7424 65.8108 48.5807L66.4846 49.3755C66.7062 49.6379 66.822 49.9736 66.8093 50.3169C66.7966 50.6602 66.6563 50.9864 66.4158 51.2318C66.2921 51.3567 66.1447 51.4558 65.9823 51.5234C65.8199 51.5909 65.6457 51.6254 65.4698 51.625C65.2935 51.6252 65.1189 51.5903 64.9563 51.5224C64.7936 51.4544 64.6461 51.3546 64.5224 51.229L64.3375 51.0413C64.2261 50.9292 64.1216 50.811 64.0144 50.6976C64.0793 50.307 64.0589 49.9071 63.9546 49.5252C63.8503 49.1433 63.6645 48.7885 63.4101 48.4852ZM60.2125 51.042C57.8351 48.6335 56.5021 45.3855 56.5021 42.0014C56.5021 38.6172 57.8351 35.3692 60.2125 32.9608L60.3961 32.7751C60.5195 32.6487 60.667 32.5482 60.8297 32.4795C60.9925 32.4108 61.1674 32.3752 61.3441 32.375C61.5205 32.3748 61.6951 32.4099 61.8577 32.478C62.0204 32.5461 62.1679 32.6459 62.2915 32.7717C62.5309 33.0169 62.6705 33.3424 62.6832 33.6848C62.6959 34.0273 62.5808 34.3622 62.3602 34.6245L61.6858 35.4193C60.1269 37.2576 59.2712 39.5897 59.2712 42C59.2712 44.4103 60.1269 46.7424 61.6858 48.5807L62.3596 49.3755C62.5812 49.6379 62.697 49.9736 62.6843 50.3169C62.6716 50.6602 62.5313 50.9864 62.2908 51.2318C62.1671 51.3567 62.0197 51.4558 61.8573 51.5234C61.6949 51.5909 61.5207 51.6254 61.3448 51.625C61.1685 51.6252 60.9939 51.5903 60.8313 51.5224C60.6686 51.4544 60.5211 51.3546 60.3974 51.229L60.2125 51.042ZM73 57.125C69.0346 57.125 65.2282 55.5659 62.4022 52.7841C62.7264 52.6464 63.0207 52.4468 63.2684 52.1963C63.3152 52.1489 63.3503 52.0932 63.3936 52.043L63.5448 52.1963C63.7959 52.4516 64.0955 52.6542 64.4259 52.7922C64.7564 52.9302 65.111 53.0009 65.4691 53C65.8273 53.001 66.1822 52.9305 66.5127 52.7924C66.8433 52.6544 67.143 52.4518 67.3941 52.1963C67.4409 52.1489 67.4759 52.0932 67.5192 52.043L67.6705 52.1963C67.9215 52.4515 68.221 52.6541 68.5513 52.7921C68.8816 52.9301 69.2361 53.0008 69.5941 53C70.2102 52.9976 70.8066 52.7827 71.2826 52.3916C71.5385 52.7694 71.8363 53.1172 72.1702 53.4283C73.8189 54.938 75.9779 55.7675 78.2133 55.75C78.6189 55.75 79.0218 55.7232 79.4226 55.6813C77.4141 56.6294 75.221 57.1224 73 57.125ZM89.5 45.0174C89.4821 46.4182 89.0956 47.7895 88.3793 48.9934C87.663 50.1973 86.6422 51.1912 85.4197 51.8752L83.6741 52.9065C82.0174 53.8742 80.132 54.3812 78.2133 54.375C76.3264 54.3817 74.5048 53.6845 73.1045 52.4197C72.639 52.0057 72.2664 51.4978 72.0112 50.9295C71.7561 50.3611 71.6242 49.7452 71.6242 49.1222C71.6242 48.4991 71.7561 47.8832 72.0112 47.3148C72.2664 46.7465 72.639 46.2386 73.1045 45.8246L74.8872 44.1746C75.3703 43.7329 75.7573 43.1964 76.024 42.5986C76.2907 42.0008 76.4315 41.3545 76.4375 40.6999C76.4855 39.7248 76.9172 38.8081 77.6385 38.1501C78.3597 37.4921 79.312 37.146 80.2875 37.1875H81.5662C83.6528 37.1866 85.6556 38.008 87.1407 39.4736C88.6257 40.9393 89.4734 42.9311 89.5 45.0174ZM75.0625 25.5846L88.2763 36.5H85.0766C83.9615 36.0475 82.7697 35.814 81.5662 35.8125H80.2875C79.3572 35.8114 78.4421 36.048 77.6289 36.5H75.0625V25.5846Z"/>
<path d="M77.8125 29.625H76.4375V31H77.8125V29.625Z"/>
<path d="M80.5625 32.375H79.1875V33.75H80.5625V32.375Z"/>
<path d="M77.8125 33.75H76.4375V35.125H77.8125V33.75Z"/>
<path d="M50.6914 79H46.9473V70.5449H50.627C51.4199 70.5449 52.0488 70.7344 52.5137 71.1133C52.9785 71.4922 53.2109 72.0059 53.2109 72.6543C53.2109 73.1152 53.0586 73.5195 52.7539 73.8672C52.4531 74.2148 52.0762 74.4219 51.623 74.4883V74.5352C52.2012 74.5781 52.6777 74.791 53.0527 75.1738C53.4277 75.5566 53.6152 76.0254 53.6152 76.5801C53.6152 77.3262 53.3535 77.916 52.8301 78.3496C52.3066 78.7832 51.5938 79 50.6914 79ZM48.7168 71.8633V74.0605H49.9883C50.4609 74.0605 50.8262 73.9629 51.084 73.7676C51.3418 73.5684 51.4707 73.2891 51.4707 72.9297C51.4707 72.5898 51.3574 72.3281 51.1309 72.1445C50.9043 71.957 50.584 71.8633 50.1699 71.8633H48.7168ZM48.7168 77.6816H50.2402C50.752 77.6816 51.1406 77.5762 51.4062 77.3652C51.6758 77.1504 51.8105 76.8418 51.8105 76.4395C51.8105 76.0449 51.6719 75.7441 51.3945 75.5371C51.1211 75.3301 50.7227 75.2266 50.1992 75.2266H48.7168V77.6816Z"/>
<path d="M54.4766 79V72.7188H56.1289V73.8496H56.1641C56.2734 73.4512 56.457 73.1465 56.7148 72.9355C56.9727 72.7246 57.2871 72.6191 57.6582 72.6191C57.8379 72.6191 58 72.6406 58.1445 72.6836V74.1895C57.9844 74.123 57.7773 74.0898 57.5234 74.0898C57.1016 74.0898 56.7734 74.2129 56.5391 74.459C56.3047 74.7051 56.1875 75.0488 56.1875 75.4902V79H54.4766Z"/>
<path d="M61.4551 73.8496C61.084 73.8496 60.7734 73.9766 60.5234 74.2305C60.2773 74.4844 60.1387 74.8086 60.1074 75.2031H62.7734C62.7539 74.8008 62.623 74.4746 62.3809 74.2246C62.1426 73.9746 61.834 73.8496 61.4551 73.8496ZM62.7969 77.0781H64.3672C64.2734 77.6953 63.9648 78.1934 63.4414 78.5723C62.9219 78.9473 62.2754 79.1348 61.502 79.1348C60.5371 79.1348 59.7793 78.8457 59.2285 78.2676C58.6816 77.6895 58.4082 76.8965 58.4082 75.8887C58.4082 74.8848 58.6816 74.084 59.2285 73.4863C59.7754 72.8848 60.5117 72.584 61.4375 72.584C62.3477 72.584 63.0723 72.8691 63.6113 73.4395C64.1504 74.0098 64.4199 74.7734 64.4199 75.7305V76.252H60.0898V76.3574C60.0898 76.8066 60.2207 77.1719 60.4824 77.4531C60.748 77.7305 61.0977 77.8691 61.5312 77.8691C61.8438 77.8691 62.1133 77.7988 62.3398 77.6582C62.5664 77.5137 62.7188 77.3203 62.7969 77.0781Z"/>
<path d="M67.7305 77.8633C68.1094 77.8633 68.4297 77.7539 68.6914 77.5352C68.957 77.3125 69.0898 77.0332 69.0898 76.6973V76.2402L67.7656 76.3223C67.4453 76.3457 67.1973 76.4258 67.0215 76.5625C66.8496 76.6992 66.7637 76.8789 66.7637 77.1016C66.7637 77.3359 66.8516 77.5215 67.0273 77.6582C67.2031 77.7949 67.4375 77.8633 67.7305 77.8633ZM67.168 79.0996C66.5625 79.0996 66.0605 78.9219 65.6621 78.5664C65.2637 78.2109 65.0645 77.7539 65.0645 77.1953C65.0645 76.625 65.2754 76.1777 65.6973 75.8535C66.1191 75.5293 66.7227 75.3438 67.5078 75.2969L69.0898 75.2031V74.7871C69.0898 74.498 68.9941 74.2715 68.8027 74.1074C68.6152 73.9434 68.3594 73.8613 68.0352 73.8613C67.7227 73.8613 67.4668 73.9316 67.2676 74.0723C67.0723 74.2129 66.9531 74.4023 66.9102 74.6406H65.3457C65.377 74.0234 65.6406 73.5273 66.1367 73.1523C66.6328 72.7734 67.291 72.584 68.1113 72.584C68.916 72.584 69.5605 72.7754 70.0449 73.1582C70.5293 73.541 70.7715 74.0488 70.7715 74.6816V79H69.1191V78.0391H69.084C68.9121 78.3672 68.6504 78.627 68.2988 78.8184C67.9473 79.0059 67.5703 79.0996 67.168 79.0996Z"/>
<path d="M73.6543 75.2383L75.7871 72.7188H77.7266L75.3301 75.4141L77.8438 79H75.875L74.0762 76.4453L73.6309 76.9258V79H71.9199V70.5449H73.6309V75.2383H73.6543Z"/>
<path d="M78.793 79V74.0078H77.9375V72.748H78.793V72.2734C78.793 71.6484 78.9531 71.1914 79.2734 70.9023C79.5977 70.6133 80.127 70.4688 80.8613 70.4688C81.1973 70.4688 81.4883 70.4941 81.7344 70.5449V71.6758C81.6094 71.6523 81.4551 71.6406 81.2715 71.6406C80.7324 71.6406 80.4629 71.8711 80.4629 72.332V72.748H81.7109V74.0078H80.5039V79H78.793Z"/>
<path d="M84.7109 77.8633C85.0898 77.8633 85.4102 77.7539 85.6719 77.5352C85.9375 77.3125 86.0703 77.0332 86.0703 76.6973V76.2402L84.7461 76.3223C84.4258 76.3457 84.1777 76.4258 84.002 76.5625C83.8301 76.6992 83.7441 76.8789 83.7441 77.1016C83.7441 77.3359 83.832 77.5215 84.0078 77.6582C84.1836 77.7949 84.418 77.8633 84.7109 77.8633ZM84.1484 79.0996C83.543 79.0996 83.041 78.9219 82.6426 78.5664C82.2441 78.2109 82.0449 77.7539 82.0449 77.1953C82.0449 76.625 82.2559 76.1777 82.6777 75.8535C83.0996 75.5293 83.7031 75.3438 84.4883 75.2969L86.0703 75.2031V74.7871C86.0703 74.498 85.9746 74.2715 85.7832 74.1074C85.5957 73.9434 85.3398 73.8613 85.0156 73.8613C84.7031 73.8613 84.4473 73.9316 84.248 74.0723C84.0527 74.2129 83.9336 74.4023 83.8906 74.6406H82.3262C82.3574 74.0234 82.6211 73.5273 83.1172 73.1523C83.6133 72.7734 84.2715 72.584 85.0918 72.584C85.8965 72.584 86.541 72.7754 87.0254 73.1582C87.5098 73.541 87.752 74.0488 87.752 74.6816V79H86.0996V78.0391H86.0645C85.8926 78.3672 85.6309 78.627 85.2793 78.8184C84.9277 79.0059 84.5508 79.0996 84.1484 79.0996Z"/>
<path d="M88.7539 74.5645C88.7539 73.9668 88.9941 73.4883 89.4746 73.1289C89.9551 72.7656 90.5977 72.584 91.4023 72.584C92.1875 72.584 92.8184 72.7676 93.2949 73.1348C93.7715 73.502 94.0156 73.9902 94.0273 74.5996H92.4512C92.4316 74.3457 92.3262 74.1465 92.1348 74.002C91.9473 73.8574 91.6953 73.7852 91.3789 73.7852C91.082 73.7852 90.8438 73.8477 90.6641 73.9727C90.4883 74.0938 90.4004 74.2559 90.4004 74.459C90.4004 74.7637 90.6738 74.9805 91.2207 75.1094L92.4219 75.3672C93.0508 75.5078 93.502 75.7129 93.7754 75.9824C94.0527 76.248 94.1914 76.6152 94.1914 77.084C94.1914 77.7012 93.9336 78.1973 93.418 78.5723C92.9023 78.9473 92.2285 79.1348 91.3965 79.1348C90.5684 79.1348 89.9062 78.9512 89.4102 78.584C88.9141 78.2168 88.6426 77.7227 88.5957 77.1016H90.2656C90.3086 77.3672 90.4297 77.5723 90.6289 77.7168C90.832 77.8613 91.1035 77.9336 91.4434 77.9336C91.7676 77.9336 92.0215 77.875 92.2051 77.7578C92.3926 77.6367 92.4863 77.4727 92.4863 77.2656C92.4863 77.1055 92.4277 76.9785 92.3105 76.8848C92.1934 76.7871 91.9941 76.7051 91.7129 76.6387L90.5527 76.3809C89.3535 76.1074 88.7539 75.502 88.7539 74.5645Z"/>
<path d="M95.5039 71.2715H97.2148V72.7188H98.375V74.0078H97.2148V77.0137C97.2148 77.4863 97.4609 77.7227 97.9531 77.7227C98.1133 77.7227 98.252 77.7129 98.3691 77.6934V78.9531C98.1699 79 97.8984 79.0234 97.5547 79.0234C96.8164 79.0234 96.2891 78.8906 95.9727 78.625C95.6602 78.3594 95.5039 77.9199 95.5039 77.3066V74.0078H94.6191V72.7188H95.5039V71.2715Z"/>
</mask>
<path d="M11 36C11 22.1929 22.1929 11 36 11H110C123.807 11 135 22.1929 135 36V73C135 86.8071 123.807 98 110 98H36C22.1929 98 11 86.8071 11 73V36Z" fill="#2E3235"/>
<path d="M73 20.6875C68.7848 20.6875 64.6642 21.9375 61.1594 24.2793C57.6546 26.6212 54.9229 29.9497 53.3098 33.8441C51.6967 37.7384 51.2747 42.0236 52.097 46.1579C52.9194 50.2921 54.9492 54.0896 57.9298 57.0702C60.9104 60.0508 64.7079 62.0806 68.8421 62.903C72.9764 63.7253 77.2616 63.3033 81.1559 61.6902C85.0503 60.0771 88.3788 57.3454 90.7207 53.8406C93.0625 50.3358 94.3125 46.2152 94.3125 42C94.3063 36.3495 92.0589 30.9321 88.0634 26.9366C84.0678 22.9411 78.6505 20.6937 73 20.6875ZM73 61.9375C69.0567 61.9375 65.202 60.7682 61.9233 58.5774C58.6446 56.3867 56.0892 53.2729 54.5802 49.6298C53.0711 45.9867 52.6763 41.9779 53.4456 38.1104C54.2149 34.2429 56.1137 30.6904 58.9021 27.9021C61.6904 25.1137 65.2429 23.2149 69.1104 22.4456C72.9779 21.6763 76.9866 22.0711 80.6298 23.5802C84.2729 25.0892 87.3867 27.6446 89.5774 30.9233C91.7682 34.202 92.9375 38.0567 92.9375 42C92.9313 47.2859 90.8288 52.3534 87.0911 56.0911C83.3534 59.8288 78.2859 61.9313 73 61.9375Z" fill="#F83103"/>
<path d="M82.625 39.9375C81.6732 39.9375 80.7427 40.2197 79.9513 40.7486C79.1599 41.2774 78.5431 42.029 78.1788 42.9083C77.8146 43.7877 77.7193 44.7553 77.905 45.6889C78.0907 46.6224 78.549 47.4799 79.222 48.153C79.8951 48.826 80.7526 49.2843 81.6861 49.47C82.6197 49.6557 83.5873 49.5604 84.4667 49.1962C85.346 48.8319 86.0976 48.2151 86.6264 47.4237C87.1552 46.6323 87.4375 45.7018 87.4375 44.75C87.4359 43.4741 86.9283 42.251 86.0261 41.3489C85.124 40.4467 83.9008 39.9391 82.625 39.9375ZM82.625 48.1875C81.9451 48.1875 81.2805 47.9859 80.7152 47.6082C80.1499 47.2305 79.7093 46.6936 79.4492 46.0655C79.189 45.4374 79.1209 44.7462 79.2535 44.0794C79.3862 43.4126 79.7136 42.8001 80.1943 42.3193C80.6751 41.8386 81.2876 41.5112 81.9544 41.3785C82.6212 41.2459 83.3124 41.314 83.9405 41.5742C84.5686 41.8343 85.1055 42.2749 85.4832 42.8402C85.8609 43.4055 86.0625 44.0701 86.0625 44.75C86.0614 45.6613 85.6989 46.5351 85.0545 47.1795C84.4101 47.8239 83.5363 48.1864 82.625 48.1875Z" fill="#F83103"/>
<path d="M74.0821 23.5063C73.9646 23.5616 73.8652 23.6491 73.7953 23.7586C73.7255 23.8681 73.6881 23.9951 73.6875 24.125V25.5199C71.2283 25.4209 68.7779 25.8718 66.5149 26.8397C64.252 27.8076 62.2335 29.2681 60.6064 31.1148C60.158 31.2374 59.7492 31.4743 59.4198 31.8023L59.2362 31.9873C56.6026 34.6534 55.1257 38.25 55.1257 41.9976C55.1257 45.7452 56.6026 49.3418 59.2362 52.0079L59.4205 52.1942C59.7495 52.522 60.1579 52.7589 60.6058 52.8817C62.0439 54.5211 63.7929 55.8588 65.7516 56.8175C67.7103 57.7763 69.8397 58.337 72.0165 58.4672C74.1934 58.5973 76.3744 58.2944 78.4334 57.576C80.4924 56.8575 82.3884 55.7377 84.0117 54.2815C84.1327 54.2162 84.2551 54.1543 84.3733 54.0849L86.1189 53.0536C87.5474 52.2497 88.7391 51.0837 89.574 49.673C90.4089 48.2623 90.8576 46.6566 90.875 45.0174C90.8637 43.6432 90.5457 42.2888 89.9442 41.0531C89.3428 39.8174 88.473 38.7316 87.3983 37.875H90.1875C90.3291 37.875 90.4672 37.8314 90.583 37.75C90.6988 37.6686 90.7866 37.5534 90.8345 37.4202C90.8825 37.287 90.8881 37.1423 90.8506 37.0057C90.8132 36.8692 90.7346 36.7476 90.6254 36.6574L74.8129 23.5949C74.7121 23.5124 74.5898 23.4602 74.4604 23.4445C74.331 23.4288 74.1998 23.4502 74.0821 23.5063ZM73.6875 26.9046V37.1875C73.6875 37.3698 73.7599 37.5447 73.8889 37.6736C74.0178 37.8026 74.1927 37.875 74.375 37.875H76.0312C75.4065 38.6846 75.0661 39.6774 75.0625 40.6999C75.0602 41.166 74.9604 41.6264 74.7695 42.0516C74.5786 42.4767 74.3009 42.8573 73.9543 43.1688L72.175 44.8187C71.4681 45.4734 70.9285 46.2879 70.6013 47.1941C69.4338 45.6005 68.8371 43.6602 68.9073 41.686C68.9775 39.7119 69.7106 37.8189 70.9884 36.3123L71.6642 35.5176C72.106 34.9917 72.3362 34.3202 72.3099 33.6338C72.2836 32.9475 72.0027 32.2956 71.5219 31.8051C71.2706 31.5491 70.9707 31.346 70.6397 31.2078C70.3088 31.0695 69.9535 30.9989 69.5948 31C69.2366 30.9992 68.8817 31.0699 68.5512 31.208C68.2206 31.3462 67.921 31.5489 67.6698 31.8044L67.5186 31.9563C67.4759 31.9061 67.4409 31.8511 67.3941 31.8037C67.1431 31.5483 66.8435 31.3457 66.5131 31.2077C66.1826 31.0697 65.8279 30.9991 65.4698 31C65.1116 30.9992 64.7567 31.0699 64.4262 31.208C64.0956 31.3462 63.796 31.5489 63.5448 31.8044L63.3936 31.9563C63.3509 31.9061 63.3159 31.8511 63.2691 31.8037C63.0214 31.5532 62.7271 31.3536 62.4029 31.2159C65.2287 28.4343 69.0348 26.8752 73 26.875C73.2282 26.875 73.4579 26.8943 73.6875 26.9046ZM67.5351 48.4852L66.8599 47.6904C65.5122 46.1007 64.7725 44.0842 64.7725 42C64.7725 39.9158 65.5122 37.8993 66.8599 36.3096L67.5358 35.5148C67.7895 35.2117 67.9748 34.8573 68.0789 34.4759C68.1829 34.0946 68.2033 33.6952 68.1387 33.3052C68.2459 33.1883 68.3504 33.0701 68.4625 32.9573L68.6461 32.7717C68.7698 32.6459 68.9174 32.546 69.0802 32.4779C69.2429 32.4098 69.4177 32.3748 69.5941 32.375C69.7705 32.3748 69.9451 32.4099 70.1077 32.478C70.2704 32.5461 70.4179 32.6459 70.5415 32.7717C70.7809 33.0169 70.9205 33.3424 70.9332 33.6848C70.9459 34.0273 70.8308 34.3622 70.6102 34.6245L69.9358 35.4193C68.3764 37.2577 67.5204 39.5902 67.5204 42.001C67.5204 44.4118 68.3764 46.7443 69.9358 48.5828L70.2555 48.9561C70.2555 49.0118 70.2466 49.0668 70.2466 49.1225C70.2504 49.804 70.3766 50.4793 70.6192 51.1162C70.5903 51.152 70.5711 51.1939 70.5387 51.2269C70.4156 51.3525 70.2688 51.4524 70.1067 51.5207C69.9447 51.5891 69.7707 51.6245 69.5948 51.625C69.4185 51.6252 69.2439 51.5903 69.0813 51.5224C68.9186 51.4544 68.7711 51.3546 68.6474 51.229L68.4625 51.0413C68.3511 50.9292 68.2466 50.811 68.1394 50.6976C68.2043 50.307 68.1839 49.9071 68.0796 49.5252C67.9753 49.1433 67.7895 48.7885 67.5351 48.4852ZM63.4101 48.4852L62.7349 47.6904C61.3872 46.1007 60.6475 44.0842 60.6475 42C60.6475 39.9158 61.3872 37.8993 62.7349 36.3096L63.4108 35.5148C63.6645 35.2117 63.8498 34.8573 63.9539 34.4759C64.0579 34.0946 64.0783 33.6952 64.0137 33.3052C64.1209 33.1883 64.2254 33.0701 64.3375 32.9573L64.5211 32.7717C64.6448 32.6459 64.7924 32.546 64.9552 32.4779C65.1179 32.4098 65.2927 32.3748 65.4691 32.375C65.6455 32.3748 65.8201 32.4099 65.9827 32.478C66.1454 32.5461 66.2929 32.6459 66.4165 32.7717C66.6559 33.0169 66.7955 33.3424 66.8082 33.6848C66.8209 34.0273 66.7058 34.3622 66.4852 34.6245L65.8108 35.4193C64.2519 37.2576 63.3962 39.5897 63.3962 42C63.3962 44.4103 64.2519 46.7424 65.8108 48.5807L66.4846 49.3755C66.7062 49.6379 66.822 49.9736 66.8093 50.3169C66.7966 50.6602 66.6563 50.9864 66.4158 51.2318C66.2921 51.3567 66.1447 51.4558 65.9823 51.5234C65.8199 51.5909 65.6457 51.6254 65.4698 51.625C65.2935 51.6252 65.1189 51.5903 64.9563 51.5224C64.7936 51.4544 64.6461 51.3546 64.5224 51.229L64.3375 51.0413C64.2261 50.9292 64.1216 50.811 64.0144 50.6976C64.0793 50.307 64.0589 49.9071 63.9546 49.5252C63.8503 49.1433 63.6645 48.7885 63.4101 48.4852ZM60.2125 51.042C57.8351 48.6335 56.5021 45.3855 56.5021 42.0014C56.5021 38.6172 57.8351 35.3692 60.2125 32.9608L60.3961 32.7751C60.5195 32.6487 60.667 32.5482 60.8297 32.4795C60.9925 32.4108 61.1674 32.3752 61.3441 32.375C61.5205 32.3748 61.6951 32.4099 61.8577 32.478C62.0204 32.5461 62.1679 32.6459 62.2915 32.7717C62.5309 33.0169 62.6705 33.3424 62.6832 33.6848C62.6959 34.0273 62.5808 34.3622 62.3602 34.6245L61.6858 35.4193C60.1269 37.2576 59.2712 39.5897 59.2712 42C59.2712 44.4103 60.1269 46.7424 61.6858 48.5807L62.3596 49.3755C62.5812 49.6379 62.697 49.9736 62.6843 50.3169C62.6716 50.6602 62.5313 50.9864 62.2908 51.2318C62.1671 51.3567 62.0197 51.4558 61.8573 51.5234C61.6949 51.5909 61.5207 51.6254 61.3448 51.625C61.1685 51.6252 60.9939 51.5903 60.8313 51.5224C60.6686 51.4544 60.5211 51.3546 60.3974 51.229L60.2125 51.042ZM73 57.125C69.0346 57.125 65.2282 55.5659 62.4022 52.7841C62.7264 52.6464 63.0207 52.4468 63.2684 52.1963C63.3152 52.1489 63.3503 52.0932 63.3936 52.043L63.5448 52.1963C63.7959 52.4516 64.0955 52.6542 64.4259 52.7922C64.7564 52.9302 65.111 53.0009 65.4691 53C65.8273 53.001 66.1822 52.9305 66.5127 52.7924C66.8433 52.6544 67.143 52.4518 67.3941 52.1963C67.4409 52.1489 67.4759 52.0932 67.5192 52.043L67.6705 52.1963C67.9215 52.4515 68.221 52.6541 68.5513 52.7921C68.8816 52.9301 69.2361 53.0008 69.5941 53C70.2102 52.9976 70.8066 52.7827 71.2826 52.3916C71.5385 52.7694 71.8363 53.1172 72.1702 53.4283C73.8189 54.938 75.9779 55.7675 78.2133 55.75C78.6189 55.75 79.0218 55.7232 79.4226 55.6813C77.4141 56.6294 75.221 57.1224 73 57.125ZM89.5 45.0174C89.4821 46.4182 89.0956 47.7895 88.3793 48.9934C87.663 50.1973 86.6422 51.1912 85.4197 51.8752L83.6741 52.9065C82.0174 53.8742 80.132 54.3812 78.2133 54.375C76.3264 54.3817 74.5048 53.6845 73.1045 52.4197C72.639 52.0057 72.2664 51.4978 72.0112 50.9295C71.7561 50.3611 71.6242 49.7452 71.6242 49.1222C71.6242 48.4991 71.7561 47.8832 72.0112 47.3148C72.2664 46.7465 72.639 46.2386 73.1045 45.8246L74.8872 44.1746C75.3703 43.7329 75.7573 43.1964 76.024 42.5986C76.2907 42.0008 76.4315 41.3545 76.4375 40.6999C76.4855 39.7248 76.9172 38.8081 77.6385 38.1501C78.3597 37.4921 79.312 37.146 80.2875 37.1875H81.5662C83.6528 37.1866 85.6556 38.008 87.1407 39.4736C88.6257 40.9393 89.4734 42.9311 89.5 45.0174ZM75.0625 25.5846L88.2763 36.5H85.0766C83.9615 36.0475 82.7697 35.814 81.5662 35.8125H80.2875C79.3572 35.8114 78.4421 36.048 77.6289 36.5H75.0625V25.5846Z" fill="#F83103"/>
<path d="M77.8125 29.625H76.4375V31H77.8125V29.625Z" fill="#F83103"/>
<path d="M80.5625 32.375H79.1875V33.75H80.5625V32.375Z" fill="#F83103"/>
<path d="M77.8125 33.75H76.4375V35.125H77.8125V33.75Z" fill="#F83103"/>
<path d="M50.6914 79H46.9473V70.5449H50.627C51.4199 70.5449 52.0488 70.7344 52.5137 71.1133C52.9785 71.4922 53.2109 72.0059 53.2109 72.6543C53.2109 73.1152 53.0586 73.5195 52.7539 73.8672C52.4531 74.2148 52.0762 74.4219 51.623 74.4883V74.5352C52.2012 74.5781 52.6777 74.791 53.0527 75.1738C53.4277 75.5566 53.6152 76.0254 53.6152 76.5801C53.6152 77.3262 53.3535 77.916 52.8301 78.3496C52.3066 78.7832 51.5938 79 50.6914 79ZM48.7168 71.8633V74.0605H49.9883C50.4609 74.0605 50.8262 73.9629 51.084 73.7676C51.3418 73.5684 51.4707 73.2891 51.4707 72.9297C51.4707 72.5898 51.3574 72.3281 51.1309 72.1445C50.9043 71.957 50.584 71.8633 50.1699 71.8633H48.7168ZM48.7168 77.6816H50.2402C50.752 77.6816 51.1406 77.5762 51.4062 77.3652C51.6758 77.1504 51.8105 76.8418 51.8105 76.4395C51.8105 76.0449 51.6719 75.7441 51.3945 75.5371C51.1211 75.3301 50.7227 75.2266 50.1992 75.2266H48.7168V77.6816Z" fill="#F83103"/>
<path d="M54.4766 79V72.7188H56.1289V73.8496H56.1641C56.2734 73.4512 56.457 73.1465 56.7148 72.9355C56.9727 72.7246 57.2871 72.6191 57.6582 72.6191C57.8379 72.6191 58 72.6406 58.1445 72.6836V74.1895C57.9844 74.123 57.7773 74.0898 57.5234 74.0898C57.1016 74.0898 56.7734 74.2129 56.5391 74.459C56.3047 74.7051 56.1875 75.0488 56.1875 75.4902V79H54.4766Z" fill="#F83103"/>
<path d="M61.4551 73.8496C61.084 73.8496 60.7734 73.9766 60.5234 74.2305C60.2773 74.4844 60.1387 74.8086 60.1074 75.2031H62.7734C62.7539 74.8008 62.623 74.4746 62.3809 74.2246C62.1426 73.9746 61.834 73.8496 61.4551 73.8496ZM62.7969 77.0781H64.3672C64.2734 77.6953 63.9648 78.1934 63.4414 78.5723C62.9219 78.9473 62.2754 79.1348 61.502 79.1348C60.5371 79.1348 59.7793 78.8457 59.2285 78.2676C58.6816 77.6895 58.4082 76.8965 58.4082 75.8887C58.4082 74.8848 58.6816 74.084 59.2285 73.4863C59.7754 72.8848 60.5117 72.584 61.4375 72.584C62.3477 72.584 63.0723 72.8691 63.6113 73.4395C64.1504 74.0098 64.4199 74.7734 64.4199 75.7305V76.252H60.0898V76.3574C60.0898 76.8066 60.2207 77.1719 60.4824 77.4531C60.748 77.7305 61.0977 77.8691 61.5312 77.8691C61.8438 77.8691 62.1133 77.7988 62.3398 77.6582C62.5664 77.5137 62.7188 77.3203 62.7969 77.0781Z" fill="#F83103"/>
<path d="M67.7305 77.8633C68.1094 77.8633 68.4297 77.7539 68.6914 77.5352C68.957 77.3125 69.0898 77.0332 69.0898 76.6973V76.2402L67.7656 76.3223C67.4453 76.3457 67.1973 76.4258 67.0215 76.5625C66.8496 76.6992 66.7637 76.8789 66.7637 77.1016C66.7637 77.3359 66.8516 77.5215 67.0273 77.6582C67.2031 77.7949 67.4375 77.8633 67.7305 77.8633ZM67.168 79.0996C66.5625 79.0996 66.0605 78.9219 65.6621 78.5664C65.2637 78.2109 65.0645 77.7539 65.0645 77.1953C65.0645 76.625 65.2754 76.1777 65.6973 75.8535C66.1191 75.5293 66.7227 75.3438 67.5078 75.2969L69.0898 75.2031V74.7871C69.0898 74.498 68.9941 74.2715 68.8027 74.1074C68.6152 73.9434 68.3594 73.8613 68.0352 73.8613C67.7227 73.8613 67.4668 73.9316 67.2676 74.0723C67.0723 74.2129 66.9531 74.4023 66.9102 74.6406H65.3457C65.377 74.0234 65.6406 73.5273 66.1367 73.1523C66.6328 72.7734 67.291 72.584 68.1113 72.584C68.916 72.584 69.5605 72.7754 70.0449 73.1582C70.5293 73.541 70.7715 74.0488 70.7715 74.6816V79H69.1191V78.0391H69.084C68.9121 78.3672 68.6504 78.627 68.2988 78.8184C67.9473 79.0059 67.5703 79.0996 67.168 79.0996Z" fill="#F83103"/>
<path d="M73.6543 75.2383L75.7871 72.7188H77.7266L75.3301 75.4141L77.8438 79H75.875L74.0762 76.4453L73.6309 76.9258V79H71.9199V70.5449H73.6309V75.2383H73.6543Z" fill="#F83103"/>
<path d="M78.793 79V74.0078H77.9375V72.748H78.793V72.2734C78.793 71.6484 78.9531 71.1914 79.2734 70.9023C79.5977 70.6133 80.127 70.4688 80.8613 70.4688C81.1973 70.4688 81.4883 70.4941 81.7344 70.5449V71.6758C81.6094 71.6523 81.4551 71.6406 81.2715 71.6406C80.7324 71.6406 80.4629 71.8711 80.4629 72.332V72.748H81.7109V74.0078H80.5039V79H78.793Z" fill="#F83103"/>
<path d="M84.7109 77.8633C85.0898 77.8633 85.4102 77.7539 85.6719 77.5352C85.9375 77.3125 86.0703 77.0332 86.0703 76.6973V76.2402L84.7461 76.3223C84.4258 76.3457 84.1777 76.4258 84.002 76.5625C83.8301 76.6992 83.7441 76.8789 83.7441 77.1016C83.7441 77.3359 83.832 77.5215 84.0078 77.6582C84.1836 77.7949 84.418 77.8633 84.7109 77.8633ZM84.1484 79.0996C83.543 79.0996 83.041 78.9219 82.6426 78.5664C82.2441 78.2109 82.0449 77.7539 82.0449 77.1953C82.0449 76.625 82.2559 76.1777 82.6777 75.8535C83.0996 75.5293 83.7031 75.3438 84.4883 75.2969L86.0703 75.2031V74.7871C86.0703 74.498 85.9746 74.2715 85.7832 74.1074C85.5957 73.9434 85.3398 73.8613 85.0156 73.8613C84.7031 73.8613 84.4473 73.9316 84.248 74.0723C84.0527 74.2129 83.9336 74.4023 83.8906 74.6406H82.3262C82.3574 74.0234 82.6211 73.5273 83.1172 73.1523C83.6133 72.7734 84.2715 72.584 85.0918 72.584C85.8965 72.584 86.541 72.7754 87.0254 73.1582C87.5098 73.541 87.752 74.0488 87.752 74.6816V79H86.0996V78.0391H86.0645C85.8926 78.3672 85.6309 78.627 85.2793 78.8184C84.9277 79.0059 84.5508 79.0996 84.1484 79.0996Z" fill="#F83103"/>
<path d="M88.7539 74.5645C88.7539 73.9668 88.9941 73.4883 89.4746 73.1289C89.9551 72.7656 90.5977 72.584 91.4023 72.584C92.1875 72.584 92.8184 72.7676 93.2949 73.1348C93.7715 73.502 94.0156 73.9902 94.0273 74.5996H92.4512C92.4316 74.3457 92.3262 74.1465 92.1348 74.002C91.9473 73.8574 91.6953 73.7852 91.3789 73.7852C91.082 73.7852 90.8438 73.8477 90.6641 73.9727C90.4883 74.0938 90.4004 74.2559 90.4004 74.459C90.4004 74.7637 90.6738 74.9805 91.2207 75.1094L92.4219 75.3672C93.0508 75.5078 93.502 75.7129 93.7754 75.9824C94.0527 76.248 94.1914 76.6152 94.1914 77.084C94.1914 77.7012 93.9336 78.1973 93.418 78.5723C92.9023 78.9473 92.2285 79.1348 91.3965 79.1348C90.5684 79.1348 89.9062 78.9512 89.4102 78.584C88.9141 78.2168 88.6426 77.7227 88.5957 77.1016H90.2656C90.3086 77.3672 90.4297 77.5723 90.6289 77.7168C90.832 77.8613 91.1035 77.9336 91.4434 77.9336C91.7676 77.9336 92.0215 77.875 92.2051 77.7578C92.3926 77.6367 92.4863 77.4727 92.4863 77.2656C92.4863 77.1055 92.4277 76.9785 92.3105 76.8848C92.1934 76.7871 91.9941 76.7051 91.7129 76.6387L90.5527 76.3809C89.3535 76.1074 88.7539 75.502 88.7539 74.5645Z" fill="#F83103"/>
<path d="M95.5039 71.2715H97.2148V72.7188H98.375V74.0078H97.2148V77.0137C97.2148 77.4863 97.4609 77.7227 97.9531 77.7227C98.1133 77.7227 98.252 77.7129 98.3691 77.6934V78.9531C98.1699 79 97.8984 79.0234 97.5547 79.0234C96.8164 79.0234 96.2891 78.8906 95.9727 78.625C95.6602 78.3594 95.5039 77.9199 95.5039 77.3066V74.0078H94.6191V72.7188H95.5039V71.2715Z" fill="#F83103"/>
<path d="M11 36C11 22.1929 22.1929 11 36 11H110C123.807 11 135 22.1929 135 36V73C135 86.8071 123.807 98 110 98H36C22.1929 98 11 86.8071 11 73V36Z" stroke="#F83103" stroke-width="2" mask="url(#path-1-outside-1_356_185)"/>
<path d="M73 20.6875C68.7848 20.6875 64.6642 21.9375 61.1594 24.2793C57.6546 26.6212 54.9229 29.9497 53.3098 33.8441C51.6967 37.7384 51.2747 42.0236 52.097 46.1579C52.9194 50.2921 54.9492 54.0896 57.9298 57.0702C60.9104 60.0508 64.7079 62.0806 68.8421 62.903C72.9764 63.7253 77.2616 63.3033 81.1559 61.6902C85.0503 60.0771 88.3788 57.3454 90.7207 53.8406C93.0625 50.3358 94.3125 46.2152 94.3125 42C94.3063 36.3495 92.0589 30.9321 88.0634 26.9366C84.0678 22.9411 78.6505 20.6937 73 20.6875ZM73 61.9375C69.0567 61.9375 65.202 60.7682 61.9233 58.5774C58.6446 56.3867 56.0892 53.2729 54.5802 49.6298C53.0711 45.9867 52.6763 41.9779 53.4456 38.1104C54.2149 34.2429 56.1137 30.6904 58.9021 27.9021C61.6904 25.1137 65.2429 23.2149 69.1104 22.4456C72.9779 21.6763 76.9866 22.0711 80.6298 23.5802C84.2729 25.0892 87.3867 27.6446 89.5774 30.9233C91.7682 34.202 92.9375 38.0567 92.9375 42C92.9313 47.2859 90.8288 52.3534 87.0911 56.0911C83.3534 59.8288 78.2859 61.9313 73 61.9375Z" stroke="#F83103" stroke-width="2" mask="url(#path-1-outside-1_356_185)"/>
<path d="M82.625 39.9375C81.6732 39.9375 80.7427 40.2197 79.9513 40.7486C79.1599 41.2774 78.5431 42.029 78.1788 42.9083C77.8146 43.7877 77.7193 44.7553 77.905 45.6889C78.0907 46.6224 78.549 47.4799 79.222 48.153C79.8951 48.826 80.7526 49.2843 81.6861 49.47C82.6197 49.6557 83.5873 49.5604 84.4667 49.1962C85.346 48.8319 86.0976 48.2151 86.6264 47.4237C87.1552 46.6323 87.4375 45.7018 87.4375 44.75C87.4359 43.4741 86.9283 42.251 86.0261 41.3489C85.124 40.4467 83.9008 39.9391 82.625 39.9375ZM82.625 48.1875C81.9451 48.1875 81.2805 47.9859 80.7152 47.6082C80.1499 47.2305 79.7093 46.6936 79.4492 46.0655C79.189 45.4374 79.1209 44.7462 79.2535 44.0794C79.3862 43.4126 79.7136 42.8001 80.1943 42.3193C80.6751 41.8386 81.2876 41.5112 81.9544 41.3785C82.6212 41.2459 83.3124 41.314 83.9405 41.5742C84.5686 41.8343 85.1055 42.2749 85.4832 42.8402C85.8609 43.4055 86.0625 44.0701 86.0625 44.75C86.0614 45.6613 85.6989 46.5351 85.0545 47.1795C84.4101 47.8239 83.5363 48.1864 82.625 48.1875Z" stroke="#F83103" stroke-width="2" mask="url(#path-1-outside-1_356_185)"/>
<path d="M74.0821 23.5063C73.9646 23.5616 73.8652 23.6491 73.7953 23.7586C73.7255 23.8681 73.6881 23.9951 73.6875 24.125V25.5199C71.2283 25.4209 68.7779 25.8718 66.5149 26.8397C64.252 27.8076 62.2335 29.2681 60.6064 31.1148C60.158 31.2374 59.7492 31.4743 59.4198 31.8023L59.2362 31.9873C56.6026 34.6534 55.1257 38.25 55.1257 41.9976C55.1257 45.7452 56.6026 49.3418 59.2362 52.0079L59.4205 52.1942C59.7495 52.522 60.1579 52.7589 60.6058 52.8817C62.0439 54.5211 63.7929 55.8588 65.7516 56.8175C67.7103 57.7763 69.8397 58.337 72.0165 58.4672C74.1934 58.5973 76.3744 58.2944 78.4334 57.576C80.4924 56.8575 82.3884 55.7377 84.0117 54.2815C84.1327 54.2162 84.2551 54.1543 84.3733 54.0849L86.1189 53.0536C87.5474 52.2497 88.7391 51.0837 89.574 49.673C90.4089 48.2623 90.8576 46.6566 90.875 45.0174C90.8637 43.6432 90.5457 42.2888 89.9442 41.0531C89.3428 39.8174 88.473 38.7316 87.3983 37.875H90.1875C90.3291 37.875 90.4672 37.8314 90.583 37.75C90.6988 37.6686 90.7866 37.5534 90.8345 37.4202C90.8825 37.287 90.8881 37.1423 90.8506 37.0057C90.8132 36.8692 90.7346 36.7476 90.6254 36.6574L74.8129 23.5949C74.7121 23.5124 74.5898 23.4602 74.4604 23.4445C74.331 23.4288 74.1998 23.4502 74.0821 23.5063ZM73.6875 26.9046V37.1875C73.6875 37.3698 73.7599 37.5447 73.8889 37.6736C74.0178 37.8026 74.1927 37.875 74.375 37.875H76.0312C75.4065 38.6846 75.0661 39.6774 75.0625 40.6999C75.0602 41.166 74.9604 41.6264 74.7695 42.0516C74.5786 42.4767 74.3009 42.8573 73.9543 43.1688L72.175 44.8187C71.4681 45.4734 70.9285 46.2879 70.6013 47.1941C69.4338 45.6005 68.8371 43.6602 68.9073 41.686C68.9775 39.7119 69.7106 37.8189 70.9884 36.3123L71.6642 35.5176C72.106 34.9917 72.3362 34.3202 72.3099 33.6338C72.2836 32.9475 72.0027 32.2956 71.5219 31.8051C71.2706 31.5491 70.9707 31.346 70.6397 31.2078C70.3088 31.0695 69.9535 30.9989 69.5948 31C69.2366 30.9992 68.8817 31.0699 68.5512 31.208C68.2206 31.3462 67.921 31.5489 67.6698 31.8044L67.5186 31.9563C67.4759 31.9061 67.4409 31.8511 67.3941 31.8037C67.1431 31.5483 66.8435 31.3457 66.5131 31.2077C66.1826 31.0697 65.8279 30.9991 65.4698 31C65.1116 30.9992 64.7567 31.0699 64.4262 31.208C64.0956 31.3462 63.796 31.5489 63.5448 31.8044L63.3936 31.9563C63.3509 31.9061 63.3159 31.8511 63.2691 31.8037C63.0214 31.5532 62.7271 31.3536 62.4029 31.2159C65.2287 28.4343 69.0348 26.8752 73 26.875C73.2282 26.875 73.4579 26.8943 73.6875 26.9046ZM67.5351 48.4852L66.8599 47.6904C65.5122 46.1007 64.7725 44.0842 64.7725 42C64.7725 39.9158 65.5122 37.8993 66.8599 36.3096L67.5358 35.5148C67.7895 35.2117 67.9748 34.8573 68.0789 34.4759C68.1829 34.0946 68.2033 33.6952 68.1387 33.3052C68.2459 33.1883 68.3504 33.0701 68.4625 32.9573L68.6461 32.7717C68.7698 32.6459 68.9174 32.546 69.0802 32.4779C69.2429 32.4098 69.4177 32.3748 69.5941 32.375C69.7705 32.3748 69.9451 32.4099 70.1077 32.478C70.2704 32.5461 70.4179 32.6459 70.5415 32.7717C70.7809 33.0169 70.9205 33.3424 70.9332 33.6848C70.9459 34.0273 70.8308 34.3622 70.6102 34.6245L69.9358 35.4193C68.3764 37.2577 67.5204 39.5902 67.5204 42.001C67.5204 44.4118 68.3764 46.7443 69.9358 48.5828L70.2555 48.9561C70.2555 49.0118 70.2466 49.0668 70.2466 49.1225C70.2504 49.804 70.3766 50.4793 70.6192 51.1162C70.5903 51.152 70.5711 51.1939 70.5387 51.2269C70.4156 51.3525 70.2688 51.4524 70.1067 51.5207C69.9447 51.5891 69.7707 51.6245 69.5948 51.625C69.4185 51.6252 69.2439 51.5903 69.0813 51.5224C68.9186 51.4544 68.7711 51.3546 68.6474 51.229L68.4625 51.0413C68.3511 50.9292 68.2466 50.811 68.1394 50.6976C68.2043 50.307 68.1839 49.9071 68.0796 49.5252C67.9753 49.1433 67.7895 48.7885 67.5351 48.4852ZM63.4101 48.4852L62.7349 47.6904C61.3872 46.1007 60.6475 44.0842 60.6475 42C60.6475 39.9158 61.3872 37.8993 62.7349 36.3096L63.4108 35.5148C63.6645 35.2117 63.8498 34.8573 63.9539 34.4759C64.0579 34.0946 64.0783 33.6952 64.0137 33.3052C64.1209 33.1883 64.2254 33.0701 64.3375 32.9573L64.5211 32.7717C64.6448 32.6459 64.7924 32.546 64.9552 32.4779C65.1179 32.4098 65.2927 32.3748 65.4691 32.375C65.6455 32.3748 65.8201 32.4099 65.9827 32.478C66.1454 32.5461 66.2929 32.6459 66.4165 32.7717C66.6559 33.0169 66.7955 33.3424 66.8082 33.6848C66.8209 34.0273 66.7058 34.3622 66.4852 34.6245L65.8108 35.4193C64.2519 37.2576 63.3962 39.5897 63.3962 42C63.3962 44.4103 64.2519 46.7424 65.8108 48.5807L66.4846 49.3755C66.7062 49.6379 66.822 49.9736 66.8093 50.3169C66.7966 50.6602 66.6563 50.9864 66.4158 51.2318C66.2921 51.3567 66.1447 51.4558 65.9823 51.5234C65.8199 51.5909 65.6457 51.6254 65.4698 51.625C65.2935 51.6252 65.1189 51.5903 64.9563 51.5224C64.7936 51.4544 64.6461 51.3546 64.5224 51.229L64.3375 51.0413C64.2261 50.9292 64.1216 50.811 64.0144 50.6976C64.0793 50.307 64.0589 49.9071 63.9546 49.5252C63.8503 49.1433 63.6645 48.7885 63.4101 48.4852ZM60.2125 51.042C57.8351 48.6335 56.5021 45.3855 56.5021 42.0014C56.5021 38.6172 57.8351 35.3692 60.2125 32.9608L60.3961 32.7751C60.5195 32.6487 60.667 32.5482 60.8297 32.4795C60.9925 32.4108 61.1674 32.3752 61.3441 32.375C61.5205 32.3748 61.6951 32.4099 61.8577 32.478C62.0204 32.5461 62.1679 32.6459 62.2915 32.7717C62.5309 33.0169 62.6705 33.3424 62.6832 33.6848C62.6959 34.0273 62.5808 34.3622 62.3602 34.6245L61.6858 35.4193C60.1269 37.2576 59.2712 39.5897 59.2712 42C59.2712 44.4103 60.1269 46.7424 61.6858 48.5807L62.3596 49.3755C62.5812 49.6379 62.697 49.9736 62.6843 50.3169C62.6716 50.6602 62.5313 50.9864 62.2908 51.2318C62.1671 51.3567 62.0197 51.4558 61.8573 51.5234C61.6949 51.5909 61.5207 51.6254 61.3448 51.625C61.1685 51.6252 60.9939 51.5903 60.8313 51.5224C60.6686 51.4544 60.5211 51.3546 60.3974 51.229L60.2125 51.042ZM73 57.125C69.0346 57.125 65.2282 55.5659 62.4022 52.7841C62.7264 52.6464 63.0207 52.4468 63.2684 52.1963C63.3152 52.1489 63.3503 52.0932 63.3936 52.043L63.5448 52.1963C63.7959 52.4516 64.0955 52.6542 64.4259 52.7922C64.7564 52.9302 65.111 53.0009 65.4691 53C65.8273 53.001 66.1822 52.9305 66.5127 52.7924C66.8433 52.6544 67.143 52.4518 67.3941 52.1963C67.4409 52.1489 67.4759 52.0932 67.5192 52.043L67.6705 52.1963C67.9215 52.4515 68.221 52.6541 68.5513 52.7921C68.8816 52.9301 69.2361 53.0008 69.5941 53C70.2102 52.9976 70.8066 52.7827 71.2826 52.3916C71.5385 52.7694 71.8363 53.1172 72.1702 53.4283C73.8189 54.938 75.9779 55.7675 78.2133 55.75C78.6189 55.75 79.0218 55.7232 79.4226 55.6813C77.4141 56.6294 75.221 57.1224 73 57.125ZM89.5 45.0174C89.4821 46.4182 89.0956 47.7895 88.3793 48.9934C87.663 50.1973 86.6422 51.1912 85.4197 51.8752L83.6741 52.9065C82.0174 53.8742 80.132 54.3812 78.2133 54.375C76.3264 54.3817 74.5048 53.6845 73.1045 52.4197C72.639 52.0057 72.2664 51.4978 72.0112 50.9295C71.7561 50.3611 71.6242 49.7452 71.6242 49.1222C71.6242 48.4991 71.7561 47.8832 72.0112 47.3148C72.2664 46.7465 72.639 46.2386 73.1045 45.8246L74.8872 44.1746C75.3703 43.7329 75.7573 43.1964 76.024 42.5986C76.2907 42.0008 76.4315 41.3545 76.4375 40.6999C76.4855 39.7248 76.9172 38.8081 77.6385 38.1501C78.3597 37.4921 79.312 37.146 80.2875 37.1875H81.5662C83.6528 37.1866 85.6556 38.008 87.1407 39.4736C88.6257 40.9393 89.4734 42.9311 89.5 45.0174ZM75.0625 25.5846L88.2763 36.5H85.0766C83.9615 36.0475 82.7697 35.814 81.5662 35.8125H80.2875C79.3572 35.8114 78.4421 36.048 77.6289 36.5H75.0625V25.5846Z" stroke="#F83103" stroke-width="2" mask="url(#path-1-outside-1_356_185)"/>
<path d="M77.8125 29.625H76.4375V31H77.8125V29.625Z" stroke="#F83103" stroke-width="2" mask="url(#path-1-outside-1_356_185)"/>
<path d="M80.5625 32.375H79.1875V33.75H80.5625V32.375Z" stroke="#F83103" stroke-width="2" mask="url(#path-1-outside-1_356_185)"/>
<path d="M77.8125 33.75H76.4375V35.125H77.8125V33.75Z" stroke="#F83103" stroke-width="2" mask="url(#path-1-outside-1_356_185)"/>
<path d="M50.6914 79H46.9473V70.5449H50.627C51.4199 70.5449 52.0488 70.7344 52.5137 71.1133C52.9785 71.4922 53.2109 72.0059 53.2109 72.6543C53.2109 73.1152 53.0586 73.5195 52.7539 73.8672C52.4531 74.2148 52.0762 74.4219 51.623 74.4883V74.5352C52.2012 74.5781 52.6777 74.791 53.0527 75.1738C53.4277 75.5566 53.6152 76.0254 53.6152 76.5801C53.6152 77.3262 53.3535 77.916 52.8301 78.3496C52.3066 78.7832 51.5938 79 50.6914 79ZM48.7168 71.8633V74.0605H49.9883C50.4609 74.0605 50.8262 73.9629 51.084 73.7676C51.3418 73.5684 51.4707 73.2891 51.4707 72.9297C51.4707 72.5898 51.3574 72.3281 51.1309 72.1445C50.9043 71.957 50.584 71.8633 50.1699 71.8633H48.7168ZM48.7168 77.6816H50.2402C50.752 77.6816 51.1406 77.5762 51.4062 77.3652C51.6758 77.1504 51.8105 76.8418 51.8105 76.4395C51.8105 76.0449 51.6719 75.7441 51.3945 75.5371C51.1211 75.3301 50.7227 75.2266 50.1992 75.2266H48.7168V77.6816Z" stroke="#F83103" stroke-width="2" mask="url(#path-1-outside-1_356_185)"/>
<path d="M54.4766 79V72.7188H56.1289V73.8496H56.1641C56.2734 73.4512 56.457 73.1465 56.7148 72.9355C56.9727 72.7246 57.2871 72.6191 57.6582 72.6191C57.8379 72.6191 58 72.6406 58.1445 72.6836V74.1895C57.9844 74.123 57.7773 74.0898 57.5234 74.0898C57.1016 74.0898 56.7734 74.2129 56.5391 74.459C56.3047 74.7051 56.1875 75.0488 56.1875 75.4902V79H54.4766Z" stroke="#F83103" stroke-width="2" mask="url(#path-1-outside-1_356_185)"/>
<path d="M61.4551 73.8496C61.084 73.8496 60.7734 73.9766 60.5234 74.2305C60.2773 74.4844 60.1387 74.8086 60.1074 75.2031H62.7734C62.7539 74.8008 62.623 74.4746 62.3809 74.2246C62.1426 73.9746 61.834 73.8496 61.4551 73.8496ZM62.7969 77.0781H64.3672C64.2734 77.6953 63.9648 78.1934 63.4414 78.5723C62.9219 78.9473 62.2754 79.1348 61.502 79.1348C60.5371 79.1348 59.7793 78.8457 59.2285 78.2676C58.6816 77.6895 58.4082 76.8965 58.4082 75.8887C58.4082 74.8848 58.6816 74.084 59.2285 73.4863C59.7754 72.8848 60.5117 72.584 61.4375 72.584C62.3477 72.584 63.0723 72.8691 63.6113 73.4395C64.1504 74.0098 64.4199 74.7734 64.4199 75.7305V76.252H60.0898V76.3574C60.0898 76.8066 60.2207 77.1719 60.4824 77.4531C60.748 77.7305 61.0977 77.8691 61.5312 77.8691C61.8438 77.8691 62.1133 77.7988 62.3398 77.6582C62.5664 77.5137 62.7188 77.3203 62.7969 77.0781Z" stroke="#F83103" stroke-width="2" mask="url(#path-1-outside-1_356_185)"/>
<path d="M67.7305 77.8633C68.1094 77.8633 68.4297 77.7539 68.6914 77.5352C68.957 77.3125 69.0898 77.0332 69.0898 76.6973V76.2402L67.7656 76.3223C67.4453 76.3457 67.1973 76.4258 67.0215 76.5625C66.8496 76.6992 66.7637 76.8789 66.7637 77.1016C66.7637 77.3359 66.8516 77.5215 67.0273 77.6582C67.2031 77.7949 67.4375 77.8633 67.7305 77.8633ZM67.168 79.0996C66.5625 79.0996 66.0605 78.9219 65.6621 78.5664C65.2637 78.2109 65.0645 77.7539 65.0645 77.1953C65.0645 76.625 65.2754 76.1777 65.6973 75.8535C66.1191 75.5293 66.7227 75.3438 67.5078 75.2969L69.0898 75.2031V74.7871C69.0898 74.498 68.9941 74.2715 68.8027 74.1074C68.6152 73.9434 68.3594 73.8613 68.0352 73.8613C67.7227 73.8613 67.4668 73.9316 67.2676 74.0723C67.0723 74.2129 66.9531 74.4023 66.9102 74.6406H65.3457C65.377 74.0234 65.6406 73.5273 66.1367 73.1523C66.6328 72.7734 67.291 72.584 68.1113 72.584C68.916 72.584 69.5605 72.7754 70.0449 73.1582C70.5293 73.541 70.7715 74.0488 70.7715 74.6816V79H69.1191V78.0391H69.084C68.9121 78.3672 68.6504 78.627 68.2988 78.8184C67.9473 79.0059 67.5703 79.0996 67.168 79.0996Z" stroke="#F83103" stroke-width="2" mask="url(#path-1-outside-1_356_185)"/>
<path d="M73.6543 75.2383L75.7871 72.7188H77.7266L75.3301 75.4141L77.8438 79H75.875L74.0762 76.4453L73.6309 76.9258V79H71.9199V70.5449H73.6309V75.2383H73.6543Z" stroke="#F83103" stroke-width="2" mask="url(#path-1-outside-1_356_185)"/>
<path d="M78.793 79V74.0078H77.9375V72.748H78.793V72.2734C78.793 71.6484 78.9531 71.1914 79.2734 70.9023C79.5977 70.6133 80.127 70.4688 80.8613 70.4688C81.1973 70.4688 81.4883 70.4941 81.7344 70.5449V71.6758C81.6094 71.6523 81.4551 71.6406 81.2715 71.6406C80.7324 71.6406 80.4629 71.8711 80.4629 72.332V72.748H81.7109V74.0078H80.5039V79H78.793Z" stroke="#F83103" stroke-width="2" mask="url(#path-1-outside-1_356_185)"/>
<path d="M84.7109 77.8633C85.0898 77.8633 85.4102 77.7539 85.6719 77.5352C85.9375 77.3125 86.0703 77.0332 86.0703 76.6973V76.2402L84.7461 76.3223C84.4258 76.3457 84.1777 76.4258 84.002 76.5625C83.8301 76.6992 83.7441 76.8789 83.7441 77.1016C83.7441 77.3359 83.832 77.5215 84.0078 77.6582C84.1836 77.7949 84.418 77.8633 84.7109 77.8633ZM84.1484 79.0996C83.543 79.0996 83.041 78.9219 82.6426 78.5664C82.2441 78.2109 82.0449 77.7539 82.0449 77.1953C82.0449 76.625 82.2559 76.1777 82.6777 75.8535C83.0996 75.5293 83.7031 75.3438 84.4883 75.2969L86.0703 75.2031V74.7871C86.0703 74.498 85.9746 74.2715 85.7832 74.1074C85.5957 73.9434 85.3398 73.8613 85.0156 73.8613C84.7031 73.8613 84.4473 73.9316 84.248 74.0723C84.0527 74.2129 83.9336 74.4023 83.8906 74.6406H82.3262C82.3574 74.0234 82.6211 73.5273 83.1172 73.1523C83.6133 72.7734 84.2715 72.584 85.0918 72.584C85.8965 72.584 86.541 72.7754 87.0254 73.1582C87.5098 73.541 87.752 74.0488 87.752 74.6816V79H86.0996V78.0391H86.0645C85.8926 78.3672 85.6309 78.627 85.2793 78.8184C84.9277 79.0059 84.5508 79.0996 84.1484 79.0996Z" stroke="#F83103" stroke-width="2" mask="url(#path-1-outside-1_356_185)"/>
<path d="M88.7539 74.5645C88.7539 73.9668 88.9941 73.4883 89.4746 73.1289C89.9551 72.7656 90.5977 72.584 91.4023 72.584C92.1875 72.584 92.8184 72.7676 93.2949 73.1348C93.7715 73.502 94.0156 73.9902 94.0273 74.5996H92.4512C92.4316 74.3457 92.3262 74.1465 92.1348 74.002C91.9473 73.8574 91.6953 73.7852 91.3789 73.7852C91.082 73.7852 90.8438 73.8477 90.6641 73.9727C90.4883 74.0938 90.4004 74.2559 90.4004 74.459C90.4004 74.7637 90.6738 74.9805 91.2207 75.1094L92.4219 75.3672C93.0508 75.5078 93.502 75.7129 93.7754 75.9824C94.0527 76.248 94.1914 76.6152 94.1914 77.084C94.1914 77.7012 93.9336 78.1973 93.418 78.5723C92.9023 78.9473 92.2285 79.1348 91.3965 79.1348C90.5684 79.1348 89.9062 78.9512 89.4102 78.584C88.9141 78.2168 88.6426 77.7227 88.5957 77.1016H90.2656C90.3086 77.3672 90.4297 77.5723 90.6289 77.7168C90.832 77.8613 91.1035 77.9336 91.4434 77.9336C91.7676 77.9336 92.0215 77.875 92.2051 77.7578C92.3926 77.6367 92.4863 77.4727 92.4863 77.2656C92.4863 77.1055 92.4277 76.9785 92.3105 76.8848C92.1934 76.7871 91.9941 76.7051 91.7129 76.6387L90.5527 76.3809C89.3535 76.1074 88.7539 75.502 88.7539 74.5645Z" stroke="#F83103" stroke-width="2" mask="url(#path-1-outside-1_356_185)"/>
<path d="M95.5039 71.2715H97.2148V72.7188H98.375V74.0078H97.2148V77.0137C97.2148 77.4863 97.4609 77.7227 97.9531 77.7227C98.1133 77.7227 98.252 77.7129 98.3691 77.6934V78.9531C98.1699 79 97.8984 79.0234 97.5547 79.0234C96.8164 79.0234 96.2891 78.8906 95.9727 78.625C95.6602 78.3594 95.5039 77.9199 95.5039 77.3066V74.0078H94.6191V72.7188H95.5039V71.2715Z" stroke="#F83103" stroke-width="2" mask="url(#path-1-outside-1_356_185)"/>
</g>
<defs>
<filter id="filter0_d_356_185" x="0" y="0" width="146" height="109" filterUnits="userSpaceOnUse" color-interpolation-filters="sRGB">
<feFlood flood-opacity="0" result="BackgroundImageFix"/>
<feColorMatrix in="SourceAlpha" type="matrix" values="0 0 0 0 0 0 0 0 0 0 0 0 0 0 0 0 0 0 127 0" result="hardAlpha"/>
<feOffset/>
<feGaussianBlur stdDeviation="5"/>
<feComposite in2="hardAlpha" operator="out"/>
<feColorMatrix type="matrix" values="0 0 0 0 0.972549 0 0 0 0 0.192157 0 0 0 0 0.0117647 0 0 0 0.25 0"/>
<feBlend mode="normal" in2="BackgroundImageFix" result="effect1_dropShadow_356_185"/>
<feBlend mode="normal" in="SourceGraphic" in2="effect1_dropShadow_356_185" result="shape"/>
</filter>
</defs>
</svg>
