<svg width="132" height="95" viewBox="0 0 132 95" fill="none" xmlns="http://www.w3.org/2000/svg">
<g filter="url(#filter0_d_57_270)">
<rect x="4" width="124" height="87" rx="25" fill="white"/>
</g>
<path d="M66 10C61.8466 10 57.7865 11.2316 54.333 13.5391C50.8796 15.8466 48.188 19.1264 46.5985 22.9636C45.0091 26.8009 44.5932 31.0233 45.4035 35.0969C46.2138 39.1705 48.2139 42.9123 51.1508 45.8492C54.0877 48.7861 57.8295 50.7862 61.9031 51.5965C65.9767 52.4068 70.1991 51.9909 74.0364 50.4015C77.8736 48.812 81.1534 46.1204 83.4609 42.667C85.7684 39.2135 87 35.1534 87 31C86.9939 25.4323 84.7795 20.0944 80.8425 16.1575C76.9056 12.2205 71.5677 10.0061 66 10ZM66 50.6451C62.1146 50.6451 58.3164 49.493 55.0857 47.3343C51.8551 45.1757 49.3371 42.1076 47.8502 38.5179C46.3634 34.9282 45.9743 30.9782 46.7323 27.1674C47.4903 23.3566 49.3614 19.8562 52.1088 17.1088C54.8562 14.3613 58.3566 12.4903 62.1674 11.7323C65.9782 10.9743 69.9282 11.3633 73.5179 12.8502C77.1076 14.3371 80.1757 16.8551 82.3344 20.0857C84.493 23.3164 85.6452 27.1145 85.6452 31C85.6391 36.2083 83.5674 41.2016 79.8845 44.8845C76.2016 48.5673 71.2084 50.6391 66 50.6451Z" fill="#A8A8A8"/>
<path d="M75.4839 28.9677C74.546 28.9677 73.6292 29.2458 72.8494 29.7669C72.0696 30.2879 71.4618 31.0285 71.1029 31.895C70.744 32.7615 70.6501 33.7149 70.8331 34.6348C71.016 35.5546 71.4676 36.3996 72.1308 37.0627C72.794 37.7259 73.6389 38.1775 74.5588 38.3605C75.4786 38.5435 76.4321 38.4496 77.2985 38.0906C78.165 37.7317 78.9056 37.124 79.4266 36.3441C79.9477 35.5643 80.2258 34.6475 80.2258 33.7097C80.2242 32.4525 79.7241 31.2473 78.8351 30.3584C77.9462 29.4695 76.741 28.9694 75.4839 28.9677ZM75.4839 37.0968C74.814 37.0968 74.1591 36.8981 73.6021 36.5259C73.0451 36.1538 72.611 35.6248 72.3546 35.0059C72.0982 34.3869 72.0312 33.7059 72.1619 33.0489C72.2926 32.3918 72.6151 31.7883 73.0888 31.3146C73.5625 30.8409 74.1661 30.5183 74.8231 30.3877C75.4801 30.257 76.1611 30.324 76.7801 30.5804C77.399 30.8368 77.928 31.2709 78.3001 31.8279C78.6723 32.3849 78.871 33.0398 78.871 33.7097C78.8699 34.6077 78.5127 35.4685 77.8777 36.1035C77.2428 36.7385 76.3819 37.0957 75.4839 37.0968Z" fill="#A8A8A8"/>
<path d="M67.0663 12.7774C66.9505 12.8319 66.8525 12.9181 66.7837 13.026C66.7149 13.1339 66.678 13.2591 66.6774 13.3871V14.7616C64.2542 14.664 61.8398 15.1083 59.61 16.062C57.3803 17.0157 55.3914 18.4548 53.7882 20.2744C53.3464 20.3952 52.9435 20.6286 52.6189 20.9518L52.4381 21.1341C49.843 23.7611 48.3878 27.305 48.3878 30.9976C48.3878 34.6903 49.843 38.2341 52.4381 40.8612L52.6196 41.0448C52.9438 41.3677 53.3462 41.6011 53.7875 41.7222C55.2046 43.3375 56.928 44.6556 58.8579 45.6003C60.7879 46.545 62.886 47.0974 65.031 47.2257C67.1759 47.354 69.325 47.0555 71.3538 46.3476C73.3825 45.6396 75.2508 44.5363 76.8502 43.1014C76.9695 43.0371 77.09 42.9761 77.2066 42.9077L78.9265 41.8915C80.3341 41.0994 81.5083 39.9505 82.331 38.5605C83.1537 37.1705 83.5958 35.5883 83.6129 33.9732C83.6018 32.6191 83.2885 31.2846 82.6958 30.067C82.1031 28.8494 81.2461 27.7796 80.1872 26.9355H82.9355C83.075 26.9355 83.211 26.8925 83.3252 26.8123C83.4393 26.7321 83.5258 26.6186 83.573 26.4873C83.6202 26.3561 83.6258 26.2135 83.5889 26.079C83.552 25.9444 83.4745 25.8246 83.367 25.7358L67.7864 12.8648C67.687 12.7835 67.5665 12.7321 67.439 12.7166C67.3115 12.7011 67.1822 12.7222 67.0663 12.7774ZM66.6774 16.1259V26.2581C66.6774 26.4377 66.7488 26.61 66.8758 26.7371C67.0029 26.8641 67.1752 26.9355 67.3548 26.9355H68.9867C68.3713 27.7332 68.0358 28.7115 68.0323 29.719C68.03 30.1782 67.9316 30.6319 67.7436 31.0508C67.5555 31.4697 67.2819 31.8447 66.9403 32.1516L65.1871 33.7774C64.4906 34.4224 63.9589 35.225 63.6365 36.1179C62.4861 34.5477 61.8981 32.6359 61.9673 30.6906C62.0365 28.7454 62.7589 26.8802 64.0179 25.3957L64.6838 24.6126C65.1191 24.0945 65.3459 23.4328 65.32 22.7565C65.2941 22.0802 65.0173 21.4378 64.5436 20.9545C64.296 20.7024 64.0004 20.5023 63.6743 20.366C63.3482 20.2298 62.9982 20.1602 62.6447 20.1613C62.2917 20.1605 61.9421 20.2302 61.6164 20.3663C61.2907 20.5024 60.9955 20.7021 60.748 20.9539L60.5989 21.1036C60.5569 21.0541 60.5224 20.9999 60.4763 20.9532C60.2289 20.7016 59.9338 20.5019 59.6082 20.3659C59.2826 20.2299 58.9331 20.1604 58.5802 20.1613C58.2272 20.1605 57.8776 20.2302 57.5519 20.3663C57.2262 20.5024 56.9309 20.7021 56.6835 20.9539L56.5344 21.1036C56.4924 21.0541 56.4579 20.9999 56.4118 20.9532C56.1677 20.7064 55.8778 20.5097 55.5583 20.374C58.3426 17.6332 62.093 16.0969 66 16.0968C66.2249 16.0968 66.4512 16.1157 66.6774 16.1259ZM60.6152 37.3901L59.95 36.607C58.622 35.0405 57.8932 33.0536 57.8932 31C57.8932 28.9464 58.622 26.9595 59.95 25.393L60.6159 24.6099C60.8659 24.3112 61.0485 23.962 61.151 23.5863C61.2536 23.2105 61.2737 22.817 61.21 22.4327C61.3157 22.3175 61.4186 22.201 61.529 22.0899L61.7099 21.907C61.8318 21.783 61.9772 21.6846 62.1376 21.6175C62.298 21.5504 62.4702 21.5159 62.6441 21.5161C62.8178 21.516 62.9899 21.5505 63.1502 21.6176C63.3104 21.6847 63.4557 21.7831 63.5776 21.907C63.8134 22.1486 63.951 22.4693 63.9635 22.8068C63.976 23.1442 63.8626 23.4742 63.6453 23.7326L62.9807 24.5157C61.4442 26.3273 60.6007 28.6256 60.6007 31.001C60.6007 33.3765 61.4442 35.6747 62.9807 37.4863L63.2957 37.8541C63.2957 37.909 63.2869 37.9632 63.2869 38.0181C63.2907 38.6896 63.4151 39.355 63.6541 39.9826C63.6257 40.0178 63.6067 40.0591 63.5748 40.0916C63.4535 40.2154 63.3088 40.3138 63.1492 40.3811C62.9895 40.4485 62.818 40.4834 62.6447 40.4839C62.471 40.4841 62.299 40.4497 62.1387 40.3827C61.9785 40.3157 61.8331 40.2175 61.7113 40.0937L61.529 39.9087C61.4193 39.7983 61.3163 39.6818 61.2106 39.57C61.2746 39.1852 61.2545 38.7911 61.1517 38.4148C61.049 38.0385 60.8659 37.6889 60.6152 37.3901ZM56.5507 37.3901L55.8855 36.607C54.5575 35.0405 53.8287 33.0536 53.8287 31C53.8287 28.9464 54.5575 26.9595 55.8855 25.393L56.5514 24.6099C56.8014 24.3112 56.984 23.962 57.0865 23.5863C57.1891 23.2105 57.2092 22.817 57.1455 22.4327C57.2511 22.3175 57.3541 22.201 57.4645 22.0899L57.6454 21.907C57.7673 21.783 57.9127 21.6846 58.0731 21.6175C58.2335 21.5504 58.4057 21.5159 58.5796 21.5161C58.7533 21.516 58.9254 21.5505 59.0856 21.6176C59.2459 21.6847 59.3912 21.7831 59.513 21.907C59.7489 22.1486 59.8865 22.4693 59.899 22.8068C59.9115 23.1442 59.7981 23.4742 59.5808 23.7326L58.9162 24.5157C57.3802 26.3271 56.5371 28.625 56.5371 31C56.5371 33.375 57.3802 35.6729 58.9162 37.4843L59.5801 38.2673C59.7985 38.5259 59.9126 38.8567 59.9001 39.195C59.8876 39.5332 59.7493 39.8547 59.5124 40.0964C59.3904 40.2195 59.2452 40.3172 59.0852 40.3837C58.9252 40.4502 58.7535 40.4843 58.5802 40.4839C58.4065 40.4841 58.2345 40.4497 58.0742 40.3827C57.9139 40.3157 57.7686 40.2175 57.6467 40.0937L57.4645 39.9087C57.3548 39.7983 57.2518 39.6818 57.1461 39.57C57.2101 39.1852 57.19 38.7911 57.0872 38.4148C56.9844 38.0385 56.8014 37.6889 56.5507 37.3901ZM53.4 39.9094C51.0575 37.5363 49.744 34.3359 49.744 31.0013C49.744 27.6668 51.0575 24.4664 53.4 22.0933L53.5809 21.9104C53.7025 21.7858 53.8478 21.6868 54.0082 21.6191C54.1686 21.5514 54.3409 21.5164 54.515 21.5161C54.6888 21.516 54.8609 21.5505 55.0211 21.6176C55.1814 21.6847 55.3267 21.7831 55.4485 21.907C55.6844 22.1486 55.822 22.4693 55.8345 22.8068C55.847 23.1442 55.7336 23.4742 55.5163 23.7326L54.8517 24.5157C53.3157 26.3271 52.4726 28.625 52.4726 31C52.4726 33.375 53.3157 35.6729 54.8517 37.4843L55.5156 38.2673C55.734 38.5259 55.8481 38.8567 55.8356 39.195C55.8231 39.5332 55.6848 39.8547 55.4478 40.0964C55.3259 40.2195 55.1807 40.3172 55.0207 40.3837C54.8607 40.4502 54.689 40.4843 54.5157 40.4839C54.342 40.4841 54.17 40.4497 54.0097 40.3827C53.8494 40.3157 53.7041 40.2175 53.5822 40.0937L53.4 39.9094ZM66 45.9032C62.0927 45.9032 58.3421 44.367 55.5576 41.626C55.8771 41.4903 56.167 41.2936 56.4111 41.0468C56.4572 41.0001 56.4917 40.9452 56.5344 40.8957L56.6835 41.0468C56.9309 41.2984 57.2261 41.498 57.5517 41.634C57.8772 41.7699 58.2267 41.8395 58.5796 41.8387C58.9325 41.8397 59.2821 41.7702 59.6079 41.6342C59.9336 41.4982 60.2289 41.2985 60.4763 41.0468C60.5224 41.0001 60.5569 40.9452 60.5996 40.8957L60.7486 41.0468C60.996 41.2983 61.2911 41.4978 61.6165 41.6338C61.942 41.7698 62.2913 41.8395 62.6441 41.8387C63.2511 41.8363 63.8388 41.6246 64.3078 41.2392C64.56 41.6115 64.8533 41.9542 65.1824 42.2607C66.8069 43.7483 68.9343 44.5656 71.1369 44.5484C71.5366 44.5484 71.9335 44.522 72.3285 44.4806C70.3494 45.4149 68.1885 45.9006 66 45.9032ZM82.2581 33.9732C82.2404 35.3534 81.8596 36.7046 81.1538 37.8908C80.448 39.0771 79.4422 40.0565 78.2376 40.7304L76.5176 41.7466C74.8852 42.7001 73.0274 43.1997 71.1369 43.1935C69.2776 43.2001 67.4827 42.5132 66.103 41.267C65.6443 40.859 65.2771 40.3586 65.0257 39.7985C64.7743 39.2385 64.6444 38.6316 64.6444 38.0177C64.6444 37.4039 64.7743 36.7969 65.0257 36.2369C65.2771 35.6769 65.6443 35.1764 66.103 34.7685L67.8595 33.1427C68.3356 32.7075 68.7169 32.1789 68.9797 31.5898C69.2425 31.0008 69.3812 30.364 69.3871 29.719C69.4344 28.7581 69.8597 27.8549 70.5705 27.2065C71.2812 26.5581 72.2195 26.2172 73.1806 26.2581H74.4406C76.4966 26.2572 78.47 27.0665 79.9333 28.5107C81.3966 29.9548 82.2319 31.9174 82.2581 33.9732ZM68.0323 14.8253L81.0523 25.5806H77.8996C76.8008 25.1347 75.6264 24.9047 74.4406 24.9032H73.1806C72.264 24.9021 71.3623 25.1353 70.5611 25.5806H68.0323V14.8253Z" fill="#A8A8A8"/>
<path d="M70.7419 18.8064H69.3871V20.1613H70.7419V18.8064Z" fill="#A8A8A8"/>
<path d="M73.4516 21.5161H72.0968V22.871H73.4516V21.5161Z" fill="#A8A8A8"/>
<path d="M70.7419 22.871H69.3871V24.2258H70.7419V22.871Z" fill="#A8A8A8"/>
<path d="M43.6914 68H39.9473V59.5449H43.627C44.4199 59.5449 45.0488 59.7344 45.5137 60.1133C45.9785 60.4922 46.2109 61.0059 46.2109 61.6543C46.2109 62.1152 46.0586 62.5195 45.7539 62.8672C45.4531 63.2148 45.0762 63.4219 44.623 63.4883V63.5352C45.2012 63.5781 45.6777 63.791 46.0527 64.1738C46.4277 64.5566 46.6152 65.0254 46.6152 65.5801C46.6152 66.3262 46.3535 66.916 45.8301 67.3496C45.3066 67.7832 44.5938 68 43.6914 68ZM41.7168 60.8633V63.0605H42.9883C43.4609 63.0605 43.8262 62.9629 44.084 62.7676C44.3418 62.5684 44.4707 62.2891 44.4707 61.9297C44.4707 61.5898 44.3574 61.3281 44.1309 61.1445C43.9043 60.957 43.584 60.8633 43.1699 60.8633H41.7168ZM41.7168 66.6816H43.2402C43.752 66.6816 44.1406 66.5762 44.4062 66.3652C44.6758 66.1504 44.8105 65.8418 44.8105 65.4395C44.8105 65.0449 44.6719 64.7441 44.3945 64.5371C44.1211 64.3301 43.7227 64.2266 43.1992 64.2266H41.7168V66.6816ZM47.4766 68V61.7188H49.1289V62.8496H49.1641C49.2734 62.4512 49.457 62.1465 49.7148 61.9355C49.9727 61.7246 50.2871 61.6191 50.6582 61.6191C50.8379 61.6191 51 61.6406 51.1445 61.6836V63.1895C50.9844 63.123 50.7773 63.0898 50.5234 63.0898C50.1016 63.0898 49.7734 63.2129 49.5391 63.459C49.3047 63.7051 49.1875 64.0488 49.1875 64.4902V68H47.4766ZM54.4551 62.8496C54.084 62.8496 53.7734 62.9766 53.5234 63.2305C53.2773 63.4844 53.1387 63.8086 53.1074 64.2031H55.7734C55.7539 63.8008 55.623 63.4746 55.3809 63.2246C55.1426 62.9746 54.834 62.8496 54.4551 62.8496ZM55.7969 66.0781H57.3672C57.2734 66.6953 56.9648 67.1934 56.4414 67.5723C55.9219 67.9473 55.2754 68.1348 54.502 68.1348C53.5371 68.1348 52.7793 67.8457 52.2285 67.2676C51.6816 66.6895 51.4082 65.8965 51.4082 64.8887C51.4082 63.8848 51.6816 63.084 52.2285 62.4863C52.7754 61.8848 53.5117 61.584 54.4375 61.584C55.3477 61.584 56.0723 61.8691 56.6113 62.4395C57.1504 63.0098 57.4199 63.7734 57.4199 64.7305V65.252H53.0898V65.3574C53.0898 65.8066 53.2207 66.1719 53.4824 66.4531C53.748 66.7305 54.0977 66.8691 54.5312 66.8691C54.8438 66.8691 55.1133 66.7988 55.3398 66.6582C55.5664 66.5137 55.7188 66.3203 55.7969 66.0781ZM60.7305 66.8633C61.1094 66.8633 61.4297 66.7539 61.6914 66.5352C61.957 66.3125 62.0898 66.0332 62.0898 65.6973V65.2402L60.7656 65.3223C60.4453 65.3457 60.1973 65.4258 60.0215 65.5625C59.8496 65.6992 59.7637 65.8789 59.7637 66.1016C59.7637 66.3359 59.8516 66.5215 60.0273 66.6582C60.2031 66.7949 60.4375 66.8633 60.7305 66.8633ZM60.168 68.0996C59.5625 68.0996 59.0605 67.9219 58.6621 67.5664C58.2637 67.2109 58.0645 66.7539 58.0645 66.1953C58.0645 65.625 58.2754 65.1777 58.6973 64.8535C59.1191 64.5293 59.7227 64.3438 60.5078 64.2969L62.0898 64.2031V63.7871C62.0898 63.498 61.9941 63.2715 61.8027 63.1074C61.6152 62.9434 61.3594 62.8613 61.0352 62.8613C60.7227 62.8613 60.4668 62.9316 60.2676 63.0723C60.0723 63.2129 59.9531 63.4023 59.9102 63.6406H58.3457C58.377 63.0234 58.6406 62.5273 59.1367 62.1523C59.6328 61.7734 60.291 61.584 61.1113 61.584C61.916 61.584 62.5605 61.7754 63.0449 62.1582C63.5293 62.541 63.7715 63.0488 63.7715 63.6816V68H62.1191V67.0391H62.084C61.9121 67.3672 61.6504 67.627 61.2988 67.8184C60.9473 68.0059 60.5703 68.0996 60.168 68.0996ZM66.6543 64.2383L68.7871 61.7188H70.7266L68.3301 64.4141L70.8438 68H68.875L67.0762 65.4453L66.6309 65.9258V68H64.9199V59.5449H66.6309V64.2383H66.6543ZM71.793 68V63.0078H70.9375V61.748H71.793V61.2734C71.793 60.6484 71.9531 60.1914 72.2734 59.9023C72.5977 59.6133 73.127 59.4688 73.8613 59.4688C74.1973 59.4688 74.4883 59.4941 74.7344 59.5449V60.6758C74.6094 60.6523 74.4551 60.6406 74.2715 60.6406C73.7324 60.6406 73.4629 60.8711 73.4629 61.332V61.748H74.7109V63.0078H73.5039V68H71.793ZM77.7109 66.8633C78.0898 66.8633 78.4102 66.7539 78.6719 66.5352C78.9375 66.3125 79.0703 66.0332 79.0703 65.6973V65.2402L77.7461 65.3223C77.4258 65.3457 77.1777 65.4258 77.002 65.5625C76.8301 65.6992 76.7441 65.8789 76.7441 66.1016C76.7441 66.3359 76.832 66.5215 77.0078 66.6582C77.1836 66.7949 77.418 66.8633 77.7109 66.8633ZM77.1484 68.0996C76.543 68.0996 76.041 67.9219 75.6426 67.5664C75.2441 67.2109 75.0449 66.7539 75.0449 66.1953C75.0449 65.625 75.2559 65.1777 75.6777 64.8535C76.0996 64.5293 76.7031 64.3438 77.4883 64.2969L79.0703 64.2031V63.7871C79.0703 63.498 78.9746 63.2715 78.7832 63.1074C78.5957 62.9434 78.3398 62.8613 78.0156 62.8613C77.7031 62.8613 77.4473 62.9316 77.248 63.0723C77.0527 63.2129 76.9336 63.4023 76.8906 63.6406H75.3262C75.3574 63.0234 75.6211 62.5273 76.1172 62.1523C76.6133 61.7734 77.2715 61.584 78.0918 61.584C78.8965 61.584 79.541 61.7754 80.0254 62.1582C80.5098 62.541 80.752 63.0488 80.752 63.6816V68H79.0996V67.0391H79.0645C78.8926 67.3672 78.6309 67.627 78.2793 67.8184C77.9277 68.0059 77.5508 68.0996 77.1484 68.0996ZM81.7539 63.5645C81.7539 62.9668 81.9941 62.4883 82.4746 62.1289C82.9551 61.7656 83.5977 61.584 84.4023 61.584C85.1875 61.584 85.8184 61.7676 86.2949 62.1348C86.7715 62.502 87.0156 62.9902 87.0273 63.5996H85.4512C85.4316 63.3457 85.3262 63.1465 85.1348 63.002C84.9473 62.8574 84.6953 62.7852 84.3789 62.7852C84.082 62.7852 83.8438 62.8477 83.6641 62.9727C83.4883 63.0938 83.4004 63.2559 83.4004 63.459C83.4004 63.7637 83.6738 63.9805 84.2207 64.1094L85.4219 64.3672C86.0508 64.5078 86.502 64.7129 86.7754 64.9824C87.0527 65.248 87.1914 65.6152 87.1914 66.084C87.1914 66.7012 86.9336 67.1973 86.418 67.5723C85.9023 67.9473 85.2285 68.1348 84.3965 68.1348C83.5684 68.1348 82.9062 67.9512 82.4102 67.584C81.9141 67.2168 81.6426 66.7227 81.5957 66.1016H83.2656C83.3086 66.3672 83.4297 66.5723 83.6289 66.7168C83.832 66.8613 84.1035 66.9336 84.4434 66.9336C84.7676 66.9336 85.0215 66.875 85.2051 66.7578C85.3926 66.6367 85.4863 66.4727 85.4863 66.2656C85.4863 66.1055 85.4277 65.9785 85.3105 65.8848C85.1934 65.7871 84.9941 65.7051 84.7129 65.6387L83.5527 65.3809C82.3535 65.1074 81.7539 64.502 81.7539 63.5645ZM88.5039 60.2715H90.2148V61.7188H91.375V63.0078H90.2148V66.0137C90.2148 66.4863 90.4609 66.7227 90.9531 66.7227C91.1133 66.7227 91.252 66.7129 91.3691 66.6934V67.9531C91.1699 68 90.8984 68.0234 90.5547 68.0234C89.8164 68.0234 89.2891 67.8906 88.9727 67.625C88.6602 67.3594 88.5039 66.9199 88.5039 66.3066V63.0078H87.6191V61.7188H88.5039V60.2715Z" fill="#A8A8A8"/>
<defs>
<filter id="filter0_d_57_270" x="0" y="0" width="132" height="95" filterUnits="userSpaceOnUse" color-interpolation-filters="sRGB">
<feFlood flood-opacity="0" result="BackgroundImageFix"/>
<feColorMatrix in="SourceAlpha" type="matrix" values="0 0 0 0 0 0 0 0 0 0 0 0 0 0 0 0 0 0 127 0" result="hardAlpha"/>
<feOffset dy="4"/>
<feGaussianBlur stdDeviation="2"/>
<feComposite in2="hardAlpha" operator="out"/>
<feColorMatrix type="matrix" values="0 0 0 0 0.513726 0 0 0 0 0.513726 0 0 0 0 0.513726 0 0 0 0.25 0"/>
<feBlend mode="normal" in2="BackgroundImageFix" result="effect1_dropShadow_57_270"/>
<feBlend mode="normal" in="SourceGraphic" in2="effect1_dropShadow_57_270" result="shape"/>
</filter>
</defs>
</svg>
