<svg width="124" height="87" viewBox="0 0 124 87" fill="none" xmlns="http://www.w3.org/2000/svg">
<path d="M0 25C0 11.1929 11.1929 0 25 0H99C112.807 0 124 11.1929 124 25V62C124 75.8071 112.807 87 99 87H25C11.1929 87 0 75.8071 0 62V25Z" fill="#2E3235"/>
<path fill-rule="evenodd" clip-rule="evenodd" d="M61.9659 13.2552C59.9186 14.04 59.0403 15.8404 58.7325 17.2967C58.5701 18.0654 58.5459 18.743 58.5576 19.2447C58.2409 19.2789 57.9221 19.3299 57.6005 19.4197C57.3535 19.4898 57.1493 19.6612 57.0389 19.8912L54.1502 25.8252C53.5667 26.9135 55.272 27.7233 55.7634 26.5912L58.3949 21.1823C59.6029 20.9445 60.7752 21.1297 61.8399 21.7716C62.4421 22.1346 62.9978 22.6049 63.4811 23.1164C63.2063 23.1265 62.9434 23.1537 62.6938 23.1996C62.1744 23.2965 61.6758 23.4659 61.2905 23.8998C61.2416 23.9558 61.1998 24.0174 61.1663 24.0835L50.0578 45.6862L47.2986 43.9896L53.7793 30.6727C54.0723 30.0932 53.6599 29.4079 53.0059 29.3884C52.6465 29.3784 52.3158 29.5826 52.1661 29.9066L45.3407 43.9375C45.159 44.3079 45.2713 44.7371 45.5821 44.9947C45.0351 45.8201 44.8586 46.7982 45.1167 47.6048C45.2942 48.1179 45.207 48.4389 45.136 49.0068C45.0649 49.5748 45.1442 50.5072 45.8376 51.194C46.2745 51.6268 46.8847 51.7687 47.3248 51.7572C47.7649 51.7471 48.0962 51.6565 48.3238 51.6341C48.5515 51.6106 48.6182 51.6241 48.7 51.6724C48.7818 51.7213 48.962 51.8765 49.1707 52.3933C49.5273 53.2769 50.462 53.7225 51.3052 53.7156C51.91 53.7123 52.4567 53.3305 52.9989 52.9825C53.1981 53.1582 53.4034 53.3494 53.5676 53.5007C53.7527 53.6549 53.9433 53.8287 54.3339 53.9253C55.041 54.1004 55.7647 53.9599 56.2463 53.5856C56.7278 53.2129 56.962 52.7196 57.1054 52.2755C57.1324 52.1916 57.1436 52.1135 57.1648 52.031C57.5475 52.2278 58.0173 52.1265 58.2829 51.7902L74.5564 31.1268C74.7669 31.1335 75.0034 31.1289 75.2703 31.0801C75.9928 30.9473 76.9361 30.4395 77.4066 29.3696C77.7761 28.5296 77.6079 27.7008 77.3401 27.1894C77.2993 27.1116 77.2866 27.1327 77.2421 27.0646C77.4677 26.8131 77.5887 26.7463 77.8632 26.2778C78.3587 25.4325 78.8001 24.1306 78.1134 22.9053C78.0094 22.7205 77.8949 22.5564 77.7775 22.3957L78.6961 21.6002C79.0619 21.2813 79.1032 20.7317 78.7888 20.3629L76.9377 18.1948C76.7608 17.9872 76.4979 17.8721 76.2238 17.8812C76.0169 17.8879 75.817 17.962 75.6604 18.0962L74.7961 18.8414C74.8415 17.7385 74.5372 16.4892 73.4664 15.4706C71.9062 13.9866 70.0282 13.8497 68.6776 14.1205C67.7481 14.307 67.4585 14.5411 67.0836 14.7497C66.8517 14.4435 66.7642 14.2229 66.1721 13.7999C64.6466 12.8841 63.5441 12.8314 61.9659 13.2552ZM65.1205 15.2344C65.7449 15.6804 66.0916 16.236 66.0916 16.236C66.3569 16.667 66.9315 16.7927 67.3548 16.5118C67.3548 16.5118 68.0512 16.0594 69.0275 15.8636C70.0038 15.6677 71.117 15.7029 72.2224 16.7543C73.4129 18.2698 73.3813 19.9044 72.1751 21.0991L69.6224 23.3001C69.9177 21.0835 68.9143 18.7913 66.8789 17.5394C65.4954 16.6884 63.8929 16.4712 62.4156 16.8133C61.7328 16.9712 61.081 17.2537 60.4892 17.6417C60.7279 16.5253 61.2504 15.4293 62.6133 14.9069C63.5592 14.5148 64.4377 14.7115 65.1205 15.2344ZM63.6053 18.4302C64.3995 18.4 65.2105 18.5971 65.9394 19.0454C67.5995 20.0664 68.2644 22.0459 67.675 23.7992C67.0739 23.61 66.4839 23.4627 65.9114 23.3503C65.733 23.0736 65.5403 22.8021 65.3252 22.5323L65.9341 22.2549C66.8639 21.8529 66.5074 20.4705 65.4967 20.5582C65.3865 20.5683 65.2796 20.5972 65.18 20.6448L64.7514 20.839L64.7041 20.2965C64.6681 19.8345 64.2783 19.4789 63.7803 19.4803C63.3149 19.4816 62.9409 19.8806 62.9352 20.3572C62.8805 20.3227 62.8281 20.2851 62.7725 20.2515C62.2344 19.9272 61.6481 19.6614 61.0299 19.4769C61.753 18.8381 62.6608 18.4652 63.6053 18.4302ZM76.1574 20.0211L76.852 20.8408L71.4613 25.5097C71.133 25.3054 70.7967 25.1139 70.45 24.936L76.1574 20.0211ZM76.4215 23.5722C76.4635 23.6359 76.5066 23.6902 76.5475 23.7626C76.5475 23.7648 76.5475 23.766 76.5475 23.7694C76.8113 24.237 76.6554 24.7963 76.3096 25.3864C75.9638 25.9763 75.5082 26.4089 75.5082 26.4089C75.1115 26.7761 75.1343 27.4056 75.5555 27.745C75.5555 27.745 75.6613 27.8312 75.7532 28.0066C75.9218 28.7436 75.6297 29.1808 74.9396 29.329C74.9026 29.3357 74.8801 29.3318 74.8451 29.3357C74.4876 28.2758 73.7961 27.3725 72.9275 26.5992L76.4215 23.5722ZM63.5738 24.8858C63.7848 24.8791 64.0235 24.8824 64.2807 24.9026C65.3095 24.9787 66.641 25.2734 67.9445 25.7604C70.4221 26.6861 72.5751 28.3405 73.0955 30.0967L57.3626 50.0824L51.5905 46.6162L62.6728 25.0603C62.832 24.8564 63.1867 24.8788 63.5738 24.8869V24.8858ZM67.0784 29.1475C66.6331 29.1643 66.201 29.3923 65.9516 29.7904C65.5526 30.4276 65.7586 31.282 66.4013 31.6777C67.044 32.0733 67.9041 31.8746 68.3032 31.2375C68.7022 30.6003 68.5014 29.7475 67.8587 29.3519C67.6177 29.2036 67.3456 29.1374 67.0784 29.1475ZM61.9344 30.3814C61.49 30.3982 61.059 30.6245 60.8094 31.0226C60.41 31.6592 60.6088 32.5164 61.252 32.9117C61.8953 33.307 62.7597 33.1029 63.1592 32.4663C63.5586 31.8296 63.3563 30.9777 62.713 30.5824C62.4718 30.4342 62.201 30.371 61.9344 30.3814ZM65.3077 34.695C64.8632 34.7118 64.4342 34.9394 64.1845 35.3379C63.7849 35.9752 63.9855 36.8295 64.6289 37.2253C65.2723 37.6211 66.133 37.4208 66.5325 36.7834C66.9321 36.146 66.7315 35.2935 66.0881 34.8977C65.8468 34.7495 65.5745 34.6846 65.3077 34.695ZM59.7333 35.792C59.2887 35.8122 58.8577 36.0388 58.6083 36.4367C58.2093 37.0732 58.4102 37.9254 59.0527 38.3206C59.6952 38.7158 60.5609 38.5205 60.9599 37.8839C61.3588 37.2475 61.1545 36.3882 60.5119 35.993C60.271 35.8448 60.0002 35.7806 59.7333 35.792ZM60.0378 40.3777C59.5925 40.3945 59.1622 40.6209 58.9128 41.019C58.5137 41.6562 58.718 42.5123 59.3607 42.908C60.0033 43.3036 60.8635 43.1032 61.2625 42.4661C61.6616 41.8289 61.4608 40.9762 60.8181 40.5805C60.5771 40.4323 60.305 40.3676 60.0378 40.3777ZM55.8579 43.4487C55.4133 43.4655 54.9825 43.6949 54.7328 44.0934C54.3333 44.7307 54.5356 45.5832 55.179 45.979C55.8224 46.3748 56.6831 46.1762 57.0826 45.5388C57.4822 44.9015 57.2799 44.0474 56.6365 43.6516C56.3952 43.503 56.1246 43.4383 55.8579 43.4487ZM47.1008 45.9548C49.8878 47.6945 52.7113 49.3642 55.5307 51.0535C55.5121 51.2651 55.4781 51.516 55.4064 51.738C55.3278 51.9818 55.2113 52.141 55.1475 52.1903C54.9534 52.3825 54.6277 52.0938 54.3217 51.7848C54.1707 51.6426 54.0234 51.4913 53.7863 51.3445C53.6677 51.2711 53.5215 51.182 53.2701 51.1488C53.0188 51.1152 52.6192 51.2225 52.397 51.4435C52.0555 51.779 51.5992 51.9453 51.286 51.9479C50.9713 51.9504 50.8919 51.8932 50.8294 51.7383C50.5329 51.0042 50.1436 50.47 49.6256 50.1595C49.1076 49.8489 48.5491 49.8314 48.1454 49.8717C47.7416 49.9116 47.439 49.9787 47.2793 49.9827C46.883 49.9827 46.8944 49.502 46.9154 49.2236C46.9706 48.7824 47.1363 47.9773 46.8086 47.0295C46.6757 46.6447 46.7952 46.362 47.0134 46.0538L47.1008 45.9548Z" fill="white"/>
<path d="M44.2207 68H40.4766V59.5449H44.1562C44.9492 59.5449 45.5781 59.7344 46.043 60.1133C46.5078 60.4922 46.7402 61.0059 46.7402 61.6543C46.7402 62.1152 46.5879 62.5195 46.2832 62.8672C45.9824 63.2148 45.6055 63.4219 45.1523 63.4883V63.5352C45.7305 63.5781 46.207 63.791 46.582 64.1738C46.957 64.5566 47.1445 65.0254 47.1445 65.5801C47.1445 66.3262 46.8828 66.916 46.3594 67.3496C45.8359 67.7832 45.123 68 44.2207 68ZM42.2461 60.8633V63.0605H43.5176C43.9902 63.0605 44.3555 62.9629 44.6133 62.7676C44.8711 62.5684 45 62.2891 45 61.9297C45 61.5898 44.8867 61.3281 44.6602 61.1445C44.4336 60.957 44.1133 60.8633 43.6992 60.8633H42.2461ZM42.2461 66.6816H43.7695C44.2812 66.6816 44.6699 66.5762 44.9355 66.3652C45.2051 66.1504 45.3398 65.8418 45.3398 65.4395C45.3398 65.0449 45.2012 64.7441 44.9238 64.5371C44.6504 64.3301 44.252 64.2266 43.7285 64.2266H42.2461V66.6816Z" fill="white"/>
<path d="M53.8066 61.7188V68H52.1543V66.8691H52.1191C51.791 67.7012 51.1641 68.1172 50.2383 68.1172C49.5508 68.1172 49.002 67.9082 48.5918 67.4902C48.1816 67.0684 47.9766 66.4941 47.9766 65.7676V61.7188H49.6875V65.4102C49.6875 65.8281 49.7871 66.1465 49.9863 66.3652C50.1895 66.584 50.4805 66.6934 50.8594 66.6934C51.2383 66.6934 51.5391 66.5684 51.7617 66.3184C51.9844 66.0684 52.0957 65.7344 52.0957 65.3164V61.7188H53.8066Z" fill="white"/>
<path d="M54.9199 68V61.7188H56.5723V62.8496H56.6074C56.7168 62.4512 56.9004 62.1465 57.1582 61.9355C57.416 61.7246 57.7305 61.6191 58.1016 61.6191C58.2812 61.6191 58.4434 61.6406 58.5879 61.6836V63.1895C58.4277 63.123 58.2207 63.0898 57.9668 63.0898C57.5449 63.0898 57.2168 63.2129 56.9824 63.459C56.748 63.7051 56.6309 64.0488 56.6309 64.4902V68H54.9199Z" fill="white"/>
<path d="M59.291 68V61.7188H60.9434V62.8496H60.9785C61.0879 62.4512 61.2715 62.1465 61.5293 61.9355C61.7871 61.7246 62.1016 61.6191 62.4727 61.6191C62.6523 61.6191 62.8145 61.6406 62.959 61.6836V63.1895C62.7988 63.123 62.5918 63.0898 62.3379 63.0898C61.916 63.0898 61.5879 63.2129 61.3535 63.459C61.1191 63.7051 61.002 64.0488 61.002 64.4902V68H59.291Z" fill="white"/>
<path d="M63.6914 68V61.7188H65.4023V68H63.6914ZM65.1973 60.7695C65.0215 60.9414 64.8047 61.0273 64.5469 61.0273C64.2891 61.0273 64.0723 60.9414 63.8965 60.7695C63.7207 60.5977 63.6328 60.3887 63.6328 60.1426C63.6328 59.8926 63.7207 59.6836 63.8965 59.5156C64.0723 59.3438 64.2891 59.2578 64.5469 59.2578C64.8047 59.2578 65.0215 59.3438 65.1973 59.5156C65.373 59.6836 65.4609 59.8926 65.4609 60.1426C65.4609 60.3887 65.373 60.5977 65.1973 60.7695Z" fill="white"/>
<path d="M67.002 60.2715H68.7129V61.7188H69.873V63.0078H68.7129V66.0137C68.7129 66.4863 68.959 66.7227 69.4512 66.7227C69.6113 66.7227 69.75 66.7129 69.8672 66.6934V67.9531C69.668 68 69.3965 68.0234 69.0527 68.0234C68.3145 68.0234 67.7871 67.8906 67.4707 67.625C67.1582 67.3594 67.002 66.9199 67.002 66.3066V63.0078H66.1172V61.7188H67.002V60.2715Z" fill="white"/>
<path d="M75.873 67.2676C75.3145 67.8457 74.5566 68.1348 73.5996 68.1348C72.6426 68.1348 71.8848 67.8438 71.3262 67.2617C70.7676 66.6797 70.4883 65.877 70.4883 64.8535C70.4883 63.8418 70.7695 63.0449 71.332 62.4629C71.8984 61.877 72.6543 61.584 73.5996 61.584C74.5488 61.584 75.3047 61.877 75.8672 62.4629C76.4297 63.0449 76.7109 63.8418 76.7109 64.8535C76.7109 65.8809 76.4316 66.6855 75.873 67.2676ZM73.5996 66.8281C74.0215 66.8281 74.3555 66.6562 74.6016 66.3125C74.8477 65.9688 74.9707 65.4844 74.9707 64.8594C74.9707 64.2422 74.8477 63.7598 74.6016 63.4121C74.3555 63.0645 74.0215 62.8906 73.5996 62.8906C73.1777 62.8906 72.8418 63.0645 72.5918 63.4121C72.3457 63.7598 72.2227 64.2422 72.2227 64.8594C72.2227 65.4844 72.3457 65.9688 72.5918 66.3125C72.8379 66.6562 73.1738 66.8281 73.5996 66.8281Z" fill="white"/>
<path d="M77.4902 63.5645C77.4902 62.9668 77.7305 62.4883 78.2109 62.1289C78.6914 61.7656 79.334 61.584 80.1387 61.584C80.9238 61.584 81.5547 61.7676 82.0312 62.1348C82.5078 62.502 82.752 62.9902 82.7637 63.5996H81.1875C81.168 63.3457 81.0625 63.1465 80.8711 63.002C80.6836 62.8574 80.4316 62.7852 80.1152 62.7852C79.8184 62.7852 79.5801 62.8477 79.4004 62.9727C79.2246 63.0938 79.1367 63.2559 79.1367 63.459C79.1367 63.7637 79.4102 63.9805 79.957 64.1094L81.1582 64.3672C81.7871 64.5078 82.2383 64.7129 82.5117 64.9824C82.7891 65.248 82.9277 65.6152 82.9277 66.084C82.9277 66.7012 82.6699 67.1973 82.1543 67.5723C81.6387 67.9473 80.9648 68.1348 80.1328 68.1348C79.3047 68.1348 78.6426 67.9512 78.1465 67.584C77.6504 67.2168 77.3789 66.7227 77.332 66.1016H79.002C79.0449 66.3672 79.166 66.5723 79.3652 66.7168C79.5684 66.8613 79.8398 66.9336 80.1797 66.9336C80.5039 66.9336 80.7578 66.875 80.9414 66.7578C81.1289 66.6367 81.2227 66.4727 81.2227 66.2656C81.2227 66.1055 81.1641 65.9785 81.0469 65.8848C80.9297 65.7871 80.7305 65.7051 80.4492 65.6387L79.2891 65.3809C78.0898 65.1074 77.4902 64.502 77.4902 63.5645Z" fill="white"/>
</svg>
