<svg width="146" height="109" viewBox="0 0 146 109" fill="none" xmlns="http://www.w3.org/2000/svg">
<g filter="url(#filter0_d_356_193)">
<mask id="path-1-outside-1_356_193" maskUnits="userSpaceOnUse" x="10" y="10" width="126" height="89" fill="black">
<rect fill="white" x="10" y="10" width="126" height="89"/>
<path d="M11 36C11 22.1929 22.1929 11 36 11H110C123.807 11 135 22.1929 135 36V73C135 86.8071 123.807 98 110 98H36C22.1929 98 11 86.8071 11 73V36Z"/>
<path fill-rule="evenodd" clip-rule="evenodd" d="M72.9659 24.2552C70.9186 25.04 70.0403 26.8404 69.7325 28.2967C69.5701 29.0654 69.5459 29.743 69.5576 30.2447C69.2409 30.2789 68.9221 30.3299 68.6005 30.4197C68.3535 30.4898 68.1493 30.6612 68.0389 30.8912L65.1502 36.8252C64.5667 37.9135 66.272 38.7233 66.7634 37.5912L69.3949 32.1823C70.6029 31.9445 71.7752 32.1297 72.8399 32.7716C73.4421 33.1346 73.9978 33.6049 74.4811 34.1164C74.2063 34.1265 73.9434 34.1537 73.6938 34.1996C73.1744 34.2965 72.6758 34.4659 72.2905 34.8998C72.2416 34.9558 72.1998 35.0174 72.1663 35.0835L61.0578 56.6862L58.2986 54.9896L64.7793 41.6727C65.0723 41.0932 64.6599 40.4079 64.0059 40.3884C63.6465 40.3784 63.3158 40.5826 63.1661 40.9066L56.3407 54.9375C56.159 55.3079 56.2713 55.7371 56.5821 55.9947C56.0351 56.8201 55.8586 57.7982 56.1167 58.6048C56.2942 59.1179 56.207 59.4389 56.136 60.0068C56.0649 60.5748 56.1442 61.5072 56.8376 62.194C57.2745 62.6268 57.8847 62.7687 58.3248 62.7572C58.7649 62.7471 59.0962 62.6565 59.3238 62.6341C59.5515 62.6106 59.6182 62.6241 59.7 62.6724C59.7818 62.7213 59.962 62.8765 60.1707 63.3933C60.5273 64.2769 61.462 64.7225 62.3052 64.7156C62.91 64.7123 63.4567 64.3305 63.9989 63.9825C64.1981 64.1582 64.4034 64.3494 64.5676 64.5007C64.7527 64.6549 64.9433 64.8287 65.3339 64.9253C66.041 65.1004 66.7647 64.9599 67.2463 64.5856C67.7278 64.2129 67.962 63.7196 68.1054 63.2755C68.1324 63.1916 68.1436 63.1135 68.1648 63.031C68.5475 63.2278 69.0173 63.1265 69.2829 62.7902L85.5564 42.1268C85.7669 42.1335 86.0034 42.1289 86.2703 42.0801C86.9928 41.9473 87.9361 41.4395 88.4066 40.3696C88.7761 39.5296 88.6079 38.7008 88.3401 38.1894C88.2993 38.1116 88.2866 38.1327 88.2421 38.0646C88.4677 37.8131 88.5887 37.7463 88.8632 37.2778C89.3587 36.4325 89.8001 35.1306 89.1134 33.9053C89.0094 33.7205 88.8949 33.5564 88.7775 33.3957L89.6961 32.6002C90.0619 32.2813 90.1032 31.7317 89.7888 31.3629L87.9377 29.1948C87.7608 28.9872 87.4979 28.8721 87.2238 28.8812C87.0169 28.8879 86.817 28.962 86.6604 29.0962L85.7961 29.8414C85.8415 28.7385 85.5372 27.4892 84.4664 26.4706C82.9062 24.9866 81.0282 24.8497 79.6776 25.1205C78.7481 25.307 78.4585 25.5411 78.0836 25.7497C77.8517 25.4435 77.7642 25.2229 77.1721 24.7999C75.6466 23.8841 74.5441 23.8314 72.9659 24.2552ZM76.1205 26.2344C76.7449 26.6804 77.0916 27.236 77.0916 27.236C77.3569 27.667 77.9315 27.7927 78.3548 27.5118C78.3548 27.5118 79.0512 27.0594 80.0275 26.8636C81.0038 26.6677 82.117 26.7029 83.2224 27.7543C84.4129 29.2698 84.3813 30.9044 83.1751 32.0991L80.6224 34.3001C80.9177 32.0835 79.9143 29.7913 77.8789 28.5394C76.4954 27.6884 74.8929 27.4712 73.4156 27.8133C72.7328 27.9712 72.081 28.2537 71.4892 28.6417C71.7279 27.5253 72.2504 26.4293 73.6133 25.9069C74.5592 25.5148 75.4377 25.7115 76.1205 26.2344ZM74.6053 29.4302C75.3995 29.4 76.2105 29.5971 76.9394 30.0454C78.5995 31.0664 79.2644 33.0459 78.675 34.7992C78.0739 34.61 77.4839 34.4627 76.9114 34.3503C76.733 34.0736 76.5403 33.8021 76.3252 33.5323L76.9341 33.2549C77.8639 32.8529 77.5074 31.4705 76.4967 31.5582C76.3865 31.5683 76.2796 31.5972 76.18 31.6448L75.7514 31.839L75.7041 31.2965C75.6681 30.8345 75.2783 30.4789 74.7803 30.4803C74.3149 30.4816 73.9409 30.8806 73.9352 31.3572C73.8805 31.3227 73.8281 31.2851 73.7725 31.2515C73.2344 30.9272 72.6481 30.6614 72.0299 30.4769C72.753 29.8381 73.6608 29.4652 74.6053 29.4302ZM87.1574 31.0211L87.852 31.8408L82.4613 36.5097C82.133 36.3054 81.7967 36.1139 81.45 35.936L87.1574 31.0211ZM87.4215 34.5722C87.4635 34.6359 87.5066 34.6902 87.5475 34.7626C87.5475 34.7648 87.5475 34.766 87.5475 34.7694C87.8113 35.237 87.6554 35.7963 87.3096 36.3864C86.9638 36.9763 86.5082 37.4089 86.5082 37.4089C86.1115 37.7761 86.1343 38.4056 86.5555 38.745C86.5555 38.745 86.6613 38.8312 86.7532 39.0066C86.9218 39.7436 86.6297 40.1808 85.9396 40.329C85.9026 40.3357 85.8801 40.3318 85.8451 40.3357C85.4876 39.2758 84.7961 38.3725 83.9275 37.5992L87.4215 34.5722ZM74.5738 35.8858C74.7848 35.8791 75.0235 35.8824 75.2807 35.9026C76.3095 35.9787 77.641 36.2734 78.9445 36.7604C81.4221 37.6861 83.5751 39.3405 84.0955 41.0967L68.3626 61.0824L62.5905 57.6162L73.6728 36.0603C73.832 35.8564 74.1867 35.8788 74.5738 35.8869V35.8858ZM78.0784 40.1475C77.6331 40.1643 77.201 40.3923 76.9516 40.7904C76.5526 41.4276 76.7586 42.282 77.4013 42.6777C78.044 43.0733 78.9041 42.8746 79.3032 42.2375C79.7022 41.6003 79.5014 40.7475 78.8587 40.3519C78.6177 40.2036 78.3456 40.1374 78.0784 40.1475ZM72.9344 41.3814C72.49 41.3982 72.059 41.6245 71.8094 42.0226C71.41 42.6592 71.6088 43.5164 72.252 43.9117C72.8953 44.307 73.7597 44.1029 74.1592 43.4663C74.5586 42.8296 74.3563 41.9777 73.713 41.5824C73.4718 41.4342 73.201 41.371 72.9344 41.3814ZM76.3077 45.695C75.8632 45.7118 75.4342 45.9394 75.1845 46.3379C74.7849 46.9752 74.9855 47.8295 75.6289 48.2253C76.2723 48.6211 77.133 48.4208 77.5325 47.7834C77.9321 47.146 77.7315 46.2935 77.0881 45.8977C76.8468 45.7495 76.5745 45.6846 76.3077 45.695ZM70.7333 46.792C70.2887 46.8122 69.8577 47.0388 69.6083 47.4367C69.2093 48.0732 69.4102 48.9254 70.0527 49.3206C70.6952 49.7158 71.5609 49.5205 71.9599 48.8839C72.3588 48.2475 72.1545 47.3882 71.5119 46.993C71.271 46.8448 71.0002 46.7806 70.7333 46.792ZM71.0378 51.3777C70.5925 51.3945 70.1622 51.6209 69.9128 52.019C69.5137 52.6562 69.718 53.5123 70.3607 53.908C71.0033 54.3036 71.8635 54.1032 72.2625 53.4661C72.6616 52.8289 72.4608 51.9762 71.8181 51.5805C71.5771 51.4323 71.305 51.3676 71.0378 51.3777ZM66.8579 54.4487C66.4133 54.4655 65.9825 54.6949 65.7328 55.0934C65.3333 55.7307 65.5356 56.5832 66.179 56.979C66.8224 57.3748 67.6831 57.1762 68.0826 56.5388C68.4822 55.9015 68.2799 55.0474 67.6365 54.6516C67.3952 54.503 67.1246 54.4383 66.8579 54.4487ZM58.1008 56.9548C60.8878 58.6945 63.7113 60.3642 66.5307 62.0535C66.5121 62.2651 66.4781 62.516 66.4064 62.738C66.3278 62.9818 66.2113 63.141 66.1475 63.1903C65.9534 63.3825 65.6277 63.0938 65.3217 62.7848C65.1707 62.6426 65.0234 62.4913 64.7863 62.3445C64.6677 62.2711 64.5215 62.182 64.2701 62.1488C64.0188 62.1152 63.6192 62.2225 63.397 62.4435C63.0555 62.779 62.5992 62.9453 62.286 62.9479C61.9713 62.9504 61.8919 62.8932 61.8294 62.7383C61.5329 62.0042 61.1436 61.47 60.6256 61.1595C60.1076 60.8489 59.5491 60.8314 59.1454 60.8717C58.7416 60.9116 58.439 60.9787 58.2793 60.9827C57.883 60.9827 57.8944 60.502 57.9154 60.2236C57.9706 59.7824 58.1363 58.9773 57.8086 58.0295C57.6757 57.6447 57.7952 57.362 58.0134 57.0538L58.1008 56.9548Z"/>
<path d="M55.2207 79H51.4766V70.5449H55.1562C55.9492 70.5449 56.5781 70.7344 57.043 71.1133C57.5078 71.4922 57.7402 72.0059 57.7402 72.6543C57.7402 73.1152 57.5879 73.5195 57.2832 73.8672C56.9824 74.2148 56.6055 74.4219 56.1523 74.4883V74.5352C56.7305 74.5781 57.207 74.791 57.582 75.1738C57.957 75.5566 58.1445 76.0254 58.1445 76.5801C58.1445 77.3262 57.8828 77.916 57.3594 78.3496C56.8359 78.7832 56.123 79 55.2207 79ZM53.2461 71.8633V74.0605H54.5176C54.9902 74.0605 55.3555 73.9629 55.6133 73.7676C55.8711 73.5684 56 73.2891 56 72.9297C56 72.5898 55.8867 72.3281 55.6602 72.1445C55.4336 71.957 55.1133 71.8633 54.6992 71.8633H53.2461ZM53.2461 77.6816H54.7695C55.2812 77.6816 55.6699 77.5762 55.9355 77.3652C56.2051 77.1504 56.3398 76.8418 56.3398 76.4395C56.3398 76.0449 56.2012 75.7441 55.9238 75.5371C55.6504 75.3301 55.252 75.2266 54.7285 75.2266H53.2461V77.6816Z"/>
<path d="M64.8066 72.7188V79H63.1543V77.8691H63.1191C62.791 78.7012 62.1641 79.1172 61.2383 79.1172C60.5508 79.1172 60.002 78.9082 59.5918 78.4902C59.1816 78.0684 58.9766 77.4941 58.9766 76.7676V72.7188H60.6875V76.4102C60.6875 76.8281 60.7871 77.1465 60.9863 77.3652C61.1895 77.584 61.4805 77.6934 61.8594 77.6934C62.2383 77.6934 62.5391 77.5684 62.7617 77.3184C62.9844 77.0684 63.0957 76.7344 63.0957 76.3164V72.7188H64.8066Z"/>
<path d="M65.9199 79V72.7188H67.5723V73.8496H67.6074C67.7168 73.4512 67.9004 73.1465 68.1582 72.9355C68.416 72.7246 68.7305 72.6191 69.1016 72.6191C69.2812 72.6191 69.4434 72.6406 69.5879 72.6836V74.1895C69.4277 74.123 69.2207 74.0898 68.9668 74.0898C68.5449 74.0898 68.2168 74.2129 67.9824 74.459C67.748 74.7051 67.6309 75.0488 67.6309 75.4902V79H65.9199Z"/>
<path d="M70.291 79V72.7188H71.9434V73.8496H71.9785C72.0879 73.4512 72.2715 73.1465 72.5293 72.9355C72.7871 72.7246 73.1016 72.6191 73.4727 72.6191C73.6523 72.6191 73.8145 72.6406 73.959 72.6836V74.1895C73.7988 74.123 73.5918 74.0898 73.3379 74.0898C72.916 74.0898 72.5879 74.2129 72.3535 74.459C72.1191 74.7051 72.002 75.0488 72.002 75.4902V79H70.291Z"/>
<path d="M74.6914 79V72.7188H76.4023V79H74.6914ZM76.1973 71.7695C76.0215 71.9414 75.8047 72.0273 75.5469 72.0273C75.2891 72.0273 75.0723 71.9414 74.8965 71.7695C74.7207 71.5977 74.6328 71.3887 74.6328 71.1426C74.6328 70.8926 74.7207 70.6836 74.8965 70.5156C75.0723 70.3438 75.2891 70.2578 75.5469 70.2578C75.8047 70.2578 76.0215 70.3438 76.1973 70.5156C76.373 70.6836 76.4609 70.8926 76.4609 71.1426C76.4609 71.3887 76.373 71.5977 76.1973 71.7695Z"/>
<path d="M78.002 71.2715H79.7129V72.7188H80.873V74.0078H79.7129V77.0137C79.7129 77.4863 79.959 77.7227 80.4512 77.7227C80.6113 77.7227 80.75 77.7129 80.8672 77.6934V78.9531C80.668 79 80.3965 79.0234 80.0527 79.0234C79.3145 79.0234 78.7871 78.8906 78.4707 78.625C78.1582 78.3594 78.002 77.9199 78.002 77.3066V74.0078H77.1172V72.7188H78.002V71.2715Z"/>
<path d="M86.873 78.2676C86.3145 78.8457 85.5566 79.1348 84.5996 79.1348C83.6426 79.1348 82.8848 78.8438 82.3262 78.2617C81.7676 77.6797 81.4883 76.877 81.4883 75.8535C81.4883 74.8418 81.7695 74.0449 82.332 73.4629C82.8984 72.877 83.6543 72.584 84.5996 72.584C85.5488 72.584 86.3047 72.877 86.8672 73.4629C87.4297 74.0449 87.7109 74.8418 87.7109 75.8535C87.7109 76.8809 87.4316 77.6855 86.873 78.2676ZM84.5996 77.8281C85.0215 77.8281 85.3555 77.6562 85.6016 77.3125C85.8477 76.9688 85.9707 76.4844 85.9707 75.8594C85.9707 75.2422 85.8477 74.7598 85.6016 74.4121C85.3555 74.0645 85.0215 73.8906 84.5996 73.8906C84.1777 73.8906 83.8418 74.0645 83.5918 74.4121C83.3457 74.7598 83.2227 75.2422 83.2227 75.8594C83.2227 76.4844 83.3457 76.9688 83.5918 77.3125C83.8379 77.6562 84.1738 77.8281 84.5996 77.8281Z"/>
<path d="M88.4902 74.5645C88.4902 73.9668 88.7305 73.4883 89.2109 73.1289C89.6914 72.7656 90.334 72.584 91.1387 72.584C91.9238 72.584 92.5547 72.7676 93.0312 73.1348C93.5078 73.502 93.752 73.9902 93.7637 74.5996H92.1875C92.168 74.3457 92.0625 74.1465 91.8711 74.002C91.6836 73.8574 91.4316 73.7852 91.1152 73.7852C90.8184 73.7852 90.5801 73.8477 90.4004 73.9727C90.2246 74.0938 90.1367 74.2559 90.1367 74.459C90.1367 74.7637 90.4102 74.9805 90.957 75.1094L92.1582 75.3672C92.7871 75.5078 93.2383 75.7129 93.5117 75.9824C93.7891 76.248 93.9277 76.6152 93.9277 77.084C93.9277 77.7012 93.6699 78.1973 93.1543 78.5723C92.6387 78.9473 91.9648 79.1348 91.1328 79.1348C90.3047 79.1348 89.6426 78.9512 89.1465 78.584C88.6504 78.2168 88.3789 77.7227 88.332 77.1016H90.002C90.0449 77.3672 90.166 77.5723 90.3652 77.7168C90.5684 77.8613 90.8398 77.9336 91.1797 77.9336C91.5039 77.9336 91.7578 77.875 91.9414 77.7578C92.1289 77.6367 92.2227 77.4727 92.2227 77.2656C92.2227 77.1055 92.1641 76.9785 92.0469 76.8848C91.9297 76.7871 91.7305 76.7051 91.4492 76.6387L90.2891 76.3809C89.0898 76.1074 88.4902 75.502 88.4902 74.5645Z"/>
</mask>
<path d="M11 36C11 22.1929 22.1929 11 36 11H110C123.807 11 135 22.1929 135 36V73C135 86.8071 123.807 98 110 98H36C22.1929 98 11 86.8071 11 73V36Z" fill="#2E3235"/>
<path fill-rule="evenodd" clip-rule="evenodd" d="M72.9659 24.2552C70.9186 25.04 70.0403 26.8404 69.7325 28.2967C69.5701 29.0654 69.5459 29.743 69.5576 30.2447C69.2409 30.2789 68.9221 30.3299 68.6005 30.4197C68.3535 30.4898 68.1493 30.6612 68.0389 30.8912L65.1502 36.8252C64.5667 37.9135 66.272 38.7233 66.7634 37.5912L69.3949 32.1823C70.6029 31.9445 71.7752 32.1297 72.8399 32.7716C73.4421 33.1346 73.9978 33.6049 74.4811 34.1164C74.2063 34.1265 73.9434 34.1537 73.6938 34.1996C73.1744 34.2965 72.6758 34.4659 72.2905 34.8998C72.2416 34.9558 72.1998 35.0174 72.1663 35.0835L61.0578 56.6862L58.2986 54.9896L64.7793 41.6727C65.0723 41.0932 64.6599 40.4079 64.0059 40.3884C63.6465 40.3784 63.3158 40.5826 63.1661 40.9066L56.3407 54.9375C56.159 55.3079 56.2713 55.7371 56.5821 55.9947C56.0351 56.8201 55.8586 57.7982 56.1167 58.6048C56.2942 59.1179 56.207 59.4389 56.136 60.0068C56.0649 60.5748 56.1442 61.5072 56.8376 62.194C57.2745 62.6268 57.8847 62.7687 58.3248 62.7572C58.7649 62.7471 59.0962 62.6565 59.3238 62.6341C59.5515 62.6106 59.6182 62.6241 59.7 62.6724C59.7818 62.7213 59.962 62.8765 60.1707 63.3933C60.5273 64.2769 61.462 64.7225 62.3052 64.7156C62.91 64.7123 63.4567 64.3305 63.9989 63.9825C64.1981 64.1582 64.4034 64.3494 64.5676 64.5007C64.7527 64.6549 64.9433 64.8287 65.3339 64.9253C66.041 65.1004 66.7647 64.9599 67.2463 64.5856C67.7278 64.2129 67.962 63.7196 68.1054 63.2755C68.1324 63.1916 68.1436 63.1135 68.1648 63.031C68.5475 63.2278 69.0173 63.1265 69.2829 62.7902L85.5564 42.1268C85.7669 42.1335 86.0034 42.1289 86.2703 42.0801C86.9928 41.9473 87.9361 41.4395 88.4066 40.3696C88.7761 39.5296 88.6079 38.7008 88.3401 38.1894C88.2993 38.1116 88.2866 38.1327 88.2421 38.0646C88.4677 37.8131 88.5887 37.7463 88.8632 37.2778C89.3587 36.4325 89.8001 35.1306 89.1134 33.9053C89.0094 33.7205 88.8949 33.5564 88.7775 33.3957L89.6961 32.6002C90.0619 32.2813 90.1032 31.7317 89.7888 31.3629L87.9377 29.1948C87.7608 28.9872 87.4979 28.8721 87.2238 28.8812C87.0169 28.8879 86.817 28.962 86.6604 29.0962L85.7961 29.8414C85.8415 28.7385 85.5372 27.4892 84.4664 26.4706C82.9062 24.9866 81.0282 24.8497 79.6776 25.1205C78.7481 25.307 78.4585 25.5411 78.0836 25.7497C77.8517 25.4435 77.7642 25.2229 77.1721 24.7999C75.6466 23.8841 74.5441 23.8314 72.9659 24.2552ZM76.1205 26.2344C76.7449 26.6804 77.0916 27.236 77.0916 27.236C77.3569 27.667 77.9315 27.7927 78.3548 27.5118C78.3548 27.5118 79.0512 27.0594 80.0275 26.8636C81.0038 26.6677 82.117 26.7029 83.2224 27.7543C84.4129 29.2698 84.3813 30.9044 83.1751 32.0991L80.6224 34.3001C80.9177 32.0835 79.9143 29.7913 77.8789 28.5394C76.4954 27.6884 74.8929 27.4712 73.4156 27.8133C72.7328 27.9712 72.081 28.2537 71.4892 28.6417C71.7279 27.5253 72.2504 26.4293 73.6133 25.9069C74.5592 25.5148 75.4377 25.7115 76.1205 26.2344ZM74.6053 29.4302C75.3995 29.4 76.2105 29.5971 76.9394 30.0454C78.5995 31.0664 79.2644 33.0459 78.675 34.7992C78.0739 34.61 77.4839 34.4627 76.9114 34.3503C76.733 34.0736 76.5403 33.8021 76.3252 33.5323L76.9341 33.2549C77.8639 32.8529 77.5074 31.4705 76.4967 31.5582C76.3865 31.5683 76.2796 31.5972 76.18 31.6448L75.7514 31.839L75.7041 31.2965C75.6681 30.8345 75.2783 30.4789 74.7803 30.4803C74.3149 30.4816 73.9409 30.8806 73.9352 31.3572C73.8805 31.3227 73.8281 31.2851 73.7725 31.2515C73.2344 30.9272 72.6481 30.6614 72.0299 30.4769C72.753 29.8381 73.6608 29.4652 74.6053 29.4302ZM87.1574 31.0211L87.852 31.8408L82.4613 36.5097C82.133 36.3054 81.7967 36.1139 81.45 35.936L87.1574 31.0211ZM87.4215 34.5722C87.4635 34.6359 87.5066 34.6902 87.5475 34.7626C87.5475 34.7648 87.5475 34.766 87.5475 34.7694C87.8113 35.237 87.6554 35.7963 87.3096 36.3864C86.9638 36.9763 86.5082 37.4089 86.5082 37.4089C86.1115 37.7761 86.1343 38.4056 86.5555 38.745C86.5555 38.745 86.6613 38.8312 86.7532 39.0066C86.9218 39.7436 86.6297 40.1808 85.9396 40.329C85.9026 40.3357 85.8801 40.3318 85.8451 40.3357C85.4876 39.2758 84.7961 38.3725 83.9275 37.5992L87.4215 34.5722ZM74.5738 35.8858C74.7848 35.8791 75.0235 35.8824 75.2807 35.9026C76.3095 35.9787 77.641 36.2734 78.9445 36.7604C81.4221 37.6861 83.5751 39.3405 84.0955 41.0967L68.3626 61.0824L62.5905 57.6162L73.6728 36.0603C73.832 35.8564 74.1867 35.8788 74.5738 35.8869V35.8858ZM78.0784 40.1475C77.6331 40.1643 77.201 40.3923 76.9516 40.7904C76.5526 41.4276 76.7586 42.282 77.4013 42.6777C78.044 43.0733 78.9041 42.8746 79.3032 42.2375C79.7022 41.6003 79.5014 40.7475 78.8587 40.3519C78.6177 40.2036 78.3456 40.1374 78.0784 40.1475ZM72.9344 41.3814C72.49 41.3982 72.059 41.6245 71.8094 42.0226C71.41 42.6592 71.6088 43.5164 72.252 43.9117C72.8953 44.307 73.7597 44.1029 74.1592 43.4663C74.5586 42.8296 74.3563 41.9777 73.713 41.5824C73.4718 41.4342 73.201 41.371 72.9344 41.3814ZM76.3077 45.695C75.8632 45.7118 75.4342 45.9394 75.1845 46.3379C74.7849 46.9752 74.9855 47.8295 75.6289 48.2253C76.2723 48.6211 77.133 48.4208 77.5325 47.7834C77.9321 47.146 77.7315 46.2935 77.0881 45.8977C76.8468 45.7495 76.5745 45.6846 76.3077 45.695ZM70.7333 46.792C70.2887 46.8122 69.8577 47.0388 69.6083 47.4367C69.2093 48.0732 69.4102 48.9254 70.0527 49.3206C70.6952 49.7158 71.5609 49.5205 71.9599 48.8839C72.3588 48.2475 72.1545 47.3882 71.5119 46.993C71.271 46.8448 71.0002 46.7806 70.7333 46.792ZM71.0378 51.3777C70.5925 51.3945 70.1622 51.6209 69.9128 52.019C69.5137 52.6562 69.718 53.5123 70.3607 53.908C71.0033 54.3036 71.8635 54.1032 72.2625 53.4661C72.6616 52.8289 72.4608 51.9762 71.8181 51.5805C71.5771 51.4323 71.305 51.3676 71.0378 51.3777ZM66.8579 54.4487C66.4133 54.4655 65.9825 54.6949 65.7328 55.0934C65.3333 55.7307 65.5356 56.5832 66.179 56.979C66.8224 57.3748 67.6831 57.1762 68.0826 56.5388C68.4822 55.9015 68.2799 55.0474 67.6365 54.6516C67.3952 54.503 67.1246 54.4383 66.8579 54.4487ZM58.1008 56.9548C60.8878 58.6945 63.7113 60.3642 66.5307 62.0535C66.5121 62.2651 66.4781 62.516 66.4064 62.738C66.3278 62.9818 66.2113 63.141 66.1475 63.1903C65.9534 63.3825 65.6277 63.0938 65.3217 62.7848C65.1707 62.6426 65.0234 62.4913 64.7863 62.3445C64.6677 62.2711 64.5215 62.182 64.2701 62.1488C64.0188 62.1152 63.6192 62.2225 63.397 62.4435C63.0555 62.779 62.5992 62.9453 62.286 62.9479C61.9713 62.9504 61.8919 62.8932 61.8294 62.7383C61.5329 62.0042 61.1436 61.47 60.6256 61.1595C60.1076 60.8489 59.5491 60.8314 59.1454 60.8717C58.7416 60.9116 58.439 60.9787 58.2793 60.9827C57.883 60.9827 57.8944 60.502 57.9154 60.2236C57.9706 59.7824 58.1363 58.9773 57.8086 58.0295C57.6757 57.6447 57.7952 57.362 58.0134 57.0538L58.1008 56.9548Z" fill="#F83103"/>
<path d="M55.2207 79H51.4766V70.5449H55.1562C55.9492 70.5449 56.5781 70.7344 57.043 71.1133C57.5078 71.4922 57.7402 72.0059 57.7402 72.6543C57.7402 73.1152 57.5879 73.5195 57.2832 73.8672C56.9824 74.2148 56.6055 74.4219 56.1523 74.4883V74.5352C56.7305 74.5781 57.207 74.791 57.582 75.1738C57.957 75.5566 58.1445 76.0254 58.1445 76.5801C58.1445 77.3262 57.8828 77.916 57.3594 78.3496C56.8359 78.7832 56.123 79 55.2207 79ZM53.2461 71.8633V74.0605H54.5176C54.9902 74.0605 55.3555 73.9629 55.6133 73.7676C55.8711 73.5684 56 73.2891 56 72.9297C56 72.5898 55.8867 72.3281 55.6602 72.1445C55.4336 71.957 55.1133 71.8633 54.6992 71.8633H53.2461ZM53.2461 77.6816H54.7695C55.2812 77.6816 55.6699 77.5762 55.9355 77.3652C56.2051 77.1504 56.3398 76.8418 56.3398 76.4395C56.3398 76.0449 56.2012 75.7441 55.9238 75.5371C55.6504 75.3301 55.252 75.2266 54.7285 75.2266H53.2461V77.6816Z" fill="#F83103"/>
<path d="M64.8066 72.7188V79H63.1543V77.8691H63.1191C62.791 78.7012 62.1641 79.1172 61.2383 79.1172C60.5508 79.1172 60.002 78.9082 59.5918 78.4902C59.1816 78.0684 58.9766 77.4941 58.9766 76.7676V72.7188H60.6875V76.4102C60.6875 76.8281 60.7871 77.1465 60.9863 77.3652C61.1895 77.584 61.4805 77.6934 61.8594 77.6934C62.2383 77.6934 62.5391 77.5684 62.7617 77.3184C62.9844 77.0684 63.0957 76.7344 63.0957 76.3164V72.7188H64.8066Z" fill="#F83103"/>
<path d="M65.9199 79V72.7188H67.5723V73.8496H67.6074C67.7168 73.4512 67.9004 73.1465 68.1582 72.9355C68.416 72.7246 68.7305 72.6191 69.1016 72.6191C69.2812 72.6191 69.4434 72.6406 69.5879 72.6836V74.1895C69.4277 74.123 69.2207 74.0898 68.9668 74.0898C68.5449 74.0898 68.2168 74.2129 67.9824 74.459C67.748 74.7051 67.6309 75.0488 67.6309 75.4902V79H65.9199Z" fill="#F83103"/>
<path d="M70.291 79V72.7188H71.9434V73.8496H71.9785C72.0879 73.4512 72.2715 73.1465 72.5293 72.9355C72.7871 72.7246 73.1016 72.6191 73.4727 72.6191C73.6523 72.6191 73.8145 72.6406 73.959 72.6836V74.1895C73.7988 74.123 73.5918 74.0898 73.3379 74.0898C72.916 74.0898 72.5879 74.2129 72.3535 74.459C72.1191 74.7051 72.002 75.0488 72.002 75.4902V79H70.291Z" fill="#F83103"/>
<path d="M74.6914 79V72.7188H76.4023V79H74.6914ZM76.1973 71.7695C76.0215 71.9414 75.8047 72.0273 75.5469 72.0273C75.2891 72.0273 75.0723 71.9414 74.8965 71.7695C74.7207 71.5977 74.6328 71.3887 74.6328 71.1426C74.6328 70.8926 74.7207 70.6836 74.8965 70.5156C75.0723 70.3438 75.2891 70.2578 75.5469 70.2578C75.8047 70.2578 76.0215 70.3438 76.1973 70.5156C76.373 70.6836 76.4609 70.8926 76.4609 71.1426C76.4609 71.3887 76.373 71.5977 76.1973 71.7695Z" fill="#F83103"/>
<path d="M78.002 71.2715H79.7129V72.7188H80.873V74.0078H79.7129V77.0137C79.7129 77.4863 79.959 77.7227 80.4512 77.7227C80.6113 77.7227 80.75 77.7129 80.8672 77.6934V78.9531C80.668 79 80.3965 79.0234 80.0527 79.0234C79.3145 79.0234 78.7871 78.8906 78.4707 78.625C78.1582 78.3594 78.002 77.9199 78.002 77.3066V74.0078H77.1172V72.7188H78.002V71.2715Z" fill="#F83103"/>
<path d="M86.873 78.2676C86.3145 78.8457 85.5566 79.1348 84.5996 79.1348C83.6426 79.1348 82.8848 78.8438 82.3262 78.2617C81.7676 77.6797 81.4883 76.877 81.4883 75.8535C81.4883 74.8418 81.7695 74.0449 82.332 73.4629C82.8984 72.877 83.6543 72.584 84.5996 72.584C85.5488 72.584 86.3047 72.877 86.8672 73.4629C87.4297 74.0449 87.7109 74.8418 87.7109 75.8535C87.7109 76.8809 87.4316 77.6855 86.873 78.2676ZM84.5996 77.8281C85.0215 77.8281 85.3555 77.6562 85.6016 77.3125C85.8477 76.9688 85.9707 76.4844 85.9707 75.8594C85.9707 75.2422 85.8477 74.7598 85.6016 74.4121C85.3555 74.0645 85.0215 73.8906 84.5996 73.8906C84.1777 73.8906 83.8418 74.0645 83.5918 74.4121C83.3457 74.7598 83.2227 75.2422 83.2227 75.8594C83.2227 76.4844 83.3457 76.9688 83.5918 77.3125C83.8379 77.6562 84.1738 77.8281 84.5996 77.8281Z" fill="#F83103"/>
<path d="M88.4902 74.5645C88.4902 73.9668 88.7305 73.4883 89.2109 73.1289C89.6914 72.7656 90.334 72.584 91.1387 72.584C91.9238 72.584 92.5547 72.7676 93.0312 73.1348C93.5078 73.502 93.752 73.9902 93.7637 74.5996H92.1875C92.168 74.3457 92.0625 74.1465 91.8711 74.002C91.6836 73.8574 91.4316 73.7852 91.1152 73.7852C90.8184 73.7852 90.5801 73.8477 90.4004 73.9727C90.2246 74.0938 90.1367 74.2559 90.1367 74.459C90.1367 74.7637 90.4102 74.9805 90.957 75.1094L92.1582 75.3672C92.7871 75.5078 93.2383 75.7129 93.5117 75.9824C93.7891 76.248 93.9277 76.6152 93.9277 77.084C93.9277 77.7012 93.6699 78.1973 93.1543 78.5723C92.6387 78.9473 91.9648 79.1348 91.1328 79.1348C90.3047 79.1348 89.6426 78.9512 89.1465 78.584C88.6504 78.2168 88.3789 77.7227 88.332 77.1016H90.002C90.0449 77.3672 90.166 77.5723 90.3652 77.7168C90.5684 77.8613 90.8398 77.9336 91.1797 77.9336C91.5039 77.9336 91.7578 77.875 91.9414 77.7578C92.1289 77.6367 92.2227 77.4727 92.2227 77.2656C92.2227 77.1055 92.1641 76.9785 92.0469 76.8848C91.9297 76.7871 91.7305 76.7051 91.4492 76.6387L90.2891 76.3809C89.0898 76.1074 88.4902 75.502 88.4902 74.5645Z" fill="#F83103"/>
<path d="M11 36C11 22.1929 22.1929 11 36 11H110C123.807 11 135 22.1929 135 36V73C135 86.8071 123.807 98 110 98H36C22.1929 98 11 86.8071 11 73V36Z" stroke="#F83103" stroke-width="2" mask="url(#path-1-outside-1_356_193)"/>
<path fill-rule="evenodd" clip-rule="evenodd" d="M72.9659 24.2552C70.9186 25.04 70.0403 26.8404 69.7325 28.2967C69.5701 29.0654 69.5459 29.743 69.5576 30.2447C69.2409 30.2789 68.9221 30.3299 68.6005 30.4197C68.3535 30.4898 68.1493 30.6612 68.0389 30.8912L65.1502 36.8252C64.5667 37.9135 66.272 38.7233 66.7634 37.5912L69.3949 32.1823C70.6029 31.9445 71.7752 32.1297 72.8399 32.7716C73.4421 33.1346 73.9978 33.6049 74.4811 34.1164C74.2063 34.1265 73.9434 34.1537 73.6938 34.1996C73.1744 34.2965 72.6758 34.4659 72.2905 34.8998C72.2416 34.9558 72.1998 35.0174 72.1663 35.0835L61.0578 56.6862L58.2986 54.9896L64.7793 41.6727C65.0723 41.0932 64.6599 40.4079 64.0059 40.3884C63.6465 40.3784 63.3158 40.5826 63.1661 40.9066L56.3407 54.9375C56.159 55.3079 56.2713 55.7371 56.5821 55.9947C56.0351 56.8201 55.8586 57.7982 56.1167 58.6048C56.2942 59.1179 56.207 59.4389 56.136 60.0068C56.0649 60.5748 56.1442 61.5072 56.8376 62.194C57.2745 62.6268 57.8847 62.7687 58.3248 62.7572C58.7649 62.7471 59.0962 62.6565 59.3238 62.6341C59.5515 62.6106 59.6182 62.6241 59.7 62.6724C59.7818 62.7213 59.962 62.8765 60.1707 63.3933C60.5273 64.2769 61.462 64.7225 62.3052 64.7156C62.91 64.7123 63.4567 64.3305 63.9989 63.9825C64.1981 64.1582 64.4034 64.3494 64.5676 64.5007C64.7527 64.6549 64.9433 64.8287 65.3339 64.9253C66.041 65.1004 66.7647 64.9599 67.2463 64.5856C67.7278 64.2129 67.962 63.7196 68.1054 63.2755C68.1324 63.1916 68.1436 63.1135 68.1648 63.031C68.5475 63.2278 69.0173 63.1265 69.2829 62.7902L85.5564 42.1268C85.7669 42.1335 86.0034 42.1289 86.2703 42.0801C86.9928 41.9473 87.9361 41.4395 88.4066 40.3696C88.7761 39.5296 88.6079 38.7008 88.3401 38.1894C88.2993 38.1116 88.2866 38.1327 88.2421 38.0646C88.4677 37.8131 88.5887 37.7463 88.8632 37.2778C89.3587 36.4325 89.8001 35.1306 89.1134 33.9053C89.0094 33.7205 88.8949 33.5564 88.7775 33.3957L89.6961 32.6002C90.0619 32.2813 90.1032 31.7317 89.7888 31.3629L87.9377 29.1948C87.7608 28.9872 87.4979 28.8721 87.2238 28.8812C87.0169 28.8879 86.817 28.962 86.6604 29.0962L85.7961 29.8414C85.8415 28.7385 85.5372 27.4892 84.4664 26.4706C82.9062 24.9866 81.0282 24.8497 79.6776 25.1205C78.7481 25.307 78.4585 25.5411 78.0836 25.7497C77.8517 25.4435 77.7642 25.2229 77.1721 24.7999C75.6466 23.8841 74.5441 23.8314 72.9659 24.2552ZM76.1205 26.2344C76.7449 26.6804 77.0916 27.236 77.0916 27.236C77.3569 27.667 77.9315 27.7927 78.3548 27.5118C78.3548 27.5118 79.0512 27.0594 80.0275 26.8636C81.0038 26.6677 82.117 26.7029 83.2224 27.7543C84.4129 29.2698 84.3813 30.9044 83.1751 32.0991L80.6224 34.3001C80.9177 32.0835 79.9143 29.7913 77.8789 28.5394C76.4954 27.6884 74.8929 27.4712 73.4156 27.8133C72.7328 27.9712 72.081 28.2537 71.4892 28.6417C71.7279 27.5253 72.2504 26.4293 73.6133 25.9069C74.5592 25.5148 75.4377 25.7115 76.1205 26.2344ZM74.6053 29.4302C75.3995 29.4 76.2105 29.5971 76.9394 30.0454C78.5995 31.0664 79.2644 33.0459 78.675 34.7992C78.0739 34.61 77.4839 34.4627 76.9114 34.3503C76.733 34.0736 76.5403 33.8021 76.3252 33.5323L76.9341 33.2549C77.8639 32.8529 77.5074 31.4705 76.4967 31.5582C76.3865 31.5683 76.2796 31.5972 76.18 31.6448L75.7514 31.839L75.7041 31.2965C75.6681 30.8345 75.2783 30.4789 74.7803 30.4803C74.3149 30.4816 73.9409 30.8806 73.9352 31.3572C73.8805 31.3227 73.8281 31.2851 73.7725 31.2515C73.2344 30.9272 72.6481 30.6614 72.0299 30.4769C72.753 29.8381 73.6608 29.4652 74.6053 29.4302ZM87.1574 31.0211L87.852 31.8408L82.4613 36.5097C82.133 36.3054 81.7967 36.1139 81.45 35.936L87.1574 31.0211ZM87.4215 34.5722C87.4635 34.6359 87.5066 34.6902 87.5475 34.7626C87.5475 34.7648 87.5475 34.766 87.5475 34.7694C87.8113 35.237 87.6554 35.7963 87.3096 36.3864C86.9638 36.9763 86.5082 37.4089 86.5082 37.4089C86.1115 37.7761 86.1343 38.4056 86.5555 38.745C86.5555 38.745 86.6613 38.8312 86.7532 39.0066C86.9218 39.7436 86.6297 40.1808 85.9396 40.329C85.9026 40.3357 85.8801 40.3318 85.8451 40.3357C85.4876 39.2758 84.7961 38.3725 83.9275 37.5992L87.4215 34.5722ZM74.5738 35.8858C74.7848 35.8791 75.0235 35.8824 75.2807 35.9026C76.3095 35.9787 77.641 36.2734 78.9445 36.7604C81.4221 37.6861 83.5751 39.3405 84.0955 41.0967L68.3626 61.0824L62.5905 57.6162L73.6728 36.0603C73.832 35.8564 74.1867 35.8788 74.5738 35.8869V35.8858ZM78.0784 40.1475C77.6331 40.1643 77.201 40.3923 76.9516 40.7904C76.5526 41.4276 76.7586 42.282 77.4013 42.6777C78.044 43.0733 78.9041 42.8746 79.3032 42.2375C79.7022 41.6003 79.5014 40.7475 78.8587 40.3519C78.6177 40.2036 78.3456 40.1374 78.0784 40.1475ZM72.9344 41.3814C72.49 41.3982 72.059 41.6245 71.8094 42.0226C71.41 42.6592 71.6088 43.5164 72.252 43.9117C72.8953 44.307 73.7597 44.1029 74.1592 43.4663C74.5586 42.8296 74.3563 41.9777 73.713 41.5824C73.4718 41.4342 73.201 41.371 72.9344 41.3814ZM76.3077 45.695C75.8632 45.7118 75.4342 45.9394 75.1845 46.3379C74.7849 46.9752 74.9855 47.8295 75.6289 48.2253C76.2723 48.6211 77.133 48.4208 77.5325 47.7834C77.9321 47.146 77.7315 46.2935 77.0881 45.8977C76.8468 45.7495 76.5745 45.6846 76.3077 45.695ZM70.7333 46.792C70.2887 46.8122 69.8577 47.0388 69.6083 47.4367C69.2093 48.0732 69.4102 48.9254 70.0527 49.3206C70.6952 49.7158 71.5609 49.5205 71.9599 48.8839C72.3588 48.2475 72.1545 47.3882 71.5119 46.993C71.271 46.8448 71.0002 46.7806 70.7333 46.792ZM71.0378 51.3777C70.5925 51.3945 70.1622 51.6209 69.9128 52.019C69.5137 52.6562 69.718 53.5123 70.3607 53.908C71.0033 54.3036 71.8635 54.1032 72.2625 53.4661C72.6616 52.8289 72.4608 51.9762 71.8181 51.5805C71.5771 51.4323 71.305 51.3676 71.0378 51.3777ZM66.8579 54.4487C66.4133 54.4655 65.9825 54.6949 65.7328 55.0934C65.3333 55.7307 65.5356 56.5832 66.179 56.979C66.8224 57.3748 67.6831 57.1762 68.0826 56.5388C68.4822 55.9015 68.2799 55.0474 67.6365 54.6516C67.3952 54.503 67.1246 54.4383 66.8579 54.4487ZM58.1008 56.9548C60.8878 58.6945 63.7113 60.3642 66.5307 62.0535C66.5121 62.2651 66.4781 62.516 66.4064 62.738C66.3278 62.9818 66.2113 63.141 66.1475 63.1903C65.9534 63.3825 65.6277 63.0938 65.3217 62.7848C65.1707 62.6426 65.0234 62.4913 64.7863 62.3445C64.6677 62.2711 64.5215 62.182 64.2701 62.1488C64.0188 62.1152 63.6192 62.2225 63.397 62.4435C63.0555 62.779 62.5992 62.9453 62.286 62.9479C61.9713 62.9504 61.8919 62.8932 61.8294 62.7383C61.5329 62.0042 61.1436 61.47 60.6256 61.1595C60.1076 60.8489 59.5491 60.8314 59.1454 60.8717C58.7416 60.9116 58.439 60.9787 58.2793 60.9827C57.883 60.9827 57.8944 60.502 57.9154 60.2236C57.9706 59.7824 58.1363 58.9773 57.8086 58.0295C57.6757 57.6447 57.7952 57.362 58.0134 57.0538L58.1008 56.9548Z" stroke="#F83103" stroke-width="2" mask="url(#path-1-outside-1_356_193)"/>
<path d="M55.2207 79H51.4766V70.5449H55.1562C55.9492 70.5449 56.5781 70.7344 57.043 71.1133C57.5078 71.4922 57.7402 72.0059 57.7402 72.6543C57.7402 73.1152 57.5879 73.5195 57.2832 73.8672C56.9824 74.2148 56.6055 74.4219 56.1523 74.4883V74.5352C56.7305 74.5781 57.207 74.791 57.582 75.1738C57.957 75.5566 58.1445 76.0254 58.1445 76.5801C58.1445 77.3262 57.8828 77.916 57.3594 78.3496C56.8359 78.7832 56.123 79 55.2207 79ZM53.2461 71.8633V74.0605H54.5176C54.9902 74.0605 55.3555 73.9629 55.6133 73.7676C55.8711 73.5684 56 73.2891 56 72.9297C56 72.5898 55.8867 72.3281 55.6602 72.1445C55.4336 71.957 55.1133 71.8633 54.6992 71.8633H53.2461ZM53.2461 77.6816H54.7695C55.2812 77.6816 55.6699 77.5762 55.9355 77.3652C56.2051 77.1504 56.3398 76.8418 56.3398 76.4395C56.3398 76.0449 56.2012 75.7441 55.9238 75.5371C55.6504 75.3301 55.252 75.2266 54.7285 75.2266H53.2461V77.6816Z" stroke="#F83103" stroke-width="2" mask="url(#path-1-outside-1_356_193)"/>
<path d="M64.8066 72.7188V79H63.1543V77.8691H63.1191C62.791 78.7012 62.1641 79.1172 61.2383 79.1172C60.5508 79.1172 60.002 78.9082 59.5918 78.4902C59.1816 78.0684 58.9766 77.4941 58.9766 76.7676V72.7188H60.6875V76.4102C60.6875 76.8281 60.7871 77.1465 60.9863 77.3652C61.1895 77.584 61.4805 77.6934 61.8594 77.6934C62.2383 77.6934 62.5391 77.5684 62.7617 77.3184C62.9844 77.0684 63.0957 76.7344 63.0957 76.3164V72.7188H64.8066Z" stroke="#F83103" stroke-width="2" mask="url(#path-1-outside-1_356_193)"/>
<path d="M65.9199 79V72.7188H67.5723V73.8496H67.6074C67.7168 73.4512 67.9004 73.1465 68.1582 72.9355C68.416 72.7246 68.7305 72.6191 69.1016 72.6191C69.2812 72.6191 69.4434 72.6406 69.5879 72.6836V74.1895C69.4277 74.123 69.2207 74.0898 68.9668 74.0898C68.5449 74.0898 68.2168 74.2129 67.9824 74.459C67.748 74.7051 67.6309 75.0488 67.6309 75.4902V79H65.9199Z" stroke="#F83103" stroke-width="2" mask="url(#path-1-outside-1_356_193)"/>
<path d="M70.291 79V72.7188H71.9434V73.8496H71.9785C72.0879 73.4512 72.2715 73.1465 72.5293 72.9355C72.7871 72.7246 73.1016 72.6191 73.4727 72.6191C73.6523 72.6191 73.8145 72.6406 73.959 72.6836V74.1895C73.7988 74.123 73.5918 74.0898 73.3379 74.0898C72.916 74.0898 72.5879 74.2129 72.3535 74.459C72.1191 74.7051 72.002 75.0488 72.002 75.4902V79H70.291Z" stroke="#F83103" stroke-width="2" mask="url(#path-1-outside-1_356_193)"/>
<path d="M74.6914 79V72.7188H76.4023V79H74.6914ZM76.1973 71.7695C76.0215 71.9414 75.8047 72.0273 75.5469 72.0273C75.2891 72.0273 75.0723 71.9414 74.8965 71.7695C74.7207 71.5977 74.6328 71.3887 74.6328 71.1426C74.6328 70.8926 74.7207 70.6836 74.8965 70.5156C75.0723 70.3438 75.2891 70.2578 75.5469 70.2578C75.8047 70.2578 76.0215 70.3438 76.1973 70.5156C76.373 70.6836 76.4609 70.8926 76.4609 71.1426C76.4609 71.3887 76.373 71.5977 76.1973 71.7695Z" stroke="#F83103" stroke-width="2" mask="url(#path-1-outside-1_356_193)"/>
<path d="M78.002 71.2715H79.7129V72.7188H80.873V74.0078H79.7129V77.0137C79.7129 77.4863 79.959 77.7227 80.4512 77.7227C80.6113 77.7227 80.75 77.7129 80.8672 77.6934V78.9531C80.668 79 80.3965 79.0234 80.0527 79.0234C79.3145 79.0234 78.7871 78.8906 78.4707 78.625C78.1582 78.3594 78.002 77.9199 78.002 77.3066V74.0078H77.1172V72.7188H78.002V71.2715Z" stroke="#F83103" stroke-width="2" mask="url(#path-1-outside-1_356_193)"/>
<path d="M86.873 78.2676C86.3145 78.8457 85.5566 79.1348 84.5996 79.1348C83.6426 79.1348 82.8848 78.8438 82.3262 78.2617C81.7676 77.6797 81.4883 76.877 81.4883 75.8535C81.4883 74.8418 81.7695 74.0449 82.332 73.4629C82.8984 72.877 83.6543 72.584 84.5996 72.584C85.5488 72.584 86.3047 72.877 86.8672 73.4629C87.4297 74.0449 87.7109 74.8418 87.7109 75.8535C87.7109 76.8809 87.4316 77.6855 86.873 78.2676ZM84.5996 77.8281C85.0215 77.8281 85.3555 77.6562 85.6016 77.3125C85.8477 76.9688 85.9707 76.4844 85.9707 75.8594C85.9707 75.2422 85.8477 74.7598 85.6016 74.4121C85.3555 74.0645 85.0215 73.8906 84.5996 73.8906C84.1777 73.8906 83.8418 74.0645 83.5918 74.4121C83.3457 74.7598 83.2227 75.2422 83.2227 75.8594C83.2227 76.4844 83.3457 76.9688 83.5918 77.3125C83.8379 77.6562 84.1738 77.8281 84.5996 77.8281Z" stroke="#F83103" stroke-width="2" mask="url(#path-1-outside-1_356_193)"/>
<path d="M88.4902 74.5645C88.4902 73.9668 88.7305 73.4883 89.2109 73.1289C89.6914 72.7656 90.334 72.584 91.1387 72.584C91.9238 72.584 92.5547 72.7676 93.0312 73.1348C93.5078 73.502 93.752 73.9902 93.7637 74.5996H92.1875C92.168 74.3457 92.0625 74.1465 91.8711 74.002C91.6836 73.8574 91.4316 73.7852 91.1152 73.7852C90.8184 73.7852 90.5801 73.8477 90.4004 73.9727C90.2246 74.0938 90.1367 74.2559 90.1367 74.459C90.1367 74.7637 90.4102 74.9805 90.957 75.1094L92.1582 75.3672C92.7871 75.5078 93.2383 75.7129 93.5117 75.9824C93.7891 76.248 93.9277 76.6152 93.9277 77.084C93.9277 77.7012 93.6699 78.1973 93.1543 78.5723C92.6387 78.9473 91.9648 79.1348 91.1328 79.1348C90.3047 79.1348 89.6426 78.9512 89.1465 78.584C88.6504 78.2168 88.3789 77.7227 88.332 77.1016H90.002C90.0449 77.3672 90.166 77.5723 90.3652 77.7168C90.5684 77.8613 90.8398 77.9336 91.1797 77.9336C91.5039 77.9336 91.7578 77.875 91.9414 77.7578C92.1289 77.6367 92.2227 77.4727 92.2227 77.2656C92.2227 77.1055 92.1641 76.9785 92.0469 76.8848C91.9297 76.7871 91.7305 76.7051 91.4492 76.6387L90.2891 76.3809C89.0898 76.1074 88.4902 75.502 88.4902 74.5645Z" stroke="#F83103" stroke-width="2" mask="url(#path-1-outside-1_356_193)"/>
</g>
<defs>
<filter id="filter0_d_356_193" x="0" y="0" width="146" height="109" filterUnits="userSpaceOnUse" color-interpolation-filters="sRGB">
<feFlood flood-opacity="0" result="BackgroundImageFix"/>
<feColorMatrix in="SourceAlpha" type="matrix" values="0 0 0 0 0 0 0 0 0 0 0 0 0 0 0 0 0 0 127 0" result="hardAlpha"/>
<feOffset/>
<feGaussianBlur stdDeviation="5"/>
<feComposite in2="hardAlpha" operator="out"/>
<feColorMatrix type="matrix" values="0 0 0 0 0.972549 0 0 0 0 0.192157 0 0 0 0 0.0117647 0 0 0 0.25 0"/>
<feBlend mode="normal" in2="BackgroundImageFix" result="effect1_dropShadow_356_193"/>
<feBlend mode="normal" in="SourceGraphic" in2="effect1_dropShadow_356_193" result="shape"/>
</filter>
</defs>
</svg>
