<svg width="146" height="109" viewBox="0 0 146 109" fill="none" xmlns="http://www.w3.org/2000/svg">
<g filter="url(#filter0_d_356_199)">
<mask id="path-1-outside-1_356_199" maskUnits="userSpaceOnUse" x="10" y="10" width="126" height="89" fill="black">
<rect fill="white" x="10" y="10" width="126" height="89"/>
<path d="M11 36C11 22.1929 22.1929 11 36 11H110C123.807 11 135 22.1929 135 36V73C135 86.8071 123.807 98 110 98H36C22.1929 98 11 86.8071 11 73V36Z"/>
<path d="M64.1801 34.4275C63.6038 33.8505 62.8928 33.6267 62.5921 33.9278C62.2914 34.2289 62.5148 34.9407 63.0911 35.5178C63.6675 36.0948 64.3785 36.3186 64.6792 36.0175C64.9799 35.7164 64.7565 35.0046 64.1801 34.4275Z"/>
<path d="M65.9204 31.2296C65.3121 31.8386 65.0763 32.5897 65.3937 32.9075C65.711 33.2252 66.4613 32.9891 67.0695 32.3802C67.6778 31.7712 67.9136 31.0201 67.5962 30.7023C67.2788 30.3846 66.5285 30.6207 65.9204 31.2296Z"/>
<path d="M73.263 31.0187C72.9623 30.7177 72.2513 30.9414 71.6749 31.5184C71.0985 32.0954 70.8751 32.8073 71.1758 33.1084C71.4765 33.4094 72.1875 33.1857 72.7639 32.6087C73.3402 32.0317 73.5637 31.3198 73.263 31.0187Z"/>
<path d="M78.5268 31.0192C78.2261 30.7181 77.5151 30.9418 76.9388 31.5188C76.3624 32.0959 76.139 32.8077 76.4397 33.1088C76.7404 33.4099 77.4514 33.1862 78.0278 32.6092C78.6041 32.0321 78.8276 31.3203 78.5268 31.0192Z"/>
<path d="M75.1182 34.4275C74.5419 33.8504 73.8308 33.6267 73.5301 33.9278C73.2294 34.2289 73.4528 34.9407 74.0291 35.5178C74.6055 36.0949 75.3165 36.3186 75.6172 36.0175C75.918 35.7164 75.6946 35.0045 75.1182 34.4275Z"/>
<path d="M81.9091 34.6185C81.3327 34.0414 80.6217 33.8177 80.321 34.1188C80.0202 34.4199 80.2437 35.1317 80.82 35.7088C81.3964 36.2858 82.1074 36.5096 82.4081 36.2085C82.7088 35.9074 82.4854 35.1955 81.9091 34.6185Z"/>
<path d="M69.5106 34.4275C68.9342 33.8505 68.2232 33.6267 67.9225 33.9278C67.6218 34.2289 67.8453 34.9407 68.4216 35.5178C68.9979 36.0948 69.709 36.3186 70.0097 36.0175C70.3104 35.7164 70.0869 35.0046 69.5106 34.4275Z"/>
<path d="M90.2914 47.0711V45.336C91.8436 45.007 93 43.7787 93 42.3178C93 40.8499 91.8327 39.6168 90.2695 39.2948C90.1662 37.6259 89.6929 36.0079 88.8584 34.4758C87.9495 32.8072 86.6531 31.3123 85.0051 30.0325C83.3721 28.7644 81.474 27.77 79.3634 27.0768C77.188 26.3623 74.8788 26 72.5 26C70.1212 26 67.812 26.3623 65.6365 27.0768C63.526 27.77 61.6279 28.7644 59.9949 30.0325C58.3469 31.3123 57.0505 32.8072 56.1416 34.4758C55.3071 36.0079 54.8337 37.6259 54.7303 39.2948C53.1672 39.6169 52 40.85 52 42.3178C52 43.796 53.1839 45.0361 54.7638 45.3474V47.0598C53.1839 47.371 52 48.6112 52 50.0894C52 51.5677 53.1839 52.8078 54.7638 53.119V55.8142C54.7638 56.4214 54.9366 57.0062 55.2774 57.5524C55.5878 58.0499 56.024 58.492 56.5738 58.8664C57.6475 59.5974 59.0553 60 60.5379 60H84.5173C85.9999 60 87.4077 59.5974 88.4814 58.8664C89.0312 58.492 89.4674 58.0499 89.7778 57.5524C90.1186 57.0062 90.2914 56.4214 90.2914 55.8142V53.1077C91.8436 52.7787 93 51.5504 93 50.0894C93 48.6285 91.8436 47.4001 90.2914 47.0711ZM56.3167 45.4228H88.7385V46.9843H56.3167V45.4228ZM72.5 27.5661C81.1102 27.5661 88.1767 32.7225 88.7066 39.2127H56.2934C56.8233 32.7225 63.8898 27.5661 72.5 27.5661ZM53.5529 42.3178C53.5529 41.4836 54.463 40.7788 55.5402 40.7788H89.4597C90.537 40.7788 91.4471 41.4836 91.4471 42.3178C91.4471 43.152 90.537 43.8567 89.4597 43.8567H55.5402C54.463 43.8567 53.5529 43.152 53.5529 42.3178ZM87.6124 57.5684C86.8046 58.1184 85.6764 58.4339 84.5173 58.4339H60.5379C59.3788 58.4339 58.2506 58.1184 57.4428 57.5684C56.7166 57.074 56.3167 56.451 56.3167 55.8142V53.1945H59.6861L60.9636 55.9129C61.0959 56.1943 61.3741 56.3607 61.6656 56.3607C61.7655 56.3607 61.8669 56.3412 61.9646 56.3L69.3367 53.1945H78.6711C78.6761 53.2755 78.6828 53.3598 78.6915 53.4464C78.7793 54.315 79.0267 54.9762 79.427 55.4116C79.778 55.7933 80.2388 55.9951 80.7594 55.9951C81.2912 55.9951 81.7632 55.7904 82.1242 55.4031C82.6789 54.8079 82.8598 53.874 82.9138 53.1945H84.4235C84.4482 53.5222 84.4909 53.9196 84.5644 54.3198C84.6739 54.9159 84.8319 55.4044 85.0342 55.7715C85.4918 56.6021 86.1257 56.7261 86.4629 56.7261C86.9 56.7261 87.2949 56.55 87.6049 56.2169C88.0503 55.7382 88.3109 54.9482 88.4016 53.8017C88.4186 53.5865 88.4276 53.3803 88.4318 53.1945H88.7385V55.8142C88.7385 56.451 88.3386 57.074 87.6124 57.5684ZM61.4046 53.1945H65.3078L62.0496 54.567L61.4046 53.1945ZM89.4597 51.6284H87.6455C87.431 51.6284 87.2261 51.7178 87.0793 51.8755C86.9325 52.0333 86.857 52.2452 86.8706 52.461C86.871 52.4675 86.9103 53.1126 86.8407 53.8223C86.757 54.677 86.5691 55.0404 86.4788 55.1401C86.3993 55.0466 86.1908 54.723 86.0514 53.7945C85.9443 53.0807 85.9422 52.4175 85.9422 52.4114C85.9422 51.979 85.5946 51.6284 85.1657 51.6284H82.1519C81.9376 51.6284 81.7329 51.7177 81.5862 51.8751C81.4394 52.0325 81.3637 52.2441 81.3769 52.4597C81.4107 53.0116 81.312 53.9878 80.9927 54.3304C80.9257 54.4022 80.8625 54.429 80.7594 54.429C80.6714 54.429 80.6226 54.4084 80.5663 54.3473C80.2607 54.0162 80.1776 53.0308 80.2176 52.4704C80.2339 52.2531 80.1597 52.0388 80.0127 51.879C79.8658 51.7192 79.6595 51.6284 79.4434 51.6284H69.1905C69.1853 51.6283 69.1802 51.6283 69.1751 51.6284H60.186C60.1822 51.6283 60.1784 51.6284 60.1746 51.6284H55.5402C54.463 51.6284 53.5529 50.9236 53.5529 50.0894C53.5529 49.2552 54.463 48.5504 55.5402 48.5504H89.4597C90.537 48.5504 91.4471 49.2552 91.4471 50.0894C91.4471 50.9236 90.537 51.6284 89.4597 51.6284Z"/>
<path d="M37.6973 78.1465C36.4629 78.1465 35.4863 77.7578 34.7676 76.9805C34.0527 76.1992 33.6953 75.1289 33.6953 73.7695C33.6953 72.4141 34.0547 71.3477 34.7734 70.5703C35.4922 69.7891 36.4668 69.3984 37.6973 69.3984C38.3691 69.3984 38.9785 69.5312 39.5254 69.7969C40.0762 70.0625 40.5176 70.4375 40.8496 70.9219C41.1816 71.4062 41.3691 71.959 41.4121 72.5801H39.6895C39.6074 72.0605 39.3828 71.6445 39.0156 71.332C38.6523 71.0195 38.2129 70.8633 37.6973 70.8633C37.0293 70.8633 36.4961 71.125 36.0977 71.6484C35.6992 72.1719 35.5 72.877 35.5 73.7637C35.5 74.666 35.6973 75.3789 36.0918 75.9023C36.4863 76.4219 37.0234 76.6816 37.7031 76.6816C38.2266 76.6816 38.666 76.5371 39.0215 76.248C39.377 75.959 39.6016 75.5645 39.6953 75.0645H41.418C41.3203 76.0059 40.9355 76.7559 40.2637 77.3145C39.5918 77.8691 38.7363 78.1465 37.6973 78.1465Z"/>
<path d="M42.4082 78V69.5449H44.0898V72.8379H44.125C44.293 72.4395 44.5449 72.1348 44.8809 71.9238C45.2207 71.709 45.627 71.6016 46.0996 71.6016C46.791 71.6016 47.3281 71.8125 47.7109 72.2344C48.0977 72.6523 48.291 73.2266 48.291 73.957V78H46.5801V74.3203C46.5801 73.9102 46.4785 73.5918 46.2754 73.3652C46.0762 73.1348 45.7852 73.0195 45.4023 73.0195C45.0039 73.0195 44.6895 73.1484 44.459 73.4062C44.2324 73.6602 44.1191 73.9961 44.1191 74.4141V78H42.4082Z"/>
<path d="M49.416 78V71.7188H51.127V78H49.416ZM50.9219 70.7695C50.7461 70.9414 50.5293 71.0273 50.2715 71.0273C50.0137 71.0273 49.7969 70.9414 49.6211 70.7695C49.4453 70.5977 49.3574 70.3887 49.3574 70.1426C49.3574 69.8926 49.4453 69.6836 49.6211 69.5156C49.7969 69.3438 50.0137 69.2578 50.2715 69.2578C50.5293 69.2578 50.7461 69.3438 50.9219 69.5156C51.0977 69.6836 51.1855 69.8926 51.1855 70.1426C51.1855 70.3887 51.0977 70.5977 50.9219 70.7695Z"/>
<path d="M52.3105 78V69.5449H54.0215V78H52.3105Z"/>
<path d="M57.5078 78.0996C56.7227 78.0996 56.0996 77.8086 55.6387 77.2266C55.1777 76.6445 54.9473 75.8516 54.9473 74.8477C54.9473 73.8516 55.1777 73.0645 55.6387 72.4863C56.1035 71.9082 56.7305 71.6191 57.5195 71.6191C57.9648 71.6191 58.3555 71.7266 58.6914 71.9414C59.0312 72.1562 59.2793 72.4414 59.4355 72.7969H59.4707V69.5449H61.1816V78H59.4941V76.9219H59.4648C59.3086 77.2773 59.0566 77.5625 58.709 77.7773C58.3613 77.9922 57.9609 78.0996 57.5078 78.0996ZM58.0879 72.9902C57.6582 72.9902 57.3184 73.1582 57.0684 73.4941C56.8223 73.8301 56.6992 74.2852 56.6992 74.8594C56.6992 75.4375 56.8223 75.8926 57.0684 76.2246C57.3184 76.5566 57.6582 76.7227 58.0879 76.7227C58.5137 76.7227 58.8516 76.5566 59.1016 76.2246C59.3555 75.8887 59.4824 75.4336 59.4824 74.8594C59.4824 74.2891 59.3555 73.8359 59.1016 73.5C58.8516 73.1602 58.5137 72.9902 58.0879 72.9902Z"/>
<path d="M62.3242 78V71.7188H63.9766V72.8496H64.0117C64.1211 72.4512 64.3047 72.1465 64.5625 71.9355C64.8203 71.7246 65.1348 71.6191 65.5059 71.6191C65.6855 71.6191 65.8477 71.6406 65.9922 71.6836V73.1895C65.832 73.123 65.625 73.0898 65.3711 73.0898C64.9492 73.0898 64.6211 73.2129 64.3867 73.459C64.1523 73.7051 64.0352 74.0488 64.0352 74.4902V78H62.3242Z"/>
<path d="M69.3027 72.8496C68.9316 72.8496 68.6211 72.9766 68.3711 73.2305C68.125 73.4844 67.9863 73.8086 67.9551 74.2031H70.6211C70.6016 73.8008 70.4707 73.4746 70.2285 73.2246C69.9902 72.9746 69.6816 72.8496 69.3027 72.8496ZM70.6445 76.0781H72.2148C72.1211 76.6953 71.8125 77.1934 71.2891 77.5723C70.7695 77.9473 70.123 78.1348 69.3496 78.1348C68.3848 78.1348 67.627 77.8457 67.0762 77.2676C66.5293 76.6895 66.2559 75.8965 66.2559 74.8887C66.2559 73.8848 66.5293 73.084 67.0762 72.4863C67.623 71.8848 68.3594 71.584 69.2852 71.584C70.1953 71.584 70.9199 71.8691 71.459 72.4395C71.998 73.0098 72.2676 73.7734 72.2676 74.7305V75.252H67.9375V75.3574C67.9375 75.8066 68.0684 76.1719 68.3301 76.4531C68.5957 76.7305 68.9453 76.8691 69.3789 76.8691C69.6914 76.8691 69.9609 76.7988 70.1875 76.6582C70.4141 76.5137 70.5664 76.3203 70.6445 76.0781Z"/>
<path d="M73.1523 78V71.7188H74.8047V72.8379H74.8398C75.0117 72.4395 75.2617 72.1348 75.5898 71.9238C75.9219 71.709 76.3262 71.6016 76.8027 71.6016C77.498 71.6016 78.0352 71.8086 78.4141 72.2227C78.793 72.6367 78.9824 73.2129 78.9824 73.9512V78H77.2715V74.3086C77.2715 73.8945 77.1738 73.5762 76.9785 73.3535C76.7832 73.1309 76.4961 73.0195 76.1172 73.0195C75.7383 73.0195 75.4336 73.1465 75.2031 73.4004C74.9766 73.6543 74.8633 73.9863 74.8633 74.3965V78H73.1523Z"/>
<path d="M82.4453 78V71.7188H84.0977V72.8555H84.1328C84.2656 72.4727 84.4922 72.168 84.8125 71.9414C85.1328 71.7148 85.5039 71.6016 85.9258 71.6016C86.3789 71.6016 86.7578 71.7148 87.0625 71.9414C87.3672 72.1641 87.5723 72.4805 87.6777 72.8906H87.7129C87.8535 72.4961 88.0977 72.1836 88.4453 71.9531C88.7969 71.7188 89.2031 71.6016 89.6641 71.6016C90.2812 71.6016 90.7773 71.7949 91.1523 72.1816C91.5312 72.5684 91.7207 73.0781 91.7207 73.7109V78H90.0098V74.1387C90.0098 73.7754 89.9219 73.498 89.7461 73.3066C89.5703 73.1113 89.3164 73.0137 88.9844 73.0137C88.6602 73.0137 88.3984 73.1211 88.1992 73.3359C88.0039 73.5508 87.9062 73.834 87.9062 74.1855V78H86.2598V74.0859C86.2598 73.75 86.1699 73.4883 85.9902 73.3008C85.8105 73.1094 85.5625 73.0137 85.2461 73.0137C84.9219 73.0137 84.6582 73.125 84.4551 73.3477C84.2559 73.5703 84.1562 73.8574 84.1562 74.209V78H82.4453Z"/>
<path d="M95.623 72.8496C95.252 72.8496 94.9414 72.9766 94.6914 73.2305C94.4453 73.4844 94.3066 73.8086 94.2754 74.2031H96.9414C96.9219 73.8008 96.791 73.4746 96.5488 73.2246C96.3105 72.9746 96.002 72.8496 95.623 72.8496ZM96.9648 76.0781H98.5352C98.4414 76.6953 98.1328 77.1934 97.6094 77.5723C97.0898 77.9473 96.4434 78.1348 95.6699 78.1348C94.7051 78.1348 93.9473 77.8457 93.3965 77.2676C92.8496 76.6895 92.5762 75.8965 92.5762 74.8887C92.5762 73.8848 92.8496 73.084 93.3965 72.4863C93.9434 71.8848 94.6797 71.584 95.6055 71.584C96.5156 71.584 97.2402 71.8691 97.7793 72.4395C98.3184 73.0098 98.5879 73.7734 98.5879 74.7305V75.252H94.2578V75.3574C94.2578 75.8066 94.3887 76.1719 94.6504 76.4531C94.916 76.7305 95.2656 76.8691 95.6992 76.8691C96.0117 76.8691 96.2812 76.7988 96.5078 76.6582C96.7344 76.5137 96.8867 76.3203 96.9648 76.0781Z"/>
<path d="M99.4727 78V71.7188H101.125V72.8379H101.16C101.332 72.4395 101.582 72.1348 101.91 71.9238C102.242 71.709 102.646 71.6016 103.123 71.6016C103.818 71.6016 104.355 71.8086 104.734 72.2227C105.113 72.6367 105.303 73.2129 105.303 73.9512V78H103.592V74.3086C103.592 73.8945 103.494 73.5762 103.299 73.3535C103.104 73.1309 102.816 73.0195 102.438 73.0195C102.059 73.0195 101.754 73.1465 101.523 73.4004C101.297 73.6543 101.184 73.9863 101.184 74.3965V78H99.4727Z"/>
<path d="M112.188 71.7188V78H110.535V76.8691H110.5C110.172 77.7012 109.545 78.1172 108.619 78.1172C107.932 78.1172 107.383 77.9082 106.973 77.4902C106.562 77.0684 106.357 76.4941 106.357 75.7676V71.7188H108.068V75.4102C108.068 75.8281 108.168 76.1465 108.367 76.3652C108.57 76.584 108.861 76.6934 109.24 76.6934C109.619 76.6934 109.92 76.5684 110.143 76.3184C110.365 76.0684 110.477 75.7344 110.477 75.3164V71.7188H112.188Z"/>
</mask>
<path d="M11 36C11 22.1929 22.1929 11 36 11H110C123.807 11 135 22.1929 135 36V73C135 86.8071 123.807 98 110 98H36C22.1929 98 11 86.8071 11 73V36Z" fill="#2E3235"/>
<path d="M64.1801 34.4275C63.6038 33.8505 62.8928 33.6267 62.5921 33.9278C62.2914 34.2289 62.5148 34.9407 63.0911 35.5178C63.6675 36.0948 64.3785 36.3186 64.6792 36.0175C64.9799 35.7164 64.7565 35.0046 64.1801 34.4275Z" fill="#F83103"/>
<path d="M65.9204 31.2296C65.3121 31.8386 65.0763 32.5897 65.3937 32.9075C65.711 33.2252 66.4613 32.9891 67.0695 32.3802C67.6778 31.7712 67.9136 31.0201 67.5962 30.7023C67.2788 30.3846 66.5285 30.6207 65.9204 31.2296Z" fill="#F83103"/>
<path d="M73.263 31.0187C72.9623 30.7177 72.2513 30.9414 71.6749 31.5184C71.0985 32.0954 70.8751 32.8073 71.1758 33.1084C71.4765 33.4094 72.1875 33.1857 72.7639 32.6087C73.3402 32.0317 73.5637 31.3198 73.263 31.0187Z" fill="#F83103"/>
<path d="M78.5268 31.0192C78.2261 30.7181 77.5151 30.9418 76.9388 31.5188C76.3624 32.0959 76.139 32.8077 76.4397 33.1088C76.7404 33.4099 77.4514 33.1862 78.0278 32.6092C78.6041 32.0321 78.8276 31.3203 78.5268 31.0192Z" fill="#F83103"/>
<path d="M75.1182 34.4275C74.5419 33.8504 73.8308 33.6267 73.5301 33.9278C73.2294 34.2289 73.4528 34.9407 74.0291 35.5178C74.6055 36.0949 75.3165 36.3186 75.6172 36.0175C75.918 35.7164 75.6946 35.0045 75.1182 34.4275Z" fill="#F83103"/>
<path d="M81.9091 34.6185C81.3327 34.0414 80.6217 33.8177 80.321 34.1188C80.0202 34.4199 80.2437 35.1317 80.82 35.7088C81.3964 36.2858 82.1074 36.5096 82.4081 36.2085C82.7088 35.9074 82.4854 35.1955 81.9091 34.6185Z" fill="#F83103"/>
<path d="M69.5106 34.4275C68.9342 33.8505 68.2232 33.6267 67.9225 33.9278C67.6218 34.2289 67.8453 34.9407 68.4216 35.5178C68.9979 36.0948 69.709 36.3186 70.0097 36.0175C70.3104 35.7164 70.0869 35.0046 69.5106 34.4275Z" fill="#F83103"/>
<path d="M90.2914 47.0711V45.336C91.8436 45.007 93 43.7787 93 42.3178C93 40.8499 91.8327 39.6168 90.2695 39.2948C90.1662 37.6259 89.6929 36.0079 88.8584 34.4758C87.9495 32.8072 86.6531 31.3123 85.0051 30.0325C83.3721 28.7644 81.474 27.77 79.3634 27.0768C77.188 26.3623 74.8788 26 72.5 26C70.1212 26 67.812 26.3623 65.6365 27.0768C63.526 27.77 61.6279 28.7644 59.9949 30.0325C58.3469 31.3123 57.0505 32.8072 56.1416 34.4758C55.3071 36.0079 54.8337 37.6259 54.7303 39.2948C53.1672 39.6169 52 40.85 52 42.3178C52 43.796 53.1839 45.0361 54.7638 45.3474V47.0598C53.1839 47.371 52 48.6112 52 50.0894C52 51.5677 53.1839 52.8078 54.7638 53.119V55.8142C54.7638 56.4214 54.9366 57.0062 55.2774 57.5524C55.5878 58.0499 56.024 58.492 56.5738 58.8664C57.6475 59.5974 59.0553 60 60.5379 60H84.5173C85.9999 60 87.4077 59.5974 88.4814 58.8664C89.0312 58.492 89.4674 58.0499 89.7778 57.5524C90.1186 57.0062 90.2914 56.4214 90.2914 55.8142V53.1077C91.8436 52.7787 93 51.5504 93 50.0894C93 48.6285 91.8436 47.4001 90.2914 47.0711ZM56.3167 45.4228H88.7385V46.9843H56.3167V45.4228ZM72.5 27.5661C81.1102 27.5661 88.1767 32.7225 88.7066 39.2127H56.2934C56.8233 32.7225 63.8898 27.5661 72.5 27.5661ZM53.5529 42.3178C53.5529 41.4836 54.463 40.7788 55.5402 40.7788H89.4597C90.537 40.7788 91.4471 41.4836 91.4471 42.3178C91.4471 43.152 90.537 43.8567 89.4597 43.8567H55.5402C54.463 43.8567 53.5529 43.152 53.5529 42.3178ZM87.6124 57.5684C86.8046 58.1184 85.6764 58.4339 84.5173 58.4339H60.5379C59.3788 58.4339 58.2506 58.1184 57.4428 57.5684C56.7166 57.074 56.3167 56.451 56.3167 55.8142V53.1945H59.6861L60.9636 55.9129C61.0959 56.1943 61.3741 56.3607 61.6656 56.3607C61.7655 56.3607 61.8669 56.3412 61.9646 56.3L69.3367 53.1945H78.6711C78.6761 53.2755 78.6828 53.3598 78.6915 53.4464C78.7793 54.315 79.0267 54.9762 79.427 55.4116C79.778 55.7933 80.2388 55.9951 80.7594 55.9951C81.2912 55.9951 81.7632 55.7904 82.1242 55.4031C82.6789 54.8079 82.8598 53.874 82.9138 53.1945H84.4235C84.4482 53.5222 84.4909 53.9196 84.5644 54.3198C84.6739 54.9159 84.8319 55.4044 85.0342 55.7715C85.4918 56.6021 86.1257 56.7261 86.4629 56.7261C86.9 56.7261 87.2949 56.55 87.6049 56.2169C88.0503 55.7382 88.3109 54.9482 88.4016 53.8017C88.4186 53.5865 88.4276 53.3803 88.4318 53.1945H88.7385V55.8142C88.7385 56.451 88.3386 57.074 87.6124 57.5684ZM61.4046 53.1945H65.3078L62.0496 54.567L61.4046 53.1945ZM89.4597 51.6284H87.6455C87.431 51.6284 87.2261 51.7178 87.0793 51.8755C86.9325 52.0333 86.857 52.2452 86.8706 52.461C86.871 52.4675 86.9103 53.1126 86.8407 53.8223C86.757 54.677 86.5691 55.0404 86.4788 55.1401C86.3993 55.0466 86.1908 54.723 86.0514 53.7945C85.9443 53.0807 85.9422 52.4175 85.9422 52.4114C85.9422 51.979 85.5946 51.6284 85.1657 51.6284H82.1519C81.9376 51.6284 81.7329 51.7177 81.5862 51.8751C81.4394 52.0325 81.3637 52.2441 81.3769 52.4597C81.4107 53.0116 81.312 53.9878 80.9927 54.3304C80.9257 54.4022 80.8625 54.429 80.7594 54.429C80.6714 54.429 80.6226 54.4084 80.5663 54.3473C80.2607 54.0162 80.1776 53.0308 80.2176 52.4704C80.2339 52.2531 80.1597 52.0388 80.0127 51.879C79.8658 51.7192 79.6595 51.6284 79.4434 51.6284H69.1905C69.1853 51.6283 69.1802 51.6283 69.1751 51.6284H60.186C60.1822 51.6283 60.1784 51.6284 60.1746 51.6284H55.5402C54.463 51.6284 53.5529 50.9236 53.5529 50.0894C53.5529 49.2552 54.463 48.5504 55.5402 48.5504H89.4597C90.537 48.5504 91.4471 49.2552 91.4471 50.0894C91.4471 50.9236 90.537 51.6284 89.4597 51.6284Z" fill="#F83103"/>
<path d="M37.6973 78.1465C36.4629 78.1465 35.4863 77.7578 34.7676 76.9805C34.0527 76.1992 33.6953 75.1289 33.6953 73.7695C33.6953 72.4141 34.0547 71.3477 34.7734 70.5703C35.4922 69.7891 36.4668 69.3984 37.6973 69.3984C38.3691 69.3984 38.9785 69.5312 39.5254 69.7969C40.0762 70.0625 40.5176 70.4375 40.8496 70.9219C41.1816 71.4062 41.3691 71.959 41.4121 72.5801H39.6895C39.6074 72.0605 39.3828 71.6445 39.0156 71.332C38.6523 71.0195 38.2129 70.8633 37.6973 70.8633C37.0293 70.8633 36.4961 71.125 36.0977 71.6484C35.6992 72.1719 35.5 72.877 35.5 73.7637C35.5 74.666 35.6973 75.3789 36.0918 75.9023C36.4863 76.4219 37.0234 76.6816 37.7031 76.6816C38.2266 76.6816 38.666 76.5371 39.0215 76.248C39.377 75.959 39.6016 75.5645 39.6953 75.0645H41.418C41.3203 76.0059 40.9355 76.7559 40.2637 77.3145C39.5918 77.8691 38.7363 78.1465 37.6973 78.1465Z" fill="#F83103"/>
<path d="M42.4082 78V69.5449H44.0898V72.8379H44.125C44.293 72.4395 44.5449 72.1348 44.8809 71.9238C45.2207 71.709 45.627 71.6016 46.0996 71.6016C46.791 71.6016 47.3281 71.8125 47.7109 72.2344C48.0977 72.6523 48.291 73.2266 48.291 73.957V78H46.5801V74.3203C46.5801 73.9102 46.4785 73.5918 46.2754 73.3652C46.0762 73.1348 45.7852 73.0195 45.4023 73.0195C45.0039 73.0195 44.6895 73.1484 44.459 73.4062C44.2324 73.6602 44.1191 73.9961 44.1191 74.4141V78H42.4082Z" fill="#F83103"/>
<path d="M49.416 78V71.7188H51.127V78H49.416ZM50.9219 70.7695C50.7461 70.9414 50.5293 71.0273 50.2715 71.0273C50.0137 71.0273 49.7969 70.9414 49.6211 70.7695C49.4453 70.5977 49.3574 70.3887 49.3574 70.1426C49.3574 69.8926 49.4453 69.6836 49.6211 69.5156C49.7969 69.3438 50.0137 69.2578 50.2715 69.2578C50.5293 69.2578 50.7461 69.3438 50.9219 69.5156C51.0977 69.6836 51.1855 69.8926 51.1855 70.1426C51.1855 70.3887 51.0977 70.5977 50.9219 70.7695Z" fill="#F83103"/>
<path d="M52.3105 78V69.5449H54.0215V78H52.3105Z" fill="#F83103"/>
<path d="M57.5078 78.0996C56.7227 78.0996 56.0996 77.8086 55.6387 77.2266C55.1777 76.6445 54.9473 75.8516 54.9473 74.8477C54.9473 73.8516 55.1777 73.0645 55.6387 72.4863C56.1035 71.9082 56.7305 71.6191 57.5195 71.6191C57.9648 71.6191 58.3555 71.7266 58.6914 71.9414C59.0312 72.1562 59.2793 72.4414 59.4355 72.7969H59.4707V69.5449H61.1816V78H59.4941V76.9219H59.4648C59.3086 77.2773 59.0566 77.5625 58.709 77.7773C58.3613 77.9922 57.9609 78.0996 57.5078 78.0996ZM58.0879 72.9902C57.6582 72.9902 57.3184 73.1582 57.0684 73.4941C56.8223 73.8301 56.6992 74.2852 56.6992 74.8594C56.6992 75.4375 56.8223 75.8926 57.0684 76.2246C57.3184 76.5566 57.6582 76.7227 58.0879 76.7227C58.5137 76.7227 58.8516 76.5566 59.1016 76.2246C59.3555 75.8887 59.4824 75.4336 59.4824 74.8594C59.4824 74.2891 59.3555 73.8359 59.1016 73.5C58.8516 73.1602 58.5137 72.9902 58.0879 72.9902Z" fill="#F83103"/>
<path d="M62.3242 78V71.7188H63.9766V72.8496H64.0117C64.1211 72.4512 64.3047 72.1465 64.5625 71.9355C64.8203 71.7246 65.1348 71.6191 65.5059 71.6191C65.6855 71.6191 65.8477 71.6406 65.9922 71.6836V73.1895C65.832 73.123 65.625 73.0898 65.3711 73.0898C64.9492 73.0898 64.6211 73.2129 64.3867 73.459C64.1523 73.7051 64.0352 74.0488 64.0352 74.4902V78H62.3242Z" fill="#F83103"/>
<path d="M69.3027 72.8496C68.9316 72.8496 68.6211 72.9766 68.3711 73.2305C68.125 73.4844 67.9863 73.8086 67.9551 74.2031H70.6211C70.6016 73.8008 70.4707 73.4746 70.2285 73.2246C69.9902 72.9746 69.6816 72.8496 69.3027 72.8496ZM70.6445 76.0781H72.2148C72.1211 76.6953 71.8125 77.1934 71.2891 77.5723C70.7695 77.9473 70.123 78.1348 69.3496 78.1348C68.3848 78.1348 67.627 77.8457 67.0762 77.2676C66.5293 76.6895 66.2559 75.8965 66.2559 74.8887C66.2559 73.8848 66.5293 73.084 67.0762 72.4863C67.623 71.8848 68.3594 71.584 69.2852 71.584C70.1953 71.584 70.9199 71.8691 71.459 72.4395C71.998 73.0098 72.2676 73.7734 72.2676 74.7305V75.252H67.9375V75.3574C67.9375 75.8066 68.0684 76.1719 68.3301 76.4531C68.5957 76.7305 68.9453 76.8691 69.3789 76.8691C69.6914 76.8691 69.9609 76.7988 70.1875 76.6582C70.4141 76.5137 70.5664 76.3203 70.6445 76.0781Z" fill="#F83103"/>
<path d="M73.1523 78V71.7188H74.8047V72.8379H74.8398C75.0117 72.4395 75.2617 72.1348 75.5898 71.9238C75.9219 71.709 76.3262 71.6016 76.8027 71.6016C77.498 71.6016 78.0352 71.8086 78.4141 72.2227C78.793 72.6367 78.9824 73.2129 78.9824 73.9512V78H77.2715V74.3086C77.2715 73.8945 77.1738 73.5762 76.9785 73.3535C76.7832 73.1309 76.4961 73.0195 76.1172 73.0195C75.7383 73.0195 75.4336 73.1465 75.2031 73.4004C74.9766 73.6543 74.8633 73.9863 74.8633 74.3965V78H73.1523Z" fill="#F83103"/>
<path d="M82.4453 78V71.7188H84.0977V72.8555H84.1328C84.2656 72.4727 84.4922 72.168 84.8125 71.9414C85.1328 71.7148 85.5039 71.6016 85.9258 71.6016C86.3789 71.6016 86.7578 71.7148 87.0625 71.9414C87.3672 72.1641 87.5723 72.4805 87.6777 72.8906H87.7129C87.8535 72.4961 88.0977 72.1836 88.4453 71.9531C88.7969 71.7188 89.2031 71.6016 89.6641 71.6016C90.2812 71.6016 90.7773 71.7949 91.1523 72.1816C91.5312 72.5684 91.7207 73.0781 91.7207 73.7109V78H90.0098V74.1387C90.0098 73.7754 89.9219 73.498 89.7461 73.3066C89.5703 73.1113 89.3164 73.0137 88.9844 73.0137C88.6602 73.0137 88.3984 73.1211 88.1992 73.3359C88.0039 73.5508 87.9062 73.834 87.9062 74.1855V78H86.2598V74.0859C86.2598 73.75 86.1699 73.4883 85.9902 73.3008C85.8105 73.1094 85.5625 73.0137 85.2461 73.0137C84.9219 73.0137 84.6582 73.125 84.4551 73.3477C84.2559 73.5703 84.1562 73.8574 84.1562 74.209V78H82.4453Z" fill="#F83103"/>
<path d="M95.623 72.8496C95.252 72.8496 94.9414 72.9766 94.6914 73.2305C94.4453 73.4844 94.3066 73.8086 94.2754 74.2031H96.9414C96.9219 73.8008 96.791 73.4746 96.5488 73.2246C96.3105 72.9746 96.002 72.8496 95.623 72.8496ZM96.9648 76.0781H98.5352C98.4414 76.6953 98.1328 77.1934 97.6094 77.5723C97.0898 77.9473 96.4434 78.1348 95.6699 78.1348C94.7051 78.1348 93.9473 77.8457 93.3965 77.2676C92.8496 76.6895 92.5762 75.8965 92.5762 74.8887C92.5762 73.8848 92.8496 73.084 93.3965 72.4863C93.9434 71.8848 94.6797 71.584 95.6055 71.584C96.5156 71.584 97.2402 71.8691 97.7793 72.4395C98.3184 73.0098 98.5879 73.7734 98.5879 74.7305V75.252H94.2578V75.3574C94.2578 75.8066 94.3887 76.1719 94.6504 76.4531C94.916 76.7305 95.2656 76.8691 95.6992 76.8691C96.0117 76.8691 96.2812 76.7988 96.5078 76.6582C96.7344 76.5137 96.8867 76.3203 96.9648 76.0781Z" fill="#F83103"/>
<path d="M99.4727 78V71.7188H101.125V72.8379H101.16C101.332 72.4395 101.582 72.1348 101.91 71.9238C102.242 71.709 102.646 71.6016 103.123 71.6016C103.818 71.6016 104.355 71.8086 104.734 72.2227C105.113 72.6367 105.303 73.2129 105.303 73.9512V78H103.592V74.3086C103.592 73.8945 103.494 73.5762 103.299 73.3535C103.104 73.1309 102.816 73.0195 102.438 73.0195C102.059 73.0195 101.754 73.1465 101.523 73.4004C101.297 73.6543 101.184 73.9863 101.184 74.3965V78H99.4727Z" fill="#F83103"/>
<path d="M112.188 71.7188V78H110.535V76.8691H110.5C110.172 77.7012 109.545 78.1172 108.619 78.1172C107.932 78.1172 107.383 77.9082 106.973 77.4902C106.562 77.0684 106.357 76.4941 106.357 75.7676V71.7188H108.068V75.4102C108.068 75.8281 108.168 76.1465 108.367 76.3652C108.57 76.584 108.861 76.6934 109.24 76.6934C109.619 76.6934 109.92 76.5684 110.143 76.3184C110.365 76.0684 110.477 75.7344 110.477 75.3164V71.7188H112.188Z" fill="#F83103"/>
<path d="M11 36C11 22.1929 22.1929 11 36 11H110C123.807 11 135 22.1929 135 36V73C135 86.8071 123.807 98 110 98H36C22.1929 98 11 86.8071 11 73V36Z" stroke="#F83103" stroke-width="2" mask="url(#path-1-outside-1_356_199)"/>
<path d="M64.1801 34.4275C63.6038 33.8505 62.8928 33.6267 62.5921 33.9278C62.2914 34.2289 62.5148 34.9407 63.0911 35.5178C63.6675 36.0948 64.3785 36.3186 64.6792 36.0175C64.9799 35.7164 64.7565 35.0046 64.1801 34.4275Z" stroke="#F83103" stroke-width="2" mask="url(#path-1-outside-1_356_199)"/>
<path d="M65.9204 31.2296C65.3121 31.8386 65.0763 32.5897 65.3937 32.9075C65.711 33.2252 66.4613 32.9891 67.0695 32.3802C67.6778 31.7712 67.9136 31.0201 67.5962 30.7023C67.2788 30.3846 66.5285 30.6207 65.9204 31.2296Z" stroke="#F83103" stroke-width="2" mask="url(#path-1-outside-1_356_199)"/>
<path d="M73.263 31.0187C72.9623 30.7177 72.2513 30.9414 71.6749 31.5184C71.0985 32.0954 70.8751 32.8073 71.1758 33.1084C71.4765 33.4094 72.1875 33.1857 72.7639 32.6087C73.3402 32.0317 73.5637 31.3198 73.263 31.0187Z" stroke="#F83103" stroke-width="2" mask="url(#path-1-outside-1_356_199)"/>
<path d="M78.5268 31.0192C78.2261 30.7181 77.5151 30.9418 76.9388 31.5188C76.3624 32.0959 76.139 32.8077 76.4397 33.1088C76.7404 33.4099 77.4514 33.1862 78.0278 32.6092C78.6041 32.0321 78.8276 31.3203 78.5268 31.0192Z" stroke="#F83103" stroke-width="2" mask="url(#path-1-outside-1_356_199)"/>
<path d="M75.1182 34.4275C74.5419 33.8504 73.8308 33.6267 73.5301 33.9278C73.2294 34.2289 73.4528 34.9407 74.0291 35.5178C74.6055 36.0949 75.3165 36.3186 75.6172 36.0175C75.918 35.7164 75.6946 35.0045 75.1182 34.4275Z" stroke="#F83103" stroke-width="2" mask="url(#path-1-outside-1_356_199)"/>
<path d="M81.9091 34.6185C81.3327 34.0414 80.6217 33.8177 80.321 34.1188C80.0202 34.4199 80.2437 35.1317 80.82 35.7088C81.3964 36.2858 82.1074 36.5096 82.4081 36.2085C82.7088 35.9074 82.4854 35.1955 81.9091 34.6185Z" stroke="#F83103" stroke-width="2" mask="url(#path-1-outside-1_356_199)"/>
<path d="M69.5106 34.4275C68.9342 33.8505 68.2232 33.6267 67.9225 33.9278C67.6218 34.2289 67.8453 34.9407 68.4216 35.5178C68.9979 36.0948 69.709 36.3186 70.0097 36.0175C70.3104 35.7164 70.0869 35.0046 69.5106 34.4275Z" stroke="#F83103" stroke-width="2" mask="url(#path-1-outside-1_356_199)"/>
<path d="M90.2914 47.0711V45.336C91.8436 45.007 93 43.7787 93 42.3178C93 40.8499 91.8327 39.6168 90.2695 39.2948C90.1662 37.6259 89.6929 36.0079 88.8584 34.4758C87.9495 32.8072 86.6531 31.3123 85.0051 30.0325C83.3721 28.7644 81.474 27.77 79.3634 27.0768C77.188 26.3623 74.8788 26 72.5 26C70.1212 26 67.812 26.3623 65.6365 27.0768C63.526 27.77 61.6279 28.7644 59.9949 30.0325C58.3469 31.3123 57.0505 32.8072 56.1416 34.4758C55.3071 36.0079 54.8337 37.6259 54.7303 39.2948C53.1672 39.6169 52 40.85 52 42.3178C52 43.796 53.1839 45.0361 54.7638 45.3474V47.0598C53.1839 47.371 52 48.6112 52 50.0894C52 51.5677 53.1839 52.8078 54.7638 53.119V55.8142C54.7638 56.4214 54.9366 57.0062 55.2774 57.5524C55.5878 58.0499 56.024 58.492 56.5738 58.8664C57.6475 59.5974 59.0553 60 60.5379 60H84.5173C85.9999 60 87.4077 59.5974 88.4814 58.8664C89.0312 58.492 89.4674 58.0499 89.7778 57.5524C90.1186 57.0062 90.2914 56.4214 90.2914 55.8142V53.1077C91.8436 52.7787 93 51.5504 93 50.0894C93 48.6285 91.8436 47.4001 90.2914 47.0711ZM56.3167 45.4228H88.7385V46.9843H56.3167V45.4228ZM72.5 27.5661C81.1102 27.5661 88.1767 32.7225 88.7066 39.2127H56.2934C56.8233 32.7225 63.8898 27.5661 72.5 27.5661ZM53.5529 42.3178C53.5529 41.4836 54.463 40.7788 55.5402 40.7788H89.4597C90.537 40.7788 91.4471 41.4836 91.4471 42.3178C91.4471 43.152 90.537 43.8567 89.4597 43.8567H55.5402C54.463 43.8567 53.5529 43.152 53.5529 42.3178ZM87.6124 57.5684C86.8046 58.1184 85.6764 58.4339 84.5173 58.4339H60.5379C59.3788 58.4339 58.2506 58.1184 57.4428 57.5684C56.7166 57.074 56.3167 56.451 56.3167 55.8142V53.1945H59.6861L60.9636 55.9129C61.0959 56.1943 61.3741 56.3607 61.6656 56.3607C61.7655 56.3607 61.8669 56.3412 61.9646 56.3L69.3367 53.1945H78.6711C78.6761 53.2755 78.6828 53.3598 78.6915 53.4464C78.7793 54.315 79.0267 54.9762 79.427 55.4116C79.778 55.7933 80.2388 55.9951 80.7594 55.9951C81.2912 55.9951 81.7632 55.7904 82.1242 55.4031C82.6789 54.8079 82.8598 53.874 82.9138 53.1945H84.4235C84.4482 53.5222 84.4909 53.9196 84.5644 54.3198C84.6739 54.9159 84.8319 55.4044 85.0342 55.7715C85.4918 56.6021 86.1257 56.7261 86.4629 56.7261C86.9 56.7261 87.2949 56.55 87.6049 56.2169C88.0503 55.7382 88.3109 54.9482 88.4016 53.8017C88.4186 53.5865 88.4276 53.3803 88.4318 53.1945H88.7385V55.8142C88.7385 56.451 88.3386 57.074 87.6124 57.5684ZM61.4046 53.1945H65.3078L62.0496 54.567L61.4046 53.1945ZM89.4597 51.6284H87.6455C87.431 51.6284 87.2261 51.7178 87.0793 51.8755C86.9325 52.0333 86.857 52.2452 86.8706 52.461C86.871 52.4675 86.9103 53.1126 86.8407 53.8223C86.757 54.677 86.5691 55.0404 86.4788 55.1401C86.3993 55.0466 86.1908 54.723 86.0514 53.7945C85.9443 53.0807 85.9422 52.4175 85.9422 52.4114C85.9422 51.979 85.5946 51.6284 85.1657 51.6284H82.1519C81.9376 51.6284 81.7329 51.7177 81.5862 51.8751C81.4394 52.0325 81.3637 52.2441 81.3769 52.4597C81.4107 53.0116 81.312 53.9878 80.9927 54.3304C80.9257 54.4022 80.8625 54.429 80.7594 54.429C80.6714 54.429 80.6226 54.4084 80.5663 54.3473C80.2607 54.0162 80.1776 53.0308 80.2176 52.4704C80.2339 52.2531 80.1597 52.0388 80.0127 51.879C79.8658 51.7192 79.6595 51.6284 79.4434 51.6284H69.1905C69.1853 51.6283 69.1802 51.6283 69.1751 51.6284H60.186C60.1822 51.6283 60.1784 51.6284 60.1746 51.6284H55.5402C54.463 51.6284 53.5529 50.9236 53.5529 50.0894C53.5529 49.2552 54.463 48.5504 55.5402 48.5504H89.4597C90.537 48.5504 91.4471 49.2552 91.4471 50.0894C91.4471 50.9236 90.537 51.6284 89.4597 51.6284Z" stroke="#F83103" stroke-width="2" mask="url(#path-1-outside-1_356_199)"/>
<path d="M37.6973 78.1465C36.4629 78.1465 35.4863 77.7578 34.7676 76.9805C34.0527 76.1992 33.6953 75.1289 33.6953 73.7695C33.6953 72.4141 34.0547 71.3477 34.7734 70.5703C35.4922 69.7891 36.4668 69.3984 37.6973 69.3984C38.3691 69.3984 38.9785 69.5312 39.5254 69.7969C40.0762 70.0625 40.5176 70.4375 40.8496 70.9219C41.1816 71.4062 41.3691 71.959 41.4121 72.5801H39.6895C39.6074 72.0605 39.3828 71.6445 39.0156 71.332C38.6523 71.0195 38.2129 70.8633 37.6973 70.8633C37.0293 70.8633 36.4961 71.125 36.0977 71.6484C35.6992 72.1719 35.5 72.877 35.5 73.7637C35.5 74.666 35.6973 75.3789 36.0918 75.9023C36.4863 76.4219 37.0234 76.6816 37.7031 76.6816C38.2266 76.6816 38.666 76.5371 39.0215 76.248C39.377 75.959 39.6016 75.5645 39.6953 75.0645H41.418C41.3203 76.0059 40.9355 76.7559 40.2637 77.3145C39.5918 77.8691 38.7363 78.1465 37.6973 78.1465Z" stroke="#F83103" stroke-width="2" mask="url(#path-1-outside-1_356_199)"/>
<path d="M42.4082 78V69.5449H44.0898V72.8379H44.125C44.293 72.4395 44.5449 72.1348 44.8809 71.9238C45.2207 71.709 45.627 71.6016 46.0996 71.6016C46.791 71.6016 47.3281 71.8125 47.7109 72.2344C48.0977 72.6523 48.291 73.2266 48.291 73.957V78H46.5801V74.3203C46.5801 73.9102 46.4785 73.5918 46.2754 73.3652C46.0762 73.1348 45.7852 73.0195 45.4023 73.0195C45.0039 73.0195 44.6895 73.1484 44.459 73.4062C44.2324 73.6602 44.1191 73.9961 44.1191 74.4141V78H42.4082Z" stroke="#F83103" stroke-width="2" mask="url(#path-1-outside-1_356_199)"/>
<path d="M49.416 78V71.7188H51.127V78H49.416ZM50.9219 70.7695C50.7461 70.9414 50.5293 71.0273 50.2715 71.0273C50.0137 71.0273 49.7969 70.9414 49.6211 70.7695C49.4453 70.5977 49.3574 70.3887 49.3574 70.1426C49.3574 69.8926 49.4453 69.6836 49.6211 69.5156C49.7969 69.3438 50.0137 69.2578 50.2715 69.2578C50.5293 69.2578 50.7461 69.3438 50.9219 69.5156C51.0977 69.6836 51.1855 69.8926 51.1855 70.1426C51.1855 70.3887 51.0977 70.5977 50.9219 70.7695Z" stroke="#F83103" stroke-width="2" mask="url(#path-1-outside-1_356_199)"/>
<path d="M52.3105 78V69.5449H54.0215V78H52.3105Z" stroke="#F83103" stroke-width="2" mask="url(#path-1-outside-1_356_199)"/>
<path d="M57.5078 78.0996C56.7227 78.0996 56.0996 77.8086 55.6387 77.2266C55.1777 76.6445 54.9473 75.8516 54.9473 74.8477C54.9473 73.8516 55.1777 73.0645 55.6387 72.4863C56.1035 71.9082 56.7305 71.6191 57.5195 71.6191C57.9648 71.6191 58.3555 71.7266 58.6914 71.9414C59.0312 72.1562 59.2793 72.4414 59.4355 72.7969H59.4707V69.5449H61.1816V78H59.4941V76.9219H59.4648C59.3086 77.2773 59.0566 77.5625 58.709 77.7773C58.3613 77.9922 57.9609 78.0996 57.5078 78.0996ZM58.0879 72.9902C57.6582 72.9902 57.3184 73.1582 57.0684 73.4941C56.8223 73.8301 56.6992 74.2852 56.6992 74.8594C56.6992 75.4375 56.8223 75.8926 57.0684 76.2246C57.3184 76.5566 57.6582 76.7227 58.0879 76.7227C58.5137 76.7227 58.8516 76.5566 59.1016 76.2246C59.3555 75.8887 59.4824 75.4336 59.4824 74.8594C59.4824 74.2891 59.3555 73.8359 59.1016 73.5C58.8516 73.1602 58.5137 72.9902 58.0879 72.9902Z" stroke="#F83103" stroke-width="2" mask="url(#path-1-outside-1_356_199)"/>
<path d="M62.3242 78V71.7188H63.9766V72.8496H64.0117C64.1211 72.4512 64.3047 72.1465 64.5625 71.9355C64.8203 71.7246 65.1348 71.6191 65.5059 71.6191C65.6855 71.6191 65.8477 71.6406 65.9922 71.6836V73.1895C65.832 73.123 65.625 73.0898 65.3711 73.0898C64.9492 73.0898 64.6211 73.2129 64.3867 73.459C64.1523 73.7051 64.0352 74.0488 64.0352 74.4902V78H62.3242Z" stroke="#F83103" stroke-width="2" mask="url(#path-1-outside-1_356_199)"/>
<path d="M69.3027 72.8496C68.9316 72.8496 68.6211 72.9766 68.3711 73.2305C68.125 73.4844 67.9863 73.8086 67.9551 74.2031H70.6211C70.6016 73.8008 70.4707 73.4746 70.2285 73.2246C69.9902 72.9746 69.6816 72.8496 69.3027 72.8496ZM70.6445 76.0781H72.2148C72.1211 76.6953 71.8125 77.1934 71.2891 77.5723C70.7695 77.9473 70.123 78.1348 69.3496 78.1348C68.3848 78.1348 67.627 77.8457 67.0762 77.2676C66.5293 76.6895 66.2559 75.8965 66.2559 74.8887C66.2559 73.8848 66.5293 73.084 67.0762 72.4863C67.623 71.8848 68.3594 71.584 69.2852 71.584C70.1953 71.584 70.9199 71.8691 71.459 72.4395C71.998 73.0098 72.2676 73.7734 72.2676 74.7305V75.252H67.9375V75.3574C67.9375 75.8066 68.0684 76.1719 68.3301 76.4531C68.5957 76.7305 68.9453 76.8691 69.3789 76.8691C69.6914 76.8691 69.9609 76.7988 70.1875 76.6582C70.4141 76.5137 70.5664 76.3203 70.6445 76.0781Z" stroke="#F83103" stroke-width="2" mask="url(#path-1-outside-1_356_199)"/>
<path d="M73.1523 78V71.7188H74.8047V72.8379H74.8398C75.0117 72.4395 75.2617 72.1348 75.5898 71.9238C75.9219 71.709 76.3262 71.6016 76.8027 71.6016C77.498 71.6016 78.0352 71.8086 78.4141 72.2227C78.793 72.6367 78.9824 73.2129 78.9824 73.9512V78H77.2715V74.3086C77.2715 73.8945 77.1738 73.5762 76.9785 73.3535C76.7832 73.1309 76.4961 73.0195 76.1172 73.0195C75.7383 73.0195 75.4336 73.1465 75.2031 73.4004C74.9766 73.6543 74.8633 73.9863 74.8633 74.3965V78H73.1523Z" stroke="#F83103" stroke-width="2" mask="url(#path-1-outside-1_356_199)"/>
<path d="M82.4453 78V71.7188H84.0977V72.8555H84.1328C84.2656 72.4727 84.4922 72.168 84.8125 71.9414C85.1328 71.7148 85.5039 71.6016 85.9258 71.6016C86.3789 71.6016 86.7578 71.7148 87.0625 71.9414C87.3672 72.1641 87.5723 72.4805 87.6777 72.8906H87.7129C87.8535 72.4961 88.0977 72.1836 88.4453 71.9531C88.7969 71.7188 89.2031 71.6016 89.6641 71.6016C90.2812 71.6016 90.7773 71.7949 91.1523 72.1816C91.5312 72.5684 91.7207 73.0781 91.7207 73.7109V78H90.0098V74.1387C90.0098 73.7754 89.9219 73.498 89.7461 73.3066C89.5703 73.1113 89.3164 73.0137 88.9844 73.0137C88.6602 73.0137 88.3984 73.1211 88.1992 73.3359C88.0039 73.5508 87.9062 73.834 87.9062 74.1855V78H86.2598V74.0859C86.2598 73.75 86.1699 73.4883 85.9902 73.3008C85.8105 73.1094 85.5625 73.0137 85.2461 73.0137C84.9219 73.0137 84.6582 73.125 84.4551 73.3477C84.2559 73.5703 84.1562 73.8574 84.1562 74.209V78H82.4453Z" stroke="#F83103" stroke-width="2" mask="url(#path-1-outside-1_356_199)"/>
<path d="M95.623 72.8496C95.252 72.8496 94.9414 72.9766 94.6914 73.2305C94.4453 73.4844 94.3066 73.8086 94.2754 74.2031H96.9414C96.9219 73.8008 96.791 73.4746 96.5488 73.2246C96.3105 72.9746 96.002 72.8496 95.623 72.8496ZM96.9648 76.0781H98.5352C98.4414 76.6953 98.1328 77.1934 97.6094 77.5723C97.0898 77.9473 96.4434 78.1348 95.6699 78.1348C94.7051 78.1348 93.9473 77.8457 93.3965 77.2676C92.8496 76.6895 92.5762 75.8965 92.5762 74.8887C92.5762 73.8848 92.8496 73.084 93.3965 72.4863C93.9434 71.8848 94.6797 71.584 95.6055 71.584C96.5156 71.584 97.2402 71.8691 97.7793 72.4395C98.3184 73.0098 98.5879 73.7734 98.5879 74.7305V75.252H94.2578V75.3574C94.2578 75.8066 94.3887 76.1719 94.6504 76.4531C94.916 76.7305 95.2656 76.8691 95.6992 76.8691C96.0117 76.8691 96.2812 76.7988 96.5078 76.6582C96.7344 76.5137 96.8867 76.3203 96.9648 76.0781Z" stroke="#F83103" stroke-width="2" mask="url(#path-1-outside-1_356_199)"/>
<path d="M99.4727 78V71.7188H101.125V72.8379H101.16C101.332 72.4395 101.582 72.1348 101.91 71.9238C102.242 71.709 102.646 71.6016 103.123 71.6016C103.818 71.6016 104.355 71.8086 104.734 72.2227C105.113 72.6367 105.303 73.2129 105.303 73.9512V78H103.592V74.3086C103.592 73.8945 103.494 73.5762 103.299 73.3535C103.104 73.1309 102.816 73.0195 102.438 73.0195C102.059 73.0195 101.754 73.1465 101.523 73.4004C101.297 73.6543 101.184 73.9863 101.184 74.3965V78H99.4727Z" stroke="#F83103" stroke-width="2" mask="url(#path-1-outside-1_356_199)"/>
<path d="M112.188 71.7188V78H110.535V76.8691H110.5C110.172 77.7012 109.545 78.1172 108.619 78.1172C107.932 78.1172 107.383 77.9082 106.973 77.4902C106.562 77.0684 106.357 76.4941 106.357 75.7676V71.7188H108.068V75.4102C108.068 75.8281 108.168 76.1465 108.367 76.3652C108.57 76.584 108.861 76.6934 109.24 76.6934C109.619 76.6934 109.92 76.5684 110.143 76.3184C110.365 76.0684 110.477 75.7344 110.477 75.3164V71.7188H112.188Z" stroke="#F83103" stroke-width="2" mask="url(#path-1-outside-1_356_199)"/>
</g>
<defs>
<filter id="filter0_d_356_199" x="0" y="0" width="146" height="109" filterUnits="userSpaceOnUse" color-interpolation-filters="sRGB">
<feFlood flood-opacity="0" result="BackgroundImageFix"/>
<feColorMatrix in="SourceAlpha" type="matrix" values="0 0 0 0 0 0 0 0 0 0 0 0 0 0 0 0 0 0 127 0" result="hardAlpha"/>
<feOffset/>
<feGaussianBlur stdDeviation="5"/>
<feComposite in2="hardAlpha" operator="out"/>
<feColorMatrix type="matrix" values="0 0 0 0 0.972549 0 0 0 0 0.192157 0 0 0 0 0.0117647 0 0 0 0.25 0"/>
<feBlend mode="normal" in2="BackgroundImageFix" result="effect1_dropShadow_356_199"/>
<feBlend mode="normal" in="SourceGraphic" in2="effect1_dropShadow_356_199" result="shape"/>
</filter>
</defs>
</svg>
