<svg width="124" height="87" viewBox="0 0 124 87" fill="none" xmlns="http://www.w3.org/2000/svg">
<path d="M0 25C0 11.1929 11.1929 0 25 0H99C112.807 0 124 11.1929 124 25V62C124 75.8071 112.807 87 99 87H25C11.1929 87 0 75.8071 0 62V25Z" fill="#2E3235"/>
<path d="M53.1801 23.4275C52.6038 22.8505 51.8928 22.6267 51.5921 22.9278C51.2914 23.2289 51.5148 23.9407 52.0911 24.5178C52.6675 25.0948 53.3785 25.3186 53.6792 25.0175C53.9799 24.7164 53.7565 24.0046 53.1801 23.4275Z" fill="white"/>
<path d="M54.9204 20.2296C54.3121 20.8386 54.0763 21.5897 54.3937 21.9075C54.711 22.2252 55.4613 21.9891 56.0695 21.3802C56.6778 20.7712 56.9136 20.0201 56.5962 19.7023C56.2788 19.3846 55.5285 19.6207 54.9204 20.2296Z" fill="white"/>
<path d="M62.263 20.0187C61.9623 19.7177 61.2513 19.9414 60.6749 20.5184C60.0985 21.0954 59.8751 21.8073 60.1758 22.1084C60.4765 22.4094 61.1875 22.1857 61.7639 21.6087C62.3402 21.0317 62.5637 20.3198 62.263 20.0187Z" fill="white"/>
<path d="M67.5268 20.0192C67.2261 19.7181 66.5151 19.9418 65.9388 20.5188C65.3624 21.0959 65.139 21.8077 65.4397 22.1088C65.7404 22.4099 66.4514 22.1862 67.0278 21.6092C67.6041 21.0321 67.8276 20.3203 67.5268 20.0192Z" fill="white"/>
<path d="M64.1182 23.4275C63.5419 22.8504 62.8308 22.6267 62.5301 22.9278C62.2294 23.2289 62.4528 23.9407 63.0291 24.5178C63.6055 25.0949 64.3165 25.3186 64.6172 25.0175C64.918 24.7164 64.6946 24.0045 64.1182 23.4275Z" fill="white"/>
<path d="M70.9091 23.6185C70.3327 23.0414 69.6217 22.8177 69.321 23.1188C69.0202 23.4199 69.2437 24.1317 69.82 24.7088C70.3964 25.2858 71.1074 25.5096 71.4081 25.2085C71.7088 24.9074 71.4854 24.1955 70.9091 23.6185Z" fill="white"/>
<path d="M58.5106 23.4275C57.9342 22.8505 57.2232 22.6267 56.9225 22.9278C56.6218 23.2289 56.8453 23.9407 57.4216 24.5178C57.9979 25.0948 58.709 25.3186 59.0097 25.0175C59.3104 24.7164 59.0869 24.0046 58.5106 23.4275Z" fill="white"/>
<path d="M79.2914 36.0711V34.336C80.8436 34.007 82 32.7787 82 31.3178C82 29.8499 80.8327 28.6168 79.2695 28.2948C79.1662 26.6259 78.6929 25.0079 77.8584 23.4758C76.9495 21.8072 75.6531 20.3123 74.0051 19.0325C72.3721 17.7644 70.474 16.77 68.3634 16.0768C66.188 15.3623 63.8788 15 61.5 15C59.1212 15 56.812 15.3623 54.6365 16.0768C52.526 16.77 50.6279 17.7644 48.9949 19.0325C47.3469 20.3123 46.0505 21.8072 45.1416 23.4758C44.3071 25.0079 43.8337 26.6259 43.7303 28.2948C42.1672 28.6169 41 29.85 41 31.3178C41 32.796 42.1839 34.0361 43.7638 34.3474V36.0598C42.1839 36.371 41 37.6112 41 39.0894C41 40.5677 42.1839 41.8078 43.7638 42.119V44.8142C43.7638 45.4214 43.9366 46.0062 44.2774 46.5524C44.5878 47.0499 45.024 47.492 45.5738 47.8664C46.6475 48.5974 48.0553 49 49.5379 49H73.5173C74.9999 49 76.4077 48.5974 77.4814 47.8664C78.0312 47.492 78.4674 47.0499 78.7778 46.5524C79.1186 46.0062 79.2914 45.4214 79.2914 44.8142V42.1077C80.8436 41.7787 82 40.5504 82 39.0894C82 37.6285 80.8436 36.4001 79.2914 36.0711ZM45.3167 34.4228H77.7385V35.9843H45.3167V34.4228ZM61.5 16.5661C70.1102 16.5661 77.1767 21.7225 77.7066 28.2127H45.2934C45.8233 21.7225 52.8898 16.5661 61.5 16.5661ZM42.5529 31.3178C42.5529 30.4836 43.463 29.7788 44.5402 29.7788H78.4597C79.537 29.7788 80.4471 30.4836 80.4471 31.3178C80.4471 32.152 79.537 32.8567 78.4597 32.8567H44.5402C43.463 32.8567 42.5529 32.152 42.5529 31.3178ZM76.6124 46.5684C75.8046 47.1184 74.6764 47.4339 73.5173 47.4339H49.5379C48.3788 47.4339 47.2506 47.1184 46.4428 46.5684C45.7166 46.074 45.3167 45.451 45.3167 44.8142V42.1945H48.6861L49.9636 44.9129C50.0959 45.1943 50.3741 45.3607 50.6656 45.3607C50.7655 45.3607 50.8669 45.3412 50.9646 45.3L58.3367 42.1945H67.6711C67.6761 42.2755 67.6828 42.3598 67.6915 42.4464C67.7793 43.315 68.0267 43.9762 68.427 44.4116C68.778 44.7933 69.2388 44.9951 69.7594 44.9951C70.2912 44.9951 70.7632 44.7904 71.1242 44.4031C71.6789 43.8079 71.8598 42.874 71.9138 42.1945H73.4235C73.4482 42.5222 73.4909 42.9196 73.5644 43.3198C73.6739 43.9159 73.8319 44.4044 74.0342 44.7715C74.4918 45.6021 75.1257 45.7261 75.4629 45.7261C75.9 45.7261 76.2949 45.55 76.6049 45.2169C77.0503 44.7382 77.3109 43.9482 77.4016 42.8017C77.4186 42.5865 77.4276 42.3803 77.4318 42.1945H77.7385V44.8142C77.7385 45.451 77.3386 46.074 76.6124 46.5684ZM50.4046 42.1945H54.3078L51.0496 43.567L50.4046 42.1945ZM78.4597 40.6284H76.6455C76.431 40.6284 76.2261 40.7178 76.0793 40.8755C75.9325 41.0333 75.857 41.2452 75.8706 41.461C75.871 41.4675 75.9103 42.1126 75.8407 42.8223C75.757 43.677 75.5691 44.0404 75.4788 44.1401C75.3993 44.0466 75.1908 43.723 75.0514 42.7945C74.9443 42.0807 74.9422 41.4175 74.9422 41.4114C74.9422 40.979 74.5946 40.6284 74.1657 40.6284H71.1519C70.9376 40.6284 70.7329 40.7177 70.5862 40.8751C70.4394 41.0325 70.3637 41.2441 70.3769 41.4597C70.4107 42.0116 70.312 42.9878 69.9927 43.3304C69.9257 43.4022 69.8625 43.429 69.7594 43.429C69.6714 43.429 69.6226 43.4084 69.5663 43.3473C69.2607 43.0162 69.1776 42.0308 69.2176 41.4704C69.2339 41.2531 69.1597 41.0388 69.0127 40.879C68.8658 40.7192 68.6595 40.6284 68.4434 40.6284H58.1905C58.1853 40.6283 58.1802 40.6283 58.1751 40.6284H49.186C49.1822 40.6283 49.1784 40.6284 49.1746 40.6284H44.5402C43.463 40.6284 42.5529 39.9236 42.5529 39.0894C42.5529 38.2552 43.463 37.5504 44.5402 37.5504H78.4597C79.537 37.5504 80.4471 38.2552 80.4471 39.0894C80.4471 39.9236 79.537 40.6284 78.4597 40.6284Z" fill="white"/>
<path d="M26.1973 67.1465C24.9629 67.1465 23.9863 66.7578 23.2676 65.9805C22.5527 65.1992 22.1953 64.1289 22.1953 62.7695C22.1953 61.4141 22.5547 60.3477 23.2734 59.5703C23.9922 58.7891 24.9668 58.3984 26.1973 58.3984C26.8691 58.3984 27.4785 58.5312 28.0254 58.7969C28.5762 59.0625 29.0176 59.4375 29.3496 59.9219C29.6816 60.4062 29.8691 60.959 29.9121 61.5801H28.1895C28.1074 61.0605 27.8828 60.6445 27.5156 60.332C27.1523 60.0195 26.7129 59.8633 26.1973 59.8633C25.5293 59.8633 24.9961 60.125 24.5977 60.6484C24.1992 61.1719 24 61.877 24 62.7637C24 63.666 24.1973 64.3789 24.5918 64.9023C24.9863 65.4219 25.5234 65.6816 26.2031 65.6816C26.7266 65.6816 27.166 65.5371 27.5215 65.248C27.877 64.959 28.1016 64.5645 28.1953 64.0645H29.918C29.8203 65.0059 29.4355 65.7559 28.7637 66.3145C28.0918 66.8691 27.2363 67.1465 26.1973 67.1465Z" fill="white"/>
<path d="M30.9082 67V58.5449H32.5898V61.8379H32.625C32.793 61.4395 33.0449 61.1348 33.3809 60.9238C33.7207 60.709 34.127 60.6016 34.5996 60.6016C35.291 60.6016 35.8281 60.8125 36.2109 61.2344C36.5977 61.6523 36.791 62.2266 36.791 62.957V67H35.0801V63.3203C35.0801 62.9102 34.9785 62.5918 34.7754 62.3652C34.5762 62.1348 34.2852 62.0195 33.9023 62.0195C33.5039 62.0195 33.1895 62.1484 32.959 62.4062C32.7324 62.6602 32.6191 62.9961 32.6191 63.4141V67H30.9082Z" fill="white"/>
<path d="M37.916 67V60.7188H39.627V67H37.916ZM39.4219 59.7695C39.2461 59.9414 39.0293 60.0273 38.7715 60.0273C38.5137 60.0273 38.2969 59.9414 38.1211 59.7695C37.9453 59.5977 37.8574 59.3887 37.8574 59.1426C37.8574 58.8926 37.9453 58.6836 38.1211 58.5156C38.2969 58.3438 38.5137 58.2578 38.7715 58.2578C39.0293 58.2578 39.2461 58.3438 39.4219 58.5156C39.5977 58.6836 39.6855 58.8926 39.6855 59.1426C39.6855 59.3887 39.5977 59.5977 39.4219 59.7695Z" fill="white"/>
<path d="M40.8105 67V58.5449H42.5215V67H40.8105Z" fill="white"/>
<path d="M46.0078 67.0996C45.2227 67.0996 44.5996 66.8086 44.1387 66.2266C43.6777 65.6445 43.4473 64.8516 43.4473 63.8477C43.4473 62.8516 43.6777 62.0645 44.1387 61.4863C44.6035 60.9082 45.2305 60.6191 46.0195 60.6191C46.4648 60.6191 46.8555 60.7266 47.1914 60.9414C47.5312 61.1562 47.7793 61.4414 47.9355 61.7969H47.9707V58.5449H49.6816V67H47.9941V65.9219H47.9648C47.8086 66.2773 47.5566 66.5625 47.209 66.7773C46.8613 66.9922 46.4609 67.0996 46.0078 67.0996ZM46.5879 61.9902C46.1582 61.9902 45.8184 62.1582 45.5684 62.4941C45.3223 62.8301 45.1992 63.2852 45.1992 63.8594C45.1992 64.4375 45.3223 64.8926 45.5684 65.2246C45.8184 65.5566 46.1582 65.7227 46.5879 65.7227C47.0137 65.7227 47.3516 65.5566 47.6016 65.2246C47.8555 64.8887 47.9824 64.4336 47.9824 63.8594C47.9824 63.2891 47.8555 62.8359 47.6016 62.5C47.3516 62.1602 47.0137 61.9902 46.5879 61.9902Z" fill="white"/>
<path d="M50.8242 67V60.7188H52.4766V61.8496H52.5117C52.6211 61.4512 52.8047 61.1465 53.0625 60.9355C53.3203 60.7246 53.6348 60.6191 54.0059 60.6191C54.1855 60.6191 54.3477 60.6406 54.4922 60.6836V62.1895C54.332 62.123 54.125 62.0898 53.8711 62.0898C53.4492 62.0898 53.1211 62.2129 52.8867 62.459C52.6523 62.7051 52.5352 63.0488 52.5352 63.4902V67H50.8242Z" fill="white"/>
<path d="M57.8027 61.8496C57.4316 61.8496 57.1211 61.9766 56.8711 62.2305C56.625 62.4844 56.4863 62.8086 56.4551 63.2031H59.1211C59.1016 62.8008 58.9707 62.4746 58.7285 62.2246C58.4902 61.9746 58.1816 61.8496 57.8027 61.8496ZM59.1445 65.0781H60.7148C60.6211 65.6953 60.3125 66.1934 59.7891 66.5723C59.2695 66.9473 58.623 67.1348 57.8496 67.1348C56.8848 67.1348 56.127 66.8457 55.5762 66.2676C55.0293 65.6895 54.7559 64.8965 54.7559 63.8887C54.7559 62.8848 55.0293 62.084 55.5762 61.4863C56.123 60.8848 56.8594 60.584 57.7852 60.584C58.6953 60.584 59.4199 60.8691 59.959 61.4395C60.498 62.0098 60.7676 62.7734 60.7676 63.7305V64.252H56.4375V64.3574C56.4375 64.8066 56.5684 65.1719 56.8301 65.4531C57.0957 65.7305 57.4453 65.8691 57.8789 65.8691C58.1914 65.8691 58.4609 65.7988 58.6875 65.6582C58.9141 65.5137 59.0664 65.3203 59.1445 65.0781Z" fill="white"/>
<path d="M61.6523 67V60.7188H63.3047V61.8379H63.3398C63.5117 61.4395 63.7617 61.1348 64.0898 60.9238C64.4219 60.709 64.8262 60.6016 65.3027 60.6016C65.998 60.6016 66.5352 60.8086 66.9141 61.2227C67.293 61.6367 67.4824 62.2129 67.4824 62.9512V67H65.7715V63.3086C65.7715 62.8945 65.6738 62.5762 65.4785 62.3535C65.2832 62.1309 64.9961 62.0195 64.6172 62.0195C64.2383 62.0195 63.9336 62.1465 63.7031 62.4004C63.4766 62.6543 63.3633 62.9863 63.3633 63.3965V67H61.6523Z" fill="white"/>
<path d="M70.9453 67V60.7188H72.5977V61.8555H72.6328C72.7656 61.4727 72.9922 61.168 73.3125 60.9414C73.6328 60.7148 74.0039 60.6016 74.4258 60.6016C74.8789 60.6016 75.2578 60.7148 75.5625 60.9414C75.8672 61.1641 76.0723 61.4805 76.1777 61.8906H76.2129C76.3535 61.4961 76.5977 61.1836 76.9453 60.9531C77.2969 60.7188 77.7031 60.6016 78.1641 60.6016C78.7812 60.6016 79.2773 60.7949 79.6523 61.1816C80.0312 61.5684 80.2207 62.0781 80.2207 62.7109V67H78.5098V63.1387C78.5098 62.7754 78.4219 62.498 78.2461 62.3066C78.0703 62.1113 77.8164 62.0137 77.4844 62.0137C77.1602 62.0137 76.8984 62.1211 76.6992 62.3359C76.5039 62.5508 76.4062 62.834 76.4062 63.1855V67H74.7598V63.0859C74.7598 62.75 74.6699 62.4883 74.4902 62.3008C74.3105 62.1094 74.0625 62.0137 73.7461 62.0137C73.4219 62.0137 73.1582 62.125 72.9551 62.3477C72.7559 62.5703 72.6562 62.8574 72.6562 63.209V67H70.9453Z" fill="white"/>
<path d="M84.123 61.8496C83.752 61.8496 83.4414 61.9766 83.1914 62.2305C82.9453 62.4844 82.8066 62.8086 82.7754 63.2031H85.4414C85.4219 62.8008 85.291 62.4746 85.0488 62.2246C84.8105 61.9746 84.502 61.8496 84.123 61.8496ZM85.4648 65.0781H87.0352C86.9414 65.6953 86.6328 66.1934 86.1094 66.5723C85.5898 66.9473 84.9434 67.1348 84.1699 67.1348C83.2051 67.1348 82.4473 66.8457 81.8965 66.2676C81.3496 65.6895 81.0762 64.8965 81.0762 63.8887C81.0762 62.8848 81.3496 62.084 81.8965 61.4863C82.4434 60.8848 83.1797 60.584 84.1055 60.584C85.0156 60.584 85.7402 60.8691 86.2793 61.4395C86.8184 62.0098 87.0879 62.7734 87.0879 63.7305V64.252H82.7578V64.3574C82.7578 64.8066 82.8887 65.1719 83.1504 65.4531C83.416 65.7305 83.7656 65.8691 84.1992 65.8691C84.5117 65.8691 84.7812 65.7988 85.0078 65.6582C85.2344 65.5137 85.3867 65.3203 85.4648 65.0781Z" fill="white"/>
<path d="M87.9727 67V60.7188H89.625V61.8379H89.6602C89.832 61.4395 90.082 61.1348 90.4102 60.9238C90.7422 60.709 91.1465 60.6016 91.623 60.6016C92.3184 60.6016 92.8555 60.8086 93.2344 61.2227C93.6133 61.6367 93.8027 62.2129 93.8027 62.9512V67H92.0918V63.3086C92.0918 62.8945 91.9941 62.5762 91.7988 62.3535C91.6035 62.1309 91.3164 62.0195 90.9375 62.0195C90.5586 62.0195 90.2539 62.1465 90.0234 62.4004C89.7969 62.6543 89.6836 62.9863 89.6836 63.3965V67H87.9727Z" fill="white"/>
<path d="M100.688 60.7188V67H99.0352V65.8691H99C98.6719 66.7012 98.0449 67.1172 97.1191 67.1172C96.4316 67.1172 95.8828 66.9082 95.4727 66.4902C95.0625 66.0684 94.8574 65.4941 94.8574 64.7676V60.7188H96.5684V64.4102C96.5684 64.8281 96.668 65.1465 96.8672 65.3652C97.0703 65.584 97.3613 65.6934 97.7402 65.6934C98.1191 65.6934 98.4199 65.5684 98.6426 65.3184C98.8652 65.0684 98.9766 64.7344 98.9766 64.3164V60.7188H100.688Z" fill="white"/>
</svg>
