<svg width="146" height="109" viewBox="0 0 146 109" fill="none" xmlns="http://www.w3.org/2000/svg">
<g filter="url(#filter0_d_356_205)">
<mask id="path-1-outside-1_356_205" maskUnits="userSpaceOnUse" x="10" y="10" width="126" height="89" fill="black">
<rect fill="white" x="10" y="10" width="126" height="89"/>
<path d="M11 36C11 22.1929 22.1929 11 36 11H110C123.807 11 135 22.1929 135 36V73C135 86.8071 123.807 98 110 98H36C22.1929 98 11 86.8071 11 73V36Z"/>
<path d="M91.2885 24.75H91.159C91.4975 23.7739 91.4804 22.7079 91.1106 21.7435C91.0748 21.6511 91.0204 21.5672 90.951 21.4971C90.8816 21.427 90.7986 21.3721 90.7071 21.3359C89.8511 20.9994 88.9104 20.9505 88.0246 21.1965C87.5857 20.2457 86.8205 19.4878 85.8708 19.0632C85.7808 19.0235 85.6837 19.0029 85.5855 19.0029C85.4873 19.0029 85.3901 19.0235 85.3002 19.0632C84.3545 19.4807 83.5905 20.2298 83.1492 21.1721C82.3029 20.9628 81.4136 21.0199 80.6004 21.3359C80.4154 21.4093 80.2696 21.5566 80.197 21.7435C79.8274 22.708 79.8105 23.774 80.1493 24.75H62.2598L59.0949 22.0094C59.234 21.6814 59.2905 21.3236 59.2592 20.9681C59.228 20.6126 59.11 20.2705 58.9158 19.9723C58.7216 19.6742 58.4572 19.4293 58.1464 19.2596C57.8356 19.0899 57.4879 19.0007 57.1346 19C55.9577 19 55 19.9674 55 21.1562C55 22.3451 55.9577 23.3125 57.1346 23.3125C57.4925 23.3125 57.8298 23.2227 58.1265 23.0645L60.0733 24.75H58.5577C58.369 24.75 58.188 24.8257 58.0546 24.9605C57.9211 25.0953 57.8462 25.2781 57.8462 25.4688V26.6899C57.8462 28.8512 58.737 30.9435 60.2903 32.4291L71.5874 43.2406C71.7196 43.3671 71.8948 43.4376 72.0769 43.4375H72.252L73.5277 47.9477C73.5702 48.0977 73.66 48.2298 73.7833 48.3238C73.9067 48.4178 74.057 48.4687 74.2115 48.4688V60.6875H69.9423C67.9806 60.6875 66.3846 62.2997 66.3846 64.2812C66.3846 64.4719 66.4596 64.6547 66.593 64.7895C66.7265 64.9243 66.9074 65 67.0962 65H82.75C82.9387 65 83.1197 64.9243 83.2531 64.7895C83.3866 64.6547 83.4615 64.4719 83.4615 64.2812C83.4615 62.2997 81.8656 60.6875 79.9038 60.6875H75.6346V48.4688C75.7891 48.4687 75.9395 48.4178 76.0628 48.3238C76.1862 48.2298 76.2759 48.0977 76.3184 47.9477L77.5942 43.4375H77.7692C77.9513 43.4376 78.1265 43.3671 78.2588 43.2406L89.5559 32.4291C90.3264 31.6893 90.9404 30.7992 91.3605 29.8127C91.7806 28.8262 91.9982 27.7638 92 26.6899V25.4688C92 25.2781 91.925 25.0953 91.7916 24.9605C91.6582 24.8257 91.4772 24.75 91.2885 24.75ZM56.4231 21.1562C56.4231 20.7602 56.7426 20.4375 57.1346 20.4375C57.5267 20.4375 57.8462 20.7602 57.8462 21.1562C57.8462 21.5523 57.5267 21.875 57.1346 21.875C56.7426 21.875 56.4231 21.5523 56.4231 21.1562ZM81.9168 63.5625H67.9294C68.0771 63.1424 68.3498 62.7787 68.7102 62.5214C69.0706 62.264 69.501 62.1255 69.9423 62.125H79.9038C80.8317 62.125 81.6229 62.7259 81.9168 63.5625ZM89.8846 22.5743C90.0756 23.3089 89.9745 24.0898 89.6028 24.75H86.3767L86.3867 24.7033L86.3924 24.6781C86.4052 24.6206 86.4222 24.5638 86.4386 24.5078L86.4593 24.4402L86.4721 24.3993C86.4804 24.3711 86.4899 24.3433 86.5005 24.3159L86.5012 24.3137C86.5261 24.249 86.5553 24.1858 86.6072 24.0744C86.6243 24.037 86.6407 23.9996 86.6606 23.9637C86.7005 23.8904 86.7474 23.8207 86.7944 23.7495L86.7958 23.7473L86.8719 23.628L86.8727 23.6273C86.9536 23.5171 87.0423 23.4128 87.1381 23.3154L87.1402 23.3132L87.2099 23.2449L87.2391 23.2183L87.2818 23.181L87.3537 23.1213L87.3579 23.1177C87.3995 23.0844 87.442 23.0523 87.4853 23.0214L87.496 23.0135L87.523 22.9963L87.6105 22.938L87.6525 22.9122L87.6995 22.8834L87.7486 22.8554L87.7912 22.8317L87.8411 22.8051C87.8617 22.7943 87.8816 22.7835 87.903 22.7734L87.9215 22.7641C88.5329 22.4679 89.2286 22.4006 89.8846 22.5743ZM85.5848 20.5266C86.0845 20.8227 86.4841 21.2644 86.7311 21.7938L86.6734 21.8333C86.3091 22.0911 85.9881 22.4063 85.7228 22.767C85.6788 22.828 85.6373 22.8909 85.5983 22.9553C85.5286 23.0585 85.4631 23.1645 85.4019 23.273C85.3594 23.3543 85.3195 23.437 85.2824 23.5209C85.2386 23.6133 85.1982 23.7073 85.1614 23.8027C85.1261 23.8975 85.0946 23.9936 85.0668 24.0909C85.0003 24.3061 84.952 24.5266 84.9223 24.75H84.7608C84.3799 24.2523 84.1732 23.6411 84.1731 23.0121C84.1731 22.7727 84.2072 22.5291 84.2777 22.2646C84.2892 22.2213 84.2965 22.177 84.2997 22.1323C84.5166 21.4549 84.9745 20.8828 85.5848 20.5266ZM81.423 22.5751C81.862 22.461 82.3216 22.4546 82.7635 22.5564C82.6836 23.3049 82.8012 24.0615 83.1043 24.7493H81.7048C81.3331 24.0896 81.232 23.3091 81.423 22.5751ZM75.0981 47.0312H74.7487L73.732 43.4375H76.1149L75.0981 47.0312ZM90.5769 26.6899C90.5762 27.5022 90.4239 28.3072 90.1279 29.0625H86.3077V30.5H89.346C89.1183 30.817 88.8614 31.1138 88.5768 31.3855L77.486 42H72.3608L61.2687 31.3855C60.986 31.1147 60.7285 30.8183 60.4995 30.5H63.5385V29.0625H59.7182C59.4223 28.3072 59.27 27.5022 59.2692 26.6899V26.1875H61.7333L66.7496 30.5302C66.51 30.9597 66.3843 31.4445 66.3846 31.9375C66.3851 32.3762 66.4849 32.8091 66.6764 33.2029C66.8679 33.5967 67.146 33.9411 67.4894 34.2097C67.8328 34.4783 68.2325 34.664 68.6579 34.7527C69.0833 34.8413 69.5231 34.8306 69.9437 34.7212L69.9423 34.8125C69.9423 36.3981 71.2188 37.6875 72.7885 37.6875C73.3812 37.6875 73.9319 37.5035 74.3887 37.1887L77.311 39.6748L78.2275 38.5752L75.3287 36.1091C75.5743 35.6156 75.6741 35.061 75.6162 34.5117C75.5583 33.9624 75.3451 33.4416 75.0021 33.0113C74.6591 32.5811 74.2008 32.2597 73.6818 32.0855C73.1629 31.9112 72.6052 31.8916 72.0755 32.0288L72.0769 31.9375C72.0769 30.3519 70.8004 29.0625 69.2308 29.0625C68.6829 29.0625 68.1713 29.2199 67.7365 29.4916L63.9206 26.1875H90.5769V26.6899ZM72.7885 36.25C72.0036 36.25 71.3654 35.6053 71.3654 34.8125C71.3654 34.0197 72.0036 33.375 72.7885 33.375C73.5733 33.375 74.2115 34.0197 74.2115 34.8125C74.2115 35.6053 73.5733 36.25 72.7885 36.25ZM69.2308 33.375C68.4459 33.375 67.8077 32.7303 67.8077 31.9375C67.8077 31.1447 68.4459 30.5 69.2308 30.5C70.0156 30.5 70.6538 31.1447 70.6538 31.9375C70.6538 32.7303 70.0156 33.375 69.2308 33.375Z"/>
<path d="M72.7885 29.0625H84.8846V30.5H72.7885V29.0625ZM77.7692 31.9375H79.1923V33.375H77.7692V31.9375ZM80.6154 34.0938H82.0385V35.5312H80.6154V34.0938ZM83.4615 31.9375H84.8846V33.375H83.4615V31.9375Z"/>
<path d="M51.3477 79.1465C50.1133 79.1465 49.1367 78.7578 48.418 77.9805C47.7031 77.1992 47.3457 76.1289 47.3457 74.7695C47.3457 73.4141 47.7051 72.3477 48.4238 71.5703C49.1426 70.7891 50.1172 70.3984 51.3477 70.3984C52.0195 70.3984 52.6289 70.5312 53.1758 70.7969C53.7266 71.0625 54.168 71.4375 54.5 71.9219C54.832 72.4062 55.0195 72.959 55.0625 73.5801H53.3398C53.2578 73.0605 53.0332 72.6445 52.666 72.332C52.3027 72.0195 51.8633 71.8633 51.3477 71.8633C50.6797 71.8633 50.1465 72.125 49.748 72.6484C49.3496 73.1719 49.1504 73.877 49.1504 74.7637C49.1504 75.666 49.3477 76.3789 49.7422 76.9023C50.1367 77.4219 50.6738 77.6816 51.3535 77.6816C51.877 77.6816 52.3164 77.5371 52.6719 77.248C53.0273 76.959 53.252 76.5645 53.3457 76.0645H55.0684C54.9707 77.0059 54.5859 77.7559 53.9141 78.3145C53.2422 78.8691 52.3867 79.1465 51.3477 79.1465Z"/>
<path d="M61.1738 78.2676C60.6152 78.8457 59.8574 79.1348 58.9004 79.1348C57.9434 79.1348 57.1855 78.8438 56.627 78.2617C56.0684 77.6797 55.7891 76.877 55.7891 75.8535C55.7891 74.8418 56.0703 74.0449 56.6328 73.4629C57.1992 72.877 57.9551 72.584 58.9004 72.584C59.8496 72.584 60.6055 72.877 61.168 73.4629C61.7305 74.0449 62.0117 74.8418 62.0117 75.8535C62.0117 76.8809 61.7324 77.6855 61.1738 78.2676ZM58.9004 77.8281C59.3223 77.8281 59.6562 77.6562 59.9023 77.3125C60.1484 76.9688 60.2715 76.4844 60.2715 75.8594C60.2715 75.2422 60.1484 74.7598 59.9023 74.4121C59.6562 74.0645 59.3223 73.8906 58.9004 73.8906C58.4785 73.8906 58.1426 74.0645 57.8926 74.4121C57.6465 74.7598 57.5234 75.2422 57.5234 75.8594C57.5234 76.4844 57.6465 76.9688 57.8926 77.3125C58.1387 77.6562 58.4746 77.8281 58.9004 77.8281Z"/>
<path d="M68.6035 75.0566H67.0156C66.9648 74.7168 66.8301 74.4434 66.6113 74.2363C66.3965 74.0293 66.1172 73.9258 65.7734 73.9258C65.3477 73.9258 65.0117 74.0977 64.7656 74.4414C64.5234 74.7812 64.4023 75.252 64.4023 75.8535C64.4023 76.4668 64.5234 76.9434 64.7656 77.2832C65.0117 77.623 65.3496 77.793 65.7793 77.793C66.1191 77.793 66.3965 77.6973 66.6113 77.5059C66.8262 77.3105 66.9609 77.041 67.0156 76.6973H68.6094C68.5664 77.4395 68.2871 78.0312 67.7715 78.4727C67.2559 78.9141 66.5859 79.1348 65.7617 79.1348C64.8086 79.1348 64.0547 78.8438 63.5 78.2617C62.9453 77.6758 62.668 76.873 62.668 75.8535C62.668 74.8496 62.9453 74.0547 63.5 73.4688C64.0586 72.8789 64.8086 72.584 65.75 72.584C66.5859 72.584 67.2598 72.8145 67.7715 73.2754C68.2871 73.7363 68.5645 74.3301 68.6035 75.0566Z"/>
<path d="M71.2109 75.2383L73.3438 72.7188H75.2832L72.8867 75.4141L75.4004 79H73.4316L71.6328 76.4453L71.1875 76.9258V79H69.4766V70.5449H71.1875V75.2383H71.2109Z"/>
<path d="M76.3496 71.2715H78.0605V72.7188H79.2207V74.0078H78.0605V77.0137C78.0605 77.4863 78.3066 77.7227 78.7988 77.7227C78.959 77.7227 79.0977 77.7129 79.2148 77.6934V78.9531C79.0156 79 78.7441 79.0234 78.4004 79.0234C77.6621 79.0234 77.1348 78.8906 76.8184 78.625C76.5059 78.3594 76.3496 77.9199 76.3496 77.3066V74.0078H75.4648V72.7188H76.3496V71.2715Z"/>
<path d="M82.5254 77.8633C82.9043 77.8633 83.2246 77.7539 83.4863 77.5352C83.752 77.3125 83.8848 77.0332 83.8848 76.6973V76.2402L82.5605 76.3223C82.2402 76.3457 81.9922 76.4258 81.8164 76.5625C81.6445 76.6992 81.5586 76.8789 81.5586 77.1016C81.5586 77.3359 81.6465 77.5215 81.8223 77.6582C81.998 77.7949 82.2324 77.8633 82.5254 77.8633ZM81.9629 79.0996C81.3574 79.0996 80.8555 78.9219 80.457 78.5664C80.0586 78.2109 79.8594 77.7539 79.8594 77.1953C79.8594 76.625 80.0703 76.1777 80.4922 75.8535C80.9141 75.5293 81.5176 75.3438 82.3027 75.2969L83.8848 75.2031V74.7871C83.8848 74.498 83.7891 74.2715 83.5977 74.1074C83.4102 73.9434 83.1543 73.8613 82.8301 73.8613C82.5176 73.8613 82.2617 73.9316 82.0625 74.0723C81.8672 74.2129 81.748 74.4023 81.7051 74.6406H80.1406C80.1719 74.0234 80.4355 73.5273 80.9316 73.1523C81.4277 72.7734 82.0859 72.584 82.9062 72.584C83.7109 72.584 84.3555 72.7754 84.8398 73.1582C85.3242 73.541 85.5664 74.0488 85.5664 74.6816V79H83.9141V78.0391H83.8789C83.707 78.3672 83.4453 78.627 83.0938 78.8184C82.7422 79.0059 82.3652 79.0996 81.9629 79.0996Z"/>
<path d="M86.7031 79V72.7188H88.4141V79H86.7031ZM88.209 71.7695C88.0332 71.9414 87.8164 72.0273 87.5586 72.0273C87.3008 72.0273 87.084 71.9414 86.9082 71.7695C86.7324 71.5977 86.6445 71.3887 86.6445 71.1426C86.6445 70.8926 86.7324 70.6836 86.9082 70.5156C87.084 70.3438 87.3008 70.2578 87.5586 70.2578C87.8164 70.2578 88.0332 70.3438 88.209 70.5156C88.3848 70.6836 88.4727 70.8926 88.4727 71.1426C88.4727 71.3887 88.3848 71.5977 88.209 71.7695Z"/>
<path d="M89.5977 79V70.5449H91.3086V79H89.5977Z"/>
<path d="M92.3574 74.5645C92.3574 73.9668 92.5977 73.4883 93.0781 73.1289C93.5586 72.7656 94.2012 72.584 95.0059 72.584C95.791 72.584 96.4219 72.7676 96.8984 73.1348C97.375 73.502 97.6191 73.9902 97.6309 74.5996H96.0547C96.0352 74.3457 95.9297 74.1465 95.7383 74.002C95.5508 73.8574 95.2988 73.7852 94.9824 73.7852C94.6855 73.7852 94.4473 73.8477 94.2676 73.9727C94.0918 74.0938 94.0039 74.2559 94.0039 74.459C94.0039 74.7637 94.2773 74.9805 94.8242 75.1094L96.0254 75.3672C96.6543 75.5078 97.1055 75.7129 97.3789 75.9824C97.6562 76.248 97.7949 76.6152 97.7949 77.084C97.7949 77.7012 97.5371 78.1973 97.0215 78.5723C96.5059 78.9473 95.832 79.1348 95 79.1348C94.1719 79.1348 93.5098 78.9512 93.0137 78.584C92.5176 78.2168 92.2461 77.7227 92.1992 77.1016H93.8691C93.9121 77.3672 94.0332 77.5723 94.2324 77.7168C94.4355 77.8613 94.707 77.9336 95.0469 77.9336C95.3711 77.9336 95.625 77.875 95.8086 77.7578C95.9961 77.6367 96.0898 77.4727 96.0898 77.2656C96.0898 77.1055 96.0312 76.9785 95.9141 76.8848C95.7969 76.7871 95.5977 76.7051 95.3164 76.6387L94.1562 76.3809C92.957 76.1074 92.3574 75.502 92.3574 74.5645Z"/>
</mask>
<path d="M11 36C11 22.1929 22.1929 11 36 11H110C123.807 11 135 22.1929 135 36V73C135 86.8071 123.807 98 110 98H36C22.1929 98 11 86.8071 11 73V36Z" fill="#2E3235"/>
<path d="M91.2885 24.75H91.159C91.4975 23.7739 91.4804 22.7079 91.1106 21.7435C91.0748 21.6511 91.0204 21.5672 90.951 21.4971C90.8816 21.427 90.7986 21.3721 90.7071 21.3359C89.8511 20.9994 88.9104 20.9505 88.0246 21.1965C87.5857 20.2457 86.8205 19.4878 85.8708 19.0632C85.7808 19.0235 85.6837 19.0029 85.5855 19.0029C85.4873 19.0029 85.3901 19.0235 85.3002 19.0632C84.3545 19.4807 83.5905 20.2298 83.1492 21.1721C82.3029 20.9628 81.4136 21.0199 80.6004 21.3359C80.4154 21.4093 80.2696 21.5566 80.197 21.7435C79.8274 22.708 79.8105 23.774 80.1493 24.75H62.2598L59.0949 22.0094C59.234 21.6814 59.2905 21.3236 59.2592 20.9681C59.228 20.6126 59.11 20.2705 58.9158 19.9723C58.7216 19.6742 58.4572 19.4293 58.1464 19.2596C57.8356 19.0899 57.4879 19.0007 57.1346 19C55.9577 19 55 19.9674 55 21.1562C55 22.3451 55.9577 23.3125 57.1346 23.3125C57.4925 23.3125 57.8298 23.2227 58.1265 23.0645L60.0733 24.75H58.5577C58.369 24.75 58.188 24.8257 58.0546 24.9605C57.9211 25.0953 57.8462 25.2781 57.8462 25.4688V26.6899C57.8462 28.8512 58.737 30.9435 60.2903 32.4291L71.5874 43.2406C71.7196 43.3671 71.8948 43.4376 72.0769 43.4375H72.252L73.5277 47.9477C73.5702 48.0977 73.66 48.2298 73.7833 48.3238C73.9067 48.4178 74.057 48.4687 74.2115 48.4688V60.6875H69.9423C67.9806 60.6875 66.3846 62.2997 66.3846 64.2812C66.3846 64.4719 66.4596 64.6547 66.593 64.7895C66.7265 64.9243 66.9074 65 67.0962 65H82.75C82.9387 65 83.1197 64.9243 83.2531 64.7895C83.3866 64.6547 83.4615 64.4719 83.4615 64.2812C83.4615 62.2997 81.8656 60.6875 79.9038 60.6875H75.6346V48.4688C75.7891 48.4687 75.9395 48.4178 76.0628 48.3238C76.1862 48.2298 76.2759 48.0977 76.3184 47.9477L77.5942 43.4375H77.7692C77.9513 43.4376 78.1265 43.3671 78.2588 43.2406L89.5559 32.4291C90.3264 31.6893 90.9404 30.7992 91.3605 29.8127C91.7806 28.8262 91.9982 27.7638 92 26.6899V25.4688C92 25.2781 91.925 25.0953 91.7916 24.9605C91.6582 24.8257 91.4772 24.75 91.2885 24.75ZM56.4231 21.1562C56.4231 20.7602 56.7426 20.4375 57.1346 20.4375C57.5267 20.4375 57.8462 20.7602 57.8462 21.1562C57.8462 21.5523 57.5267 21.875 57.1346 21.875C56.7426 21.875 56.4231 21.5523 56.4231 21.1562ZM81.9168 63.5625H67.9294C68.0771 63.1424 68.3498 62.7787 68.7102 62.5214C69.0706 62.264 69.501 62.1255 69.9423 62.125H79.9038C80.8317 62.125 81.6229 62.7259 81.9168 63.5625ZM89.8846 22.5743C90.0756 23.3089 89.9745 24.0898 89.6028 24.75H86.3767L86.3867 24.7033L86.3924 24.6781C86.4052 24.6206 86.4222 24.5638 86.4386 24.5078L86.4593 24.4402L86.4721 24.3993C86.4804 24.3711 86.4899 24.3433 86.5005 24.3159L86.5012 24.3137C86.5261 24.249 86.5553 24.1858 86.6072 24.0744C86.6243 24.037 86.6407 23.9996 86.6606 23.9637C86.7005 23.8904 86.7474 23.8207 86.7944 23.7495L86.7958 23.7473L86.8719 23.628L86.8727 23.6273C86.9536 23.5171 87.0423 23.4128 87.1381 23.3154L87.1402 23.3132L87.2099 23.2449L87.2391 23.2183L87.2818 23.181L87.3537 23.1213L87.3579 23.1177C87.3995 23.0844 87.442 23.0523 87.4853 23.0214L87.496 23.0135L87.523 22.9963L87.6105 22.938L87.6525 22.9122L87.6995 22.8834L87.7486 22.8554L87.7912 22.8317L87.8411 22.8051C87.8617 22.7943 87.8816 22.7835 87.903 22.7734L87.9215 22.7641C88.5329 22.4679 89.2286 22.4006 89.8846 22.5743ZM85.5848 20.5266C86.0845 20.8227 86.4841 21.2644 86.7311 21.7938L86.6734 21.8333C86.3091 22.0911 85.9881 22.4063 85.7228 22.767C85.6788 22.828 85.6373 22.8909 85.5983 22.9553C85.5286 23.0585 85.4631 23.1645 85.4019 23.273C85.3594 23.3543 85.3195 23.437 85.2824 23.5209C85.2386 23.6133 85.1982 23.7073 85.1614 23.8027C85.1261 23.8975 85.0946 23.9936 85.0668 24.0909C85.0003 24.3061 84.952 24.5266 84.9223 24.75H84.7608C84.3799 24.2523 84.1732 23.6411 84.1731 23.0121C84.1731 22.7727 84.2072 22.5291 84.2777 22.2646C84.2892 22.2213 84.2965 22.177 84.2997 22.1323C84.5166 21.4549 84.9745 20.8828 85.5848 20.5266ZM81.423 22.5751C81.862 22.461 82.3216 22.4546 82.7635 22.5564C82.6836 23.3049 82.8012 24.0615 83.1043 24.7493H81.7048C81.3331 24.0896 81.232 23.3091 81.423 22.5751ZM75.0981 47.0312H74.7487L73.732 43.4375H76.1149L75.0981 47.0312ZM90.5769 26.6899C90.5762 27.5022 90.4239 28.3072 90.1279 29.0625H86.3077V30.5H89.346C89.1183 30.817 88.8614 31.1138 88.5768 31.3855L77.486 42H72.3608L61.2687 31.3855C60.986 31.1147 60.7285 30.8183 60.4995 30.5H63.5385V29.0625H59.7182C59.4223 28.3072 59.27 27.5022 59.2692 26.6899V26.1875H61.7333L66.7496 30.5302C66.51 30.9597 66.3843 31.4445 66.3846 31.9375C66.3851 32.3762 66.4849 32.8091 66.6764 33.2029C66.8679 33.5967 67.146 33.9411 67.4894 34.2097C67.8328 34.4783 68.2325 34.664 68.6579 34.7527C69.0833 34.8413 69.5231 34.8306 69.9437 34.7212L69.9423 34.8125C69.9423 36.3981 71.2188 37.6875 72.7885 37.6875C73.3812 37.6875 73.9319 37.5035 74.3887 37.1887L77.311 39.6748L78.2275 38.5752L75.3287 36.1091C75.5743 35.6156 75.6741 35.061 75.6162 34.5117C75.5583 33.9624 75.3451 33.4416 75.0021 33.0113C74.6591 32.5811 74.2008 32.2597 73.6818 32.0855C73.1629 31.9112 72.6052 31.8916 72.0755 32.0288L72.0769 31.9375C72.0769 30.3519 70.8004 29.0625 69.2308 29.0625C68.6829 29.0625 68.1713 29.2199 67.7365 29.4916L63.9206 26.1875H90.5769V26.6899ZM72.7885 36.25C72.0036 36.25 71.3654 35.6053 71.3654 34.8125C71.3654 34.0197 72.0036 33.375 72.7885 33.375C73.5733 33.375 74.2115 34.0197 74.2115 34.8125C74.2115 35.6053 73.5733 36.25 72.7885 36.25ZM69.2308 33.375C68.4459 33.375 67.8077 32.7303 67.8077 31.9375C67.8077 31.1447 68.4459 30.5 69.2308 30.5C70.0156 30.5 70.6538 31.1447 70.6538 31.9375C70.6538 32.7303 70.0156 33.375 69.2308 33.375Z" fill="#F83103"/>
<path d="M72.7885 29.0625H84.8846V30.5H72.7885V29.0625ZM77.7692 31.9375H79.1923V33.375H77.7692V31.9375ZM80.6154 34.0938H82.0385V35.5312H80.6154V34.0938ZM83.4615 31.9375H84.8846V33.375H83.4615V31.9375Z" fill="#F83103"/>
<path d="M51.3477 79.1465C50.1133 79.1465 49.1367 78.7578 48.418 77.9805C47.7031 77.1992 47.3457 76.1289 47.3457 74.7695C47.3457 73.4141 47.7051 72.3477 48.4238 71.5703C49.1426 70.7891 50.1172 70.3984 51.3477 70.3984C52.0195 70.3984 52.6289 70.5312 53.1758 70.7969C53.7266 71.0625 54.168 71.4375 54.5 71.9219C54.832 72.4062 55.0195 72.959 55.0625 73.5801H53.3398C53.2578 73.0605 53.0332 72.6445 52.666 72.332C52.3027 72.0195 51.8633 71.8633 51.3477 71.8633C50.6797 71.8633 50.1465 72.125 49.748 72.6484C49.3496 73.1719 49.1504 73.877 49.1504 74.7637C49.1504 75.666 49.3477 76.3789 49.7422 76.9023C50.1367 77.4219 50.6738 77.6816 51.3535 77.6816C51.877 77.6816 52.3164 77.5371 52.6719 77.248C53.0273 76.959 53.252 76.5645 53.3457 76.0645H55.0684C54.9707 77.0059 54.5859 77.7559 53.9141 78.3145C53.2422 78.8691 52.3867 79.1465 51.3477 79.1465Z" fill="#F83103"/>
<path d="M61.1738 78.2676C60.6152 78.8457 59.8574 79.1348 58.9004 79.1348C57.9434 79.1348 57.1855 78.8438 56.627 78.2617C56.0684 77.6797 55.7891 76.877 55.7891 75.8535C55.7891 74.8418 56.0703 74.0449 56.6328 73.4629C57.1992 72.877 57.9551 72.584 58.9004 72.584C59.8496 72.584 60.6055 72.877 61.168 73.4629C61.7305 74.0449 62.0117 74.8418 62.0117 75.8535C62.0117 76.8809 61.7324 77.6855 61.1738 78.2676ZM58.9004 77.8281C59.3223 77.8281 59.6562 77.6562 59.9023 77.3125C60.1484 76.9688 60.2715 76.4844 60.2715 75.8594C60.2715 75.2422 60.1484 74.7598 59.9023 74.4121C59.6562 74.0645 59.3223 73.8906 58.9004 73.8906C58.4785 73.8906 58.1426 74.0645 57.8926 74.4121C57.6465 74.7598 57.5234 75.2422 57.5234 75.8594C57.5234 76.4844 57.6465 76.9688 57.8926 77.3125C58.1387 77.6562 58.4746 77.8281 58.9004 77.8281Z" fill="#F83103"/>
<path d="M68.6035 75.0566H67.0156C66.9648 74.7168 66.8301 74.4434 66.6113 74.2363C66.3965 74.0293 66.1172 73.9258 65.7734 73.9258C65.3477 73.9258 65.0117 74.0977 64.7656 74.4414C64.5234 74.7812 64.4023 75.252 64.4023 75.8535C64.4023 76.4668 64.5234 76.9434 64.7656 77.2832C65.0117 77.623 65.3496 77.793 65.7793 77.793C66.1191 77.793 66.3965 77.6973 66.6113 77.5059C66.8262 77.3105 66.9609 77.041 67.0156 76.6973H68.6094C68.5664 77.4395 68.2871 78.0312 67.7715 78.4727C67.2559 78.9141 66.5859 79.1348 65.7617 79.1348C64.8086 79.1348 64.0547 78.8438 63.5 78.2617C62.9453 77.6758 62.668 76.873 62.668 75.8535C62.668 74.8496 62.9453 74.0547 63.5 73.4688C64.0586 72.8789 64.8086 72.584 65.75 72.584C66.5859 72.584 67.2598 72.8145 67.7715 73.2754C68.2871 73.7363 68.5645 74.3301 68.6035 75.0566Z" fill="#F83103"/>
<path d="M71.2109 75.2383L73.3438 72.7188H75.2832L72.8867 75.4141L75.4004 79H73.4316L71.6328 76.4453L71.1875 76.9258V79H69.4766V70.5449H71.1875V75.2383H71.2109Z" fill="#F83103"/>
<path d="M76.3496 71.2715H78.0605V72.7188H79.2207V74.0078H78.0605V77.0137C78.0605 77.4863 78.3066 77.7227 78.7988 77.7227C78.959 77.7227 79.0977 77.7129 79.2148 77.6934V78.9531C79.0156 79 78.7441 79.0234 78.4004 79.0234C77.6621 79.0234 77.1348 78.8906 76.8184 78.625C76.5059 78.3594 76.3496 77.9199 76.3496 77.3066V74.0078H75.4648V72.7188H76.3496V71.2715Z" fill="#F83103"/>
<path d="M82.5254 77.8633C82.9043 77.8633 83.2246 77.7539 83.4863 77.5352C83.752 77.3125 83.8848 77.0332 83.8848 76.6973V76.2402L82.5605 76.3223C82.2402 76.3457 81.9922 76.4258 81.8164 76.5625C81.6445 76.6992 81.5586 76.8789 81.5586 77.1016C81.5586 77.3359 81.6465 77.5215 81.8223 77.6582C81.998 77.7949 82.2324 77.8633 82.5254 77.8633ZM81.9629 79.0996C81.3574 79.0996 80.8555 78.9219 80.457 78.5664C80.0586 78.2109 79.8594 77.7539 79.8594 77.1953C79.8594 76.625 80.0703 76.1777 80.4922 75.8535C80.9141 75.5293 81.5176 75.3438 82.3027 75.2969L83.8848 75.2031V74.7871C83.8848 74.498 83.7891 74.2715 83.5977 74.1074C83.4102 73.9434 83.1543 73.8613 82.8301 73.8613C82.5176 73.8613 82.2617 73.9316 82.0625 74.0723C81.8672 74.2129 81.748 74.4023 81.7051 74.6406H80.1406C80.1719 74.0234 80.4355 73.5273 80.9316 73.1523C81.4277 72.7734 82.0859 72.584 82.9062 72.584C83.7109 72.584 84.3555 72.7754 84.8398 73.1582C85.3242 73.541 85.5664 74.0488 85.5664 74.6816V79H83.9141V78.0391H83.8789C83.707 78.3672 83.4453 78.627 83.0938 78.8184C82.7422 79.0059 82.3652 79.0996 81.9629 79.0996Z" fill="#F83103"/>
<path d="M86.7031 79V72.7188H88.4141V79H86.7031ZM88.209 71.7695C88.0332 71.9414 87.8164 72.0273 87.5586 72.0273C87.3008 72.0273 87.084 71.9414 86.9082 71.7695C86.7324 71.5977 86.6445 71.3887 86.6445 71.1426C86.6445 70.8926 86.7324 70.6836 86.9082 70.5156C87.084 70.3438 87.3008 70.2578 87.5586 70.2578C87.8164 70.2578 88.0332 70.3438 88.209 70.5156C88.3848 70.6836 88.4727 70.8926 88.4727 71.1426C88.4727 71.3887 88.3848 71.5977 88.209 71.7695Z" fill="#F83103"/>
<path d="M89.5977 79V70.5449H91.3086V79H89.5977Z" fill="#F83103"/>
<path d="M92.3574 74.5645C92.3574 73.9668 92.5977 73.4883 93.0781 73.1289C93.5586 72.7656 94.2012 72.584 95.0059 72.584C95.791 72.584 96.4219 72.7676 96.8984 73.1348C97.375 73.502 97.6191 73.9902 97.6309 74.5996H96.0547C96.0352 74.3457 95.9297 74.1465 95.7383 74.002C95.5508 73.8574 95.2988 73.7852 94.9824 73.7852C94.6855 73.7852 94.4473 73.8477 94.2676 73.9727C94.0918 74.0938 94.0039 74.2559 94.0039 74.459C94.0039 74.7637 94.2773 74.9805 94.8242 75.1094L96.0254 75.3672C96.6543 75.5078 97.1055 75.7129 97.3789 75.9824C97.6562 76.248 97.7949 76.6152 97.7949 77.084C97.7949 77.7012 97.5371 78.1973 97.0215 78.5723C96.5059 78.9473 95.832 79.1348 95 79.1348C94.1719 79.1348 93.5098 78.9512 93.0137 78.584C92.5176 78.2168 92.2461 77.7227 92.1992 77.1016H93.8691C93.9121 77.3672 94.0332 77.5723 94.2324 77.7168C94.4355 77.8613 94.707 77.9336 95.0469 77.9336C95.3711 77.9336 95.625 77.875 95.8086 77.7578C95.9961 77.6367 96.0898 77.4727 96.0898 77.2656C96.0898 77.1055 96.0312 76.9785 95.9141 76.8848C95.7969 76.7871 95.5977 76.7051 95.3164 76.6387L94.1562 76.3809C92.957 76.1074 92.3574 75.502 92.3574 74.5645Z" fill="#F83103"/>
<path d="M11 36C11 22.1929 22.1929 11 36 11H110C123.807 11 135 22.1929 135 36V73C135 86.8071 123.807 98 110 98H36C22.1929 98 11 86.8071 11 73V36Z" stroke="#F83103" stroke-width="2" mask="url(#path-1-outside-1_356_205)"/>
<path d="M91.2885 24.75H91.159C91.4975 23.7739 91.4804 22.7079 91.1106 21.7435C91.0748 21.6511 91.0204 21.5672 90.951 21.4971C90.8816 21.427 90.7986 21.3721 90.7071 21.3359C89.8511 20.9994 88.9104 20.9505 88.0246 21.1965C87.5857 20.2457 86.8205 19.4878 85.8708 19.0632C85.7808 19.0235 85.6837 19.0029 85.5855 19.0029C85.4873 19.0029 85.3901 19.0235 85.3002 19.0632C84.3545 19.4807 83.5905 20.2298 83.1492 21.1721C82.3029 20.9628 81.4136 21.0199 80.6004 21.3359C80.4154 21.4093 80.2696 21.5566 80.197 21.7435C79.8274 22.708 79.8105 23.774 80.1493 24.75H62.2598L59.0949 22.0094C59.234 21.6814 59.2905 21.3236 59.2592 20.9681C59.228 20.6126 59.11 20.2705 58.9158 19.9723C58.7216 19.6742 58.4572 19.4293 58.1464 19.2596C57.8356 19.0899 57.4879 19.0007 57.1346 19C55.9577 19 55 19.9674 55 21.1562C55 22.3451 55.9577 23.3125 57.1346 23.3125C57.4925 23.3125 57.8298 23.2227 58.1265 23.0645L60.0733 24.75H58.5577C58.369 24.75 58.188 24.8257 58.0546 24.9605C57.9211 25.0953 57.8462 25.2781 57.8462 25.4688V26.6899C57.8462 28.8512 58.737 30.9435 60.2903 32.4291L71.5874 43.2406C71.7196 43.3671 71.8948 43.4376 72.0769 43.4375H72.252L73.5277 47.9477C73.5702 48.0977 73.66 48.2298 73.7833 48.3238C73.9067 48.4178 74.057 48.4687 74.2115 48.4688V60.6875H69.9423C67.9806 60.6875 66.3846 62.2997 66.3846 64.2812C66.3846 64.4719 66.4596 64.6547 66.593 64.7895C66.7265 64.9243 66.9074 65 67.0962 65H82.75C82.9387 65 83.1197 64.9243 83.2531 64.7895C83.3866 64.6547 83.4615 64.4719 83.4615 64.2812C83.4615 62.2997 81.8656 60.6875 79.9038 60.6875H75.6346V48.4688C75.7891 48.4687 75.9395 48.4178 76.0628 48.3238C76.1862 48.2298 76.2759 48.0977 76.3184 47.9477L77.5942 43.4375H77.7692C77.9513 43.4376 78.1265 43.3671 78.2588 43.2406L89.5559 32.4291C90.3264 31.6893 90.9404 30.7992 91.3605 29.8127C91.7806 28.8262 91.9982 27.7638 92 26.6899V25.4688C92 25.2781 91.925 25.0953 91.7916 24.9605C91.6582 24.8257 91.4772 24.75 91.2885 24.75ZM56.4231 21.1562C56.4231 20.7602 56.7426 20.4375 57.1346 20.4375C57.5267 20.4375 57.8462 20.7602 57.8462 21.1562C57.8462 21.5523 57.5267 21.875 57.1346 21.875C56.7426 21.875 56.4231 21.5523 56.4231 21.1562ZM81.9168 63.5625H67.9294C68.0771 63.1424 68.3498 62.7787 68.7102 62.5214C69.0706 62.264 69.501 62.1255 69.9423 62.125H79.9038C80.8317 62.125 81.6229 62.7259 81.9168 63.5625ZM89.8846 22.5743C90.0756 23.3089 89.9745 24.0898 89.6028 24.75H86.3767L86.3867 24.7033L86.3924 24.6781C86.4052 24.6206 86.4222 24.5638 86.4386 24.5078L86.4593 24.4402L86.4721 24.3993C86.4804 24.3711 86.4899 24.3433 86.5005 24.3159L86.5012 24.3137C86.5261 24.249 86.5553 24.1858 86.6072 24.0744C86.6243 24.037 86.6407 23.9996 86.6606 23.9637C86.7005 23.8904 86.7474 23.8207 86.7944 23.7495L86.7958 23.7473L86.8719 23.628L86.8727 23.6273C86.9536 23.5171 87.0423 23.4128 87.1381 23.3154L87.1402 23.3132L87.2099 23.2449L87.2391 23.2183L87.2818 23.181L87.3537 23.1213L87.3579 23.1177C87.3995 23.0844 87.442 23.0523 87.4853 23.0214L87.496 23.0135L87.523 22.9963L87.6105 22.938L87.6525 22.9122L87.6995 22.8834L87.7486 22.8554L87.7912 22.8317L87.8411 22.8051C87.8617 22.7943 87.8816 22.7835 87.903 22.7734L87.9215 22.7641C88.5329 22.4679 89.2286 22.4006 89.8846 22.5743ZM85.5848 20.5266C86.0845 20.8227 86.4841 21.2644 86.7311 21.7938L86.6734 21.8333C86.3091 22.0911 85.9881 22.4063 85.7228 22.767C85.6788 22.828 85.6373 22.8909 85.5983 22.9553C85.5286 23.0585 85.4631 23.1645 85.4019 23.273C85.3594 23.3543 85.3195 23.437 85.2824 23.5209C85.2386 23.6133 85.1982 23.7073 85.1614 23.8027C85.1261 23.8975 85.0946 23.9936 85.0668 24.0909C85.0003 24.3061 84.952 24.5266 84.9223 24.75H84.7608C84.3799 24.2523 84.1732 23.6411 84.1731 23.0121C84.1731 22.7727 84.2072 22.5291 84.2777 22.2646C84.2892 22.2213 84.2965 22.177 84.2997 22.1323C84.5166 21.4549 84.9745 20.8828 85.5848 20.5266ZM81.423 22.5751C81.862 22.461 82.3216 22.4546 82.7635 22.5564C82.6836 23.3049 82.8012 24.0615 83.1043 24.7493H81.7048C81.3331 24.0896 81.232 23.3091 81.423 22.5751ZM75.0981 47.0312H74.7487L73.732 43.4375H76.1149L75.0981 47.0312ZM90.5769 26.6899C90.5762 27.5022 90.4239 28.3072 90.1279 29.0625H86.3077V30.5H89.346C89.1183 30.817 88.8614 31.1138 88.5768 31.3855L77.486 42H72.3608L61.2687 31.3855C60.986 31.1147 60.7285 30.8183 60.4995 30.5H63.5385V29.0625H59.7182C59.4223 28.3072 59.27 27.5022 59.2692 26.6899V26.1875H61.7333L66.7496 30.5302C66.51 30.9597 66.3843 31.4445 66.3846 31.9375C66.3851 32.3762 66.4849 32.8091 66.6764 33.2029C66.8679 33.5967 67.146 33.9411 67.4894 34.2097C67.8328 34.4783 68.2325 34.664 68.6579 34.7527C69.0833 34.8413 69.5231 34.8306 69.9437 34.7212L69.9423 34.8125C69.9423 36.3981 71.2188 37.6875 72.7885 37.6875C73.3812 37.6875 73.9319 37.5035 74.3887 37.1887L77.311 39.6748L78.2275 38.5752L75.3287 36.1091C75.5743 35.6156 75.6741 35.061 75.6162 34.5117C75.5583 33.9624 75.3451 33.4416 75.0021 33.0113C74.6591 32.5811 74.2008 32.2597 73.6818 32.0855C73.1629 31.9112 72.6052 31.8916 72.0755 32.0288L72.0769 31.9375C72.0769 30.3519 70.8004 29.0625 69.2308 29.0625C68.6829 29.0625 68.1713 29.2199 67.7365 29.4916L63.9206 26.1875H90.5769V26.6899ZM72.7885 36.25C72.0036 36.25 71.3654 35.6053 71.3654 34.8125C71.3654 34.0197 72.0036 33.375 72.7885 33.375C73.5733 33.375 74.2115 34.0197 74.2115 34.8125C74.2115 35.6053 73.5733 36.25 72.7885 36.25ZM69.2308 33.375C68.4459 33.375 67.8077 32.7303 67.8077 31.9375C67.8077 31.1447 68.4459 30.5 69.2308 30.5C70.0156 30.5 70.6538 31.1447 70.6538 31.9375C70.6538 32.7303 70.0156 33.375 69.2308 33.375Z" stroke="#F83103" stroke-width="2" mask="url(#path-1-outside-1_356_205)"/>
<path d="M72.7885 29.0625H84.8846V30.5H72.7885V29.0625ZM77.7692 31.9375H79.1923V33.375H77.7692V31.9375ZM80.6154 34.0938H82.0385V35.5312H80.6154V34.0938ZM83.4615 31.9375H84.8846V33.375H83.4615V31.9375Z" stroke="#F83103" stroke-width="2" mask="url(#path-1-outside-1_356_205)"/>
<path d="M51.3477 79.1465C50.1133 79.1465 49.1367 78.7578 48.418 77.9805C47.7031 77.1992 47.3457 76.1289 47.3457 74.7695C47.3457 73.4141 47.7051 72.3477 48.4238 71.5703C49.1426 70.7891 50.1172 70.3984 51.3477 70.3984C52.0195 70.3984 52.6289 70.5312 53.1758 70.7969C53.7266 71.0625 54.168 71.4375 54.5 71.9219C54.832 72.4062 55.0195 72.959 55.0625 73.5801H53.3398C53.2578 73.0605 53.0332 72.6445 52.666 72.332C52.3027 72.0195 51.8633 71.8633 51.3477 71.8633C50.6797 71.8633 50.1465 72.125 49.748 72.6484C49.3496 73.1719 49.1504 73.877 49.1504 74.7637C49.1504 75.666 49.3477 76.3789 49.7422 76.9023C50.1367 77.4219 50.6738 77.6816 51.3535 77.6816C51.877 77.6816 52.3164 77.5371 52.6719 77.248C53.0273 76.959 53.252 76.5645 53.3457 76.0645H55.0684C54.9707 77.0059 54.5859 77.7559 53.9141 78.3145C53.2422 78.8691 52.3867 79.1465 51.3477 79.1465Z" stroke="#F83103" stroke-width="2" mask="url(#path-1-outside-1_356_205)"/>
<path d="M61.1738 78.2676C60.6152 78.8457 59.8574 79.1348 58.9004 79.1348C57.9434 79.1348 57.1855 78.8438 56.627 78.2617C56.0684 77.6797 55.7891 76.877 55.7891 75.8535C55.7891 74.8418 56.0703 74.0449 56.6328 73.4629C57.1992 72.877 57.9551 72.584 58.9004 72.584C59.8496 72.584 60.6055 72.877 61.168 73.4629C61.7305 74.0449 62.0117 74.8418 62.0117 75.8535C62.0117 76.8809 61.7324 77.6855 61.1738 78.2676ZM58.9004 77.8281C59.3223 77.8281 59.6562 77.6562 59.9023 77.3125C60.1484 76.9688 60.2715 76.4844 60.2715 75.8594C60.2715 75.2422 60.1484 74.7598 59.9023 74.4121C59.6562 74.0645 59.3223 73.8906 58.9004 73.8906C58.4785 73.8906 58.1426 74.0645 57.8926 74.4121C57.6465 74.7598 57.5234 75.2422 57.5234 75.8594C57.5234 76.4844 57.6465 76.9688 57.8926 77.3125C58.1387 77.6562 58.4746 77.8281 58.9004 77.8281Z" stroke="#F83103" stroke-width="2" mask="url(#path-1-outside-1_356_205)"/>
<path d="M68.6035 75.0566H67.0156C66.9648 74.7168 66.8301 74.4434 66.6113 74.2363C66.3965 74.0293 66.1172 73.9258 65.7734 73.9258C65.3477 73.9258 65.0117 74.0977 64.7656 74.4414C64.5234 74.7812 64.4023 75.252 64.4023 75.8535C64.4023 76.4668 64.5234 76.9434 64.7656 77.2832C65.0117 77.623 65.3496 77.793 65.7793 77.793C66.1191 77.793 66.3965 77.6973 66.6113 77.5059C66.8262 77.3105 66.9609 77.041 67.0156 76.6973H68.6094C68.5664 77.4395 68.2871 78.0312 67.7715 78.4727C67.2559 78.9141 66.5859 79.1348 65.7617 79.1348C64.8086 79.1348 64.0547 78.8438 63.5 78.2617C62.9453 77.6758 62.668 76.873 62.668 75.8535C62.668 74.8496 62.9453 74.0547 63.5 73.4688C64.0586 72.8789 64.8086 72.584 65.75 72.584C66.5859 72.584 67.2598 72.8145 67.7715 73.2754C68.2871 73.7363 68.5645 74.3301 68.6035 75.0566Z" stroke="#F83103" stroke-width="2" mask="url(#path-1-outside-1_356_205)"/>
<path d="M71.2109 75.2383L73.3438 72.7188H75.2832L72.8867 75.4141L75.4004 79H73.4316L71.6328 76.4453L71.1875 76.9258V79H69.4766V70.5449H71.1875V75.2383H71.2109Z" stroke="#F83103" stroke-width="2" mask="url(#path-1-outside-1_356_205)"/>
<path d="M76.3496 71.2715H78.0605V72.7188H79.2207V74.0078H78.0605V77.0137C78.0605 77.4863 78.3066 77.7227 78.7988 77.7227C78.959 77.7227 79.0977 77.7129 79.2148 77.6934V78.9531C79.0156 79 78.7441 79.0234 78.4004 79.0234C77.6621 79.0234 77.1348 78.8906 76.8184 78.625C76.5059 78.3594 76.3496 77.9199 76.3496 77.3066V74.0078H75.4648V72.7188H76.3496V71.2715Z" stroke="#F83103" stroke-width="2" mask="url(#path-1-outside-1_356_205)"/>
<path d="M82.5254 77.8633C82.9043 77.8633 83.2246 77.7539 83.4863 77.5352C83.752 77.3125 83.8848 77.0332 83.8848 76.6973V76.2402L82.5605 76.3223C82.2402 76.3457 81.9922 76.4258 81.8164 76.5625C81.6445 76.6992 81.5586 76.8789 81.5586 77.1016C81.5586 77.3359 81.6465 77.5215 81.8223 77.6582C81.998 77.7949 82.2324 77.8633 82.5254 77.8633ZM81.9629 79.0996C81.3574 79.0996 80.8555 78.9219 80.457 78.5664C80.0586 78.2109 79.8594 77.7539 79.8594 77.1953C79.8594 76.625 80.0703 76.1777 80.4922 75.8535C80.9141 75.5293 81.5176 75.3438 82.3027 75.2969L83.8848 75.2031V74.7871C83.8848 74.498 83.7891 74.2715 83.5977 74.1074C83.4102 73.9434 83.1543 73.8613 82.8301 73.8613C82.5176 73.8613 82.2617 73.9316 82.0625 74.0723C81.8672 74.2129 81.748 74.4023 81.7051 74.6406H80.1406C80.1719 74.0234 80.4355 73.5273 80.9316 73.1523C81.4277 72.7734 82.0859 72.584 82.9062 72.584C83.7109 72.584 84.3555 72.7754 84.8398 73.1582C85.3242 73.541 85.5664 74.0488 85.5664 74.6816V79H83.9141V78.0391H83.8789C83.707 78.3672 83.4453 78.627 83.0938 78.8184C82.7422 79.0059 82.3652 79.0996 81.9629 79.0996Z" stroke="#F83103" stroke-width="2" mask="url(#path-1-outside-1_356_205)"/>
<path d="M86.7031 79V72.7188H88.4141V79H86.7031ZM88.209 71.7695C88.0332 71.9414 87.8164 72.0273 87.5586 72.0273C87.3008 72.0273 87.084 71.9414 86.9082 71.7695C86.7324 71.5977 86.6445 71.3887 86.6445 71.1426C86.6445 70.8926 86.7324 70.6836 86.9082 70.5156C87.084 70.3438 87.3008 70.2578 87.5586 70.2578C87.8164 70.2578 88.0332 70.3438 88.209 70.5156C88.3848 70.6836 88.4727 70.8926 88.4727 71.1426C88.4727 71.3887 88.3848 71.5977 88.209 71.7695Z" stroke="#F83103" stroke-width="2" mask="url(#path-1-outside-1_356_205)"/>
<path d="M89.5977 79V70.5449H91.3086V79H89.5977Z" stroke="#F83103" stroke-width="2" mask="url(#path-1-outside-1_356_205)"/>
<path d="M92.3574 74.5645C92.3574 73.9668 92.5977 73.4883 93.0781 73.1289C93.5586 72.7656 94.2012 72.584 95.0059 72.584C95.791 72.584 96.4219 72.7676 96.8984 73.1348C97.375 73.502 97.6191 73.9902 97.6309 74.5996H96.0547C96.0352 74.3457 95.9297 74.1465 95.7383 74.002C95.5508 73.8574 95.2988 73.7852 94.9824 73.7852C94.6855 73.7852 94.4473 73.8477 94.2676 73.9727C94.0918 74.0938 94.0039 74.2559 94.0039 74.459C94.0039 74.7637 94.2773 74.9805 94.8242 75.1094L96.0254 75.3672C96.6543 75.5078 97.1055 75.7129 97.3789 75.9824C97.6562 76.248 97.7949 76.6152 97.7949 77.084C97.7949 77.7012 97.5371 78.1973 97.0215 78.5723C96.5059 78.9473 95.832 79.1348 95 79.1348C94.1719 79.1348 93.5098 78.9512 93.0137 78.584C92.5176 78.2168 92.2461 77.7227 92.1992 77.1016H93.8691C93.9121 77.3672 94.0332 77.5723 94.2324 77.7168C94.4355 77.8613 94.707 77.9336 95.0469 77.9336C95.3711 77.9336 95.625 77.875 95.8086 77.7578C95.9961 77.6367 96.0898 77.4727 96.0898 77.2656C96.0898 77.1055 96.0312 76.9785 95.9141 76.8848C95.7969 76.7871 95.5977 76.7051 95.3164 76.6387L94.1562 76.3809C92.957 76.1074 92.3574 75.502 92.3574 74.5645Z" stroke="#F83103" stroke-width="2" mask="url(#path-1-outside-1_356_205)"/>
</g>
<defs>
<filter id="filter0_d_356_205" x="0" y="0" width="146" height="109" filterUnits="userSpaceOnUse" color-interpolation-filters="sRGB">
<feFlood flood-opacity="0" result="BackgroundImageFix"/>
<feColorMatrix in="SourceAlpha" type="matrix" values="0 0 0 0 0 0 0 0 0 0 0 0 0 0 0 0 0 0 127 0" result="hardAlpha"/>
<feOffset/>
<feGaussianBlur stdDeviation="5"/>
<feComposite in2="hardAlpha" operator="out"/>
<feColorMatrix type="matrix" values="0 0 0 0 0.972549 0 0 0 0 0.192157 0 0 0 0 0.0117647 0 0 0 0.25 0"/>
<feBlend mode="normal" in2="BackgroundImageFix" result="effect1_dropShadow_356_205"/>
<feBlend mode="normal" in="SourceGraphic" in2="effect1_dropShadow_356_205" result="shape"/>
</filter>
</defs>
</svg>
