<svg width="124" height="87" viewBox="0 0 124 87" fill="none" xmlns="http://www.w3.org/2000/svg">
<path d="M0 25C0 11.1929 11.1929 0 25 0H99C112.807 0 124 11.1929 124 25V62C124 75.8071 112.807 87 99 87H25C11.1929 87 0 75.8071 0 62V25Z" fill="#2E3235"/>
<path d="M78.2885 13.75H78.159C78.4975 12.7739 78.4804 11.7079 78.1106 10.7435C78.0748 10.6511 78.0204 10.5672 77.951 10.4971C77.8816 10.427 77.7986 10.3721 77.7071 10.3359C76.8511 9.99938 75.9104 9.95049 75.0246 10.1965C74.5857 9.24572 73.8205 8.48784 72.8708 8.06325C72.7808 8.02347 72.6837 8.00293 72.5855 8.00293C72.4873 8.00293 72.3901 8.02347 72.3002 8.06325C71.3545 8.48069 70.5905 9.22977 70.1492 10.1721C69.3029 9.96275 68.4136 10.0199 67.6004 10.3359C67.4154 10.4093 67.2696 10.5566 67.197 10.7435C66.8274 11.708 66.8105 12.774 67.1493 13.75H49.2598L46.0949 11.0094C46.234 10.6814 46.2905 10.3236 46.2592 9.96807C46.228 9.61258 46.11 9.27046 45.9158 8.97231C45.7216 8.67417 45.4572 8.4293 45.1464 8.25962C44.8356 8.08994 44.4879 8.00074 44.1346 8C42.9577 8 42 8.96744 42 10.1562C42 11.3451 42.9577 12.3125 44.1346 12.3125C44.4925 12.3125 44.8298 12.2227 45.1265 12.0645L47.0733 13.75H45.5577C45.369 13.75 45.188 13.8257 45.0546 13.9605C44.9211 14.0953 44.8462 14.2781 44.8462 14.4688V15.6899C44.8462 17.8512 45.737 19.9435 47.2903 21.4291L58.5874 32.2406C58.7196 32.3671 58.8948 32.4376 59.0769 32.4375H59.252L60.5277 36.9477C60.5702 37.0977 60.66 37.2298 60.7833 37.3238C60.9067 37.4178 61.057 37.4687 61.2115 37.4688V49.6875H56.9423C54.9806 49.6875 53.3846 51.2997 53.3846 53.2812C53.3846 53.4719 53.4596 53.6547 53.593 53.7895C53.7265 53.9243 53.9074 54 54.0962 54H69.75C69.9387 54 70.1197 53.9243 70.2531 53.7895C70.3866 53.6547 70.4615 53.4719 70.4615 53.2812C70.4615 51.2997 68.8656 49.6875 66.9038 49.6875H62.6346V37.4688C62.7891 37.4687 62.9395 37.4178 63.0628 37.3238C63.1862 37.2298 63.2759 37.0977 63.3184 36.9477L64.5942 32.4375H64.7692C64.9513 32.4376 65.1265 32.3671 65.2588 32.2406L76.5559 21.4291C77.3264 20.6893 77.9404 19.7992 78.3605 18.8127C78.7806 17.8262 78.9982 16.7638 79 15.6899V14.4688C79 14.2781 78.925 14.0953 78.7916 13.9605C78.6582 13.8257 78.4772 13.75 78.2885 13.75ZM43.4231 10.1562C43.4231 9.76022 43.7426 9.4375 44.1346 9.4375C44.5267 9.4375 44.8462 9.76022 44.8462 10.1562C44.8462 10.5523 44.5267 10.875 44.1346 10.875C43.7426 10.875 43.4231 10.5523 43.4231 10.1562ZM68.9168 52.5625H54.9294C55.0771 52.1424 55.3498 51.7787 55.7102 51.5214C56.0706 51.264 56.501 51.1255 56.9423 51.125H66.9038C67.8317 51.125 68.6229 51.7259 68.9168 52.5625ZM76.8846 11.5743C77.0756 12.3089 76.9745 13.0898 76.6028 13.75H73.3767L73.3867 13.7033L73.3924 13.6781C73.4052 13.6206 73.4222 13.5638 73.4386 13.5078L73.4593 13.4402L73.4721 13.3993C73.4804 13.3711 73.4899 13.3433 73.5005 13.3159L73.5012 13.3137C73.5261 13.249 73.5553 13.1858 73.6072 13.0744C73.6243 13.037 73.6407 12.9996 73.6606 12.9637C73.7005 12.8904 73.7474 12.8207 73.7944 12.7495L73.7958 12.7473L73.8719 12.628L73.8727 12.6273C73.9536 12.5171 74.0423 12.4128 74.1381 12.3154L74.1402 12.3132L74.2099 12.2449L74.2391 12.2183L74.2818 12.181L74.3537 12.1213L74.3579 12.1177C74.3995 12.0844 74.442 12.0523 74.4853 12.0214L74.496 12.0135L74.523 11.9963L74.6105 11.938L74.6525 11.9122L74.6995 11.8834L74.7486 11.8554L74.7912 11.8317L74.8411 11.8051C74.8617 11.7943 74.8816 11.7835 74.903 11.7734L74.9215 11.7641C75.5329 11.4679 76.2286 11.4006 76.8846 11.5743ZM72.5848 9.52662C73.0845 9.82267 73.4841 10.2644 73.7311 10.7938L73.6734 10.8333C73.3091 11.0911 72.9881 11.4063 72.7228 11.767C72.6788 11.828 72.6373 11.8909 72.5983 11.9553C72.5286 12.0585 72.4631 12.1645 72.4019 12.273C72.3594 12.3543 72.3195 12.437 72.2824 12.5209C72.2386 12.6133 72.1982 12.7073 72.1614 12.8027C72.1261 12.8975 72.0946 12.9936 72.0668 13.0909C72.0003 13.3061 71.952 13.5266 71.9223 13.75H71.7608C71.3799 13.2523 71.1732 12.6411 71.1731 12.0121C71.1731 11.7727 71.2072 11.5291 71.2777 11.2646C71.2892 11.2213 71.2965 11.177 71.2997 11.1323C71.5166 10.4549 71.9745 9.88282 72.5848 9.52662ZM68.423 11.5751C68.862 11.461 69.3216 11.4546 69.7635 11.5564C69.6836 12.3049 69.8012 13.0615 70.1043 13.7493H68.7048C68.3331 13.0896 68.232 12.3091 68.423 11.5751ZM62.0981 36.0312H61.7487L60.732 32.4375H63.1149L62.0981 36.0312ZM77.5769 15.6899C77.5762 16.5022 77.4239 17.3072 77.1279 18.0625H73.3077V19.5H76.346C76.1183 19.817 75.8614 20.1138 75.5768 20.3855L64.486 31H59.3608L48.2687 20.3855C47.986 20.1147 47.7285 19.8183 47.4995 19.5H50.5385V18.0625H46.7182C46.4223 17.3072 46.27 16.5022 46.2692 15.6899V15.1875H48.7333L53.7496 19.5302C53.51 19.9597 53.3843 20.4445 53.3846 20.9375C53.3851 21.3762 53.4849 21.8091 53.6764 22.2029C53.8679 22.5967 54.146 22.9411 54.4894 23.2097C54.8328 23.4783 55.2325 23.664 55.6579 23.7527C56.0833 23.8413 56.5231 23.8306 56.9437 23.7212L56.9423 23.8125C56.9423 25.3981 58.2188 26.6875 59.7885 26.6875C60.3812 26.6875 60.9319 26.5035 61.3887 26.1887L64.311 28.6748L65.2275 27.5752L62.3287 25.1091C62.5743 24.6156 62.6741 24.061 62.6162 23.5117C62.5583 22.9624 62.3451 22.4416 62.0021 22.0113C61.6591 21.5811 61.2008 21.2597 60.6818 21.0855C60.1629 20.9112 59.6052 20.8916 59.0755 21.0288L59.0769 20.9375C59.0769 19.3519 57.8004 18.0625 56.2308 18.0625C55.6829 18.0625 55.1713 18.2199 54.7365 18.4916L50.9206 15.1875H77.5769V15.6899ZM59.7885 25.25C59.0036 25.25 58.3654 24.6053 58.3654 23.8125C58.3654 23.0197 59.0036 22.375 59.7885 22.375C60.5733 22.375 61.2115 23.0197 61.2115 23.8125C61.2115 24.6053 60.5733 25.25 59.7885 25.25ZM56.2308 22.375C55.4459 22.375 54.8077 21.7303 54.8077 20.9375C54.8077 20.1447 55.4459 19.5 56.2308 19.5C57.0156 19.5 57.6538 20.1447 57.6538 20.9375C57.6538 21.7303 57.0156 22.375 56.2308 22.375Z" fill="white"/>
<path d="M59.7885 18.0625H71.8846V19.5H59.7885V18.0625ZM64.7692 20.9375H66.1923V22.375H64.7692V20.9375ZM67.6154 23.0938H69.0385V24.5312H67.6154V23.0938ZM70.4615 20.9375H71.8846V22.375H70.4615V20.9375Z" fill="white"/>
<path d="M40.3477 68.1465C39.1133 68.1465 38.1367 67.7578 37.418 66.9805C36.7031 66.1992 36.3457 65.1289 36.3457 63.7695C36.3457 62.4141 36.7051 61.3477 37.4238 60.5703C38.1426 59.7891 39.1172 59.3984 40.3477 59.3984C41.0195 59.3984 41.6289 59.5312 42.1758 59.7969C42.7266 60.0625 43.168 60.4375 43.5 60.9219C43.832 61.4062 44.0195 61.959 44.0625 62.5801H42.3398C42.2578 62.0605 42.0332 61.6445 41.666 61.332C41.3027 61.0195 40.8633 60.8633 40.3477 60.8633C39.6797 60.8633 39.1465 61.125 38.748 61.6484C38.3496 62.1719 38.1504 62.877 38.1504 63.7637C38.1504 64.666 38.3477 65.3789 38.7422 65.9023C39.1367 66.4219 39.6738 66.6816 40.3535 66.6816C40.877 66.6816 41.3164 66.5371 41.6719 66.248C42.0273 65.959 42.252 65.5645 42.3457 65.0645H44.0684C43.9707 66.0059 43.5859 66.7559 42.9141 67.3145C42.2422 67.8691 41.3867 68.1465 40.3477 68.1465Z" fill="white"/>
<path d="M50.1738 67.2676C49.6152 67.8457 48.8574 68.1348 47.9004 68.1348C46.9434 68.1348 46.1855 67.8438 45.627 67.2617C45.0684 66.6797 44.7891 65.877 44.7891 64.8535C44.7891 63.8418 45.0703 63.0449 45.6328 62.4629C46.1992 61.877 46.9551 61.584 47.9004 61.584C48.8496 61.584 49.6055 61.877 50.168 62.4629C50.7305 63.0449 51.0117 63.8418 51.0117 64.8535C51.0117 65.8809 50.7324 66.6855 50.1738 67.2676ZM47.9004 66.8281C48.3223 66.8281 48.6562 66.6562 48.9023 66.3125C49.1484 65.9688 49.2715 65.4844 49.2715 64.8594C49.2715 64.2422 49.1484 63.7598 48.9023 63.4121C48.6562 63.0645 48.3223 62.8906 47.9004 62.8906C47.4785 62.8906 47.1426 63.0645 46.8926 63.4121C46.6465 63.7598 46.5234 64.2422 46.5234 64.8594C46.5234 65.4844 46.6465 65.9688 46.8926 66.3125C47.1387 66.6562 47.4746 66.8281 47.9004 66.8281Z" fill="white"/>
<path d="M57.6035 64.0566H56.0156C55.9648 63.7168 55.8301 63.4434 55.6113 63.2363C55.3965 63.0293 55.1172 62.9258 54.7734 62.9258C54.3477 62.9258 54.0117 63.0977 53.7656 63.4414C53.5234 63.7812 53.4023 64.252 53.4023 64.8535C53.4023 65.4668 53.5234 65.9434 53.7656 66.2832C54.0117 66.623 54.3496 66.793 54.7793 66.793C55.1191 66.793 55.3965 66.6973 55.6113 66.5059C55.8262 66.3105 55.9609 66.041 56.0156 65.6973H57.6094C57.5664 66.4395 57.2871 67.0312 56.7715 67.4727C56.2559 67.9141 55.5859 68.1348 54.7617 68.1348C53.8086 68.1348 53.0547 67.8438 52.5 67.2617C51.9453 66.6758 51.668 65.873 51.668 64.8535C51.668 63.8496 51.9453 63.0547 52.5 62.4688C53.0586 61.8789 53.8086 61.584 54.75 61.584C55.5859 61.584 56.2598 61.8145 56.7715 62.2754C57.2871 62.7363 57.5645 63.3301 57.6035 64.0566Z" fill="white"/>
<path d="M60.2109 64.2383L62.3438 61.7188H64.2832L61.8867 64.4141L64.4004 68H62.4316L60.6328 65.4453L60.1875 65.9258V68H58.4766V59.5449H60.1875V64.2383H60.2109Z" fill="white"/>
<path d="M65.3496 60.2715H67.0605V61.7188H68.2207V63.0078H67.0605V66.0137C67.0605 66.4863 67.3066 66.7227 67.7988 66.7227C67.959 66.7227 68.0977 66.7129 68.2148 66.6934V67.9531C68.0156 68 67.7441 68.0234 67.4004 68.0234C66.6621 68.0234 66.1348 67.8906 65.8184 67.625C65.5059 67.3594 65.3496 66.9199 65.3496 66.3066V63.0078H64.4648V61.7188H65.3496V60.2715Z" fill="white"/>
<path d="M71.5254 66.8633C71.9043 66.8633 72.2246 66.7539 72.4863 66.5352C72.752 66.3125 72.8848 66.0332 72.8848 65.6973V65.2402L71.5605 65.3223C71.2402 65.3457 70.9922 65.4258 70.8164 65.5625C70.6445 65.6992 70.5586 65.8789 70.5586 66.1016C70.5586 66.3359 70.6465 66.5215 70.8223 66.6582C70.998 66.7949 71.2324 66.8633 71.5254 66.8633ZM70.9629 68.0996C70.3574 68.0996 69.8555 67.9219 69.457 67.5664C69.0586 67.2109 68.8594 66.7539 68.8594 66.1953C68.8594 65.625 69.0703 65.1777 69.4922 64.8535C69.9141 64.5293 70.5176 64.3438 71.3027 64.2969L72.8848 64.2031V63.7871C72.8848 63.498 72.7891 63.2715 72.5977 63.1074C72.4102 62.9434 72.1543 62.8613 71.8301 62.8613C71.5176 62.8613 71.2617 62.9316 71.0625 63.0723C70.8672 63.2129 70.748 63.4023 70.7051 63.6406H69.1406C69.1719 63.0234 69.4355 62.5273 69.9316 62.1523C70.4277 61.7734 71.0859 61.584 71.9062 61.584C72.7109 61.584 73.3555 61.7754 73.8398 62.1582C74.3242 62.541 74.5664 63.0488 74.5664 63.6816V68H72.9141V67.0391H72.8789C72.707 67.3672 72.4453 67.627 72.0938 67.8184C71.7422 68.0059 71.3652 68.0996 70.9629 68.0996Z" fill="white"/>
<path d="M75.7031 68V61.7188H77.4141V68H75.7031ZM77.209 60.7695C77.0332 60.9414 76.8164 61.0273 76.5586 61.0273C76.3008 61.0273 76.084 60.9414 75.9082 60.7695C75.7324 60.5977 75.6445 60.3887 75.6445 60.1426C75.6445 59.8926 75.7324 59.6836 75.9082 59.5156C76.084 59.3438 76.3008 59.2578 76.5586 59.2578C76.8164 59.2578 77.0332 59.3438 77.209 59.5156C77.3848 59.6836 77.4727 59.8926 77.4727 60.1426C77.4727 60.3887 77.3848 60.5977 77.209 60.7695Z" fill="white"/>
<path d="M78.5977 68V59.5449H80.3086V68H78.5977Z" fill="white"/>
<path d="M81.3574 63.5645C81.3574 62.9668 81.5977 62.4883 82.0781 62.1289C82.5586 61.7656 83.2012 61.584 84.0059 61.584C84.791 61.584 85.4219 61.7676 85.8984 62.1348C86.375 62.502 86.6191 62.9902 86.6309 63.5996H85.0547C85.0352 63.3457 84.9297 63.1465 84.7383 63.002C84.5508 62.8574 84.2988 62.7852 83.9824 62.7852C83.6855 62.7852 83.4473 62.8477 83.2676 62.9727C83.0918 63.0938 83.0039 63.2559 83.0039 63.459C83.0039 63.7637 83.2773 63.9805 83.8242 64.1094L85.0254 64.3672C85.6543 64.5078 86.1055 64.7129 86.3789 64.9824C86.6562 65.248 86.7949 65.6152 86.7949 66.084C86.7949 66.7012 86.5371 67.1973 86.0215 67.5723C85.5059 67.9473 84.832 68.1348 84 68.1348C83.1719 68.1348 82.5098 67.9512 82.0137 67.584C81.5176 67.2168 81.2461 66.7227 81.1992 66.1016H82.8691C82.9121 66.3672 83.0332 66.5723 83.2324 66.7168C83.4355 66.8613 83.707 66.9336 84.0469 66.9336C84.3711 66.9336 84.625 66.875 84.8086 66.7578C84.9961 66.6367 85.0898 66.4727 85.0898 66.2656C85.0898 66.1055 85.0312 65.9785 84.9141 65.8848C84.7969 65.7871 84.5977 65.7051 84.3164 65.6387L83.1562 65.3809C81.957 65.1074 81.3574 64.502 81.3574 63.5645Z" fill="white"/>
</svg>
