<svg width="124" height="87" viewBox="0 0 124 87" fill="none" xmlns="http://www.w3.org/2000/svg">
<path d="M0 25C0 11.1929 11.1929 0 25 0H99C112.807 0 124 11.1929 124 25V62C124 75.8071 112.807 87 99 87H25C11.1929 87 0 75.8071 0 62V25Z" fill="#2E3235"/>
<path d="M44.6543 61.5449H47.8828C49.1562 61.5449 50.1465 61.9102 50.8535 62.6406C51.5605 63.3711 51.9141 64.4043 51.9141 65.7402C51.9141 67.0801 51.5586 68.125 50.8477 68.875C50.1406 69.625 49.1523 70 47.8828 70H44.6543V61.5449ZM46.4238 63.0039V68.5352H47.6719C48.4648 68.5352 49.0684 68.2988 49.4824 67.8262C49.9004 67.3496 50.1094 66.6562 50.1094 65.7461C50.1094 64.8633 49.8984 64.1855 49.4766 63.7129C49.0547 63.2402 48.4531 63.0039 47.6719 63.0039H46.4238Z" fill="white"/>
<path d="M52.9102 70V63.7188H54.5625V64.8496H54.5977C54.707 64.4512 54.8906 64.1465 55.1484 63.9355C55.4062 63.7246 55.7207 63.6191 56.0918 63.6191C56.2715 63.6191 56.4336 63.6406 56.5781 63.6836V65.1895C56.418 65.123 56.2109 65.0898 55.957 65.0898C55.5352 65.0898 55.207 65.2129 54.9727 65.459C54.7383 65.7051 54.6211 66.0488 54.6211 66.4902V70H52.9102Z" fill="white"/>
<path d="M57.3105 70V63.7188H59.0215V70H57.3105ZM58.8164 62.7695C58.6406 62.9414 58.4238 63.0273 58.166 63.0273C57.9082 63.0273 57.6914 62.9414 57.5156 62.7695C57.3398 62.5977 57.252 62.3887 57.252 62.1426C57.252 61.8926 57.3398 61.6836 57.5156 61.5156C57.6914 61.3438 57.9082 61.2578 58.166 61.2578C58.4238 61.2578 58.6406 61.3438 58.8164 61.5156C58.9922 61.6836 59.0801 61.8926 59.0801 62.1426C59.0801 62.3887 58.9922 62.5977 58.8164 62.7695Z" fill="white"/>
<path d="M60.1641 70V63.7188H61.8164V64.8379H61.8516C62.0234 64.4395 62.2734 64.1348 62.6016 63.9238C62.9336 63.709 63.3379 63.6016 63.8145 63.6016C64.5098 63.6016 65.0469 63.8086 65.4258 64.2227C65.8047 64.6367 65.9941 65.2129 65.9941 65.9512V70H64.2832V66.3086C64.2832 65.8945 64.1855 65.5762 63.9902 65.3535C63.7949 65.1309 63.5078 65.0195 63.1289 65.0195C62.75 65.0195 62.4453 65.1465 62.2148 65.4004C61.9883 65.6543 61.875 65.9863 61.875 66.3965V70H60.1641Z" fill="white"/>
<path d="M68.8535 66.2383L70.9863 63.7188H72.9258L70.5293 66.4141L73.043 70H71.0742L69.2754 67.4453L68.8301 67.9258V70H67.1191V61.5449H68.8301V66.2383H68.8535Z" fill="white"/>
<path d="M73.3125 65.5645C73.3125 64.9668 73.5527 64.4883 74.0332 64.1289C74.5137 63.7656 75.1562 63.584 75.9609 63.584C76.7461 63.584 77.377 63.7676 77.8535 64.1348C78.3301 64.502 78.5742 64.9902 78.5859 65.5996H77.0098C76.9902 65.3457 76.8848 65.1465 76.6934 65.002C76.5059 64.8574 76.2539 64.7852 75.9375 64.7852C75.6406 64.7852 75.4023 64.8477 75.2227 64.9727C75.0469 65.0938 74.959 65.2559 74.959 65.459C74.959 65.7637 75.2324 65.9805 75.7793 66.1094L76.9805 66.3672C77.6094 66.5078 78.0605 66.7129 78.334 66.9824C78.6113 67.248 78.75 67.6152 78.75 68.084C78.75 68.7012 78.4922 69.1973 77.9766 69.5723C77.4609 69.9473 76.7871 70.1348 75.9551 70.1348C75.127 70.1348 74.4648 69.9512 73.9688 69.584C73.4727 69.2168 73.2012 68.7227 73.1543 68.1016H74.8242C74.8672 68.3672 74.9883 68.5723 75.1875 68.7168C75.3906 68.8613 75.6621 68.9336 76.002 68.9336C76.3262 68.9336 76.5801 68.875 76.7637 68.7578C76.9512 68.6367 77.0449 68.4727 77.0449 68.2656C77.0449 68.1055 76.9863 67.9785 76.8691 67.8848C76.752 67.7871 76.5527 67.7051 76.2715 67.6387L75.1113 67.3809C73.9121 67.1074 73.3125 66.502 73.3125 65.5645Z" fill="white"/>
<path d="M73.6182 22.4221H73.4708C73.005 19.9929 71.5093 17.7815 69.253 16.186C66.9967 14.5905 64.1281 13.7158 61.1636 13.7194C60.0271 13.7194 58.9259 13.8507 57.8752 14.0867L57.3813 11.8239C56.8271 9.1156 53.7912 8.31348 52.4112 8.37195L43.7576 8.00199C43.3681 7.97435 43.0215 8.23853 43.001 8.5681C42.9961 8.6465 43.0098 8.72493 43.0414 8.79892C43.0731 8.87291 43.122 8.941 43.1853 8.9993C43.2487 9.0576 43.3253 9.10497 43.4107 9.1387C43.4961 9.17243 43.5888 9.19185 43.6833 9.19587L52.3735 9.56743C52.3984 9.56849 52.4253 9.56796 52.4529 9.56743C53.2639 9.52225 55.5536 10.0395 55.961 12.0312L56.494 14.4705C54.5016 15.1358 52.7509 16.2178 51.4123 17.6113C50.0737 19.0048 49.1929 20.6622 48.8557 22.4221H48.7109C48.3448 22.4227 47.9939 22.5436 47.735 22.7584C47.4762 22.9732 47.3304 23.2644 47.3297 23.5681V26.7474C47.3304 27.0512 47.4762 27.3423 47.735 27.5571C47.9939 27.7719 48.3448 27.8929 48.7109 27.8934H48.9313L51.0973 43.8981C51.0883 43.9353 51.0704 43.9699 51.0704 44.0092C51.0704 44.1028 51.1012 44.1884 51.1473 44.267L52.1915 51.981C52.2292 52.2613 52.3902 52.5203 52.6436 52.7083C52.897 52.8963 53.2251 53.0002 53.565 53H68.6987C69.4028 53 69.9928 52.562 70.0716 51.981L73.3331 27.8934H73.6188C73.9849 27.8929 74.3358 27.7719 74.5947 27.5571C74.8536 27.3423 74.9993 27.0512 75 26.7474V23.5681C74.9993 23.2643 74.8535 22.973 74.5945 22.7582C74.3355 22.5434 73.9844 22.4225 73.6182 22.4221ZM61.1636 14.9154C66.5436 14.9154 71.0787 18.0984 72.0223 22.4221H59.6972L58.134 15.2673C59.1194 15.0341 60.139 14.9157 61.1636 14.9154ZM56.7579 15.6788L58.2314 22.4221H50.3036C50.973 19.355 53.4548 16.8689 56.7579 15.6788ZM69.7808 43.4117H52.4824L50.9807 32.3197H71.0101C71.1088 32.3197 71.203 32.3032 71.2888 32.2729L69.7808 43.4117ZM68.6443 51.8045H53.6176L52.6438 44.6078H69.6187L68.6443 51.8045ZM73.5579 26.698H72.688C72.3215 26.698 72.0127 26.9271 71.9717 27.229L71.4272 31.2476C71.3078 31.1702 71.1615 31.127 71.0101 31.1242H50.8302C50.8263 31.1242 50.8231 31.1258 50.8193 31.1258L50.3817 27.8945H70.2843C70.4754 27.8945 70.6588 27.8315 70.7939 27.7193C70.9291 27.6072 71.005 27.4551 71.005 27.2965C71.005 27.1379 70.9291 26.9858 70.7939 26.8736C70.6588 26.7615 70.4754 26.6985 70.2843 26.6985H48.7712V23.6186H73.5586L73.5579 26.698Z" fill="white"/>
<path d="M63.6192 17.477C65.2161 17.8455 66.5717 18.7245 67.3887 19.9211C67.4825 20.0593 67.6386 20.161 67.8227 20.2037C68.0068 20.2464 68.2039 20.2267 68.3705 20.1489C68.5371 20.0711 68.6596 19.9415 68.711 19.7888C68.7625 19.636 68.7388 19.4725 68.645 19.3343C67.6385 17.8605 65.969 16.7779 64.0023 16.3235C63.8217 16.2906 63.6327 16.3164 63.4744 16.3957C63.316 16.4749 63.2004 16.6015 63.1513 16.7495C63.1021 16.8974 63.1233 17.0553 63.2103 17.1907C63.2974 17.326 63.4437 17.4285 63.6192 17.477ZM68.2196 20.5473C68.1203 20.6311 68.0529 20.7373 68.0258 20.8527C67.9986 20.968 68.0128 21.0875 68.0667 21.1962C68.1206 21.3049 68.2118 21.398 68.329 21.4641C68.4461 21.5302 68.5841 21.5663 68.7257 21.5679C68.9167 21.568 69.1 21.5055 69.2357 21.394C69.3715 21.2825 69.4486 21.131 69.4502 20.9725C69.4502 20.8131 69.3734 20.6589 69.2388 20.5473C68.9698 20.324 68.4893 20.324 68.2196 20.5473Z" fill="white"/>
</svg>
