<svg width="146" height="109" viewBox="0 0 146 109" fill="none" xmlns="http://www.w3.org/2000/svg">
<g filter="url(#filter0_d_356_206)">
<mask id="path-1-outside-1_356_206" maskUnits="userSpaceOnUse" x="10" y="10" width="126" height="89" fill="black">
<rect fill="white" x="10" y="10" width="126" height="89"/>
<path d="M11 36C11 22.1929 22.1929 11 36 11H110C123.807 11 135 22.1929 135 36V73C135 86.8071 123.807 98 110 98H36C22.1929 98 11 86.8071 11 73V36Z"/>
<path d="M55.6543 72.5449H58.8828C60.1562 72.5449 61.1465 72.9102 61.8535 73.6406C62.5605 74.3711 62.9141 75.4043 62.9141 76.7402C62.9141 78.0801 62.5586 79.125 61.8477 79.875C61.1406 80.625 60.1523 81 58.8828 81H55.6543V72.5449ZM57.4238 74.0039V79.5352H58.6719C59.4648 79.5352 60.0684 79.2988 60.4824 78.8262C60.9004 78.3496 61.1094 77.6562 61.1094 76.7461C61.1094 75.8633 60.8984 75.1855 60.4766 74.7129C60.0547 74.2402 59.4531 74.0039 58.6719 74.0039H57.4238Z"/>
<path d="M63.9102 81V74.7188H65.5625V75.8496H65.5977C65.707 75.4512 65.8906 75.1465 66.1484 74.9355C66.4062 74.7246 66.7207 74.6191 67.0918 74.6191C67.2715 74.6191 67.4336 74.6406 67.5781 74.6836V76.1895C67.418 76.123 67.2109 76.0898 66.957 76.0898C66.5352 76.0898 66.207 76.2129 65.9727 76.459C65.7383 76.7051 65.6211 77.0488 65.6211 77.4902V81H63.9102Z"/>
<path d="M68.3105 81V74.7188H70.0215V81H68.3105ZM69.8164 73.7695C69.6406 73.9414 69.4238 74.0273 69.166 74.0273C68.9082 74.0273 68.6914 73.9414 68.5156 73.7695C68.3398 73.5977 68.252 73.3887 68.252 73.1426C68.252 72.8926 68.3398 72.6836 68.5156 72.5156C68.6914 72.3438 68.9082 72.2578 69.166 72.2578C69.4238 72.2578 69.6406 72.3438 69.8164 72.5156C69.9922 72.6836 70.0801 72.8926 70.0801 73.1426C70.0801 73.3887 69.9922 73.5977 69.8164 73.7695Z"/>
<path d="M71.1641 81V74.7188H72.8164V75.8379H72.8516C73.0234 75.4395 73.2734 75.1348 73.6016 74.9238C73.9336 74.709 74.3379 74.6016 74.8145 74.6016C75.5098 74.6016 76.0469 74.8086 76.4258 75.2227C76.8047 75.6367 76.9941 76.2129 76.9941 76.9512V81H75.2832V77.3086C75.2832 76.8945 75.1855 76.5762 74.9902 76.3535C74.7949 76.1309 74.5078 76.0195 74.1289 76.0195C73.75 76.0195 73.4453 76.1465 73.2148 76.4004C72.9883 76.6543 72.875 76.9863 72.875 77.3965V81H71.1641Z"/>
<path d="M79.8535 77.2383L81.9863 74.7188H83.9258L81.5293 77.4141L84.043 81H82.0742L80.2754 78.4453L79.8301 78.9258V81H78.1191V72.5449H79.8301V77.2383H79.8535Z"/>
<path d="M84.3125 76.5645C84.3125 75.9668 84.5527 75.4883 85.0332 75.1289C85.5137 74.7656 86.1562 74.584 86.9609 74.584C87.7461 74.584 88.377 74.7676 88.8535 75.1348C89.3301 75.502 89.5742 75.9902 89.5859 76.5996H88.0098C87.9902 76.3457 87.8848 76.1465 87.6934 76.002C87.5059 75.8574 87.2539 75.7852 86.9375 75.7852C86.6406 75.7852 86.4023 75.8477 86.2227 75.9727C86.0469 76.0938 85.959 76.2559 85.959 76.459C85.959 76.7637 86.2324 76.9805 86.7793 77.1094L87.9805 77.3672C88.6094 77.5078 89.0605 77.7129 89.334 77.9824C89.6113 78.248 89.75 78.6152 89.75 79.084C89.75 79.7012 89.4922 80.1973 88.9766 80.5723C88.4609 80.9473 87.7871 81.1348 86.9551 81.1348C86.127 81.1348 85.4648 80.9512 84.9688 80.584C84.4727 80.2168 84.2012 79.7227 84.1543 79.1016H85.8242C85.8672 79.3672 85.9883 79.5723 86.1875 79.7168C86.3906 79.8613 86.6621 79.9336 87.002 79.9336C87.3262 79.9336 87.5801 79.875 87.7637 79.7578C87.9512 79.6367 88.0449 79.4727 88.0449 79.2656C88.0449 79.1055 87.9863 78.9785 87.8691 78.8848C87.752 78.7871 87.5527 78.7051 87.2715 78.6387L86.1113 78.3809C84.9121 78.1074 84.3125 77.502 84.3125 76.5645Z"/>
<path d="M84.6182 33.4221H84.4708C84.005 30.9929 82.5093 28.7815 80.253 27.186C77.9967 25.5905 75.1281 24.7158 72.1636 24.7194C71.0271 24.7194 69.9259 24.8507 68.8752 25.0867L68.3813 22.8239C67.8271 20.1156 64.7912 19.3135 63.4112 19.372L54.7576 19.002C54.3681 18.9743 54.0215 19.2385 54.001 19.5681C53.9961 19.6465 54.0098 19.7249 54.0414 19.7989C54.0731 19.8729 54.122 19.941 54.1853 19.9993C54.2487 20.0576 54.3253 20.105 54.4107 20.1387C54.4961 20.1724 54.5888 20.1919 54.6833 20.1959L63.3735 20.5674C63.3984 20.5685 63.4253 20.568 63.4529 20.5674C64.2639 20.5222 66.5536 21.0395 66.961 23.0312L67.494 25.4705C65.5016 26.1358 63.7509 27.2178 62.4123 28.6113C61.0737 30.0048 60.1929 31.6622 59.8557 33.4221H59.7109C59.3448 33.4227 58.9939 33.5436 58.735 33.7584C58.4762 33.9732 58.3304 34.2644 58.3297 34.5681V37.7474C58.3304 38.0512 58.4762 38.3423 58.735 38.5571C58.9939 38.7719 59.3448 38.8929 59.7109 38.8934H59.9313L62.0973 54.8981C62.0883 54.9353 62.0704 54.9699 62.0704 55.0092C62.0704 55.1028 62.1012 55.1884 62.1473 55.267L63.1915 62.981C63.2292 63.2613 63.3902 63.5203 63.6436 63.7083C63.897 63.8963 64.2251 64.0002 64.565 64H79.6987C80.4028 64 80.9928 63.562 81.0716 62.981L84.3331 38.8934H84.6188C84.9849 38.8929 85.3358 38.7719 85.5947 38.5571C85.8536 38.3423 85.9993 38.0512 86 37.7474V34.5681C85.9993 34.2643 85.8535 33.973 85.5945 33.7582C85.3355 33.5434 84.9844 33.4225 84.6182 33.4221ZM72.1636 25.9154C77.5436 25.9154 82.0787 29.0984 83.0223 33.4221H70.6972L69.134 26.2673C70.1194 26.0341 71.139 25.9157 72.1636 25.9154ZM67.7579 26.6788L69.2314 33.4221H61.3036C61.973 30.355 64.4548 27.8689 67.7579 26.6788ZM80.7808 54.4117H63.4824L61.9807 43.3197H82.0101C82.1088 43.3197 82.203 43.3032 82.2888 43.2729L80.7808 54.4117ZM79.6443 62.8045H64.6176L63.6438 55.6078H80.6187L79.6443 62.8045ZM84.5579 37.698H83.688C83.3215 37.698 83.0127 37.9271 82.9717 38.229L82.4272 42.2476C82.3078 42.1702 82.1615 42.127 82.0101 42.1242H61.8302C61.8263 42.1242 61.8231 42.1258 61.8193 42.1258L61.3817 38.8945H81.2843C81.4754 38.8945 81.6588 38.8315 81.7939 38.7193C81.9291 38.6072 82.005 38.4551 82.005 38.2965C82.005 38.1379 81.9291 37.9858 81.7939 37.8736C81.6588 37.7615 81.4754 37.6985 81.2843 37.6985H59.7712V34.6186H84.5586L84.5579 37.698Z"/>
<path d="M74.6192 28.477C76.2161 28.8455 77.5717 29.7245 78.3887 30.9211C78.4825 31.0593 78.6386 31.161 78.8227 31.2037C79.0068 31.2464 79.2039 31.2267 79.3705 31.1489C79.5371 31.0711 79.6596 30.9415 79.711 30.7888C79.7625 30.636 79.7388 30.4725 79.645 30.3343C78.6385 28.8605 76.969 27.7779 75.0023 27.3235C74.8217 27.2906 74.6327 27.3164 74.4744 27.3957C74.316 27.4749 74.2004 27.6015 74.1513 27.7495C74.1021 27.8974 74.1233 28.0553 74.2103 28.1907C74.2974 28.326 74.4437 28.4285 74.6192 28.477ZM79.2196 31.5473C79.1203 31.6311 79.0529 31.7373 79.0258 31.8527C78.9986 31.968 79.0128 32.0875 79.0667 32.1962C79.1206 32.3049 79.2118 32.398 79.329 32.4641C79.4461 32.5302 79.5841 32.5663 79.7257 32.5679C79.9167 32.568 80.1 32.5055 80.2357 32.394C80.3715 32.2825 80.4486 32.131 80.4502 31.9725C80.4502 31.8131 80.3734 31.6589 80.2388 31.5473C79.9698 31.324 79.4893 31.324 79.2196 31.5473Z"/>
</mask>
<path d="M11 36C11 22.1929 22.1929 11 36 11H110C123.807 11 135 22.1929 135 36V73C135 86.8071 123.807 98 110 98H36C22.1929 98 11 86.8071 11 73V36Z" fill="#2E3235"/>
<path d="M55.6543 72.5449H58.8828C60.1562 72.5449 61.1465 72.9102 61.8535 73.6406C62.5605 74.3711 62.9141 75.4043 62.9141 76.7402C62.9141 78.0801 62.5586 79.125 61.8477 79.875C61.1406 80.625 60.1523 81 58.8828 81H55.6543V72.5449ZM57.4238 74.0039V79.5352H58.6719C59.4648 79.5352 60.0684 79.2988 60.4824 78.8262C60.9004 78.3496 61.1094 77.6562 61.1094 76.7461C61.1094 75.8633 60.8984 75.1855 60.4766 74.7129C60.0547 74.2402 59.4531 74.0039 58.6719 74.0039H57.4238Z" fill="#F83103"/>
<path d="M63.9102 81V74.7188H65.5625V75.8496H65.5977C65.707 75.4512 65.8906 75.1465 66.1484 74.9355C66.4062 74.7246 66.7207 74.6191 67.0918 74.6191C67.2715 74.6191 67.4336 74.6406 67.5781 74.6836V76.1895C67.418 76.123 67.2109 76.0898 66.957 76.0898C66.5352 76.0898 66.207 76.2129 65.9727 76.459C65.7383 76.7051 65.6211 77.0488 65.6211 77.4902V81H63.9102Z" fill="#F83103"/>
<path d="M68.3105 81V74.7188H70.0215V81H68.3105ZM69.8164 73.7695C69.6406 73.9414 69.4238 74.0273 69.166 74.0273C68.9082 74.0273 68.6914 73.9414 68.5156 73.7695C68.3398 73.5977 68.252 73.3887 68.252 73.1426C68.252 72.8926 68.3398 72.6836 68.5156 72.5156C68.6914 72.3438 68.9082 72.2578 69.166 72.2578C69.4238 72.2578 69.6406 72.3438 69.8164 72.5156C69.9922 72.6836 70.0801 72.8926 70.0801 73.1426C70.0801 73.3887 69.9922 73.5977 69.8164 73.7695Z" fill="#F83103"/>
<path d="M71.1641 81V74.7188H72.8164V75.8379H72.8516C73.0234 75.4395 73.2734 75.1348 73.6016 74.9238C73.9336 74.709 74.3379 74.6016 74.8145 74.6016C75.5098 74.6016 76.0469 74.8086 76.4258 75.2227C76.8047 75.6367 76.9941 76.2129 76.9941 76.9512V81H75.2832V77.3086C75.2832 76.8945 75.1855 76.5762 74.9902 76.3535C74.7949 76.1309 74.5078 76.0195 74.1289 76.0195C73.75 76.0195 73.4453 76.1465 73.2148 76.4004C72.9883 76.6543 72.875 76.9863 72.875 77.3965V81H71.1641Z" fill="#F83103"/>
<path d="M79.8535 77.2383L81.9863 74.7188H83.9258L81.5293 77.4141L84.043 81H82.0742L80.2754 78.4453L79.8301 78.9258V81H78.1191V72.5449H79.8301V77.2383H79.8535Z" fill="#F83103"/>
<path d="M84.3125 76.5645C84.3125 75.9668 84.5527 75.4883 85.0332 75.1289C85.5137 74.7656 86.1562 74.584 86.9609 74.584C87.7461 74.584 88.377 74.7676 88.8535 75.1348C89.3301 75.502 89.5742 75.9902 89.5859 76.5996H88.0098C87.9902 76.3457 87.8848 76.1465 87.6934 76.002C87.5059 75.8574 87.2539 75.7852 86.9375 75.7852C86.6406 75.7852 86.4023 75.8477 86.2227 75.9727C86.0469 76.0938 85.959 76.2559 85.959 76.459C85.959 76.7637 86.2324 76.9805 86.7793 77.1094L87.9805 77.3672C88.6094 77.5078 89.0605 77.7129 89.334 77.9824C89.6113 78.248 89.75 78.6152 89.75 79.084C89.75 79.7012 89.4922 80.1973 88.9766 80.5723C88.4609 80.9473 87.7871 81.1348 86.9551 81.1348C86.127 81.1348 85.4648 80.9512 84.9688 80.584C84.4727 80.2168 84.2012 79.7227 84.1543 79.1016H85.8242C85.8672 79.3672 85.9883 79.5723 86.1875 79.7168C86.3906 79.8613 86.6621 79.9336 87.002 79.9336C87.3262 79.9336 87.5801 79.875 87.7637 79.7578C87.9512 79.6367 88.0449 79.4727 88.0449 79.2656C88.0449 79.1055 87.9863 78.9785 87.8691 78.8848C87.752 78.7871 87.5527 78.7051 87.2715 78.6387L86.1113 78.3809C84.9121 78.1074 84.3125 77.502 84.3125 76.5645Z" fill="#F83103"/>
<path d="M84.6182 33.4221H84.4708C84.005 30.9929 82.5093 28.7815 80.253 27.186C77.9967 25.5905 75.1281 24.7158 72.1636 24.7194C71.0271 24.7194 69.9259 24.8507 68.8752 25.0867L68.3813 22.8239C67.8271 20.1156 64.7912 19.3135 63.4112 19.372L54.7576 19.002C54.3681 18.9743 54.0215 19.2385 54.001 19.5681C53.9961 19.6465 54.0098 19.7249 54.0414 19.7989C54.0731 19.8729 54.122 19.941 54.1853 19.9993C54.2487 20.0576 54.3253 20.105 54.4107 20.1387C54.4961 20.1724 54.5888 20.1919 54.6833 20.1959L63.3735 20.5674C63.3984 20.5685 63.4253 20.568 63.4529 20.5674C64.2639 20.5222 66.5536 21.0395 66.961 23.0312L67.494 25.4705C65.5016 26.1358 63.7509 27.2178 62.4123 28.6113C61.0737 30.0048 60.1929 31.6622 59.8557 33.4221H59.7109C59.3448 33.4227 58.9939 33.5436 58.735 33.7584C58.4762 33.9732 58.3304 34.2644 58.3297 34.5681V37.7474C58.3304 38.0512 58.4762 38.3423 58.735 38.5571C58.9939 38.7719 59.3448 38.8929 59.7109 38.8934H59.9313L62.0973 54.8981C62.0883 54.9353 62.0704 54.9699 62.0704 55.0092C62.0704 55.1028 62.1012 55.1884 62.1473 55.267L63.1915 62.981C63.2292 63.2613 63.3902 63.5203 63.6436 63.7083C63.897 63.8963 64.2251 64.0002 64.565 64H79.6987C80.4028 64 80.9928 63.562 81.0716 62.981L84.3331 38.8934H84.6188C84.9849 38.8929 85.3358 38.7719 85.5947 38.5571C85.8536 38.3423 85.9993 38.0512 86 37.7474V34.5681C85.9993 34.2643 85.8535 33.973 85.5945 33.7582C85.3355 33.5434 84.9844 33.4225 84.6182 33.4221ZM72.1636 25.9154C77.5436 25.9154 82.0787 29.0984 83.0223 33.4221H70.6972L69.134 26.2673C70.1194 26.0341 71.139 25.9157 72.1636 25.9154ZM67.7579 26.6788L69.2314 33.4221H61.3036C61.973 30.355 64.4548 27.8689 67.7579 26.6788ZM80.7808 54.4117H63.4824L61.9807 43.3197H82.0101C82.1088 43.3197 82.203 43.3032 82.2888 43.2729L80.7808 54.4117ZM79.6443 62.8045H64.6176L63.6438 55.6078H80.6187L79.6443 62.8045ZM84.5579 37.698H83.688C83.3215 37.698 83.0127 37.9271 82.9717 38.229L82.4272 42.2476C82.3078 42.1702 82.1615 42.127 82.0101 42.1242H61.8302C61.8263 42.1242 61.8231 42.1258 61.8193 42.1258L61.3817 38.8945H81.2843C81.4754 38.8945 81.6588 38.8315 81.7939 38.7193C81.9291 38.6072 82.005 38.4551 82.005 38.2965C82.005 38.1379 81.9291 37.9858 81.7939 37.8736C81.6588 37.7615 81.4754 37.6985 81.2843 37.6985H59.7712V34.6186H84.5586L84.5579 37.698Z" fill="#F83103"/>
<path d="M74.6192 28.477C76.2161 28.8455 77.5717 29.7245 78.3887 30.9211C78.4825 31.0593 78.6386 31.161 78.8227 31.2037C79.0068 31.2464 79.2039 31.2267 79.3705 31.1489C79.5371 31.0711 79.6596 30.9415 79.711 30.7888C79.7625 30.636 79.7388 30.4725 79.645 30.3343C78.6385 28.8605 76.969 27.7779 75.0023 27.3235C74.8217 27.2906 74.6327 27.3164 74.4744 27.3957C74.316 27.4749 74.2004 27.6015 74.1513 27.7495C74.1021 27.8974 74.1233 28.0553 74.2103 28.1907C74.2974 28.326 74.4437 28.4285 74.6192 28.477ZM79.2196 31.5473C79.1203 31.6311 79.0529 31.7373 79.0258 31.8527C78.9986 31.968 79.0128 32.0875 79.0667 32.1962C79.1206 32.3049 79.2118 32.398 79.329 32.4641C79.4461 32.5302 79.5841 32.5663 79.7257 32.5679C79.9167 32.568 80.1 32.5055 80.2357 32.394C80.3715 32.2825 80.4486 32.131 80.4502 31.9725C80.4502 31.8131 80.3734 31.6589 80.2388 31.5473C79.9698 31.324 79.4893 31.324 79.2196 31.5473Z" fill="#F83103"/>
<path d="M11 36C11 22.1929 22.1929 11 36 11H110C123.807 11 135 22.1929 135 36V73C135 86.8071 123.807 98 110 98H36C22.1929 98 11 86.8071 11 73V36Z" stroke="#F83103" stroke-width="2" mask="url(#path-1-outside-1_356_206)"/>
<path d="M55.6543 72.5449H58.8828C60.1562 72.5449 61.1465 72.9102 61.8535 73.6406C62.5605 74.3711 62.9141 75.4043 62.9141 76.7402C62.9141 78.0801 62.5586 79.125 61.8477 79.875C61.1406 80.625 60.1523 81 58.8828 81H55.6543V72.5449ZM57.4238 74.0039V79.5352H58.6719C59.4648 79.5352 60.0684 79.2988 60.4824 78.8262C60.9004 78.3496 61.1094 77.6562 61.1094 76.7461C61.1094 75.8633 60.8984 75.1855 60.4766 74.7129C60.0547 74.2402 59.4531 74.0039 58.6719 74.0039H57.4238Z" stroke="#F83103" stroke-width="2" mask="url(#path-1-outside-1_356_206)"/>
<path d="M63.9102 81V74.7188H65.5625V75.8496H65.5977C65.707 75.4512 65.8906 75.1465 66.1484 74.9355C66.4062 74.7246 66.7207 74.6191 67.0918 74.6191C67.2715 74.6191 67.4336 74.6406 67.5781 74.6836V76.1895C67.418 76.123 67.2109 76.0898 66.957 76.0898C66.5352 76.0898 66.207 76.2129 65.9727 76.459C65.7383 76.7051 65.6211 77.0488 65.6211 77.4902V81H63.9102Z" stroke="#F83103" stroke-width="2" mask="url(#path-1-outside-1_356_206)"/>
<path d="M68.3105 81V74.7188H70.0215V81H68.3105ZM69.8164 73.7695C69.6406 73.9414 69.4238 74.0273 69.166 74.0273C68.9082 74.0273 68.6914 73.9414 68.5156 73.7695C68.3398 73.5977 68.252 73.3887 68.252 73.1426C68.252 72.8926 68.3398 72.6836 68.5156 72.5156C68.6914 72.3438 68.9082 72.2578 69.166 72.2578C69.4238 72.2578 69.6406 72.3438 69.8164 72.5156C69.9922 72.6836 70.0801 72.8926 70.0801 73.1426C70.0801 73.3887 69.9922 73.5977 69.8164 73.7695Z" stroke="#F83103" stroke-width="2" mask="url(#path-1-outside-1_356_206)"/>
<path d="M71.1641 81V74.7188H72.8164V75.8379H72.8516C73.0234 75.4395 73.2734 75.1348 73.6016 74.9238C73.9336 74.709 74.3379 74.6016 74.8145 74.6016C75.5098 74.6016 76.0469 74.8086 76.4258 75.2227C76.8047 75.6367 76.9941 76.2129 76.9941 76.9512V81H75.2832V77.3086C75.2832 76.8945 75.1855 76.5762 74.9902 76.3535C74.7949 76.1309 74.5078 76.0195 74.1289 76.0195C73.75 76.0195 73.4453 76.1465 73.2148 76.4004C72.9883 76.6543 72.875 76.9863 72.875 77.3965V81H71.1641Z" stroke="#F83103" stroke-width="2" mask="url(#path-1-outside-1_356_206)"/>
<path d="M79.8535 77.2383L81.9863 74.7188H83.9258L81.5293 77.4141L84.043 81H82.0742L80.2754 78.4453L79.8301 78.9258V81H78.1191V72.5449H79.8301V77.2383H79.8535Z" stroke="#F83103" stroke-width="2" mask="url(#path-1-outside-1_356_206)"/>
<path d="M84.3125 76.5645C84.3125 75.9668 84.5527 75.4883 85.0332 75.1289C85.5137 74.7656 86.1562 74.584 86.9609 74.584C87.7461 74.584 88.377 74.7676 88.8535 75.1348C89.3301 75.502 89.5742 75.9902 89.5859 76.5996H88.0098C87.9902 76.3457 87.8848 76.1465 87.6934 76.002C87.5059 75.8574 87.2539 75.7852 86.9375 75.7852C86.6406 75.7852 86.4023 75.8477 86.2227 75.9727C86.0469 76.0938 85.959 76.2559 85.959 76.459C85.959 76.7637 86.2324 76.9805 86.7793 77.1094L87.9805 77.3672C88.6094 77.5078 89.0605 77.7129 89.334 77.9824C89.6113 78.248 89.75 78.6152 89.75 79.084C89.75 79.7012 89.4922 80.1973 88.9766 80.5723C88.4609 80.9473 87.7871 81.1348 86.9551 81.1348C86.127 81.1348 85.4648 80.9512 84.9688 80.584C84.4727 80.2168 84.2012 79.7227 84.1543 79.1016H85.8242C85.8672 79.3672 85.9883 79.5723 86.1875 79.7168C86.3906 79.8613 86.6621 79.9336 87.002 79.9336C87.3262 79.9336 87.5801 79.875 87.7637 79.7578C87.9512 79.6367 88.0449 79.4727 88.0449 79.2656C88.0449 79.1055 87.9863 78.9785 87.8691 78.8848C87.752 78.7871 87.5527 78.7051 87.2715 78.6387L86.1113 78.3809C84.9121 78.1074 84.3125 77.502 84.3125 76.5645Z" stroke="#F83103" stroke-width="2" mask="url(#path-1-outside-1_356_206)"/>
<path d="M84.6182 33.4221H84.4708C84.005 30.9929 82.5093 28.7815 80.253 27.186C77.9967 25.5905 75.1281 24.7158 72.1636 24.7194C71.0271 24.7194 69.9259 24.8507 68.8752 25.0867L68.3813 22.8239C67.8271 20.1156 64.7912 19.3135 63.4112 19.372L54.7576 19.002C54.3681 18.9743 54.0215 19.2385 54.001 19.5681C53.9961 19.6465 54.0098 19.7249 54.0414 19.7989C54.0731 19.8729 54.122 19.941 54.1853 19.9993C54.2487 20.0576 54.3253 20.105 54.4107 20.1387C54.4961 20.1724 54.5888 20.1919 54.6833 20.1959L63.3735 20.5674C63.3984 20.5685 63.4253 20.568 63.4529 20.5674C64.2639 20.5222 66.5536 21.0395 66.961 23.0312L67.494 25.4705C65.5016 26.1358 63.7509 27.2178 62.4123 28.6113C61.0737 30.0048 60.1929 31.6622 59.8557 33.4221H59.7109C59.3448 33.4227 58.9939 33.5436 58.735 33.7584C58.4762 33.9732 58.3304 34.2644 58.3297 34.5681V37.7474C58.3304 38.0512 58.4762 38.3423 58.735 38.5571C58.9939 38.7719 59.3448 38.8929 59.7109 38.8934H59.9313L62.0973 54.8981C62.0883 54.9353 62.0704 54.9699 62.0704 55.0092C62.0704 55.1028 62.1012 55.1884 62.1473 55.267L63.1915 62.981C63.2292 63.2613 63.3902 63.5203 63.6436 63.7083C63.897 63.8963 64.2251 64.0002 64.565 64H79.6987C80.4028 64 80.9928 63.562 81.0716 62.981L84.3331 38.8934H84.6188C84.9849 38.8929 85.3358 38.7719 85.5947 38.5571C85.8536 38.3423 85.9993 38.0512 86 37.7474V34.5681C85.9993 34.2643 85.8535 33.973 85.5945 33.7582C85.3355 33.5434 84.9844 33.4225 84.6182 33.4221ZM72.1636 25.9154C77.5436 25.9154 82.0787 29.0984 83.0223 33.4221H70.6972L69.134 26.2673C70.1194 26.0341 71.139 25.9157 72.1636 25.9154ZM67.7579 26.6788L69.2314 33.4221H61.3036C61.973 30.355 64.4548 27.8689 67.7579 26.6788ZM80.7808 54.4117H63.4824L61.9807 43.3197H82.0101C82.1088 43.3197 82.203 43.3032 82.2888 43.2729L80.7808 54.4117ZM79.6443 62.8045H64.6176L63.6438 55.6078H80.6187L79.6443 62.8045ZM84.5579 37.698H83.688C83.3215 37.698 83.0127 37.9271 82.9717 38.229L82.4272 42.2476C82.3078 42.1702 82.1615 42.127 82.0101 42.1242H61.8302C61.8263 42.1242 61.8231 42.1258 61.8193 42.1258L61.3817 38.8945H81.2843C81.4754 38.8945 81.6588 38.8315 81.7939 38.7193C81.9291 38.6072 82.005 38.4551 82.005 38.2965C82.005 38.1379 81.9291 37.9858 81.7939 37.8736C81.6588 37.7615 81.4754 37.6985 81.2843 37.6985H59.7712V34.6186H84.5586L84.5579 37.698Z" stroke="#F83103" stroke-width="2" mask="url(#path-1-outside-1_356_206)"/>
<path d="M74.6192 28.477C76.2161 28.8455 77.5717 29.7245 78.3887 30.9211C78.4825 31.0593 78.6386 31.161 78.8227 31.2037C79.0068 31.2464 79.2039 31.2267 79.3705 31.1489C79.5371 31.0711 79.6596 30.9415 79.711 30.7888C79.7625 30.636 79.7388 30.4725 79.645 30.3343C78.6385 28.8605 76.969 27.7779 75.0023 27.3235C74.8217 27.2906 74.6327 27.3164 74.4744 27.3957C74.316 27.4749 74.2004 27.6015 74.1513 27.7495C74.1021 27.8974 74.1233 28.0553 74.2103 28.1907C74.2974 28.326 74.4437 28.4285 74.6192 28.477ZM79.2196 31.5473C79.1203 31.6311 79.0529 31.7373 79.0258 31.8527C78.9986 31.968 79.0128 32.0875 79.0667 32.1962C79.1206 32.3049 79.2118 32.398 79.329 32.4641C79.4461 32.5302 79.5841 32.5663 79.7257 32.5679C79.9167 32.568 80.1 32.5055 80.2357 32.394C80.3715 32.2825 80.4486 32.131 80.4502 31.9725C80.4502 31.8131 80.3734 31.6589 80.2388 31.5473C79.9698 31.324 79.4893 31.324 79.2196 31.5473Z" stroke="#F83103" stroke-width="2" mask="url(#path-1-outside-1_356_206)"/>
</g>
<defs>
<filter id="filter0_d_356_206" x="0" y="0" width="146" height="109" filterUnits="userSpaceOnUse" color-interpolation-filters="sRGB">
<feFlood flood-opacity="0" result="BackgroundImageFix"/>
<feColorMatrix in="SourceAlpha" type="matrix" values="0 0 0 0 0 0 0 0 0 0 0 0 0 0 0 0 0 0 127 0" result="hardAlpha"/>
<feOffset/>
<feGaussianBlur stdDeviation="5"/>
<feComposite in2="hardAlpha" operator="out"/>
<feColorMatrix type="matrix" values="0 0 0 0 0.972549 0 0 0 0 0.192157 0 0 0 0 0.0117647 0 0 0 0.25 0"/>
<feBlend mode="normal" in2="BackgroundImageFix" result="effect1_dropShadow_356_206"/>
<feBlend mode="normal" in="SourceGraphic" in2="effect1_dropShadow_356_206" result="shape"/>
</filter>
</defs>
</svg>
