<svg width="146" height="109" viewBox="0 0 146 109" fill="none" xmlns="http://www.w3.org/2000/svg">
<g filter="url(#filter0_d_356_229)">
<mask id="path-1-outside-1_356_229" maskUnits="userSpaceOnUse" x="10" y="10" width="126" height="89" fill="black">
<rect fill="white" x="10" y="10" width="126" height="89"/>
<path d="M11 36C11 22.1929 22.1929 11 36 11H110C123.807 11 135 22.1929 135 36V73C135 86.8071 123.807 98 110 98H36C22.1929 98 11 86.8071 11 73V36Z"/>
<path d="M62.7685 61.6109C62.6365 61.6913 62.592 61.8078 62.5196 61.8997C62.1743 62.338 61.776 62.7027 61.2423 62.8998C60.3527 63.2282 59.4511 62.7447 59.2236 61.8129C59.1247 61.4189 59.1032 61.0095 59.1601 60.6077C59.1745 60.5088 59.1839 60.4091 59.1977 60.2911C59.0436 60.281 58.9245 60.3511 58.8009 60.3902C57.9571 60.6571 56.8434 60.3452 56.4775 59.2816C56.366 58.9574 56.375 58.6306 56.4309 58.3005C56.4401 58.2462 56.4572 58.1933 56.4675 58.1392C56.4808 58.0695 56.54 57.9891 56.4787 57.9311C56.4089 57.865 56.3202 57.9206 56.2482 57.9502C56.0948 58.0091 55.9358 58.0519 55.7737 58.0781C54.1097 58.3923 52.8896 57.1535 52.6268 55.9465C52.4542 55.154 52.5979 54.4316 53.026 53.7575C53.0638 53.6978 53.1258 53.6481 53.1197 53.564C53.0599 53.4948 52.9707 53.5031 52.8952 53.4784C52.5969 53.3811 52.319 53.2508 52.0836 53.033C51.4365 52.4343 51.4045 51.5384 52.0081 50.8974C52.1012 50.7985 52.2638 50.7408 52.2833 50.6049C52.3033 50.4659 52.1427 50.3818 52.0812 50.2591C51.816 49.7308 51.8711 49.2275 52.1747 48.7399C52.2192 48.6704 52.2697 48.6049 52.3255 48.5443C52.3909 48.4715 52.3983 48.4049 52.3364 48.3245C52.0061 47.896 51.9819 47.4279 52.1788 46.9433C52.3974 46.4052 52.8029 46.069 53.3523 45.9153C54.0371 45.7237 54.6704 45.8964 55.2724 46.2346C55.4156 46.3163 55.5525 46.4089 55.6819 46.5114C55.8076 46.6096 55.9182 46.6142 56.0566 46.534C57.0363 45.9671 58.0267 45.4187 58.9997 44.8405C61.4881 43.3619 63.9172 41.7871 66.3439 40.2087C67.5533 39.4221 68.745 38.6075 69.9933 37.883C70.2855 37.7135 70.5795 37.5473 70.8754 37.3845C70.9939 37.3192 71.0457 37.2376 71.0186 37.0945C70.9367 36.6624 71.0731 36.276 71.283 35.9101C71.5448 35.4542 71.9265 35.1151 72.3515 34.8229C73.2094 34.233 74.0788 33.6607 74.92 33.0457C76.2548 32.0698 77.5967 31.1036 78.9899 30.2127C79.8207 29.6815 80.6568 29.1587 81.4619 28.5875C81.999 28.2063 82.5035 27.784 83.0083 27.3618C83.2372 27.1653 83.4775 26.9827 83.728 26.8151C84.275 26.459 84.8717 26.3587 85.509 26.4572C86.6738 26.6373 87.7023 27.1342 88.6375 27.844C89.6309 28.5979 90.4694 29.5086 91.2384 30.4875C91.9144 31.3479 92.564 32.2275 93.1281 33.1685C93.7197 34.1555 94.1521 35.2051 94.3723 36.3393C94.4794 36.8908 94.5952 37.4402 94.6106 38.0053C94.6483 39.3819 94.19 40.5525 93.1836 41.4836C91.2239 43.2965 89.3827 45.2385 87.3271 46.9471C86.8634 47.3324 86.421 47.7442 85.9774 48.1535C85.2492 48.8253 84.4763 49.4365 83.6252 49.9424C83.1898 50.1961 82.8149 50.5427 82.5266 50.9583C82.4443 51.0803 82.3444 51.189 82.23 51.2809C81.9307 51.5165 81.6053 51.5813 81.262 51.388C81.1363 51.3171 81.0334 51.3063 80.9059 51.3732C80.6292 51.5217 80.3081 51.5635 80.0023 51.4908C79.9449 51.4759 79.8847 51.475 79.8269 51.4883C79.7691 51.5015 79.7153 51.5285 79.67 51.5669C79.5829 51.6331 79.5003 51.7052 79.4228 51.7827C78.8833 52.3455 78.2963 52.8551 77.6828 53.3319C76.0522 54.5993 74.4176 55.8615 72.779 57.1185C71.4791 58.1137 70.1345 59.0432 68.7003 59.834C67.8532 60.301 67.009 60.775 66.1206 61.1603C65.9579 61.2309 65.8904 61.3289 65.8794 61.5124C65.8558 61.9104 65.7107 62.2662 65.4153 62.5415C64.9085 63.0138 64.1825 63.0188 63.583 62.5606C63.3203 62.3593 63.0939 62.1139 62.9138 61.8351C62.8694 61.7666 62.825 61.698 62.7685 61.6109ZM58.6163 46.4651L58.6197 46.519C58.6994 46.5218 58.7791 46.5281 58.8586 46.527C60.1785 46.509 61.4555 46.7494 62.6976 47.1947C63.8574 47.6106 64.9242 48.2164 65.9793 48.8461C66.75 49.306 67.5182 49.7709 68.3403 50.1351C69.1941 50.5134 70.0792 50.7541 71.0157 50.768C72.0249 50.7829 72.988 50.5592 73.9218 50.1919C74.8675 49.8198 75.7507 49.3235 76.6244 48.8088C77.1043 48.5261 77.5859 48.2465 78.0842 47.9972C78.8326 47.6227 79.604 47.3775 80.4574 47.5444C80.6446 47.5811 80.6693 47.5498 80.6384 47.3543C80.5245 46.6349 80.3789 45.9217 80.1476 45.2299C79.5816 43.5367 78.6725 42.0462 77.4904 40.7209C76.5367 39.6516 75.4781 38.71 74.2272 38.0033C73.7887 37.7556 73.3373 37.5309 72.9166 37.2518C72.8082 37.1798 72.7149 37.1852 72.6189 37.2687C72.5638 37.3166 72.5036 37.3585 72.4458 37.4034C71.231 38.3424 70.0114 39.2746 68.7298 40.121C66.771 41.4146 64.7932 42.6786 62.8202 43.9498C61.6531 44.7018 60.4825 45.4477 59.2653 46.1162C59.0503 46.2344 58.8328 46.3488 58.6163 46.4651ZM81.851 49.768C81.9005 49.7355 81.9271 49.7256 81.9428 49.7065C82.2128 49.3772 82.5401 49.1163 82.894 48.8856C83.3987 48.5567 83.9191 48.248 84.374 47.8493C85.7076 46.6805 87.0454 45.5162 88.3603 44.3262C89.3565 43.4245 90.3193 42.4853 91.2984 41.5643C91.7312 41.1572 92.1908 40.7788 92.5924 40.3384C92.9872 39.9123 93.242 39.3734 93.322 38.7949C93.3929 38.306 93.3649 37.8189 93.2939 37.3369C93.126 36.1978 92.7846 35.1144 92.2059 34.1122C91.5276 32.9374 90.7242 31.8523 89.874 30.8012C89.2714 30.0561 88.6157 29.3621 87.8514 28.7825C87.0797 28.1974 86.232 27.7874 85.2629 27.6611C84.8793 27.6112 84.5378 27.6952 84.2308 27.9226C84.0327 28.0693 83.8372 28.2204 83.6498 28.3804C82.8704 29.0461 82.061 29.6707 81.2028 30.2303C80.2314 30.8636 79.2518 31.4851 78.2933 32.1376C76.5424 33.3301 74.8688 34.6355 73.0794 35.7724C73.0211 35.8094 72.9443 35.8349 72.9367 35.9214C72.9645 35.9692 73.0115 35.9765 73.0552 35.9872C74.1993 36.2664 75.1873 36.8634 76.0903 37.594C77.8727 39.0359 79.3192 40.7718 80.3854 42.8152C81.419 44.7962 81.9065 46.9109 81.8661 49.1466C81.8624 49.3458 81.8564 49.5449 81.851 49.768ZM65.8813 60.0051C66.0334 60.0257 66.1029 59.9551 66.1767 59.909C67.8109 58.8886 69.4359 57.8537 70.9938 56.7166C72.2259 55.8171 73.4691 54.9335 74.7233 54.0656C75.7816 53.3313 76.8232 52.5734 77.8062 51.738C78.7607 50.9268 79.6566 50.0498 80.5832 49.2073C80.8086 49.0023 80.8378 48.7826 80.7949 48.5188C80.7654 48.3366 80.7256 48.3122 80.5585 48.3712C80.4297 48.4167 80.3032 48.4691 80.177 48.5216C79.012 49.0065 77.9091 49.6123 76.8231 50.2532C76.0444 50.7126 75.2484 51.1407 74.4093 51.4802C73.2474 51.9503 72.0475 52.2326 70.7851 52.184C69.7133 52.1427 68.6946 51.872 67.7152 51.4357C67.6193 51.3929 67.5264 51.3288 67.3987 51.3368C67.9046 54.4105 67.3072 57.273 65.8813 60.0051ZM54.1428 50.8118C53.9021 50.9197 53.6527 50.9311 53.4094 50.9279C53.0437 50.9228 52.7848 51.1077 52.5584 51.3543C52.1589 51.7893 52.2433 52.3249 52.7484 52.6386C52.9766 52.7777 53.2371 52.853 53.5033 52.857C53.7039 52.8639 53.9044 52.8395 54.0975 52.7846C54.1768 52.7585 54.2632 52.7642 54.3387 52.8005C54.4143 52.8369 54.4732 52.9011 54.5032 52.9799C54.563 53.1259 54.5144 53.2723 54.365 53.3889C54.3292 53.4168 54.2892 53.4397 54.2507 53.4642C54.0419 53.5967 53.8586 53.7662 53.7095 53.9644C53.205 54.6359 53.0787 55.3679 53.4453 56.1415C53.7958 56.881 54.3771 57.3127 55.2097 57.3409C55.5124 57.3531 55.8135 57.2953 56.0901 57.1718C56.7713 56.8628 57.4525 56.5495 57.9819 55.9907C58.0687 55.896 58.1694 55.8152 58.2805 55.7512C58.5009 55.6289 58.7081 55.6508 58.8547 55.8136C59.0083 55.9842 59.0079 56.2105 58.8417 56.4159C58.7695 56.4986 58.6902 56.5746 58.6046 56.6429C58.3059 56.8996 58.0171 57.166 57.7754 57.4799C57.5378 57.7885 57.3487 58.1231 57.2849 58.5141C57.1869 59.1147 57.5446 59.5795 58.1469 59.6149C58.8492 59.6561 59.3658 59.3004 59.7736 58.7676C59.9508 58.5361 60.0756 58.2632 60.2792 58.0501C60.3752 57.9497 60.3428 57.8805 60.2653 57.793C59.5779 57.016 59.2898 56.0559 59.045 55.0776C58.999 54.894 59.0104 54.8851 58.8037 54.8846C58.4395 54.8836 58.1264 54.7514 57.8512 54.5183C57.51 54.2293 57.3114 53.8522 57.1869 53.4275C57.109 53.1618 57.1037 53.161 56.8348 53.1399C56.259 53.0955 55.6998 52.9218 55.1982 52.6314C54.8128 52.4102 54.4766 52.1283 54.2344 51.746C54.0829 51.507 54.04 51.2525 54.1327 50.9805C54.1472 50.9383 54.1766 50.8984 54.1428 50.8118ZM61.2722 55.5949C61.1564 55.6504 61.1014 55.7504 61.0321 55.8325C60.9268 55.9572 60.7341 56.0547 60.7309 56.2067C60.7272 56.3781 60.9315 56.4754 61.0486 56.6008C61.7437 57.3451 62.5999 57.6783 63.6082 57.617C63.7264 57.6082 63.845 57.606 63.9635 57.6104C64.2351 57.6243 64.3572 57.8147 64.2606 58.0657C64.2127 58.1901 64.1213 58.279 64.0189 58.3581C63.6432 58.6485 63.2071 58.7645 62.7443 58.7937C62.1952 58.8299 61.6459 58.7183 61.1525 58.4705C60.9355 58.3631 60.9326 58.3661 60.8148 58.5677C60.6574 58.8368 60.4815 59.0944 60.2883 59.3386C60.2176 59.4226 60.1591 59.5164 60.1147 59.6171C59.9658 59.9731 59.8639 60.3475 59.8116 60.7307C59.7695 61.0604 59.8015 61.3958 59.9053 61.7119C60.0423 62.1369 60.3866 62.3388 60.8199 62.2652C61.0099 62.2365 61.1908 62.1644 61.3486 62.0542C61.8987 61.6598 62.3012 61.1553 62.4893 60.4907C62.5055 60.4285 62.5291 60.3686 62.5595 60.3121C62.6796 60.1009 62.8985 60.0066 63.088 60.0787C63.2798 60.1517 63.3592 60.3189 63.3103 60.5805C63.2893 60.6925 63.2777 60.801 63.3227 60.9054C63.505 61.3278 63.7549 61.697 64.1632 61.93C64.5402 62.1452 64.8888 62.023 65.0645 61.6261C65.114 61.5143 65.0862 61.4673 64.9719 61.4246C64.5339 61.2613 64.3836 60.9891 64.4662 60.5242C64.5065 60.2973 64.5806 60.0794 64.6607 59.8642C64.9393 59.1157 65.2284 58.3709 65.4481 57.6015C65.4749 57.5077 65.5322 57.4156 65.4895 57.298C65.3398 57.2903 65.2165 57.3847 65.0758 57.4119C64.3026 57.5614 63.5503 57.4843 62.8186 57.1981C62.1395 56.9326 61.6351 56.4796 61.3708 55.7792C61.3486 55.7205 61.3414 55.6528 61.2722 55.5949ZM63.396 56.2619C63.5198 56.315 63.6524 56.3392 63.785 56.3622C64.1994 56.4318 64.6176 56.4743 65.0371 56.4897C65.2102 56.4973 65.3827 56.5085 65.5504 56.563C65.7163 56.6169 65.7198 56.614 65.7625 56.4355C66.1333 54.9052 66.2916 53.3296 66.2329 51.7538C66.2237 51.5166 66.1885 51.4935 65.9722 51.5917C65.6732 51.7276 65.3766 51.868 65.0599 51.9605C64.5352 52.1136 64.0098 52.2653 63.4884 52.4298C63.0758 52.5601 62.6881 52.7414 62.4038 53.0891C62.3665 53.1347 62.3038 53.1769 62.34 53.2471C62.3761 53.2829 62.4132 53.2747 62.4484 53.2691C63.223 53.1453 64.0075 53.106 64.784 52.9987C65.0368 52.9638 65.1915 53.0278 65.2302 53.1668C65.2671 53.2992 65.188 53.4277 64.9735 53.5448C64.5185 53.7983 64.0313 53.9881 63.5252 54.1091C63.0761 54.2128 62.6241 54.2428 62.1673 54.1646C62.0746 54.1487 61.9915 54.1588 61.9952 54.2747C61.9993 54.405 61.9188 54.5532 62.0551 54.6596C62.0753 54.6755 62.125 54.657 62.1597 54.6486C62.2571 54.6252 62.3535 54.5969 62.451 54.574C63.2423 54.3876 64.0557 54.3313 64.8506 54.1663C64.9221 54.1501 64.9964 54.1503 65.068 54.1669C65.2772 54.2182 65.3413 54.3878 65.2142 54.5639C65.1823 54.6087 65.1427 54.6474 65.0974 54.6783C64.3347 55.1823 63.5183 55.5116 62.5829 55.4599C62.473 55.4538 62.3092 55.3567 62.2627 55.4815C62.2195 55.5971 62.3803 55.6909 62.4635 55.7854C62.4817 55.806 62.5038 55.8229 62.524 55.8417C62.6034 55.9155 62.6748 55.9284 62.7566 55.8367C62.8629 55.7176 63.0074 55.6578 63.1561 55.6082C63.8131 55.3885 64.4997 55.3786 65.18 55.324C65.2165 55.3217 65.2531 55.3246 65.2889 55.3326C65.3804 55.3515 65.4758 55.3774 65.4926 55.4869C65.5089 55.5927 65.4345 55.6578 65.3542 55.7051C65.2839 55.7478 65.2089 55.7821 65.1307 55.8073C64.5827 55.9752 64.0446 56.1856 63.4622 56.2116C63.4468 56.2098 63.4314 56.214 63.4191 56.2234C63.4067 56.2327 63.3985 56.2465 63.396 56.2619ZM55.3076 46.9664C54.7064 46.7104 54.1065 46.5293 53.4611 46.7682C53.2456 46.8495 53.064 47.002 52.9458 47.201C52.8852 47.2934 52.8471 47.3991 52.8347 47.5094C52.8223 47.6197 52.8359 47.7315 52.8743 47.8357C52.9337 48.0052 53.0082 48.0488 53.1873 48.0199C53.3401 47.9953 53.4911 47.9594 53.6441 47.9365C53.8433 47.9058 54.0472 47.9282 54.2357 48.0012C54.3513 48.0456 54.4515 48.1145 54.457 48.2538C54.4627 48.398 54.3564 48.4601 54.2447 48.5092C54.195 48.531 54.1404 48.5412 54.0887 48.5589C53.8992 48.6236 53.7074 48.6828 53.5294 48.7769C53.3334 48.8804 53.1583 49.0103 53.044 49.207C52.8272 49.5796 52.965 49.9977 53.3587 50.1685C53.5025 50.2309 53.6552 50.2585 53.8075 50.2878C54.0215 50.329 54.2441 50.35 54.3666 50.5666C54.9702 50.0931 56.4619 48.2247 56.5791 47.7879C56.173 47.809 55.7736 47.7764 55.3758 47.8375C55.2679 47.8538 55.1592 47.864 55.0501 47.8681C54.9428 47.8723 54.8515 47.8298 54.7995 47.7309C54.7409 47.6195 54.7706 47.5118 54.8457 47.4235C54.9223 47.3335 55.0127 47.2556 55.0972 47.1725C55.1613 47.1095 55.2539 47.0776 55.3076 46.9664ZM55.2792 50.9241C55.8676 50.9243 56.3923 50.8586 56.9119 50.7791C57.5265 50.685 58.1134 50.4945 58.6338 50.1292C59.1812 49.7449 59.5288 49.1999 59.8496 48.6314C59.9347 48.4803 60.0025 48.3189 60.0781 48.1621C60.1265 48.0616 60.0922 48.0049 59.9859 47.987C59.932 47.978 59.8779 47.97 59.824 47.9607C59.1127 47.8379 58.3948 47.8009 57.6753 47.7761C57.4818 47.7694 57.3822 47.8394 57.3052 48.0187C56.996 48.7392 56.5626 49.3838 56.0852 50.0002C55.8453 50.3098 55.5721 50.5899 55.2792 50.9241ZM59.8 55.0795C59.8271 55.0515 59.846 55.041 59.8508 55.0258C60.1484 54.1061 60.7106 53.4179 61.5857 53.004C61.6761 52.9602 61.7535 52.8932 61.8101 52.8096C61.9964 52.5481 62.2242 52.3194 62.4843 52.1327C62.6438 52.0179 62.6425 52.0065 62.4758 51.8813C62.1287 51.6206 61.9174 51.2765 61.8503 50.8478C61.7383 50.1326 61.8541 49.4566 62.2091 48.8266C62.3183 48.6329 62.3213 48.632 62.1268 48.5552C62.0168 48.5104 61.9044 48.4715 61.7903 48.4388C61.6218 48.3926 61.5867 48.4192 61.6214 48.5946C61.7198 49.0928 61.6158 49.5627 61.4534 50.0274C61.3703 50.2612 61.269 50.4878 61.1505 50.7053C60.7018 51.5396 60.1037 52.2256 59.2445 52.6527C58.8749 52.8366 58.4859 52.9617 58.0886 53.0656C57.8897 53.1176 57.8785 53.1408 57.9805 53.3237C58.1136 53.5666 58.2951 53.7791 58.5136 53.9478C58.6504 54.057 58.8117 54.1305 58.9832 54.1617C59.0878 54.1793 59.1418 54.1417 59.1143 54.0247C59.0411 53.7136 59.1573 53.4448 59.3045 53.1865C59.4255 52.9697 59.5823 52.7754 59.7682 52.612C59.9476 52.4566 60.1294 52.3036 60.3155 52.1563C60.6621 51.8819 60.9739 51.5777 61.1868 51.1813C61.2207 51.1164 61.2663 51.0585 61.3212 51.0104C61.4478 50.9038 61.5888 50.9483 61.6427 51.1083C61.6593 51.1609 61.6668 51.216 61.6648 51.2711C61.649 51.8655 61.471 52.3916 61.021 52.7974C60.8856 52.9196 60.7406 53.0314 60.5981 53.1455C60.4054 53.2999 60.2142 53.4561 60.0596 53.651C59.9037 53.8476 59.782 54.0612 59.7813 54.3229C59.781 54.4266 59.73 54.4946 59.6575 54.5558C59.6034 54.6016 59.5268 54.623 59.4946 54.7155L59.8 55.0795ZM62.5028 50.533C62.5512 50.8626 62.7297 51.2166 63.0146 51.553C63.1654 51.731 63.1681 51.7291 63.382 51.6434C63.6859 51.5215 63.9906 51.4012 64.2969 51.2857C64.8513 51.0766 65.4306 50.9529 65.9989 50.7914C66.0577 50.7746 66.135 50.773 66.1379 50.6874C66.1401 50.6227 66.0806 50.5989 66.0341 50.5715C65.8059 50.4368 65.5774 50.3026 65.3486 50.1689C64.5998 49.7293 63.8482 49.2952 63.059 48.9321C62.788 48.8074 62.7505 48.8216 62.6307 49.0981C62.6089 49.1484 62.5918 49.2009 62.5736 49.2527C62.4271 49.6718 62.4441 50.1011 62.5028 50.533ZM56.1861 51.8247C56.3078 51.9045 56.4068 51.9168 56.5008 51.9402C56.9499 52.0519 57.4061 52.0585 57.8598 52.0013C58.6561 51.9013 59.3805 51.6257 59.9574 51.0396C60.5798 50.4071 60.9332 49.6316 61.1077 48.766C61.1293 48.6586 61.1279 48.5466 61.1396 48.437C61.1551 48.2912 61.091 48.2103 60.9485 48.188C60.9036 48.181 60.8597 48.1664 60.8147 48.1591C60.643 48.131 60.6238 48.1417 60.5951 48.309C60.5687 48.4629 60.555 48.6191 60.5284 48.7729C60.3265 49.9383 59.7112 50.7975 58.6649 51.3367C58.1214 51.6167 57.5407 51.7584 56.9342 51.7985C56.7005 51.814 56.466 51.8154 56.1861 51.8247ZM61.3338 53.8928C61.2198 53.9158 61.168 53.9952 61.1053 54.0561C60.7344 54.4175 60.4737 54.8588 60.2277 55.3095C60.0962 55.5506 60.1016 55.5535 60.3499 55.7632C60.4563 55.3462 60.7287 55.0795 61.0969 54.9011C61.1666 54.8673 61.2201 54.8219 61.2302 54.7406C61.265 54.4614 61.2985 54.1822 61.3338 53.8928Z"/>
<path d="M48.9922 79.5352V81H43.3906V72.5449H48.9922V74.0039H45.1602V76.043H48.7754V77.4023H45.1602V79.5352H48.9922Z"/>
<path d="M50.123 81V74.7188H51.7754V75.8379H51.8105C51.9824 75.4395 52.2324 75.1348 52.5605 74.9238C52.8926 74.709 53.2969 74.6016 53.7734 74.6016C54.4688 74.6016 55.0059 74.8086 55.3848 75.2227C55.7637 75.6367 55.9531 76.2129 55.9531 76.9512V81H54.2422V77.3086C54.2422 76.8945 54.1445 76.5762 53.9492 76.3535C53.7539 76.1309 53.4668 76.0195 53.0879 76.0195C52.709 76.0195 52.4043 76.1465 52.1738 76.4004C51.9473 76.6543 51.834 76.9863 51.834 77.3965V81H50.123Z"/>
<path d="M62.7441 77.0566H61.1562C61.1055 76.7168 60.9707 76.4434 60.752 76.2363C60.5371 76.0293 60.2578 75.9258 59.9141 75.9258C59.4883 75.9258 59.1523 76.0977 58.9062 76.4414C58.6641 76.7812 58.543 77.252 58.543 77.8535C58.543 78.4668 58.6641 78.9434 58.9062 79.2832C59.1523 79.623 59.4902 79.793 59.9199 79.793C60.2598 79.793 60.5371 79.6973 60.752 79.5059C60.9668 79.3105 61.1016 79.041 61.1562 78.6973H62.75C62.707 79.4395 62.4277 80.0312 61.9121 80.4727C61.3965 80.9141 60.7266 81.1348 59.9023 81.1348C58.9492 81.1348 58.1953 80.8438 57.6406 80.2617C57.0859 79.6758 56.8086 78.873 56.8086 77.8535C56.8086 76.8496 57.0859 76.0547 57.6406 75.4688C58.1992 74.8789 58.9492 74.584 59.8906 74.584C60.7266 74.584 61.4004 74.8145 61.9121 75.2754C62.4277 75.7363 62.7051 76.3301 62.7441 77.0566Z"/>
<path d="M63.6172 81V72.5449H65.2988V75.8379H65.334C65.502 75.4395 65.7539 75.1348 66.0898 74.9238C66.4297 74.709 66.8359 74.6016 67.3086 74.6016C68 74.6016 68.5371 74.8125 68.9199 75.2344C69.3066 75.6523 69.5 76.2266 69.5 76.957V81H67.7891V77.3203C67.7891 76.9102 67.6875 76.5918 67.4844 76.3652C67.2852 76.1348 66.9941 76.0195 66.6113 76.0195C66.2129 76.0195 65.8984 76.1484 65.668 76.4062C65.4414 76.6602 65.3281 76.9961 65.3281 77.4141V81H63.6172Z"/>
<path d="M70.625 81V74.7188H72.3359V81H70.625ZM72.1309 73.7695C71.9551 73.9414 71.7383 74.0273 71.4805 74.0273C71.2227 74.0273 71.0059 73.9414 70.8301 73.7695C70.6543 73.5977 70.5664 73.3887 70.5664 73.1426C70.5664 72.8926 70.6543 72.6836 70.8301 72.5156C71.0059 72.3438 71.2227 72.2578 71.4805 72.2578C71.7383 72.2578 71.9551 72.3438 72.1309 72.5156C72.3066 72.6836 72.3945 72.8926 72.3945 73.1426C72.3945 73.3887 72.3066 73.5977 72.1309 73.7695Z"/>
<path d="M73.5195 81V72.5449H75.2305V81H73.5195Z"/>
<path d="M78.8105 79.8633C79.1895 79.8633 79.5098 79.7539 79.7715 79.5352C80.0371 79.3125 80.1699 79.0332 80.1699 78.6973V78.2402L78.8457 78.3223C78.5254 78.3457 78.2773 78.4258 78.1016 78.5625C77.9297 78.6992 77.8438 78.8789 77.8438 79.1016C77.8438 79.3359 77.9316 79.5215 78.1074 79.6582C78.2832 79.7949 78.5176 79.8633 78.8105 79.8633ZM78.248 81.0996C77.6426 81.0996 77.1406 80.9219 76.7422 80.5664C76.3438 80.2109 76.1445 79.7539 76.1445 79.1953C76.1445 78.625 76.3555 78.1777 76.7773 77.8535C77.1992 77.5293 77.8027 77.3438 78.5879 77.2969L80.1699 77.2031V76.7871C80.1699 76.498 80.0742 76.2715 79.8828 76.1074C79.6953 75.9434 79.4395 75.8613 79.1152 75.8613C78.8027 75.8613 78.5469 75.9316 78.3477 76.0723C78.1523 76.2129 78.0332 76.4023 77.9902 76.6406H76.4258C76.457 76.0234 76.7207 75.5273 77.2168 75.1523C77.7129 74.7734 78.3711 74.584 79.1914 74.584C79.9961 74.584 80.6406 74.7754 81.125 75.1582C81.6094 75.541 81.8516 76.0488 81.8516 76.6816V81H80.1992V80.0391H80.1641C79.9922 80.3672 79.7305 80.627 79.3789 80.8184C79.0273 81.0059 78.6504 81.0996 78.248 81.0996Z"/>
<path d="M85.291 81.0996C84.5059 81.0996 83.8828 80.8086 83.4219 80.2266C82.9609 79.6445 82.7305 78.8516 82.7305 77.8477C82.7305 76.8516 82.9609 76.0645 83.4219 75.4863C83.8867 74.9082 84.5137 74.6191 85.3027 74.6191C85.748 74.6191 86.1387 74.7266 86.4746 74.9414C86.8145 75.1562 87.0625 75.4414 87.2188 75.7969H87.2539V72.5449H88.9648V81H87.2773V79.9219H87.248C87.0918 80.2773 86.8398 80.5625 86.4922 80.7773C86.1445 80.9922 85.7441 81.0996 85.291 81.0996ZM85.8711 75.9902C85.4414 75.9902 85.1016 76.1582 84.8516 76.4941C84.6055 76.8301 84.4824 77.2852 84.4824 77.8594C84.4824 78.4375 84.6055 78.8926 84.8516 79.2246C85.1016 79.5566 85.4414 79.7227 85.8711 79.7227C86.2969 79.7227 86.6348 79.5566 86.8848 79.2246C87.1387 78.8887 87.2656 78.4336 87.2656 77.8594C87.2656 77.2891 87.1387 76.8359 86.8848 76.5C86.6348 76.1602 86.2969 75.9902 85.8711 75.9902Z"/>
<path d="M92.5332 79.8633C92.9121 79.8633 93.2324 79.7539 93.4941 79.5352C93.7598 79.3125 93.8926 79.0332 93.8926 78.6973V78.2402L92.5684 78.3223C92.248 78.3457 92 78.4258 91.8242 78.5625C91.6523 78.6992 91.5664 78.8789 91.5664 79.1016C91.5664 79.3359 91.6543 79.5215 91.8301 79.6582C92.0059 79.7949 92.2402 79.8633 92.5332 79.8633ZM91.9707 81.0996C91.3652 81.0996 90.8633 80.9219 90.4648 80.5664C90.0664 80.2109 89.8672 79.7539 89.8672 79.1953C89.8672 78.625 90.0781 78.1777 90.5 77.8535C90.9219 77.5293 91.5254 77.3438 92.3105 77.2969L93.8926 77.2031V76.7871C93.8926 76.498 93.7969 76.2715 93.6055 76.1074C93.418 75.9434 93.1621 75.8613 92.8379 75.8613C92.5254 75.8613 92.2695 75.9316 92.0703 76.0723C91.875 76.2129 91.7559 76.4023 91.7129 76.6406H90.1484C90.1797 76.0234 90.4434 75.5273 90.9395 75.1523C91.4355 74.7734 92.0938 74.584 92.9141 74.584C93.7188 74.584 94.3633 74.7754 94.8477 75.1582C95.332 75.541 95.5742 76.0488 95.5742 76.6816V81H93.9219V80.0391H93.8867C93.7148 80.3672 93.4531 80.627 93.1016 80.8184C92.75 81.0059 92.373 81.0996 91.9707 81.0996Z"/>
<path d="M96.5762 76.5645C96.5762 75.9668 96.8164 75.4883 97.2969 75.1289C97.7773 74.7656 98.4199 74.584 99.2246 74.584C100.01 74.584 100.641 74.7676 101.117 75.1348C101.594 75.502 101.838 75.9902 101.85 76.5996H100.273C100.254 76.3457 100.148 76.1465 99.957 76.002C99.7695 75.8574 99.5176 75.7852 99.2012 75.7852C98.9043 75.7852 98.666 75.8477 98.4863 75.9727C98.3105 76.0938 98.2227 76.2559 98.2227 76.459C98.2227 76.7637 98.4961 76.9805 99.043 77.1094L100.244 77.3672C100.873 77.5078 101.324 77.7129 101.598 77.9824C101.875 78.248 102.014 78.6152 102.014 79.084C102.014 79.7012 101.756 80.1973 101.24 80.5723C100.725 80.9473 100.051 81.1348 99.2188 81.1348C98.3906 81.1348 97.7285 80.9512 97.2324 80.584C96.7363 80.2168 96.4648 79.7227 96.418 79.1016H98.0879C98.1309 79.3672 98.252 79.5723 98.4512 79.7168C98.6543 79.8613 98.9258 79.9336 99.2656 79.9336C99.5898 79.9336 99.8438 79.875 100.027 79.7578C100.215 79.6367 100.309 79.4727 100.309 79.2656C100.309 79.1055 100.25 78.9785 100.133 78.8848C100.016 78.7871 99.8164 78.7051 99.5352 78.6387L98.375 78.3809C97.1758 78.1074 96.5762 77.502 96.5762 76.5645Z"/>
</mask>
<path d="M11 36C11 22.1929 22.1929 11 36 11H110C123.807 11 135 22.1929 135 36V73C135 86.8071 123.807 98 110 98H36C22.1929 98 11 86.8071 11 73V36Z" fill="#2E3235"/>
<path d="M62.7685 61.6109C62.6365 61.6913 62.592 61.8078 62.5196 61.8997C62.1743 62.338 61.776 62.7027 61.2423 62.8998C60.3527 63.2282 59.4511 62.7447 59.2236 61.8129C59.1247 61.4189 59.1032 61.0095 59.1601 60.6077C59.1745 60.5088 59.1839 60.4091 59.1977 60.2911C59.0436 60.281 58.9245 60.3511 58.8009 60.3902C57.9571 60.6571 56.8434 60.3452 56.4775 59.2816C56.366 58.9574 56.375 58.6306 56.4309 58.3005C56.4401 58.2462 56.4572 58.1933 56.4675 58.1392C56.4808 58.0695 56.54 57.9891 56.4787 57.9311C56.4089 57.865 56.3202 57.9206 56.2482 57.9502C56.0948 58.0091 55.9358 58.0519 55.7737 58.0781C54.1097 58.3923 52.8896 57.1535 52.6268 55.9465C52.4542 55.154 52.5979 54.4316 53.026 53.7575C53.0638 53.6978 53.1258 53.6481 53.1197 53.564C53.0599 53.4948 52.9707 53.5031 52.8952 53.4784C52.5969 53.3811 52.319 53.2508 52.0836 53.033C51.4365 52.4343 51.4045 51.5384 52.0081 50.8974C52.1012 50.7985 52.2638 50.7408 52.2833 50.6049C52.3033 50.4659 52.1427 50.3818 52.0812 50.2591C51.816 49.7308 51.8711 49.2275 52.1747 48.7399C52.2192 48.6704 52.2697 48.6049 52.3255 48.5443C52.3909 48.4715 52.3983 48.4049 52.3364 48.3245C52.0061 47.896 51.9819 47.4279 52.1788 46.9433C52.3974 46.4052 52.8029 46.069 53.3523 45.9153C54.0371 45.7237 54.6704 45.8964 55.2724 46.2346C55.4156 46.3163 55.5525 46.4089 55.6819 46.5114C55.8076 46.6096 55.9182 46.6142 56.0566 46.534C57.0363 45.9671 58.0267 45.4187 58.9997 44.8405C61.4881 43.3619 63.9172 41.7871 66.3439 40.2087C67.5533 39.4221 68.745 38.6075 69.9933 37.883C70.2855 37.7135 70.5795 37.5473 70.8754 37.3845C70.9939 37.3192 71.0457 37.2376 71.0186 37.0945C70.9367 36.6624 71.0731 36.276 71.283 35.9101C71.5448 35.4542 71.9265 35.1151 72.3515 34.8229C73.2094 34.233 74.0788 33.6607 74.92 33.0457C76.2548 32.0698 77.5967 31.1036 78.9899 30.2127C79.8207 29.6815 80.6568 29.1587 81.4619 28.5875C81.999 28.2063 82.5035 27.784 83.0083 27.3618C83.2372 27.1653 83.4775 26.9827 83.728 26.8151C84.275 26.459 84.8717 26.3587 85.509 26.4572C86.6738 26.6373 87.7023 27.1342 88.6375 27.844C89.6309 28.5979 90.4694 29.5086 91.2384 30.4875C91.9144 31.3479 92.564 32.2275 93.1281 33.1685C93.7197 34.1555 94.1521 35.2051 94.3723 36.3393C94.4794 36.8908 94.5952 37.4402 94.6106 38.0053C94.6483 39.3819 94.19 40.5525 93.1836 41.4836C91.2239 43.2965 89.3827 45.2385 87.3271 46.9471C86.8634 47.3324 86.421 47.7442 85.9774 48.1535C85.2492 48.8253 84.4763 49.4365 83.6252 49.9424C83.1898 50.1961 82.8149 50.5427 82.5266 50.9583C82.4443 51.0803 82.3444 51.189 82.23 51.2809C81.9307 51.5165 81.6053 51.5813 81.262 51.388C81.1363 51.3171 81.0334 51.3063 80.9059 51.3732C80.6292 51.5217 80.3081 51.5635 80.0023 51.4908C79.9449 51.4759 79.8847 51.475 79.8269 51.4883C79.7691 51.5015 79.7153 51.5285 79.67 51.5669C79.5829 51.6331 79.5003 51.7052 79.4228 51.7827C78.8833 52.3455 78.2963 52.8551 77.6828 53.3319C76.0522 54.5993 74.4176 55.8615 72.779 57.1185C71.4791 58.1137 70.1345 59.0432 68.7003 59.834C67.8532 60.301 67.009 60.775 66.1206 61.1603C65.9579 61.2309 65.8904 61.3289 65.8794 61.5124C65.8558 61.9104 65.7107 62.2662 65.4153 62.5415C64.9085 63.0138 64.1825 63.0188 63.583 62.5606C63.3203 62.3593 63.0939 62.1139 62.9138 61.8351C62.8694 61.7666 62.825 61.698 62.7685 61.6109ZM58.6163 46.4651L58.6197 46.519C58.6994 46.5218 58.7791 46.5281 58.8586 46.527C60.1785 46.509 61.4555 46.7494 62.6976 47.1947C63.8574 47.6106 64.9242 48.2164 65.9793 48.8461C66.75 49.306 67.5182 49.7709 68.3403 50.1351C69.1941 50.5134 70.0792 50.7541 71.0157 50.768C72.0249 50.7829 72.988 50.5592 73.9218 50.1919C74.8675 49.8198 75.7507 49.3235 76.6244 48.8088C77.1043 48.5261 77.5859 48.2465 78.0842 47.9972C78.8326 47.6227 79.604 47.3775 80.4574 47.5444C80.6446 47.5811 80.6693 47.5498 80.6384 47.3543C80.5245 46.6349 80.3789 45.9217 80.1476 45.2299C79.5816 43.5367 78.6725 42.0462 77.4904 40.7209C76.5367 39.6516 75.4781 38.71 74.2272 38.0033C73.7887 37.7556 73.3373 37.5309 72.9166 37.2518C72.8082 37.1798 72.7149 37.1852 72.6189 37.2687C72.5638 37.3166 72.5036 37.3585 72.4458 37.4034C71.231 38.3424 70.0114 39.2746 68.7298 40.121C66.771 41.4146 64.7932 42.6786 62.8202 43.9498C61.6531 44.7018 60.4825 45.4477 59.2653 46.1162C59.0503 46.2344 58.8328 46.3488 58.6163 46.4651ZM81.851 49.768C81.9005 49.7355 81.9271 49.7256 81.9428 49.7065C82.2128 49.3772 82.5401 49.1163 82.894 48.8856C83.3987 48.5567 83.9191 48.248 84.374 47.8493C85.7076 46.6805 87.0454 45.5162 88.3603 44.3262C89.3565 43.4245 90.3193 42.4853 91.2984 41.5643C91.7312 41.1572 92.1908 40.7788 92.5924 40.3384C92.9872 39.9123 93.242 39.3734 93.322 38.7949C93.3929 38.306 93.3649 37.8189 93.2939 37.3369C93.126 36.1978 92.7846 35.1144 92.2059 34.1122C91.5276 32.9374 90.7242 31.8523 89.874 30.8012C89.2714 30.0561 88.6157 29.3621 87.8514 28.7825C87.0797 28.1974 86.232 27.7874 85.2629 27.6611C84.8793 27.6112 84.5378 27.6952 84.2308 27.9226C84.0327 28.0693 83.8372 28.2204 83.6498 28.3804C82.8704 29.0461 82.061 29.6707 81.2028 30.2303C80.2314 30.8636 79.2518 31.4851 78.2933 32.1376C76.5424 33.3301 74.8688 34.6355 73.0794 35.7724C73.0211 35.8094 72.9443 35.8349 72.9367 35.9214C72.9645 35.9692 73.0115 35.9765 73.0552 35.9872C74.1993 36.2664 75.1873 36.8634 76.0903 37.594C77.8727 39.0359 79.3192 40.7718 80.3854 42.8152C81.419 44.7962 81.9065 46.9109 81.8661 49.1466C81.8624 49.3458 81.8564 49.5449 81.851 49.768ZM65.8813 60.0051C66.0334 60.0257 66.1029 59.9551 66.1767 59.909C67.8109 58.8886 69.4359 57.8537 70.9938 56.7166C72.2259 55.8171 73.4691 54.9335 74.7233 54.0656C75.7816 53.3313 76.8232 52.5734 77.8062 51.738C78.7607 50.9268 79.6566 50.0498 80.5832 49.2073C80.8086 49.0023 80.8378 48.7826 80.7949 48.5188C80.7654 48.3366 80.7256 48.3122 80.5585 48.3712C80.4297 48.4167 80.3032 48.4691 80.177 48.5216C79.012 49.0065 77.9091 49.6123 76.8231 50.2532C76.0444 50.7126 75.2484 51.1407 74.4093 51.4802C73.2474 51.9503 72.0475 52.2326 70.7851 52.184C69.7133 52.1427 68.6946 51.872 67.7152 51.4357C67.6193 51.3929 67.5264 51.3288 67.3987 51.3368C67.9046 54.4105 67.3072 57.273 65.8813 60.0051ZM54.1428 50.8118C53.9021 50.9197 53.6527 50.9311 53.4094 50.9279C53.0437 50.9228 52.7848 51.1077 52.5584 51.3543C52.1589 51.7893 52.2433 52.3249 52.7484 52.6386C52.9766 52.7777 53.2371 52.853 53.5033 52.857C53.7039 52.8639 53.9044 52.8395 54.0975 52.7846C54.1768 52.7585 54.2632 52.7642 54.3387 52.8005C54.4143 52.8369 54.4732 52.9011 54.5032 52.9799C54.563 53.1259 54.5144 53.2723 54.365 53.3889C54.3292 53.4168 54.2892 53.4397 54.2507 53.4642C54.0419 53.5967 53.8586 53.7662 53.7095 53.9644C53.205 54.6359 53.0787 55.3679 53.4453 56.1415C53.7958 56.881 54.3771 57.3127 55.2097 57.3409C55.5124 57.3531 55.8135 57.2953 56.0901 57.1718C56.7713 56.8628 57.4525 56.5495 57.9819 55.9907C58.0687 55.896 58.1694 55.8152 58.2805 55.7512C58.5009 55.6289 58.7081 55.6508 58.8547 55.8136C59.0083 55.9842 59.0079 56.2105 58.8417 56.4159C58.7695 56.4986 58.6902 56.5746 58.6046 56.6429C58.3059 56.8996 58.0171 57.166 57.7754 57.4799C57.5378 57.7885 57.3487 58.1231 57.2849 58.5141C57.1869 59.1147 57.5446 59.5795 58.1469 59.6149C58.8492 59.6561 59.3658 59.3004 59.7736 58.7676C59.9508 58.5361 60.0756 58.2632 60.2792 58.0501C60.3752 57.9497 60.3428 57.8805 60.2653 57.793C59.5779 57.016 59.2898 56.0559 59.045 55.0776C58.999 54.894 59.0104 54.8851 58.8037 54.8846C58.4395 54.8836 58.1264 54.7514 57.8512 54.5183C57.51 54.2293 57.3114 53.8522 57.1869 53.4275C57.109 53.1618 57.1037 53.161 56.8348 53.1399C56.259 53.0955 55.6998 52.9218 55.1982 52.6314C54.8128 52.4102 54.4766 52.1283 54.2344 51.746C54.0829 51.507 54.04 51.2525 54.1327 50.9805C54.1472 50.9383 54.1766 50.8984 54.1428 50.8118ZM61.2722 55.5949C61.1564 55.6504 61.1014 55.7504 61.0321 55.8325C60.9268 55.9572 60.7341 56.0547 60.7309 56.2067C60.7272 56.3781 60.9315 56.4754 61.0486 56.6008C61.7437 57.3451 62.5999 57.6783 63.6082 57.617C63.7264 57.6082 63.845 57.606 63.9635 57.6104C64.2351 57.6243 64.3572 57.8147 64.2606 58.0657C64.2127 58.1901 64.1213 58.279 64.0189 58.3581C63.6432 58.6485 63.2071 58.7645 62.7443 58.7937C62.1952 58.8299 61.6459 58.7183 61.1525 58.4705C60.9355 58.3631 60.9326 58.3661 60.8148 58.5677C60.6574 58.8368 60.4815 59.0944 60.2883 59.3386C60.2176 59.4226 60.1591 59.5164 60.1147 59.6171C59.9658 59.9731 59.8639 60.3475 59.8116 60.7307C59.7695 61.0604 59.8015 61.3958 59.9053 61.7119C60.0423 62.1369 60.3866 62.3388 60.8199 62.2652C61.0099 62.2365 61.1908 62.1644 61.3486 62.0542C61.8987 61.6598 62.3012 61.1553 62.4893 60.4907C62.5055 60.4285 62.5291 60.3686 62.5595 60.3121C62.6796 60.1009 62.8985 60.0066 63.088 60.0787C63.2798 60.1517 63.3592 60.3189 63.3103 60.5805C63.2893 60.6925 63.2777 60.801 63.3227 60.9054C63.505 61.3278 63.7549 61.697 64.1632 61.93C64.5402 62.1452 64.8888 62.023 65.0645 61.6261C65.114 61.5143 65.0862 61.4673 64.9719 61.4246C64.5339 61.2613 64.3836 60.9891 64.4662 60.5242C64.5065 60.2973 64.5806 60.0794 64.6607 59.8642C64.9393 59.1157 65.2284 58.3709 65.4481 57.6015C65.4749 57.5077 65.5322 57.4156 65.4895 57.298C65.3398 57.2903 65.2165 57.3847 65.0758 57.4119C64.3026 57.5614 63.5503 57.4843 62.8186 57.1981C62.1395 56.9326 61.6351 56.4796 61.3708 55.7792C61.3486 55.7205 61.3414 55.6528 61.2722 55.5949ZM63.396 56.2619C63.5198 56.315 63.6524 56.3392 63.785 56.3622C64.1994 56.4318 64.6176 56.4743 65.0371 56.4897C65.2102 56.4973 65.3827 56.5085 65.5504 56.563C65.7163 56.6169 65.7198 56.614 65.7625 56.4355C66.1333 54.9052 66.2916 53.3296 66.2329 51.7538C66.2237 51.5166 66.1885 51.4935 65.9722 51.5917C65.6732 51.7276 65.3766 51.868 65.0599 51.9605C64.5352 52.1136 64.0098 52.2653 63.4884 52.4298C63.0758 52.5601 62.6881 52.7414 62.4038 53.0891C62.3665 53.1347 62.3038 53.1769 62.34 53.2471C62.3761 53.2829 62.4132 53.2747 62.4484 53.2691C63.223 53.1453 64.0075 53.106 64.784 52.9987C65.0368 52.9638 65.1915 53.0278 65.2302 53.1668C65.2671 53.2992 65.188 53.4277 64.9735 53.5448C64.5185 53.7983 64.0313 53.9881 63.5252 54.1091C63.0761 54.2128 62.6241 54.2428 62.1673 54.1646C62.0746 54.1487 61.9915 54.1588 61.9952 54.2747C61.9993 54.405 61.9188 54.5532 62.0551 54.6596C62.0753 54.6755 62.125 54.657 62.1597 54.6486C62.2571 54.6252 62.3535 54.5969 62.451 54.574C63.2423 54.3876 64.0557 54.3313 64.8506 54.1663C64.9221 54.1501 64.9964 54.1503 65.068 54.1669C65.2772 54.2182 65.3413 54.3878 65.2142 54.5639C65.1823 54.6087 65.1427 54.6474 65.0974 54.6783C64.3347 55.1823 63.5183 55.5116 62.5829 55.4599C62.473 55.4538 62.3092 55.3567 62.2627 55.4815C62.2195 55.5971 62.3803 55.6909 62.4635 55.7854C62.4817 55.806 62.5038 55.8229 62.524 55.8417C62.6034 55.9155 62.6748 55.9284 62.7566 55.8367C62.8629 55.7176 63.0074 55.6578 63.1561 55.6082C63.8131 55.3885 64.4997 55.3786 65.18 55.324C65.2165 55.3217 65.2531 55.3246 65.2889 55.3326C65.3804 55.3515 65.4758 55.3774 65.4926 55.4869C65.5089 55.5927 65.4345 55.6578 65.3542 55.7051C65.2839 55.7478 65.2089 55.7821 65.1307 55.8073C64.5827 55.9752 64.0446 56.1856 63.4622 56.2116C63.4468 56.2098 63.4314 56.214 63.4191 56.2234C63.4067 56.2327 63.3985 56.2465 63.396 56.2619ZM55.3076 46.9664C54.7064 46.7104 54.1065 46.5293 53.4611 46.7682C53.2456 46.8495 53.064 47.002 52.9458 47.201C52.8852 47.2934 52.8471 47.3991 52.8347 47.5094C52.8223 47.6197 52.8359 47.7315 52.8743 47.8357C52.9337 48.0052 53.0082 48.0488 53.1873 48.0199C53.3401 47.9953 53.4911 47.9594 53.6441 47.9365C53.8433 47.9058 54.0472 47.9282 54.2357 48.0012C54.3513 48.0456 54.4515 48.1145 54.457 48.2538C54.4627 48.398 54.3564 48.4601 54.2447 48.5092C54.195 48.531 54.1404 48.5412 54.0887 48.5589C53.8992 48.6236 53.7074 48.6828 53.5294 48.7769C53.3334 48.8804 53.1583 49.0103 53.044 49.207C52.8272 49.5796 52.965 49.9977 53.3587 50.1685C53.5025 50.2309 53.6552 50.2585 53.8075 50.2878C54.0215 50.329 54.2441 50.35 54.3666 50.5666C54.9702 50.0931 56.4619 48.2247 56.5791 47.7879C56.173 47.809 55.7736 47.7764 55.3758 47.8375C55.2679 47.8538 55.1592 47.864 55.0501 47.8681C54.9428 47.8723 54.8515 47.8298 54.7995 47.7309C54.7409 47.6195 54.7706 47.5118 54.8457 47.4235C54.9223 47.3335 55.0127 47.2556 55.0972 47.1725C55.1613 47.1095 55.2539 47.0776 55.3076 46.9664ZM55.2792 50.9241C55.8676 50.9243 56.3923 50.8586 56.9119 50.7791C57.5265 50.685 58.1134 50.4945 58.6338 50.1292C59.1812 49.7449 59.5288 49.1999 59.8496 48.6314C59.9347 48.4803 60.0025 48.3189 60.0781 48.1621C60.1265 48.0616 60.0922 48.0049 59.9859 47.987C59.932 47.978 59.8779 47.97 59.824 47.9607C59.1127 47.8379 58.3948 47.8009 57.6753 47.7761C57.4818 47.7694 57.3822 47.8394 57.3052 48.0187C56.996 48.7392 56.5626 49.3838 56.0852 50.0002C55.8453 50.3098 55.5721 50.5899 55.2792 50.9241ZM59.8 55.0795C59.8271 55.0515 59.846 55.041 59.8508 55.0258C60.1484 54.1061 60.7106 53.4179 61.5857 53.004C61.6761 52.9602 61.7535 52.8932 61.8101 52.8096C61.9964 52.5481 62.2242 52.3194 62.4843 52.1327C62.6438 52.0179 62.6425 52.0065 62.4758 51.8813C62.1287 51.6206 61.9174 51.2765 61.8503 50.8478C61.7383 50.1326 61.8541 49.4566 62.2091 48.8266C62.3183 48.6329 62.3213 48.632 62.1268 48.5552C62.0168 48.5104 61.9044 48.4715 61.7903 48.4388C61.6218 48.3926 61.5867 48.4192 61.6214 48.5946C61.7198 49.0928 61.6158 49.5627 61.4534 50.0274C61.3703 50.2612 61.269 50.4878 61.1505 50.7053C60.7018 51.5396 60.1037 52.2256 59.2445 52.6527C58.8749 52.8366 58.4859 52.9617 58.0886 53.0656C57.8897 53.1176 57.8785 53.1408 57.9805 53.3237C58.1136 53.5666 58.2951 53.7791 58.5136 53.9478C58.6504 54.057 58.8117 54.1305 58.9832 54.1617C59.0878 54.1793 59.1418 54.1417 59.1143 54.0247C59.0411 53.7136 59.1573 53.4448 59.3045 53.1865C59.4255 52.9697 59.5823 52.7754 59.7682 52.612C59.9476 52.4566 60.1294 52.3036 60.3155 52.1563C60.6621 51.8819 60.9739 51.5777 61.1868 51.1813C61.2207 51.1164 61.2663 51.0585 61.3212 51.0104C61.4478 50.9038 61.5888 50.9483 61.6427 51.1083C61.6593 51.1609 61.6668 51.216 61.6648 51.2711C61.649 51.8655 61.471 52.3916 61.021 52.7974C60.8856 52.9196 60.7406 53.0314 60.5981 53.1455C60.4054 53.2999 60.2142 53.4561 60.0596 53.651C59.9037 53.8476 59.782 54.0612 59.7813 54.3229C59.781 54.4266 59.73 54.4946 59.6575 54.5558C59.6034 54.6016 59.5268 54.623 59.4946 54.7155L59.8 55.0795ZM62.5028 50.533C62.5512 50.8626 62.7297 51.2166 63.0146 51.553C63.1654 51.731 63.1681 51.7291 63.382 51.6434C63.6859 51.5215 63.9906 51.4012 64.2969 51.2857C64.8513 51.0766 65.4306 50.9529 65.9989 50.7914C66.0577 50.7746 66.135 50.773 66.1379 50.6874C66.1401 50.6227 66.0806 50.5989 66.0341 50.5715C65.8059 50.4368 65.5774 50.3026 65.3486 50.1689C64.5998 49.7293 63.8482 49.2952 63.059 48.9321C62.788 48.8074 62.7505 48.8216 62.6307 49.0981C62.6089 49.1484 62.5918 49.2009 62.5736 49.2527C62.4271 49.6718 62.4441 50.1011 62.5028 50.533ZM56.1861 51.8247C56.3078 51.9045 56.4068 51.9168 56.5008 51.9402C56.9499 52.0519 57.4061 52.0585 57.8598 52.0013C58.6561 51.9013 59.3805 51.6257 59.9574 51.0396C60.5798 50.4071 60.9332 49.6316 61.1077 48.766C61.1293 48.6586 61.1279 48.5466 61.1396 48.437C61.1551 48.2912 61.091 48.2103 60.9485 48.188C60.9036 48.181 60.8597 48.1664 60.8147 48.1591C60.643 48.131 60.6238 48.1417 60.5951 48.309C60.5687 48.4629 60.555 48.6191 60.5284 48.7729C60.3265 49.9383 59.7112 50.7975 58.6649 51.3367C58.1214 51.6167 57.5407 51.7584 56.9342 51.7985C56.7005 51.814 56.466 51.8154 56.1861 51.8247ZM61.3338 53.8928C61.2198 53.9158 61.168 53.9952 61.1053 54.0561C60.7344 54.4175 60.4737 54.8588 60.2277 55.3095C60.0962 55.5506 60.1016 55.5535 60.3499 55.7632C60.4563 55.3462 60.7287 55.0795 61.0969 54.9011C61.1666 54.8673 61.2201 54.8219 61.2302 54.7406C61.265 54.4614 61.2985 54.1822 61.3338 53.8928Z" fill="#F83103"/>
<path d="M48.9922 79.5352V81H43.3906V72.5449H48.9922V74.0039H45.1602V76.043H48.7754V77.4023H45.1602V79.5352H48.9922Z" fill="#F83103"/>
<path d="M50.123 81V74.7188H51.7754V75.8379H51.8105C51.9824 75.4395 52.2324 75.1348 52.5605 74.9238C52.8926 74.709 53.2969 74.6016 53.7734 74.6016C54.4688 74.6016 55.0059 74.8086 55.3848 75.2227C55.7637 75.6367 55.9531 76.2129 55.9531 76.9512V81H54.2422V77.3086C54.2422 76.8945 54.1445 76.5762 53.9492 76.3535C53.7539 76.1309 53.4668 76.0195 53.0879 76.0195C52.709 76.0195 52.4043 76.1465 52.1738 76.4004C51.9473 76.6543 51.834 76.9863 51.834 77.3965V81H50.123Z" fill="#F83103"/>
<path d="M62.7441 77.0566H61.1562C61.1055 76.7168 60.9707 76.4434 60.752 76.2363C60.5371 76.0293 60.2578 75.9258 59.9141 75.9258C59.4883 75.9258 59.1523 76.0977 58.9062 76.4414C58.6641 76.7812 58.543 77.252 58.543 77.8535C58.543 78.4668 58.6641 78.9434 58.9062 79.2832C59.1523 79.623 59.4902 79.793 59.9199 79.793C60.2598 79.793 60.5371 79.6973 60.752 79.5059C60.9668 79.3105 61.1016 79.041 61.1562 78.6973H62.75C62.707 79.4395 62.4277 80.0312 61.9121 80.4727C61.3965 80.9141 60.7266 81.1348 59.9023 81.1348C58.9492 81.1348 58.1953 80.8438 57.6406 80.2617C57.0859 79.6758 56.8086 78.873 56.8086 77.8535C56.8086 76.8496 57.0859 76.0547 57.6406 75.4688C58.1992 74.8789 58.9492 74.584 59.8906 74.584C60.7266 74.584 61.4004 74.8145 61.9121 75.2754C62.4277 75.7363 62.7051 76.3301 62.7441 77.0566Z" fill="#F83103"/>
<path d="M63.6172 81V72.5449H65.2988V75.8379H65.334C65.502 75.4395 65.7539 75.1348 66.0898 74.9238C66.4297 74.709 66.8359 74.6016 67.3086 74.6016C68 74.6016 68.5371 74.8125 68.9199 75.2344C69.3066 75.6523 69.5 76.2266 69.5 76.957V81H67.7891V77.3203C67.7891 76.9102 67.6875 76.5918 67.4844 76.3652C67.2852 76.1348 66.9941 76.0195 66.6113 76.0195C66.2129 76.0195 65.8984 76.1484 65.668 76.4062C65.4414 76.6602 65.3281 76.9961 65.3281 77.4141V81H63.6172Z" fill="#F83103"/>
<path d="M70.625 81V74.7188H72.3359V81H70.625ZM72.1309 73.7695C71.9551 73.9414 71.7383 74.0273 71.4805 74.0273C71.2227 74.0273 71.0059 73.9414 70.8301 73.7695C70.6543 73.5977 70.5664 73.3887 70.5664 73.1426C70.5664 72.8926 70.6543 72.6836 70.8301 72.5156C71.0059 72.3438 71.2227 72.2578 71.4805 72.2578C71.7383 72.2578 71.9551 72.3438 72.1309 72.5156C72.3066 72.6836 72.3945 72.8926 72.3945 73.1426C72.3945 73.3887 72.3066 73.5977 72.1309 73.7695Z" fill="#F83103"/>
<path d="M73.5195 81V72.5449H75.2305V81H73.5195Z" fill="#F83103"/>
<path d="M78.8105 79.8633C79.1895 79.8633 79.5098 79.7539 79.7715 79.5352C80.0371 79.3125 80.1699 79.0332 80.1699 78.6973V78.2402L78.8457 78.3223C78.5254 78.3457 78.2773 78.4258 78.1016 78.5625C77.9297 78.6992 77.8438 78.8789 77.8438 79.1016C77.8438 79.3359 77.9316 79.5215 78.1074 79.6582C78.2832 79.7949 78.5176 79.8633 78.8105 79.8633ZM78.248 81.0996C77.6426 81.0996 77.1406 80.9219 76.7422 80.5664C76.3438 80.2109 76.1445 79.7539 76.1445 79.1953C76.1445 78.625 76.3555 78.1777 76.7773 77.8535C77.1992 77.5293 77.8027 77.3438 78.5879 77.2969L80.1699 77.2031V76.7871C80.1699 76.498 80.0742 76.2715 79.8828 76.1074C79.6953 75.9434 79.4395 75.8613 79.1152 75.8613C78.8027 75.8613 78.5469 75.9316 78.3477 76.0723C78.1523 76.2129 78.0332 76.4023 77.9902 76.6406H76.4258C76.457 76.0234 76.7207 75.5273 77.2168 75.1523C77.7129 74.7734 78.3711 74.584 79.1914 74.584C79.9961 74.584 80.6406 74.7754 81.125 75.1582C81.6094 75.541 81.8516 76.0488 81.8516 76.6816V81H80.1992V80.0391H80.1641C79.9922 80.3672 79.7305 80.627 79.3789 80.8184C79.0273 81.0059 78.6504 81.0996 78.248 81.0996Z" fill="#F83103"/>
<path d="M85.291 81.0996C84.5059 81.0996 83.8828 80.8086 83.4219 80.2266C82.9609 79.6445 82.7305 78.8516 82.7305 77.8477C82.7305 76.8516 82.9609 76.0645 83.4219 75.4863C83.8867 74.9082 84.5137 74.6191 85.3027 74.6191C85.748 74.6191 86.1387 74.7266 86.4746 74.9414C86.8145 75.1562 87.0625 75.4414 87.2188 75.7969H87.2539V72.5449H88.9648V81H87.2773V79.9219H87.248C87.0918 80.2773 86.8398 80.5625 86.4922 80.7773C86.1445 80.9922 85.7441 81.0996 85.291 81.0996ZM85.8711 75.9902C85.4414 75.9902 85.1016 76.1582 84.8516 76.4941C84.6055 76.8301 84.4824 77.2852 84.4824 77.8594C84.4824 78.4375 84.6055 78.8926 84.8516 79.2246C85.1016 79.5566 85.4414 79.7227 85.8711 79.7227C86.2969 79.7227 86.6348 79.5566 86.8848 79.2246C87.1387 78.8887 87.2656 78.4336 87.2656 77.8594C87.2656 77.2891 87.1387 76.8359 86.8848 76.5C86.6348 76.1602 86.2969 75.9902 85.8711 75.9902Z" fill="#F83103"/>
<path d="M92.5332 79.8633C92.9121 79.8633 93.2324 79.7539 93.4941 79.5352C93.7598 79.3125 93.8926 79.0332 93.8926 78.6973V78.2402L92.5684 78.3223C92.248 78.3457 92 78.4258 91.8242 78.5625C91.6523 78.6992 91.5664 78.8789 91.5664 79.1016C91.5664 79.3359 91.6543 79.5215 91.8301 79.6582C92.0059 79.7949 92.2402 79.8633 92.5332 79.8633ZM91.9707 81.0996C91.3652 81.0996 90.8633 80.9219 90.4648 80.5664C90.0664 80.2109 89.8672 79.7539 89.8672 79.1953C89.8672 78.625 90.0781 78.1777 90.5 77.8535C90.9219 77.5293 91.5254 77.3438 92.3105 77.2969L93.8926 77.2031V76.7871C93.8926 76.498 93.7969 76.2715 93.6055 76.1074C93.418 75.9434 93.1621 75.8613 92.8379 75.8613C92.5254 75.8613 92.2695 75.9316 92.0703 76.0723C91.875 76.2129 91.7559 76.4023 91.7129 76.6406H90.1484C90.1797 76.0234 90.4434 75.5273 90.9395 75.1523C91.4355 74.7734 92.0938 74.584 92.9141 74.584C93.7188 74.584 94.3633 74.7754 94.8477 75.1582C95.332 75.541 95.5742 76.0488 95.5742 76.6816V81H93.9219V80.0391H93.8867C93.7148 80.3672 93.4531 80.627 93.1016 80.8184C92.75 81.0059 92.373 81.0996 91.9707 81.0996Z" fill="#F83103"/>
<path d="M96.5762 76.5645C96.5762 75.9668 96.8164 75.4883 97.2969 75.1289C97.7773 74.7656 98.4199 74.584 99.2246 74.584C100.01 74.584 100.641 74.7676 101.117 75.1348C101.594 75.502 101.838 75.9902 101.85 76.5996H100.273C100.254 76.3457 100.148 76.1465 99.957 76.002C99.7695 75.8574 99.5176 75.7852 99.2012 75.7852C98.9043 75.7852 98.666 75.8477 98.4863 75.9727C98.3105 76.0938 98.2227 76.2559 98.2227 76.459C98.2227 76.7637 98.4961 76.9805 99.043 77.1094L100.244 77.3672C100.873 77.5078 101.324 77.7129 101.598 77.9824C101.875 78.248 102.014 78.6152 102.014 79.084C102.014 79.7012 101.756 80.1973 101.24 80.5723C100.725 80.9473 100.051 81.1348 99.2188 81.1348C98.3906 81.1348 97.7285 80.9512 97.2324 80.584C96.7363 80.2168 96.4648 79.7227 96.418 79.1016H98.0879C98.1309 79.3672 98.252 79.5723 98.4512 79.7168C98.6543 79.8613 98.9258 79.9336 99.2656 79.9336C99.5898 79.9336 99.8438 79.875 100.027 79.7578C100.215 79.6367 100.309 79.4727 100.309 79.2656C100.309 79.1055 100.25 78.9785 100.133 78.8848C100.016 78.7871 99.8164 78.7051 99.5352 78.6387L98.375 78.3809C97.1758 78.1074 96.5762 77.502 96.5762 76.5645Z" fill="#F83103"/>
<path d="M11 36C11 22.1929 22.1929 11 36 11H110C123.807 11 135 22.1929 135 36V73C135 86.8071 123.807 98 110 98H36C22.1929 98 11 86.8071 11 73V36Z" stroke="#F83103" stroke-width="2" mask="url(#path-1-outside-1_356_229)"/>
<path d="M62.7685 61.6109C62.6365 61.6913 62.592 61.8078 62.5196 61.8997C62.1743 62.338 61.776 62.7027 61.2423 62.8998C60.3527 63.2282 59.4511 62.7447 59.2236 61.8129C59.1247 61.4189 59.1032 61.0095 59.1601 60.6077C59.1745 60.5088 59.1839 60.4091 59.1977 60.2911C59.0436 60.281 58.9245 60.3511 58.8009 60.3902C57.9571 60.6571 56.8434 60.3452 56.4775 59.2816C56.366 58.9574 56.375 58.6306 56.4309 58.3005C56.4401 58.2462 56.4572 58.1933 56.4675 58.1392C56.4808 58.0695 56.54 57.9891 56.4787 57.9311C56.4089 57.865 56.3202 57.9206 56.2482 57.9502C56.0948 58.0091 55.9358 58.0519 55.7737 58.0781C54.1097 58.3923 52.8896 57.1535 52.6268 55.9465C52.4542 55.154 52.5979 54.4316 53.026 53.7575C53.0638 53.6978 53.1258 53.6481 53.1197 53.564C53.0599 53.4948 52.9707 53.5031 52.8952 53.4784C52.5969 53.3811 52.319 53.2508 52.0836 53.033C51.4365 52.4343 51.4045 51.5384 52.0081 50.8974C52.1012 50.7985 52.2638 50.7408 52.2833 50.6049C52.3033 50.4659 52.1427 50.3818 52.0812 50.2591C51.816 49.7308 51.8711 49.2275 52.1747 48.7399C52.2192 48.6704 52.2697 48.6049 52.3255 48.5443C52.3909 48.4715 52.3983 48.4049 52.3364 48.3245C52.0061 47.896 51.9819 47.4279 52.1788 46.9433C52.3974 46.4052 52.8029 46.069 53.3523 45.9153C54.0371 45.7237 54.6704 45.8964 55.2724 46.2346C55.4156 46.3163 55.5525 46.4089 55.6819 46.5114C55.8076 46.6096 55.9182 46.6142 56.0566 46.534C57.0363 45.9671 58.0267 45.4187 58.9997 44.8405C61.4881 43.3619 63.9172 41.7871 66.3439 40.2087C67.5533 39.4221 68.745 38.6075 69.9933 37.883C70.2855 37.7135 70.5795 37.5473 70.8754 37.3845C70.9939 37.3192 71.0457 37.2376 71.0186 37.0945C70.9367 36.6624 71.0731 36.276 71.283 35.9101C71.5448 35.4542 71.9265 35.1151 72.3515 34.8229C73.2094 34.233 74.0788 33.6607 74.92 33.0457C76.2548 32.0698 77.5967 31.1036 78.9899 30.2127C79.8207 29.6815 80.6568 29.1587 81.4619 28.5875C81.999 28.2063 82.5035 27.784 83.0083 27.3618C83.2372 27.1653 83.4775 26.9827 83.728 26.8151C84.275 26.459 84.8717 26.3587 85.509 26.4572C86.6738 26.6373 87.7023 27.1342 88.6375 27.844C89.6309 28.5979 90.4694 29.5086 91.2384 30.4875C91.9144 31.3479 92.564 32.2275 93.1281 33.1685C93.7197 34.1555 94.1521 35.2051 94.3723 36.3393C94.4794 36.8908 94.5952 37.4402 94.6106 38.0053C94.6483 39.3819 94.19 40.5525 93.1836 41.4836C91.2239 43.2965 89.3827 45.2385 87.3271 46.9471C86.8634 47.3324 86.421 47.7442 85.9774 48.1535C85.2492 48.8253 84.4763 49.4365 83.6252 49.9424C83.1898 50.1961 82.8149 50.5427 82.5266 50.9583C82.4443 51.0803 82.3444 51.189 82.23 51.2809C81.9307 51.5165 81.6053 51.5813 81.262 51.388C81.1363 51.3171 81.0334 51.3063 80.9059 51.3732C80.6292 51.5217 80.3081 51.5635 80.0023 51.4908C79.9449 51.4759 79.8847 51.475 79.8269 51.4883C79.7691 51.5015 79.7153 51.5285 79.67 51.5669C79.5829 51.6331 79.5003 51.7052 79.4228 51.7827C78.8833 52.3455 78.2963 52.8551 77.6828 53.3319C76.0522 54.5993 74.4176 55.8615 72.779 57.1185C71.4791 58.1137 70.1345 59.0432 68.7003 59.834C67.8532 60.301 67.009 60.775 66.1206 61.1603C65.9579 61.2309 65.8904 61.3289 65.8794 61.5124C65.8558 61.9104 65.7107 62.2662 65.4153 62.5415C64.9085 63.0138 64.1825 63.0188 63.583 62.5606C63.3203 62.3593 63.0939 62.1139 62.9138 61.8351C62.8694 61.7666 62.825 61.698 62.7685 61.6109ZM58.6163 46.4651L58.6197 46.519C58.6994 46.5218 58.7791 46.5281 58.8586 46.527C60.1785 46.509 61.4555 46.7494 62.6976 47.1947C63.8574 47.6106 64.9242 48.2164 65.9793 48.8461C66.75 49.306 67.5182 49.7709 68.3403 50.1351C69.1941 50.5134 70.0792 50.7541 71.0157 50.768C72.0249 50.7829 72.988 50.5592 73.9218 50.1919C74.8675 49.8198 75.7507 49.3235 76.6244 48.8088C77.1043 48.5261 77.5859 48.2465 78.0842 47.9972C78.8326 47.6227 79.604 47.3775 80.4574 47.5444C80.6446 47.5811 80.6693 47.5498 80.6384 47.3543C80.5245 46.6349 80.3789 45.9217 80.1476 45.2299C79.5816 43.5367 78.6725 42.0462 77.4904 40.7209C76.5367 39.6516 75.4781 38.71 74.2272 38.0033C73.7887 37.7556 73.3373 37.5309 72.9166 37.2518C72.8082 37.1798 72.7149 37.1852 72.6189 37.2687C72.5638 37.3166 72.5036 37.3585 72.4458 37.4034C71.231 38.3424 70.0114 39.2746 68.7298 40.121C66.771 41.4146 64.7932 42.6786 62.8202 43.9498C61.6531 44.7018 60.4825 45.4477 59.2653 46.1162C59.0503 46.2344 58.8328 46.3488 58.6163 46.4651ZM81.851 49.768C81.9005 49.7355 81.9271 49.7256 81.9428 49.7065C82.2128 49.3772 82.5401 49.1163 82.894 48.8856C83.3987 48.5567 83.9191 48.248 84.374 47.8493C85.7076 46.6805 87.0454 45.5162 88.3603 44.3262C89.3565 43.4245 90.3193 42.4853 91.2984 41.5643C91.7312 41.1572 92.1908 40.7788 92.5924 40.3384C92.9872 39.9123 93.242 39.3734 93.322 38.7949C93.3929 38.306 93.3649 37.8189 93.2939 37.3369C93.126 36.1978 92.7846 35.1144 92.2059 34.1122C91.5276 32.9374 90.7242 31.8523 89.874 30.8012C89.2714 30.0561 88.6157 29.3621 87.8514 28.7825C87.0797 28.1974 86.232 27.7874 85.2629 27.6611C84.8793 27.6112 84.5378 27.6952 84.2308 27.9226C84.0327 28.0693 83.8372 28.2204 83.6498 28.3804C82.8704 29.0461 82.061 29.6707 81.2028 30.2303C80.2314 30.8636 79.2518 31.4851 78.2933 32.1376C76.5424 33.3301 74.8688 34.6355 73.0794 35.7724C73.0211 35.8094 72.9443 35.8349 72.9367 35.9214C72.9645 35.9692 73.0115 35.9765 73.0552 35.9872C74.1993 36.2664 75.1873 36.8634 76.0903 37.594C77.8727 39.0359 79.3192 40.7718 80.3854 42.8152C81.419 44.7962 81.9065 46.9109 81.8661 49.1466C81.8624 49.3458 81.8564 49.5449 81.851 49.768ZM65.8813 60.0051C66.0334 60.0257 66.1029 59.9551 66.1767 59.909C67.8109 58.8886 69.4359 57.8537 70.9938 56.7166C72.2259 55.8171 73.4691 54.9335 74.7233 54.0656C75.7816 53.3313 76.8232 52.5734 77.8062 51.738C78.7607 50.9268 79.6566 50.0498 80.5832 49.2073C80.8086 49.0023 80.8378 48.7826 80.7949 48.5188C80.7654 48.3366 80.7256 48.3122 80.5585 48.3712C80.4297 48.4167 80.3032 48.4691 80.177 48.5216C79.012 49.0065 77.9091 49.6123 76.8231 50.2532C76.0444 50.7126 75.2484 51.1407 74.4093 51.4802C73.2474 51.9503 72.0475 52.2326 70.7851 52.184C69.7133 52.1427 68.6946 51.872 67.7152 51.4357C67.6193 51.3929 67.5264 51.3288 67.3987 51.3368C67.9046 54.4105 67.3072 57.273 65.8813 60.0051ZM54.1428 50.8118C53.9021 50.9197 53.6527 50.9311 53.4094 50.9279C53.0437 50.9228 52.7848 51.1077 52.5584 51.3543C52.1589 51.7893 52.2433 52.3249 52.7484 52.6386C52.9766 52.7777 53.2371 52.853 53.5033 52.857C53.7039 52.8639 53.9044 52.8395 54.0975 52.7846C54.1768 52.7585 54.2632 52.7642 54.3387 52.8005C54.4143 52.8369 54.4732 52.9011 54.5032 52.9799C54.563 53.1259 54.5144 53.2723 54.365 53.3889C54.3292 53.4168 54.2892 53.4397 54.2507 53.4642C54.0419 53.5967 53.8586 53.7662 53.7095 53.9644C53.205 54.6359 53.0787 55.3679 53.4453 56.1415C53.7958 56.881 54.3771 57.3127 55.2097 57.3409C55.5124 57.3531 55.8135 57.2953 56.0901 57.1718C56.7713 56.8628 57.4525 56.5495 57.9819 55.9907C58.0687 55.896 58.1694 55.8152 58.2805 55.7512C58.5009 55.6289 58.7081 55.6508 58.8547 55.8136C59.0083 55.9842 59.0079 56.2105 58.8417 56.4159C58.7695 56.4986 58.6902 56.5746 58.6046 56.6429C58.3059 56.8996 58.0171 57.166 57.7754 57.4799C57.5378 57.7885 57.3487 58.1231 57.2849 58.5141C57.1869 59.1147 57.5446 59.5795 58.1469 59.6149C58.8492 59.6561 59.3658 59.3004 59.7736 58.7676C59.9508 58.5361 60.0756 58.2632 60.2792 58.0501C60.3752 57.9497 60.3428 57.8805 60.2653 57.793C59.5779 57.016 59.2898 56.0559 59.045 55.0776C58.999 54.894 59.0104 54.8851 58.8037 54.8846C58.4395 54.8836 58.1264 54.7514 57.8512 54.5183C57.51 54.2293 57.3114 53.8522 57.1869 53.4275C57.109 53.1618 57.1037 53.161 56.8348 53.1399C56.259 53.0955 55.6998 52.9218 55.1982 52.6314C54.8128 52.4102 54.4766 52.1283 54.2344 51.746C54.0829 51.507 54.04 51.2525 54.1327 50.9805C54.1472 50.9383 54.1766 50.8984 54.1428 50.8118ZM61.2722 55.5949C61.1564 55.6504 61.1014 55.7504 61.0321 55.8325C60.9268 55.9572 60.7341 56.0547 60.7309 56.2067C60.7272 56.3781 60.9315 56.4754 61.0486 56.6008C61.7437 57.3451 62.5999 57.6783 63.6082 57.617C63.7264 57.6082 63.845 57.606 63.9635 57.6104C64.2351 57.6243 64.3572 57.8147 64.2606 58.0657C64.2127 58.1901 64.1213 58.279 64.0189 58.3581C63.6432 58.6485 63.2071 58.7645 62.7443 58.7937C62.1952 58.8299 61.6459 58.7183 61.1525 58.4705C60.9355 58.3631 60.9326 58.3661 60.8148 58.5677C60.6574 58.8368 60.4815 59.0944 60.2883 59.3386C60.2176 59.4226 60.1591 59.5164 60.1147 59.6171C59.9658 59.9731 59.8639 60.3475 59.8116 60.7307C59.7695 61.0604 59.8015 61.3958 59.9053 61.7119C60.0423 62.1369 60.3866 62.3388 60.8199 62.2652C61.0099 62.2365 61.1908 62.1644 61.3486 62.0542C61.8987 61.6598 62.3012 61.1553 62.4893 60.4907C62.5055 60.4285 62.5291 60.3686 62.5595 60.3121C62.6796 60.1009 62.8985 60.0066 63.088 60.0787C63.2798 60.1517 63.3592 60.3189 63.3103 60.5805C63.2893 60.6925 63.2777 60.801 63.3227 60.9054C63.505 61.3278 63.7549 61.697 64.1632 61.93C64.5402 62.1452 64.8888 62.023 65.0645 61.6261C65.114 61.5143 65.0862 61.4673 64.9719 61.4246C64.5339 61.2613 64.3836 60.9891 64.4662 60.5242C64.5065 60.2973 64.5806 60.0794 64.6607 59.8642C64.9393 59.1157 65.2284 58.3709 65.4481 57.6015C65.4749 57.5077 65.5322 57.4156 65.4895 57.298C65.3398 57.2903 65.2165 57.3847 65.0758 57.4119C64.3026 57.5614 63.5503 57.4843 62.8186 57.1981C62.1395 56.9326 61.6351 56.4796 61.3708 55.7792C61.3486 55.7205 61.3414 55.6528 61.2722 55.5949ZM63.396 56.2619C63.5198 56.315 63.6524 56.3392 63.785 56.3622C64.1994 56.4318 64.6176 56.4743 65.0371 56.4897C65.2102 56.4973 65.3827 56.5085 65.5504 56.563C65.7163 56.6169 65.7198 56.614 65.7625 56.4355C66.1333 54.9052 66.2916 53.3296 66.2329 51.7538C66.2237 51.5166 66.1885 51.4935 65.9722 51.5917C65.6732 51.7276 65.3766 51.868 65.0599 51.9605C64.5352 52.1136 64.0098 52.2653 63.4884 52.4298C63.0758 52.5601 62.6881 52.7414 62.4038 53.0891C62.3665 53.1347 62.3038 53.1769 62.34 53.2471C62.3761 53.2829 62.4132 53.2747 62.4484 53.2691C63.223 53.1453 64.0075 53.106 64.784 52.9987C65.0368 52.9638 65.1915 53.0278 65.2302 53.1668C65.2671 53.2992 65.188 53.4277 64.9735 53.5448C64.5185 53.7983 64.0313 53.9881 63.5252 54.1091C63.0761 54.2128 62.6241 54.2428 62.1673 54.1646C62.0746 54.1487 61.9915 54.1588 61.9952 54.2747C61.9993 54.405 61.9188 54.5532 62.0551 54.6596C62.0753 54.6755 62.125 54.657 62.1597 54.6486C62.2571 54.6252 62.3535 54.5969 62.451 54.574C63.2423 54.3876 64.0557 54.3313 64.8506 54.1663C64.9221 54.1501 64.9964 54.1503 65.068 54.1669C65.2772 54.2182 65.3413 54.3878 65.2142 54.5639C65.1823 54.6087 65.1427 54.6474 65.0974 54.6783C64.3347 55.1823 63.5183 55.5116 62.5829 55.4599C62.473 55.4538 62.3092 55.3567 62.2627 55.4815C62.2195 55.5971 62.3803 55.6909 62.4635 55.7854C62.4817 55.806 62.5038 55.8229 62.524 55.8417C62.6034 55.9155 62.6748 55.9284 62.7566 55.8367C62.8629 55.7176 63.0074 55.6578 63.1561 55.6082C63.8131 55.3885 64.4997 55.3786 65.18 55.324C65.2165 55.3217 65.2531 55.3246 65.2889 55.3326C65.3804 55.3515 65.4758 55.3774 65.4926 55.4869C65.5089 55.5927 65.4345 55.6578 65.3542 55.7051C65.2839 55.7478 65.2089 55.7821 65.1307 55.8073C64.5827 55.9752 64.0446 56.1856 63.4622 56.2116C63.4468 56.2098 63.4314 56.214 63.4191 56.2234C63.4067 56.2327 63.3985 56.2465 63.396 56.2619ZM55.3076 46.9664C54.7064 46.7104 54.1065 46.5293 53.4611 46.7682C53.2456 46.8495 53.064 47.002 52.9458 47.201C52.8852 47.2934 52.8471 47.3991 52.8347 47.5094C52.8223 47.6197 52.8359 47.7315 52.8743 47.8357C52.9337 48.0052 53.0082 48.0488 53.1873 48.0199C53.3401 47.9953 53.4911 47.9594 53.6441 47.9365C53.8433 47.9058 54.0472 47.9282 54.2357 48.0012C54.3513 48.0456 54.4515 48.1145 54.457 48.2538C54.4627 48.398 54.3564 48.4601 54.2447 48.5092C54.195 48.531 54.1404 48.5412 54.0887 48.5589C53.8992 48.6236 53.7074 48.6828 53.5294 48.7769C53.3334 48.8804 53.1583 49.0103 53.044 49.207C52.8272 49.5796 52.965 49.9977 53.3587 50.1685C53.5025 50.2309 53.6552 50.2585 53.8075 50.2878C54.0215 50.329 54.2441 50.35 54.3666 50.5666C54.9702 50.0931 56.4619 48.2247 56.5791 47.7879C56.173 47.809 55.7736 47.7764 55.3758 47.8375C55.2679 47.8538 55.1592 47.864 55.0501 47.8681C54.9428 47.8723 54.8515 47.8298 54.7995 47.7309C54.7409 47.6195 54.7706 47.5118 54.8457 47.4235C54.9223 47.3335 55.0127 47.2556 55.0972 47.1725C55.1613 47.1095 55.2539 47.0776 55.3076 46.9664ZM55.2792 50.9241C55.8676 50.9243 56.3923 50.8586 56.9119 50.7791C57.5265 50.685 58.1134 50.4945 58.6338 50.1292C59.1812 49.7449 59.5288 49.1999 59.8496 48.6314C59.9347 48.4803 60.0025 48.3189 60.0781 48.1621C60.1265 48.0616 60.0922 48.0049 59.9859 47.987C59.932 47.978 59.8779 47.97 59.824 47.9607C59.1127 47.8379 58.3948 47.8009 57.6753 47.7761C57.4818 47.7694 57.3822 47.8394 57.3052 48.0187C56.996 48.7392 56.5626 49.3838 56.0852 50.0002C55.8453 50.3098 55.5721 50.5899 55.2792 50.9241ZM59.8 55.0795C59.8271 55.0515 59.846 55.041 59.8508 55.0258C60.1484 54.1061 60.7106 53.4179 61.5857 53.004C61.6761 52.9602 61.7535 52.8932 61.8101 52.8096C61.9964 52.5481 62.2242 52.3194 62.4843 52.1327C62.6438 52.0179 62.6425 52.0065 62.4758 51.8813C62.1287 51.6206 61.9174 51.2765 61.8503 50.8478C61.7383 50.1326 61.8541 49.4566 62.2091 48.8266C62.3183 48.6329 62.3213 48.632 62.1268 48.5552C62.0168 48.5104 61.9044 48.4715 61.7903 48.4388C61.6218 48.3926 61.5867 48.4192 61.6214 48.5946C61.7198 49.0928 61.6158 49.5627 61.4534 50.0274C61.3703 50.2612 61.269 50.4878 61.1505 50.7053C60.7018 51.5396 60.1037 52.2256 59.2445 52.6527C58.8749 52.8366 58.4859 52.9617 58.0886 53.0656C57.8897 53.1176 57.8785 53.1408 57.9805 53.3237C58.1136 53.5666 58.2951 53.7791 58.5136 53.9478C58.6504 54.057 58.8117 54.1305 58.9832 54.1617C59.0878 54.1793 59.1418 54.1417 59.1143 54.0247C59.0411 53.7136 59.1573 53.4448 59.3045 53.1865C59.4255 52.9697 59.5823 52.7754 59.7682 52.612C59.9476 52.4566 60.1294 52.3036 60.3155 52.1563C60.6621 51.8819 60.9739 51.5777 61.1868 51.1813C61.2207 51.1164 61.2663 51.0585 61.3212 51.0104C61.4478 50.9038 61.5888 50.9483 61.6427 51.1083C61.6593 51.1609 61.6668 51.216 61.6648 51.2711C61.649 51.8655 61.471 52.3916 61.021 52.7974C60.8856 52.9196 60.7406 53.0314 60.5981 53.1455C60.4054 53.2999 60.2142 53.4561 60.0596 53.651C59.9037 53.8476 59.782 54.0612 59.7813 54.3229C59.781 54.4266 59.73 54.4946 59.6575 54.5558C59.6034 54.6016 59.5268 54.623 59.4946 54.7155L59.8 55.0795ZM62.5028 50.533C62.5512 50.8626 62.7297 51.2166 63.0146 51.553C63.1654 51.731 63.1681 51.7291 63.382 51.6434C63.6859 51.5215 63.9906 51.4012 64.2969 51.2857C64.8513 51.0766 65.4306 50.9529 65.9989 50.7914C66.0577 50.7746 66.135 50.773 66.1379 50.6874C66.1401 50.6227 66.0806 50.5989 66.0341 50.5715C65.8059 50.4368 65.5774 50.3026 65.3486 50.1689C64.5998 49.7293 63.8482 49.2952 63.059 48.9321C62.788 48.8074 62.7505 48.8216 62.6307 49.0981C62.6089 49.1484 62.5918 49.2009 62.5736 49.2527C62.4271 49.6718 62.4441 50.1011 62.5028 50.533ZM56.1861 51.8247C56.3078 51.9045 56.4068 51.9168 56.5008 51.9402C56.9499 52.0519 57.4061 52.0585 57.8598 52.0013C58.6561 51.9013 59.3805 51.6257 59.9574 51.0396C60.5798 50.4071 60.9332 49.6316 61.1077 48.766C61.1293 48.6586 61.1279 48.5466 61.1396 48.437C61.1551 48.2912 61.091 48.2103 60.9485 48.188C60.9036 48.181 60.8597 48.1664 60.8147 48.1591C60.643 48.131 60.6238 48.1417 60.5951 48.309C60.5687 48.4629 60.555 48.6191 60.5284 48.7729C60.3265 49.9383 59.7112 50.7975 58.6649 51.3367C58.1214 51.6167 57.5407 51.7584 56.9342 51.7985C56.7005 51.814 56.466 51.8154 56.1861 51.8247ZM61.3338 53.8928C61.2198 53.9158 61.168 53.9952 61.1053 54.0561C60.7344 54.4175 60.4737 54.8588 60.2277 55.3095C60.0962 55.5506 60.1016 55.5535 60.3499 55.7632C60.4563 55.3462 60.7287 55.0795 61.0969 54.9011C61.1666 54.8673 61.2201 54.8219 61.2302 54.7406C61.265 54.4614 61.2985 54.1822 61.3338 53.8928Z" stroke="#F83103" stroke-width="2" mask="url(#path-1-outside-1_356_229)"/>
<path d="M48.9922 79.5352V81H43.3906V72.5449H48.9922V74.0039H45.1602V76.043H48.7754V77.4023H45.1602V79.5352H48.9922Z" stroke="#F83103" stroke-width="2" mask="url(#path-1-outside-1_356_229)"/>
<path d="M50.123 81V74.7188H51.7754V75.8379H51.8105C51.9824 75.4395 52.2324 75.1348 52.5605 74.9238C52.8926 74.709 53.2969 74.6016 53.7734 74.6016C54.4688 74.6016 55.0059 74.8086 55.3848 75.2227C55.7637 75.6367 55.9531 76.2129 55.9531 76.9512V81H54.2422V77.3086C54.2422 76.8945 54.1445 76.5762 53.9492 76.3535C53.7539 76.1309 53.4668 76.0195 53.0879 76.0195C52.709 76.0195 52.4043 76.1465 52.1738 76.4004C51.9473 76.6543 51.834 76.9863 51.834 77.3965V81H50.123Z" stroke="#F83103" stroke-width="2" mask="url(#path-1-outside-1_356_229)"/>
<path d="M62.7441 77.0566H61.1562C61.1055 76.7168 60.9707 76.4434 60.752 76.2363C60.5371 76.0293 60.2578 75.9258 59.9141 75.9258C59.4883 75.9258 59.1523 76.0977 58.9062 76.4414C58.6641 76.7812 58.543 77.252 58.543 77.8535C58.543 78.4668 58.6641 78.9434 58.9062 79.2832C59.1523 79.623 59.4902 79.793 59.9199 79.793C60.2598 79.793 60.5371 79.6973 60.752 79.5059C60.9668 79.3105 61.1016 79.041 61.1562 78.6973H62.75C62.707 79.4395 62.4277 80.0312 61.9121 80.4727C61.3965 80.9141 60.7266 81.1348 59.9023 81.1348C58.9492 81.1348 58.1953 80.8438 57.6406 80.2617C57.0859 79.6758 56.8086 78.873 56.8086 77.8535C56.8086 76.8496 57.0859 76.0547 57.6406 75.4688C58.1992 74.8789 58.9492 74.584 59.8906 74.584C60.7266 74.584 61.4004 74.8145 61.9121 75.2754C62.4277 75.7363 62.7051 76.3301 62.7441 77.0566Z" stroke="#F83103" stroke-width="2" mask="url(#path-1-outside-1_356_229)"/>
<path d="M63.6172 81V72.5449H65.2988V75.8379H65.334C65.502 75.4395 65.7539 75.1348 66.0898 74.9238C66.4297 74.709 66.8359 74.6016 67.3086 74.6016C68 74.6016 68.5371 74.8125 68.9199 75.2344C69.3066 75.6523 69.5 76.2266 69.5 76.957V81H67.7891V77.3203C67.7891 76.9102 67.6875 76.5918 67.4844 76.3652C67.2852 76.1348 66.9941 76.0195 66.6113 76.0195C66.2129 76.0195 65.8984 76.1484 65.668 76.4062C65.4414 76.6602 65.3281 76.9961 65.3281 77.4141V81H63.6172Z" stroke="#F83103" stroke-width="2" mask="url(#path-1-outside-1_356_229)"/>
<path d="M70.625 81V74.7188H72.3359V81H70.625ZM72.1309 73.7695C71.9551 73.9414 71.7383 74.0273 71.4805 74.0273C71.2227 74.0273 71.0059 73.9414 70.8301 73.7695C70.6543 73.5977 70.5664 73.3887 70.5664 73.1426C70.5664 72.8926 70.6543 72.6836 70.8301 72.5156C71.0059 72.3438 71.2227 72.2578 71.4805 72.2578C71.7383 72.2578 71.9551 72.3438 72.1309 72.5156C72.3066 72.6836 72.3945 72.8926 72.3945 73.1426C72.3945 73.3887 72.3066 73.5977 72.1309 73.7695Z" stroke="#F83103" stroke-width="2" mask="url(#path-1-outside-1_356_229)"/>
<path d="M73.5195 81V72.5449H75.2305V81H73.5195Z" stroke="#F83103" stroke-width="2" mask="url(#path-1-outside-1_356_229)"/>
<path d="M78.8105 79.8633C79.1895 79.8633 79.5098 79.7539 79.7715 79.5352C80.0371 79.3125 80.1699 79.0332 80.1699 78.6973V78.2402L78.8457 78.3223C78.5254 78.3457 78.2773 78.4258 78.1016 78.5625C77.9297 78.6992 77.8438 78.8789 77.8438 79.1016C77.8438 79.3359 77.9316 79.5215 78.1074 79.6582C78.2832 79.7949 78.5176 79.8633 78.8105 79.8633ZM78.248 81.0996C77.6426 81.0996 77.1406 80.9219 76.7422 80.5664C76.3438 80.2109 76.1445 79.7539 76.1445 79.1953C76.1445 78.625 76.3555 78.1777 76.7773 77.8535C77.1992 77.5293 77.8027 77.3438 78.5879 77.2969L80.1699 77.2031V76.7871C80.1699 76.498 80.0742 76.2715 79.8828 76.1074C79.6953 75.9434 79.4395 75.8613 79.1152 75.8613C78.8027 75.8613 78.5469 75.9316 78.3477 76.0723C78.1523 76.2129 78.0332 76.4023 77.9902 76.6406H76.4258C76.457 76.0234 76.7207 75.5273 77.2168 75.1523C77.7129 74.7734 78.3711 74.584 79.1914 74.584C79.9961 74.584 80.6406 74.7754 81.125 75.1582C81.6094 75.541 81.8516 76.0488 81.8516 76.6816V81H80.1992V80.0391H80.1641C79.9922 80.3672 79.7305 80.627 79.3789 80.8184C79.0273 81.0059 78.6504 81.0996 78.248 81.0996Z" stroke="#F83103" stroke-width="2" mask="url(#path-1-outside-1_356_229)"/>
<path d="M85.291 81.0996C84.5059 81.0996 83.8828 80.8086 83.4219 80.2266C82.9609 79.6445 82.7305 78.8516 82.7305 77.8477C82.7305 76.8516 82.9609 76.0645 83.4219 75.4863C83.8867 74.9082 84.5137 74.6191 85.3027 74.6191C85.748 74.6191 86.1387 74.7266 86.4746 74.9414C86.8145 75.1562 87.0625 75.4414 87.2188 75.7969H87.2539V72.5449H88.9648V81H87.2773V79.9219H87.248C87.0918 80.2773 86.8398 80.5625 86.4922 80.7773C86.1445 80.9922 85.7441 81.0996 85.291 81.0996ZM85.8711 75.9902C85.4414 75.9902 85.1016 76.1582 84.8516 76.4941C84.6055 76.8301 84.4824 77.2852 84.4824 77.8594C84.4824 78.4375 84.6055 78.8926 84.8516 79.2246C85.1016 79.5566 85.4414 79.7227 85.8711 79.7227C86.2969 79.7227 86.6348 79.5566 86.8848 79.2246C87.1387 78.8887 87.2656 78.4336 87.2656 77.8594C87.2656 77.2891 87.1387 76.8359 86.8848 76.5C86.6348 76.1602 86.2969 75.9902 85.8711 75.9902Z" stroke="#F83103" stroke-width="2" mask="url(#path-1-outside-1_356_229)"/>
<path d="M92.5332 79.8633C92.9121 79.8633 93.2324 79.7539 93.4941 79.5352C93.7598 79.3125 93.8926 79.0332 93.8926 78.6973V78.2402L92.5684 78.3223C92.248 78.3457 92 78.4258 91.8242 78.5625C91.6523 78.6992 91.5664 78.8789 91.5664 79.1016C91.5664 79.3359 91.6543 79.5215 91.8301 79.6582C92.0059 79.7949 92.2402 79.8633 92.5332 79.8633ZM91.9707 81.0996C91.3652 81.0996 90.8633 80.9219 90.4648 80.5664C90.0664 80.2109 89.8672 79.7539 89.8672 79.1953C89.8672 78.625 90.0781 78.1777 90.5 77.8535C90.9219 77.5293 91.5254 77.3438 92.3105 77.2969L93.8926 77.2031V76.7871C93.8926 76.498 93.7969 76.2715 93.6055 76.1074C93.418 75.9434 93.1621 75.8613 92.8379 75.8613C92.5254 75.8613 92.2695 75.9316 92.0703 76.0723C91.875 76.2129 91.7559 76.4023 91.7129 76.6406H90.1484C90.1797 76.0234 90.4434 75.5273 90.9395 75.1523C91.4355 74.7734 92.0938 74.584 92.9141 74.584C93.7188 74.584 94.3633 74.7754 94.8477 75.1582C95.332 75.541 95.5742 76.0488 95.5742 76.6816V81H93.9219V80.0391H93.8867C93.7148 80.3672 93.4531 80.627 93.1016 80.8184C92.75 81.0059 92.373 81.0996 91.9707 81.0996Z" stroke="#F83103" stroke-width="2" mask="url(#path-1-outside-1_356_229)"/>
<path d="M96.5762 76.5645C96.5762 75.9668 96.8164 75.4883 97.2969 75.1289C97.7773 74.7656 98.4199 74.584 99.2246 74.584C100.01 74.584 100.641 74.7676 101.117 75.1348C101.594 75.502 101.838 75.9902 101.85 76.5996H100.273C100.254 76.3457 100.148 76.1465 99.957 76.002C99.7695 75.8574 99.5176 75.7852 99.2012 75.7852C98.9043 75.7852 98.666 75.8477 98.4863 75.9727C98.3105 76.0938 98.2227 76.2559 98.2227 76.459C98.2227 76.7637 98.4961 76.9805 99.043 77.1094L100.244 77.3672C100.873 77.5078 101.324 77.7129 101.598 77.9824C101.875 78.248 102.014 78.6152 102.014 79.084C102.014 79.7012 101.756 80.1973 101.24 80.5723C100.725 80.9473 100.051 81.1348 99.2188 81.1348C98.3906 81.1348 97.7285 80.9512 97.2324 80.584C96.7363 80.2168 96.4648 79.7227 96.418 79.1016H98.0879C98.1309 79.3672 98.252 79.5723 98.4512 79.7168C98.6543 79.8613 98.9258 79.9336 99.2656 79.9336C99.5898 79.9336 99.8438 79.875 100.027 79.7578C100.215 79.6367 100.309 79.4727 100.309 79.2656C100.309 79.1055 100.25 78.9785 100.133 78.8848C100.016 78.7871 99.8164 78.7051 99.5352 78.6387L98.375 78.3809C97.1758 78.1074 96.5762 77.502 96.5762 76.5645Z" stroke="#F83103" stroke-width="2" mask="url(#path-1-outside-1_356_229)"/>
</g>
<defs>
<filter id="filter0_d_356_229" x="0" y="0" width="146" height="109" filterUnits="userSpaceOnUse" color-interpolation-filters="sRGB">
<feFlood flood-opacity="0" result="BackgroundImageFix"/>
<feColorMatrix in="SourceAlpha" type="matrix" values="0 0 0 0 0 0 0 0 0 0 0 0 0 0 0 0 0 0 127 0" result="hardAlpha"/>
<feOffset/>
<feGaussianBlur stdDeviation="5"/>
<feComposite in2="hardAlpha" operator="out"/>
<feColorMatrix type="matrix" values="0 0 0 0 0.972549 0 0 0 0 0.192157 0 0 0 0 0.0117647 0 0 0 0.25 0"/>
<feBlend mode="normal" in2="BackgroundImageFix" result="effect1_dropShadow_356_229"/>
<feBlend mode="normal" in="SourceGraphic" in2="effect1_dropShadow_356_229" result="shape"/>
</filter>
</defs>
</svg>
