<svg width="124" height="87" viewBox="0 0 124 87" fill="none" xmlns="http://www.w3.org/2000/svg">
<path d="M0 25C0 11.1929 11.1929 0 25 0H99C112.807 0 124 11.1929 124 25V62C124 75.8071 112.807 87 99 87H25C11.1929 87 0 75.8071 0 62V25Z" fill="#2E3235"/>
<path d="M37.9922 68.5352V70H32.3906V61.5449H37.9922V63.0039H34.1602V65.043H37.7754V66.4023H34.1602V68.5352H37.9922Z" fill="white"/>
<path d="M39.123 70V63.7188H40.7754V64.8379H40.8105C40.9824 64.4395 41.2324 64.1348 41.5605 63.9238C41.8926 63.709 42.2969 63.6016 42.7734 63.6016C43.4688 63.6016 44.0059 63.8086 44.3848 64.2227C44.7637 64.6367 44.9531 65.2129 44.9531 65.9512V70H43.2422V66.3086C43.2422 65.8945 43.1445 65.5762 42.9492 65.3535C42.7539 65.1309 42.4668 65.0195 42.0879 65.0195C41.709 65.0195 41.4043 65.1465 41.1738 65.4004C40.9473 65.6543 40.834 65.9863 40.834 66.3965V70H39.123Z" fill="white"/>
<path d="M51.7441 66.0566H50.1562C50.1055 65.7168 49.9707 65.4434 49.752 65.2363C49.5371 65.0293 49.2578 64.9258 48.9141 64.9258C48.4883 64.9258 48.1523 65.0977 47.9062 65.4414C47.6641 65.7812 47.543 66.252 47.543 66.8535C47.543 67.4668 47.6641 67.9434 47.9062 68.2832C48.1523 68.623 48.4902 68.793 48.9199 68.793C49.2598 68.793 49.5371 68.6973 49.752 68.5059C49.9668 68.3105 50.1016 68.041 50.1562 67.6973H51.75C51.707 68.4395 51.4277 69.0312 50.9121 69.4727C50.3965 69.9141 49.7266 70.1348 48.9023 70.1348C47.9492 70.1348 47.1953 69.8438 46.6406 69.2617C46.0859 68.6758 45.8086 67.873 45.8086 66.8535C45.8086 65.8496 46.0859 65.0547 46.6406 64.4688C47.1992 63.8789 47.9492 63.584 48.8906 63.584C49.7266 63.584 50.4004 63.8145 50.9121 64.2754C51.4277 64.7363 51.7051 65.3301 51.7441 66.0566Z" fill="white"/>
<path d="M52.6172 70V61.5449H54.2988V64.8379H54.334C54.502 64.4395 54.7539 64.1348 55.0898 63.9238C55.4297 63.709 55.8359 63.6016 56.3086 63.6016C57 63.6016 57.5371 63.8125 57.9199 64.2344C58.3066 64.6523 58.5 65.2266 58.5 65.957V70H56.7891V66.3203C56.7891 65.9102 56.6875 65.5918 56.4844 65.3652C56.2852 65.1348 55.9941 65.0195 55.6113 65.0195C55.2129 65.0195 54.8984 65.1484 54.668 65.4062C54.4414 65.6602 54.3281 65.9961 54.3281 66.4141V70H52.6172Z" fill="white"/>
<path d="M59.625 70V63.7188H61.3359V70H59.625ZM61.1309 62.7695C60.9551 62.9414 60.7383 63.0273 60.4805 63.0273C60.2227 63.0273 60.0059 62.9414 59.8301 62.7695C59.6543 62.5977 59.5664 62.3887 59.5664 62.1426C59.5664 61.8926 59.6543 61.6836 59.8301 61.5156C60.0059 61.3438 60.2227 61.2578 60.4805 61.2578C60.7383 61.2578 60.9551 61.3438 61.1309 61.5156C61.3066 61.6836 61.3945 61.8926 61.3945 62.1426C61.3945 62.3887 61.3066 62.5977 61.1309 62.7695Z" fill="white"/>
<path d="M62.5195 70V61.5449H64.2305V70H62.5195Z" fill="white"/>
<path d="M67.8105 68.8633C68.1895 68.8633 68.5098 68.7539 68.7715 68.5352C69.0371 68.3125 69.1699 68.0332 69.1699 67.6973V67.2402L67.8457 67.3223C67.5254 67.3457 67.2773 67.4258 67.1016 67.5625C66.9297 67.6992 66.8438 67.8789 66.8438 68.1016C66.8438 68.3359 66.9316 68.5215 67.1074 68.6582C67.2832 68.7949 67.5176 68.8633 67.8105 68.8633ZM67.248 70.0996C66.6426 70.0996 66.1406 69.9219 65.7422 69.5664C65.3438 69.2109 65.1445 68.7539 65.1445 68.1953C65.1445 67.625 65.3555 67.1777 65.7773 66.8535C66.1992 66.5293 66.8027 66.3438 67.5879 66.2969L69.1699 66.2031V65.7871C69.1699 65.498 69.0742 65.2715 68.8828 65.1074C68.6953 64.9434 68.4395 64.8613 68.1152 64.8613C67.8027 64.8613 67.5469 64.9316 67.3477 65.0723C67.1523 65.2129 67.0332 65.4023 66.9902 65.6406H65.4258C65.457 65.0234 65.7207 64.5273 66.2168 64.1523C66.7129 63.7734 67.3711 63.584 68.1914 63.584C68.9961 63.584 69.6406 63.7754 70.125 64.1582C70.6094 64.541 70.8516 65.0488 70.8516 65.6816V70H69.1992V69.0391H69.1641C68.9922 69.3672 68.7305 69.627 68.3789 69.8184C68.0273 70.0059 67.6504 70.0996 67.248 70.0996Z" fill="white"/>
<path d="M74.291 70.0996C73.5059 70.0996 72.8828 69.8086 72.4219 69.2266C71.9609 68.6445 71.7305 67.8516 71.7305 66.8477C71.7305 65.8516 71.9609 65.0645 72.4219 64.4863C72.8867 63.9082 73.5137 63.6191 74.3027 63.6191C74.748 63.6191 75.1387 63.7266 75.4746 63.9414C75.8145 64.1562 76.0625 64.4414 76.2188 64.7969H76.2539V61.5449H77.9648V70H76.2773V68.9219H76.248C76.0918 69.2773 75.8398 69.5625 75.4922 69.7773C75.1445 69.9922 74.7441 70.0996 74.291 70.0996ZM74.8711 64.9902C74.4414 64.9902 74.1016 65.1582 73.8516 65.4941C73.6055 65.8301 73.4824 66.2852 73.4824 66.8594C73.4824 67.4375 73.6055 67.8926 73.8516 68.2246C74.1016 68.5566 74.4414 68.7227 74.8711 68.7227C75.2969 68.7227 75.6348 68.5566 75.8848 68.2246C76.1387 67.8887 76.2656 67.4336 76.2656 66.8594C76.2656 66.2891 76.1387 65.8359 75.8848 65.5C75.6348 65.1602 75.2969 64.9902 74.8711 64.9902Z" fill="white"/>
<path d="M81.5332 68.8633C81.9121 68.8633 82.2324 68.7539 82.4941 68.5352C82.7598 68.3125 82.8926 68.0332 82.8926 67.6973V67.2402L81.5684 67.3223C81.248 67.3457 81 67.4258 80.8242 67.5625C80.6523 67.6992 80.5664 67.8789 80.5664 68.1016C80.5664 68.3359 80.6543 68.5215 80.8301 68.6582C81.0059 68.7949 81.2402 68.8633 81.5332 68.8633ZM80.9707 70.0996C80.3652 70.0996 79.8633 69.9219 79.4648 69.5664C79.0664 69.2109 78.8672 68.7539 78.8672 68.1953C78.8672 67.625 79.0781 67.1777 79.5 66.8535C79.9219 66.5293 80.5254 66.3438 81.3105 66.2969L82.8926 66.2031V65.7871C82.8926 65.498 82.7969 65.2715 82.6055 65.1074C82.418 64.9434 82.1621 64.8613 81.8379 64.8613C81.5254 64.8613 81.2695 64.9316 81.0703 65.0723C80.875 65.2129 80.7559 65.4023 80.7129 65.6406H79.1484C79.1797 65.0234 79.4434 64.5273 79.9395 64.1523C80.4355 63.7734 81.0938 63.584 81.9141 63.584C82.7188 63.584 83.3633 63.7754 83.8477 64.1582C84.332 64.541 84.5742 65.0488 84.5742 65.6816V70H82.9219V69.0391H82.8867C82.7148 69.3672 82.4531 69.627 82.1016 69.8184C81.75 70.0059 81.373 70.0996 80.9707 70.0996Z" fill="white"/>
<path d="M85.5762 65.5645C85.5762 64.9668 85.8164 64.4883 86.2969 64.1289C86.7773 63.7656 87.4199 63.584 88.2246 63.584C89.0098 63.584 89.6406 63.7676 90.1172 64.1348C90.5938 64.502 90.8379 64.9902 90.8496 65.5996H89.2734C89.2539 65.3457 89.1484 65.1465 88.957 65.002C88.7695 64.8574 88.5176 64.7852 88.2012 64.7852C87.9043 64.7852 87.666 64.8477 87.4863 64.9727C87.3105 65.0938 87.2227 65.2559 87.2227 65.459C87.2227 65.7637 87.4961 65.9805 88.043 66.1094L89.2441 66.3672C89.873 66.5078 90.3242 66.7129 90.5977 66.9824C90.875 67.248 91.0137 67.6152 91.0137 68.084C91.0137 68.7012 90.7559 69.1973 90.2402 69.5723C89.7246 69.9473 89.0508 70.1348 88.2188 70.1348C87.3906 70.1348 86.7285 69.9512 86.2324 69.584C85.7363 69.2168 85.4648 68.7227 85.418 68.1016H87.0879C87.1309 68.3672 87.252 68.5723 87.4512 68.7168C87.6543 68.8613 87.9258 68.9336 88.2656 68.9336C88.5898 68.9336 88.8438 68.875 89.0273 68.7578C89.2148 68.6367 89.3086 68.4727 89.3086 68.2656C89.3086 68.1055 89.25 67.9785 89.1328 67.8848C89.0156 67.7871 88.8164 67.7051 88.5352 67.6387L87.375 67.3809C86.1758 67.1074 85.5762 66.502 85.5762 65.5645Z" fill="white"/>
<path d="M51.7685 50.6109C51.6365 50.6913 51.592 50.8078 51.5196 50.8997C51.1743 51.338 50.776 51.7027 50.2423 51.8998C49.3527 52.2282 48.4511 51.7447 48.2236 50.8129C48.1247 50.4189 48.1032 50.0095 48.1601 49.6077C48.1745 49.5088 48.1839 49.4091 48.1977 49.2911C48.0436 49.281 47.9245 49.3511 47.8009 49.3902C46.9571 49.6571 45.8434 49.3452 45.4775 48.2816C45.366 47.9574 45.375 47.6306 45.4309 47.3005C45.4401 47.2462 45.4572 47.1933 45.4675 47.1392C45.4808 47.0695 45.54 46.9891 45.4787 46.9311C45.4089 46.865 45.3202 46.9206 45.2482 46.9502C45.0948 47.0091 44.9358 47.0519 44.7737 47.0781C43.1097 47.3923 41.8896 46.1535 41.6268 44.9465C41.4542 44.154 41.5979 43.4316 42.026 42.7575C42.0638 42.6978 42.1258 42.6481 42.1197 42.564C42.0599 42.4948 41.9707 42.5031 41.8952 42.4784C41.5969 42.3811 41.319 42.2508 41.0836 42.033C40.4365 41.4343 40.4045 40.5384 41.0081 39.8974C41.1012 39.7985 41.2638 39.7408 41.2833 39.6049C41.3033 39.4659 41.1427 39.3818 41.0812 39.2591C40.816 38.7308 40.8711 38.2275 41.1747 37.7399C41.2192 37.6704 41.2697 37.6049 41.3255 37.5443C41.3909 37.4715 41.3983 37.4049 41.3364 37.3245C41.0061 36.896 40.9819 36.4279 41.1788 35.9433C41.3974 35.4052 41.8029 35.069 42.3523 34.9153C43.0371 34.7237 43.6704 34.8964 44.2724 35.2346C44.4156 35.3163 44.5525 35.4089 44.6819 35.5114C44.8076 35.6096 44.9182 35.6142 45.0566 35.534C46.0363 34.9671 47.0267 34.4187 47.9997 33.8405C50.4881 32.3619 52.9172 30.7871 55.3439 29.2087C56.5533 28.4221 57.745 27.6075 58.9933 26.883C59.2855 26.7135 59.5795 26.5473 59.8754 26.3845C59.9939 26.3192 60.0457 26.2376 60.0186 26.0945C59.9367 25.6624 60.0731 25.276 60.283 24.9101C60.5448 24.4542 60.9265 24.1151 61.3515 23.8229C62.2094 23.233 63.0788 22.6607 63.92 22.0457C65.2548 21.0698 66.5967 20.1036 67.9899 19.2127C68.8207 18.6815 69.6568 18.1587 70.4619 17.5875C70.999 17.2063 71.5035 16.784 72.0083 16.3618C72.2372 16.1653 72.4775 15.9827 72.728 15.8151C73.275 15.459 73.8717 15.3587 74.509 15.4572C75.6738 15.6373 76.7023 16.1342 77.6375 16.844C78.6309 17.5979 79.4694 18.5086 80.2384 19.4875C80.9144 20.3479 81.564 21.2275 82.1281 22.1685C82.7197 23.1555 83.1521 24.2051 83.3723 25.3393C83.4794 25.8908 83.5952 26.4402 83.6106 27.0053C83.6483 28.3819 83.19 29.5525 82.1836 30.4836C80.2239 32.2965 78.3827 34.2385 76.3271 35.9471C75.8634 36.3324 75.421 36.7442 74.9774 37.1535C74.2492 37.8253 73.4763 38.4365 72.6252 38.9424C72.1898 39.1961 71.8149 39.5427 71.5266 39.9583C71.4443 40.0803 71.3444 40.189 71.23 40.2809C70.9307 40.5165 70.6053 40.5813 70.262 40.388C70.1363 40.3171 70.0334 40.3063 69.9059 40.3732C69.6292 40.5217 69.3081 40.5635 69.0023 40.4908C68.9449 40.4759 68.8847 40.475 68.8269 40.4883C68.7691 40.5015 68.7153 40.5285 68.67 40.5669C68.5829 40.6331 68.5003 40.7052 68.4228 40.7827C67.8833 41.3455 67.2963 41.8551 66.6828 42.3319C65.0522 43.5993 63.4176 44.8615 61.779 46.1185C60.4791 47.1137 59.1345 48.0432 57.7003 48.834C56.8532 49.301 56.009 49.775 55.1206 50.1603C54.9579 50.2309 54.8904 50.3289 54.8794 50.5124C54.8558 50.9104 54.7107 51.2662 54.4153 51.5415C53.9085 52.0138 53.1825 52.0188 52.583 51.5606C52.3203 51.3593 52.0939 51.1139 51.9138 50.8351C51.8694 50.7666 51.825 50.698 51.7685 50.6109ZM47.6163 35.4651L47.6197 35.519C47.6994 35.5218 47.7791 35.5281 47.8586 35.527C49.1785 35.509 50.4555 35.7494 51.6976 36.1947C52.8574 36.6106 53.9242 37.2164 54.9793 37.8461C55.75 38.306 56.5182 38.7709 57.3403 39.1351C58.1941 39.5134 59.0792 39.7541 60.0157 39.768C61.0249 39.7829 61.988 39.5592 62.9218 39.1919C63.8675 38.8198 64.7507 38.3235 65.6244 37.8088C66.1043 37.5261 66.5859 37.2465 67.0842 36.9972C67.8326 36.6227 68.604 36.3775 69.4574 36.5444C69.6446 36.5811 69.6693 36.5498 69.6384 36.3543C69.5245 35.6349 69.3789 34.9217 69.1476 34.2299C68.5816 32.5367 67.6725 31.0462 66.4904 29.7209C65.5367 28.6516 64.4781 27.71 63.2272 27.0033C62.7887 26.7556 62.3373 26.5309 61.9166 26.2518C61.8082 26.1798 61.7149 26.1852 61.6189 26.2687C61.5638 26.3166 61.5036 26.3585 61.4458 26.4034C60.231 27.3424 59.0114 28.2746 57.7298 29.121C55.771 30.4146 53.7932 31.6786 51.8202 32.9498C50.6531 33.7018 49.4825 34.4477 48.2653 35.1162C48.0503 35.2344 47.8328 35.3488 47.6163 35.4651ZM70.851 38.768C70.9005 38.7355 70.9271 38.7256 70.9428 38.7065C71.2128 38.3772 71.5401 38.1163 71.894 37.8856C72.3987 37.5567 72.9191 37.248 73.374 36.8493C74.7076 35.6805 76.0454 34.5162 77.3603 33.3262C78.3565 32.4245 79.3193 31.4853 80.2984 30.5643C80.7312 30.1572 81.1908 29.7788 81.5924 29.3384C81.9872 28.9123 82.242 28.3734 82.322 27.7949C82.3929 27.306 82.3649 26.8189 82.2939 26.3369C82.126 25.1978 81.7846 24.1144 81.2059 23.1122C80.5276 21.9374 79.7242 20.8523 78.874 19.8012C78.2714 19.0561 77.6157 18.3621 76.8514 17.7825C76.0797 17.1974 75.232 16.7874 74.2629 16.6611C73.8793 16.6112 73.5378 16.6952 73.2308 16.9226C73.0327 17.0693 72.8372 17.2204 72.6498 17.3804C71.8704 18.0461 71.061 18.6707 70.2028 19.2303C69.2314 19.8636 68.2518 20.4851 67.2933 21.1376C65.5424 22.3301 63.8688 23.6355 62.0794 24.7724C62.0211 24.8094 61.9443 24.8349 61.9367 24.9214C61.9645 24.9692 62.0115 24.9765 62.0552 24.9872C63.1993 25.2664 64.1873 25.8634 65.0903 26.594C66.8727 28.0359 68.3192 29.7718 69.3854 31.8152C70.419 33.7962 70.9065 35.9109 70.8661 38.1466C70.8624 38.3458 70.8564 38.5449 70.851 38.768ZM54.8813 49.0051C55.0334 49.0257 55.1029 48.9551 55.1767 48.909C56.8109 47.8886 58.4359 46.8537 59.9938 45.7166C61.2259 44.8171 62.4691 43.9335 63.7233 43.0656C64.7816 42.3313 65.8232 41.5734 66.8062 40.738C67.7607 39.9268 68.6566 39.0498 69.5832 38.2073C69.8086 38.0023 69.8378 37.7826 69.7949 37.5188C69.7654 37.3366 69.7256 37.3122 69.5585 37.3712C69.4297 37.4167 69.3032 37.4691 69.177 37.5216C68.012 38.0065 66.9091 38.6123 65.8231 39.2532C65.0444 39.7126 64.2484 40.1407 63.4093 40.4802C62.2474 40.9503 61.0475 41.2326 59.7851 41.184C58.7133 41.1427 57.6946 40.872 56.7152 40.4357C56.6193 40.3929 56.5264 40.3288 56.3987 40.3368C56.9046 43.4105 56.3072 46.273 54.8813 49.0051ZM43.1428 39.8118C42.9021 39.9197 42.6527 39.9311 42.4094 39.9279C42.0437 39.9228 41.7848 40.1077 41.5584 40.3543C41.1589 40.7893 41.2433 41.3249 41.7484 41.6386C41.9766 41.7777 42.2371 41.853 42.5033 41.857C42.7039 41.8639 42.9044 41.8395 43.0975 41.7846C43.1768 41.7585 43.2632 41.7642 43.3387 41.8005C43.4143 41.8369 43.4732 41.9011 43.5032 41.9799C43.563 42.1259 43.5144 42.2723 43.365 42.3889C43.3292 42.4168 43.2892 42.4397 43.2507 42.4642C43.0419 42.5967 42.8586 42.7662 42.7095 42.9644C42.205 43.6359 42.0787 44.3679 42.4453 45.1415C42.7958 45.881 43.3771 46.3127 44.2097 46.3409C44.5124 46.3531 44.8135 46.2953 45.0901 46.1718C45.7713 45.8628 46.4525 45.5495 46.9819 44.9907C47.0687 44.896 47.1694 44.8152 47.2805 44.7512C47.5009 44.6289 47.7081 44.6508 47.8547 44.8136C48.0083 44.9842 48.0079 45.2105 47.8417 45.4159C47.7695 45.4986 47.6902 45.5746 47.6046 45.6429C47.3059 45.8996 47.0171 46.166 46.7754 46.4799C46.5378 46.7885 46.3487 47.1231 46.2849 47.5141C46.1869 48.1147 46.5446 48.5795 47.1469 48.6149C47.8492 48.6561 48.3658 48.3004 48.7736 47.7676C48.9508 47.5361 49.0756 47.2632 49.2792 47.0501C49.3752 46.9497 49.3428 46.8805 49.2653 46.793C48.5779 46.016 48.2898 45.0559 48.045 44.0776C47.999 43.894 48.0104 43.8851 47.8037 43.8846C47.4395 43.8836 47.1264 43.7514 46.8512 43.5183C46.51 43.2293 46.3114 42.8522 46.1869 42.4275C46.109 42.1618 46.1037 42.161 45.8348 42.1399C45.259 42.0955 44.6998 41.9218 44.1982 41.6314C43.8128 41.4102 43.4766 41.1283 43.2344 40.746C43.0829 40.507 43.04 40.2525 43.1327 39.9805C43.1472 39.9383 43.1766 39.8984 43.1428 39.8118ZM50.2722 44.5949C50.1564 44.6504 50.1014 44.7504 50.0321 44.8325C49.9268 44.9572 49.7341 45.0547 49.7309 45.2067C49.7272 45.3781 49.9315 45.4754 50.0486 45.6008C50.7437 46.3451 51.5999 46.6783 52.6082 46.617C52.7264 46.6082 52.845 46.606 52.9635 46.6104C53.2351 46.6243 53.3572 46.8147 53.2606 47.0657C53.2127 47.1901 53.1213 47.279 53.0189 47.3581C52.6432 47.6485 52.2071 47.7645 51.7443 47.7937C51.1952 47.8299 50.6459 47.7183 50.1525 47.4705C49.9355 47.3631 49.9326 47.3661 49.8148 47.5677C49.6574 47.8368 49.4815 48.0944 49.2883 48.3386C49.2176 48.4226 49.1591 48.5164 49.1147 48.6171C48.9658 48.9731 48.8639 49.3475 48.8116 49.7307C48.7695 50.0604 48.8015 50.3958 48.9053 50.7119C49.0423 51.1369 49.3866 51.3388 49.8199 51.2652C50.0099 51.2365 50.1908 51.1644 50.3486 51.0542C50.8987 50.6598 51.3012 50.1553 51.4893 49.4907C51.5055 49.4285 51.5291 49.3686 51.5595 49.3121C51.6796 49.1009 51.8985 49.0066 52.088 49.0787C52.2798 49.1517 52.3592 49.3189 52.3103 49.5805C52.2893 49.6925 52.2777 49.801 52.3227 49.9054C52.505 50.3278 52.7549 50.697 53.1632 50.93C53.5402 51.1452 53.8888 51.023 54.0645 50.6261C54.114 50.5143 54.0862 50.4673 53.9719 50.4246C53.5339 50.2613 53.3836 49.9891 53.4662 49.5242C53.5065 49.2973 53.5806 49.0794 53.6607 48.8642C53.9393 48.1157 54.2284 47.3709 54.4481 46.6015C54.4749 46.5077 54.5322 46.4156 54.4895 46.298C54.3398 46.2903 54.2165 46.3847 54.0758 46.4119C53.3026 46.5614 52.5503 46.4843 51.8186 46.1981C51.1395 45.9326 50.6351 45.4796 50.3708 44.7792C50.3486 44.7205 50.3414 44.6528 50.2722 44.5949ZM52.396 45.2619C52.5198 45.315 52.6524 45.3392 52.785 45.3622C53.1994 45.4318 53.6176 45.4743 54.0371 45.4897C54.2102 45.4973 54.3827 45.5085 54.5504 45.563C54.7163 45.6169 54.7198 45.614 54.7625 45.4355C55.1333 43.9052 55.2916 42.3296 55.2329 40.7538C55.2237 40.5166 55.1885 40.4935 54.9722 40.5917C54.6732 40.7276 54.3766 40.868 54.0599 40.9605C53.5352 41.1136 53.0098 41.2653 52.4884 41.4298C52.0758 41.5601 51.6881 41.7414 51.4038 42.0891C51.3665 42.1347 51.3038 42.1769 51.34 42.2471C51.3761 42.2829 51.4132 42.2747 51.4484 42.2691C52.223 42.1453 53.0075 42.106 53.784 41.9987C54.0368 41.9638 54.1915 42.0278 54.2302 42.1668C54.2671 42.2992 54.188 42.4277 53.9735 42.5448C53.5185 42.7983 53.0313 42.9881 52.5252 43.1091C52.0761 43.2128 51.6241 43.2428 51.1673 43.1646C51.0746 43.1487 50.9915 43.1588 50.9952 43.2747C50.9993 43.405 50.9188 43.5532 51.0551 43.6596C51.0753 43.6755 51.125 43.657 51.1597 43.6486C51.2571 43.6252 51.3535 43.5969 51.451 43.574C52.2423 43.3876 53.0557 43.3313 53.8506 43.1663C53.9221 43.1501 53.9964 43.1503 54.068 43.1669C54.2772 43.2182 54.3413 43.3878 54.2142 43.5639C54.1823 43.6087 54.1427 43.6474 54.0974 43.6783C53.3347 44.1823 52.5183 44.5116 51.5829 44.4599C51.473 44.4538 51.3092 44.3567 51.2627 44.4815C51.2195 44.5971 51.3803 44.6909 51.4635 44.7854C51.4817 44.806 51.5038 44.8229 51.524 44.8417C51.6034 44.9155 51.6748 44.9284 51.7566 44.8367C51.8629 44.7176 52.0074 44.6578 52.1561 44.6082C52.8131 44.3885 53.4997 44.3786 54.18 44.324C54.2165 44.3217 54.2531 44.3246 54.2889 44.3326C54.3804 44.3515 54.4758 44.3774 54.4926 44.4869C54.5089 44.5927 54.4345 44.6578 54.3542 44.7051C54.2839 44.7478 54.2089 44.7821 54.1307 44.8073C53.5827 44.9752 53.0446 45.1856 52.4622 45.2116C52.4468 45.2098 52.4314 45.214 52.4191 45.2234C52.4067 45.2327 52.3985 45.2465 52.396 45.2619ZM44.3076 35.9664C43.7064 35.7104 43.1065 35.5293 42.4611 35.7682C42.2456 35.8495 42.064 36.002 41.9458 36.201C41.8852 36.2934 41.8471 36.3991 41.8347 36.5094C41.8223 36.6197 41.8359 36.7315 41.8743 36.8357C41.9337 37.0052 42.0082 37.0488 42.1873 37.0199C42.3401 36.9953 42.4911 36.9594 42.6441 36.9365C42.8433 36.9058 43.0472 36.9282 43.2357 37.0012C43.3513 37.0456 43.4515 37.1145 43.457 37.2538C43.4627 37.398 43.3564 37.4601 43.2447 37.5092C43.195 37.531 43.1404 37.5412 43.0887 37.5589C42.8992 37.6236 42.7074 37.6828 42.5294 37.7769C42.3334 37.8804 42.1583 38.0103 42.044 38.207C41.8272 38.5796 41.965 38.9977 42.3587 39.1685C42.5025 39.2309 42.6552 39.2585 42.8075 39.2878C43.0215 39.329 43.2441 39.35 43.3666 39.5666C43.9702 39.0931 45.4619 37.2247 45.5791 36.7879C45.173 36.809 44.7736 36.7764 44.3758 36.8375C44.2679 36.8538 44.1592 36.864 44.0501 36.8681C43.9428 36.8723 43.8515 36.8298 43.7995 36.7309C43.7409 36.6195 43.7706 36.5118 43.8457 36.4235C43.9223 36.3335 44.0127 36.2556 44.0972 36.1725C44.1613 36.1095 44.2539 36.0776 44.3076 35.9664ZM44.2792 39.9241C44.8676 39.9243 45.3923 39.8586 45.9119 39.7791C46.5265 39.685 47.1134 39.4945 47.6338 39.1292C48.1812 38.7449 48.5288 38.1999 48.8496 37.6314C48.9347 37.4803 49.0025 37.3189 49.0781 37.1621C49.1265 37.0616 49.0922 37.0049 48.9859 36.987C48.932 36.978 48.8779 36.97 48.824 36.9607C48.1127 36.8379 47.3948 36.8009 46.6753 36.7761C46.4818 36.7694 46.3822 36.8394 46.3052 37.0187C45.996 37.7392 45.5626 38.3838 45.0852 39.0002C44.8453 39.3098 44.5721 39.5899 44.2792 39.9241ZM48.8 44.0795C48.8271 44.0515 48.846 44.041 48.8508 44.0258C49.1484 43.1061 49.7106 42.4179 50.5857 42.004C50.6761 41.9602 50.7535 41.8932 50.8101 41.8096C50.9964 41.5481 51.2242 41.3194 51.4843 41.1327C51.6438 41.0179 51.6425 41.0065 51.4758 40.8813C51.1287 40.6206 50.9174 40.2765 50.8503 39.8478C50.7383 39.1326 50.8541 38.4566 51.2091 37.8266C51.3183 37.6329 51.3213 37.632 51.1268 37.5552C51.0168 37.5104 50.9044 37.4715 50.7903 37.4388C50.6218 37.3926 50.5867 37.4192 50.6214 37.5946C50.7198 38.0928 50.6158 38.5627 50.4534 39.0274C50.3703 39.2612 50.269 39.4878 50.1505 39.7053C49.7018 40.5396 49.1037 41.2256 48.2445 41.6527C47.8749 41.8366 47.4859 41.9617 47.0886 42.0656C46.8897 42.1176 46.8785 42.1408 46.9805 42.3237C47.1136 42.5666 47.2951 42.7791 47.5136 42.9478C47.6504 43.057 47.8117 43.1305 47.9832 43.1617C48.0878 43.1793 48.1418 43.1417 48.1143 43.0247C48.0411 42.7136 48.1573 42.4448 48.3045 42.1865C48.4255 41.9697 48.5823 41.7754 48.7682 41.612C48.9476 41.4566 49.1294 41.3036 49.3155 41.1563C49.6621 40.8819 49.9739 40.5777 50.1868 40.1813C50.2207 40.1164 50.2663 40.0585 50.3212 40.0104C50.4478 39.9038 50.5888 39.9483 50.6427 40.1083C50.6593 40.1609 50.6668 40.216 50.6648 40.2711C50.649 40.8655 50.471 41.3916 50.021 41.7974C49.8856 41.9196 49.7406 42.0314 49.5981 42.1455C49.4054 42.2999 49.2142 42.4561 49.0596 42.651C48.9037 42.8476 48.782 43.0612 48.7813 43.3229C48.781 43.4266 48.73 43.4946 48.6575 43.5558C48.6034 43.6016 48.5268 43.623 48.4946 43.7155L48.8 44.0795ZM51.5028 39.533C51.5512 39.8626 51.7297 40.2166 52.0146 40.553C52.1654 40.731 52.1681 40.7291 52.382 40.6434C52.6859 40.5215 52.9906 40.4012 53.2969 40.2857C53.8513 40.0766 54.4306 39.9529 54.9989 39.7914C55.0577 39.7746 55.135 39.773 55.1379 39.6874C55.1401 39.6227 55.0806 39.5989 55.0341 39.5715C54.8059 39.4368 54.5774 39.3026 54.3486 39.1689C53.5998 38.7293 52.8482 38.2952 52.059 37.9321C51.788 37.8074 51.7505 37.8216 51.6307 38.0981C51.6089 38.1484 51.5918 38.2009 51.5736 38.2527C51.4271 38.6718 51.4441 39.1011 51.5028 39.533ZM45.1861 40.8247C45.3078 40.9045 45.4068 40.9168 45.5008 40.9402C45.9499 41.0519 46.4061 41.0585 46.8598 41.0013C47.6561 40.9013 48.3805 40.6257 48.9574 40.0396C49.5798 39.4071 49.9332 38.6316 50.1077 37.766C50.1293 37.6586 50.1279 37.5466 50.1396 37.437C50.1551 37.2912 50.091 37.2103 49.9485 37.188C49.9036 37.181 49.8597 37.1664 49.8147 37.1591C49.643 37.131 49.6238 37.1417 49.5951 37.309C49.5687 37.4629 49.555 37.6191 49.5284 37.7729C49.3265 38.9383 48.7112 39.7975 47.6649 40.3367C47.1214 40.6167 46.5407 40.7584 45.9342 40.7985C45.7005 40.814 45.466 40.8154 45.1861 40.8247ZM50.3338 42.8928C50.2198 42.9158 50.168 42.9952 50.1053 43.0561C49.7344 43.4175 49.4737 43.8588 49.2277 44.3095C49.0962 44.5506 49.1016 44.5535 49.3499 44.7632C49.4563 44.3462 49.7287 44.0795 50.0969 43.9011C50.1666 43.8673 50.2201 43.8219 50.2302 43.7406C50.265 43.4614 50.2985 43.1822 50.3338 42.8928Z" fill="white"/>
</svg>
