<svg width="124" height="87" viewBox="0 0 124 87" fill="none" xmlns="http://www.w3.org/2000/svg">
<path d="M0 25C0 11.1929 11.1929 0 25 0H99C112.807 0 124 11.1929 124 25V62C124 75.8071 112.807 87 99 87H25C11.1929 87 0 75.8071 0 62V25Z" fill="#2E3235"/>
<path d="M84.2581 40.387V32.5573C84.2124 31.8379 83.8845 31.1656 83.3456 30.6866C82.8068 30.2077 82.1007 29.9609 81.3808 29.9999C80.838 29.9975 80.3037 30.1358 79.8302 30.4013L75.3645 32.9313L74.1818 30.8435C73.7987 30.1368 73.1547 29.6078 72.3871 29.3692V24.3982C72.342 23.6784 72.0143 23.0055 71.4754 22.5261C70.9365 22.0467 70.2301 21.7996 69.5099 21.8385C68.967 21.8362 68.4328 21.9745 67.9592 22.2399L62 25.6165V21.5358C61.9492 20.7834 61.6036 20.0814 61.0382 19.5824C60.4727 19.0834 59.7332 18.8276 58.9803 18.8708C58.4109 18.8686 57.8505 19.0124 57.3525 19.2885L50.3138 23.2482C49.9995 23.4262 49.7145 23.6514 49.4687 23.916C49.0093 23.5359 48.4327 23.3262 47.8365 23.3224C47.3972 23.3293 46.9664 23.4436 46.5815 23.6553C46.1966 23.867 45.8694 24.1697 45.6285 24.537L41.4914 30.2143C41.3277 30.2793 41.1706 30.3601 41.0225 30.4554C40.6198 30.7338 40.2924 31.1077 40.0697 31.5437C39.847 31.9797 39.7359 32.4641 39.7464 32.9535L39.7419 40.387C39.5452 40.387 39.3564 40.4652 39.2173 40.6043C39.0782 40.7435 39 40.9322 39 41.129V44.8387C39.0026 47.0024 39.8632 49.0768 41.3932 50.6068C42.9232 52.1368 44.9976 52.9974 47.1613 53H76.8387C79.0024 52.9974 81.0768 52.1368 82.6068 50.6068C84.1368 49.0768 84.9974 47.0024 85 44.8387V41.129C85 40.9322 84.9218 40.7435 84.7827 40.6043C84.6436 40.4652 84.4548 40.387 84.2581 40.387ZM80.5617 31.6922C80.8113 31.5537 81.0924 31.4819 81.3779 31.4838C81.7037 31.4507 82.0298 31.5434 82.2894 31.743C82.549 31.9426 82.7225 32.234 82.7742 32.5573V40.387H77.9887C78.2192 39.9282 78.3335 39.4199 78.3218 38.9066C78.31 38.3933 78.1725 37.8908 77.9212 37.443L76.0968 34.2223L80.5617 31.6922ZM83.5161 44.0967H40.4839V41.8709H83.5161V44.0967ZM46.4194 39.0575C46.4168 38.7519 46.5029 38.4522 46.6672 38.1946L51.1188 31.4578C51.2439 31.2472 51.4198 31.0713 51.6304 30.9462C51.841 30.8211 52.0796 30.7509 52.3244 30.7418C52.5921 30.7547 52.8515 30.8388 53.0758 30.9854C53.3001 31.132 53.4813 31.3358 53.6005 31.5758L54.1199 32.4972C53.8678 32.9326 53.6588 33.3916 53.4959 33.8676L53.3038 34.4515H53.0968C52.9 34.4515 52.7113 34.5297 52.5721 34.6688C52.433 34.808 52.3548 34.9967 52.3548 35.1935V38.1612C52.3548 38.358 52.433 38.5467 52.5721 38.6858C52.7113 38.825 52.9 38.9031 53.0968 38.9031V40.387H47.438C47.1309 40.3367 46.8546 40.1711 46.6653 39.9241C46.476 39.677 46.3881 39.3671 46.4194 39.0575ZM60.9242 29.9999H63.0758C64.4071 30 65.7047 30.419 66.7847 31.1974C67.8647 31.9758 68.6725 33.0743 69.0936 34.3373L69.1315 34.4515H54.8685L54.9064 34.3373C55.3275 33.0743 56.1353 31.9758 57.2153 31.1974C58.2953 30.419 59.5929 30 60.9242 29.9999ZM54.5806 40.387V38.9031H69.4194V40.387H54.5806ZM70.1613 35.9354V37.4193H53.8387V35.9354H70.1613ZM72.8909 31.5758L76.6302 38.1746C76.7687 38.4242 76.8406 38.7052 76.8387 38.9907C76.8718 39.3165 76.779 39.6426 76.5794 39.9022C76.3798 40.1618 76.0885 40.3353 75.7651 40.387H70.9032V38.9031C71.1 38.9031 71.2887 38.825 71.4279 38.6858C71.567 38.5467 71.6452 38.358 71.6452 38.1612V35.1935C71.6452 34.9967 71.567 34.808 71.4279 34.6688C71.2887 34.5297 71.1 34.4515 70.9032 34.4515H70.6962L70.5011 33.8683C70.3243 33.3457 70.092 32.8435 69.8081 32.3704L70.4113 31.4578C70.5362 31.2475 70.7118 31.0718 70.922 30.9467C71.1322 30.8217 71.3703 30.7512 71.6147 30.7418C71.8824 30.7547 72.1418 30.8388 72.3661 30.9854C72.5904 31.132 72.7716 31.3358 72.8909 31.5758ZM68.6908 23.5309C68.9404 23.3924 69.2215 23.3206 69.5069 23.3224C69.8327 23.2893 70.1588 23.3821 70.4184 23.5817C70.678 23.7813 70.8515 24.0726 70.9032 24.396V29.3544C70.1901 29.5591 69.5755 30.0157 69.1738 30.6394L68.8674 31.1031C68.1391 30.2878 67.2466 29.6358 66.2484 29.1899C65.2502 28.744 64.169 28.5143 63.0758 28.516H61.2625C61.2807 28.2542 61.3667 28.0016 61.5121 27.7832C61.6576 27.5648 61.8574 27.388 62.092 27.2703L68.6908 23.5309ZM51.0409 24.5422L58.0804 20.5824C58.3558 20.4305 58.6658 20.3521 58.9803 20.3547C59.3387 20.3179 59.6975 20.4198 59.9831 20.6393C60.2687 20.8588 60.4594 21.1794 60.5161 21.5351V26.6611C60.0439 27.1757 59.7796 27.8473 59.7742 28.5457C59.7742 28.565 59.7794 28.5835 59.7794 28.6028C57.9545 28.866 56.2849 29.7759 55.0748 31.1669L54.8915 30.8427C54.6792 30.4477 54.3818 30.1047 54.0207 29.8388C53.6596 29.5728 53.2439 29.3903 52.8037 29.3047L50.3917 25.1253C50.5607 24.8839 50.7828 24.6844 51.0409 24.5422ZM46.84 25.388C46.9445 25.2165 47.0898 25.0736 47.2631 24.972C47.4363 24.8705 47.6321 24.8136 47.8327 24.8063C48.0524 24.8162 48.2655 24.8842 48.4504 25.0031C48.6353 25.1221 48.7855 25.2879 48.8855 25.4837L51.2056 29.505C50.666 29.7498 50.2073 30.1433 49.8835 30.6394L48.548 32.6634L44.0407 30.3634C43.8354 30.2603 43.6201 30.1783 43.3982 30.1186L46.84 25.388ZM41.2303 32.9558C41.2184 32.7113 41.268 32.4678 41.3745 32.2474C41.481 32.0271 41.6411 31.837 41.8401 31.6945C42.0706 31.5581 42.3332 31.4854 42.601 31.484C42.8688 31.4826 43.1321 31.5524 43.3641 31.6863L47.7222 33.9121L45.4296 37.3792C45.1421 37.8221 44.974 38.3319 44.9419 38.859C44.9098 39.3861 45.0147 39.9125 45.2464 40.387H41.2258L41.2303 32.9558ZM76.8387 51.5161H47.1613C45.5197 51.5137 43.9364 50.9075 42.7131 49.8129C41.4897 48.7183 40.7118 47.2118 40.5276 45.5806H83.4724C83.2882 47.2118 82.5103 48.7183 81.2869 49.8129C80.0636 50.9075 78.4803 51.5137 76.8387 51.5161ZM48.2742 21.8385C48.7644 21.8397 49.2462 21.7117 49.6713 21.4676L55.3901 18.1682C55.802 17.9551 56.1502 17.6368 56.3992 17.2455C56.6482 16.8543 56.7892 16.4041 56.8078 15.9407C56.8264 15.4773 56.722 15.0173 56.5052 14.6073C56.2884 14.1974 55.9669 13.8521 55.5734 13.6067L49.7351 9.67444C49.2835 9.37859 48.7547 9.22245 48.2148 9.22557C47.5745 9.19586 46.9485 9.42051 46.4731 9.85053C45.9978 10.2806 45.7118 10.8811 45.6774 11.5211V19.4948C45.7129 20.1492 46.0059 20.763 46.4925 21.2022C46.979 21.6413 47.6195 21.8701 48.2742 21.8385ZM47.1613 11.5211C47.2004 11.277 47.3312 11.0571 47.527 10.9062C47.7228 10.7554 47.9689 10.685 48.2148 10.7094C48.4589 10.7074 48.6981 10.7773 48.9026 10.9105L54.7409 14.8428C54.912 14.947 55.0547 15.0919 55.1561 15.2646C55.2576 15.4372 55.3148 15.6324 55.3226 15.8325C55.3126 16.0522 55.2447 16.2653 55.1257 16.4502C55.0068 16.6351 54.841 16.7853 54.6452 16.8854L48.9256 20.1848C48.7271 20.2974 48.5024 20.3559 48.2742 20.3547C48.0139 20.3808 47.7536 20.3062 47.5466 20.1462C47.3396 19.9863 47.2017 19.7532 47.1613 19.4948V11.5211ZM62.8117 18.1288H70.7853C71.439 18.0933 72.0523 17.8008 72.4913 17.3151C72.9303 16.8294 73.1596 16.1898 73.129 15.5358C73.1302 15.0456 73.0022 14.5637 72.7581 14.1387L69.4609 8.41982C69.2478 8.0079 68.9295 7.65974 68.5383 7.41073C68.147 7.16171 67.6969 7.02073 67.2335 7.00212C66.7701 6.9835 66.31 7.08791 65.9001 7.30473C65.4901 7.52156 65.1449 7.84306 64.8995 8.23656L60.9672 14.0749C60.6713 14.5252 60.5144 15.0526 60.5161 15.5914C60.4864 16.2317 60.7111 16.8578 61.1411 17.3331C61.5711 17.8084 62.1716 18.0945 62.8117 18.1288ZM62.2011 14.9036L66.1333 9.06531C66.2375 8.89421 66.3824 8.75156 66.5551 8.65006C66.7278 8.54857 66.9229 8.49139 67.1231 8.48363C67.3427 8.49358 67.5558 8.56149 67.7407 8.68046C67.9257 8.79944 68.0758 8.96524 68.1759 9.16102L71.4753 14.8806C71.5885 15.0803 71.6471 15.3062 71.6452 15.5358C71.6703 15.7954 71.5952 16.0549 71.4354 16.261C71.2755 16.4672 71.043 16.6046 70.7853 16.645H62.8117C62.5676 16.6059 62.3476 16.4751 62.1968 16.2793C62.0459 16.0834 61.9755 15.8374 62 15.5914C61.998 15.3474 62.0679 15.1081 62.2011 14.9036ZM82.4069 15.903C81.9168 15.9019 81.4349 16.0298 81.0099 16.274L75.291 19.5734C74.8791 19.7865 74.531 20.1048 74.2819 20.496C74.0329 20.8873 73.892 21.3375 73.8733 21.8008C73.8547 22.2642 73.9591 22.7243 74.1759 23.1342C74.3928 23.5442 74.7143 23.8894 75.1078 24.1348L80.9461 28.0671C81.3966 28.3623 81.924 28.5184 82.4626 28.516C83.1029 28.5457 83.7289 28.3211 84.2043 27.891C84.6796 27.461 84.9656 26.8605 85 26.2204V18.2468C84.9645 17.593 84.672 16.9798 84.1863 16.5408C83.7005 16.1017 83.061 15.8725 82.4069 15.903ZM83.5161 26.2204C83.4771 26.4645 83.3463 26.6845 83.1504 26.8353C82.9546 26.9862 82.7086 27.0566 82.4626 27.0321C82.2185 27.0342 81.9793 26.9642 81.7748 26.8311L75.9365 22.8988C75.7659 22.7949 75.6236 22.6506 75.5221 22.4786C75.4207 22.3066 75.3632 22.1123 75.3548 21.9127C75.3648 21.6931 75.4327 21.48 75.5517 21.2951C75.6706 21.1101 75.8364 20.96 76.0322 20.8599L81.7518 17.5605C81.9511 17.446 82.1771 17.3861 82.4069 17.3869C82.6666 17.3618 82.926 17.4369 83.1322 17.5967C83.3384 17.7565 83.4757 17.9891 83.5161 18.2468V26.2204Z" fill="white"/>
<path d="M54.5806 25.5482H53.0968V27.0321H54.5806V25.5482Z" fill="white"/>
<path d="M58.2903 26.2902H56.8064V27.7741H58.2903V26.2902Z" fill="white"/>
<path d="M81.2903 36.6773H79.8064V38.1612H81.2903V36.6773Z" fill="white"/>
<path d="M81.2903 33.7096H79.8064V35.1935H81.2903V33.7096Z" fill="white"/>
<path d="M68.6774 26.2902H67.1936V27.7741H68.6774V26.2902Z" fill="white"/>
<path d="M74.6129 37.4193H73.129V38.9031H74.6129V37.4193Z" fill="white"/>
<path d="M82.0323 23.3224H80.5484V24.8063H82.0323V23.3224Z" fill="white"/>
<path d="M82.0323 20.3547H80.5484V21.8385H82.0323V20.3547Z" fill="white"/>
<path d="M79.0645 21.0966H77.5806V22.5805H79.0645V21.0966Z" fill="white"/>
<path d="M69.4194 13.6772H67.9355V15.1611H69.4194V13.6772Z" fill="white"/>
<path d="M67.9355 10.7094H66.4516V12.1933H67.9355V10.7094Z" fill="white"/>
<path d="M65.7097 13.6772H64.2258V15.1611H65.7097V13.6772Z" fill="white"/>
<path d="M53.0968 15.1611H51.6129V16.645H53.0968V15.1611Z" fill="white"/>
<path d="M50.129 13.6772H48.6452V15.1611H50.129V13.6772Z" fill="white"/>
<path d="M50.129 16.645H48.6452V18.1288H50.129V16.645Z" fill="white"/>
<path d="M59.0323 22.5805H57.5484V24.0644H59.0323V22.5805Z" fill="white"/>
<path d="M50.871 36.6773H49.3871V38.1612H50.871V36.6773Z" fill="white"/>
<path d="M44.1936 35.1935H42.7097V36.6773H44.1936V35.1935Z" fill="white"/>
<path d="M47.9032 27.7741H46.4194V29.2579H47.9032V27.7741Z" fill="white"/>
<path d="M43.0781 68H41.3848V59.5449H42.8613L46.8105 65.0527H46.8574V59.5449H48.5508V68H47.0859L43.1309 62.4629H43.0781V68Z" fill="white"/>
<path d="M52.1016 66.8633C52.4805 66.8633 52.8008 66.7539 53.0625 66.5352C53.3281 66.3125 53.4609 66.0332 53.4609 65.6973V65.2402L52.1367 65.3223C51.8164 65.3457 51.5684 65.4258 51.3926 65.5625C51.2207 65.6992 51.1348 65.8789 51.1348 66.1016C51.1348 66.3359 51.2227 66.5215 51.3984 66.6582C51.5742 66.7949 51.8086 66.8633 52.1016 66.8633ZM51.5391 68.0996C50.9336 68.0996 50.4316 67.9219 50.0332 67.5664C49.6348 67.2109 49.4355 66.7539 49.4355 66.1953C49.4355 65.625 49.6465 65.1777 50.0684 64.8535C50.4902 64.5293 51.0938 64.3438 51.8789 64.2969L53.4609 64.2031V63.7871C53.4609 63.498 53.3652 63.2715 53.1738 63.1074C52.9863 62.9434 52.7305 62.8613 52.4062 62.8613C52.0938 62.8613 51.8379 62.9316 51.6387 63.0723C51.4434 63.2129 51.3242 63.4023 51.2812 63.6406H49.7168C49.748 63.0234 50.0117 62.5273 50.5078 62.1523C51.0039 61.7734 51.6621 61.584 52.4824 61.584C53.2871 61.584 53.9316 61.7754 54.416 62.1582C54.9004 62.541 55.1426 63.0488 55.1426 63.6816V68H53.4902V67.0391H53.4551C53.2832 67.3672 53.0215 67.627 52.6699 67.8184C52.3184 68.0059 51.9414 68.0996 51.5391 68.0996Z" fill="white"/>
<path d="M61.957 64.0566H60.3691C60.3184 63.7168 60.1836 63.4434 59.9648 63.2363C59.75 63.0293 59.4707 62.9258 59.127 62.9258C58.7012 62.9258 58.3652 63.0977 58.1191 63.4414C57.877 63.7812 57.7559 64.252 57.7559 64.8535C57.7559 65.4668 57.877 65.9434 58.1191 66.2832C58.3652 66.623 58.7031 66.793 59.1328 66.793C59.4727 66.793 59.75 66.6973 59.9648 66.5059C60.1797 66.3105 60.3145 66.041 60.3691 65.6973H61.9629C61.9199 66.4395 61.6406 67.0312 61.125 67.4727C60.6094 67.9141 59.9395 68.1348 59.1152 68.1348C58.1621 68.1348 57.4082 67.8438 56.8535 67.2617C56.2988 66.6758 56.0215 65.873 56.0215 64.8535C56.0215 63.8496 56.2988 63.0547 56.8535 62.4688C57.4121 61.8789 58.1621 61.584 59.1035 61.584C59.9395 61.584 60.6133 61.8145 61.125 62.2754C61.6406 62.7363 61.918 63.3301 61.957 64.0566Z" fill="white"/>
<path d="M62.8301 68V59.5449H64.5117V62.8379H64.5469C64.7148 62.4395 64.9668 62.1348 65.3027 61.9238C65.6426 61.709 66.0488 61.6016 66.5215 61.6016C67.2129 61.6016 67.75 61.8125 68.1328 62.2344C68.5195 62.6523 68.7129 63.2266 68.7129 63.957V68H67.002V64.3203C67.002 63.9102 66.9004 63.5918 66.6973 63.3652C66.498 63.1348 66.207 63.0195 65.8242 63.0195C65.4258 63.0195 65.1113 63.1484 64.8809 63.4062C64.6543 63.6602 64.541 63.9961 64.541 64.4141V68H62.8301Z" fill="white"/>
<path d="M74.9648 67.2676C74.4062 67.8457 73.6484 68.1348 72.6914 68.1348C71.7344 68.1348 70.9766 67.8438 70.418 67.2617C69.8594 66.6797 69.5801 65.877 69.5801 64.8535C69.5801 63.8418 69.8613 63.0449 70.4238 62.4629C70.9902 61.877 71.7461 61.584 72.6914 61.584C73.6406 61.584 74.3965 61.877 74.959 62.4629C75.5215 63.0449 75.8027 63.8418 75.8027 64.8535C75.8027 65.8809 75.5234 66.6855 74.9648 67.2676ZM72.6914 66.8281C73.1133 66.8281 73.4473 66.6562 73.6934 66.3125C73.9395 65.9688 74.0625 65.4844 74.0625 64.8594C74.0625 64.2422 73.9395 63.7598 73.6934 63.4121C73.4473 63.0645 73.1133 62.8906 72.6914 62.8906C72.2695 62.8906 71.9336 63.0645 71.6836 63.4121C71.4375 63.7598 71.3145 64.2422 71.3145 64.8594C71.3145 65.4844 71.4375 65.9688 71.6836 66.3125C71.9297 66.6562 72.2656 66.8281 72.6914 66.8281Z" fill="white"/>
<path d="M76.582 63.5645C76.582 62.9668 76.8223 62.4883 77.3027 62.1289C77.7832 61.7656 78.4258 61.584 79.2305 61.584C80.0156 61.584 80.6465 61.7676 81.123 62.1348C81.5996 62.502 81.8438 62.9902 81.8555 63.5996H80.2793C80.2598 63.3457 80.1543 63.1465 79.9629 63.002C79.7754 62.8574 79.5234 62.7852 79.207 62.7852C78.9102 62.7852 78.6719 62.8477 78.4922 62.9727C78.3164 63.0938 78.2285 63.2559 78.2285 63.459C78.2285 63.7637 78.502 63.9805 79.0488 64.1094L80.25 64.3672C80.8789 64.5078 81.3301 64.7129 81.6035 64.9824C81.8809 65.248 82.0195 65.6152 82.0195 66.084C82.0195 66.7012 81.7617 67.1973 81.2461 67.5723C80.7305 67.9473 80.0566 68.1348 79.2246 68.1348C78.3965 68.1348 77.7344 67.9512 77.2383 67.584C76.7422 67.2168 76.4707 66.7227 76.4238 66.1016H78.0938C78.1367 66.3672 78.2578 66.5723 78.457 66.7168C78.6602 66.8613 78.9316 66.9336 79.2715 66.9336C79.5957 66.9336 79.8496 66.875 80.0332 66.7578C80.2207 66.6367 80.3145 66.4727 80.3145 66.2656C80.3145 66.1055 80.2559 65.9785 80.1387 65.8848C80.0215 65.7871 79.8223 65.7051 79.541 65.6387L78.3809 65.3809C77.1816 65.1074 76.582 64.502 76.582 63.5645Z" fill="white"/>
</svg>
