<svg width="146" height="109" viewBox="0 0 146 109" fill="none" xmlns="http://www.w3.org/2000/svg">
<g filter="url(#filter0_d_356_195)">
<mask id="path-1-outside-1_356_195" maskUnits="userSpaceOnUse" x="10" y="10" width="126" height="89" fill="black">
<rect fill="white" x="10" y="10" width="126" height="89"/>
<path d="M11 36C11 22.1929 22.1929 11 36 11H110C123.807 11 135 22.1929 135 36V73C135 86.8071 123.807 98 110 98H36C22.1929 98 11 86.8071 11 73V36Z"/>
<path d="M95.2581 51.387V43.5573C95.2124 42.8379 94.8845 42.1656 94.3456 41.6866C93.8068 41.2077 93.1007 40.9609 92.3808 40.9999C91.838 40.9975 91.3037 41.1358 90.8302 41.4013L86.3645 43.9313L85.1818 41.8435C84.7987 41.1368 84.1547 40.6078 83.3871 40.3692V35.3982C83.342 34.6784 83.0143 34.0055 82.4754 33.5261C81.9365 33.0467 81.2301 32.7996 80.5099 32.8385C79.967 32.8362 79.4328 32.9745 78.9592 33.2399L73 36.6165V32.5358C72.9492 31.7834 72.6036 31.0814 72.0382 30.5824C71.4727 30.0834 70.7332 29.8276 69.9803 29.8708C69.4109 29.8686 68.8505 30.0124 68.3525 30.2885L61.3138 34.2482C60.9995 34.4262 60.7145 34.6514 60.4687 34.916C60.0093 34.5359 59.4327 34.3262 58.8365 34.3224C58.3972 34.3293 57.9664 34.4436 57.5815 34.6553C57.1966 34.867 56.8694 35.1697 56.6285 35.537L52.4914 41.2143C52.3277 41.2793 52.1706 41.3601 52.0225 41.4554C51.6198 41.7338 51.2924 42.1077 51.0697 42.5437C50.847 42.9797 50.7359 43.4641 50.7464 43.9535L50.7419 51.387C50.5452 51.387 50.3564 51.4652 50.2173 51.6043C50.0782 51.7435 50 51.9322 50 52.129V55.8387C50.0026 58.0024 50.8632 60.0768 52.3932 61.6068C53.9232 63.1368 55.9976 63.9974 58.1613 64H87.8387C90.0024 63.9974 92.0768 63.1368 93.6068 61.6068C95.1368 60.0768 95.9974 58.0024 96 55.8387V52.129C96 51.9322 95.9218 51.7435 95.7827 51.6043C95.6436 51.4652 95.4548 51.387 95.2581 51.387ZM91.5617 42.6922C91.8113 42.5537 92.0924 42.4819 92.3779 42.4838C92.7037 42.4507 93.0298 42.5434 93.2894 42.743C93.549 42.9426 93.7225 43.234 93.7742 43.5573V51.387H88.9887C89.2192 50.9282 89.3335 50.4199 89.3218 49.9066C89.31 49.3933 89.1725 48.8908 88.9212 48.443L87.0968 45.2223L91.5617 42.6922ZM94.5161 55.0967H51.4839V52.8709H94.5161V55.0967ZM57.4194 50.0575C57.4168 49.7519 57.5029 49.4522 57.6672 49.1946L62.1188 42.4578C62.2439 42.2472 62.4198 42.0713 62.6304 41.9462C62.841 41.8211 63.0796 41.7509 63.3244 41.7418C63.5921 41.7547 63.8515 41.8388 64.0758 41.9854C64.3001 42.132 64.4813 42.3358 64.6005 42.5758L65.1199 43.4972C64.8678 43.9326 64.6588 44.3916 64.4959 44.8676L64.3038 45.4515H64.0968C63.9 45.4515 63.7113 45.5297 63.5721 45.6688C63.433 45.808 63.3548 45.9967 63.3548 46.1935V49.1612C63.3548 49.358 63.433 49.5467 63.5721 49.6858C63.7113 49.825 63.9 49.9031 64.0968 49.9031V51.387H58.438C58.1309 51.3367 57.8546 51.1711 57.6653 50.9241C57.476 50.677 57.3881 50.3671 57.4194 50.0575ZM71.9242 40.9999H74.0758C75.4071 41 76.7047 41.419 77.7847 42.1974C78.8647 42.9758 79.6725 44.0743 80.0936 45.3373L80.1315 45.4515H65.8685L65.9064 45.3373C66.3275 44.0743 67.1353 42.9758 68.2153 42.1974C69.2953 41.419 70.5929 41 71.9242 40.9999ZM65.5806 51.387V49.9031H80.4194V51.387H65.5806ZM81.1613 46.9354V48.4193H64.8387V46.9354H81.1613ZM83.8909 42.5758L87.6302 49.1746C87.7687 49.4242 87.8406 49.7052 87.8387 49.9907C87.8718 50.3165 87.779 50.6426 87.5794 50.9022C87.3798 51.1618 87.0885 51.3353 86.7651 51.387H81.9032V49.9031C82.1 49.9031 82.2887 49.825 82.4279 49.6858C82.567 49.5467 82.6452 49.358 82.6452 49.1612V46.1935C82.6452 45.9967 82.567 45.808 82.4279 45.6688C82.2887 45.5297 82.1 45.4515 81.9032 45.4515H81.6962L81.5011 44.8683C81.3243 44.3457 81.092 43.8435 80.8081 43.3704L81.4113 42.4578C81.5362 42.2475 81.7118 42.0718 81.922 41.9467C82.1322 41.8217 82.3703 41.7512 82.6147 41.7418C82.8824 41.7547 83.1418 41.8388 83.3661 41.9854C83.5904 42.132 83.7716 42.3358 83.8909 42.5758ZM79.6908 34.5309C79.9404 34.3924 80.2215 34.3206 80.5069 34.3224C80.8327 34.2893 81.1588 34.3821 81.4184 34.5817C81.678 34.7813 81.8515 35.0726 81.9032 35.396V40.3544C81.1901 40.5591 80.5755 41.0157 80.1738 41.6394L79.8674 42.1031C79.1391 41.2878 78.2466 40.6358 77.2484 40.1899C76.2502 39.744 75.169 39.5143 74.0758 39.516H72.2625C72.2807 39.2542 72.3667 39.0016 72.5121 38.7832C72.6576 38.5648 72.8574 38.388 73.092 38.2703L79.6908 34.5309ZM62.0409 35.5422L69.0804 31.5824C69.3558 31.4305 69.6658 31.3521 69.9803 31.3547C70.3387 31.3179 70.6975 31.4198 70.9831 31.6393C71.2687 31.8588 71.4594 32.1794 71.5161 32.5351V37.6611C71.0439 38.1757 70.7796 38.8473 70.7742 39.5457C70.7742 39.565 70.7794 39.5835 70.7794 39.6028C68.9545 39.866 67.2849 40.7759 66.0748 42.1669L65.8915 41.8427C65.6792 41.4477 65.3818 41.1047 65.0207 40.8388C64.6596 40.5728 64.2439 40.3903 63.8037 40.3047L61.3917 36.1253C61.5607 35.8839 61.7828 35.6844 62.0409 35.5422ZM57.84 36.388C57.9445 36.2165 58.0898 36.0736 58.2631 35.972C58.4363 35.8705 58.6321 35.8136 58.8327 35.8063C59.0524 35.8162 59.2655 35.8842 59.4504 36.0031C59.6353 36.1221 59.7855 36.2879 59.8855 36.4837L62.2056 40.505C61.666 40.7498 61.2073 41.1433 60.8835 41.6394L59.548 43.6634L55.0407 41.3634C54.8354 41.2603 54.6201 41.1783 54.3982 41.1186L57.84 36.388ZM52.2303 43.9558C52.2184 43.7113 52.268 43.4678 52.3745 43.2474C52.481 43.0271 52.6411 42.837 52.8401 42.6945C53.0706 42.5581 53.3332 42.4854 53.601 42.484C53.8688 42.4826 54.1321 42.5524 54.3641 42.6863L58.7222 44.9121L56.4296 48.3792C56.1421 48.8221 55.974 49.3319 55.9419 49.859C55.9098 50.3861 56.0147 50.9125 56.2464 51.387H52.2258L52.2303 43.9558ZM87.8387 62.5161H58.1613C56.5197 62.5137 54.9364 61.9075 53.7131 60.8129C52.4897 59.7183 51.7118 58.2118 51.5276 56.5806H94.4724C94.2882 58.2118 93.5103 59.7183 92.2869 60.8129C91.0636 61.9075 89.4803 62.5137 87.8387 62.5161ZM59.2742 32.8385C59.7644 32.8397 60.2462 32.7117 60.6713 32.4676L66.3901 29.1682C66.802 28.9551 67.1502 28.6368 67.3992 28.2455C67.6482 27.8543 67.7892 27.4041 67.8078 26.9407C67.8264 26.4773 67.722 26.0173 67.5052 25.6073C67.2884 25.1974 66.9669 24.8521 66.5734 24.6067L60.7351 20.6744C60.2835 20.3786 59.7547 20.2225 59.2148 20.2256C58.5745 20.1959 57.9485 20.4205 57.4731 20.8505C56.9978 21.2806 56.7118 21.8811 56.6774 22.5211V30.4948C56.7129 31.1492 57.0059 31.763 57.4925 32.2022C57.979 32.6413 58.6195 32.8701 59.2742 32.8385ZM58.1613 22.5211C58.2004 22.277 58.3312 22.0571 58.527 21.9062C58.7228 21.7554 58.9689 21.685 59.2148 21.7094C59.4589 21.7074 59.6981 21.7773 59.9026 21.9105L65.7409 25.8428C65.912 25.947 66.0547 26.0919 66.1561 26.2646C66.2576 26.4372 66.3148 26.6324 66.3226 26.8325C66.3126 27.0522 66.2447 27.2653 66.1257 27.4502C66.0068 27.6351 65.841 27.7853 65.6452 27.8854L59.9256 31.1848C59.7271 31.2974 59.5024 31.3559 59.2742 31.3547C59.0139 31.3808 58.7536 31.3062 58.5466 31.1462C58.3396 30.9863 58.2017 30.7532 58.1613 30.4948V22.5211ZM73.8117 29.1288H81.7853C82.439 29.0933 83.0523 28.8008 83.4913 28.3151C83.9303 27.8294 84.1596 27.1898 84.129 26.5358C84.1302 26.0456 84.0022 25.5637 83.7581 25.1387L80.4609 19.4198C80.2478 19.0079 79.9295 18.6597 79.5383 18.4107C79.147 18.1617 78.6969 18.0207 78.2335 18.0021C77.7701 17.9835 77.31 18.0879 76.9001 18.3047C76.4901 18.5216 76.1449 18.8431 75.8995 19.2366L71.9672 25.0749C71.6713 25.5252 71.5144 26.0526 71.5161 26.5914C71.4864 27.2317 71.7111 27.8578 72.1411 28.3331C72.5711 28.8084 73.1716 29.0945 73.8117 29.1288ZM73.2011 25.9036L77.1333 20.0653C77.2375 19.8942 77.3824 19.7516 77.5551 19.6501C77.7278 19.5486 77.9229 19.4914 78.1231 19.4836C78.3427 19.4936 78.5558 19.5615 78.7407 19.6805C78.9257 19.7994 79.0758 19.9652 79.1759 20.161L82.4753 25.8806C82.5885 26.0803 82.6471 26.3062 82.6452 26.5358C82.6703 26.7954 82.5952 27.0549 82.4354 27.261C82.2755 27.4672 82.043 27.6046 81.7853 27.645H73.8117C73.5676 27.6059 73.3476 27.4751 73.1968 27.2793C73.0459 27.0834 72.9755 26.8374 73 26.5914C72.998 26.3474 73.0679 26.1081 73.2011 25.9036ZM93.4069 26.903C92.9168 26.9019 92.4349 27.0298 92.0099 27.274L86.291 30.5734C85.8791 30.7865 85.531 31.1048 85.2819 31.496C85.0329 31.8873 84.892 32.3375 84.8733 32.8008C84.8547 33.2642 84.9591 33.7243 85.1759 34.1342C85.3928 34.5442 85.7143 34.8894 86.1078 35.1348L91.9461 39.0671C92.3966 39.3623 92.924 39.5184 93.4626 39.516C94.1029 39.5457 94.7289 39.3211 95.2043 38.891C95.6796 38.461 95.9656 37.8605 96 37.2204V29.2468C95.9645 28.593 95.672 27.9798 95.1863 27.5408C94.7005 27.1017 94.061 26.8725 93.4069 26.903ZM94.5161 37.2204C94.4771 37.4645 94.3463 37.6845 94.1504 37.8353C93.9546 37.9862 93.7086 38.0566 93.4626 38.0321C93.2185 38.0342 92.9793 37.9642 92.7748 37.8311L86.9365 33.8988C86.7659 33.7949 86.6236 33.6506 86.5221 33.4786C86.4207 33.3066 86.3632 33.1123 86.3548 32.9127C86.3648 32.6931 86.4327 32.48 86.5517 32.2951C86.6706 32.1101 86.8364 31.96 87.0322 31.8599L92.7518 28.5605C92.9511 28.446 93.1771 28.3861 93.4069 28.3869C93.6666 28.3618 93.926 28.4369 94.1322 28.5967C94.3384 28.7565 94.4757 28.9891 94.5161 29.2468V37.2204Z"/>
<path d="M65.5806 36.5482H64.0968V38.0321H65.5806V36.5482Z"/>
<path d="M69.2903 37.2902H67.8064V38.7741H69.2903V37.2902Z"/>
<path d="M92.2903 47.6773H90.8064V49.1612H92.2903V47.6773Z"/>
<path d="M92.2903 44.7096H90.8064V46.1935H92.2903V44.7096Z"/>
<path d="M79.6774 37.2902H78.1936V38.7741H79.6774V37.2902Z"/>
<path d="M85.6129 48.4193H84.129V49.9031H85.6129V48.4193Z"/>
<path d="M93.0323 34.3224H91.5484V35.8063H93.0323V34.3224Z"/>
<path d="M93.0323 31.3547H91.5484V32.8385H93.0323V31.3547Z"/>
<path d="M90.0645 32.0966H88.5806V33.5805H90.0645V32.0966Z"/>
<path d="M80.4194 24.6772H78.9355V26.1611H80.4194V24.6772Z"/>
<path d="M78.9355 21.7094H77.4516V23.1933H78.9355V21.7094Z"/>
<path d="M76.7097 24.6772H75.2258V26.1611H76.7097V24.6772Z"/>
<path d="M64.0968 26.1611H62.6129V27.645H64.0968V26.1611Z"/>
<path d="M61.129 24.6772H59.6452V26.1611H61.129V24.6772Z"/>
<path d="M61.129 27.645H59.6452V29.1288H61.129V27.645Z"/>
<path d="M70.0323 33.5805H68.5484V35.0644H70.0323V33.5805Z"/>
<path d="M61.871 47.6773H60.3871V49.1612H61.871V47.6773Z"/>
<path d="M55.1936 46.1935H53.7097V47.6773H55.1936V46.1935Z"/>
<path d="M58.9032 38.7741H57.4194V40.2579H58.9032V38.7741Z"/>
<path d="M54.0781 79H52.3848V70.5449H53.8613L57.8105 76.0527H57.8574V70.5449H59.5508V79H58.0859L54.1309 73.4629H54.0781V79Z"/>
<path d="M63.1016 77.8633C63.4805 77.8633 63.8008 77.7539 64.0625 77.5352C64.3281 77.3125 64.4609 77.0332 64.4609 76.6973V76.2402L63.1367 76.3223C62.8164 76.3457 62.5684 76.4258 62.3926 76.5625C62.2207 76.6992 62.1348 76.8789 62.1348 77.1016C62.1348 77.3359 62.2227 77.5215 62.3984 77.6582C62.5742 77.7949 62.8086 77.8633 63.1016 77.8633ZM62.5391 79.0996C61.9336 79.0996 61.4316 78.9219 61.0332 78.5664C60.6348 78.2109 60.4355 77.7539 60.4355 77.1953C60.4355 76.625 60.6465 76.1777 61.0684 75.8535C61.4902 75.5293 62.0938 75.3438 62.8789 75.2969L64.4609 75.2031V74.7871C64.4609 74.498 64.3652 74.2715 64.1738 74.1074C63.9863 73.9434 63.7305 73.8613 63.4062 73.8613C63.0938 73.8613 62.8379 73.9316 62.6387 74.0723C62.4434 74.2129 62.3242 74.4023 62.2812 74.6406H60.7168C60.748 74.0234 61.0117 73.5273 61.5078 73.1523C62.0039 72.7734 62.6621 72.584 63.4824 72.584C64.2871 72.584 64.9316 72.7754 65.416 73.1582C65.9004 73.541 66.1426 74.0488 66.1426 74.6816V79H64.4902V78.0391H64.4551C64.2832 78.3672 64.0215 78.627 63.6699 78.8184C63.3184 79.0059 62.9414 79.0996 62.5391 79.0996Z"/>
<path d="M72.957 75.0566H71.3691C71.3184 74.7168 71.1836 74.4434 70.9648 74.2363C70.75 74.0293 70.4707 73.9258 70.127 73.9258C69.7012 73.9258 69.3652 74.0977 69.1191 74.4414C68.877 74.7812 68.7559 75.252 68.7559 75.8535C68.7559 76.4668 68.877 76.9434 69.1191 77.2832C69.3652 77.623 69.7031 77.793 70.1328 77.793C70.4727 77.793 70.75 77.6973 70.9648 77.5059C71.1797 77.3105 71.3145 77.041 71.3691 76.6973H72.9629C72.9199 77.4395 72.6406 78.0312 72.125 78.4727C71.6094 78.9141 70.9395 79.1348 70.1152 79.1348C69.1621 79.1348 68.4082 78.8438 67.8535 78.2617C67.2988 77.6758 67.0215 76.873 67.0215 75.8535C67.0215 74.8496 67.2988 74.0547 67.8535 73.4688C68.4121 72.8789 69.1621 72.584 70.1035 72.584C70.9395 72.584 71.6133 72.8145 72.125 73.2754C72.6406 73.7363 72.918 74.3301 72.957 75.0566Z"/>
<path d="M73.8301 79V70.5449H75.5117V73.8379H75.5469C75.7148 73.4395 75.9668 73.1348 76.3027 72.9238C76.6426 72.709 77.0488 72.6016 77.5215 72.6016C78.2129 72.6016 78.75 72.8125 79.1328 73.2344C79.5195 73.6523 79.7129 74.2266 79.7129 74.957V79H78.002V75.3203C78.002 74.9102 77.9004 74.5918 77.6973 74.3652C77.498 74.1348 77.207 74.0195 76.8242 74.0195C76.4258 74.0195 76.1113 74.1484 75.8809 74.4062C75.6543 74.6602 75.541 74.9961 75.541 75.4141V79H73.8301Z"/>
<path d="M85.9648 78.2676C85.4062 78.8457 84.6484 79.1348 83.6914 79.1348C82.7344 79.1348 81.9766 78.8438 81.418 78.2617C80.8594 77.6797 80.5801 76.877 80.5801 75.8535C80.5801 74.8418 80.8613 74.0449 81.4238 73.4629C81.9902 72.877 82.7461 72.584 83.6914 72.584C84.6406 72.584 85.3965 72.877 85.959 73.4629C86.5215 74.0449 86.8027 74.8418 86.8027 75.8535C86.8027 76.8809 86.5234 77.6855 85.9648 78.2676ZM83.6914 77.8281C84.1133 77.8281 84.4473 77.6562 84.6934 77.3125C84.9395 76.9688 85.0625 76.4844 85.0625 75.8594C85.0625 75.2422 84.9395 74.7598 84.6934 74.4121C84.4473 74.0645 84.1133 73.8906 83.6914 73.8906C83.2695 73.8906 82.9336 74.0645 82.6836 74.4121C82.4375 74.7598 82.3145 75.2422 82.3145 75.8594C82.3145 76.4844 82.4375 76.9688 82.6836 77.3125C82.9297 77.6562 83.2656 77.8281 83.6914 77.8281Z"/>
<path d="M87.582 74.5645C87.582 73.9668 87.8223 73.4883 88.3027 73.1289C88.7832 72.7656 89.4258 72.584 90.2305 72.584C91.0156 72.584 91.6465 72.7676 92.123 73.1348C92.5996 73.502 92.8438 73.9902 92.8555 74.5996H91.2793C91.2598 74.3457 91.1543 74.1465 90.9629 74.002C90.7754 73.8574 90.5234 73.7852 90.207 73.7852C89.9102 73.7852 89.6719 73.8477 89.4922 73.9727C89.3164 74.0938 89.2285 74.2559 89.2285 74.459C89.2285 74.7637 89.502 74.9805 90.0488 75.1094L91.25 75.3672C91.8789 75.5078 92.3301 75.7129 92.6035 75.9824C92.8809 76.248 93.0195 76.6152 93.0195 77.084C93.0195 77.7012 92.7617 78.1973 92.2461 78.5723C91.7305 78.9473 91.0566 79.1348 90.2246 79.1348C89.3965 79.1348 88.7344 78.9512 88.2383 78.584C87.7422 78.2168 87.4707 77.7227 87.4238 77.1016H89.0938C89.1367 77.3672 89.2578 77.5723 89.457 77.7168C89.6602 77.8613 89.9316 77.9336 90.2715 77.9336C90.5957 77.9336 90.8496 77.875 91.0332 77.7578C91.2207 77.6367 91.3145 77.4727 91.3145 77.2656C91.3145 77.1055 91.2559 76.9785 91.1387 76.8848C91.0215 76.7871 90.8223 76.7051 90.541 76.6387L89.3809 76.3809C88.1816 76.1074 87.582 75.502 87.582 74.5645Z"/>
</mask>
<path d="M11 36C11 22.1929 22.1929 11 36 11H110C123.807 11 135 22.1929 135 36V73C135 86.8071 123.807 98 110 98H36C22.1929 98 11 86.8071 11 73V36Z" fill="#2E3235"/>
<path d="M95.2581 51.387V43.5573C95.2124 42.8379 94.8845 42.1656 94.3456 41.6866C93.8068 41.2077 93.1007 40.9609 92.3808 40.9999C91.838 40.9975 91.3037 41.1358 90.8302 41.4013L86.3645 43.9313L85.1818 41.8435C84.7987 41.1368 84.1547 40.6078 83.3871 40.3692V35.3982C83.342 34.6784 83.0143 34.0055 82.4754 33.5261C81.9365 33.0467 81.2301 32.7996 80.5099 32.8385C79.967 32.8362 79.4328 32.9745 78.9592 33.2399L73 36.6165V32.5358C72.9492 31.7834 72.6036 31.0814 72.0382 30.5824C71.4727 30.0834 70.7332 29.8276 69.9803 29.8708C69.4109 29.8686 68.8505 30.0124 68.3525 30.2885L61.3138 34.2482C60.9995 34.4262 60.7145 34.6514 60.4687 34.916C60.0093 34.5359 59.4327 34.3262 58.8365 34.3224C58.3972 34.3293 57.9664 34.4436 57.5815 34.6553C57.1966 34.867 56.8694 35.1697 56.6285 35.537L52.4914 41.2143C52.3277 41.2793 52.1706 41.3601 52.0225 41.4554C51.6198 41.7338 51.2924 42.1077 51.0697 42.5437C50.847 42.9797 50.7359 43.4641 50.7464 43.9535L50.7419 51.387C50.5452 51.387 50.3564 51.4652 50.2173 51.6043C50.0782 51.7435 50 51.9322 50 52.129V55.8387C50.0026 58.0024 50.8632 60.0768 52.3932 61.6068C53.9232 63.1368 55.9976 63.9974 58.1613 64H87.8387C90.0024 63.9974 92.0768 63.1368 93.6068 61.6068C95.1368 60.0768 95.9974 58.0024 96 55.8387V52.129C96 51.9322 95.9218 51.7435 95.7827 51.6043C95.6436 51.4652 95.4548 51.387 95.2581 51.387ZM91.5617 42.6922C91.8113 42.5537 92.0924 42.4819 92.3779 42.4838C92.7037 42.4507 93.0298 42.5434 93.2894 42.743C93.549 42.9426 93.7225 43.234 93.7742 43.5573V51.387H88.9887C89.2192 50.9282 89.3335 50.4199 89.3218 49.9066C89.31 49.3933 89.1725 48.8908 88.9212 48.443L87.0968 45.2223L91.5617 42.6922ZM94.5161 55.0967H51.4839V52.8709H94.5161V55.0967ZM57.4194 50.0575C57.4168 49.7519 57.5029 49.4522 57.6672 49.1946L62.1188 42.4578C62.2439 42.2472 62.4198 42.0713 62.6304 41.9462C62.841 41.8211 63.0796 41.7509 63.3244 41.7418C63.5921 41.7547 63.8515 41.8388 64.0758 41.9854C64.3001 42.132 64.4813 42.3358 64.6005 42.5758L65.1199 43.4972C64.8678 43.9326 64.6588 44.3916 64.4959 44.8676L64.3038 45.4515H64.0968C63.9 45.4515 63.7113 45.5297 63.5721 45.6688C63.433 45.808 63.3548 45.9967 63.3548 46.1935V49.1612C63.3548 49.358 63.433 49.5467 63.5721 49.6858C63.7113 49.825 63.9 49.9031 64.0968 49.9031V51.387H58.438C58.1309 51.3367 57.8546 51.1711 57.6653 50.9241C57.476 50.677 57.3881 50.3671 57.4194 50.0575ZM71.9242 40.9999H74.0758C75.4071 41 76.7047 41.419 77.7847 42.1974C78.8647 42.9758 79.6725 44.0743 80.0936 45.3373L80.1315 45.4515H65.8685L65.9064 45.3373C66.3275 44.0743 67.1353 42.9758 68.2153 42.1974C69.2953 41.419 70.5929 41 71.9242 40.9999ZM65.5806 51.387V49.9031H80.4194V51.387H65.5806ZM81.1613 46.9354V48.4193H64.8387V46.9354H81.1613ZM83.8909 42.5758L87.6302 49.1746C87.7687 49.4242 87.8406 49.7052 87.8387 49.9907C87.8718 50.3165 87.779 50.6426 87.5794 50.9022C87.3798 51.1618 87.0885 51.3353 86.7651 51.387H81.9032V49.9031C82.1 49.9031 82.2887 49.825 82.4279 49.6858C82.567 49.5467 82.6452 49.358 82.6452 49.1612V46.1935C82.6452 45.9967 82.567 45.808 82.4279 45.6688C82.2887 45.5297 82.1 45.4515 81.9032 45.4515H81.6962L81.5011 44.8683C81.3243 44.3457 81.092 43.8435 80.8081 43.3704L81.4113 42.4578C81.5362 42.2475 81.7118 42.0718 81.922 41.9467C82.1322 41.8217 82.3703 41.7512 82.6147 41.7418C82.8824 41.7547 83.1418 41.8388 83.3661 41.9854C83.5904 42.132 83.7716 42.3358 83.8909 42.5758ZM79.6908 34.5309C79.9404 34.3924 80.2215 34.3206 80.5069 34.3224C80.8327 34.2893 81.1588 34.3821 81.4184 34.5817C81.678 34.7813 81.8515 35.0726 81.9032 35.396V40.3544C81.1901 40.5591 80.5755 41.0157 80.1738 41.6394L79.8674 42.1031C79.1391 41.2878 78.2466 40.6358 77.2484 40.1899C76.2502 39.744 75.169 39.5143 74.0758 39.516H72.2625C72.2807 39.2542 72.3667 39.0016 72.5121 38.7832C72.6576 38.5648 72.8574 38.388 73.092 38.2703L79.6908 34.5309ZM62.0409 35.5422L69.0804 31.5824C69.3558 31.4305 69.6658 31.3521 69.9803 31.3547C70.3387 31.3179 70.6975 31.4198 70.9831 31.6393C71.2687 31.8588 71.4594 32.1794 71.5161 32.5351V37.6611C71.0439 38.1757 70.7796 38.8473 70.7742 39.5457C70.7742 39.565 70.7794 39.5835 70.7794 39.6028C68.9545 39.866 67.2849 40.7759 66.0748 42.1669L65.8915 41.8427C65.6792 41.4477 65.3818 41.1047 65.0207 40.8388C64.6596 40.5728 64.2439 40.3903 63.8037 40.3047L61.3917 36.1253C61.5607 35.8839 61.7828 35.6844 62.0409 35.5422ZM57.84 36.388C57.9445 36.2165 58.0898 36.0736 58.2631 35.972C58.4363 35.8705 58.6321 35.8136 58.8327 35.8063C59.0524 35.8162 59.2655 35.8842 59.4504 36.0031C59.6353 36.1221 59.7855 36.2879 59.8855 36.4837L62.2056 40.505C61.666 40.7498 61.2073 41.1433 60.8835 41.6394L59.548 43.6634L55.0407 41.3634C54.8354 41.2603 54.6201 41.1783 54.3982 41.1186L57.84 36.388ZM52.2303 43.9558C52.2184 43.7113 52.268 43.4678 52.3745 43.2474C52.481 43.0271 52.6411 42.837 52.8401 42.6945C53.0706 42.5581 53.3332 42.4854 53.601 42.484C53.8688 42.4826 54.1321 42.5524 54.3641 42.6863L58.7222 44.9121L56.4296 48.3792C56.1421 48.8221 55.974 49.3319 55.9419 49.859C55.9098 50.3861 56.0147 50.9125 56.2464 51.387H52.2258L52.2303 43.9558ZM87.8387 62.5161H58.1613C56.5197 62.5137 54.9364 61.9075 53.7131 60.8129C52.4897 59.7183 51.7118 58.2118 51.5276 56.5806H94.4724C94.2882 58.2118 93.5103 59.7183 92.2869 60.8129C91.0636 61.9075 89.4803 62.5137 87.8387 62.5161ZM59.2742 32.8385C59.7644 32.8397 60.2462 32.7117 60.6713 32.4676L66.3901 29.1682C66.802 28.9551 67.1502 28.6368 67.3992 28.2455C67.6482 27.8543 67.7892 27.4041 67.8078 26.9407C67.8264 26.4773 67.722 26.0173 67.5052 25.6073C67.2884 25.1974 66.9669 24.8521 66.5734 24.6067L60.7351 20.6744C60.2835 20.3786 59.7547 20.2225 59.2148 20.2256C58.5745 20.1959 57.9485 20.4205 57.4731 20.8505C56.9978 21.2806 56.7118 21.8811 56.6774 22.5211V30.4948C56.7129 31.1492 57.0059 31.763 57.4925 32.2022C57.979 32.6413 58.6195 32.8701 59.2742 32.8385ZM58.1613 22.5211C58.2004 22.277 58.3312 22.0571 58.527 21.9062C58.7228 21.7554 58.9689 21.685 59.2148 21.7094C59.4589 21.7074 59.6981 21.7773 59.9026 21.9105L65.7409 25.8428C65.912 25.947 66.0547 26.0919 66.1561 26.2646C66.2576 26.4372 66.3148 26.6324 66.3226 26.8325C66.3126 27.0522 66.2447 27.2653 66.1257 27.4502C66.0068 27.6351 65.841 27.7853 65.6452 27.8854L59.9256 31.1848C59.7271 31.2974 59.5024 31.3559 59.2742 31.3547C59.0139 31.3808 58.7536 31.3062 58.5466 31.1462C58.3396 30.9863 58.2017 30.7532 58.1613 30.4948V22.5211ZM73.8117 29.1288H81.7853C82.439 29.0933 83.0523 28.8008 83.4913 28.3151C83.9303 27.8294 84.1596 27.1898 84.129 26.5358C84.1302 26.0456 84.0022 25.5637 83.7581 25.1387L80.4609 19.4198C80.2478 19.0079 79.9295 18.6597 79.5383 18.4107C79.147 18.1617 78.6969 18.0207 78.2335 18.0021C77.7701 17.9835 77.31 18.0879 76.9001 18.3047C76.4901 18.5216 76.1449 18.8431 75.8995 19.2366L71.9672 25.0749C71.6713 25.5252 71.5144 26.0526 71.5161 26.5914C71.4864 27.2317 71.7111 27.8578 72.1411 28.3331C72.5711 28.8084 73.1716 29.0945 73.8117 29.1288ZM73.2011 25.9036L77.1333 20.0653C77.2375 19.8942 77.3824 19.7516 77.5551 19.6501C77.7278 19.5486 77.9229 19.4914 78.1231 19.4836C78.3427 19.4936 78.5558 19.5615 78.7407 19.6805C78.9257 19.7994 79.0758 19.9652 79.1759 20.161L82.4753 25.8806C82.5885 26.0803 82.6471 26.3062 82.6452 26.5358C82.6703 26.7954 82.5952 27.0549 82.4354 27.261C82.2755 27.4672 82.043 27.6046 81.7853 27.645H73.8117C73.5676 27.6059 73.3476 27.4751 73.1968 27.2793C73.0459 27.0834 72.9755 26.8374 73 26.5914C72.998 26.3474 73.0679 26.1081 73.2011 25.9036ZM93.4069 26.903C92.9168 26.9019 92.4349 27.0298 92.0099 27.274L86.291 30.5734C85.8791 30.7865 85.531 31.1048 85.2819 31.496C85.0329 31.8873 84.892 32.3375 84.8733 32.8008C84.8547 33.2642 84.9591 33.7243 85.1759 34.1342C85.3928 34.5442 85.7143 34.8894 86.1078 35.1348L91.9461 39.0671C92.3966 39.3623 92.924 39.5184 93.4626 39.516C94.1029 39.5457 94.7289 39.3211 95.2043 38.891C95.6796 38.461 95.9656 37.8605 96 37.2204V29.2468C95.9645 28.593 95.672 27.9798 95.1863 27.5408C94.7005 27.1017 94.061 26.8725 93.4069 26.903ZM94.5161 37.2204C94.4771 37.4645 94.3463 37.6845 94.1504 37.8353C93.9546 37.9862 93.7086 38.0566 93.4626 38.0321C93.2185 38.0342 92.9793 37.9642 92.7748 37.8311L86.9365 33.8988C86.7659 33.7949 86.6236 33.6506 86.5221 33.4786C86.4207 33.3066 86.3632 33.1123 86.3548 32.9127C86.3648 32.6931 86.4327 32.48 86.5517 32.2951C86.6706 32.1101 86.8364 31.96 87.0322 31.8599L92.7518 28.5605C92.9511 28.446 93.1771 28.3861 93.4069 28.3869C93.6666 28.3618 93.926 28.4369 94.1322 28.5967C94.3384 28.7565 94.4757 28.9891 94.5161 29.2468V37.2204Z" fill="#F83103"/>
<path d="M65.5806 36.5482H64.0968V38.0321H65.5806V36.5482Z" fill="#F83103"/>
<path d="M69.2903 37.2902H67.8064V38.7741H69.2903V37.2902Z" fill="#F83103"/>
<path d="M92.2903 47.6773H90.8064V49.1612H92.2903V47.6773Z" fill="#F83103"/>
<path d="M92.2903 44.7096H90.8064V46.1935H92.2903V44.7096Z" fill="#F83103"/>
<path d="M79.6774 37.2902H78.1936V38.7741H79.6774V37.2902Z" fill="#F83103"/>
<path d="M85.6129 48.4193H84.129V49.9031H85.6129V48.4193Z" fill="#F83103"/>
<path d="M93.0323 34.3224H91.5484V35.8063H93.0323V34.3224Z" fill="#F83103"/>
<path d="M93.0323 31.3547H91.5484V32.8385H93.0323V31.3547Z" fill="#F83103"/>
<path d="M90.0645 32.0966H88.5806V33.5805H90.0645V32.0966Z" fill="#F83103"/>
<path d="M80.4194 24.6772H78.9355V26.1611H80.4194V24.6772Z" fill="#F83103"/>
<path d="M78.9355 21.7094H77.4516V23.1933H78.9355V21.7094Z" fill="#F83103"/>
<path d="M76.7097 24.6772H75.2258V26.1611H76.7097V24.6772Z" fill="#F83103"/>
<path d="M64.0968 26.1611H62.6129V27.645H64.0968V26.1611Z" fill="#F83103"/>
<path d="M61.129 24.6772H59.6452V26.1611H61.129V24.6772Z" fill="#F83103"/>
<path d="M61.129 27.645H59.6452V29.1288H61.129V27.645Z" fill="#F83103"/>
<path d="M70.0323 33.5805H68.5484V35.0644H70.0323V33.5805Z" fill="#F83103"/>
<path d="M61.871 47.6773H60.3871V49.1612H61.871V47.6773Z" fill="#F83103"/>
<path d="M55.1936 46.1935H53.7097V47.6773H55.1936V46.1935Z" fill="#F83103"/>
<path d="M58.9032 38.7741H57.4194V40.2579H58.9032V38.7741Z" fill="#F83103"/>
<path d="M54.0781 79H52.3848V70.5449H53.8613L57.8105 76.0527H57.8574V70.5449H59.5508V79H58.0859L54.1309 73.4629H54.0781V79Z" fill="#F83103"/>
<path d="M63.1016 77.8633C63.4805 77.8633 63.8008 77.7539 64.0625 77.5352C64.3281 77.3125 64.4609 77.0332 64.4609 76.6973V76.2402L63.1367 76.3223C62.8164 76.3457 62.5684 76.4258 62.3926 76.5625C62.2207 76.6992 62.1348 76.8789 62.1348 77.1016C62.1348 77.3359 62.2227 77.5215 62.3984 77.6582C62.5742 77.7949 62.8086 77.8633 63.1016 77.8633ZM62.5391 79.0996C61.9336 79.0996 61.4316 78.9219 61.0332 78.5664C60.6348 78.2109 60.4355 77.7539 60.4355 77.1953C60.4355 76.625 60.6465 76.1777 61.0684 75.8535C61.4902 75.5293 62.0938 75.3438 62.8789 75.2969L64.4609 75.2031V74.7871C64.4609 74.498 64.3652 74.2715 64.1738 74.1074C63.9863 73.9434 63.7305 73.8613 63.4062 73.8613C63.0938 73.8613 62.8379 73.9316 62.6387 74.0723C62.4434 74.2129 62.3242 74.4023 62.2812 74.6406H60.7168C60.748 74.0234 61.0117 73.5273 61.5078 73.1523C62.0039 72.7734 62.6621 72.584 63.4824 72.584C64.2871 72.584 64.9316 72.7754 65.416 73.1582C65.9004 73.541 66.1426 74.0488 66.1426 74.6816V79H64.4902V78.0391H64.4551C64.2832 78.3672 64.0215 78.627 63.6699 78.8184C63.3184 79.0059 62.9414 79.0996 62.5391 79.0996Z" fill="#F83103"/>
<path d="M72.957 75.0566H71.3691C71.3184 74.7168 71.1836 74.4434 70.9648 74.2363C70.75 74.0293 70.4707 73.9258 70.127 73.9258C69.7012 73.9258 69.3652 74.0977 69.1191 74.4414C68.877 74.7812 68.7559 75.252 68.7559 75.8535C68.7559 76.4668 68.877 76.9434 69.1191 77.2832C69.3652 77.623 69.7031 77.793 70.1328 77.793C70.4727 77.793 70.75 77.6973 70.9648 77.5059C71.1797 77.3105 71.3145 77.041 71.3691 76.6973H72.9629C72.9199 77.4395 72.6406 78.0312 72.125 78.4727C71.6094 78.9141 70.9395 79.1348 70.1152 79.1348C69.1621 79.1348 68.4082 78.8438 67.8535 78.2617C67.2988 77.6758 67.0215 76.873 67.0215 75.8535C67.0215 74.8496 67.2988 74.0547 67.8535 73.4688C68.4121 72.8789 69.1621 72.584 70.1035 72.584C70.9395 72.584 71.6133 72.8145 72.125 73.2754C72.6406 73.7363 72.918 74.3301 72.957 75.0566Z" fill="#F83103"/>
<path d="M73.8301 79V70.5449H75.5117V73.8379H75.5469C75.7148 73.4395 75.9668 73.1348 76.3027 72.9238C76.6426 72.709 77.0488 72.6016 77.5215 72.6016C78.2129 72.6016 78.75 72.8125 79.1328 73.2344C79.5195 73.6523 79.7129 74.2266 79.7129 74.957V79H78.002V75.3203C78.002 74.9102 77.9004 74.5918 77.6973 74.3652C77.498 74.1348 77.207 74.0195 76.8242 74.0195C76.4258 74.0195 76.1113 74.1484 75.8809 74.4062C75.6543 74.6602 75.541 74.9961 75.541 75.4141V79H73.8301Z" fill="#F83103"/>
<path d="M85.9648 78.2676C85.4062 78.8457 84.6484 79.1348 83.6914 79.1348C82.7344 79.1348 81.9766 78.8438 81.418 78.2617C80.8594 77.6797 80.5801 76.877 80.5801 75.8535C80.5801 74.8418 80.8613 74.0449 81.4238 73.4629C81.9902 72.877 82.7461 72.584 83.6914 72.584C84.6406 72.584 85.3965 72.877 85.959 73.4629C86.5215 74.0449 86.8027 74.8418 86.8027 75.8535C86.8027 76.8809 86.5234 77.6855 85.9648 78.2676ZM83.6914 77.8281C84.1133 77.8281 84.4473 77.6562 84.6934 77.3125C84.9395 76.9688 85.0625 76.4844 85.0625 75.8594C85.0625 75.2422 84.9395 74.7598 84.6934 74.4121C84.4473 74.0645 84.1133 73.8906 83.6914 73.8906C83.2695 73.8906 82.9336 74.0645 82.6836 74.4121C82.4375 74.7598 82.3145 75.2422 82.3145 75.8594C82.3145 76.4844 82.4375 76.9688 82.6836 77.3125C82.9297 77.6562 83.2656 77.8281 83.6914 77.8281Z" fill="#F83103"/>
<path d="M87.582 74.5645C87.582 73.9668 87.8223 73.4883 88.3027 73.1289C88.7832 72.7656 89.4258 72.584 90.2305 72.584C91.0156 72.584 91.6465 72.7676 92.123 73.1348C92.5996 73.502 92.8438 73.9902 92.8555 74.5996H91.2793C91.2598 74.3457 91.1543 74.1465 90.9629 74.002C90.7754 73.8574 90.5234 73.7852 90.207 73.7852C89.9102 73.7852 89.6719 73.8477 89.4922 73.9727C89.3164 74.0938 89.2285 74.2559 89.2285 74.459C89.2285 74.7637 89.502 74.9805 90.0488 75.1094L91.25 75.3672C91.8789 75.5078 92.3301 75.7129 92.6035 75.9824C92.8809 76.248 93.0195 76.6152 93.0195 77.084C93.0195 77.7012 92.7617 78.1973 92.2461 78.5723C91.7305 78.9473 91.0566 79.1348 90.2246 79.1348C89.3965 79.1348 88.7344 78.9512 88.2383 78.584C87.7422 78.2168 87.4707 77.7227 87.4238 77.1016H89.0938C89.1367 77.3672 89.2578 77.5723 89.457 77.7168C89.6602 77.8613 89.9316 77.9336 90.2715 77.9336C90.5957 77.9336 90.8496 77.875 91.0332 77.7578C91.2207 77.6367 91.3145 77.4727 91.3145 77.2656C91.3145 77.1055 91.2559 76.9785 91.1387 76.8848C91.0215 76.7871 90.8223 76.7051 90.541 76.6387L89.3809 76.3809C88.1816 76.1074 87.582 75.502 87.582 74.5645Z" fill="#F83103"/>
<path d="M11 36C11 22.1929 22.1929 11 36 11H110C123.807 11 135 22.1929 135 36V73C135 86.8071 123.807 98 110 98H36C22.1929 98 11 86.8071 11 73V36Z" stroke="#F83103" stroke-width="2" mask="url(#path-1-outside-1_356_195)"/>
<path d="M95.2581 51.387V43.5573C95.2124 42.8379 94.8845 42.1656 94.3456 41.6866C93.8068 41.2077 93.1007 40.9609 92.3808 40.9999C91.838 40.9975 91.3037 41.1358 90.8302 41.4013L86.3645 43.9313L85.1818 41.8435C84.7987 41.1368 84.1547 40.6078 83.3871 40.3692V35.3982C83.342 34.6784 83.0143 34.0055 82.4754 33.5261C81.9365 33.0467 81.2301 32.7996 80.5099 32.8385C79.967 32.8362 79.4328 32.9745 78.9592 33.2399L73 36.6165V32.5358C72.9492 31.7834 72.6036 31.0814 72.0382 30.5824C71.4727 30.0834 70.7332 29.8276 69.9803 29.8708C69.4109 29.8686 68.8505 30.0124 68.3525 30.2885L61.3138 34.2482C60.9995 34.4262 60.7145 34.6514 60.4687 34.916C60.0093 34.5359 59.4327 34.3262 58.8365 34.3224C58.3972 34.3293 57.9664 34.4436 57.5815 34.6553C57.1966 34.867 56.8694 35.1697 56.6285 35.537L52.4914 41.2143C52.3277 41.2793 52.1706 41.3601 52.0225 41.4554C51.6198 41.7338 51.2924 42.1077 51.0697 42.5437C50.847 42.9797 50.7359 43.4641 50.7464 43.9535L50.7419 51.387C50.5452 51.387 50.3564 51.4652 50.2173 51.6043C50.0782 51.7435 50 51.9322 50 52.129V55.8387C50.0026 58.0024 50.8632 60.0768 52.3932 61.6068C53.9232 63.1368 55.9976 63.9974 58.1613 64H87.8387C90.0024 63.9974 92.0768 63.1368 93.6068 61.6068C95.1368 60.0768 95.9974 58.0024 96 55.8387V52.129C96 51.9322 95.9218 51.7435 95.7827 51.6043C95.6436 51.4652 95.4548 51.387 95.2581 51.387ZM91.5617 42.6922C91.8113 42.5537 92.0924 42.4819 92.3779 42.4838C92.7037 42.4507 93.0298 42.5434 93.2894 42.743C93.549 42.9426 93.7225 43.234 93.7742 43.5573V51.387H88.9887C89.2192 50.9282 89.3335 50.4199 89.3218 49.9066C89.31 49.3933 89.1725 48.8908 88.9212 48.443L87.0968 45.2223L91.5617 42.6922ZM94.5161 55.0967H51.4839V52.8709H94.5161V55.0967ZM57.4194 50.0575C57.4168 49.7519 57.5029 49.4522 57.6672 49.1946L62.1188 42.4578C62.2439 42.2472 62.4198 42.0713 62.6304 41.9462C62.841 41.8211 63.0796 41.7509 63.3244 41.7418C63.5921 41.7547 63.8515 41.8388 64.0758 41.9854C64.3001 42.132 64.4813 42.3358 64.6005 42.5758L65.1199 43.4972C64.8678 43.9326 64.6588 44.3916 64.4959 44.8676L64.3038 45.4515H64.0968C63.9 45.4515 63.7113 45.5297 63.5721 45.6688C63.433 45.808 63.3548 45.9967 63.3548 46.1935V49.1612C63.3548 49.358 63.433 49.5467 63.5721 49.6858C63.7113 49.825 63.9 49.9031 64.0968 49.9031V51.387H58.438C58.1309 51.3367 57.8546 51.1711 57.6653 50.9241C57.476 50.677 57.3881 50.3671 57.4194 50.0575ZM71.9242 40.9999H74.0758C75.4071 41 76.7047 41.419 77.7847 42.1974C78.8647 42.9758 79.6725 44.0743 80.0936 45.3373L80.1315 45.4515H65.8685L65.9064 45.3373C66.3275 44.0743 67.1353 42.9758 68.2153 42.1974C69.2953 41.419 70.5929 41 71.9242 40.9999ZM65.5806 51.387V49.9031H80.4194V51.387H65.5806ZM81.1613 46.9354V48.4193H64.8387V46.9354H81.1613ZM83.8909 42.5758L87.6302 49.1746C87.7687 49.4242 87.8406 49.7052 87.8387 49.9907C87.8718 50.3165 87.779 50.6426 87.5794 50.9022C87.3798 51.1618 87.0885 51.3353 86.7651 51.387H81.9032V49.9031C82.1 49.9031 82.2887 49.825 82.4279 49.6858C82.567 49.5467 82.6452 49.358 82.6452 49.1612V46.1935C82.6452 45.9967 82.567 45.808 82.4279 45.6688C82.2887 45.5297 82.1 45.4515 81.9032 45.4515H81.6962L81.5011 44.8683C81.3243 44.3457 81.092 43.8435 80.8081 43.3704L81.4113 42.4578C81.5362 42.2475 81.7118 42.0718 81.922 41.9467C82.1322 41.8217 82.3703 41.7512 82.6147 41.7418C82.8824 41.7547 83.1418 41.8388 83.3661 41.9854C83.5904 42.132 83.7716 42.3358 83.8909 42.5758ZM79.6908 34.5309C79.9404 34.3924 80.2215 34.3206 80.5069 34.3224C80.8327 34.2893 81.1588 34.3821 81.4184 34.5817C81.678 34.7813 81.8515 35.0726 81.9032 35.396V40.3544C81.1901 40.5591 80.5755 41.0157 80.1738 41.6394L79.8674 42.1031C79.1391 41.2878 78.2466 40.6358 77.2484 40.1899C76.2502 39.744 75.169 39.5143 74.0758 39.516H72.2625C72.2807 39.2542 72.3667 39.0016 72.5121 38.7832C72.6576 38.5648 72.8574 38.388 73.092 38.2703L79.6908 34.5309ZM62.0409 35.5422L69.0804 31.5824C69.3558 31.4305 69.6658 31.3521 69.9803 31.3547C70.3387 31.3179 70.6975 31.4198 70.9831 31.6393C71.2687 31.8588 71.4594 32.1794 71.5161 32.5351V37.6611C71.0439 38.1757 70.7796 38.8473 70.7742 39.5457C70.7742 39.565 70.7794 39.5835 70.7794 39.6028C68.9545 39.866 67.2849 40.7759 66.0748 42.1669L65.8915 41.8427C65.6792 41.4477 65.3818 41.1047 65.0207 40.8388C64.6596 40.5728 64.2439 40.3903 63.8037 40.3047L61.3917 36.1253C61.5607 35.8839 61.7828 35.6844 62.0409 35.5422ZM57.84 36.388C57.9445 36.2165 58.0898 36.0736 58.2631 35.972C58.4363 35.8705 58.6321 35.8136 58.8327 35.8063C59.0524 35.8162 59.2655 35.8842 59.4504 36.0031C59.6353 36.1221 59.7855 36.2879 59.8855 36.4837L62.2056 40.505C61.666 40.7498 61.2073 41.1433 60.8835 41.6394L59.548 43.6634L55.0407 41.3634C54.8354 41.2603 54.6201 41.1783 54.3982 41.1186L57.84 36.388ZM52.2303 43.9558C52.2184 43.7113 52.268 43.4678 52.3745 43.2474C52.481 43.0271 52.6411 42.837 52.8401 42.6945C53.0706 42.5581 53.3332 42.4854 53.601 42.484C53.8688 42.4826 54.1321 42.5524 54.3641 42.6863L58.7222 44.9121L56.4296 48.3792C56.1421 48.8221 55.974 49.3319 55.9419 49.859C55.9098 50.3861 56.0147 50.9125 56.2464 51.387H52.2258L52.2303 43.9558ZM87.8387 62.5161H58.1613C56.5197 62.5137 54.9364 61.9075 53.7131 60.8129C52.4897 59.7183 51.7118 58.2118 51.5276 56.5806H94.4724C94.2882 58.2118 93.5103 59.7183 92.2869 60.8129C91.0636 61.9075 89.4803 62.5137 87.8387 62.5161ZM59.2742 32.8385C59.7644 32.8397 60.2462 32.7117 60.6713 32.4676L66.3901 29.1682C66.802 28.9551 67.1502 28.6368 67.3992 28.2455C67.6482 27.8543 67.7892 27.4041 67.8078 26.9407C67.8264 26.4773 67.722 26.0173 67.5052 25.6073C67.2884 25.1974 66.9669 24.8521 66.5734 24.6067L60.7351 20.6744C60.2835 20.3786 59.7547 20.2225 59.2148 20.2256C58.5745 20.1959 57.9485 20.4205 57.4731 20.8505C56.9978 21.2806 56.7118 21.8811 56.6774 22.5211V30.4948C56.7129 31.1492 57.0059 31.763 57.4925 32.2022C57.979 32.6413 58.6195 32.8701 59.2742 32.8385ZM58.1613 22.5211C58.2004 22.277 58.3312 22.0571 58.527 21.9062C58.7228 21.7554 58.9689 21.685 59.2148 21.7094C59.4589 21.7074 59.6981 21.7773 59.9026 21.9105L65.7409 25.8428C65.912 25.947 66.0547 26.0919 66.1561 26.2646C66.2576 26.4372 66.3148 26.6324 66.3226 26.8325C66.3126 27.0522 66.2447 27.2653 66.1257 27.4502C66.0068 27.6351 65.841 27.7853 65.6452 27.8854L59.9256 31.1848C59.7271 31.2974 59.5024 31.3559 59.2742 31.3547C59.0139 31.3808 58.7536 31.3062 58.5466 31.1462C58.3396 30.9863 58.2017 30.7532 58.1613 30.4948V22.5211ZM73.8117 29.1288H81.7853C82.439 29.0933 83.0523 28.8008 83.4913 28.3151C83.9303 27.8294 84.1596 27.1898 84.129 26.5358C84.1302 26.0456 84.0022 25.5637 83.7581 25.1387L80.4609 19.4198C80.2478 19.0079 79.9295 18.6597 79.5383 18.4107C79.147 18.1617 78.6969 18.0207 78.2335 18.0021C77.7701 17.9835 77.31 18.0879 76.9001 18.3047C76.4901 18.5216 76.1449 18.8431 75.8995 19.2366L71.9672 25.0749C71.6713 25.5252 71.5144 26.0526 71.5161 26.5914C71.4864 27.2317 71.7111 27.8578 72.1411 28.3331C72.5711 28.8084 73.1716 29.0945 73.8117 29.1288ZM73.2011 25.9036L77.1333 20.0653C77.2375 19.8942 77.3824 19.7516 77.5551 19.6501C77.7278 19.5486 77.9229 19.4914 78.1231 19.4836C78.3427 19.4936 78.5558 19.5615 78.7407 19.6805C78.9257 19.7994 79.0758 19.9652 79.1759 20.161L82.4753 25.8806C82.5885 26.0803 82.6471 26.3062 82.6452 26.5358C82.6703 26.7954 82.5952 27.0549 82.4354 27.261C82.2755 27.4672 82.043 27.6046 81.7853 27.645H73.8117C73.5676 27.6059 73.3476 27.4751 73.1968 27.2793C73.0459 27.0834 72.9755 26.8374 73 26.5914C72.998 26.3474 73.0679 26.1081 73.2011 25.9036ZM93.4069 26.903C92.9168 26.9019 92.4349 27.0298 92.0099 27.274L86.291 30.5734C85.8791 30.7865 85.531 31.1048 85.2819 31.496C85.0329 31.8873 84.892 32.3375 84.8733 32.8008C84.8547 33.2642 84.9591 33.7243 85.1759 34.1342C85.3928 34.5442 85.7143 34.8894 86.1078 35.1348L91.9461 39.0671C92.3966 39.3623 92.924 39.5184 93.4626 39.516C94.1029 39.5457 94.7289 39.3211 95.2043 38.891C95.6796 38.461 95.9656 37.8605 96 37.2204V29.2468C95.9645 28.593 95.672 27.9798 95.1863 27.5408C94.7005 27.1017 94.061 26.8725 93.4069 26.903ZM94.5161 37.2204C94.4771 37.4645 94.3463 37.6845 94.1504 37.8353C93.9546 37.9862 93.7086 38.0566 93.4626 38.0321C93.2185 38.0342 92.9793 37.9642 92.7748 37.8311L86.9365 33.8988C86.7659 33.7949 86.6236 33.6506 86.5221 33.4786C86.4207 33.3066 86.3632 33.1123 86.3548 32.9127C86.3648 32.6931 86.4327 32.48 86.5517 32.2951C86.6706 32.1101 86.8364 31.96 87.0322 31.8599L92.7518 28.5605C92.9511 28.446 93.1771 28.3861 93.4069 28.3869C93.6666 28.3618 93.926 28.4369 94.1322 28.5967C94.3384 28.7565 94.4757 28.9891 94.5161 29.2468V37.2204Z" stroke="#F83103" stroke-width="2" mask="url(#path-1-outside-1_356_195)"/>
<path d="M65.5806 36.5482H64.0968V38.0321H65.5806V36.5482Z" stroke="#F83103" stroke-width="2" mask="url(#path-1-outside-1_356_195)"/>
<path d="M69.2903 37.2902H67.8064V38.7741H69.2903V37.2902Z" stroke="#F83103" stroke-width="2" mask="url(#path-1-outside-1_356_195)"/>
<path d="M92.2903 47.6773H90.8064V49.1612H92.2903V47.6773Z" stroke="#F83103" stroke-width="2" mask="url(#path-1-outside-1_356_195)"/>
<path d="M92.2903 44.7096H90.8064V46.1935H92.2903V44.7096Z" stroke="#F83103" stroke-width="2" mask="url(#path-1-outside-1_356_195)"/>
<path d="M79.6774 37.2902H78.1936V38.7741H79.6774V37.2902Z" stroke="#F83103" stroke-width="2" mask="url(#path-1-outside-1_356_195)"/>
<path d="M85.6129 48.4193H84.129V49.9031H85.6129V48.4193Z" stroke="#F83103" stroke-width="2" mask="url(#path-1-outside-1_356_195)"/>
<path d="M93.0323 34.3224H91.5484V35.8063H93.0323V34.3224Z" stroke="#F83103" stroke-width="2" mask="url(#path-1-outside-1_356_195)"/>
<path d="M93.0323 31.3547H91.5484V32.8385H93.0323V31.3547Z" stroke="#F83103" stroke-width="2" mask="url(#path-1-outside-1_356_195)"/>
<path d="M90.0645 32.0966H88.5806V33.5805H90.0645V32.0966Z" stroke="#F83103" stroke-width="2" mask="url(#path-1-outside-1_356_195)"/>
<path d="M80.4194 24.6772H78.9355V26.1611H80.4194V24.6772Z" stroke="#F83103" stroke-width="2" mask="url(#path-1-outside-1_356_195)"/>
<path d="M78.9355 21.7094H77.4516V23.1933H78.9355V21.7094Z" stroke="#F83103" stroke-width="2" mask="url(#path-1-outside-1_356_195)"/>
<path d="M76.7097 24.6772H75.2258V26.1611H76.7097V24.6772Z" stroke="#F83103" stroke-width="2" mask="url(#path-1-outside-1_356_195)"/>
<path d="M64.0968 26.1611H62.6129V27.645H64.0968V26.1611Z" stroke="#F83103" stroke-width="2" mask="url(#path-1-outside-1_356_195)"/>
<path d="M61.129 24.6772H59.6452V26.1611H61.129V24.6772Z" stroke="#F83103" stroke-width="2" mask="url(#path-1-outside-1_356_195)"/>
<path d="M61.129 27.645H59.6452V29.1288H61.129V27.645Z" stroke="#F83103" stroke-width="2" mask="url(#path-1-outside-1_356_195)"/>
<path d="M70.0323 33.5805H68.5484V35.0644H70.0323V33.5805Z" stroke="#F83103" stroke-width="2" mask="url(#path-1-outside-1_356_195)"/>
<path d="M61.871 47.6773H60.3871V49.1612H61.871V47.6773Z" stroke="#F83103" stroke-width="2" mask="url(#path-1-outside-1_356_195)"/>
<path d="M55.1936 46.1935H53.7097V47.6773H55.1936V46.1935Z" stroke="#F83103" stroke-width="2" mask="url(#path-1-outside-1_356_195)"/>
<path d="M58.9032 38.7741H57.4194V40.2579H58.9032V38.7741Z" stroke="#F83103" stroke-width="2" mask="url(#path-1-outside-1_356_195)"/>
<path d="M54.0781 79H52.3848V70.5449H53.8613L57.8105 76.0527H57.8574V70.5449H59.5508V79H58.0859L54.1309 73.4629H54.0781V79Z" stroke="#F83103" stroke-width="2" mask="url(#path-1-outside-1_356_195)"/>
<path d="M63.1016 77.8633C63.4805 77.8633 63.8008 77.7539 64.0625 77.5352C64.3281 77.3125 64.4609 77.0332 64.4609 76.6973V76.2402L63.1367 76.3223C62.8164 76.3457 62.5684 76.4258 62.3926 76.5625C62.2207 76.6992 62.1348 76.8789 62.1348 77.1016C62.1348 77.3359 62.2227 77.5215 62.3984 77.6582C62.5742 77.7949 62.8086 77.8633 63.1016 77.8633ZM62.5391 79.0996C61.9336 79.0996 61.4316 78.9219 61.0332 78.5664C60.6348 78.2109 60.4355 77.7539 60.4355 77.1953C60.4355 76.625 60.6465 76.1777 61.0684 75.8535C61.4902 75.5293 62.0938 75.3438 62.8789 75.2969L64.4609 75.2031V74.7871C64.4609 74.498 64.3652 74.2715 64.1738 74.1074C63.9863 73.9434 63.7305 73.8613 63.4062 73.8613C63.0938 73.8613 62.8379 73.9316 62.6387 74.0723C62.4434 74.2129 62.3242 74.4023 62.2812 74.6406H60.7168C60.748 74.0234 61.0117 73.5273 61.5078 73.1523C62.0039 72.7734 62.6621 72.584 63.4824 72.584C64.2871 72.584 64.9316 72.7754 65.416 73.1582C65.9004 73.541 66.1426 74.0488 66.1426 74.6816V79H64.4902V78.0391H64.4551C64.2832 78.3672 64.0215 78.627 63.6699 78.8184C63.3184 79.0059 62.9414 79.0996 62.5391 79.0996Z" stroke="#F83103" stroke-width="2" mask="url(#path-1-outside-1_356_195)"/>
<path d="M72.957 75.0566H71.3691C71.3184 74.7168 71.1836 74.4434 70.9648 74.2363C70.75 74.0293 70.4707 73.9258 70.127 73.9258C69.7012 73.9258 69.3652 74.0977 69.1191 74.4414C68.877 74.7812 68.7559 75.252 68.7559 75.8535C68.7559 76.4668 68.877 76.9434 69.1191 77.2832C69.3652 77.623 69.7031 77.793 70.1328 77.793C70.4727 77.793 70.75 77.6973 70.9648 77.5059C71.1797 77.3105 71.3145 77.041 71.3691 76.6973H72.9629C72.9199 77.4395 72.6406 78.0312 72.125 78.4727C71.6094 78.9141 70.9395 79.1348 70.1152 79.1348C69.1621 79.1348 68.4082 78.8438 67.8535 78.2617C67.2988 77.6758 67.0215 76.873 67.0215 75.8535C67.0215 74.8496 67.2988 74.0547 67.8535 73.4688C68.4121 72.8789 69.1621 72.584 70.1035 72.584C70.9395 72.584 71.6133 72.8145 72.125 73.2754C72.6406 73.7363 72.918 74.3301 72.957 75.0566Z" stroke="#F83103" stroke-width="2" mask="url(#path-1-outside-1_356_195)"/>
<path d="M73.8301 79V70.5449H75.5117V73.8379H75.5469C75.7148 73.4395 75.9668 73.1348 76.3027 72.9238C76.6426 72.709 77.0488 72.6016 77.5215 72.6016C78.2129 72.6016 78.75 72.8125 79.1328 73.2344C79.5195 73.6523 79.7129 74.2266 79.7129 74.957V79H78.002V75.3203C78.002 74.9102 77.9004 74.5918 77.6973 74.3652C77.498 74.1348 77.207 74.0195 76.8242 74.0195C76.4258 74.0195 76.1113 74.1484 75.8809 74.4062C75.6543 74.6602 75.541 74.9961 75.541 75.4141V79H73.8301Z" stroke="#F83103" stroke-width="2" mask="url(#path-1-outside-1_356_195)"/>
<path d="M85.9648 78.2676C85.4062 78.8457 84.6484 79.1348 83.6914 79.1348C82.7344 79.1348 81.9766 78.8438 81.418 78.2617C80.8594 77.6797 80.5801 76.877 80.5801 75.8535C80.5801 74.8418 80.8613 74.0449 81.4238 73.4629C81.9902 72.877 82.7461 72.584 83.6914 72.584C84.6406 72.584 85.3965 72.877 85.959 73.4629C86.5215 74.0449 86.8027 74.8418 86.8027 75.8535C86.8027 76.8809 86.5234 77.6855 85.9648 78.2676ZM83.6914 77.8281C84.1133 77.8281 84.4473 77.6562 84.6934 77.3125C84.9395 76.9688 85.0625 76.4844 85.0625 75.8594C85.0625 75.2422 84.9395 74.7598 84.6934 74.4121C84.4473 74.0645 84.1133 73.8906 83.6914 73.8906C83.2695 73.8906 82.9336 74.0645 82.6836 74.4121C82.4375 74.7598 82.3145 75.2422 82.3145 75.8594C82.3145 76.4844 82.4375 76.9688 82.6836 77.3125C82.9297 77.6562 83.2656 77.8281 83.6914 77.8281Z" stroke="#F83103" stroke-width="2" mask="url(#path-1-outside-1_356_195)"/>
<path d="M87.582 74.5645C87.582 73.9668 87.8223 73.4883 88.3027 73.1289C88.7832 72.7656 89.4258 72.584 90.2305 72.584C91.0156 72.584 91.6465 72.7676 92.123 73.1348C92.5996 73.502 92.8438 73.9902 92.8555 74.5996H91.2793C91.2598 74.3457 91.1543 74.1465 90.9629 74.002C90.7754 73.8574 90.5234 73.7852 90.207 73.7852C89.9102 73.7852 89.6719 73.8477 89.4922 73.9727C89.3164 74.0938 89.2285 74.2559 89.2285 74.459C89.2285 74.7637 89.502 74.9805 90.0488 75.1094L91.25 75.3672C91.8789 75.5078 92.3301 75.7129 92.6035 75.9824C92.8809 76.248 93.0195 76.6152 93.0195 77.084C93.0195 77.7012 92.7617 78.1973 92.2461 78.5723C91.7305 78.9473 91.0566 79.1348 90.2246 79.1348C89.3965 79.1348 88.7344 78.9512 88.2383 78.584C87.7422 78.2168 87.4707 77.7227 87.4238 77.1016H89.0938C89.1367 77.3672 89.2578 77.5723 89.457 77.7168C89.6602 77.8613 89.9316 77.9336 90.2715 77.9336C90.5957 77.9336 90.8496 77.875 91.0332 77.7578C91.2207 77.6367 91.3145 77.4727 91.3145 77.2656C91.3145 77.1055 91.2559 76.9785 91.1387 76.8848C91.0215 76.7871 90.8223 76.7051 90.541 76.6387L89.3809 76.3809C88.1816 76.1074 87.582 75.502 87.582 74.5645Z" stroke="#F83103" stroke-width="2" mask="url(#path-1-outside-1_356_195)"/>
</g>
<defs>
<filter id="filter0_d_356_195" x="0" y="0" width="146" height="109" filterUnits="userSpaceOnUse" color-interpolation-filters="sRGB">
<feFlood flood-opacity="0" result="BackgroundImageFix"/>
<feColorMatrix in="SourceAlpha" type="matrix" values="0 0 0 0 0 0 0 0 0 0 0 0 0 0 0 0 0 0 127 0" result="hardAlpha"/>
<feOffset/>
<feGaussianBlur stdDeviation="5"/>
<feComposite in2="hardAlpha" operator="out"/>
<feColorMatrix type="matrix" values="0 0 0 0 0.972549 0 0 0 0 0.192157 0 0 0 0 0.0117647 0 0 0 0.25 0"/>
<feBlend mode="normal" in2="BackgroundImageFix" result="effect1_dropShadow_356_195"/>
<feBlend mode="normal" in="SourceGraphic" in2="effect1_dropShadow_356_195" result="shape"/>
</filter>
</defs>
</svg>
