<svg width="146" height="109" viewBox="0 0 146 109" fill="none" xmlns="http://www.w3.org/2000/svg">
<g filter="url(#filter0_d_356_207)">
<mask id="path-1-outside-1_356_207" maskUnits="userSpaceOnUse" x="10" y="10" width="126" height="89" fill="black">
<rect fill="white" x="10" y="10" width="126" height="89"/>
<path d="M11 36C11 22.1929 22.1929 11 36 11H110C123.807 11 135 22.1929 135 36V73C135 86.8071 123.807 98 110 98H36C22.1929 98 11 86.8071 11 73V36Z"/>
<path d="M72.5 27.5333C69.3058 27.5333 66.1834 28.4743 63.5275 30.2373C60.8717 32.0003 58.8017 34.5061 57.5793 37.4378C56.357 40.3696 56.0372 43.5956 56.6603 46.7079C57.2835 49.8202 58.8216 52.6791 61.0802 54.9229C63.3388 57.1668 66.2165 58.6949 69.3493 59.3139C72.4821 59.933 75.7293 59.6153 78.6803 58.4009C81.6314 57.1865 84.1537 55.1301 85.9282 52.4916C87.7028 49.8531 88.65 46.7511 88.65 43.5778C88.6453 39.324 86.9422 35.2457 83.9146 32.2378C80.8869 29.2299 76.7818 27.538 72.5 27.5333ZM72.5 57.9333C69.6421 57.9333 66.8483 57.0914 64.472 55.514C62.0957 53.9366 60.2436 51.6945 59.1499 49.0714C58.0563 46.4483 57.7701 43.5619 58.3277 40.7771C58.8852 37.9924 60.2614 35.4345 62.2823 33.4269C64.3032 31.4192 66.8779 30.052 69.6809 29.4981C72.484 28.9441 75.3894 29.2284 78.0298 30.315C80.6702 31.4015 82.927 33.2415 84.5147 35.6023C86.1025 37.963 86.95 40.7385 86.95 43.5778C86.9457 47.3838 85.422 51.0327 82.713 53.724C80.004 56.4153 76.3311 57.9291 72.5 57.9333Z"/>
<path d="M56.35 25.8444H54.65V33.4444H53.8V25.8444H52.1V33.4444H51.25V25.8444H49.55V33.4444H48.7V25.8444H47V38.5111C47.0006 39.0349 47.1644 39.5457 47.4687 39.9734C47.7731 40.4011 48.2032 40.7248 48.7 40.9V60.4667C48.7 61.1385 48.9687 61.7829 49.4469 62.258C49.9251 62.7331 50.5737 63 51.25 63H52.1C52.7763 63 53.4249 62.7331 53.9031 62.258C54.3813 61.7829 54.65 61.1385 54.65 60.4667V40.9C55.1468 40.7248 55.5769 40.4011 55.8813 39.9734C56.1856 39.5457 56.3494 39.0349 56.35 38.5111V25.8444ZM54.65 38.5111C54.65 38.7351 54.5604 38.9499 54.401 39.1082C54.2416 39.2666 54.0254 39.3556 53.8 39.3556C53.5746 39.3556 53.3584 39.4445 53.199 39.6029C53.0396 39.7612 52.95 39.976 52.95 40.2V60.4667C52.95 60.6906 52.8604 60.9054 52.701 61.0638C52.5416 61.2221 52.3254 61.3111 52.1 61.3111H51.25C51.0246 61.3111 50.8084 61.2221 50.649 61.0638C50.4896 60.9054 50.4 60.6906 50.4 60.4667V40.2C50.4 39.976 50.3104 39.7612 50.151 39.6029C49.9916 39.4445 49.7754 39.3556 49.55 39.3556C49.3246 39.3556 49.1084 39.2666 48.949 39.1082C48.7896 38.9499 48.7 38.7351 48.7 38.5111V35.1333H54.65V38.5111ZM97.15 25C95.1218 25.0022 93.1773 25.8037 91.7431 27.2285C90.309 28.6533 89.5023 30.585 89.5 32.6V43.5778C89.5 44.2497 89.7687 44.894 90.2469 45.3691C90.7251 45.8442 91.3737 46.1111 92.05 46.1111V62.1556C92.05 62.3795 92.1395 62.5943 92.299 62.7527C92.4584 62.911 92.6746 63 92.9 63H97.15C97.3754 63 97.5916 62.911 97.751 62.7527C97.9105 62.5943 98 62.3795 98 62.1556V25.8444C98 25.6205 97.9105 25.4057 97.751 25.2473C97.5916 25.089 97.3754 25 97.15 25ZM96.3 61.3111H93.75V45.2667C93.75 45.0427 93.6605 44.8279 93.501 44.6696C93.3416 44.5112 93.1254 44.4222 92.9 44.4222H92.05C91.8246 44.4222 91.6084 44.3333 91.449 44.1749C91.2896 44.0165 91.2 43.8017 91.2 43.5778V32.6C91.2018 31.179 91.718 29.806 92.6543 28.7318C93.5906 27.6576 94.8846 26.9538 96.3 26.7488V61.3111Z"/>
<path d="M93.75 30.0667H92.05V42.7333H93.75V30.0667Z"/>
<path d="M72.5 35.1333C70.8189 35.1333 69.1755 35.6286 67.7777 36.5565C66.3798 37.4844 65.2904 38.8032 64.647 40.3462C64.0037 41.8892 63.8354 43.5871 64.1633 45.2252C64.4913 46.8633 65.3008 48.3679 66.4896 49.5489C67.6783 50.7299 69.1929 51.5341 70.8417 51.86C72.4906 52.1858 74.1996 52.0186 75.7528 51.3794C77.306 50.7403 78.6335 49.6579 79.5675 48.2693C80.5015 46.8806 81 45.2479 81 43.5778C80.9975 41.3389 80.1012 39.1925 78.5077 37.6094C76.9142 36.0263 74.7536 35.1358 72.5 35.1333ZM72.5 50.3333C71.1551 50.3333 69.8404 49.9371 68.7221 49.1948C67.6039 48.4525 66.7323 47.3974 66.2176 46.163C65.7029 44.9286 65.5683 43.5703 65.8307 42.2598C66.093 40.9494 66.7407 39.7457 67.6917 38.8009C68.6427 37.8561 69.8543 37.2127 71.1734 36.952C72.4925 36.6914 73.8597 36.8251 75.1022 37.3365C76.3448 37.8478 77.4068 38.7136 78.154 39.8246C78.9012 40.9355 79.3 42.2417 79.3 43.5778C79.298 45.3688 78.5809 47.086 77.3061 48.3525C76.0313 49.6189 74.3028 50.3313 72.5 50.3333Z"/>
<path d="M56.1348 70.5449H59.5742C60.4453 70.5449 61.1504 70.8105 61.6895 71.3418C62.2324 71.873 62.5039 72.5723 62.5039 73.4395C62.5039 74.3027 62.2246 75.002 61.666 75.5371C61.1074 76.0684 60.3809 76.334 59.4863 76.334H57.9043V79H56.1348V70.5449ZM57.9043 71.9453V74.9512H59.0996C59.6074 74.9512 60.002 74.8203 60.2832 74.5586C60.5645 74.2969 60.7051 73.9258 60.7051 73.4453C60.7051 72.9648 60.5645 72.5957 60.2832 72.3379C60.0059 72.0762 59.6133 71.9453 59.1055 71.9453H57.9043Z"/>
<path d="M63.4473 79V70.5449H65.1582V79H63.4473Z"/>
<path d="M68.7383 77.8633C69.1172 77.8633 69.4375 77.7539 69.6992 77.5352C69.9648 77.3125 70.0977 77.0332 70.0977 76.6973V76.2402L68.7734 76.3223C68.4531 76.3457 68.2051 76.4258 68.0293 76.5625C67.8574 76.6992 67.7715 76.8789 67.7715 77.1016C67.7715 77.3359 67.8594 77.5215 68.0352 77.6582C68.2109 77.7949 68.4453 77.8633 68.7383 77.8633ZM68.1758 79.0996C67.5703 79.0996 67.0684 78.9219 66.6699 78.5664C66.2715 78.2109 66.0723 77.7539 66.0723 77.1953C66.0723 76.625 66.2832 76.1777 66.7051 75.8535C67.127 75.5293 67.7305 75.3438 68.5156 75.2969L70.0977 75.2031V74.7871C70.0977 74.498 70.002 74.2715 69.8105 74.1074C69.623 73.9434 69.3672 73.8613 69.043 73.8613C68.7305 73.8613 68.4746 73.9316 68.2754 74.0723C68.0801 74.2129 67.9609 74.4023 67.918 74.6406H66.3535C66.3848 74.0234 66.6484 73.5273 67.1445 73.1523C67.6406 72.7734 68.2988 72.584 69.1191 72.584C69.9238 72.584 70.5684 72.7754 71.0527 73.1582C71.5371 73.541 71.7793 74.0488 71.7793 74.6816V79H70.127V78.0391H70.0918C69.9199 78.3672 69.6582 78.627 69.3066 78.8184C68.9551 79.0059 68.5781 79.0996 68.1758 79.0996Z"/>
<path d="M73.3438 71.2715H75.0547V72.7188H76.2148V74.0078H75.0547V77.0137C75.0547 77.4863 75.3008 77.7227 75.793 77.7227C75.9531 77.7227 76.0918 77.7129 76.209 77.6934V78.9531C76.0098 79 75.7383 79.0234 75.3945 79.0234C74.6562 79.0234 74.1289 78.8906 73.8125 78.625C73.5 78.3594 73.3438 77.9199 73.3438 77.3066V74.0078H72.459V72.7188H73.3438V71.2715Z"/>
<path d="M82.2148 78.2676C81.6562 78.8457 80.8984 79.1348 79.9414 79.1348C78.9844 79.1348 78.2266 78.8438 77.668 78.2617C77.1094 77.6797 76.8301 76.877 76.8301 75.8535C76.8301 74.8418 77.1113 74.0449 77.6738 73.4629C78.2402 72.877 78.9961 72.584 79.9414 72.584C80.8906 72.584 81.6465 72.877 82.209 73.4629C82.7715 74.0449 83.0527 74.8418 83.0527 75.8535C83.0527 76.8809 82.7734 77.6855 82.2148 78.2676ZM79.9414 77.8281C80.3633 77.8281 80.6973 77.6562 80.9434 77.3125C81.1895 76.9688 81.3125 76.4844 81.3125 75.8594C81.3125 75.2422 81.1895 74.7598 80.9434 74.4121C80.6973 74.0645 80.3633 73.8906 79.9414 73.8906C79.5195 73.8906 79.1836 74.0645 78.9336 74.4121C78.6875 74.7598 78.5645 75.2422 78.5645 75.8594C78.5645 76.4844 78.6875 76.9688 78.9336 77.3125C79.1797 77.6562 79.5156 77.8281 79.9414 77.8281Z"/>
<path d="M83.832 74.5645C83.832 73.9668 84.0723 73.4883 84.5527 73.1289C85.0332 72.7656 85.6758 72.584 86.4805 72.584C87.2656 72.584 87.8965 72.7676 88.373 73.1348C88.8496 73.502 89.0938 73.9902 89.1055 74.5996H87.5293C87.5098 74.3457 87.4043 74.1465 87.2129 74.002C87.0254 73.8574 86.7734 73.7852 86.457 73.7852C86.1602 73.7852 85.9219 73.8477 85.7422 73.9727C85.5664 74.0938 85.4785 74.2559 85.4785 74.459C85.4785 74.7637 85.752 74.9805 86.2988 75.1094L87.5 75.3672C88.1289 75.5078 88.5801 75.7129 88.8535 75.9824C89.1309 76.248 89.2695 76.6152 89.2695 77.084C89.2695 77.7012 89.0117 78.1973 88.4961 78.5723C87.9805 78.9473 87.3066 79.1348 86.4746 79.1348C85.6465 79.1348 84.9844 78.9512 84.4883 78.584C83.9922 78.2168 83.7207 77.7227 83.6738 77.1016H85.3438C85.3867 77.3672 85.5078 77.5723 85.707 77.7168C85.9102 77.8613 86.1816 77.9336 86.5215 77.9336C86.8457 77.9336 87.0996 77.875 87.2832 77.7578C87.4707 77.6367 87.5645 77.4727 87.5645 77.2656C87.5645 77.1055 87.5059 76.9785 87.3887 76.8848C87.2715 76.7871 87.0723 76.7051 86.791 76.6387L85.6309 76.3809C84.4316 76.1074 83.832 75.502 83.832 74.5645Z"/>
</mask>
<path d="M11 36C11 22.1929 22.1929 11 36 11H110C123.807 11 135 22.1929 135 36V73C135 86.8071 123.807 98 110 98H36C22.1929 98 11 86.8071 11 73V36Z" fill="#2E3235"/>
<path d="M72.5 27.5333C69.3058 27.5333 66.1834 28.4743 63.5275 30.2373C60.8717 32.0003 58.8017 34.5061 57.5793 37.4378C56.357 40.3696 56.0372 43.5956 56.6603 46.7079C57.2835 49.8202 58.8216 52.6791 61.0802 54.9229C63.3388 57.1668 66.2165 58.6949 69.3493 59.3139C72.4821 59.933 75.7293 59.6153 78.6803 58.4009C81.6314 57.1865 84.1537 55.1301 85.9282 52.4916C87.7028 49.8531 88.65 46.7511 88.65 43.5778C88.6453 39.324 86.9422 35.2457 83.9146 32.2378C80.8869 29.2299 76.7818 27.538 72.5 27.5333ZM72.5 57.9333C69.6421 57.9333 66.8483 57.0914 64.472 55.514C62.0957 53.9366 60.2436 51.6945 59.1499 49.0714C58.0563 46.4483 57.7701 43.5619 58.3277 40.7771C58.8852 37.9924 60.2614 35.4345 62.2823 33.4269C64.3032 31.4192 66.8779 30.052 69.6809 29.4981C72.484 28.9441 75.3894 29.2284 78.0298 30.315C80.6702 31.4015 82.927 33.2415 84.5147 35.6023C86.1025 37.963 86.95 40.7385 86.95 43.5778C86.9457 47.3838 85.422 51.0327 82.713 53.724C80.004 56.4153 76.3311 57.9291 72.5 57.9333Z" fill="#F83103"/>
<path d="M56.35 25.8444H54.65V33.4444H53.8V25.8444H52.1V33.4444H51.25V25.8444H49.55V33.4444H48.7V25.8444H47V38.5111C47.0006 39.0349 47.1644 39.5457 47.4687 39.9734C47.7731 40.4011 48.2032 40.7248 48.7 40.9V60.4667C48.7 61.1385 48.9687 61.7829 49.4469 62.258C49.9251 62.7331 50.5737 63 51.25 63H52.1C52.7763 63 53.4249 62.7331 53.9031 62.258C54.3813 61.7829 54.65 61.1385 54.65 60.4667V40.9C55.1468 40.7248 55.5769 40.4011 55.8813 39.9734C56.1856 39.5457 56.3494 39.0349 56.35 38.5111V25.8444ZM54.65 38.5111C54.65 38.7351 54.5604 38.9499 54.401 39.1082C54.2416 39.2666 54.0254 39.3556 53.8 39.3556C53.5746 39.3556 53.3584 39.4445 53.199 39.6029C53.0396 39.7612 52.95 39.976 52.95 40.2V60.4667C52.95 60.6906 52.8604 60.9054 52.701 61.0638C52.5416 61.2221 52.3254 61.3111 52.1 61.3111H51.25C51.0246 61.3111 50.8084 61.2221 50.649 61.0638C50.4896 60.9054 50.4 60.6906 50.4 60.4667V40.2C50.4 39.976 50.3104 39.7612 50.151 39.6029C49.9916 39.4445 49.7754 39.3556 49.55 39.3556C49.3246 39.3556 49.1084 39.2666 48.949 39.1082C48.7896 38.9499 48.7 38.7351 48.7 38.5111V35.1333H54.65V38.5111ZM97.15 25C95.1218 25.0022 93.1773 25.8037 91.7431 27.2285C90.309 28.6533 89.5023 30.585 89.5 32.6V43.5778C89.5 44.2497 89.7687 44.894 90.2469 45.3691C90.7251 45.8442 91.3737 46.1111 92.05 46.1111V62.1556C92.05 62.3795 92.1395 62.5943 92.299 62.7527C92.4584 62.911 92.6746 63 92.9 63H97.15C97.3754 63 97.5916 62.911 97.751 62.7527C97.9105 62.5943 98 62.3795 98 62.1556V25.8444C98 25.6205 97.9105 25.4057 97.751 25.2473C97.5916 25.089 97.3754 25 97.15 25ZM96.3 61.3111H93.75V45.2667C93.75 45.0427 93.6605 44.8279 93.501 44.6696C93.3416 44.5112 93.1254 44.4222 92.9 44.4222H92.05C91.8246 44.4222 91.6084 44.3333 91.449 44.1749C91.2896 44.0165 91.2 43.8017 91.2 43.5778V32.6C91.2018 31.179 91.718 29.806 92.6543 28.7318C93.5906 27.6576 94.8846 26.9538 96.3 26.7488V61.3111Z" fill="#F83103"/>
<path d="M93.75 30.0667H92.05V42.7333H93.75V30.0667Z" fill="#F83103"/>
<path d="M72.5 35.1333C70.8189 35.1333 69.1755 35.6286 67.7777 36.5565C66.3798 37.4844 65.2904 38.8032 64.647 40.3462C64.0037 41.8892 63.8354 43.5871 64.1633 45.2252C64.4913 46.8633 65.3008 48.3679 66.4896 49.5489C67.6783 50.7299 69.1929 51.5341 70.8417 51.86C72.4906 52.1858 74.1996 52.0186 75.7528 51.3794C77.306 50.7403 78.6335 49.6579 79.5675 48.2693C80.5015 46.8806 81 45.2479 81 43.5778C80.9975 41.3389 80.1012 39.1925 78.5077 37.6094C76.9142 36.0263 74.7536 35.1358 72.5 35.1333ZM72.5 50.3333C71.1551 50.3333 69.8404 49.9371 68.7221 49.1948C67.6039 48.4525 66.7323 47.3974 66.2176 46.163C65.7029 44.9286 65.5683 43.5703 65.8307 42.2598C66.093 40.9494 66.7407 39.7457 67.6917 38.8009C68.6427 37.8561 69.8543 37.2127 71.1734 36.952C72.4925 36.6914 73.8597 36.8251 75.1022 37.3365C76.3448 37.8478 77.4068 38.7136 78.154 39.8246C78.9012 40.9355 79.3 42.2417 79.3 43.5778C79.298 45.3688 78.5809 47.086 77.3061 48.3525C76.0313 49.6189 74.3028 50.3313 72.5 50.3333Z" fill="#F83103"/>
<path d="M56.1348 70.5449H59.5742C60.4453 70.5449 61.1504 70.8105 61.6895 71.3418C62.2324 71.873 62.5039 72.5723 62.5039 73.4395C62.5039 74.3027 62.2246 75.002 61.666 75.5371C61.1074 76.0684 60.3809 76.334 59.4863 76.334H57.9043V79H56.1348V70.5449ZM57.9043 71.9453V74.9512H59.0996C59.6074 74.9512 60.002 74.8203 60.2832 74.5586C60.5645 74.2969 60.7051 73.9258 60.7051 73.4453C60.7051 72.9648 60.5645 72.5957 60.2832 72.3379C60.0059 72.0762 59.6133 71.9453 59.1055 71.9453H57.9043Z" fill="#F83103"/>
<path d="M63.4473 79V70.5449H65.1582V79H63.4473Z" fill="#F83103"/>
<path d="M68.7383 77.8633C69.1172 77.8633 69.4375 77.7539 69.6992 77.5352C69.9648 77.3125 70.0977 77.0332 70.0977 76.6973V76.2402L68.7734 76.3223C68.4531 76.3457 68.2051 76.4258 68.0293 76.5625C67.8574 76.6992 67.7715 76.8789 67.7715 77.1016C67.7715 77.3359 67.8594 77.5215 68.0352 77.6582C68.2109 77.7949 68.4453 77.8633 68.7383 77.8633ZM68.1758 79.0996C67.5703 79.0996 67.0684 78.9219 66.6699 78.5664C66.2715 78.2109 66.0723 77.7539 66.0723 77.1953C66.0723 76.625 66.2832 76.1777 66.7051 75.8535C67.127 75.5293 67.7305 75.3438 68.5156 75.2969L70.0977 75.2031V74.7871C70.0977 74.498 70.002 74.2715 69.8105 74.1074C69.623 73.9434 69.3672 73.8613 69.043 73.8613C68.7305 73.8613 68.4746 73.9316 68.2754 74.0723C68.0801 74.2129 67.9609 74.4023 67.918 74.6406H66.3535C66.3848 74.0234 66.6484 73.5273 67.1445 73.1523C67.6406 72.7734 68.2988 72.584 69.1191 72.584C69.9238 72.584 70.5684 72.7754 71.0527 73.1582C71.5371 73.541 71.7793 74.0488 71.7793 74.6816V79H70.127V78.0391H70.0918C69.9199 78.3672 69.6582 78.627 69.3066 78.8184C68.9551 79.0059 68.5781 79.0996 68.1758 79.0996Z" fill="#F83103"/>
<path d="M73.3438 71.2715H75.0547V72.7188H76.2148V74.0078H75.0547V77.0137C75.0547 77.4863 75.3008 77.7227 75.793 77.7227C75.9531 77.7227 76.0918 77.7129 76.209 77.6934V78.9531C76.0098 79 75.7383 79.0234 75.3945 79.0234C74.6562 79.0234 74.1289 78.8906 73.8125 78.625C73.5 78.3594 73.3438 77.9199 73.3438 77.3066V74.0078H72.459V72.7188H73.3438V71.2715Z" fill="#F83103"/>
<path d="M82.2148 78.2676C81.6562 78.8457 80.8984 79.1348 79.9414 79.1348C78.9844 79.1348 78.2266 78.8438 77.668 78.2617C77.1094 77.6797 76.8301 76.877 76.8301 75.8535C76.8301 74.8418 77.1113 74.0449 77.6738 73.4629C78.2402 72.877 78.9961 72.584 79.9414 72.584C80.8906 72.584 81.6465 72.877 82.209 73.4629C82.7715 74.0449 83.0527 74.8418 83.0527 75.8535C83.0527 76.8809 82.7734 77.6855 82.2148 78.2676ZM79.9414 77.8281C80.3633 77.8281 80.6973 77.6562 80.9434 77.3125C81.1895 76.9688 81.3125 76.4844 81.3125 75.8594C81.3125 75.2422 81.1895 74.7598 80.9434 74.4121C80.6973 74.0645 80.3633 73.8906 79.9414 73.8906C79.5195 73.8906 79.1836 74.0645 78.9336 74.4121C78.6875 74.7598 78.5645 75.2422 78.5645 75.8594C78.5645 76.4844 78.6875 76.9688 78.9336 77.3125C79.1797 77.6562 79.5156 77.8281 79.9414 77.8281Z" fill="#F83103"/>
<path d="M83.832 74.5645C83.832 73.9668 84.0723 73.4883 84.5527 73.1289C85.0332 72.7656 85.6758 72.584 86.4805 72.584C87.2656 72.584 87.8965 72.7676 88.373 73.1348C88.8496 73.502 89.0938 73.9902 89.1055 74.5996H87.5293C87.5098 74.3457 87.4043 74.1465 87.2129 74.002C87.0254 73.8574 86.7734 73.7852 86.457 73.7852C86.1602 73.7852 85.9219 73.8477 85.7422 73.9727C85.5664 74.0938 85.4785 74.2559 85.4785 74.459C85.4785 74.7637 85.752 74.9805 86.2988 75.1094L87.5 75.3672C88.1289 75.5078 88.5801 75.7129 88.8535 75.9824C89.1309 76.248 89.2695 76.6152 89.2695 77.084C89.2695 77.7012 89.0117 78.1973 88.4961 78.5723C87.9805 78.9473 87.3066 79.1348 86.4746 79.1348C85.6465 79.1348 84.9844 78.9512 84.4883 78.584C83.9922 78.2168 83.7207 77.7227 83.6738 77.1016H85.3438C85.3867 77.3672 85.5078 77.5723 85.707 77.7168C85.9102 77.8613 86.1816 77.9336 86.5215 77.9336C86.8457 77.9336 87.0996 77.875 87.2832 77.7578C87.4707 77.6367 87.5645 77.4727 87.5645 77.2656C87.5645 77.1055 87.5059 76.9785 87.3887 76.8848C87.2715 76.7871 87.0723 76.7051 86.791 76.6387L85.6309 76.3809C84.4316 76.1074 83.832 75.502 83.832 74.5645Z" fill="#F83103"/>
<path d="M11 36C11 22.1929 22.1929 11 36 11H110C123.807 11 135 22.1929 135 36V73C135 86.8071 123.807 98 110 98H36C22.1929 98 11 86.8071 11 73V36Z" stroke="#F83103" stroke-width="2" mask="url(#path-1-outside-1_356_207)"/>
<path d="M72.5 27.5333C69.3058 27.5333 66.1834 28.4743 63.5275 30.2373C60.8717 32.0003 58.8017 34.5061 57.5793 37.4378C56.357 40.3696 56.0372 43.5956 56.6603 46.7079C57.2835 49.8202 58.8216 52.6791 61.0802 54.9229C63.3388 57.1668 66.2165 58.6949 69.3493 59.3139C72.4821 59.933 75.7293 59.6153 78.6803 58.4009C81.6314 57.1865 84.1537 55.1301 85.9282 52.4916C87.7028 49.8531 88.65 46.7511 88.65 43.5778C88.6453 39.324 86.9422 35.2457 83.9146 32.2378C80.8869 29.2299 76.7818 27.538 72.5 27.5333ZM72.5 57.9333C69.6421 57.9333 66.8483 57.0914 64.472 55.514C62.0957 53.9366 60.2436 51.6945 59.1499 49.0714C58.0563 46.4483 57.7701 43.5619 58.3277 40.7771C58.8852 37.9924 60.2614 35.4345 62.2823 33.4269C64.3032 31.4192 66.8779 30.052 69.6809 29.4981C72.484 28.9441 75.3894 29.2284 78.0298 30.315C80.6702 31.4015 82.927 33.2415 84.5147 35.6023C86.1025 37.963 86.95 40.7385 86.95 43.5778C86.9457 47.3838 85.422 51.0327 82.713 53.724C80.004 56.4153 76.3311 57.9291 72.5 57.9333Z" stroke="#F83103" stroke-width="2" mask="url(#path-1-outside-1_356_207)"/>
<path d="M56.35 25.8444H54.65V33.4444H53.8V25.8444H52.1V33.4444H51.25V25.8444H49.55V33.4444H48.7V25.8444H47V38.5111C47.0006 39.0349 47.1644 39.5457 47.4687 39.9734C47.7731 40.4011 48.2032 40.7248 48.7 40.9V60.4667C48.7 61.1385 48.9687 61.7829 49.4469 62.258C49.9251 62.7331 50.5737 63 51.25 63H52.1C52.7763 63 53.4249 62.7331 53.9031 62.258C54.3813 61.7829 54.65 61.1385 54.65 60.4667V40.9C55.1468 40.7248 55.5769 40.4011 55.8813 39.9734C56.1856 39.5457 56.3494 39.0349 56.35 38.5111V25.8444ZM54.65 38.5111C54.65 38.7351 54.5604 38.9499 54.401 39.1082C54.2416 39.2666 54.0254 39.3556 53.8 39.3556C53.5746 39.3556 53.3584 39.4445 53.199 39.6029C53.0396 39.7612 52.95 39.976 52.95 40.2V60.4667C52.95 60.6906 52.8604 60.9054 52.701 61.0638C52.5416 61.2221 52.3254 61.3111 52.1 61.3111H51.25C51.0246 61.3111 50.8084 61.2221 50.649 61.0638C50.4896 60.9054 50.4 60.6906 50.4 60.4667V40.2C50.4 39.976 50.3104 39.7612 50.151 39.6029C49.9916 39.4445 49.7754 39.3556 49.55 39.3556C49.3246 39.3556 49.1084 39.2666 48.949 39.1082C48.7896 38.9499 48.7 38.7351 48.7 38.5111V35.1333H54.65V38.5111ZM97.15 25C95.1218 25.0022 93.1773 25.8037 91.7431 27.2285C90.309 28.6533 89.5023 30.585 89.5 32.6V43.5778C89.5 44.2497 89.7687 44.894 90.2469 45.3691C90.7251 45.8442 91.3737 46.1111 92.05 46.1111V62.1556C92.05 62.3795 92.1395 62.5943 92.299 62.7527C92.4584 62.911 92.6746 63 92.9 63H97.15C97.3754 63 97.5916 62.911 97.751 62.7527C97.9105 62.5943 98 62.3795 98 62.1556V25.8444C98 25.6205 97.9105 25.4057 97.751 25.2473C97.5916 25.089 97.3754 25 97.15 25ZM96.3 61.3111H93.75V45.2667C93.75 45.0427 93.6605 44.8279 93.501 44.6696C93.3416 44.5112 93.1254 44.4222 92.9 44.4222H92.05C91.8246 44.4222 91.6084 44.3333 91.449 44.1749C91.2896 44.0165 91.2 43.8017 91.2 43.5778V32.6C91.2018 31.179 91.718 29.806 92.6543 28.7318C93.5906 27.6576 94.8846 26.9538 96.3 26.7488V61.3111Z" stroke="#F83103" stroke-width="2" mask="url(#path-1-outside-1_356_207)"/>
<path d="M93.75 30.0667H92.05V42.7333H93.75V30.0667Z" stroke="#F83103" stroke-width="2" mask="url(#path-1-outside-1_356_207)"/>
<path d="M72.5 35.1333C70.8189 35.1333 69.1755 35.6286 67.7777 36.5565C66.3798 37.4844 65.2904 38.8032 64.647 40.3462C64.0037 41.8892 63.8354 43.5871 64.1633 45.2252C64.4913 46.8633 65.3008 48.3679 66.4896 49.5489C67.6783 50.7299 69.1929 51.5341 70.8417 51.86C72.4906 52.1858 74.1996 52.0186 75.7528 51.3794C77.306 50.7403 78.6335 49.6579 79.5675 48.2693C80.5015 46.8806 81 45.2479 81 43.5778C80.9975 41.3389 80.1012 39.1925 78.5077 37.6094C76.9142 36.0263 74.7536 35.1358 72.5 35.1333ZM72.5 50.3333C71.1551 50.3333 69.8404 49.9371 68.7221 49.1948C67.6039 48.4525 66.7323 47.3974 66.2176 46.163C65.7029 44.9286 65.5683 43.5703 65.8307 42.2598C66.093 40.9494 66.7407 39.7457 67.6917 38.8009C68.6427 37.8561 69.8543 37.2127 71.1734 36.952C72.4925 36.6914 73.8597 36.8251 75.1022 37.3365C76.3448 37.8478 77.4068 38.7136 78.154 39.8246C78.9012 40.9355 79.3 42.2417 79.3 43.5778C79.298 45.3688 78.5809 47.086 77.3061 48.3525C76.0313 49.6189 74.3028 50.3313 72.5 50.3333Z" stroke="#F83103" stroke-width="2" mask="url(#path-1-outside-1_356_207)"/>
<path d="M56.1348 70.5449H59.5742C60.4453 70.5449 61.1504 70.8105 61.6895 71.3418C62.2324 71.873 62.5039 72.5723 62.5039 73.4395C62.5039 74.3027 62.2246 75.002 61.666 75.5371C61.1074 76.0684 60.3809 76.334 59.4863 76.334H57.9043V79H56.1348V70.5449ZM57.9043 71.9453V74.9512H59.0996C59.6074 74.9512 60.002 74.8203 60.2832 74.5586C60.5645 74.2969 60.7051 73.9258 60.7051 73.4453C60.7051 72.9648 60.5645 72.5957 60.2832 72.3379C60.0059 72.0762 59.6133 71.9453 59.1055 71.9453H57.9043Z" stroke="#F83103" stroke-width="2" mask="url(#path-1-outside-1_356_207)"/>
<path d="M63.4473 79V70.5449H65.1582V79H63.4473Z" stroke="#F83103" stroke-width="2" mask="url(#path-1-outside-1_356_207)"/>
<path d="M68.7383 77.8633C69.1172 77.8633 69.4375 77.7539 69.6992 77.5352C69.9648 77.3125 70.0977 77.0332 70.0977 76.6973V76.2402L68.7734 76.3223C68.4531 76.3457 68.2051 76.4258 68.0293 76.5625C67.8574 76.6992 67.7715 76.8789 67.7715 77.1016C67.7715 77.3359 67.8594 77.5215 68.0352 77.6582C68.2109 77.7949 68.4453 77.8633 68.7383 77.8633ZM68.1758 79.0996C67.5703 79.0996 67.0684 78.9219 66.6699 78.5664C66.2715 78.2109 66.0723 77.7539 66.0723 77.1953C66.0723 76.625 66.2832 76.1777 66.7051 75.8535C67.127 75.5293 67.7305 75.3438 68.5156 75.2969L70.0977 75.2031V74.7871C70.0977 74.498 70.002 74.2715 69.8105 74.1074C69.623 73.9434 69.3672 73.8613 69.043 73.8613C68.7305 73.8613 68.4746 73.9316 68.2754 74.0723C68.0801 74.2129 67.9609 74.4023 67.918 74.6406H66.3535C66.3848 74.0234 66.6484 73.5273 67.1445 73.1523C67.6406 72.7734 68.2988 72.584 69.1191 72.584C69.9238 72.584 70.5684 72.7754 71.0527 73.1582C71.5371 73.541 71.7793 74.0488 71.7793 74.6816V79H70.127V78.0391H70.0918C69.9199 78.3672 69.6582 78.627 69.3066 78.8184C68.9551 79.0059 68.5781 79.0996 68.1758 79.0996Z" stroke="#F83103" stroke-width="2" mask="url(#path-1-outside-1_356_207)"/>
<path d="M73.3438 71.2715H75.0547V72.7188H76.2148V74.0078H75.0547V77.0137C75.0547 77.4863 75.3008 77.7227 75.793 77.7227C75.9531 77.7227 76.0918 77.7129 76.209 77.6934V78.9531C76.0098 79 75.7383 79.0234 75.3945 79.0234C74.6562 79.0234 74.1289 78.8906 73.8125 78.625C73.5 78.3594 73.3438 77.9199 73.3438 77.3066V74.0078H72.459V72.7188H73.3438V71.2715Z" stroke="#F83103" stroke-width="2" mask="url(#path-1-outside-1_356_207)"/>
<path d="M82.2148 78.2676C81.6562 78.8457 80.8984 79.1348 79.9414 79.1348C78.9844 79.1348 78.2266 78.8438 77.668 78.2617C77.1094 77.6797 76.8301 76.877 76.8301 75.8535C76.8301 74.8418 77.1113 74.0449 77.6738 73.4629C78.2402 72.877 78.9961 72.584 79.9414 72.584C80.8906 72.584 81.6465 72.877 82.209 73.4629C82.7715 74.0449 83.0527 74.8418 83.0527 75.8535C83.0527 76.8809 82.7734 77.6855 82.2148 78.2676ZM79.9414 77.8281C80.3633 77.8281 80.6973 77.6562 80.9434 77.3125C81.1895 76.9688 81.3125 76.4844 81.3125 75.8594C81.3125 75.2422 81.1895 74.7598 80.9434 74.4121C80.6973 74.0645 80.3633 73.8906 79.9414 73.8906C79.5195 73.8906 79.1836 74.0645 78.9336 74.4121C78.6875 74.7598 78.5645 75.2422 78.5645 75.8594C78.5645 76.4844 78.6875 76.9688 78.9336 77.3125C79.1797 77.6562 79.5156 77.8281 79.9414 77.8281Z" stroke="#F83103" stroke-width="2" mask="url(#path-1-outside-1_356_207)"/>
<path d="M83.832 74.5645C83.832 73.9668 84.0723 73.4883 84.5527 73.1289C85.0332 72.7656 85.6758 72.584 86.4805 72.584C87.2656 72.584 87.8965 72.7676 88.373 73.1348C88.8496 73.502 89.0938 73.9902 89.1055 74.5996H87.5293C87.5098 74.3457 87.4043 74.1465 87.2129 74.002C87.0254 73.8574 86.7734 73.7852 86.457 73.7852C86.1602 73.7852 85.9219 73.8477 85.7422 73.9727C85.5664 74.0938 85.4785 74.2559 85.4785 74.459C85.4785 74.7637 85.752 74.9805 86.2988 75.1094L87.5 75.3672C88.1289 75.5078 88.5801 75.7129 88.8535 75.9824C89.1309 76.248 89.2695 76.6152 89.2695 77.084C89.2695 77.7012 89.0117 78.1973 88.4961 78.5723C87.9805 78.9473 87.3066 79.1348 86.4746 79.1348C85.6465 79.1348 84.9844 78.9512 84.4883 78.584C83.9922 78.2168 83.7207 77.7227 83.6738 77.1016H85.3438C85.3867 77.3672 85.5078 77.5723 85.707 77.7168C85.9102 77.8613 86.1816 77.9336 86.5215 77.9336C86.8457 77.9336 87.0996 77.875 87.2832 77.7578C87.4707 77.6367 87.5645 77.4727 87.5645 77.2656C87.5645 77.1055 87.5059 76.9785 87.3887 76.8848C87.2715 76.7871 87.0723 76.7051 86.791 76.6387L85.6309 76.3809C84.4316 76.1074 83.832 75.502 83.832 74.5645Z" stroke="#F83103" stroke-width="2" mask="url(#path-1-outside-1_356_207)"/>
</g>
<defs>
<filter id="filter0_d_356_207" x="0" y="0" width="146" height="109" filterUnits="userSpaceOnUse" color-interpolation-filters="sRGB">
<feFlood flood-opacity="0" result="BackgroundImageFix"/>
<feColorMatrix in="SourceAlpha" type="matrix" values="0 0 0 0 0 0 0 0 0 0 0 0 0 0 0 0 0 0 127 0" result="hardAlpha"/>
<feOffset/>
<feGaussianBlur stdDeviation="5"/>
<feComposite in2="hardAlpha" operator="out"/>
<feColorMatrix type="matrix" values="0 0 0 0 0.972549 0 0 0 0 0.192157 0 0 0 0 0.0117647 0 0 0 0.25 0"/>
<feBlend mode="normal" in2="BackgroundImageFix" result="effect1_dropShadow_356_207"/>
<feBlend mode="normal" in="SourceGraphic" in2="effect1_dropShadow_356_207" result="shape"/>
</filter>
</defs>
</svg>
