<svg width="124" height="87" viewBox="0 0 124 87" fill="none" xmlns="http://www.w3.org/2000/svg">
<path d="M0 25C0 11.1929 11.1929 0 25 0H99C112.807 0 124 11.1929 124 25V62C124 75.8071 112.807 87 99 87H25C11.1929 87 0 75.8071 0 62V25Z" fill="#2E3235"/>
<path d="M61.5 16.5333C58.3058 16.5333 55.1834 17.4743 52.5275 19.2373C49.8717 21.0003 47.8017 23.5061 46.5793 26.4378C45.357 29.3696 45.0372 32.5956 45.6603 35.7079C46.2835 38.8202 47.8216 41.6791 50.0802 43.9229C52.3388 46.1668 55.2165 47.6949 58.3493 48.3139C61.4821 48.933 64.7293 48.6153 67.6803 47.4009C70.6314 46.1865 73.1537 44.1301 74.9282 41.4916C76.7028 38.8531 77.65 35.7511 77.65 32.5778C77.6453 28.324 75.9422 24.2457 72.9146 21.2378C69.8869 18.2299 65.7818 16.538 61.5 16.5333ZM61.5 46.9333C58.6421 46.9333 55.8483 46.0914 53.472 44.514C51.0957 42.9366 49.2436 40.6945 48.1499 38.0714C47.0563 35.4483 46.7701 32.5619 47.3277 29.7771C47.8852 26.9924 49.2614 24.4345 51.2823 22.4269C53.3032 20.4192 55.8779 19.052 58.6809 18.4981C61.484 17.9441 64.3894 18.2284 67.0298 19.315C69.6702 20.4015 71.927 22.2415 73.5147 24.6023C75.1025 26.963 75.95 29.7385 75.95 32.5778C75.9457 36.3838 74.422 40.0327 71.713 42.724C69.004 45.4153 65.3311 46.9291 61.5 46.9333Z" fill="white"/>
<path d="M45.35 14.8444H43.65V22.4444H42.8V14.8444H41.1V22.4444H40.25V14.8444H38.55V22.4444H37.7V14.8444H36V27.5111C36.0006 28.0349 36.1644 28.5457 36.4687 28.9734C36.7731 29.4011 37.2032 29.7248 37.7 29.9V49.4667C37.7 50.1385 37.9687 50.7829 38.4469 51.258C38.9251 51.7331 39.5737 52 40.25 52H41.1C41.7763 52 42.4249 51.7331 42.9031 51.258C43.3813 50.7829 43.65 50.1385 43.65 49.4667V29.9C44.1468 29.7248 44.5769 29.4011 44.8813 28.9734C45.1856 28.5457 45.3494 28.0349 45.35 27.5111V14.8444ZM43.65 27.5111C43.65 27.7351 43.5604 27.9499 43.401 28.1082C43.2416 28.2666 43.0254 28.3556 42.8 28.3556C42.5746 28.3556 42.3584 28.4445 42.199 28.6029C42.0396 28.7612 41.95 28.976 41.95 29.2V49.4667C41.95 49.6906 41.8604 49.9054 41.701 50.0638C41.5416 50.2221 41.3254 50.3111 41.1 50.3111H40.25C40.0246 50.3111 39.8084 50.2221 39.649 50.0638C39.4896 49.9054 39.4 49.6906 39.4 49.4667V29.2C39.4 28.976 39.3104 28.7612 39.151 28.6029C38.9916 28.4445 38.7754 28.3556 38.55 28.3556C38.3246 28.3556 38.1084 28.2666 37.949 28.1082C37.7896 27.9499 37.7 27.7351 37.7 27.5111V24.1333H43.65V27.5111ZM86.15 14C84.1218 14.0022 82.1773 14.8037 80.7431 16.2285C79.309 17.6533 78.5023 19.585 78.5 21.6V32.5778C78.5 33.2497 78.7687 33.894 79.2469 34.3691C79.7251 34.8442 80.3737 35.1111 81.05 35.1111V51.1556C81.05 51.3795 81.1395 51.5943 81.299 51.7527C81.4584 51.911 81.6746 52 81.9 52H86.15C86.3754 52 86.5916 51.911 86.751 51.7527C86.9105 51.5943 87 51.3795 87 51.1556V14.8444C87 14.6205 86.9105 14.4057 86.751 14.2473C86.5916 14.089 86.3754 14 86.15 14ZM85.3 50.3111H82.75V34.2667C82.75 34.0427 82.6605 33.8279 82.501 33.6696C82.3416 33.5112 82.1254 33.4222 81.9 33.4222H81.05C80.8246 33.4222 80.6084 33.3333 80.449 33.1749C80.2896 33.0165 80.2 32.8017 80.2 32.5778V21.6C80.2018 20.179 80.718 18.806 81.6543 17.7318C82.5906 16.6576 83.8846 15.9538 85.3 15.7488V50.3111Z" fill="white"/>
<path d="M82.75 19.0667H81.05V31.7333H82.75V19.0667Z" fill="white"/>
<path d="M61.5 24.1333C59.8189 24.1333 58.1755 24.6286 56.7777 25.5565C55.3798 26.4844 54.2904 27.8032 53.647 29.3462C53.0037 30.8892 52.8354 32.5871 53.1633 34.2252C53.4913 35.8633 54.3008 37.3679 55.4896 38.5489C56.6783 39.7299 58.1929 40.5341 59.8417 40.86C61.4906 41.1858 63.1996 41.0186 64.7528 40.3794C66.306 39.7403 67.6335 38.6579 68.5675 37.2693C69.5015 35.8806 70 34.2479 70 32.5778C69.9975 30.3389 69.1012 28.1925 67.5077 26.6094C65.9142 25.0263 63.7536 24.1358 61.5 24.1333ZM61.5 39.3333C60.1551 39.3333 58.8404 38.9371 57.7221 38.1948C56.6039 37.4525 55.7323 36.3974 55.2176 35.163C54.7029 33.9286 54.5683 32.5703 54.8307 31.2598C55.093 29.9494 55.7407 28.7457 56.6917 27.8009C57.6427 26.8561 58.8543 26.2127 60.1734 25.952C61.4925 25.6914 62.8597 25.8251 64.1022 26.3365C65.3448 26.8478 66.4068 27.7136 67.154 28.8246C67.9012 29.9355 68.3 31.2417 68.3 32.5778C68.298 34.3688 67.5809 36.086 66.3061 37.3525C65.0313 38.6189 63.3028 39.3313 61.5 39.3333Z" fill="white"/>
<path d="M45.1348 59.5449H48.5742C49.4453 59.5449 50.1504 59.8105 50.6895 60.3418C51.2324 60.873 51.5039 61.5723 51.5039 62.4395C51.5039 63.3027 51.2246 64.002 50.666 64.5371C50.1074 65.0684 49.3809 65.334 48.4863 65.334H46.9043V68H45.1348V59.5449ZM46.9043 60.9453V63.9512H48.0996C48.6074 63.9512 49.002 63.8203 49.2832 63.5586C49.5645 63.2969 49.7051 62.9258 49.7051 62.4453C49.7051 61.9648 49.5645 61.5957 49.2832 61.3379C49.0059 61.0762 48.6133 60.9453 48.1055 60.9453H46.9043Z" fill="white"/>
<path d="M52.4473 68V59.5449H54.1582V68H52.4473Z" fill="white"/>
<path d="M57.7383 66.8633C58.1172 66.8633 58.4375 66.7539 58.6992 66.5352C58.9648 66.3125 59.0977 66.0332 59.0977 65.6973V65.2402L57.7734 65.3223C57.4531 65.3457 57.2051 65.4258 57.0293 65.5625C56.8574 65.6992 56.7715 65.8789 56.7715 66.1016C56.7715 66.3359 56.8594 66.5215 57.0352 66.6582C57.2109 66.7949 57.4453 66.8633 57.7383 66.8633ZM57.1758 68.0996C56.5703 68.0996 56.0684 67.9219 55.6699 67.5664C55.2715 67.2109 55.0723 66.7539 55.0723 66.1953C55.0723 65.625 55.2832 65.1777 55.7051 64.8535C56.127 64.5293 56.7305 64.3438 57.5156 64.2969L59.0977 64.2031V63.7871C59.0977 63.498 59.002 63.2715 58.8105 63.1074C58.623 62.9434 58.3672 62.8613 58.043 62.8613C57.7305 62.8613 57.4746 62.9316 57.2754 63.0723C57.0801 63.2129 56.9609 63.4023 56.918 63.6406H55.3535C55.3848 63.0234 55.6484 62.5273 56.1445 62.1523C56.6406 61.7734 57.2988 61.584 58.1191 61.584C58.9238 61.584 59.5684 61.7754 60.0527 62.1582C60.5371 62.541 60.7793 63.0488 60.7793 63.6816V68H59.127V67.0391H59.0918C58.9199 67.3672 58.6582 67.627 58.3066 67.8184C57.9551 68.0059 57.5781 68.0996 57.1758 68.0996Z" fill="white"/>
<path d="M62.3438 60.2715H64.0547V61.7188H65.2148V63.0078H64.0547V66.0137C64.0547 66.4863 64.3008 66.7227 64.793 66.7227C64.9531 66.7227 65.0918 66.7129 65.209 66.6934V67.9531C65.0098 68 64.7383 68.0234 64.3945 68.0234C63.6562 68.0234 63.1289 67.8906 62.8125 67.625C62.5 67.3594 62.3438 66.9199 62.3438 66.3066V63.0078H61.459V61.7188H62.3438V60.2715Z" fill="white"/>
<path d="M71.2148 67.2676C70.6562 67.8457 69.8984 68.1348 68.9414 68.1348C67.9844 68.1348 67.2266 67.8438 66.668 67.2617C66.1094 66.6797 65.8301 65.877 65.8301 64.8535C65.8301 63.8418 66.1113 63.0449 66.6738 62.4629C67.2402 61.877 67.9961 61.584 68.9414 61.584C69.8906 61.584 70.6465 61.877 71.209 62.4629C71.7715 63.0449 72.0527 63.8418 72.0527 64.8535C72.0527 65.8809 71.7734 66.6855 71.2148 67.2676ZM68.9414 66.8281C69.3633 66.8281 69.6973 66.6562 69.9434 66.3125C70.1895 65.9688 70.3125 65.4844 70.3125 64.8594C70.3125 64.2422 70.1895 63.7598 69.9434 63.4121C69.6973 63.0645 69.3633 62.8906 68.9414 62.8906C68.5195 62.8906 68.1836 63.0645 67.9336 63.4121C67.6875 63.7598 67.5645 64.2422 67.5645 64.8594C67.5645 65.4844 67.6875 65.9688 67.9336 66.3125C68.1797 66.6562 68.5156 66.8281 68.9414 66.8281Z" fill="white"/>
<path d="M72.832 63.5645C72.832 62.9668 73.0723 62.4883 73.5527 62.1289C74.0332 61.7656 74.6758 61.584 75.4805 61.584C76.2656 61.584 76.8965 61.7676 77.373 62.1348C77.8496 62.502 78.0938 62.9902 78.1055 63.5996H76.5293C76.5098 63.3457 76.4043 63.1465 76.2129 63.002C76.0254 62.8574 75.7734 62.7852 75.457 62.7852C75.1602 62.7852 74.9219 62.8477 74.7422 62.9727C74.5664 63.0938 74.4785 63.2559 74.4785 63.459C74.4785 63.7637 74.752 63.9805 75.2988 64.1094L76.5 64.3672C77.1289 64.5078 77.5801 64.7129 77.8535 64.9824C78.1309 65.248 78.2695 65.6152 78.2695 66.084C78.2695 66.7012 78.0117 67.1973 77.4961 67.5723C76.9805 67.9473 76.3066 68.1348 75.4746 68.1348C74.6465 68.1348 73.9844 67.9512 73.4883 67.584C72.9922 67.2168 72.7207 66.7227 72.6738 66.1016H74.3438C74.3867 66.3672 74.5078 66.5723 74.707 66.7168C74.9102 66.8613 75.1816 66.9336 75.5215 66.9336C75.8457 66.9336 76.0996 66.875 76.2832 66.7578C76.4707 66.6367 76.5645 66.4727 76.5645 66.2656C76.5645 66.1055 76.5059 65.9785 76.3887 65.8848C76.2715 65.7871 76.0723 65.7051 75.791 65.6387L74.6309 65.3809C73.4316 65.1074 72.832 64.502 72.832 63.5645Z" fill="white"/>
</svg>
