<svg width="146" height="109" viewBox="0 0 146 109" fill="none" xmlns="http://www.w3.org/2000/svg">
<g filter="url(#filter0_d_356_203)">
<mask id="path-1-outside-1_356_203" maskUnits="userSpaceOnUse" x="10" y="10" width="126" height="89" fill="black">
<rect fill="white" x="10" y="10" width="126" height="89"/>
<path d="M11 36C11 22.1929 22.1929 11 36 11H110C123.807 11 135 22.1929 135 36V73C135 86.8071 123.807 98 110 98H36C22.1929 98 11 86.8071 11 73V36Z"/>
<path d="M94.3848 40.3022H91.711C91.6095 39.8327 91.4552 39.3765 91.2511 38.9427C90.9828 38.325 90.7891 37.8786 90.9398 37.1633C91.0924 36.4387 91.5147 35.9778 91.923 35.532C92.4021 35.0091 92.9451 34.4163 92.8455 33.4987C92.7496 32.6104 92.1475 32.2082 91.6163 31.8533C91.1937 31.571 90.7945 31.3043 90.513 30.7714C90.0089 29.817 90.3341 28.7912 90.6488 27.7993C90.9677 26.7939 91.2974 25.7542 90.6172 24.9123C90.208 24.4059 89.485 24.1078 88.5812 24.0729C87.3462 24.0252 85.6133 24.4942 84.5244 25.6495C83.8119 26.4057 83.6078 27.2103 83.4277 27.9201C83.2415 28.654 83.0944 29.2337 82.4475 29.7652C82.007 30.127 81.6447 30.2104 81.2611 30.2987C80.7859 30.4081 80.2473 30.5321 79.7912 31.155C79.1376 32.0481 79.3784 32.9858 79.5909 33.8131C79.7738 34.5251 79.9629 35.2613 79.7183 36.1295C79.6984 36.2 79.6762 36.2667 79.6527 36.332C79.3841 36.2789 79.1111 36.252 78.8374 36.2519C78.79 36.2519 78.743 36.2548 78.6959 36.2563C78.687 36.2341 78.6769 36.2124 78.6655 36.1914C78.1708 35.2834 77.5096 34.9136 76.9783 34.6165C76.5001 34.349 76.1546 34.1559 75.9047 33.6337C75.6391 33.0783 75.6884 32.5749 75.7406 32.042C75.8023 31.4123 75.8792 30.6286 75.2226 29.9979C74.7702 29.564 74.3065 29.5306 73.934 29.5037C73.637 29.4823 73.3806 29.4638 73.0315 29.265C72.5238 28.9759 72.3621 28.613 72.1381 28.1109C71.9099 27.5994 71.6514 27.0196 70.9936 26.5275C69.7956 25.632 67.7656 25.4968 66.6781 26.17C66.4891 26.1347 66.298 26.1123 66.1061 26.1029C65.7135 26.0755 65.3427 26.0495 64.8526 25.7608C64.1332 25.3367 63.9 24.7871 63.6048 24.0911C63.319 23.4176 62.9953 22.6543 62.176 22.0182C60.9249 21.0464 59.1413 20.8535 57.9284 21.0934C57.041 21.2689 56.372 21.6763 56.0448 22.2401C55.5001 23.1781 55.9836 24.1541 56.4511 25.0978C56.9124 26.029 57.3894 26.992 57.0363 28.0134C56.8387 28.5836 56.4848 28.9093 56.1101 29.2544C55.6389 29.6881 55.1049 30.1798 55.145 31.072C55.1855 31.9946 55.8118 32.4952 56.3643 32.9369C56.8355 33.3135 57.3226 33.703 57.5834 34.3957C57.8408 35.079 57.7171 35.5504 57.5458 36.203C57.4092 36.7236 57.2543 37.3137 57.3014 38.065C57.3649 38.8504 57.5925 39.613 57.9692 40.3022H53.6152C53.4521 40.3022 53.2956 40.368 53.1802 40.485C53.0648 40.602 53 40.7607 53 40.9262C53 47.9135 57.5199 53.8495 63.7502 55.8879V57.6701C63.7515 58.8181 64.2018 59.9186 65.0022 60.7303C65.8027 61.5421 66.8879 61.9987 68.0199 62H79.9801C81.1121 61.9987 82.1973 61.5421 82.9978 60.7303C83.7982 59.9186 84.2485 58.8181 84.2498 57.6701V55.8946C87.3718 54.8722 90.094 52.8727 92.0255 50.1834C93.9569 47.494 94.9983 44.2532 95 40.9262C95 40.7607 94.9352 40.602 94.8198 40.485C94.7044 40.368 94.5479 40.3022 94.3848 40.3022ZM80.7792 31.8987C80.9548 31.6588 81.1101 31.6129 81.5334 31.5155C81.9662 31.4158 82.559 31.2794 83.222 30.7346C84.1847 29.9438 84.4156 29.0338 84.6194 28.231C84.7826 27.5876 84.9236 27.0321 85.414 26.5115C86.1167 25.7659 87.3991 25.2756 88.5344 25.3197C89.0651 25.3403 89.488 25.4836 89.6654 25.703C89.9036 25.9979 89.7533 26.5473 89.4774 27.4171C89.1211 28.5408 88.6776 29.9392 89.4284 31.3604C89.8571 32.1722 90.4572 32.5731 90.9394 32.8952C91.4209 33.2169 91.5921 33.3544 91.6224 33.6348C91.657 33.9536 91.4755 34.1871 91.0215 34.6827C90.5486 35.199 89.96 35.8414 89.7365 36.9025C89.5027 38.0123 89.8333 38.7736 90.125 39.4454C90.2532 39.7226 90.3612 40.009 90.4482 40.3022H85.7849C85.8644 40.0467 85.9423 39.7907 86.0186 39.5343L88.0696 38.3654C88.2118 38.2843 88.3165 38.1493 88.3605 37.9899C88.4046 37.8306 88.3844 37.66 88.3044 37.5158C88.2245 37.3716 88.0913 37.2654 87.9342 37.2208C87.7771 37.1761 87.6089 37.1966 87.4667 37.2776L86.4922 37.833C86.8989 36.276 87.242 34.6904 87.5114 33.1056C87.5264 33.0243 87.5254 32.9408 87.5083 32.86C87.4912 32.7791 87.4585 32.7024 87.412 32.6345C87.3654 32.5666 87.3061 32.5087 87.2373 32.4643C87.1685 32.4198 87.0917 32.3897 87.0113 32.3757C86.9309 32.3616 86.8486 32.3639 86.7691 32.3824C86.6896 32.4009 86.6145 32.4352 86.5483 32.4834C86.482 32.5316 86.4258 32.5927 86.383 32.6631C86.3402 32.7335 86.3116 32.8118 86.2989 32.8935C86.1149 33.9729 85.8982 35.0464 85.6492 36.1124L85.0445 34.6227C85.0138 34.5469 84.9686 34.4781 84.9116 34.42C84.8546 34.3619 84.7869 34.3158 84.7123 34.2843C84.6377 34.2528 84.5577 34.2365 84.4769 34.2363C84.3961 34.2361 84.3161 34.2521 84.2414 34.2833C84.1667 34.3145 84.0988 34.3603 84.0415 34.4181C83.9842 34.4759 83.9388 34.5446 83.9077 34.6202C83.8449 34.7729 83.8446 34.9447 83.9067 35.0977L85.1376 38.1303C85.1123 38.2228 85.0878 38.3158 85.0619 38.408C85.0122 38.5856 84.9614 38.763 84.9094 38.9401L84.9067 38.9497C84.7749 39.402 84.6369 39.8528 84.4928 40.3022H83.0917C83.0446 39.561 82.8103 38.8445 82.4113 38.2217C82.0123 37.5989 81.462 37.0907 80.8133 36.7459C80.8457 36.6557 80.8751 36.5644 80.9014 36.4722C81.2383 35.2763 80.985 34.2905 80.7816 33.4984C80.5814 32.7186 80.4905 32.2933 80.7792 31.8987ZM78.8374 37.4997C79.5948 37.5007 80.3244 37.7887 80.8832 38.3072C81.4419 38.8257 81.7894 39.5373 81.8574 40.3022H76.9393C76.9035 39.7188 76.7511 39.1489 76.4912 38.6271C76.775 38.2741 77.1328 37.9896 77.5387 37.7946C77.9446 37.5996 78.3882 37.4988 78.8374 37.4997ZM70.2632 27.5317C70.6625 27.8305 70.8189 28.1812 71.0169 28.6252C71.263 29.1767 71.5692 29.8632 72.429 30.353C72.8631 30.5989 73.3495 30.7345 73.8466 30.7484C74.1552 30.7706 74.2499 30.7825 74.3768 30.9042C74.5772 31.0967 74.5745 31.3224 74.5161 31.9185C74.4556 32.5365 74.3802 33.3055 74.7976 34.1784C75.2183 35.0572 75.8377 35.4036 76.3841 35.7091C76.7706 35.9253 77.114 36.1176 77.4029 36.5041C76.7803 36.7285 76.218 37.0976 75.7612 37.5818C75.364 37.1603 74.8866 36.8251 74.3578 36.5965C73.829 36.3679 73.2599 36.2507 72.685 36.2519C72.6421 36.2519 72.5996 36.2539 72.5569 36.2552C72.4589 35.8594 72.3151 35.4767 72.1285 35.1151C71.5131 33.9303 70.7092 33.4647 69.9998 33.0541C69.3677 32.6881 68.8684 32.399 68.5153 31.6237C68.1418 30.8038 68.2168 30.0469 68.2893 29.3149C68.363 28.572 68.4451 27.7425 67.944 27.0244C68.6394 26.9182 69.6143 27.0466 70.2632 27.5317ZM75.7044 40.3022H69.6649C69.7314 39.5366 70.0783 38.8239 70.6373 38.3048C71.1963 37.7857 71.9267 37.4978 72.6847 37.4978C73.4426 37.4978 74.1731 37.7857 74.7321 38.3048C75.291 38.8239 75.6379 39.5366 75.7044 40.3022ZM57.1262 31.9569C56.6028 31.5386 56.3883 31.3364 56.3742 31.016C56.3616 30.7344 56.51 30.5716 56.9373 30.1783C57.3646 29.7848 57.8965 29.2951 58.1973 28.4266C58.7235 26.9051 58.0732 25.5924 57.5508 24.5377C57.1463 23.7213 56.9145 23.2018 57.1053 22.8732C57.2472 22.6286 57.643 22.4211 58.1641 22.3181C59.2783 22.0978 60.6205 22.3817 61.428 23.0088C61.9921 23.4468 62.2156 23.9739 62.4745 24.5843C62.7975 25.3455 63.1635 26.2084 64.2345 26.8396C64.9724 27.2744 65.5787 27.3168 66.0214 27.3478C66.4544 27.3781 66.6147 27.3992 66.8245 27.6089C67.1699 27.954 67.1446 28.3884 67.0651 29.1901C66.9844 30.0045 66.884 31.0179 67.3983 32.147C67.9164 33.2847 68.6992 33.7379 69.3898 34.1377C70.0348 34.5112 70.5916 34.8335 71.0398 35.6965C71.1675 35.9437 71.2687 36.204 71.3417 36.4731C70.5362 36.7456 69.8291 37.2555 69.3107 37.9375C68.7923 38.6196 68.4861 39.4428 68.4312 40.3022H66.4808C66.1168 39.7092 65.7655 39.1088 65.427 38.5011L66.1855 35.3036C66.2237 35.1427 66.1973 34.9731 66.1121 34.8319C66.0269 34.6908 65.8899 34.5898 65.7313 34.5511C65.5726 34.5123 65.4053 34.5391 65.2662 34.6255C65.127 34.7119 65.0274 34.8508 64.9892 35.0117L64.5517 36.856C64.1173 36.0009 63.7075 35.1315 63.3223 34.2479L64.0079 31.8369C64.0302 31.7581 64.0371 31.6757 64.0281 31.5943C64.0191 31.5129 63.9943 31.434 63.9552 31.3623C63.9162 31.2906 63.8636 31.2274 63.8004 31.1763C63.7373 31.1252 63.6648 31.0872 63.5872 31.0645C63.5095 31.0418 63.4282 31.0348 63.348 31.044C63.2677 31.0531 63.1899 31.0782 63.1192 31.1179C63.0485 31.1575 62.9862 31.2108 62.9358 31.2749C62.8854 31.3389 62.8479 31.4124 62.8255 31.4911L62.5645 32.4092C62.1865 31.4369 61.8399 30.4543 61.5248 29.4613C61.5005 29.3827 61.4612 29.3098 61.409 29.2467C61.3568 29.1836 61.2929 29.1316 61.2208 29.0937C61.1487 29.0558 61.0699 29.0327 60.989 29.0259C60.9081 29.019 60.8266 29.0284 60.7493 29.0536C60.672 29.0788 60.6004 29.1193 60.5386 29.1727C60.4768 29.2261 60.426 29.2913 60.3892 29.3647C60.3524 29.4381 60.3303 29.5182 60.3241 29.6003C60.318 29.6824 60.3279 29.7649 60.3534 29.8431C60.8577 31.4318 61.44 32.994 62.0982 34.5237C62.1027 34.5352 62.1075 34.5465 62.1126 34.5577C62.1271 34.5914 62.1413 34.6251 62.1558 34.6587L60.9496 34.2015C60.7969 34.1443 60.6281 34.1508 60.4801 34.2195C60.3322 34.2882 60.2171 34.4136 60.1601 34.5682C60.1031 34.7228 60.1088 34.894 60.176 35.0443C60.2432 35.1946 60.3664 35.3118 60.5187 35.3702L62.8878 36.2683C63.0819 36.6762 63.2811 37.0811 63.4853 37.483C63.6219 37.7512 63.7612 38.0183 63.9033 38.2841L62.4439 37.7309C62.3682 37.7019 62.2875 37.6882 62.2065 37.6909C62.1256 37.6935 62.0459 37.7123 61.9722 37.7462C61.8984 37.7801 61.832 37.8285 61.7767 37.8885C61.7214 37.9485 61.6783 38.019 61.6499 38.096C61.6216 38.1729 61.6085 38.2548 61.6114 38.3368C61.6143 38.4189 61.6331 38.4996 61.6669 38.5743C61.7006 38.649 61.7485 38.7162 61.8079 38.772C61.8674 38.8279 61.937 38.8712 62.013 38.8997L64.8456 39.9735C64.9095 40.0833 64.9745 40.1928 65.0392 40.3022H59.4061C58.8843 39.5199 58.5746 38.7065 58.5294 37.9859C58.4951 37.4379 58.6116 36.994 58.735 36.5239C58.9212 35.8145 59.1322 35.0103 58.733 33.9506C58.3512 32.9363 57.672 32.3932 57.1262 31.9569ZM83.0194 57.6701C83.0185 58.4873 82.698 59.2707 82.1282 59.8485C81.5584 60.4263 80.7859 60.7513 79.9801 60.7522H68.0199C67.2141 60.7513 66.4416 60.4263 65.8718 59.8484C65.3021 59.2706 64.9816 58.4872 64.9807 57.6701V56.2349C66.1342 56.5071 67.3147 56.6442 68.499 56.6436H79.501C80.6852 56.6441 81.8655 56.5081 83.0193 56.2382L83.0194 57.6701ZM89.5908 51.1579C87.8999 52.8796 85.8067 54.1394 83.5064 54.8198C83.48 54.8256 83.454 54.8333 83.4286 54.8426C82.151 55.2107 80.8292 55.3968 79.5011 55.3958H68.499C60.8373 55.3958 54.5667 49.2405 54.2436 41.5501H93.7566C93.6125 45.1708 92.1245 48.6026 89.5908 51.1579Z"/>
<path d="M54.4004 76.5918H56.1055C56.1445 76.9355 56.3262 77.2148 56.6504 77.4297C56.9785 77.6406 57.3789 77.7461 57.8516 77.7461C58.3203 77.7461 58.7012 77.6465 58.9941 77.4473C59.291 77.2441 59.4395 76.9863 59.4395 76.6738C59.4395 76.4004 59.3301 76.1797 59.1113 76.0117C58.8926 75.8438 58.5273 75.7031 58.0156 75.5898L56.9141 75.3496C55.3633 75.0176 54.5879 74.2305 54.5879 72.9883C54.5879 72.2148 54.8887 71.5898 55.4902 71.1133C56.0957 70.6367 56.873 70.3984 57.8223 70.3984C58.7988 70.3984 59.5781 70.6309 60.1602 71.0957C60.7422 71.5566 61.041 72.1719 61.0566 72.9414H59.3984C59.3711 72.5859 59.2129 72.3066 58.9238 72.1035C58.6387 71.8965 58.2734 71.793 57.8281 71.793C57.3906 71.793 57.0371 71.8887 56.7676 72.0801C56.502 72.2715 56.3691 72.5234 56.3691 72.8359C56.3691 73.0938 56.4766 73.3027 56.6914 73.4629C56.9102 73.623 57.2637 73.7598 57.752 73.873L58.7773 74.0898C59.625 74.2695 60.2422 74.5508 60.6289 74.9336C61.0156 75.3125 61.209 75.8242 61.209 76.4688C61.209 77.2891 60.9004 77.9414 60.2832 78.4258C59.666 78.9062 58.832 79.1465 57.7812 79.1465C56.7617 79.1465 55.9492 78.9199 55.3438 78.4668C54.7422 78.0098 54.4277 77.3848 54.4004 76.5918Z"/>
<path d="M64.5781 77.8633C64.957 77.8633 65.2773 77.7539 65.5391 77.5352C65.8047 77.3125 65.9375 77.0332 65.9375 76.6973V76.2402L64.6133 76.3223C64.293 76.3457 64.0449 76.4258 63.8691 76.5625C63.6973 76.6992 63.6113 76.8789 63.6113 77.1016C63.6113 77.3359 63.6992 77.5215 63.875 77.6582C64.0508 77.7949 64.2852 77.8633 64.5781 77.8633ZM64.0156 79.0996C63.4102 79.0996 62.9082 78.9219 62.5098 78.5664C62.1113 78.2109 61.9121 77.7539 61.9121 77.1953C61.9121 76.625 62.123 76.1777 62.5449 75.8535C62.9668 75.5293 63.5703 75.3438 64.3555 75.2969L65.9375 75.2031V74.7871C65.9375 74.498 65.8418 74.2715 65.6504 74.1074C65.4629 73.9434 65.207 73.8613 64.8828 73.8613C64.5703 73.8613 64.3145 73.9316 64.1152 74.0723C63.9199 74.2129 63.8008 74.4023 63.7578 74.6406H62.1934C62.2246 74.0234 62.4883 73.5273 62.9844 73.1523C63.4805 72.7734 64.1387 72.584 64.959 72.584C65.7637 72.584 66.4082 72.7754 66.8926 73.1582C67.377 73.541 67.6191 74.0488 67.6191 74.6816V79H65.9668V78.0391H65.9316C65.7598 78.3672 65.498 78.627 65.1465 78.8184C64.7949 79.0059 64.418 79.0996 64.0156 79.0996Z"/>
<path d="M68.7676 79V70.5449H70.4785V79H68.7676Z"/>
<path d="M74.0586 77.8633C74.4375 77.8633 74.7578 77.7539 75.0195 77.5352C75.2852 77.3125 75.418 77.0332 75.418 76.6973V76.2402L74.0938 76.3223C73.7734 76.3457 73.5254 76.4258 73.3496 76.5625C73.1777 76.6992 73.0918 76.8789 73.0918 77.1016C73.0918 77.3359 73.1797 77.5215 73.3555 77.6582C73.5312 77.7949 73.7656 77.8633 74.0586 77.8633ZM73.4961 79.0996C72.8906 79.0996 72.3887 78.9219 71.9902 78.5664C71.5918 78.2109 71.3926 77.7539 71.3926 77.1953C71.3926 76.625 71.6035 76.1777 72.0254 75.8535C72.4473 75.5293 73.0508 75.3438 73.8359 75.2969L75.418 75.2031V74.7871C75.418 74.498 75.3223 74.2715 75.1309 74.1074C74.9434 73.9434 74.6875 73.8613 74.3633 73.8613C74.0508 73.8613 73.7949 73.9316 73.5957 74.0723C73.4004 74.2129 73.2812 74.4023 73.2383 74.6406H71.6738C71.7051 74.0234 71.9688 73.5273 72.4648 73.1523C72.9609 72.7734 73.6191 72.584 74.4395 72.584C75.2441 72.584 75.8887 72.7754 76.373 73.1582C76.8574 73.541 77.0996 74.0488 77.0996 74.6816V79H75.4473V78.0391H75.4121C75.2402 78.3672 74.9785 78.627 74.627 78.8184C74.2754 79.0059 73.8984 79.0996 73.4961 79.0996Z"/>
<path d="M80.5391 79.0996C79.7539 79.0996 79.1309 78.8086 78.6699 78.2266C78.209 77.6445 77.9785 76.8516 77.9785 75.8477C77.9785 74.8516 78.209 74.0645 78.6699 73.4863C79.1348 72.9082 79.7617 72.6191 80.5508 72.6191C80.9961 72.6191 81.3867 72.7266 81.7227 72.9414C82.0625 73.1562 82.3105 73.4414 82.4668 73.7969H82.502V70.5449H84.2129V79H82.5254V77.9219H82.4961C82.3398 78.2773 82.0879 78.5625 81.7402 78.7773C81.3926 78.9922 80.9922 79.0996 80.5391 79.0996ZM81.1191 73.9902C80.6895 73.9902 80.3496 74.1582 80.0996 74.4941C79.8535 74.8301 79.7305 75.2852 79.7305 75.8594C79.7305 76.4375 79.8535 76.8926 80.0996 77.2246C80.3496 77.5566 80.6895 77.7227 81.1191 77.7227C81.5449 77.7227 81.8828 77.5566 82.1328 77.2246C82.3867 76.8887 82.5137 76.4336 82.5137 75.8594C82.5137 75.2891 82.3867 74.8359 82.1328 74.5C81.8828 74.1602 81.5449 73.9902 81.1191 73.9902Z"/>
<path d="M85.25 74.5645C85.25 73.9668 85.4902 73.4883 85.9707 73.1289C86.4512 72.7656 87.0938 72.584 87.8984 72.584C88.6836 72.584 89.3145 72.7676 89.791 73.1348C90.2676 73.502 90.5117 73.9902 90.5234 74.5996H88.9473C88.9277 74.3457 88.8223 74.1465 88.6309 74.002C88.4434 73.8574 88.1914 73.7852 87.875 73.7852C87.5781 73.7852 87.3398 73.8477 87.1602 73.9727C86.9844 74.0938 86.8965 74.2559 86.8965 74.459C86.8965 74.7637 87.1699 74.9805 87.7168 75.1094L88.918 75.3672C89.5469 75.5078 89.998 75.7129 90.2715 75.9824C90.5488 76.248 90.6875 76.6152 90.6875 77.084C90.6875 77.7012 90.4297 78.1973 89.9141 78.5723C89.3984 78.9473 88.7246 79.1348 87.8926 79.1348C87.0645 79.1348 86.4023 78.9512 85.9062 78.584C85.4102 78.2168 85.1387 77.7227 85.0918 77.1016H86.7617C86.8047 77.3672 86.9258 77.5723 87.125 77.7168C87.3281 77.8613 87.5996 77.9336 87.9395 77.9336C88.2637 77.9336 88.5176 77.875 88.7012 77.7578C88.8887 77.6367 88.9824 77.4727 88.9824 77.2656C88.9824 77.1055 88.9238 76.9785 88.8066 76.8848C88.6895 76.7871 88.4902 76.7051 88.209 76.6387L87.0488 76.3809C85.8496 76.1074 85.25 75.502 85.25 74.5645Z"/>
</mask>
<path d="M11 36C11 22.1929 22.1929 11 36 11H110C123.807 11 135 22.1929 135 36V73C135 86.8071 123.807 98 110 98H36C22.1929 98 11 86.8071 11 73V36Z" fill="#2E3235"/>
<path d="M94.3848 40.3022H91.711C91.6095 39.8327 91.4552 39.3765 91.2511 38.9427C90.9828 38.325 90.7891 37.8786 90.9398 37.1633C91.0924 36.4387 91.5147 35.9778 91.923 35.532C92.4021 35.0091 92.9451 34.4163 92.8455 33.4987C92.7496 32.6104 92.1475 32.2082 91.6163 31.8533C91.1937 31.571 90.7945 31.3043 90.513 30.7714C90.0089 29.817 90.3341 28.7912 90.6488 27.7993C90.9677 26.7939 91.2974 25.7542 90.6172 24.9123C90.208 24.4059 89.485 24.1078 88.5812 24.0729C87.3462 24.0252 85.6133 24.4942 84.5244 25.6495C83.8119 26.4057 83.6078 27.2103 83.4277 27.9201C83.2415 28.654 83.0944 29.2337 82.4475 29.7652C82.007 30.127 81.6447 30.2104 81.2611 30.2987C80.7859 30.4081 80.2473 30.5321 79.7912 31.155C79.1376 32.0481 79.3784 32.9858 79.5909 33.8131C79.7738 34.5251 79.9629 35.2613 79.7183 36.1295C79.6984 36.2 79.6762 36.2667 79.6527 36.332C79.3841 36.2789 79.1111 36.252 78.8374 36.2519C78.79 36.2519 78.743 36.2548 78.6959 36.2563C78.687 36.2341 78.6769 36.2124 78.6655 36.1914C78.1708 35.2834 77.5096 34.9136 76.9783 34.6165C76.5001 34.349 76.1546 34.1559 75.9047 33.6337C75.6391 33.0783 75.6884 32.5749 75.7406 32.042C75.8023 31.4123 75.8792 30.6286 75.2226 29.9979C74.7702 29.564 74.3065 29.5306 73.934 29.5037C73.637 29.4823 73.3806 29.4638 73.0315 29.265C72.5238 28.9759 72.3621 28.613 72.1381 28.1109C71.9099 27.5994 71.6514 27.0196 70.9936 26.5275C69.7956 25.632 67.7656 25.4968 66.6781 26.17C66.4891 26.1347 66.298 26.1123 66.1061 26.1029C65.7135 26.0755 65.3427 26.0495 64.8526 25.7608C64.1332 25.3367 63.9 24.7871 63.6048 24.0911C63.319 23.4176 62.9953 22.6543 62.176 22.0182C60.9249 21.0464 59.1413 20.8535 57.9284 21.0934C57.041 21.2689 56.372 21.6763 56.0448 22.2401C55.5001 23.1781 55.9836 24.1541 56.4511 25.0978C56.9124 26.029 57.3894 26.992 57.0363 28.0134C56.8387 28.5836 56.4848 28.9093 56.1101 29.2544C55.6389 29.6881 55.1049 30.1798 55.145 31.072C55.1855 31.9946 55.8118 32.4952 56.3643 32.9369C56.8355 33.3135 57.3226 33.703 57.5834 34.3957C57.8408 35.079 57.7171 35.5504 57.5458 36.203C57.4092 36.7236 57.2543 37.3137 57.3014 38.065C57.3649 38.8504 57.5925 39.613 57.9692 40.3022H53.6152C53.4521 40.3022 53.2956 40.368 53.1802 40.485C53.0648 40.602 53 40.7607 53 40.9262C53 47.9135 57.5199 53.8495 63.7502 55.8879V57.6701C63.7515 58.8181 64.2018 59.9186 65.0022 60.7303C65.8027 61.5421 66.8879 61.9987 68.0199 62H79.9801C81.1121 61.9987 82.1973 61.5421 82.9978 60.7303C83.7982 59.9186 84.2485 58.8181 84.2498 57.6701V55.8946C87.3718 54.8722 90.094 52.8727 92.0255 50.1834C93.9569 47.494 94.9983 44.2532 95 40.9262C95 40.7607 94.9352 40.602 94.8198 40.485C94.7044 40.368 94.5479 40.3022 94.3848 40.3022ZM80.7792 31.8987C80.9548 31.6588 81.1101 31.6129 81.5334 31.5155C81.9662 31.4158 82.559 31.2794 83.222 30.7346C84.1847 29.9438 84.4156 29.0338 84.6194 28.231C84.7826 27.5876 84.9236 27.0321 85.414 26.5115C86.1167 25.7659 87.3991 25.2756 88.5344 25.3197C89.0651 25.3403 89.488 25.4836 89.6654 25.703C89.9036 25.9979 89.7533 26.5473 89.4774 27.4171C89.1211 28.5408 88.6776 29.9392 89.4284 31.3604C89.8571 32.1722 90.4572 32.5731 90.9394 32.8952C91.4209 33.2169 91.5921 33.3544 91.6224 33.6348C91.657 33.9536 91.4755 34.1871 91.0215 34.6827C90.5486 35.199 89.96 35.8414 89.7365 36.9025C89.5027 38.0123 89.8333 38.7736 90.125 39.4454C90.2532 39.7226 90.3612 40.009 90.4482 40.3022H85.7849C85.8644 40.0467 85.9423 39.7907 86.0186 39.5343L88.0696 38.3654C88.2118 38.2843 88.3165 38.1493 88.3605 37.9899C88.4046 37.8306 88.3844 37.66 88.3044 37.5158C88.2245 37.3716 88.0913 37.2654 87.9342 37.2208C87.7771 37.1761 87.6089 37.1966 87.4667 37.2776L86.4922 37.833C86.8989 36.276 87.242 34.6904 87.5114 33.1056C87.5264 33.0243 87.5254 32.9408 87.5083 32.86C87.4912 32.7791 87.4585 32.7024 87.412 32.6345C87.3654 32.5666 87.3061 32.5087 87.2373 32.4643C87.1685 32.4198 87.0917 32.3897 87.0113 32.3757C86.9309 32.3616 86.8486 32.3639 86.7691 32.3824C86.6896 32.4009 86.6145 32.4352 86.5483 32.4834C86.482 32.5316 86.4258 32.5927 86.383 32.6631C86.3402 32.7335 86.3116 32.8118 86.2989 32.8935C86.1149 33.9729 85.8982 35.0464 85.6492 36.1124L85.0445 34.6227C85.0138 34.5469 84.9686 34.4781 84.9116 34.42C84.8546 34.3619 84.7869 34.3158 84.7123 34.2843C84.6377 34.2528 84.5577 34.2365 84.4769 34.2363C84.3961 34.2361 84.3161 34.2521 84.2414 34.2833C84.1667 34.3145 84.0988 34.3603 84.0415 34.4181C83.9842 34.4759 83.9388 34.5446 83.9077 34.6202C83.8449 34.7729 83.8446 34.9447 83.9067 35.0977L85.1376 38.1303C85.1123 38.2228 85.0878 38.3158 85.0619 38.408C85.0122 38.5856 84.9614 38.763 84.9094 38.9401L84.9067 38.9497C84.7749 39.402 84.6369 39.8528 84.4928 40.3022H83.0917C83.0446 39.561 82.8103 38.8445 82.4113 38.2217C82.0123 37.5989 81.462 37.0907 80.8133 36.7459C80.8457 36.6557 80.8751 36.5644 80.9014 36.4722C81.2383 35.2763 80.985 34.2905 80.7816 33.4984C80.5814 32.7186 80.4905 32.2933 80.7792 31.8987ZM78.8374 37.4997C79.5948 37.5007 80.3244 37.7887 80.8832 38.3072C81.4419 38.8257 81.7894 39.5373 81.8574 40.3022H76.9393C76.9035 39.7188 76.7511 39.1489 76.4912 38.6271C76.775 38.2741 77.1328 37.9896 77.5387 37.7946C77.9446 37.5996 78.3882 37.4988 78.8374 37.4997ZM70.2632 27.5317C70.6625 27.8305 70.8189 28.1812 71.0169 28.6252C71.263 29.1767 71.5692 29.8632 72.429 30.353C72.8631 30.5989 73.3495 30.7345 73.8466 30.7484C74.1552 30.7706 74.2499 30.7825 74.3768 30.9042C74.5772 31.0967 74.5745 31.3224 74.5161 31.9185C74.4556 32.5365 74.3802 33.3055 74.7976 34.1784C75.2183 35.0572 75.8377 35.4036 76.3841 35.7091C76.7706 35.9253 77.114 36.1176 77.4029 36.5041C76.7803 36.7285 76.218 37.0976 75.7612 37.5818C75.364 37.1603 74.8866 36.8251 74.3578 36.5965C73.829 36.3679 73.2599 36.2507 72.685 36.2519C72.6421 36.2519 72.5996 36.2539 72.5569 36.2552C72.4589 35.8594 72.3151 35.4767 72.1285 35.1151C71.5131 33.9303 70.7092 33.4647 69.9998 33.0541C69.3677 32.6881 68.8684 32.399 68.5153 31.6237C68.1418 30.8038 68.2168 30.0469 68.2893 29.3149C68.363 28.572 68.4451 27.7425 67.944 27.0244C68.6394 26.9182 69.6143 27.0466 70.2632 27.5317ZM75.7044 40.3022H69.6649C69.7314 39.5366 70.0783 38.8239 70.6373 38.3048C71.1963 37.7857 71.9267 37.4978 72.6847 37.4978C73.4426 37.4978 74.1731 37.7857 74.7321 38.3048C75.291 38.8239 75.6379 39.5366 75.7044 40.3022ZM57.1262 31.9569C56.6028 31.5386 56.3883 31.3364 56.3742 31.016C56.3616 30.7344 56.51 30.5716 56.9373 30.1783C57.3646 29.7848 57.8965 29.2951 58.1973 28.4266C58.7235 26.9051 58.0732 25.5924 57.5508 24.5377C57.1463 23.7213 56.9145 23.2018 57.1053 22.8732C57.2472 22.6286 57.643 22.4211 58.1641 22.3181C59.2783 22.0978 60.6205 22.3817 61.428 23.0088C61.9921 23.4468 62.2156 23.9739 62.4745 24.5843C62.7975 25.3455 63.1635 26.2084 64.2345 26.8396C64.9724 27.2744 65.5787 27.3168 66.0214 27.3478C66.4544 27.3781 66.6147 27.3992 66.8245 27.6089C67.1699 27.954 67.1446 28.3884 67.0651 29.1901C66.9844 30.0045 66.884 31.0179 67.3983 32.147C67.9164 33.2847 68.6992 33.7379 69.3898 34.1377C70.0348 34.5112 70.5916 34.8335 71.0398 35.6965C71.1675 35.9437 71.2687 36.204 71.3417 36.4731C70.5362 36.7456 69.8291 37.2555 69.3107 37.9375C68.7923 38.6196 68.4861 39.4428 68.4312 40.3022H66.4808C66.1168 39.7092 65.7655 39.1088 65.427 38.5011L66.1855 35.3036C66.2237 35.1427 66.1973 34.9731 66.1121 34.8319C66.0269 34.6908 65.8899 34.5898 65.7313 34.5511C65.5726 34.5123 65.4053 34.5391 65.2662 34.6255C65.127 34.7119 65.0274 34.8508 64.9892 35.0117L64.5517 36.856C64.1173 36.0009 63.7075 35.1315 63.3223 34.2479L64.0079 31.8369C64.0302 31.7581 64.0371 31.6757 64.0281 31.5943C64.0191 31.5129 63.9943 31.434 63.9552 31.3623C63.9162 31.2906 63.8636 31.2274 63.8004 31.1763C63.7373 31.1252 63.6648 31.0872 63.5872 31.0645C63.5095 31.0418 63.4282 31.0348 63.348 31.044C63.2677 31.0531 63.1899 31.0782 63.1192 31.1179C63.0485 31.1575 62.9862 31.2108 62.9358 31.2749C62.8854 31.3389 62.8479 31.4124 62.8255 31.4911L62.5645 32.4092C62.1865 31.4369 61.8399 30.4543 61.5248 29.4613C61.5005 29.3827 61.4612 29.3098 61.409 29.2467C61.3568 29.1836 61.2929 29.1316 61.2208 29.0937C61.1487 29.0558 61.0699 29.0327 60.989 29.0259C60.9081 29.019 60.8266 29.0284 60.7493 29.0536C60.672 29.0788 60.6004 29.1193 60.5386 29.1727C60.4768 29.2261 60.426 29.2913 60.3892 29.3647C60.3524 29.4381 60.3303 29.5182 60.3241 29.6003C60.318 29.6824 60.3279 29.7649 60.3534 29.8431C60.8577 31.4318 61.44 32.994 62.0982 34.5237C62.1027 34.5352 62.1075 34.5465 62.1126 34.5577C62.1271 34.5914 62.1413 34.6251 62.1558 34.6587L60.9496 34.2015C60.7969 34.1443 60.6281 34.1508 60.4801 34.2195C60.3322 34.2882 60.2171 34.4136 60.1601 34.5682C60.1031 34.7228 60.1088 34.894 60.176 35.0443C60.2432 35.1946 60.3664 35.3118 60.5187 35.3702L62.8878 36.2683C63.0819 36.6762 63.2811 37.0811 63.4853 37.483C63.6219 37.7512 63.7612 38.0183 63.9033 38.2841L62.4439 37.7309C62.3682 37.7019 62.2875 37.6882 62.2065 37.6909C62.1256 37.6935 62.0459 37.7123 61.9722 37.7462C61.8984 37.7801 61.832 37.8285 61.7767 37.8885C61.7214 37.9485 61.6783 38.019 61.6499 38.096C61.6216 38.1729 61.6085 38.2548 61.6114 38.3368C61.6143 38.4189 61.6331 38.4996 61.6669 38.5743C61.7006 38.649 61.7485 38.7162 61.8079 38.772C61.8674 38.8279 61.937 38.8712 62.013 38.8997L64.8456 39.9735C64.9095 40.0833 64.9745 40.1928 65.0392 40.3022H59.4061C58.8843 39.5199 58.5746 38.7065 58.5294 37.9859C58.4951 37.4379 58.6116 36.994 58.735 36.5239C58.9212 35.8145 59.1322 35.0103 58.733 33.9506C58.3512 32.9363 57.672 32.3932 57.1262 31.9569ZM83.0194 57.6701C83.0185 58.4873 82.698 59.2707 82.1282 59.8485C81.5584 60.4263 80.7859 60.7513 79.9801 60.7522H68.0199C67.2141 60.7513 66.4416 60.4263 65.8718 59.8484C65.3021 59.2706 64.9816 58.4872 64.9807 57.6701V56.2349C66.1342 56.5071 67.3147 56.6442 68.499 56.6436H79.501C80.6852 56.6441 81.8655 56.5081 83.0193 56.2382L83.0194 57.6701ZM89.5908 51.1579C87.8999 52.8796 85.8067 54.1394 83.5064 54.8198C83.48 54.8256 83.454 54.8333 83.4286 54.8426C82.151 55.2107 80.8292 55.3968 79.5011 55.3958H68.499C60.8373 55.3958 54.5667 49.2405 54.2436 41.5501H93.7566C93.6125 45.1708 92.1245 48.6026 89.5908 51.1579Z" fill="#F83103"/>
<path d="M54.4004 76.5918H56.1055C56.1445 76.9355 56.3262 77.2148 56.6504 77.4297C56.9785 77.6406 57.3789 77.7461 57.8516 77.7461C58.3203 77.7461 58.7012 77.6465 58.9941 77.4473C59.291 77.2441 59.4395 76.9863 59.4395 76.6738C59.4395 76.4004 59.3301 76.1797 59.1113 76.0117C58.8926 75.8438 58.5273 75.7031 58.0156 75.5898L56.9141 75.3496C55.3633 75.0176 54.5879 74.2305 54.5879 72.9883C54.5879 72.2148 54.8887 71.5898 55.4902 71.1133C56.0957 70.6367 56.873 70.3984 57.8223 70.3984C58.7988 70.3984 59.5781 70.6309 60.1602 71.0957C60.7422 71.5566 61.041 72.1719 61.0566 72.9414H59.3984C59.3711 72.5859 59.2129 72.3066 58.9238 72.1035C58.6387 71.8965 58.2734 71.793 57.8281 71.793C57.3906 71.793 57.0371 71.8887 56.7676 72.0801C56.502 72.2715 56.3691 72.5234 56.3691 72.8359C56.3691 73.0938 56.4766 73.3027 56.6914 73.4629C56.9102 73.623 57.2637 73.7598 57.752 73.873L58.7773 74.0898C59.625 74.2695 60.2422 74.5508 60.6289 74.9336C61.0156 75.3125 61.209 75.8242 61.209 76.4688C61.209 77.2891 60.9004 77.9414 60.2832 78.4258C59.666 78.9062 58.832 79.1465 57.7812 79.1465C56.7617 79.1465 55.9492 78.9199 55.3438 78.4668C54.7422 78.0098 54.4277 77.3848 54.4004 76.5918Z" fill="#F83103"/>
<path d="M64.5781 77.8633C64.957 77.8633 65.2773 77.7539 65.5391 77.5352C65.8047 77.3125 65.9375 77.0332 65.9375 76.6973V76.2402L64.6133 76.3223C64.293 76.3457 64.0449 76.4258 63.8691 76.5625C63.6973 76.6992 63.6113 76.8789 63.6113 77.1016C63.6113 77.3359 63.6992 77.5215 63.875 77.6582C64.0508 77.7949 64.2852 77.8633 64.5781 77.8633ZM64.0156 79.0996C63.4102 79.0996 62.9082 78.9219 62.5098 78.5664C62.1113 78.2109 61.9121 77.7539 61.9121 77.1953C61.9121 76.625 62.123 76.1777 62.5449 75.8535C62.9668 75.5293 63.5703 75.3438 64.3555 75.2969L65.9375 75.2031V74.7871C65.9375 74.498 65.8418 74.2715 65.6504 74.1074C65.4629 73.9434 65.207 73.8613 64.8828 73.8613C64.5703 73.8613 64.3145 73.9316 64.1152 74.0723C63.9199 74.2129 63.8008 74.4023 63.7578 74.6406H62.1934C62.2246 74.0234 62.4883 73.5273 62.9844 73.1523C63.4805 72.7734 64.1387 72.584 64.959 72.584C65.7637 72.584 66.4082 72.7754 66.8926 73.1582C67.377 73.541 67.6191 74.0488 67.6191 74.6816V79H65.9668V78.0391H65.9316C65.7598 78.3672 65.498 78.627 65.1465 78.8184C64.7949 79.0059 64.418 79.0996 64.0156 79.0996Z" fill="#F83103"/>
<path d="M68.7676 79V70.5449H70.4785V79H68.7676Z" fill="#F83103"/>
<path d="M74.0586 77.8633C74.4375 77.8633 74.7578 77.7539 75.0195 77.5352C75.2852 77.3125 75.418 77.0332 75.418 76.6973V76.2402L74.0938 76.3223C73.7734 76.3457 73.5254 76.4258 73.3496 76.5625C73.1777 76.6992 73.0918 76.8789 73.0918 77.1016C73.0918 77.3359 73.1797 77.5215 73.3555 77.6582C73.5312 77.7949 73.7656 77.8633 74.0586 77.8633ZM73.4961 79.0996C72.8906 79.0996 72.3887 78.9219 71.9902 78.5664C71.5918 78.2109 71.3926 77.7539 71.3926 77.1953C71.3926 76.625 71.6035 76.1777 72.0254 75.8535C72.4473 75.5293 73.0508 75.3438 73.8359 75.2969L75.418 75.2031V74.7871C75.418 74.498 75.3223 74.2715 75.1309 74.1074C74.9434 73.9434 74.6875 73.8613 74.3633 73.8613C74.0508 73.8613 73.7949 73.9316 73.5957 74.0723C73.4004 74.2129 73.2812 74.4023 73.2383 74.6406H71.6738C71.7051 74.0234 71.9688 73.5273 72.4648 73.1523C72.9609 72.7734 73.6191 72.584 74.4395 72.584C75.2441 72.584 75.8887 72.7754 76.373 73.1582C76.8574 73.541 77.0996 74.0488 77.0996 74.6816V79H75.4473V78.0391H75.4121C75.2402 78.3672 74.9785 78.627 74.627 78.8184C74.2754 79.0059 73.8984 79.0996 73.4961 79.0996Z" fill="#F83103"/>
<path d="M80.5391 79.0996C79.7539 79.0996 79.1309 78.8086 78.6699 78.2266C78.209 77.6445 77.9785 76.8516 77.9785 75.8477C77.9785 74.8516 78.209 74.0645 78.6699 73.4863C79.1348 72.9082 79.7617 72.6191 80.5508 72.6191C80.9961 72.6191 81.3867 72.7266 81.7227 72.9414C82.0625 73.1562 82.3105 73.4414 82.4668 73.7969H82.502V70.5449H84.2129V79H82.5254V77.9219H82.4961C82.3398 78.2773 82.0879 78.5625 81.7402 78.7773C81.3926 78.9922 80.9922 79.0996 80.5391 79.0996ZM81.1191 73.9902C80.6895 73.9902 80.3496 74.1582 80.0996 74.4941C79.8535 74.8301 79.7305 75.2852 79.7305 75.8594C79.7305 76.4375 79.8535 76.8926 80.0996 77.2246C80.3496 77.5566 80.6895 77.7227 81.1191 77.7227C81.5449 77.7227 81.8828 77.5566 82.1328 77.2246C82.3867 76.8887 82.5137 76.4336 82.5137 75.8594C82.5137 75.2891 82.3867 74.8359 82.1328 74.5C81.8828 74.1602 81.5449 73.9902 81.1191 73.9902Z" fill="#F83103"/>
<path d="M85.25 74.5645C85.25 73.9668 85.4902 73.4883 85.9707 73.1289C86.4512 72.7656 87.0938 72.584 87.8984 72.584C88.6836 72.584 89.3145 72.7676 89.791 73.1348C90.2676 73.502 90.5117 73.9902 90.5234 74.5996H88.9473C88.9277 74.3457 88.8223 74.1465 88.6309 74.002C88.4434 73.8574 88.1914 73.7852 87.875 73.7852C87.5781 73.7852 87.3398 73.8477 87.1602 73.9727C86.9844 74.0938 86.8965 74.2559 86.8965 74.459C86.8965 74.7637 87.1699 74.9805 87.7168 75.1094L88.918 75.3672C89.5469 75.5078 89.998 75.7129 90.2715 75.9824C90.5488 76.248 90.6875 76.6152 90.6875 77.084C90.6875 77.7012 90.4297 78.1973 89.9141 78.5723C89.3984 78.9473 88.7246 79.1348 87.8926 79.1348C87.0645 79.1348 86.4023 78.9512 85.9062 78.584C85.4102 78.2168 85.1387 77.7227 85.0918 77.1016H86.7617C86.8047 77.3672 86.9258 77.5723 87.125 77.7168C87.3281 77.8613 87.5996 77.9336 87.9395 77.9336C88.2637 77.9336 88.5176 77.875 88.7012 77.7578C88.8887 77.6367 88.9824 77.4727 88.9824 77.2656C88.9824 77.1055 88.9238 76.9785 88.8066 76.8848C88.6895 76.7871 88.4902 76.7051 88.209 76.6387L87.0488 76.3809C85.8496 76.1074 85.25 75.502 85.25 74.5645Z" fill="#F83103"/>
<path d="M11 36C11 22.1929 22.1929 11 36 11H110C123.807 11 135 22.1929 135 36V73C135 86.8071 123.807 98 110 98H36C22.1929 98 11 86.8071 11 73V36Z" stroke="#F83103" stroke-width="2" mask="url(#path-1-outside-1_356_203)"/>
<path d="M94.3848 40.3022H91.711C91.6095 39.8327 91.4552 39.3765 91.2511 38.9427C90.9828 38.325 90.7891 37.8786 90.9398 37.1633C91.0924 36.4387 91.5147 35.9778 91.923 35.532C92.4021 35.0091 92.9451 34.4163 92.8455 33.4987C92.7496 32.6104 92.1475 32.2082 91.6163 31.8533C91.1937 31.571 90.7945 31.3043 90.513 30.7714C90.0089 29.817 90.3341 28.7912 90.6488 27.7993C90.9677 26.7939 91.2974 25.7542 90.6172 24.9123C90.208 24.4059 89.485 24.1078 88.5812 24.0729C87.3462 24.0252 85.6133 24.4942 84.5244 25.6495C83.8119 26.4057 83.6078 27.2103 83.4277 27.9201C83.2415 28.654 83.0944 29.2337 82.4475 29.7652C82.007 30.127 81.6447 30.2104 81.2611 30.2987C80.7859 30.4081 80.2473 30.5321 79.7912 31.155C79.1376 32.0481 79.3784 32.9858 79.5909 33.8131C79.7738 34.5251 79.9629 35.2613 79.7183 36.1295C79.6984 36.2 79.6762 36.2667 79.6527 36.332C79.3841 36.2789 79.1111 36.252 78.8374 36.2519C78.79 36.2519 78.743 36.2548 78.6959 36.2563C78.687 36.2341 78.6769 36.2124 78.6655 36.1914C78.1708 35.2834 77.5096 34.9136 76.9783 34.6165C76.5001 34.349 76.1546 34.1559 75.9047 33.6337C75.6391 33.0783 75.6884 32.5749 75.7406 32.042C75.8023 31.4123 75.8792 30.6286 75.2226 29.9979C74.7702 29.564 74.3065 29.5306 73.934 29.5037C73.637 29.4823 73.3806 29.4638 73.0315 29.265C72.5238 28.9759 72.3621 28.613 72.1381 28.1109C71.9099 27.5994 71.6514 27.0196 70.9936 26.5275C69.7956 25.632 67.7656 25.4968 66.6781 26.17C66.4891 26.1347 66.298 26.1123 66.1061 26.1029C65.7135 26.0755 65.3427 26.0495 64.8526 25.7608C64.1332 25.3367 63.9 24.7871 63.6048 24.0911C63.319 23.4176 62.9953 22.6543 62.176 22.0182C60.9249 21.0464 59.1413 20.8535 57.9284 21.0934C57.041 21.2689 56.372 21.6763 56.0448 22.2401C55.5001 23.1781 55.9836 24.1541 56.4511 25.0978C56.9124 26.029 57.3894 26.992 57.0363 28.0134C56.8387 28.5836 56.4848 28.9093 56.1101 29.2544C55.6389 29.6881 55.1049 30.1798 55.145 31.072C55.1855 31.9946 55.8118 32.4952 56.3643 32.9369C56.8355 33.3135 57.3226 33.703 57.5834 34.3957C57.8408 35.079 57.7171 35.5504 57.5458 36.203C57.4092 36.7236 57.2543 37.3137 57.3014 38.065C57.3649 38.8504 57.5925 39.613 57.9692 40.3022H53.6152C53.4521 40.3022 53.2956 40.368 53.1802 40.485C53.0648 40.602 53 40.7607 53 40.9262C53 47.9135 57.5199 53.8495 63.7502 55.8879V57.6701C63.7515 58.8181 64.2018 59.9186 65.0022 60.7303C65.8027 61.5421 66.8879 61.9987 68.0199 62H79.9801C81.1121 61.9987 82.1973 61.5421 82.9978 60.7303C83.7982 59.9186 84.2485 58.8181 84.2498 57.6701V55.8946C87.3718 54.8722 90.094 52.8727 92.0255 50.1834C93.9569 47.494 94.9983 44.2532 95 40.9262C95 40.7607 94.9352 40.602 94.8198 40.485C94.7044 40.368 94.5479 40.3022 94.3848 40.3022ZM80.7792 31.8987C80.9548 31.6588 81.1101 31.6129 81.5334 31.5155C81.9662 31.4158 82.559 31.2794 83.222 30.7346C84.1847 29.9438 84.4156 29.0338 84.6194 28.231C84.7826 27.5876 84.9236 27.0321 85.414 26.5115C86.1167 25.7659 87.3991 25.2756 88.5344 25.3197C89.0651 25.3403 89.488 25.4836 89.6654 25.703C89.9036 25.9979 89.7533 26.5473 89.4774 27.4171C89.1211 28.5408 88.6776 29.9392 89.4284 31.3604C89.8571 32.1722 90.4572 32.5731 90.9394 32.8952C91.4209 33.2169 91.5921 33.3544 91.6224 33.6348C91.657 33.9536 91.4755 34.1871 91.0215 34.6827C90.5486 35.199 89.96 35.8414 89.7365 36.9025C89.5027 38.0123 89.8333 38.7736 90.125 39.4454C90.2532 39.7226 90.3612 40.009 90.4482 40.3022H85.7849C85.8644 40.0467 85.9423 39.7907 86.0186 39.5343L88.0696 38.3654C88.2118 38.2843 88.3165 38.1493 88.3605 37.9899C88.4046 37.8306 88.3844 37.66 88.3044 37.5158C88.2245 37.3716 88.0913 37.2654 87.9342 37.2208C87.7771 37.1761 87.6089 37.1966 87.4667 37.2776L86.4922 37.833C86.8989 36.276 87.242 34.6904 87.5114 33.1056C87.5264 33.0243 87.5254 32.9408 87.5083 32.86C87.4912 32.7791 87.4585 32.7024 87.412 32.6345C87.3654 32.5666 87.3061 32.5087 87.2373 32.4643C87.1685 32.4198 87.0917 32.3897 87.0113 32.3757C86.9309 32.3616 86.8486 32.3639 86.7691 32.3824C86.6896 32.4009 86.6145 32.4352 86.5483 32.4834C86.482 32.5316 86.4258 32.5927 86.383 32.6631C86.3402 32.7335 86.3116 32.8118 86.2989 32.8935C86.1149 33.9729 85.8982 35.0464 85.6492 36.1124L85.0445 34.6227C85.0138 34.5469 84.9686 34.4781 84.9116 34.42C84.8546 34.3619 84.7869 34.3158 84.7123 34.2843C84.6377 34.2528 84.5577 34.2365 84.4769 34.2363C84.3961 34.2361 84.3161 34.2521 84.2414 34.2833C84.1667 34.3145 84.0988 34.3603 84.0415 34.4181C83.9842 34.4759 83.9388 34.5446 83.9077 34.6202C83.8449 34.7729 83.8446 34.9447 83.9067 35.0977L85.1376 38.1303C85.1123 38.2228 85.0878 38.3158 85.0619 38.408C85.0122 38.5856 84.9614 38.763 84.9094 38.9401L84.9067 38.9497C84.7749 39.402 84.6369 39.8528 84.4928 40.3022H83.0917C83.0446 39.561 82.8103 38.8445 82.4113 38.2217C82.0123 37.5989 81.462 37.0907 80.8133 36.7459C80.8457 36.6557 80.8751 36.5644 80.9014 36.4722C81.2383 35.2763 80.985 34.2905 80.7816 33.4984C80.5814 32.7186 80.4905 32.2933 80.7792 31.8987ZM78.8374 37.4997C79.5948 37.5007 80.3244 37.7887 80.8832 38.3072C81.4419 38.8257 81.7894 39.5373 81.8574 40.3022H76.9393C76.9035 39.7188 76.7511 39.1489 76.4912 38.6271C76.775 38.2741 77.1328 37.9896 77.5387 37.7946C77.9446 37.5996 78.3882 37.4988 78.8374 37.4997ZM70.2632 27.5317C70.6625 27.8305 70.8189 28.1812 71.0169 28.6252C71.263 29.1767 71.5692 29.8632 72.429 30.353C72.8631 30.5989 73.3495 30.7345 73.8466 30.7484C74.1552 30.7706 74.2499 30.7825 74.3768 30.9042C74.5772 31.0967 74.5745 31.3224 74.5161 31.9185C74.4556 32.5365 74.3802 33.3055 74.7976 34.1784C75.2183 35.0572 75.8377 35.4036 76.3841 35.7091C76.7706 35.9253 77.114 36.1176 77.4029 36.5041C76.7803 36.7285 76.218 37.0976 75.7612 37.5818C75.364 37.1603 74.8866 36.8251 74.3578 36.5965C73.829 36.3679 73.2599 36.2507 72.685 36.2519C72.6421 36.2519 72.5996 36.2539 72.5569 36.2552C72.4589 35.8594 72.3151 35.4767 72.1285 35.1151C71.5131 33.9303 70.7092 33.4647 69.9998 33.0541C69.3677 32.6881 68.8684 32.399 68.5153 31.6237C68.1418 30.8038 68.2168 30.0469 68.2893 29.3149C68.363 28.572 68.4451 27.7425 67.944 27.0244C68.6394 26.9182 69.6143 27.0466 70.2632 27.5317ZM75.7044 40.3022H69.6649C69.7314 39.5366 70.0783 38.8239 70.6373 38.3048C71.1963 37.7857 71.9267 37.4978 72.6847 37.4978C73.4426 37.4978 74.1731 37.7857 74.7321 38.3048C75.291 38.8239 75.6379 39.5366 75.7044 40.3022ZM57.1262 31.9569C56.6028 31.5386 56.3883 31.3364 56.3742 31.016C56.3616 30.7344 56.51 30.5716 56.9373 30.1783C57.3646 29.7848 57.8965 29.2951 58.1973 28.4266C58.7235 26.9051 58.0732 25.5924 57.5508 24.5377C57.1463 23.7213 56.9145 23.2018 57.1053 22.8732C57.2472 22.6286 57.643 22.4211 58.1641 22.3181C59.2783 22.0978 60.6205 22.3817 61.428 23.0088C61.9921 23.4468 62.2156 23.9739 62.4745 24.5843C62.7975 25.3455 63.1635 26.2084 64.2345 26.8396C64.9724 27.2744 65.5787 27.3168 66.0214 27.3478C66.4544 27.3781 66.6147 27.3992 66.8245 27.6089C67.1699 27.954 67.1446 28.3884 67.0651 29.1901C66.9844 30.0045 66.884 31.0179 67.3983 32.147C67.9164 33.2847 68.6992 33.7379 69.3898 34.1377C70.0348 34.5112 70.5916 34.8335 71.0398 35.6965C71.1675 35.9437 71.2687 36.204 71.3417 36.4731C70.5362 36.7456 69.8291 37.2555 69.3107 37.9375C68.7923 38.6196 68.4861 39.4428 68.4312 40.3022H66.4808C66.1168 39.7092 65.7655 39.1088 65.427 38.5011L66.1855 35.3036C66.2237 35.1427 66.1973 34.9731 66.1121 34.8319C66.0269 34.6908 65.8899 34.5898 65.7313 34.5511C65.5726 34.5123 65.4053 34.5391 65.2662 34.6255C65.127 34.7119 65.0274 34.8508 64.9892 35.0117L64.5517 36.856C64.1173 36.0009 63.7075 35.1315 63.3223 34.2479L64.0079 31.8369C64.0302 31.7581 64.0371 31.6757 64.0281 31.5943C64.0191 31.5129 63.9943 31.434 63.9552 31.3623C63.9162 31.2906 63.8636 31.2274 63.8004 31.1763C63.7373 31.1252 63.6648 31.0872 63.5872 31.0645C63.5095 31.0418 63.4282 31.0348 63.348 31.044C63.2677 31.0531 63.1899 31.0782 63.1192 31.1179C63.0485 31.1575 62.9862 31.2108 62.9358 31.2749C62.8854 31.3389 62.8479 31.4124 62.8255 31.4911L62.5645 32.4092C62.1865 31.4369 61.8399 30.4543 61.5248 29.4613C61.5005 29.3827 61.4612 29.3098 61.409 29.2467C61.3568 29.1836 61.2929 29.1316 61.2208 29.0937C61.1487 29.0558 61.0699 29.0327 60.989 29.0259C60.9081 29.019 60.8266 29.0284 60.7493 29.0536C60.672 29.0788 60.6004 29.1193 60.5386 29.1727C60.4768 29.2261 60.426 29.2913 60.3892 29.3647C60.3524 29.4381 60.3303 29.5182 60.3241 29.6003C60.318 29.6824 60.3279 29.7649 60.3534 29.8431C60.8577 31.4318 61.44 32.994 62.0982 34.5237C62.1027 34.5352 62.1075 34.5465 62.1126 34.5577C62.1271 34.5914 62.1413 34.6251 62.1558 34.6587L60.9496 34.2015C60.7969 34.1443 60.6281 34.1508 60.4801 34.2195C60.3322 34.2882 60.2171 34.4136 60.1601 34.5682C60.1031 34.7228 60.1088 34.894 60.176 35.0443C60.2432 35.1946 60.3664 35.3118 60.5187 35.3702L62.8878 36.2683C63.0819 36.6762 63.2811 37.0811 63.4853 37.483C63.6219 37.7512 63.7612 38.0183 63.9033 38.2841L62.4439 37.7309C62.3682 37.7019 62.2875 37.6882 62.2065 37.6909C62.1256 37.6935 62.0459 37.7123 61.9722 37.7462C61.8984 37.7801 61.832 37.8285 61.7767 37.8885C61.7214 37.9485 61.6783 38.019 61.6499 38.096C61.6216 38.1729 61.6085 38.2548 61.6114 38.3368C61.6143 38.4189 61.6331 38.4996 61.6669 38.5743C61.7006 38.649 61.7485 38.7162 61.8079 38.772C61.8674 38.8279 61.937 38.8712 62.013 38.8997L64.8456 39.9735C64.9095 40.0833 64.9745 40.1928 65.0392 40.3022H59.4061C58.8843 39.5199 58.5746 38.7065 58.5294 37.9859C58.4951 37.4379 58.6116 36.994 58.735 36.5239C58.9212 35.8145 59.1322 35.0103 58.733 33.9506C58.3512 32.9363 57.672 32.3932 57.1262 31.9569ZM83.0194 57.6701C83.0185 58.4873 82.698 59.2707 82.1282 59.8485C81.5584 60.4263 80.7859 60.7513 79.9801 60.7522H68.0199C67.2141 60.7513 66.4416 60.4263 65.8718 59.8484C65.3021 59.2706 64.9816 58.4872 64.9807 57.6701V56.2349C66.1342 56.5071 67.3147 56.6442 68.499 56.6436H79.501C80.6852 56.6441 81.8655 56.5081 83.0193 56.2382L83.0194 57.6701ZM89.5908 51.1579C87.8999 52.8796 85.8067 54.1394 83.5064 54.8198C83.48 54.8256 83.454 54.8333 83.4286 54.8426C82.151 55.2107 80.8292 55.3968 79.5011 55.3958H68.499C60.8373 55.3958 54.5667 49.2405 54.2436 41.5501H93.7566C93.6125 45.1708 92.1245 48.6026 89.5908 51.1579Z" stroke="#F83103" stroke-width="2" mask="url(#path-1-outside-1_356_203)"/>
<path d="M54.4004 76.5918H56.1055C56.1445 76.9355 56.3262 77.2148 56.6504 77.4297C56.9785 77.6406 57.3789 77.7461 57.8516 77.7461C58.3203 77.7461 58.7012 77.6465 58.9941 77.4473C59.291 77.2441 59.4395 76.9863 59.4395 76.6738C59.4395 76.4004 59.3301 76.1797 59.1113 76.0117C58.8926 75.8438 58.5273 75.7031 58.0156 75.5898L56.9141 75.3496C55.3633 75.0176 54.5879 74.2305 54.5879 72.9883C54.5879 72.2148 54.8887 71.5898 55.4902 71.1133C56.0957 70.6367 56.873 70.3984 57.8223 70.3984C58.7988 70.3984 59.5781 70.6309 60.1602 71.0957C60.7422 71.5566 61.041 72.1719 61.0566 72.9414H59.3984C59.3711 72.5859 59.2129 72.3066 58.9238 72.1035C58.6387 71.8965 58.2734 71.793 57.8281 71.793C57.3906 71.793 57.0371 71.8887 56.7676 72.0801C56.502 72.2715 56.3691 72.5234 56.3691 72.8359C56.3691 73.0938 56.4766 73.3027 56.6914 73.4629C56.9102 73.623 57.2637 73.7598 57.752 73.873L58.7773 74.0898C59.625 74.2695 60.2422 74.5508 60.6289 74.9336C61.0156 75.3125 61.209 75.8242 61.209 76.4688C61.209 77.2891 60.9004 77.9414 60.2832 78.4258C59.666 78.9062 58.832 79.1465 57.7812 79.1465C56.7617 79.1465 55.9492 78.9199 55.3438 78.4668C54.7422 78.0098 54.4277 77.3848 54.4004 76.5918Z" stroke="#F83103" stroke-width="2" mask="url(#path-1-outside-1_356_203)"/>
<path d="M64.5781 77.8633C64.957 77.8633 65.2773 77.7539 65.5391 77.5352C65.8047 77.3125 65.9375 77.0332 65.9375 76.6973V76.2402L64.6133 76.3223C64.293 76.3457 64.0449 76.4258 63.8691 76.5625C63.6973 76.6992 63.6113 76.8789 63.6113 77.1016C63.6113 77.3359 63.6992 77.5215 63.875 77.6582C64.0508 77.7949 64.2852 77.8633 64.5781 77.8633ZM64.0156 79.0996C63.4102 79.0996 62.9082 78.9219 62.5098 78.5664C62.1113 78.2109 61.9121 77.7539 61.9121 77.1953C61.9121 76.625 62.123 76.1777 62.5449 75.8535C62.9668 75.5293 63.5703 75.3438 64.3555 75.2969L65.9375 75.2031V74.7871C65.9375 74.498 65.8418 74.2715 65.6504 74.1074C65.4629 73.9434 65.207 73.8613 64.8828 73.8613C64.5703 73.8613 64.3145 73.9316 64.1152 74.0723C63.9199 74.2129 63.8008 74.4023 63.7578 74.6406H62.1934C62.2246 74.0234 62.4883 73.5273 62.9844 73.1523C63.4805 72.7734 64.1387 72.584 64.959 72.584C65.7637 72.584 66.4082 72.7754 66.8926 73.1582C67.377 73.541 67.6191 74.0488 67.6191 74.6816V79H65.9668V78.0391H65.9316C65.7598 78.3672 65.498 78.627 65.1465 78.8184C64.7949 79.0059 64.418 79.0996 64.0156 79.0996Z" stroke="#F83103" stroke-width="2" mask="url(#path-1-outside-1_356_203)"/>
<path d="M68.7676 79V70.5449H70.4785V79H68.7676Z" stroke="#F83103" stroke-width="2" mask="url(#path-1-outside-1_356_203)"/>
<path d="M74.0586 77.8633C74.4375 77.8633 74.7578 77.7539 75.0195 77.5352C75.2852 77.3125 75.418 77.0332 75.418 76.6973V76.2402L74.0938 76.3223C73.7734 76.3457 73.5254 76.4258 73.3496 76.5625C73.1777 76.6992 73.0918 76.8789 73.0918 77.1016C73.0918 77.3359 73.1797 77.5215 73.3555 77.6582C73.5312 77.7949 73.7656 77.8633 74.0586 77.8633ZM73.4961 79.0996C72.8906 79.0996 72.3887 78.9219 71.9902 78.5664C71.5918 78.2109 71.3926 77.7539 71.3926 77.1953C71.3926 76.625 71.6035 76.1777 72.0254 75.8535C72.4473 75.5293 73.0508 75.3438 73.8359 75.2969L75.418 75.2031V74.7871C75.418 74.498 75.3223 74.2715 75.1309 74.1074C74.9434 73.9434 74.6875 73.8613 74.3633 73.8613C74.0508 73.8613 73.7949 73.9316 73.5957 74.0723C73.4004 74.2129 73.2812 74.4023 73.2383 74.6406H71.6738C71.7051 74.0234 71.9688 73.5273 72.4648 73.1523C72.9609 72.7734 73.6191 72.584 74.4395 72.584C75.2441 72.584 75.8887 72.7754 76.373 73.1582C76.8574 73.541 77.0996 74.0488 77.0996 74.6816V79H75.4473V78.0391H75.4121C75.2402 78.3672 74.9785 78.627 74.627 78.8184C74.2754 79.0059 73.8984 79.0996 73.4961 79.0996Z" stroke="#F83103" stroke-width="2" mask="url(#path-1-outside-1_356_203)"/>
<path d="M80.5391 79.0996C79.7539 79.0996 79.1309 78.8086 78.6699 78.2266C78.209 77.6445 77.9785 76.8516 77.9785 75.8477C77.9785 74.8516 78.209 74.0645 78.6699 73.4863C79.1348 72.9082 79.7617 72.6191 80.5508 72.6191C80.9961 72.6191 81.3867 72.7266 81.7227 72.9414C82.0625 73.1562 82.3105 73.4414 82.4668 73.7969H82.502V70.5449H84.2129V79H82.5254V77.9219H82.4961C82.3398 78.2773 82.0879 78.5625 81.7402 78.7773C81.3926 78.9922 80.9922 79.0996 80.5391 79.0996ZM81.1191 73.9902C80.6895 73.9902 80.3496 74.1582 80.0996 74.4941C79.8535 74.8301 79.7305 75.2852 79.7305 75.8594C79.7305 76.4375 79.8535 76.8926 80.0996 77.2246C80.3496 77.5566 80.6895 77.7227 81.1191 77.7227C81.5449 77.7227 81.8828 77.5566 82.1328 77.2246C82.3867 76.8887 82.5137 76.4336 82.5137 75.8594C82.5137 75.2891 82.3867 74.8359 82.1328 74.5C81.8828 74.1602 81.5449 73.9902 81.1191 73.9902Z" stroke="#F83103" stroke-width="2" mask="url(#path-1-outside-1_356_203)"/>
<path d="M85.25 74.5645C85.25 73.9668 85.4902 73.4883 85.9707 73.1289C86.4512 72.7656 87.0938 72.584 87.8984 72.584C88.6836 72.584 89.3145 72.7676 89.791 73.1348C90.2676 73.502 90.5117 73.9902 90.5234 74.5996H88.9473C88.9277 74.3457 88.8223 74.1465 88.6309 74.002C88.4434 73.8574 88.1914 73.7852 87.875 73.7852C87.5781 73.7852 87.3398 73.8477 87.1602 73.9727C86.9844 74.0938 86.8965 74.2559 86.8965 74.459C86.8965 74.7637 87.1699 74.9805 87.7168 75.1094L88.918 75.3672C89.5469 75.5078 89.998 75.7129 90.2715 75.9824C90.5488 76.248 90.6875 76.6152 90.6875 77.084C90.6875 77.7012 90.4297 78.1973 89.9141 78.5723C89.3984 78.9473 88.7246 79.1348 87.8926 79.1348C87.0645 79.1348 86.4023 78.9512 85.9062 78.584C85.4102 78.2168 85.1387 77.7227 85.0918 77.1016H86.7617C86.8047 77.3672 86.9258 77.5723 87.125 77.7168C87.3281 77.8613 87.5996 77.9336 87.9395 77.9336C88.2637 77.9336 88.5176 77.875 88.7012 77.7578C88.8887 77.6367 88.9824 77.4727 88.9824 77.2656C88.9824 77.1055 88.9238 76.9785 88.8066 76.8848C88.6895 76.7871 88.4902 76.7051 88.209 76.6387L87.0488 76.3809C85.8496 76.1074 85.25 75.502 85.25 74.5645Z" stroke="#F83103" stroke-width="2" mask="url(#path-1-outside-1_356_203)"/>
</g>
<defs>
<filter id="filter0_d_356_203" x="0" y="0" width="146" height="109" filterUnits="userSpaceOnUse" color-interpolation-filters="sRGB">
<feFlood flood-opacity="0" result="BackgroundImageFix"/>
<feColorMatrix in="SourceAlpha" type="matrix" values="0 0 0 0 0 0 0 0 0 0 0 0 0 0 0 0 0 0 127 0" result="hardAlpha"/>
<feOffset/>
<feGaussianBlur stdDeviation="5"/>
<feComposite in2="hardAlpha" operator="out"/>
<feColorMatrix type="matrix" values="0 0 0 0 0.972549 0 0 0 0 0.192157 0 0 0 0 0.0117647 0 0 0 0.25 0"/>
<feBlend mode="normal" in2="BackgroundImageFix" result="effect1_dropShadow_356_203"/>
<feBlend mode="normal" in="SourceGraphic" in2="effect1_dropShadow_356_203" result="shape"/>
</filter>
</defs>
</svg>
