<svg width="124" height="87" viewBox="0 0 124 87" fill="none" xmlns="http://www.w3.org/2000/svg">
<path d="M0 25C0 11.1929 11.1929 0 25 0H99C112.807 0 124 11.1929 124 25V62C124 75.8071 112.807 87 99 87H25C11.1929 87 0 75.8071 0 62V25Z" fill="#2E3235"/>
<path d="M82.3848 29.3022H79.711C79.6095 28.8327 79.4552 28.3765 79.2511 27.9427C78.9828 27.325 78.7891 26.8786 78.9398 26.1633C79.0924 25.4387 79.5147 24.9778 79.923 24.532C80.4021 24.0091 80.9451 23.4163 80.8455 22.4987C80.7496 21.6104 80.1475 21.2082 79.6163 20.8533C79.1937 20.571 78.7945 20.3043 78.513 19.7714C78.0089 18.817 78.3341 17.7912 78.6488 16.7993C78.9677 15.7939 79.2974 14.7542 78.6172 13.9123C78.208 13.4059 77.485 13.1078 76.5812 13.0729C75.3462 13.0252 73.6133 13.4942 72.5244 14.6495C71.8119 15.4057 71.6078 16.2103 71.4277 16.9201C71.2415 17.654 71.0944 18.2337 70.4475 18.7652C70.007 19.127 69.6447 19.2104 69.2611 19.2987C68.7859 19.4081 68.2473 19.5321 67.7912 20.155C67.1376 21.0481 67.3784 21.9858 67.5909 22.8131C67.7738 23.5251 67.9629 24.2613 67.7183 25.1295C67.6984 25.2 67.6762 25.2667 67.6527 25.332C67.3841 25.2789 67.1111 25.252 66.8374 25.2519C66.79 25.2519 66.743 25.2548 66.6959 25.2563C66.687 25.2341 66.6769 25.2124 66.6655 25.1914C66.1708 24.2834 65.5096 23.9136 64.9783 23.6165C64.5001 23.349 64.1546 23.1559 63.9047 22.6337C63.6391 22.0783 63.6884 21.5749 63.7406 21.042C63.8023 20.4123 63.8792 19.6286 63.2226 18.9979C62.7702 18.564 62.3065 18.5306 61.934 18.5037C61.637 18.4823 61.3806 18.4638 61.0315 18.265C60.5238 17.9759 60.3621 17.613 60.1381 17.1109C59.9099 16.5994 59.6514 16.0196 58.9936 15.5275C57.7956 14.632 55.7656 14.4968 54.6781 15.17C54.4891 15.1347 54.298 15.1123 54.1061 15.1029C53.7135 15.0755 53.3427 15.0495 52.8526 14.7608C52.1332 14.3367 51.9 13.7871 51.6048 13.0911C51.319 12.4176 50.9953 11.6543 50.176 11.0182C48.9249 10.0464 47.1413 9.85347 45.9284 10.0934C45.041 10.2689 44.372 10.6763 44.0448 11.2401C43.5001 12.1781 43.9836 13.1541 44.4511 14.0978C44.9124 15.029 45.3894 15.992 45.0363 17.0134C44.8387 17.5836 44.4848 17.9093 44.1101 18.2544C43.6389 18.6881 43.1049 19.1798 43.145 20.072C43.1855 20.9946 43.8118 21.4952 44.3643 21.9369C44.8355 22.3135 45.3226 22.703 45.5834 23.3957C45.8408 24.079 45.7171 24.5504 45.5458 25.203C45.4092 25.7236 45.2543 26.3137 45.3014 27.065C45.3649 27.8504 45.5925 28.613 45.9692 29.3022H41.6152C41.4521 29.3022 41.2956 29.368 41.1802 29.485C41.0648 29.602 41 29.7607 41 29.9262C41 36.9135 45.5199 42.8495 51.7502 44.8879V46.6701C51.7515 47.8181 52.2018 48.9186 53.0022 49.7303C53.8027 50.5421 54.8879 50.9987 56.0199 51H67.9801C69.1121 50.9987 70.1973 50.5421 70.9978 49.7303C71.7982 48.9186 72.2485 47.8181 72.2498 46.6701V44.8946C75.3718 43.8722 78.094 41.8727 80.0255 39.1834C81.9569 36.494 82.9983 33.2532 83 29.9262C83 29.7607 82.9352 29.602 82.8198 29.485C82.7044 29.368 82.5479 29.3022 82.3848 29.3022ZM68.7792 20.8987C68.9548 20.6588 69.1101 20.6129 69.5334 20.5155C69.9662 20.4158 70.559 20.2794 71.222 19.7346C72.1847 18.9438 72.4156 18.0338 72.6194 17.231C72.7826 16.5876 72.9236 16.0321 73.414 15.5115C74.1167 14.7659 75.3991 14.2756 76.5344 14.3197C77.0651 14.3403 77.488 14.4836 77.6654 14.703C77.9036 14.9979 77.7533 15.5473 77.4774 16.4171C77.1211 17.5408 76.6776 18.9392 77.4284 20.3604C77.8571 21.1722 78.4572 21.5731 78.9394 21.8952C79.4209 22.2169 79.5921 22.3544 79.6224 22.6348C79.657 22.9536 79.4755 23.1871 79.0215 23.6827C78.5486 24.199 77.96 24.8414 77.7365 25.9025C77.5027 27.0123 77.8333 27.7736 78.125 28.4454C78.2532 28.7226 78.3612 29.009 78.4482 29.3022H73.7849C73.8644 29.0467 73.9423 28.7907 74.0186 28.5343L76.0696 27.3654C76.2118 27.2843 76.3165 27.1493 76.3605 26.9899C76.4046 26.8306 76.3844 26.66 76.3044 26.5158C76.2245 26.3716 76.0913 26.2654 75.9342 26.2208C75.7771 26.1761 75.6089 26.1966 75.4667 26.2776L74.4922 26.833C74.8989 25.276 75.242 23.6904 75.5114 22.1056C75.5264 22.0243 75.5254 21.9408 75.5083 21.86C75.4912 21.7791 75.4585 21.7024 75.412 21.6345C75.3654 21.5666 75.3061 21.5087 75.2373 21.4643C75.1685 21.4198 75.0917 21.3897 75.0113 21.3757C74.9309 21.3616 74.8486 21.3639 74.7691 21.3824C74.6896 21.4009 74.6145 21.4352 74.5483 21.4834C74.482 21.5316 74.4258 21.5927 74.383 21.6631C74.3402 21.7335 74.3116 21.8118 74.2989 21.8935C74.1149 22.9729 73.8982 24.0464 73.6492 25.1124L73.0445 23.6227C73.0138 23.5469 72.9686 23.4781 72.9116 23.42C72.8546 23.3619 72.7869 23.3158 72.7123 23.2843C72.6377 23.2528 72.5577 23.2365 72.4769 23.2363C72.3961 23.2361 72.3161 23.2521 72.2414 23.2833C72.1667 23.3145 72.0988 23.3603 72.0415 23.4181C71.9842 23.4759 71.9388 23.5446 71.9077 23.6202C71.8449 23.7729 71.8446 23.9447 71.9067 24.0977L73.1376 27.1303C73.1123 27.2228 73.0878 27.3158 73.0619 27.408C73.0122 27.5856 72.9614 27.763 72.9094 27.9401L72.9067 27.9497C72.7749 28.402 72.6369 28.8528 72.4928 29.3022H71.0917C71.0446 28.561 70.8103 27.8445 70.4113 27.2217C70.0123 26.5989 69.462 26.0907 68.8133 25.7459C68.8457 25.6557 68.8751 25.5644 68.9014 25.4722C69.2383 24.2763 68.985 23.2905 68.7816 22.4984C68.5814 21.7186 68.4905 21.2933 68.7792 20.8987ZM66.8374 26.4997C67.5948 26.5007 68.3244 26.7887 68.8832 27.3072C69.4419 27.8257 69.7894 28.5373 69.8574 29.3022H64.9393C64.9035 28.7188 64.7511 28.1489 64.4912 27.6271C64.775 27.2741 65.1328 26.9896 65.5387 26.7946C65.9446 26.5996 66.3882 26.4988 66.8374 26.4997ZM58.2632 16.5317C58.6625 16.8305 58.8189 17.1812 59.0169 17.6252C59.263 18.1767 59.5692 18.8632 60.429 19.353C60.8631 19.5989 61.3495 19.7345 61.8466 19.7484C62.1552 19.7706 62.2499 19.7825 62.3768 19.9042C62.5772 20.0967 62.5745 20.3224 62.5161 20.9185C62.4556 21.5365 62.3802 22.3055 62.7976 23.1784C63.2183 24.0572 63.8377 24.4036 64.3841 24.7091C64.7706 24.9253 65.114 25.1176 65.4029 25.5041C64.7803 25.7285 64.218 26.0976 63.7612 26.5818C63.364 26.1603 62.8866 25.8251 62.3578 25.5965C61.829 25.3679 61.2599 25.2507 60.685 25.2519C60.6421 25.2519 60.5996 25.2539 60.5569 25.2552C60.4589 24.8594 60.3151 24.4767 60.1285 24.1151C59.5131 22.9303 58.7092 22.4647 57.9998 22.0541C57.3677 21.6881 56.8684 21.399 56.5153 20.6237C56.1418 19.8038 56.2168 19.0469 56.2893 18.3149C56.363 17.572 56.4451 16.7425 55.944 16.0244C56.6394 15.9182 57.6143 16.0466 58.2632 16.5317ZM63.7044 29.3022H57.6649C57.7314 28.5366 58.0783 27.8239 58.6373 27.3048C59.1963 26.7857 59.9267 26.4978 60.6847 26.4978C61.4426 26.4978 62.1731 26.7857 62.7321 27.3048C63.291 27.8239 63.6379 28.5366 63.7044 29.3022ZM45.1262 20.9569C44.6028 20.5386 44.3883 20.3364 44.3742 20.016C44.3616 19.7344 44.51 19.5716 44.9373 19.1783C45.3646 18.7848 45.8965 18.2951 46.1973 17.4266C46.7235 15.9051 46.0732 14.5924 45.5508 13.5377C45.1463 12.7213 44.9145 12.2018 45.1053 11.8732C45.2472 11.6286 45.643 11.4211 46.1641 11.3181C47.2783 11.0978 48.6205 11.3817 49.428 12.0088C49.9921 12.4468 50.2156 12.9739 50.4745 13.5843C50.7975 14.3455 51.1635 15.2084 52.2345 15.8396C52.9724 16.2744 53.5787 16.3168 54.0214 16.3478C54.4544 16.3781 54.6147 16.3992 54.8245 16.6089C55.1699 16.954 55.1446 17.3884 55.0651 18.1901C54.9844 19.0045 54.884 20.0179 55.3983 21.147C55.9164 22.2847 56.6992 22.7379 57.3898 23.1377C58.0348 23.5112 58.5916 23.8335 59.0398 24.6965C59.1675 24.9437 59.2687 25.204 59.3417 25.4731C58.5362 25.7456 57.8291 26.2555 57.3107 26.9375C56.7923 27.6196 56.4861 28.4428 56.4312 29.3022H54.4808C54.1168 28.7092 53.7655 28.1088 53.427 27.5011L54.1855 24.3036C54.2237 24.1427 54.1973 23.9731 54.1121 23.8319C54.0269 23.6908 53.8899 23.5898 53.7313 23.5511C53.5726 23.5123 53.4053 23.5391 53.2662 23.6255C53.127 23.7119 53.0274 23.8508 52.9892 24.0117L52.5517 25.856C52.1173 25.0009 51.7075 24.1315 51.3223 23.2479L52.0079 20.8369C52.0302 20.7581 52.0371 20.6757 52.0281 20.5943C52.0191 20.5129 51.9943 20.434 51.9552 20.3623C51.9162 20.2906 51.8636 20.2274 51.8004 20.1763C51.7373 20.1252 51.6648 20.0872 51.5872 20.0645C51.5095 20.0418 51.4282 20.0348 51.348 20.044C51.2677 20.0531 51.1899 20.0782 51.1192 20.1179C51.0485 20.1575 50.9862 20.2108 50.9358 20.2749C50.8854 20.3389 50.8479 20.4124 50.8255 20.4911L50.5645 21.4092C50.1865 20.4369 49.8399 19.4543 49.5248 18.4613C49.5005 18.3827 49.4612 18.3098 49.409 18.2467C49.3568 18.1836 49.2929 18.1316 49.2208 18.0937C49.1487 18.0558 49.0699 18.0327 48.989 18.0259C48.9081 18.019 48.8266 18.0284 48.7493 18.0536C48.672 18.0788 48.6004 18.1193 48.5386 18.1727C48.4768 18.2261 48.426 18.2913 48.3892 18.3647C48.3524 18.4381 48.3303 18.5182 48.3241 18.6003C48.318 18.6824 48.3279 18.7649 48.3534 18.8431C48.8577 20.4318 49.44 21.994 50.0982 23.5237C50.1027 23.5352 50.1075 23.5465 50.1126 23.5577C50.1271 23.5914 50.1413 23.6251 50.1558 23.6587L48.9496 23.2015C48.7969 23.1443 48.6281 23.1508 48.4801 23.2195C48.3322 23.2882 48.2171 23.4136 48.1601 23.5682C48.1031 23.7228 48.1088 23.894 48.176 24.0443C48.2432 24.1946 48.3664 24.3118 48.5187 24.3702L50.8878 25.2683C51.0819 25.6762 51.2811 26.0811 51.4853 26.483C51.6219 26.7512 51.7612 27.0183 51.9033 27.2841L50.4439 26.7309C50.3682 26.7019 50.2875 26.6882 50.2065 26.6909C50.1256 26.6935 50.0459 26.7123 49.9722 26.7462C49.8984 26.7801 49.832 26.8285 49.7767 26.8885C49.7214 26.9485 49.6783 27.019 49.6499 27.096C49.6216 27.1729 49.6085 27.2548 49.6114 27.3368C49.6143 27.4189 49.6331 27.4996 49.6669 27.5743C49.7006 27.649 49.7485 27.7162 49.8079 27.772C49.8674 27.8279 49.937 27.8712 50.013 27.8997L52.8456 28.9735C52.9095 29.0833 52.9745 29.1928 53.0392 29.3022H47.4061C46.8843 28.5199 46.5746 27.7065 46.5294 26.9859C46.4951 26.4379 46.6116 25.994 46.735 25.5239C46.9212 24.8145 47.1322 24.0103 46.733 22.9506C46.3512 21.9363 45.672 21.3932 45.1262 20.9569ZM71.0194 46.6701C71.0185 47.4873 70.698 48.2707 70.1282 48.8485C69.5584 49.4263 68.7859 49.7513 67.9801 49.7522H56.0199C55.2141 49.7513 54.4416 49.4263 53.8718 48.8484C53.3021 48.2706 52.9816 47.4872 52.9807 46.6701V45.2349C54.1342 45.5071 55.3147 45.6442 56.499 45.6436H67.501C68.6852 45.6441 69.8655 45.5081 71.0193 45.2382L71.0194 46.6701ZM77.5908 40.1579C75.8999 41.8796 73.8067 43.1394 71.5064 43.8198C71.48 43.8256 71.454 43.8333 71.4286 43.8426C70.151 44.2107 68.8292 44.3968 67.5011 44.3958H56.499C48.8373 44.3958 42.5667 38.2405 42.2436 30.5501H81.7566C81.6125 34.1708 80.1245 37.6026 77.5908 40.1579Z" fill="white"/>
<path d="M43.4004 65.5918H45.1055C45.1445 65.9355 45.3262 66.2148 45.6504 66.4297C45.9785 66.6406 46.3789 66.7461 46.8516 66.7461C47.3203 66.7461 47.7012 66.6465 47.9941 66.4473C48.291 66.2441 48.4395 65.9863 48.4395 65.6738C48.4395 65.4004 48.3301 65.1797 48.1113 65.0117C47.8926 64.8438 47.5273 64.7031 47.0156 64.5898L45.9141 64.3496C44.3633 64.0176 43.5879 63.2305 43.5879 61.9883C43.5879 61.2148 43.8887 60.5898 44.4902 60.1133C45.0957 59.6367 45.873 59.3984 46.8223 59.3984C47.7988 59.3984 48.5781 59.6309 49.1602 60.0957C49.7422 60.5566 50.041 61.1719 50.0566 61.9414H48.3984C48.3711 61.5859 48.2129 61.3066 47.9238 61.1035C47.6387 60.8965 47.2734 60.793 46.8281 60.793C46.3906 60.793 46.0371 60.8887 45.7676 61.0801C45.502 61.2715 45.3691 61.5234 45.3691 61.8359C45.3691 62.0938 45.4766 62.3027 45.6914 62.4629C45.9102 62.623 46.2637 62.7598 46.752 62.873L47.7773 63.0898C48.625 63.2695 49.2422 63.5508 49.6289 63.9336C50.0156 64.3125 50.209 64.8242 50.209 65.4688C50.209 66.2891 49.9004 66.9414 49.2832 67.4258C48.666 67.9062 47.832 68.1465 46.7812 68.1465C45.7617 68.1465 44.9492 67.9199 44.3438 67.4668C43.7422 67.0098 43.4277 66.3848 43.4004 65.5918Z" fill="white"/>
<path d="M53.5781 66.8633C53.957 66.8633 54.2773 66.7539 54.5391 66.5352C54.8047 66.3125 54.9375 66.0332 54.9375 65.6973V65.2402L53.6133 65.3223C53.293 65.3457 53.0449 65.4258 52.8691 65.5625C52.6973 65.6992 52.6113 65.8789 52.6113 66.1016C52.6113 66.3359 52.6992 66.5215 52.875 66.6582C53.0508 66.7949 53.2852 66.8633 53.5781 66.8633ZM53.0156 68.0996C52.4102 68.0996 51.9082 67.9219 51.5098 67.5664C51.1113 67.2109 50.9121 66.7539 50.9121 66.1953C50.9121 65.625 51.123 65.1777 51.5449 64.8535C51.9668 64.5293 52.5703 64.3438 53.3555 64.2969L54.9375 64.2031V63.7871C54.9375 63.498 54.8418 63.2715 54.6504 63.1074C54.4629 62.9434 54.207 62.8613 53.8828 62.8613C53.5703 62.8613 53.3145 62.9316 53.1152 63.0723C52.9199 63.2129 52.8008 63.4023 52.7578 63.6406H51.1934C51.2246 63.0234 51.4883 62.5273 51.9844 62.1523C52.4805 61.7734 53.1387 61.584 53.959 61.584C54.7637 61.584 55.4082 61.7754 55.8926 62.1582C56.377 62.541 56.6191 63.0488 56.6191 63.6816V68H54.9668V67.0391H54.9316C54.7598 67.3672 54.498 67.627 54.1465 67.8184C53.7949 68.0059 53.418 68.0996 53.0156 68.0996Z" fill="white"/>
<path d="M57.7676 68V59.5449H59.4785V68H57.7676Z" fill="white"/>
<path d="M63.0586 66.8633C63.4375 66.8633 63.7578 66.7539 64.0195 66.5352C64.2852 66.3125 64.418 66.0332 64.418 65.6973V65.2402L63.0938 65.3223C62.7734 65.3457 62.5254 65.4258 62.3496 65.5625C62.1777 65.6992 62.0918 65.8789 62.0918 66.1016C62.0918 66.3359 62.1797 66.5215 62.3555 66.6582C62.5312 66.7949 62.7656 66.8633 63.0586 66.8633ZM62.4961 68.0996C61.8906 68.0996 61.3887 67.9219 60.9902 67.5664C60.5918 67.2109 60.3926 66.7539 60.3926 66.1953C60.3926 65.625 60.6035 65.1777 61.0254 64.8535C61.4473 64.5293 62.0508 64.3438 62.8359 64.2969L64.418 64.2031V63.7871C64.418 63.498 64.3223 63.2715 64.1309 63.1074C63.9434 62.9434 63.6875 62.8613 63.3633 62.8613C63.0508 62.8613 62.7949 62.9316 62.5957 63.0723C62.4004 63.2129 62.2812 63.4023 62.2383 63.6406H60.6738C60.7051 63.0234 60.9688 62.5273 61.4648 62.1523C61.9609 61.7734 62.6191 61.584 63.4395 61.584C64.2441 61.584 64.8887 61.7754 65.373 62.1582C65.8574 62.541 66.0996 63.0488 66.0996 63.6816V68H64.4473V67.0391H64.4121C64.2402 67.3672 63.9785 67.627 63.627 67.8184C63.2754 68.0059 62.8984 68.0996 62.4961 68.0996Z" fill="white"/>
<path d="M69.5391 68.0996C68.7539 68.0996 68.1309 67.8086 67.6699 67.2266C67.209 66.6445 66.9785 65.8516 66.9785 64.8477C66.9785 63.8516 67.209 63.0645 67.6699 62.4863C68.1348 61.9082 68.7617 61.6191 69.5508 61.6191C69.9961 61.6191 70.3867 61.7266 70.7227 61.9414C71.0625 62.1562 71.3105 62.4414 71.4668 62.7969H71.502V59.5449H73.2129V68H71.5254V66.9219H71.4961C71.3398 67.2773 71.0879 67.5625 70.7402 67.7773C70.3926 67.9922 69.9922 68.0996 69.5391 68.0996ZM70.1191 62.9902C69.6895 62.9902 69.3496 63.1582 69.0996 63.4941C68.8535 63.8301 68.7305 64.2852 68.7305 64.8594C68.7305 65.4375 68.8535 65.8926 69.0996 66.2246C69.3496 66.5566 69.6895 66.7227 70.1191 66.7227C70.5449 66.7227 70.8828 66.5566 71.1328 66.2246C71.3867 65.8887 71.5137 65.4336 71.5137 64.8594C71.5137 64.2891 71.3867 63.8359 71.1328 63.5C70.8828 63.1602 70.5449 62.9902 70.1191 62.9902Z" fill="white"/>
<path d="M74.25 63.5645C74.25 62.9668 74.4902 62.4883 74.9707 62.1289C75.4512 61.7656 76.0938 61.584 76.8984 61.584C77.6836 61.584 78.3145 61.7676 78.791 62.1348C79.2676 62.502 79.5117 62.9902 79.5234 63.5996H77.9473C77.9277 63.3457 77.8223 63.1465 77.6309 63.002C77.4434 62.8574 77.1914 62.7852 76.875 62.7852C76.5781 62.7852 76.3398 62.8477 76.1602 62.9727C75.9844 63.0938 75.8965 63.2559 75.8965 63.459C75.8965 63.7637 76.1699 63.9805 76.7168 64.1094L77.918 64.3672C78.5469 64.5078 78.998 64.7129 79.2715 64.9824C79.5488 65.248 79.6875 65.6152 79.6875 66.084C79.6875 66.7012 79.4297 67.1973 78.9141 67.5723C78.3984 67.9473 77.7246 68.1348 76.8926 68.1348C76.0645 68.1348 75.4023 67.9512 74.9062 67.584C74.4102 67.2168 74.1387 66.7227 74.0918 66.1016H75.7617C75.8047 66.3672 75.9258 66.5723 76.125 66.7168C76.3281 66.8613 76.5996 66.9336 76.9395 66.9336C77.2637 66.9336 77.5176 66.875 77.7012 66.7578C77.8887 66.6367 77.9824 66.4727 77.9824 66.2656C77.9824 66.1055 77.9238 65.9785 77.8066 65.8848C77.6895 65.7871 77.4902 65.7051 77.209 65.6387L76.0488 65.3809C74.8496 65.1074 74.25 64.502 74.25 63.5645Z" fill="white"/>
</svg>
