<svg width="124" height="87" viewBox="0 0 124 87" fill="none" xmlns="http://www.w3.org/2000/svg">
<path d="M0 25C0 11.1929 11.1929 0 25 0H99C112.807 0 124 11.1929 124 25V62C124 75.8071 112.807 87 99 87H25C11.1929 87 0 75.8071 0 62V25Z" fill="#2E3235"/>
<path d="M46.0425 51.9999H55.395C55.9301 52.005 56.4455 51.7979 56.8283 51.4239C57.2111 51.0499 57.4301 50.5396 57.4375 50.0044V26.5292C57.4386 25.6334 57.2436 24.7483 56.8664 23.9358C55.6604 21.3289 55.1095 19.1856 55.1363 17.1935C55.1386 17.0028 55.1026 16.8136 55.0305 16.637C54.9584 16.4604 54.8516 16.3001 54.7164 16.1656C54.4572 15.9031 54.1104 15.7452 53.7422 15.7221V14.2071C53.7372 13.9464 53.6637 13.6916 53.529 13.4684C53.3943 13.2451 53.2032 13.0613 52.9749 12.9354L52.2971 10.186C52.2186 9.8467 52.0268 9.54429 51.7533 9.32869C51.4798 9.11308 51.141 8.99716 50.7927 9.00005C50.4445 8.99718 50.1054 9.1131 49.8319 9.3287C49.5584 9.54429 49.3665 9.84669 49.2879 10.186L48.6308 12.8517C48.3601 12.9624 48.1275 13.1495 47.9614 13.3902C47.7953 13.6309 47.7028 13.9147 47.6953 14.2071V15.7221C47.3271 15.7452 46.9803 15.9031 46.7211 16.1656C46.5859 16.3001 46.4791 16.4604 46.407 16.637C46.3349 16.8136 46.2989 17.0028 46.3012 17.1935C46.328 19.1856 45.7771 21.3289 44.5711 23.9358C44.1939 24.7483 43.999 25.6334 44 26.5292V50.0044C44.0074 50.5396 44.2264 51.0499 44.6092 51.4239C44.992 51.7979 45.5074 52.005 46.0425 51.9999ZM50.5926 10.5075C50.6019 10.4613 50.6269 10.4198 50.6633 10.3899C50.6997 10.3601 50.7454 10.3438 50.7925 10.3438C50.8396 10.3438 50.8852 10.3601 50.9217 10.3899C50.9581 10.4198 50.9831 10.4613 50.9924 10.5075L51.5318 12.6954H50.0533L50.5926 10.5075ZM49.0391 14.2071C49.0391 14.1466 49.1566 14.0391 49.3481 14.0391H52.0894C52.2809 14.0391 52.3984 14.1466 52.3984 14.2071V15.7188H49.0391V14.2071ZM45.3438 26.5292C45.3436 25.8284 45.4961 25.136 45.7906 24.5002C46.4605 23.0969 46.975 21.6246 47.3251 20.1096H51.7689C51.9471 20.1096 52.118 20.0388 52.244 19.9128C52.37 19.7868 52.4408 19.6159 52.4408 19.4377C52.4408 19.2595 52.37 19.0886 52.244 18.9626C52.118 18.8366 51.9471 18.7658 51.7689 18.7658H47.5566C47.6205 18.2386 47.65 17.7078 47.6449 17.1767C47.6449 17.164 47.6475 17.1515 47.6528 17.1399C47.658 17.1283 47.6656 17.1179 47.6752 17.1096C47.7051 17.0809 47.7446 17.0642 47.786 17.0625H53.6515C53.6929 17.0642 53.7324 17.0809 53.7623 17.1096C53.7719 17.1179 53.7795 17.1283 53.7848 17.1399C53.79 17.1515 53.7926 17.164 53.7926 17.1767C53.7657 19.3771 54.3536 21.7018 55.647 24.5002C55.9414 25.136 56.0939 25.8284 56.0938 26.5292V43.2656H45.3438V26.5292ZM45.3438 44.6093H56.0938V45.9531H45.3438V44.6093ZM45.3438 47.2968H56.0938V50.0044C56.0873 50.1834 56.0101 50.3526 55.8791 50.4748C55.7481 50.5969 55.574 50.6622 55.395 50.6562H46.0425C45.8635 50.6622 45.6894 50.5969 45.5584 50.4748C45.4274 50.3526 45.3502 50.1834 45.3438 50.0044V47.2968Z" fill="white"/>
<path d="M50.7188 23.7813C49.9214 23.7813 49.142 24.0177 48.4791 24.4606C47.8162 24.9036 47.2995 25.5332 46.9944 26.2698C46.6893 27.0064 46.6094 27.817 46.765 28.5989C46.9205 29.3809 47.3044 30.0992 47.8682 30.663C48.432 31.2268 49.1503 31.6107 49.9323 31.7663C50.7143 31.9218 51.5248 31.842 52.2614 31.5369C52.9981 31.2318 53.6277 30.7151 54.0706 30.0521C54.5136 29.3892 54.75 28.6098 54.75 27.8125C54.7488 26.7437 54.3237 25.719 53.568 24.9633C52.8122 24.2075 51.7875 23.7824 50.7188 23.7813ZM50.7188 30.5C50.1872 30.5 49.6676 30.3424 49.2257 30.0471C48.7837 29.7518 48.4392 29.332 48.2358 28.8409C48.0324 28.3499 47.9792 27.8095 48.0829 27.2882C48.1866 26.7669 48.4426 26.288 48.8184 25.9121C49.1943 25.5363 49.6731 25.2803 50.1945 25.1766C50.7158 25.0729 51.2561 25.1262 51.7472 25.3296C52.2383 25.533 52.658 25.8774 52.9533 26.3194C53.2486 26.7614 53.4063 27.281 53.4063 27.8125C53.4054 28.525 53.122 29.2081 52.6182 29.7119C52.1144 30.2158 51.4313 30.4992 50.7188 30.5ZM86.3281 37.8906H83.881C83.8216 37.4015 83.6099 36.9434 83.2758 36.5813C82.9168 36.2117 82.4569 35.9559 81.9536 35.8458C81.9028 35.032 81.5486 34.267 80.9608 33.7019C80.3574 33.175 79.6008 32.8557 78.8024 32.7912C78.7005 32.1974 78.2837 31.4113 76.9762 30.7418C75.7302 30.104 76.2064 28.8784 76.3127 28.6431C76.3634 28.5349 76.3843 28.4151 76.3732 28.2961C76.3621 28.177 76.3195 28.0631 76.2498 27.9661C76.18 27.869 76.0856 27.7924 75.9763 27.744C75.867 27.6956 75.7468 27.6772 75.628 27.6908C74.6856 27.7855 73.7912 28.1531 73.0547 28.7487C72.3182 29.3443 71.7715 30.1418 71.4816 31.0436C70.8482 30.8598 70.172 30.8893 69.557 31.1276C68.6765 31.5272 67.9628 32.2212 67.5384 33.09C65.5984 33.3666 64.2783 34.0897 63.6117 35.2425C63.171 36.0509 63.0366 36.9911 63.2329 37.8906H60.125C59.9468 37.8906 59.7759 37.9614 59.6499 38.0874C59.5239 38.2134 59.4531 38.3843 59.4531 38.5625C59.4531 45.7867 65.6319 51.664 73.2266 51.664C80.8212 51.664 87 45.7867 87 38.5625C87 38.3843 86.9292 38.2134 86.8032 38.0874C86.6772 37.9614 86.5063 37.8906 86.3281 37.8906ZM74.8009 29.2619C74.7518 29.8149 74.8758 30.3695 75.1557 30.849C75.4357 31.3284 75.8579 31.709 76.3637 31.9379C76.7735 32.1165 77.1271 32.4033 77.3865 32.7674C74.4929 32.7093 73.2076 32.0962 72.6864 31.7174C72.8217 31.171 73.0836 30.6641 73.4509 30.2376C73.8182 29.811 74.2807 29.4768 74.8009 29.2619ZM70.0462 32.3791C70.2811 32.2961 70.5303 32.2615 70.779 32.2772C71.0277 32.2929 71.2706 32.3587 71.4932 32.4706C72.1022 33.1071 73.7142 34.1162 77.819 34.1162C77.9865 34.1162 78.1588 34.1146 78.3348 34.1113C78.3425 34.1111 78.3495 34.109 78.357 34.1086C78.9697 34.0965 79.5671 34.3004 80.0444 34.6847C80.3619 34.9995 80.559 35.4157 80.6013 35.8607C74.3323 36.457 70.1837 34.3054 68.8588 33.485C69.128 33.0003 69.5436 32.6132 70.0462 32.3791ZM64.7748 35.9153C65.2331 35.1227 66.2596 34.6203 67.8143 34.413C68.7659 35.0667 72.4681 37.3132 78.3972 37.3132C79.4165 37.3114 80.4346 37.2465 81.4459 37.1189C81.7635 37.1478 82.0624 37.2819 82.2952 37.4999C82.3965 37.6115 82.47 37.7453 82.51 37.8906H64.6096C64.4073 37.2356 64.4665 36.5276 64.7748 35.9153ZM73.2266 50.3202C67.8695 50.3202 63.294 47.0972 61.5507 42.5937H84.9024C83.1591 47.0972 78.5837 50.3202 73.2266 50.3202ZM85.3251 41.2499H61.1281C60.9628 40.589 60.8586 39.9143 60.8169 39.2343H85.6362C85.5945 39.9143 85.4903 40.589 85.3251 41.2499Z" fill="white"/>
<path d="M69.6138 48.4089C69.7832 48.4639 69.9676 48.4492 70.1262 48.3683C70.2849 48.2873 70.405 48.1467 70.46 47.9773C70.515 47.8078 70.5005 47.6235 70.4196 47.4647C70.3388 47.306 70.1982 47.1859 70.0288 47.1308C68.201 46.5487 66.5861 45.439 65.3875 43.9414C65.3326 43.8723 65.2647 43.8146 65.1876 43.7718C65.1105 43.7289 65.0257 43.7017 64.938 43.6916C64.8504 43.6815 64.7616 43.6888 64.6768 43.713C64.592 43.7372 64.5127 43.7779 64.4436 43.8328C64.3745 43.8876 64.3169 43.9555 64.274 44.0327C64.2312 44.1098 64.2039 44.1946 64.1939 44.2822C64.1838 44.3699 64.191 44.4586 64.2153 44.5435C64.2395 44.6283 64.2802 44.7075 64.335 44.7766C65.6977 46.4817 67.5343 47.7455 69.6138 48.4089Z" fill="white"/>
<path d="M29.7715 65.5918H31.4766C31.5156 65.9355 31.6973 66.2148 32.0215 66.4297C32.3496 66.6406 32.75 66.7461 33.2227 66.7461C33.6914 66.7461 34.0723 66.6465 34.3652 66.4473C34.6621 66.2441 34.8105 65.9863 34.8105 65.6738C34.8105 65.4004 34.7012 65.1797 34.4824 65.0117C34.2637 64.8438 33.8984 64.7031 33.3867 64.5898L32.2852 64.3496C30.7344 64.0176 29.959 63.2305 29.959 61.9883C29.959 61.2148 30.2598 60.5898 30.8613 60.1133C31.4668 59.6367 32.2441 59.3984 33.1934 59.3984C34.1699 59.3984 34.9492 59.6309 35.5312 60.0957C36.1133 60.5566 36.4121 61.1719 36.4277 61.9414H34.7695C34.7422 61.5859 34.584 61.3066 34.2949 61.1035C34.0098 60.8965 33.6445 60.793 33.1992 60.793C32.7617 60.793 32.4082 60.8887 32.1387 61.0801C31.873 61.2715 31.7402 61.5234 31.7402 61.8359C31.7402 62.0938 31.8477 62.3027 32.0625 62.4629C32.2812 62.623 32.6348 62.7598 33.123 62.873L34.1484 63.0898C34.9961 63.2695 35.6133 63.5508 36 63.9336C36.3867 64.3125 36.5801 64.8242 36.5801 65.4688C36.5801 66.2891 36.2715 66.9414 35.6543 67.4258C35.0371 67.9062 34.2031 68.1465 33.1523 68.1465C32.1328 68.1465 31.3203 67.9199 30.7148 67.4668C30.1133 67.0098 29.7988 66.3848 29.7715 65.5918Z" fill="white"/>
<path d="M37.5527 68V61.7188H39.2637V68H37.5527ZM39.0586 60.7695C38.8828 60.9414 38.666 61.0273 38.4082 61.0273C38.1504 61.0273 37.9336 60.9414 37.7578 60.7695C37.582 60.5977 37.4941 60.3887 37.4941 60.1426C37.4941 59.8926 37.582 59.6836 37.7578 59.5156C37.9336 59.3438 38.1504 59.2578 38.4082 59.2578C38.666 59.2578 38.8828 59.3438 39.0586 59.5156C39.2344 59.6836 39.3223 59.8926 39.3223 60.1426C39.3223 60.3887 39.2344 60.5977 39.0586 60.7695Z" fill="white"/>
<path d="M42.7383 68.0996C41.9531 68.0996 41.3301 67.8086 40.8691 67.2266C40.4082 66.6445 40.1777 65.8516 40.1777 64.8477C40.1777 63.8516 40.4082 63.0645 40.8691 62.4863C41.334 61.9082 41.9609 61.6191 42.75 61.6191C43.1953 61.6191 43.5859 61.7266 43.9219 61.9414C44.2617 62.1562 44.5098 62.4414 44.666 62.7969H44.7012V59.5449H46.4121V68H44.7246V66.9219H44.6953C44.5391 67.2773 44.2871 67.5625 43.9395 67.7773C43.5918 67.9922 43.1914 68.0996 42.7383 68.0996ZM43.3184 62.9902C42.8887 62.9902 42.5488 63.1582 42.2988 63.4941C42.0527 63.8301 41.9297 64.2852 41.9297 64.8594C41.9297 65.4375 42.0527 65.8926 42.2988 66.2246C42.5488 66.5566 42.8887 66.7227 43.3184 66.7227C43.7441 66.7227 44.082 66.5566 44.332 66.2246C44.5859 65.8887 44.7129 65.4336 44.7129 64.8594C44.7129 64.2891 44.5859 63.8359 44.332 63.5C44.082 63.1602 43.7441 62.9902 43.3184 62.9902Z" fill="white"/>
<path d="M50.373 62.8496C50.002 62.8496 49.6914 62.9766 49.4414 63.2305C49.1953 63.4844 49.0566 63.8086 49.0254 64.2031H51.6914C51.6719 63.8008 51.541 63.4746 51.2988 63.2246C51.0605 62.9746 50.752 62.8496 50.373 62.8496ZM51.7148 66.0781H53.2852C53.1914 66.6953 52.8828 67.1934 52.3594 67.5723C51.8398 67.9473 51.1934 68.1348 50.4199 68.1348C49.4551 68.1348 48.6973 67.8457 48.1465 67.2676C47.5996 66.6895 47.3262 65.8965 47.3262 64.8887C47.3262 63.8848 47.5996 63.084 48.1465 62.4863C48.6934 61.8848 49.4297 61.584 50.3555 61.584C51.2656 61.584 51.9902 61.8691 52.5293 62.4395C53.0684 63.0098 53.3379 63.7734 53.3379 64.7305V65.252H49.0078V65.3574C49.0078 65.8066 49.1387 66.1719 49.4004 66.4531C49.666 66.7305 50.0156 66.8691 50.4492 66.8691C50.7617 66.8691 51.0312 66.7988 51.2578 66.6582C51.4844 66.5137 51.6367 66.3203 51.7148 66.0781Z" fill="white"/>
<path d="M57.5801 60.5762C58.3145 59.791 59.3086 59.3984 60.5625 59.3984C61.8164 59.3984 62.8086 59.791 63.5391 60.5762C64.2734 61.3613 64.6406 62.4277 64.6406 63.7754C64.6406 65.1191 64.2734 66.1836 63.5391 66.9688C62.8047 67.7539 61.8125 68.1465 60.5625 68.1465C59.3086 68.1465 58.3145 67.7539 57.5801 66.9688C56.8496 66.1836 56.4844 65.1191 56.4844 63.7754C56.4844 62.4277 56.8496 61.3613 57.5801 60.5762ZM62.2148 61.6602C61.8047 61.1367 61.2539 60.875 60.5625 60.875C59.8711 60.875 59.3184 61.1367 58.9043 61.6602C58.4941 62.1836 58.2891 62.8887 58.2891 63.7754C58.2891 64.6582 58.4941 65.3613 58.9043 65.8848C59.3145 66.4043 59.8672 66.6641 60.5625 66.6641C61.2539 66.6641 61.8047 66.4043 62.2148 65.8848C62.625 65.3613 62.8301 64.6582 62.8301 63.7754C62.8301 62.8887 62.625 62.1836 62.2148 61.6602Z" fill="white"/>
<path d="M65.6367 68V61.7188H67.2891V62.8496H67.3242C67.4336 62.4512 67.6172 62.1465 67.875 61.9355C68.1328 61.7246 68.4473 61.6191 68.8184 61.6191C68.998 61.6191 69.1602 61.6406 69.3047 61.6836V63.1895C69.1445 63.123 68.9375 63.0898 68.6836 63.0898C68.2617 63.0898 67.9336 63.2129 67.6992 63.459C67.4648 63.7051 67.3477 64.0488 67.3477 64.4902V68H65.6367Z" fill="white"/>
<path d="M72.1289 68.0996C71.3438 68.0996 70.7207 67.8086 70.2598 67.2266C69.7988 66.6445 69.5684 65.8516 69.5684 64.8477C69.5684 63.8516 69.7988 63.0645 70.2598 62.4863C70.7246 61.9082 71.3516 61.6191 72.1406 61.6191C72.5859 61.6191 72.9766 61.7266 73.3125 61.9414C73.6523 62.1562 73.9004 62.4414 74.0566 62.7969H74.0918V59.5449H75.8027V68H74.1152V66.9219H74.0859C73.9297 67.2773 73.6777 67.5625 73.3301 67.7773C72.9824 67.9922 72.582 68.0996 72.1289 68.0996ZM72.709 62.9902C72.2793 62.9902 71.9395 63.1582 71.6895 63.4941C71.4434 63.8301 71.3203 64.2852 71.3203 64.8594C71.3203 65.4375 71.4434 65.8926 71.6895 66.2246C71.9395 66.5566 72.2793 66.7227 72.709 66.7227C73.1348 66.7227 73.4727 66.5566 73.7227 66.2246C73.9766 65.8887 74.1035 65.4336 74.1035 64.8594C74.1035 64.2891 73.9766 63.8359 73.7227 63.5C73.4727 63.1602 73.1348 62.9902 72.709 62.9902Z" fill="white"/>
<path d="M79.7637 62.8496C79.3926 62.8496 79.082 62.9766 78.832 63.2305C78.5859 63.4844 78.4473 63.8086 78.416 64.2031H81.082C81.0625 63.8008 80.9316 63.4746 80.6895 63.2246C80.4512 62.9746 80.1426 62.8496 79.7637 62.8496ZM81.1055 66.0781H82.6758C82.582 66.6953 82.2734 67.1934 81.75 67.5723C81.2305 67.9473 80.584 68.1348 79.8105 68.1348C78.8457 68.1348 78.0879 67.8457 77.5371 67.2676C76.9902 66.6895 76.7168 65.8965 76.7168 64.8887C76.7168 63.8848 76.9902 63.084 77.5371 62.4863C78.084 61.8848 78.8203 61.584 79.7461 61.584C80.6562 61.584 81.3809 61.8691 81.9199 62.4395C82.459 63.0098 82.7285 63.7734 82.7285 64.7305V65.252H78.3984V65.3574C78.3984 65.8066 78.5293 66.1719 78.791 66.4531C79.0566 66.7305 79.4062 66.8691 79.8398 66.8691C80.1523 66.8691 80.4219 66.7988 80.6484 66.6582C80.875 66.5137 81.0273 66.3203 81.1055 66.0781Z" fill="white"/>
<path d="M83.6133 68V61.7188H85.2656V62.8496H85.3008C85.4102 62.4512 85.5938 62.1465 85.8516 61.9355C86.1094 61.7246 86.4238 61.6191 86.7949 61.6191C86.9746 61.6191 87.1367 61.6406 87.2812 61.6836V63.1895C87.1211 63.123 86.9141 63.0898 86.6602 63.0898C86.2383 63.0898 85.9102 63.2129 85.6758 63.459C85.4414 63.7051 85.3242 64.0488 85.3242 64.4902V68H83.6133Z" fill="white"/>
<path d="M87.8789 63.5645C87.8789 62.9668 88.1191 62.4883 88.5996 62.1289C89.0801 61.7656 89.7227 61.584 90.5273 61.584C91.3125 61.584 91.9434 61.7676 92.4199 62.1348C92.8965 62.502 93.1406 62.9902 93.1523 63.5996H91.5762C91.5566 63.3457 91.4512 63.1465 91.2598 63.002C91.0723 62.8574 90.8203 62.7852 90.5039 62.7852C90.207 62.7852 89.9688 62.8477 89.7891 62.9727C89.6133 63.0938 89.5254 63.2559 89.5254 63.459C89.5254 63.7637 89.7988 63.9805 90.3457 64.1094L91.5469 64.3672C92.1758 64.5078 92.627 64.7129 92.9004 64.9824C93.1777 65.248 93.3164 65.6152 93.3164 66.084C93.3164 66.7012 93.0586 67.1973 92.543 67.5723C92.0273 67.9473 91.3535 68.1348 90.5215 68.1348C89.6934 68.1348 89.0312 67.9512 88.5352 67.584C88.0391 67.2168 87.7676 66.7227 87.7207 66.1016H89.3906C89.4336 66.3672 89.5547 66.5723 89.7539 66.7168C89.957 66.8613 90.2285 66.9336 90.5684 66.9336C90.8926 66.9336 91.1465 66.875 91.3301 66.7578C91.5176 66.6367 91.6113 66.4727 91.6113 66.2656C91.6113 66.1055 91.5527 65.9785 91.4355 65.8848C91.3184 65.7871 91.1191 65.7051 90.8379 65.6387L89.6777 65.3809C88.4785 65.1074 87.8789 64.502 87.8789 63.5645Z" fill="white"/>
</svg>
