<svg width="146" height="109" viewBox="0 0 146 109" fill="none" xmlns="http://www.w3.org/2000/svg">
<g filter="url(#filter0_d_356_201)">
<mask id="path-1-outside-1_356_201" maskUnits="userSpaceOnUse" x="10" y="10" width="126" height="89" fill="black">
<rect fill="white" x="10" y="10" width="126" height="89"/>
<path d="M11 36C11 22.1929 22.1929 11 36 11H110C123.807 11 135 22.1929 135 36V73C135 86.8071 123.807 98 110 98H36C22.1929 98 11 86.8071 11 73V36Z"/>
<path d="M55.0425 62.9999H64.395C64.9301 63.005 65.4455 62.7979 65.8283 62.4239C66.2111 62.0499 66.4301 61.5396 66.4375 61.0044V37.5292C66.4386 36.6334 66.2436 35.7483 65.8664 34.9358C64.6604 32.3289 64.1095 30.1856 64.1363 28.1935C64.1386 28.0028 64.1026 27.8136 64.0305 27.637C63.9584 27.4604 63.8516 27.3001 63.7164 27.1656C63.4572 26.9031 63.1104 26.7452 62.7422 26.7221V25.2071C62.7372 24.9464 62.6637 24.6916 62.529 24.4684C62.3943 24.2451 62.2032 24.0613 61.9749 23.9354L61.2971 21.186C61.2186 20.8467 61.0268 20.5443 60.7533 20.3287C60.4798 20.1131 60.141 19.9972 59.7927 20.0001C59.4445 19.9972 59.1054 20.1131 58.8319 20.3287C58.5584 20.5443 58.3665 20.8467 58.2879 21.186L57.6308 23.8517C57.3601 23.9624 57.1275 24.1495 56.9614 24.3902C56.7953 24.6309 56.7028 24.9147 56.6953 25.2071V26.7221C56.3271 26.7452 55.9803 26.9031 55.7211 27.1656C55.5859 27.3001 55.4791 27.4604 55.407 27.637C55.3349 27.8136 55.2989 28.0028 55.3012 28.1935C55.328 30.1856 54.7771 32.3289 53.5711 34.9358C53.1939 35.7483 52.999 36.6334 53 37.5292V61.0044C53.0074 61.5396 53.2264 62.0499 53.6092 62.4239C53.992 62.7979 54.5074 63.005 55.0425 62.9999ZM59.5926 21.5075C59.6019 21.4613 59.6269 21.4198 59.6633 21.3899C59.6997 21.3601 59.7454 21.3438 59.7925 21.3438C59.8396 21.3438 59.8852 21.3601 59.9217 21.3899C59.9581 21.4198 59.9831 21.4613 59.9924 21.5075L60.5318 23.6954H59.0533L59.5926 21.5075ZM58.0391 25.2071C58.0391 25.1466 58.1566 25.0391 58.3481 25.0391H61.0894C61.2809 25.0391 61.3984 25.1466 61.3984 25.2071V26.7188H58.0391V25.2071ZM54.3438 37.5292C54.3436 36.8284 54.4961 36.136 54.7906 35.5002C55.4605 34.0969 55.975 32.6246 56.3251 31.1096H60.7689C60.9471 31.1096 61.118 31.0388 61.244 30.9128C61.37 30.7868 61.4408 30.6159 61.4408 30.4377C61.4408 30.2595 61.37 30.0886 61.244 29.9626C61.118 29.8366 60.9471 29.7658 60.7689 29.7658H56.5566C56.6205 29.2386 56.65 28.7078 56.6449 28.1767C56.6449 28.164 56.6475 28.1515 56.6528 28.1399C56.658 28.1283 56.6656 28.1179 56.6752 28.1096C56.7051 28.0809 56.7446 28.0642 56.786 28.0625H62.6515C62.6929 28.0642 62.7324 28.0809 62.7623 28.1096C62.7719 28.1179 62.7795 28.1283 62.7848 28.1399C62.79 28.1515 62.7926 28.164 62.7926 28.1767C62.7657 30.3771 63.3536 32.7018 64.647 35.5002C64.9414 36.136 65.0939 36.8284 65.0938 37.5292V54.2656H54.3438V37.5292ZM54.3438 55.6093H65.0938V56.9531H54.3438V55.6093ZM54.3438 58.2968H65.0938V61.0044C65.0873 61.1834 65.0101 61.3526 64.8791 61.4748C64.7481 61.5969 64.574 61.6622 64.395 61.6562H55.0425C54.8635 61.6622 54.6894 61.5969 54.5584 61.4748C54.4274 61.3526 54.3502 61.1834 54.3438 61.0044V58.2968Z"/>
<path d="M59.7188 34.7813C58.9214 34.7813 58.142 35.0177 57.4791 35.4606C56.8162 35.9036 56.2995 36.5332 55.9944 37.2698C55.6893 38.0064 55.6094 38.817 55.765 39.5989C55.9205 40.3809 56.3044 41.0992 56.8682 41.663C57.432 42.2268 58.1503 42.6107 58.9323 42.7663C59.7143 42.9218 60.5248 42.842 61.2614 42.5369C61.9981 42.2318 62.6277 41.7151 63.0706 41.0521C63.5136 40.3892 63.75 39.6098 63.75 38.8125C63.7488 37.7437 63.3237 36.719 62.568 35.9633C61.8122 35.2075 60.7875 34.7824 59.7188 34.7813ZM59.7188 41.5C59.1872 41.5 58.6676 41.3424 58.2257 41.0471C57.7837 40.7518 57.4392 40.332 57.2358 39.8409C57.0324 39.3499 56.9792 38.8095 57.0829 38.2882C57.1866 37.7669 57.4426 37.288 57.8184 36.9121C58.1943 36.5363 58.6731 36.2803 59.1945 36.1766C59.7158 36.0729 60.2561 36.1262 60.7472 36.3296C61.2383 36.533 61.658 36.8774 61.9533 37.3194C62.2486 37.7614 62.4063 38.281 62.4063 38.8125C62.4054 39.525 62.122 40.2081 61.6182 40.7119C61.1144 41.2158 60.4313 41.4992 59.7188 41.5ZM95.3281 48.8906H92.881C92.8216 48.4015 92.6099 47.9434 92.2758 47.5813C91.9168 47.2117 91.4569 46.9559 90.9536 46.8458C90.9028 46.032 90.5486 45.267 89.9608 44.7019C89.3574 44.175 88.6008 43.8557 87.8024 43.7912C87.7005 43.1974 87.2837 42.4113 85.9762 41.7418C84.7302 41.104 85.2064 39.8784 85.3127 39.6431C85.3634 39.5349 85.3843 39.4151 85.3732 39.2961C85.3621 39.177 85.3195 39.0631 85.2498 38.9661C85.18 38.869 85.0856 38.7924 84.9763 38.744C84.867 38.6956 84.7468 38.6772 84.628 38.6908C83.6856 38.7855 82.7912 39.1531 82.0547 39.7487C81.3182 40.3443 80.7715 41.1418 80.4816 42.0436C79.8482 41.8598 79.172 41.8893 78.557 42.1276C77.6765 42.5272 76.9628 43.2212 76.5384 44.09C74.5984 44.3666 73.2783 45.0897 72.6117 46.2425C72.171 47.0509 72.0366 47.9911 72.2329 48.8906H69.125C68.9468 48.8906 68.7759 48.9614 68.6499 49.0874C68.5239 49.2134 68.4531 49.3843 68.4531 49.5625C68.4531 56.7867 74.6319 62.664 82.2266 62.664C89.8212 62.664 96 56.7867 96 49.5625C96 49.3843 95.9292 49.2134 95.8032 49.0874C95.6772 48.9614 95.5063 48.8906 95.3281 48.8906ZM83.8009 40.2619C83.7518 40.8149 83.8758 41.3695 84.1557 41.849C84.4357 42.3284 84.8579 42.709 85.3637 42.9379C85.7735 43.1165 86.1271 43.4033 86.3865 43.7674C83.4929 43.7093 82.2076 43.0962 81.6864 42.7174C81.8217 42.171 82.0836 41.6641 82.4509 41.2376C82.8182 40.811 83.2807 40.4768 83.8009 40.2619ZM79.0462 43.3791C79.2811 43.2961 79.5303 43.2615 79.779 43.2772C80.0277 43.2929 80.2706 43.3587 80.4932 43.4706C81.1022 44.1071 82.7142 45.1162 86.819 45.1162C86.9865 45.1162 87.1588 45.1146 87.3348 45.1113C87.3425 45.1111 87.3495 45.109 87.357 45.1086C87.9697 45.0965 88.5671 45.3004 89.0444 45.6847C89.3619 45.9995 89.559 46.4157 89.6013 46.8607C83.3323 47.457 79.1837 45.3054 77.8588 44.485C78.128 44.0003 78.5436 43.6132 79.0462 43.3791ZM73.7748 46.9153C74.2331 46.1227 75.2596 45.6203 76.8143 45.413C77.7659 46.0667 81.4681 48.3132 87.3972 48.3132C88.4165 48.3114 89.4346 48.2465 90.4459 48.1189C90.7635 48.1478 91.0624 48.2819 91.2952 48.4999C91.3965 48.6115 91.47 48.7453 91.51 48.8906H73.6096C73.4073 48.2356 73.4665 47.5276 73.7748 46.9153ZM82.2266 61.3202C76.8695 61.3202 72.294 58.0972 70.5507 53.5937H93.9024C92.1591 58.0972 87.5837 61.3202 82.2266 61.3202ZM94.3251 52.2499H70.1281C69.9628 51.589 69.8586 50.9143 69.8169 50.2343H94.6362C94.5945 50.9143 94.4903 51.589 94.3251 52.2499Z"/>
<path d="M78.6138 59.4089C78.7832 59.4639 78.9676 59.4492 79.1262 59.3683C79.2849 59.2873 79.405 59.1467 79.46 58.9773C79.515 58.8078 79.5005 58.6235 79.4196 58.4647C79.3388 58.306 79.1982 58.1859 79.0288 58.1308C77.201 57.5487 75.5861 56.439 74.3875 54.9414C74.3326 54.8723 74.2647 54.8146 74.1876 54.7718C74.1105 54.7289 74.0257 54.7017 73.938 54.6916C73.8504 54.6815 73.7616 54.6888 73.6768 54.713C73.592 54.7372 73.5127 54.7779 73.4436 54.8328C73.3745 54.8876 73.3169 54.9555 73.274 55.0327C73.2312 55.1098 73.2039 55.1946 73.1939 55.2822C73.1838 55.3699 73.191 55.4586 73.2153 55.5435C73.2395 55.6283 73.2802 55.7075 73.335 55.7766C74.6977 57.4817 76.5343 58.7455 78.6138 59.4089Z"/>
<path d="M40.7715 76.5918H42.4766C42.5156 76.9355 42.6973 77.2148 43.0215 77.4297C43.3496 77.6406 43.75 77.7461 44.2227 77.7461C44.6914 77.7461 45.0723 77.6465 45.3652 77.4473C45.6621 77.2441 45.8105 76.9863 45.8105 76.6738C45.8105 76.4004 45.7012 76.1797 45.4824 76.0117C45.2637 75.8438 44.8984 75.7031 44.3867 75.5898L43.2852 75.3496C41.7344 75.0176 40.959 74.2305 40.959 72.9883C40.959 72.2148 41.2598 71.5898 41.8613 71.1133C42.4668 70.6367 43.2441 70.3984 44.1934 70.3984C45.1699 70.3984 45.9492 70.6309 46.5312 71.0957C47.1133 71.5566 47.4121 72.1719 47.4277 72.9414H45.7695C45.7422 72.5859 45.584 72.3066 45.2949 72.1035C45.0098 71.8965 44.6445 71.793 44.1992 71.793C43.7617 71.793 43.4082 71.8887 43.1387 72.0801C42.873 72.2715 42.7402 72.5234 42.7402 72.8359C42.7402 73.0938 42.8477 73.3027 43.0625 73.4629C43.2812 73.623 43.6348 73.7598 44.123 73.873L45.1484 74.0898C45.9961 74.2695 46.6133 74.5508 47 74.9336C47.3867 75.3125 47.5801 75.8242 47.5801 76.4688C47.5801 77.2891 47.2715 77.9414 46.6543 78.4258C46.0371 78.9062 45.2031 79.1465 44.1523 79.1465C43.1328 79.1465 42.3203 78.9199 41.7148 78.4668C41.1133 78.0098 40.7988 77.3848 40.7715 76.5918Z"/>
<path d="M48.5527 79V72.7188H50.2637V79H48.5527ZM50.0586 71.7695C49.8828 71.9414 49.666 72.0273 49.4082 72.0273C49.1504 72.0273 48.9336 71.9414 48.7578 71.7695C48.582 71.5977 48.4941 71.3887 48.4941 71.1426C48.4941 70.8926 48.582 70.6836 48.7578 70.5156C48.9336 70.3438 49.1504 70.2578 49.4082 70.2578C49.666 70.2578 49.8828 70.3438 50.0586 70.5156C50.2344 70.6836 50.3223 70.8926 50.3223 71.1426C50.3223 71.3887 50.2344 71.5977 50.0586 71.7695Z"/>
<path d="M53.7383 79.0996C52.9531 79.0996 52.3301 78.8086 51.8691 78.2266C51.4082 77.6445 51.1777 76.8516 51.1777 75.8477C51.1777 74.8516 51.4082 74.0645 51.8691 73.4863C52.334 72.9082 52.9609 72.6191 53.75 72.6191C54.1953 72.6191 54.5859 72.7266 54.9219 72.9414C55.2617 73.1562 55.5098 73.4414 55.666 73.7969H55.7012V70.5449H57.4121V79H55.7246V77.9219H55.6953C55.5391 78.2773 55.2871 78.5625 54.9395 78.7773C54.5918 78.9922 54.1914 79.0996 53.7383 79.0996ZM54.3184 73.9902C53.8887 73.9902 53.5488 74.1582 53.2988 74.4941C53.0527 74.8301 52.9297 75.2852 52.9297 75.8594C52.9297 76.4375 53.0527 76.8926 53.2988 77.2246C53.5488 77.5566 53.8887 77.7227 54.3184 77.7227C54.7441 77.7227 55.082 77.5566 55.332 77.2246C55.5859 76.8887 55.7129 76.4336 55.7129 75.8594C55.7129 75.2891 55.5859 74.8359 55.332 74.5C55.082 74.1602 54.7441 73.9902 54.3184 73.9902Z"/>
<path d="M61.373 73.8496C61.002 73.8496 60.6914 73.9766 60.4414 74.2305C60.1953 74.4844 60.0566 74.8086 60.0254 75.2031H62.6914C62.6719 74.8008 62.541 74.4746 62.2988 74.2246C62.0605 73.9746 61.752 73.8496 61.373 73.8496ZM62.7148 77.0781H64.2852C64.1914 77.6953 63.8828 78.1934 63.3594 78.5723C62.8398 78.9473 62.1934 79.1348 61.4199 79.1348C60.4551 79.1348 59.6973 78.8457 59.1465 78.2676C58.5996 77.6895 58.3262 76.8965 58.3262 75.8887C58.3262 74.8848 58.5996 74.084 59.1465 73.4863C59.6934 72.8848 60.4297 72.584 61.3555 72.584C62.2656 72.584 62.9902 72.8691 63.5293 73.4395C64.0684 74.0098 64.3379 74.7734 64.3379 75.7305V76.252H60.0078V76.3574C60.0078 76.8066 60.1387 77.1719 60.4004 77.4531C60.666 77.7305 61.0156 77.8691 61.4492 77.8691C61.7617 77.8691 62.0312 77.7988 62.2578 77.6582C62.4844 77.5137 62.6367 77.3203 62.7148 77.0781Z"/>
<path d="M68.5801 71.5762C69.3145 70.791 70.3086 70.3984 71.5625 70.3984C72.8164 70.3984 73.8086 70.791 74.5391 71.5762C75.2734 72.3613 75.6406 73.4277 75.6406 74.7754C75.6406 76.1191 75.2734 77.1836 74.5391 77.9688C73.8047 78.7539 72.8125 79.1465 71.5625 79.1465C70.3086 79.1465 69.3145 78.7539 68.5801 77.9688C67.8496 77.1836 67.4844 76.1191 67.4844 74.7754C67.4844 73.4277 67.8496 72.3613 68.5801 71.5762ZM73.2148 72.6602C72.8047 72.1367 72.2539 71.875 71.5625 71.875C70.8711 71.875 70.3184 72.1367 69.9043 72.6602C69.4941 73.1836 69.2891 73.8887 69.2891 74.7754C69.2891 75.6582 69.4941 76.3613 69.9043 76.8848C70.3145 77.4043 70.8672 77.6641 71.5625 77.6641C72.2539 77.6641 72.8047 77.4043 73.2148 76.8848C73.625 76.3613 73.8301 75.6582 73.8301 74.7754C73.8301 73.8887 73.625 73.1836 73.2148 72.6602Z"/>
<path d="M76.6367 79V72.7188H78.2891V73.8496H78.3242C78.4336 73.4512 78.6172 73.1465 78.875 72.9355C79.1328 72.7246 79.4473 72.6191 79.8184 72.6191C79.998 72.6191 80.1602 72.6406 80.3047 72.6836V74.1895C80.1445 74.123 79.9375 74.0898 79.6836 74.0898C79.2617 74.0898 78.9336 74.2129 78.6992 74.459C78.4648 74.7051 78.3477 75.0488 78.3477 75.4902V79H76.6367Z"/>
<path d="M83.1289 79.0996C82.3438 79.0996 81.7207 78.8086 81.2598 78.2266C80.7988 77.6445 80.5684 76.8516 80.5684 75.8477C80.5684 74.8516 80.7988 74.0645 81.2598 73.4863C81.7246 72.9082 82.3516 72.6191 83.1406 72.6191C83.5859 72.6191 83.9766 72.7266 84.3125 72.9414C84.6523 73.1562 84.9004 73.4414 85.0566 73.7969H85.0918V70.5449H86.8027V79H85.1152V77.9219H85.0859C84.9297 78.2773 84.6777 78.5625 84.3301 78.7773C83.9824 78.9922 83.582 79.0996 83.1289 79.0996ZM83.709 73.9902C83.2793 73.9902 82.9395 74.1582 82.6895 74.4941C82.4434 74.8301 82.3203 75.2852 82.3203 75.8594C82.3203 76.4375 82.4434 76.8926 82.6895 77.2246C82.9395 77.5566 83.2793 77.7227 83.709 77.7227C84.1348 77.7227 84.4727 77.5566 84.7227 77.2246C84.9766 76.8887 85.1035 76.4336 85.1035 75.8594C85.1035 75.2891 84.9766 74.8359 84.7227 74.5C84.4727 74.1602 84.1348 73.9902 83.709 73.9902Z"/>
<path d="M90.7637 73.8496C90.3926 73.8496 90.082 73.9766 89.832 74.2305C89.5859 74.4844 89.4473 74.8086 89.416 75.2031H92.082C92.0625 74.8008 91.9316 74.4746 91.6895 74.2246C91.4512 73.9746 91.1426 73.8496 90.7637 73.8496ZM92.1055 77.0781H93.6758C93.582 77.6953 93.2734 78.1934 92.75 78.5723C92.2305 78.9473 91.584 79.1348 90.8105 79.1348C89.8457 79.1348 89.0879 78.8457 88.5371 78.2676C87.9902 77.6895 87.7168 76.8965 87.7168 75.8887C87.7168 74.8848 87.9902 74.084 88.5371 73.4863C89.084 72.8848 89.8203 72.584 90.7461 72.584C91.6562 72.584 92.3809 72.8691 92.9199 73.4395C93.459 74.0098 93.7285 74.7734 93.7285 75.7305V76.252H89.3984V76.3574C89.3984 76.8066 89.5293 77.1719 89.791 77.4531C90.0566 77.7305 90.4062 77.8691 90.8398 77.8691C91.1523 77.8691 91.4219 77.7988 91.6484 77.6582C91.875 77.5137 92.0273 77.3203 92.1055 77.0781Z"/>
<path d="M94.6133 79V72.7188H96.2656V73.8496H96.3008C96.4102 73.4512 96.5938 73.1465 96.8516 72.9355C97.1094 72.7246 97.4238 72.6191 97.7949 72.6191C97.9746 72.6191 98.1367 72.6406 98.2812 72.6836V74.1895C98.1211 74.123 97.9141 74.0898 97.6602 74.0898C97.2383 74.0898 96.9102 74.2129 96.6758 74.459C96.4414 74.7051 96.3242 75.0488 96.3242 75.4902V79H94.6133Z"/>
<path d="M98.8789 74.5645C98.8789 73.9668 99.1191 73.4883 99.5996 73.1289C100.08 72.7656 100.723 72.584 101.527 72.584C102.312 72.584 102.943 72.7676 103.42 73.1348C103.896 73.502 104.141 73.9902 104.152 74.5996H102.576C102.557 74.3457 102.451 74.1465 102.26 74.002C102.072 73.8574 101.82 73.7852 101.504 73.7852C101.207 73.7852 100.969 73.8477 100.789 73.9727C100.613 74.0938 100.525 74.2559 100.525 74.459C100.525 74.7637 100.799 74.9805 101.346 75.1094L102.547 75.3672C103.176 75.5078 103.627 75.7129 103.9 75.9824C104.178 76.248 104.316 76.6152 104.316 77.084C104.316 77.7012 104.059 78.1973 103.543 78.5723C103.027 78.9473 102.354 79.1348 101.521 79.1348C100.693 79.1348 100.031 78.9512 99.5352 78.584C99.0391 78.2168 98.7676 77.7227 98.7207 77.1016H100.391C100.434 77.3672 100.555 77.5723 100.754 77.7168C100.957 77.8613 101.229 77.9336 101.568 77.9336C101.893 77.9336 102.146 77.875 102.33 77.7578C102.518 77.6367 102.611 77.4727 102.611 77.2656C102.611 77.1055 102.553 76.9785 102.436 76.8848C102.318 76.7871 102.119 76.7051 101.838 76.6387L100.678 76.3809C99.4785 76.1074 98.8789 75.502 98.8789 74.5645Z"/>
</mask>
<path d="M11 36C11 22.1929 22.1929 11 36 11H110C123.807 11 135 22.1929 135 36V73C135 86.8071 123.807 98 110 98H36C22.1929 98 11 86.8071 11 73V36Z" fill="#2E3235"/>
<path d="M55.0425 62.9999H64.395C64.9301 63.005 65.4455 62.7979 65.8283 62.4239C66.2111 62.0499 66.4301 61.5396 66.4375 61.0044V37.5292C66.4386 36.6334 66.2436 35.7483 65.8664 34.9358C64.6604 32.3289 64.1095 30.1856 64.1363 28.1935C64.1386 28.0028 64.1026 27.8136 64.0305 27.637C63.9584 27.4604 63.8516 27.3001 63.7164 27.1656C63.4572 26.9031 63.1104 26.7452 62.7422 26.7221V25.2071C62.7372 24.9464 62.6637 24.6916 62.529 24.4684C62.3943 24.2451 62.2032 24.0613 61.9749 23.9354L61.2971 21.186C61.2186 20.8467 61.0268 20.5443 60.7533 20.3287C60.4798 20.1131 60.141 19.9972 59.7927 20.0001C59.4445 19.9972 59.1054 20.1131 58.8319 20.3287C58.5584 20.5443 58.3665 20.8467 58.2879 21.186L57.6308 23.8517C57.3601 23.9624 57.1275 24.1495 56.9614 24.3902C56.7953 24.6309 56.7028 24.9147 56.6953 25.2071V26.7221C56.3271 26.7452 55.9803 26.9031 55.7211 27.1656C55.5859 27.3001 55.4791 27.4604 55.407 27.637C55.3349 27.8136 55.2989 28.0028 55.3012 28.1935C55.328 30.1856 54.7771 32.3289 53.5711 34.9358C53.1939 35.7483 52.999 36.6334 53 37.5292V61.0044C53.0074 61.5396 53.2264 62.0499 53.6092 62.4239C53.992 62.7979 54.5074 63.005 55.0425 62.9999ZM59.5926 21.5075C59.6019 21.4613 59.6269 21.4198 59.6633 21.3899C59.6997 21.3601 59.7454 21.3438 59.7925 21.3438C59.8396 21.3438 59.8852 21.3601 59.9217 21.3899C59.9581 21.4198 59.9831 21.4613 59.9924 21.5075L60.5318 23.6954H59.0533L59.5926 21.5075ZM58.0391 25.2071C58.0391 25.1466 58.1566 25.0391 58.3481 25.0391H61.0894C61.2809 25.0391 61.3984 25.1466 61.3984 25.2071V26.7188H58.0391V25.2071ZM54.3438 37.5292C54.3436 36.8284 54.4961 36.136 54.7906 35.5002C55.4605 34.0969 55.975 32.6246 56.3251 31.1096H60.7689C60.9471 31.1096 61.118 31.0388 61.244 30.9128C61.37 30.7868 61.4408 30.6159 61.4408 30.4377C61.4408 30.2595 61.37 30.0886 61.244 29.9626C61.118 29.8366 60.9471 29.7658 60.7689 29.7658H56.5566C56.6205 29.2386 56.65 28.7078 56.6449 28.1767C56.6449 28.164 56.6475 28.1515 56.6528 28.1399C56.658 28.1283 56.6656 28.1179 56.6752 28.1096C56.7051 28.0809 56.7446 28.0642 56.786 28.0625H62.6515C62.6929 28.0642 62.7324 28.0809 62.7623 28.1096C62.7719 28.1179 62.7795 28.1283 62.7848 28.1399C62.79 28.1515 62.7926 28.164 62.7926 28.1767C62.7657 30.3771 63.3536 32.7018 64.647 35.5002C64.9414 36.136 65.0939 36.8284 65.0938 37.5292V54.2656H54.3438V37.5292ZM54.3438 55.6093H65.0938V56.9531H54.3438V55.6093ZM54.3438 58.2968H65.0938V61.0044C65.0873 61.1834 65.0101 61.3526 64.8791 61.4748C64.7481 61.5969 64.574 61.6622 64.395 61.6562H55.0425C54.8635 61.6622 54.6894 61.5969 54.5584 61.4748C54.4274 61.3526 54.3502 61.1834 54.3438 61.0044V58.2968Z" fill="#F83103"/>
<path d="M59.7188 34.7813C58.9214 34.7813 58.142 35.0177 57.4791 35.4606C56.8162 35.9036 56.2995 36.5332 55.9944 37.2698C55.6893 38.0064 55.6094 38.817 55.765 39.5989C55.9205 40.3809 56.3044 41.0992 56.8682 41.663C57.432 42.2268 58.1503 42.6107 58.9323 42.7663C59.7143 42.9218 60.5248 42.842 61.2614 42.5369C61.9981 42.2318 62.6277 41.7151 63.0706 41.0521C63.5136 40.3892 63.75 39.6098 63.75 38.8125C63.7488 37.7437 63.3237 36.719 62.568 35.9633C61.8122 35.2075 60.7875 34.7824 59.7188 34.7813ZM59.7188 41.5C59.1872 41.5 58.6676 41.3424 58.2257 41.0471C57.7837 40.7518 57.4392 40.332 57.2358 39.8409C57.0324 39.3499 56.9792 38.8095 57.0829 38.2882C57.1866 37.7669 57.4426 37.288 57.8184 36.9121C58.1943 36.5363 58.6731 36.2803 59.1945 36.1766C59.7158 36.0729 60.2561 36.1262 60.7472 36.3296C61.2383 36.533 61.658 36.8774 61.9533 37.3194C62.2486 37.7614 62.4063 38.281 62.4063 38.8125C62.4054 39.525 62.122 40.2081 61.6182 40.7119C61.1144 41.2158 60.4313 41.4992 59.7188 41.5ZM95.3281 48.8906H92.881C92.8216 48.4015 92.6099 47.9434 92.2758 47.5813C91.9168 47.2117 91.4569 46.9559 90.9536 46.8458C90.9028 46.032 90.5486 45.267 89.9608 44.7019C89.3574 44.175 88.6008 43.8557 87.8024 43.7912C87.7005 43.1974 87.2837 42.4113 85.9762 41.7418C84.7302 41.104 85.2064 39.8784 85.3127 39.6431C85.3634 39.5349 85.3843 39.4151 85.3732 39.2961C85.3621 39.177 85.3195 39.0631 85.2498 38.9661C85.18 38.869 85.0856 38.7924 84.9763 38.744C84.867 38.6956 84.7468 38.6772 84.628 38.6908C83.6856 38.7855 82.7912 39.1531 82.0547 39.7487C81.3182 40.3443 80.7715 41.1418 80.4816 42.0436C79.8482 41.8598 79.172 41.8893 78.557 42.1276C77.6765 42.5272 76.9628 43.2212 76.5384 44.09C74.5984 44.3666 73.2783 45.0897 72.6117 46.2425C72.171 47.0509 72.0366 47.9911 72.2329 48.8906H69.125C68.9468 48.8906 68.7759 48.9614 68.6499 49.0874C68.5239 49.2134 68.4531 49.3843 68.4531 49.5625C68.4531 56.7867 74.6319 62.664 82.2266 62.664C89.8212 62.664 96 56.7867 96 49.5625C96 49.3843 95.9292 49.2134 95.8032 49.0874C95.6772 48.9614 95.5063 48.8906 95.3281 48.8906ZM83.8009 40.2619C83.7518 40.8149 83.8758 41.3695 84.1557 41.849C84.4357 42.3284 84.8579 42.709 85.3637 42.9379C85.7735 43.1165 86.1271 43.4033 86.3865 43.7674C83.4929 43.7093 82.2076 43.0962 81.6864 42.7174C81.8217 42.171 82.0836 41.6641 82.4509 41.2376C82.8182 40.811 83.2807 40.4768 83.8009 40.2619ZM79.0462 43.3791C79.2811 43.2961 79.5303 43.2615 79.779 43.2772C80.0277 43.2929 80.2706 43.3587 80.4932 43.4706C81.1022 44.1071 82.7142 45.1162 86.819 45.1162C86.9865 45.1162 87.1588 45.1146 87.3348 45.1113C87.3425 45.1111 87.3495 45.109 87.357 45.1086C87.9697 45.0965 88.5671 45.3004 89.0444 45.6847C89.3619 45.9995 89.559 46.4157 89.6013 46.8607C83.3323 47.457 79.1837 45.3054 77.8588 44.485C78.128 44.0003 78.5436 43.6132 79.0462 43.3791ZM73.7748 46.9153C74.2331 46.1227 75.2596 45.6203 76.8143 45.413C77.7659 46.0667 81.4681 48.3132 87.3972 48.3132C88.4165 48.3114 89.4346 48.2465 90.4459 48.1189C90.7635 48.1478 91.0624 48.2819 91.2952 48.4999C91.3965 48.6115 91.47 48.7453 91.51 48.8906H73.6096C73.4073 48.2356 73.4665 47.5276 73.7748 46.9153ZM82.2266 61.3202C76.8695 61.3202 72.294 58.0972 70.5507 53.5937H93.9024C92.1591 58.0972 87.5837 61.3202 82.2266 61.3202ZM94.3251 52.2499H70.1281C69.9628 51.589 69.8586 50.9143 69.8169 50.2343H94.6362C94.5945 50.9143 94.4903 51.589 94.3251 52.2499Z" fill="#F83103"/>
<path d="M78.6138 59.4089C78.7832 59.4639 78.9676 59.4492 79.1262 59.3683C79.2849 59.2873 79.405 59.1467 79.46 58.9773C79.515 58.8078 79.5005 58.6235 79.4196 58.4647C79.3388 58.306 79.1982 58.1859 79.0288 58.1308C77.201 57.5487 75.5861 56.439 74.3875 54.9414C74.3326 54.8723 74.2647 54.8146 74.1876 54.7718C74.1105 54.7289 74.0257 54.7017 73.938 54.6916C73.8504 54.6815 73.7616 54.6888 73.6768 54.713C73.592 54.7372 73.5127 54.7779 73.4436 54.8328C73.3745 54.8876 73.3169 54.9555 73.274 55.0327C73.2312 55.1098 73.2039 55.1946 73.1939 55.2822C73.1838 55.3699 73.191 55.4586 73.2153 55.5435C73.2395 55.6283 73.2802 55.7075 73.335 55.7766C74.6977 57.4817 76.5343 58.7455 78.6138 59.4089Z" fill="#F83103"/>
<path d="M40.7715 76.5918H42.4766C42.5156 76.9355 42.6973 77.2148 43.0215 77.4297C43.3496 77.6406 43.75 77.7461 44.2227 77.7461C44.6914 77.7461 45.0723 77.6465 45.3652 77.4473C45.6621 77.2441 45.8105 76.9863 45.8105 76.6738C45.8105 76.4004 45.7012 76.1797 45.4824 76.0117C45.2637 75.8438 44.8984 75.7031 44.3867 75.5898L43.2852 75.3496C41.7344 75.0176 40.959 74.2305 40.959 72.9883C40.959 72.2148 41.2598 71.5898 41.8613 71.1133C42.4668 70.6367 43.2441 70.3984 44.1934 70.3984C45.1699 70.3984 45.9492 70.6309 46.5312 71.0957C47.1133 71.5566 47.4121 72.1719 47.4277 72.9414H45.7695C45.7422 72.5859 45.584 72.3066 45.2949 72.1035C45.0098 71.8965 44.6445 71.793 44.1992 71.793C43.7617 71.793 43.4082 71.8887 43.1387 72.0801C42.873 72.2715 42.7402 72.5234 42.7402 72.8359C42.7402 73.0938 42.8477 73.3027 43.0625 73.4629C43.2812 73.623 43.6348 73.7598 44.123 73.873L45.1484 74.0898C45.9961 74.2695 46.6133 74.5508 47 74.9336C47.3867 75.3125 47.5801 75.8242 47.5801 76.4688C47.5801 77.2891 47.2715 77.9414 46.6543 78.4258C46.0371 78.9062 45.2031 79.1465 44.1523 79.1465C43.1328 79.1465 42.3203 78.9199 41.7148 78.4668C41.1133 78.0098 40.7988 77.3848 40.7715 76.5918Z" fill="#F83103"/>
<path d="M48.5527 79V72.7188H50.2637V79H48.5527ZM50.0586 71.7695C49.8828 71.9414 49.666 72.0273 49.4082 72.0273C49.1504 72.0273 48.9336 71.9414 48.7578 71.7695C48.582 71.5977 48.4941 71.3887 48.4941 71.1426C48.4941 70.8926 48.582 70.6836 48.7578 70.5156C48.9336 70.3438 49.1504 70.2578 49.4082 70.2578C49.666 70.2578 49.8828 70.3438 50.0586 70.5156C50.2344 70.6836 50.3223 70.8926 50.3223 71.1426C50.3223 71.3887 50.2344 71.5977 50.0586 71.7695Z" fill="#F83103"/>
<path d="M53.7383 79.0996C52.9531 79.0996 52.3301 78.8086 51.8691 78.2266C51.4082 77.6445 51.1777 76.8516 51.1777 75.8477C51.1777 74.8516 51.4082 74.0645 51.8691 73.4863C52.334 72.9082 52.9609 72.6191 53.75 72.6191C54.1953 72.6191 54.5859 72.7266 54.9219 72.9414C55.2617 73.1562 55.5098 73.4414 55.666 73.7969H55.7012V70.5449H57.4121V79H55.7246V77.9219H55.6953C55.5391 78.2773 55.2871 78.5625 54.9395 78.7773C54.5918 78.9922 54.1914 79.0996 53.7383 79.0996ZM54.3184 73.9902C53.8887 73.9902 53.5488 74.1582 53.2988 74.4941C53.0527 74.8301 52.9297 75.2852 52.9297 75.8594C52.9297 76.4375 53.0527 76.8926 53.2988 77.2246C53.5488 77.5566 53.8887 77.7227 54.3184 77.7227C54.7441 77.7227 55.082 77.5566 55.332 77.2246C55.5859 76.8887 55.7129 76.4336 55.7129 75.8594C55.7129 75.2891 55.5859 74.8359 55.332 74.5C55.082 74.1602 54.7441 73.9902 54.3184 73.9902Z" fill="#F83103"/>
<path d="M61.373 73.8496C61.002 73.8496 60.6914 73.9766 60.4414 74.2305C60.1953 74.4844 60.0566 74.8086 60.0254 75.2031H62.6914C62.6719 74.8008 62.541 74.4746 62.2988 74.2246C62.0605 73.9746 61.752 73.8496 61.373 73.8496ZM62.7148 77.0781H64.2852C64.1914 77.6953 63.8828 78.1934 63.3594 78.5723C62.8398 78.9473 62.1934 79.1348 61.4199 79.1348C60.4551 79.1348 59.6973 78.8457 59.1465 78.2676C58.5996 77.6895 58.3262 76.8965 58.3262 75.8887C58.3262 74.8848 58.5996 74.084 59.1465 73.4863C59.6934 72.8848 60.4297 72.584 61.3555 72.584C62.2656 72.584 62.9902 72.8691 63.5293 73.4395C64.0684 74.0098 64.3379 74.7734 64.3379 75.7305V76.252H60.0078V76.3574C60.0078 76.8066 60.1387 77.1719 60.4004 77.4531C60.666 77.7305 61.0156 77.8691 61.4492 77.8691C61.7617 77.8691 62.0312 77.7988 62.2578 77.6582C62.4844 77.5137 62.6367 77.3203 62.7148 77.0781Z" fill="#F83103"/>
<path d="M68.5801 71.5762C69.3145 70.791 70.3086 70.3984 71.5625 70.3984C72.8164 70.3984 73.8086 70.791 74.5391 71.5762C75.2734 72.3613 75.6406 73.4277 75.6406 74.7754C75.6406 76.1191 75.2734 77.1836 74.5391 77.9688C73.8047 78.7539 72.8125 79.1465 71.5625 79.1465C70.3086 79.1465 69.3145 78.7539 68.5801 77.9688C67.8496 77.1836 67.4844 76.1191 67.4844 74.7754C67.4844 73.4277 67.8496 72.3613 68.5801 71.5762ZM73.2148 72.6602C72.8047 72.1367 72.2539 71.875 71.5625 71.875C70.8711 71.875 70.3184 72.1367 69.9043 72.6602C69.4941 73.1836 69.2891 73.8887 69.2891 74.7754C69.2891 75.6582 69.4941 76.3613 69.9043 76.8848C70.3145 77.4043 70.8672 77.6641 71.5625 77.6641C72.2539 77.6641 72.8047 77.4043 73.2148 76.8848C73.625 76.3613 73.8301 75.6582 73.8301 74.7754C73.8301 73.8887 73.625 73.1836 73.2148 72.6602Z" fill="#F83103"/>
<path d="M76.6367 79V72.7188H78.2891V73.8496H78.3242C78.4336 73.4512 78.6172 73.1465 78.875 72.9355C79.1328 72.7246 79.4473 72.6191 79.8184 72.6191C79.998 72.6191 80.1602 72.6406 80.3047 72.6836V74.1895C80.1445 74.123 79.9375 74.0898 79.6836 74.0898C79.2617 74.0898 78.9336 74.2129 78.6992 74.459C78.4648 74.7051 78.3477 75.0488 78.3477 75.4902V79H76.6367Z" fill="#F83103"/>
<path d="M83.1289 79.0996C82.3438 79.0996 81.7207 78.8086 81.2598 78.2266C80.7988 77.6445 80.5684 76.8516 80.5684 75.8477C80.5684 74.8516 80.7988 74.0645 81.2598 73.4863C81.7246 72.9082 82.3516 72.6191 83.1406 72.6191C83.5859 72.6191 83.9766 72.7266 84.3125 72.9414C84.6523 73.1562 84.9004 73.4414 85.0566 73.7969H85.0918V70.5449H86.8027V79H85.1152V77.9219H85.0859C84.9297 78.2773 84.6777 78.5625 84.3301 78.7773C83.9824 78.9922 83.582 79.0996 83.1289 79.0996ZM83.709 73.9902C83.2793 73.9902 82.9395 74.1582 82.6895 74.4941C82.4434 74.8301 82.3203 75.2852 82.3203 75.8594C82.3203 76.4375 82.4434 76.8926 82.6895 77.2246C82.9395 77.5566 83.2793 77.7227 83.709 77.7227C84.1348 77.7227 84.4727 77.5566 84.7227 77.2246C84.9766 76.8887 85.1035 76.4336 85.1035 75.8594C85.1035 75.2891 84.9766 74.8359 84.7227 74.5C84.4727 74.1602 84.1348 73.9902 83.709 73.9902Z" fill="#F83103"/>
<path d="M90.7637 73.8496C90.3926 73.8496 90.082 73.9766 89.832 74.2305C89.5859 74.4844 89.4473 74.8086 89.416 75.2031H92.082C92.0625 74.8008 91.9316 74.4746 91.6895 74.2246C91.4512 73.9746 91.1426 73.8496 90.7637 73.8496ZM92.1055 77.0781H93.6758C93.582 77.6953 93.2734 78.1934 92.75 78.5723C92.2305 78.9473 91.584 79.1348 90.8105 79.1348C89.8457 79.1348 89.0879 78.8457 88.5371 78.2676C87.9902 77.6895 87.7168 76.8965 87.7168 75.8887C87.7168 74.8848 87.9902 74.084 88.5371 73.4863C89.084 72.8848 89.8203 72.584 90.7461 72.584C91.6562 72.584 92.3809 72.8691 92.9199 73.4395C93.459 74.0098 93.7285 74.7734 93.7285 75.7305V76.252H89.3984V76.3574C89.3984 76.8066 89.5293 77.1719 89.791 77.4531C90.0566 77.7305 90.4062 77.8691 90.8398 77.8691C91.1523 77.8691 91.4219 77.7988 91.6484 77.6582C91.875 77.5137 92.0273 77.3203 92.1055 77.0781Z" fill="#F83103"/>
<path d="M94.6133 79V72.7188H96.2656V73.8496H96.3008C96.4102 73.4512 96.5938 73.1465 96.8516 72.9355C97.1094 72.7246 97.4238 72.6191 97.7949 72.6191C97.9746 72.6191 98.1367 72.6406 98.2812 72.6836V74.1895C98.1211 74.123 97.9141 74.0898 97.6602 74.0898C97.2383 74.0898 96.9102 74.2129 96.6758 74.459C96.4414 74.7051 96.3242 75.0488 96.3242 75.4902V79H94.6133Z" fill="#F83103"/>
<path d="M98.8789 74.5645C98.8789 73.9668 99.1191 73.4883 99.5996 73.1289C100.08 72.7656 100.723 72.584 101.527 72.584C102.312 72.584 102.943 72.7676 103.42 73.1348C103.896 73.502 104.141 73.9902 104.152 74.5996H102.576C102.557 74.3457 102.451 74.1465 102.26 74.002C102.072 73.8574 101.82 73.7852 101.504 73.7852C101.207 73.7852 100.969 73.8477 100.789 73.9727C100.613 74.0938 100.525 74.2559 100.525 74.459C100.525 74.7637 100.799 74.9805 101.346 75.1094L102.547 75.3672C103.176 75.5078 103.627 75.7129 103.9 75.9824C104.178 76.248 104.316 76.6152 104.316 77.084C104.316 77.7012 104.059 78.1973 103.543 78.5723C103.027 78.9473 102.354 79.1348 101.521 79.1348C100.693 79.1348 100.031 78.9512 99.5352 78.584C99.0391 78.2168 98.7676 77.7227 98.7207 77.1016H100.391C100.434 77.3672 100.555 77.5723 100.754 77.7168C100.957 77.8613 101.229 77.9336 101.568 77.9336C101.893 77.9336 102.146 77.875 102.33 77.7578C102.518 77.6367 102.611 77.4727 102.611 77.2656C102.611 77.1055 102.553 76.9785 102.436 76.8848C102.318 76.7871 102.119 76.7051 101.838 76.6387L100.678 76.3809C99.4785 76.1074 98.8789 75.502 98.8789 74.5645Z" fill="#F83103"/>
<path d="M11 36C11 22.1929 22.1929 11 36 11H110C123.807 11 135 22.1929 135 36V73C135 86.8071 123.807 98 110 98H36C22.1929 98 11 86.8071 11 73V36Z" stroke="#F83103" stroke-width="2" mask="url(#path-1-outside-1_356_201)"/>
<path d="M55.0425 62.9999H64.395C64.9301 63.005 65.4455 62.7979 65.8283 62.4239C66.2111 62.0499 66.4301 61.5396 66.4375 61.0044V37.5292C66.4386 36.6334 66.2436 35.7483 65.8664 34.9358C64.6604 32.3289 64.1095 30.1856 64.1363 28.1935C64.1386 28.0028 64.1026 27.8136 64.0305 27.637C63.9584 27.4604 63.8516 27.3001 63.7164 27.1656C63.4572 26.9031 63.1104 26.7452 62.7422 26.7221V25.2071C62.7372 24.9464 62.6637 24.6916 62.529 24.4684C62.3943 24.2451 62.2032 24.0613 61.9749 23.9354L61.2971 21.186C61.2186 20.8467 61.0268 20.5443 60.7533 20.3287C60.4798 20.1131 60.141 19.9972 59.7927 20.0001C59.4445 19.9972 59.1054 20.1131 58.8319 20.3287C58.5584 20.5443 58.3665 20.8467 58.2879 21.186L57.6308 23.8517C57.3601 23.9624 57.1275 24.1495 56.9614 24.3902C56.7953 24.6309 56.7028 24.9147 56.6953 25.2071V26.7221C56.3271 26.7452 55.9803 26.9031 55.7211 27.1656C55.5859 27.3001 55.4791 27.4604 55.407 27.637C55.3349 27.8136 55.2989 28.0028 55.3012 28.1935C55.328 30.1856 54.7771 32.3289 53.5711 34.9358C53.1939 35.7483 52.999 36.6334 53 37.5292V61.0044C53.0074 61.5396 53.2264 62.0499 53.6092 62.4239C53.992 62.7979 54.5074 63.005 55.0425 62.9999ZM59.5926 21.5075C59.6019 21.4613 59.6269 21.4198 59.6633 21.3899C59.6997 21.3601 59.7454 21.3438 59.7925 21.3438C59.8396 21.3438 59.8852 21.3601 59.9217 21.3899C59.9581 21.4198 59.9831 21.4613 59.9924 21.5075L60.5318 23.6954H59.0533L59.5926 21.5075ZM58.0391 25.2071C58.0391 25.1466 58.1566 25.0391 58.3481 25.0391H61.0894C61.2809 25.0391 61.3984 25.1466 61.3984 25.2071V26.7188H58.0391V25.2071ZM54.3438 37.5292C54.3436 36.8284 54.4961 36.136 54.7906 35.5002C55.4605 34.0969 55.975 32.6246 56.3251 31.1096H60.7689C60.9471 31.1096 61.118 31.0388 61.244 30.9128C61.37 30.7868 61.4408 30.6159 61.4408 30.4377C61.4408 30.2595 61.37 30.0886 61.244 29.9626C61.118 29.8366 60.9471 29.7658 60.7689 29.7658H56.5566C56.6205 29.2386 56.65 28.7078 56.6449 28.1767C56.6449 28.164 56.6475 28.1515 56.6528 28.1399C56.658 28.1283 56.6656 28.1179 56.6752 28.1096C56.7051 28.0809 56.7446 28.0642 56.786 28.0625H62.6515C62.6929 28.0642 62.7324 28.0809 62.7623 28.1096C62.7719 28.1179 62.7795 28.1283 62.7848 28.1399C62.79 28.1515 62.7926 28.164 62.7926 28.1767C62.7657 30.3771 63.3536 32.7018 64.647 35.5002C64.9414 36.136 65.0939 36.8284 65.0938 37.5292V54.2656H54.3438V37.5292ZM54.3438 55.6093H65.0938V56.9531H54.3438V55.6093ZM54.3438 58.2968H65.0938V61.0044C65.0873 61.1834 65.0101 61.3526 64.8791 61.4748C64.7481 61.5969 64.574 61.6622 64.395 61.6562H55.0425C54.8635 61.6622 54.6894 61.5969 54.5584 61.4748C54.4274 61.3526 54.3502 61.1834 54.3438 61.0044V58.2968Z" stroke="#F83103" stroke-width="2" mask="url(#path-1-outside-1_356_201)"/>
<path d="M59.7188 34.7813C58.9214 34.7813 58.142 35.0177 57.4791 35.4606C56.8162 35.9036 56.2995 36.5332 55.9944 37.2698C55.6893 38.0064 55.6094 38.817 55.765 39.5989C55.9205 40.3809 56.3044 41.0992 56.8682 41.663C57.432 42.2268 58.1503 42.6107 58.9323 42.7663C59.7143 42.9218 60.5248 42.842 61.2614 42.5369C61.9981 42.2318 62.6277 41.7151 63.0706 41.0521C63.5136 40.3892 63.75 39.6098 63.75 38.8125C63.7488 37.7437 63.3237 36.719 62.568 35.9633C61.8122 35.2075 60.7875 34.7824 59.7188 34.7813ZM59.7188 41.5C59.1872 41.5 58.6676 41.3424 58.2257 41.0471C57.7837 40.7518 57.4392 40.332 57.2358 39.8409C57.0324 39.3499 56.9792 38.8095 57.0829 38.2882C57.1866 37.7669 57.4426 37.288 57.8184 36.9121C58.1943 36.5363 58.6731 36.2803 59.1945 36.1766C59.7158 36.0729 60.2561 36.1262 60.7472 36.3296C61.2383 36.533 61.658 36.8774 61.9533 37.3194C62.2486 37.7614 62.4063 38.281 62.4063 38.8125C62.4054 39.525 62.122 40.2081 61.6182 40.7119C61.1144 41.2158 60.4313 41.4992 59.7188 41.5ZM95.3281 48.8906H92.881C92.8216 48.4015 92.6099 47.9434 92.2758 47.5813C91.9168 47.2117 91.4569 46.9559 90.9536 46.8458C90.9028 46.032 90.5486 45.267 89.9608 44.7019C89.3574 44.175 88.6008 43.8557 87.8024 43.7912C87.7005 43.1974 87.2837 42.4113 85.9762 41.7418C84.7302 41.104 85.2064 39.8784 85.3127 39.6431C85.3634 39.5349 85.3843 39.4151 85.3732 39.2961C85.3621 39.177 85.3195 39.0631 85.2498 38.9661C85.18 38.869 85.0856 38.7924 84.9763 38.744C84.867 38.6956 84.7468 38.6772 84.628 38.6908C83.6856 38.7855 82.7912 39.1531 82.0547 39.7487C81.3182 40.3443 80.7715 41.1418 80.4816 42.0436C79.8482 41.8598 79.172 41.8893 78.557 42.1276C77.6765 42.5272 76.9628 43.2212 76.5384 44.09C74.5984 44.3666 73.2783 45.0897 72.6117 46.2425C72.171 47.0509 72.0366 47.9911 72.2329 48.8906H69.125C68.9468 48.8906 68.7759 48.9614 68.6499 49.0874C68.5239 49.2134 68.4531 49.3843 68.4531 49.5625C68.4531 56.7867 74.6319 62.664 82.2266 62.664C89.8212 62.664 96 56.7867 96 49.5625C96 49.3843 95.9292 49.2134 95.8032 49.0874C95.6772 48.9614 95.5063 48.8906 95.3281 48.8906ZM83.8009 40.2619C83.7518 40.8149 83.8758 41.3695 84.1557 41.849C84.4357 42.3284 84.8579 42.709 85.3637 42.9379C85.7735 43.1165 86.1271 43.4033 86.3865 43.7674C83.4929 43.7093 82.2076 43.0962 81.6864 42.7174C81.8217 42.171 82.0836 41.6641 82.4509 41.2376C82.8182 40.811 83.2807 40.4768 83.8009 40.2619ZM79.0462 43.3791C79.2811 43.2961 79.5303 43.2615 79.779 43.2772C80.0277 43.2929 80.2706 43.3587 80.4932 43.4706C81.1022 44.1071 82.7142 45.1162 86.819 45.1162C86.9865 45.1162 87.1588 45.1146 87.3348 45.1113C87.3425 45.1111 87.3495 45.109 87.357 45.1086C87.9697 45.0965 88.5671 45.3004 89.0444 45.6847C89.3619 45.9995 89.559 46.4157 89.6013 46.8607C83.3323 47.457 79.1837 45.3054 77.8588 44.485C78.128 44.0003 78.5436 43.6132 79.0462 43.3791ZM73.7748 46.9153C74.2331 46.1227 75.2596 45.6203 76.8143 45.413C77.7659 46.0667 81.4681 48.3132 87.3972 48.3132C88.4165 48.3114 89.4346 48.2465 90.4459 48.1189C90.7635 48.1478 91.0624 48.2819 91.2952 48.4999C91.3965 48.6115 91.47 48.7453 91.51 48.8906H73.6096C73.4073 48.2356 73.4665 47.5276 73.7748 46.9153ZM82.2266 61.3202C76.8695 61.3202 72.294 58.0972 70.5507 53.5937H93.9024C92.1591 58.0972 87.5837 61.3202 82.2266 61.3202ZM94.3251 52.2499H70.1281C69.9628 51.589 69.8586 50.9143 69.8169 50.2343H94.6362C94.5945 50.9143 94.4903 51.589 94.3251 52.2499Z" stroke="#F83103" stroke-width="2" mask="url(#path-1-outside-1_356_201)"/>
<path d="M78.6138 59.4089C78.7832 59.4639 78.9676 59.4492 79.1262 59.3683C79.2849 59.2873 79.405 59.1467 79.46 58.9773C79.515 58.8078 79.5005 58.6235 79.4196 58.4647C79.3388 58.306 79.1982 58.1859 79.0288 58.1308C77.201 57.5487 75.5861 56.439 74.3875 54.9414C74.3326 54.8723 74.2647 54.8146 74.1876 54.7718C74.1105 54.7289 74.0257 54.7017 73.938 54.6916C73.8504 54.6815 73.7616 54.6888 73.6768 54.713C73.592 54.7372 73.5127 54.7779 73.4436 54.8328C73.3745 54.8876 73.3169 54.9555 73.274 55.0327C73.2312 55.1098 73.2039 55.1946 73.1939 55.2822C73.1838 55.3699 73.191 55.4586 73.2153 55.5435C73.2395 55.6283 73.2802 55.7075 73.335 55.7766C74.6977 57.4817 76.5343 58.7455 78.6138 59.4089Z" stroke="#F83103" stroke-width="2" mask="url(#path-1-outside-1_356_201)"/>
<path d="M40.7715 76.5918H42.4766C42.5156 76.9355 42.6973 77.2148 43.0215 77.4297C43.3496 77.6406 43.75 77.7461 44.2227 77.7461C44.6914 77.7461 45.0723 77.6465 45.3652 77.4473C45.6621 77.2441 45.8105 76.9863 45.8105 76.6738C45.8105 76.4004 45.7012 76.1797 45.4824 76.0117C45.2637 75.8438 44.8984 75.7031 44.3867 75.5898L43.2852 75.3496C41.7344 75.0176 40.959 74.2305 40.959 72.9883C40.959 72.2148 41.2598 71.5898 41.8613 71.1133C42.4668 70.6367 43.2441 70.3984 44.1934 70.3984C45.1699 70.3984 45.9492 70.6309 46.5312 71.0957C47.1133 71.5566 47.4121 72.1719 47.4277 72.9414H45.7695C45.7422 72.5859 45.584 72.3066 45.2949 72.1035C45.0098 71.8965 44.6445 71.793 44.1992 71.793C43.7617 71.793 43.4082 71.8887 43.1387 72.0801C42.873 72.2715 42.7402 72.5234 42.7402 72.8359C42.7402 73.0938 42.8477 73.3027 43.0625 73.4629C43.2812 73.623 43.6348 73.7598 44.123 73.873L45.1484 74.0898C45.9961 74.2695 46.6133 74.5508 47 74.9336C47.3867 75.3125 47.5801 75.8242 47.5801 76.4688C47.5801 77.2891 47.2715 77.9414 46.6543 78.4258C46.0371 78.9062 45.2031 79.1465 44.1523 79.1465C43.1328 79.1465 42.3203 78.9199 41.7148 78.4668C41.1133 78.0098 40.7988 77.3848 40.7715 76.5918Z" stroke="#F83103" stroke-width="2" mask="url(#path-1-outside-1_356_201)"/>
<path d="M48.5527 79V72.7188H50.2637V79H48.5527ZM50.0586 71.7695C49.8828 71.9414 49.666 72.0273 49.4082 72.0273C49.1504 72.0273 48.9336 71.9414 48.7578 71.7695C48.582 71.5977 48.4941 71.3887 48.4941 71.1426C48.4941 70.8926 48.582 70.6836 48.7578 70.5156C48.9336 70.3438 49.1504 70.2578 49.4082 70.2578C49.666 70.2578 49.8828 70.3438 50.0586 70.5156C50.2344 70.6836 50.3223 70.8926 50.3223 71.1426C50.3223 71.3887 50.2344 71.5977 50.0586 71.7695Z" stroke="#F83103" stroke-width="2" mask="url(#path-1-outside-1_356_201)"/>
<path d="M53.7383 79.0996C52.9531 79.0996 52.3301 78.8086 51.8691 78.2266C51.4082 77.6445 51.1777 76.8516 51.1777 75.8477C51.1777 74.8516 51.4082 74.0645 51.8691 73.4863C52.334 72.9082 52.9609 72.6191 53.75 72.6191C54.1953 72.6191 54.5859 72.7266 54.9219 72.9414C55.2617 73.1562 55.5098 73.4414 55.666 73.7969H55.7012V70.5449H57.4121V79H55.7246V77.9219H55.6953C55.5391 78.2773 55.2871 78.5625 54.9395 78.7773C54.5918 78.9922 54.1914 79.0996 53.7383 79.0996ZM54.3184 73.9902C53.8887 73.9902 53.5488 74.1582 53.2988 74.4941C53.0527 74.8301 52.9297 75.2852 52.9297 75.8594C52.9297 76.4375 53.0527 76.8926 53.2988 77.2246C53.5488 77.5566 53.8887 77.7227 54.3184 77.7227C54.7441 77.7227 55.082 77.5566 55.332 77.2246C55.5859 76.8887 55.7129 76.4336 55.7129 75.8594C55.7129 75.2891 55.5859 74.8359 55.332 74.5C55.082 74.1602 54.7441 73.9902 54.3184 73.9902Z" stroke="#F83103" stroke-width="2" mask="url(#path-1-outside-1_356_201)"/>
<path d="M61.373 73.8496C61.002 73.8496 60.6914 73.9766 60.4414 74.2305C60.1953 74.4844 60.0566 74.8086 60.0254 75.2031H62.6914C62.6719 74.8008 62.541 74.4746 62.2988 74.2246C62.0605 73.9746 61.752 73.8496 61.373 73.8496ZM62.7148 77.0781H64.2852C64.1914 77.6953 63.8828 78.1934 63.3594 78.5723C62.8398 78.9473 62.1934 79.1348 61.4199 79.1348C60.4551 79.1348 59.6973 78.8457 59.1465 78.2676C58.5996 77.6895 58.3262 76.8965 58.3262 75.8887C58.3262 74.8848 58.5996 74.084 59.1465 73.4863C59.6934 72.8848 60.4297 72.584 61.3555 72.584C62.2656 72.584 62.9902 72.8691 63.5293 73.4395C64.0684 74.0098 64.3379 74.7734 64.3379 75.7305V76.252H60.0078V76.3574C60.0078 76.8066 60.1387 77.1719 60.4004 77.4531C60.666 77.7305 61.0156 77.8691 61.4492 77.8691C61.7617 77.8691 62.0312 77.7988 62.2578 77.6582C62.4844 77.5137 62.6367 77.3203 62.7148 77.0781Z" stroke="#F83103" stroke-width="2" mask="url(#path-1-outside-1_356_201)"/>
<path d="M68.5801 71.5762C69.3145 70.791 70.3086 70.3984 71.5625 70.3984C72.8164 70.3984 73.8086 70.791 74.5391 71.5762C75.2734 72.3613 75.6406 73.4277 75.6406 74.7754C75.6406 76.1191 75.2734 77.1836 74.5391 77.9688C73.8047 78.7539 72.8125 79.1465 71.5625 79.1465C70.3086 79.1465 69.3145 78.7539 68.5801 77.9688C67.8496 77.1836 67.4844 76.1191 67.4844 74.7754C67.4844 73.4277 67.8496 72.3613 68.5801 71.5762ZM73.2148 72.6602C72.8047 72.1367 72.2539 71.875 71.5625 71.875C70.8711 71.875 70.3184 72.1367 69.9043 72.6602C69.4941 73.1836 69.2891 73.8887 69.2891 74.7754C69.2891 75.6582 69.4941 76.3613 69.9043 76.8848C70.3145 77.4043 70.8672 77.6641 71.5625 77.6641C72.2539 77.6641 72.8047 77.4043 73.2148 76.8848C73.625 76.3613 73.8301 75.6582 73.8301 74.7754C73.8301 73.8887 73.625 73.1836 73.2148 72.6602Z" stroke="#F83103" stroke-width="2" mask="url(#path-1-outside-1_356_201)"/>
<path d="M76.6367 79V72.7188H78.2891V73.8496H78.3242C78.4336 73.4512 78.6172 73.1465 78.875 72.9355C79.1328 72.7246 79.4473 72.6191 79.8184 72.6191C79.998 72.6191 80.1602 72.6406 80.3047 72.6836V74.1895C80.1445 74.123 79.9375 74.0898 79.6836 74.0898C79.2617 74.0898 78.9336 74.2129 78.6992 74.459C78.4648 74.7051 78.3477 75.0488 78.3477 75.4902V79H76.6367Z" stroke="#F83103" stroke-width="2" mask="url(#path-1-outside-1_356_201)"/>
<path d="M83.1289 79.0996C82.3438 79.0996 81.7207 78.8086 81.2598 78.2266C80.7988 77.6445 80.5684 76.8516 80.5684 75.8477C80.5684 74.8516 80.7988 74.0645 81.2598 73.4863C81.7246 72.9082 82.3516 72.6191 83.1406 72.6191C83.5859 72.6191 83.9766 72.7266 84.3125 72.9414C84.6523 73.1562 84.9004 73.4414 85.0566 73.7969H85.0918V70.5449H86.8027V79H85.1152V77.9219H85.0859C84.9297 78.2773 84.6777 78.5625 84.3301 78.7773C83.9824 78.9922 83.582 79.0996 83.1289 79.0996ZM83.709 73.9902C83.2793 73.9902 82.9395 74.1582 82.6895 74.4941C82.4434 74.8301 82.3203 75.2852 82.3203 75.8594C82.3203 76.4375 82.4434 76.8926 82.6895 77.2246C82.9395 77.5566 83.2793 77.7227 83.709 77.7227C84.1348 77.7227 84.4727 77.5566 84.7227 77.2246C84.9766 76.8887 85.1035 76.4336 85.1035 75.8594C85.1035 75.2891 84.9766 74.8359 84.7227 74.5C84.4727 74.1602 84.1348 73.9902 83.709 73.9902Z" stroke="#F83103" stroke-width="2" mask="url(#path-1-outside-1_356_201)"/>
<path d="M90.7637 73.8496C90.3926 73.8496 90.082 73.9766 89.832 74.2305C89.5859 74.4844 89.4473 74.8086 89.416 75.2031H92.082C92.0625 74.8008 91.9316 74.4746 91.6895 74.2246C91.4512 73.9746 91.1426 73.8496 90.7637 73.8496ZM92.1055 77.0781H93.6758C93.582 77.6953 93.2734 78.1934 92.75 78.5723C92.2305 78.9473 91.584 79.1348 90.8105 79.1348C89.8457 79.1348 89.0879 78.8457 88.5371 78.2676C87.9902 77.6895 87.7168 76.8965 87.7168 75.8887C87.7168 74.8848 87.9902 74.084 88.5371 73.4863C89.084 72.8848 89.8203 72.584 90.7461 72.584C91.6562 72.584 92.3809 72.8691 92.9199 73.4395C93.459 74.0098 93.7285 74.7734 93.7285 75.7305V76.252H89.3984V76.3574C89.3984 76.8066 89.5293 77.1719 89.791 77.4531C90.0566 77.7305 90.4062 77.8691 90.8398 77.8691C91.1523 77.8691 91.4219 77.7988 91.6484 77.6582C91.875 77.5137 92.0273 77.3203 92.1055 77.0781Z" stroke="#F83103" stroke-width="2" mask="url(#path-1-outside-1_356_201)"/>
<path d="M94.6133 79V72.7188H96.2656V73.8496H96.3008C96.4102 73.4512 96.5938 73.1465 96.8516 72.9355C97.1094 72.7246 97.4238 72.6191 97.7949 72.6191C97.9746 72.6191 98.1367 72.6406 98.2812 72.6836V74.1895C98.1211 74.123 97.9141 74.0898 97.6602 74.0898C97.2383 74.0898 96.9102 74.2129 96.6758 74.459C96.4414 74.7051 96.3242 75.0488 96.3242 75.4902V79H94.6133Z" stroke="#F83103" stroke-width="2" mask="url(#path-1-outside-1_356_201)"/>
<path d="M98.8789 74.5645C98.8789 73.9668 99.1191 73.4883 99.5996 73.1289C100.08 72.7656 100.723 72.584 101.527 72.584C102.312 72.584 102.943 72.7676 103.42 73.1348C103.896 73.502 104.141 73.9902 104.152 74.5996H102.576C102.557 74.3457 102.451 74.1465 102.26 74.002C102.072 73.8574 101.82 73.7852 101.504 73.7852C101.207 73.7852 100.969 73.8477 100.789 73.9727C100.613 74.0938 100.525 74.2559 100.525 74.459C100.525 74.7637 100.799 74.9805 101.346 75.1094L102.547 75.3672C103.176 75.5078 103.627 75.7129 103.9 75.9824C104.178 76.248 104.316 76.6152 104.316 77.084C104.316 77.7012 104.059 78.1973 103.543 78.5723C103.027 78.9473 102.354 79.1348 101.521 79.1348C100.693 79.1348 100.031 78.9512 99.5352 78.584C99.0391 78.2168 98.7676 77.7227 98.7207 77.1016H100.391C100.434 77.3672 100.555 77.5723 100.754 77.7168C100.957 77.8613 101.229 77.9336 101.568 77.9336C101.893 77.9336 102.146 77.875 102.33 77.7578C102.518 77.6367 102.611 77.4727 102.611 77.2656C102.611 77.1055 102.553 76.9785 102.436 76.8848C102.318 76.7871 102.119 76.7051 101.838 76.6387L100.678 76.3809C99.4785 76.1074 98.8789 75.502 98.8789 74.5645Z" stroke="#F83103" stroke-width="2" mask="url(#path-1-outside-1_356_201)"/>
</g>
<defs>
<filter id="filter0_d_356_201" x="0" y="0" width="146" height="109" filterUnits="userSpaceOnUse" color-interpolation-filters="sRGB">
<feFlood flood-opacity="0" result="BackgroundImageFix"/>
<feColorMatrix in="SourceAlpha" type="matrix" values="0 0 0 0 0 0 0 0 0 0 0 0 0 0 0 0 0 0 127 0" result="hardAlpha"/>
<feOffset/>
<feGaussianBlur stdDeviation="5"/>
<feComposite in2="hardAlpha" operator="out"/>
<feColorMatrix type="matrix" values="0 0 0 0 0.972549 0 0 0 0 0.192157 0 0 0 0 0.0117647 0 0 0 0.25 0"/>
<feBlend mode="normal" in2="BackgroundImageFix" result="effect1_dropShadow_356_201"/>
<feBlend mode="normal" in="SourceGraphic" in2="effect1_dropShadow_356_201" result="shape"/>
</filter>
</defs>
</svg>
