<svg width="146" height="109" viewBox="0 0 146 109" fill="none" xmlns="http://www.w3.org/2000/svg">
<g filter="url(#filter0_d_356_197)">
<mask id="path-1-outside-1_356_197" maskUnits="userSpaceOnUse" x="10" y="10" width="126" height="89" fill="black">
<rect fill="white" x="10" y="10" width="126" height="89"/>
<path d="M11 36C11 22.1929 22.1929 11 36 11H110C123.807 11 135 22.1929 135 36V73C135 86.8071 123.807 98 110 98H36C22.1929 98 11 86.8071 11 73V36Z"/>
<path d="M96 40.2979C96 35.9226 82.2451 34.3347 73 34.3347C70.9862 34.3347 69.0074 34.4037 67.089 34.5256L63.426 21.9909C63.1125 20.9526 62.4032 20.0794 61.4512 19.5597C60.4992 19.0401 59.381 18.9158 58.3382 19.2137C57.2954 19.5116 56.4116 20.2078 55.8777 21.1519C55.3439 22.096 55.2028 23.2123 55.4851 24.2595L58.7017 35.5274C54.5489 36.3222 50 37.7704 50 40.2979C50.0114 43.9003 50.8646 47.4501 52.4915 50.6642C54.1184 53.8782 56.474 56.6675 59.3704 58.8094V61.1197C59.3668 61.6925 59.5569 62.2497 59.9097 62.7009C60.2626 63.1521 60.7575 63.4709 61.3143 63.6055C68.9938 65.4648 77.0062 65.4648 84.6857 63.6055C85.2425 63.4709 85.7374 63.1521 86.0903 62.7009C86.4431 62.2497 86.6332 61.6925 86.6296 61.1197V58.8111C89.5261 56.669 91.8818 53.8794 93.5088 50.6651C95.1357 47.4507 95.9888 43.9006 96 40.2979ZM70.0074 44.5096L68.5602 39.5593C70.0177 39.4895 71.5016 39.446 73 39.446C81.0159 39.446 88.3001 40.4487 92.0219 42.0026C88.87 43.2855 82.47 44.5582 73 44.5582C71.9607 44.5582 70.9717 44.5386 70.0074 44.5096ZM73 36.0377C86.9823 36.0377 94.2963 38.8114 94.2963 40.2979C94.2721 40.4391 94.2193 40.5739 94.1412 40.694C94.0632 40.8141 93.9614 40.917 93.8423 40.9965C90.2526 39.0124 82.1957 37.7423 73 37.7423C71.3346 37.7423 69.682 37.7908 68.0678 37.8752L67.5797 36.2055C69.3447 36.1024 71.1549 36.0377 73 36.0377ZM57.5193 21.6672C57.9151 21.1643 58.4903 20.8343 59.1242 20.7465C59.7581 20.6586 60.4014 20.8198 60.919 21.1961C61.3403 21.5133 61.6461 21.9597 61.7896 22.4671L68.2126 44.4423C66.4338 44.3559 64.6585 44.2068 62.8902 43.9951L57.1232 23.7927C57.0187 23.432 57.0001 23.052 57.0689 22.6829C57.1377 22.3138 57.292 21.966 57.5193 21.6672ZM61.0485 43.7455C58.638 43.431 56.2702 42.8481 53.9892 42.0077C55.9639 41.2635 58.0123 40.7318 60.0996 40.4215L61.0485 43.7455ZM59.1727 37.1766L59.6285 38.7731C57.0382 39.123 54.5181 39.8737 52.1586 40.9982C52.0394 40.9187 51.9377 40.8157 51.8597 40.6956C51.7816 40.5755 51.7288 40.4408 51.7046 40.2996C51.7046 39.5909 53.7166 38.204 59.1727 37.1766ZM84.9259 61.1197C84.9267 61.3089 84.8645 61.4929 84.7492 61.6429C84.6338 61.7928 84.4718 61.9001 84.2887 61.9477C76.8702 63.7449 69.1298 63.7449 61.7113 61.9477C61.5282 61.9001 61.3662 61.7928 61.2508 61.6429C61.1355 61.4929 61.0733 61.3089 61.0741 61.1197V59.8334C68.8383 62.2733 77.1647 62.2682 84.9259 59.8189V61.1197ZM84.6678 58.1083C77.0946 60.5475 68.9479 60.5558 61.3697 58.1321C58.7688 56.4246 56.5711 54.171 54.9294 51.5281C53.2876 48.8851 52.2413 45.9163 51.863 42.828C55.9306 45.3036 65.8223 46.262 73 46.262C80.1777 46.262 90.0694 45.3036 94.137 42.828C93.7598 45.9091 92.7176 48.8713 91.0826 51.5098C89.4476 54.1483 87.2589 56.3992 84.6678 58.1083ZM71.2963 32.6301C71.4106 32.6269 71.5231 32.601 71.6273 32.5541C71.7316 32.5072 71.8255 32.4401 71.9037 32.3567C72.0646 32.1861 72.1518 31.959 72.1464 31.7246C72.1464 31.7143 72.1413 30.6001 73.736 27.8698C74.3051 26.9771 74.6355 25.9533 74.6955 24.8963C74.7555 23.8393 74.543 22.7846 74.0784 21.8333C73.3714 20.3587 72.0681 19.103 71.4207 19.0076C71.2545 18.9852 71.0855 19.0126 70.935 19.0865C70.7846 19.1604 70.6595 19.2773 70.5756 19.4225C70.4902 19.5694 70.4496 19.738 70.4587 19.9076C70.4677 20.0772 70.5262 20.2405 70.6267 20.3775C70.66 20.4226 71.413 21.5019 69.7655 23.6725C67.8974 26.1311 68.9954 29.2745 69.8166 30.9289C70.66 32.6301 70.9138 32.6301 71.2963 32.6301ZM71.1225 24.7025C71.6999 23.9808 72.1284 23.1519 72.3833 22.2635C72.584 22.6169 72.7403 22.9937 72.8484 23.3855C73.0048 23.9975 73.0337 24.6352 72.9333 25.2589C72.8329 25.8826 72.6054 26.479 72.2649 27.0111C71.7962 27.7985 71.3826 28.6174 71.0271 29.462C70.4572 28.0708 70.0296 26.1422 71.1225 24.7025ZM78.963 32.6301C79.0772 32.6269 79.1897 32.601 79.294 32.5541C79.3982 32.5072 79.4921 32.4401 79.5703 32.3567C79.7313 32.1861 79.8185 31.959 79.8131 31.7246C79.8131 31.7143 79.808 30.6001 81.4027 27.8698C81.9718 26.9771 82.3022 25.9533 82.3622 24.8963C82.4221 23.8393 82.2096 22.7846 81.7451 21.8333C81.0381 20.3587 79.7347 19.103 79.0873 19.0076C78.9212 18.9853 78.7522 19.0128 78.6018 19.0866C78.4513 19.1605 78.3262 19.2774 78.2423 19.4225C78.1569 19.5694 78.1163 19.738 78.1253 19.9076C78.1344 20.0772 78.1928 20.2405 78.2934 20.3775C78.3266 20.4226 79.0797 21.5019 77.4322 23.6725C75.5641 26.1311 76.6621 29.2745 77.4833 30.9289C78.3266 32.6301 78.5805 32.6301 78.963 32.6301ZM78.7892 24.7025C79.3666 23.9808 79.7951 23.1519 80.0499 22.2635C80.2507 22.6169 80.4069 22.9937 80.515 23.3855C80.6714 23.9975 80.7004 24.6352 80.6 25.2589C80.4996 25.8826 80.2721 26.479 79.9315 27.0111C79.4628 27.7985 79.0493 28.6174 78.6938 29.462C78.1239 28.0708 77.6963 26.1422 78.7892 24.7025ZM86.6296 32.6301C86.7439 32.6269 86.8564 32.601 86.9606 32.5541C87.0649 32.5072 87.1588 32.4401 87.237 32.3567C87.3979 32.1861 87.4852 31.959 87.4798 31.7246C87.4798 31.7143 87.4747 30.6001 89.0693 27.8698C89.6385 26.9771 89.9689 25.9533 90.0288 24.8963C90.0888 23.8393 89.8763 22.7846 89.4118 21.8333C88.7047 20.3587 87.4014 19.103 86.754 19.0076C86.5879 18.9854 86.4189 19.0129 86.2685 19.0868C86.1181 19.1606 85.993 19.2775 85.909 19.4225C85.8236 19.5694 85.7829 19.738 85.792 19.9076C85.8011 20.0772 85.8595 20.2405 85.9601 20.3775C85.9933 20.4226 86.7463 21.5019 85.0989 23.6725C83.2307 26.1311 84.3288 29.2745 85.15 30.9289C85.9933 32.6301 86.2471 32.6301 86.6296 32.6301ZM86.4559 24.7025C87.0332 23.9808 87.4617 23.1519 87.7166 22.2635C87.9174 22.6169 88.0736 22.9937 88.1817 23.3855C88.3381 23.9975 88.367 24.6352 88.2666 25.2589C88.1663 25.8826 87.9387 26.479 87.5982 27.0111C87.1295 27.7985 86.7159 28.6174 86.3604 29.462C85.7906 28.0708 85.3629 26.1422 86.4559 24.7025Z"/>
<path d="M55.543 76.5918H57.248C57.2871 76.9355 57.4688 77.2148 57.793 77.4297C58.1211 77.6406 58.5215 77.7461 58.9941 77.7461C59.4629 77.7461 59.8438 77.6465 60.1367 77.4473C60.4336 77.2441 60.582 76.9863 60.582 76.6738C60.582 76.4004 60.4727 76.1797 60.2539 76.0117C60.0352 75.8438 59.6699 75.7031 59.1582 75.5898L58.0566 75.3496C56.5059 75.0176 55.7305 74.2305 55.7305 72.9883C55.7305 72.2148 56.0312 71.5898 56.6328 71.1133C57.2383 70.6367 58.0156 70.3984 58.9648 70.3984C59.9414 70.3984 60.7207 70.6309 61.3027 71.0957C61.8848 71.5566 62.1836 72.1719 62.1992 72.9414H60.541C60.5137 72.5859 60.3555 72.3066 60.0664 72.1035C59.7812 71.8965 59.416 71.793 58.9707 71.793C58.5332 71.793 58.1797 71.8887 57.9102 72.0801C57.6445 72.2715 57.5117 72.5234 57.5117 72.8359C57.5117 73.0938 57.6191 73.3027 57.834 73.4629C58.0527 73.623 58.4062 73.7598 58.8945 73.873L59.9199 74.0898C60.7676 74.2695 61.3848 74.5508 61.7715 74.9336C62.1582 75.3125 62.3516 75.8242 62.3516 76.4688C62.3516 77.2891 62.043 77.9414 61.4258 78.4258C60.8086 78.9062 59.9746 79.1465 58.9238 79.1465C57.9043 79.1465 57.0918 78.9199 56.4863 78.4668C55.8848 78.0098 55.5703 77.3848 55.543 76.5918Z"/>
<path d="M68.4512 78.2676C67.8926 78.8457 67.1348 79.1348 66.1777 79.1348C65.2207 79.1348 64.4629 78.8438 63.9043 78.2617C63.3457 77.6797 63.0664 76.877 63.0664 75.8535C63.0664 74.8418 63.3477 74.0449 63.9102 73.4629C64.4766 72.877 65.2324 72.584 66.1777 72.584C67.127 72.584 67.8828 72.877 68.4453 73.4629C69.0078 74.0449 69.2891 74.8418 69.2891 75.8535C69.2891 76.8809 69.0098 77.6855 68.4512 78.2676ZM66.1777 77.8281C66.5996 77.8281 66.9336 77.6562 67.1797 77.3125C67.4258 76.9688 67.5488 76.4844 67.5488 75.8594C67.5488 75.2422 67.4258 74.7598 67.1797 74.4121C66.9336 74.0645 66.5996 73.8906 66.1777 73.8906C65.7559 73.8906 65.4199 74.0645 65.1699 74.4121C64.9238 74.7598 64.8008 75.2422 64.8008 75.8594C64.8008 76.4844 64.9238 76.9688 65.1699 77.3125C65.416 77.6562 65.752 77.8281 66.1777 77.8281Z"/>
<path d="M75.9746 72.7188V79H74.3223V77.8691H74.2871C73.959 78.7012 73.332 79.1172 72.4062 79.1172C71.7188 79.1172 71.1699 78.9082 70.7598 78.4902C70.3496 78.0684 70.1445 77.4941 70.1445 76.7676V72.7188H71.8555V76.4102C71.8555 76.8281 71.9551 77.1465 72.1543 77.3652C72.3574 77.584 72.6484 77.6934 73.0273 77.6934C73.4062 77.6934 73.707 77.5684 73.9297 77.3184C74.1523 77.0684 74.2637 76.7344 74.2637 76.3164V72.7188H75.9746Z"/>
<path d="M80.7559 72.6191C81.5527 72.6191 82.1797 72.9062 82.6367 73.4805C83.0977 74.0547 83.3281 74.8477 83.3281 75.8594C83.3281 76.8672 83.1016 77.6602 82.6484 78.2383C82.1953 78.8125 81.5742 79.0996 80.7852 79.0996C80.3359 79.0996 79.9395 78.998 79.5957 78.7949C79.2559 78.5879 79.002 78.3047 78.834 77.9453H78.7988V81.0508H77.0879V72.7188H78.7754V73.8145H78.8105C78.9824 73.4395 79.2363 73.1465 79.5723 72.9355C79.9121 72.7246 80.3066 72.6191 80.7559 72.6191ZM80.1816 77.7227C80.6074 77.7227 80.9453 77.5547 81.1953 77.2188C81.4492 76.8828 81.5762 76.4297 81.5762 75.8594C81.5762 75.2891 81.4492 74.8359 81.1953 74.5C80.9453 74.1602 80.6074 73.9902 80.1816 73.9902C79.7637 73.9902 79.4277 74.1621 79.1738 74.5059C78.9199 74.8457 78.793 75.2969 78.793 75.8594C78.793 76.4258 78.918 76.8789 79.168 77.2188C79.4219 77.5547 79.7598 77.7227 80.1816 77.7227Z"/>
<path d="M84.1074 74.5645C84.1074 73.9668 84.3477 73.4883 84.8281 73.1289C85.3086 72.7656 85.9512 72.584 86.7559 72.584C87.541 72.584 88.1719 72.7676 88.6484 73.1348C89.125 73.502 89.3691 73.9902 89.3809 74.5996H87.8047C87.7852 74.3457 87.6797 74.1465 87.4883 74.002C87.3008 73.8574 87.0488 73.7852 86.7324 73.7852C86.4355 73.7852 86.1973 73.8477 86.0176 73.9727C85.8418 74.0938 85.7539 74.2559 85.7539 74.459C85.7539 74.7637 86.0273 74.9805 86.5742 75.1094L87.7754 75.3672C88.4043 75.5078 88.8555 75.7129 89.1289 75.9824C89.4062 76.248 89.5449 76.6152 89.5449 77.084C89.5449 77.7012 89.2871 78.1973 88.7715 78.5723C88.2559 78.9473 87.582 79.1348 86.75 79.1348C85.9219 79.1348 85.2598 78.9512 84.7637 78.584C84.2676 78.2168 83.9961 77.7227 83.9492 77.1016H85.6191C85.6621 77.3672 85.7832 77.5723 85.9824 77.7168C86.1855 77.8613 86.457 77.9336 86.7969 77.9336C87.1211 77.9336 87.375 77.875 87.5586 77.7578C87.7461 77.6367 87.8398 77.4727 87.8398 77.2656C87.8398 77.1055 87.7812 76.9785 87.6641 76.8848C87.5469 76.7871 87.3477 76.7051 87.0664 76.6387L85.9062 76.3809C84.707 76.1074 84.1074 75.502 84.1074 74.5645Z"/>
</mask>
<path d="M11 36C11 22.1929 22.1929 11 36 11H110C123.807 11 135 22.1929 135 36V73C135 86.8071 123.807 98 110 98H36C22.1929 98 11 86.8071 11 73V36Z" fill="#2E3235"/>
<path d="M96 40.2979C96 35.9226 82.2451 34.3347 73 34.3347C70.9862 34.3347 69.0074 34.4037 67.089 34.5256L63.426 21.9909C63.1125 20.9526 62.4032 20.0794 61.4512 19.5597C60.4992 19.0401 59.381 18.9158 58.3382 19.2137C57.2954 19.5116 56.4116 20.2078 55.8777 21.1519C55.3439 22.096 55.2028 23.2123 55.4851 24.2595L58.7017 35.5274C54.5489 36.3222 50 37.7704 50 40.2979C50.0114 43.9003 50.8646 47.4501 52.4915 50.6642C54.1184 53.8782 56.474 56.6675 59.3704 58.8094V61.1197C59.3668 61.6925 59.5569 62.2497 59.9097 62.7009C60.2626 63.1521 60.7575 63.4709 61.3143 63.6055C68.9938 65.4648 77.0062 65.4648 84.6857 63.6055C85.2425 63.4709 85.7374 63.1521 86.0903 62.7009C86.4431 62.2497 86.6332 61.6925 86.6296 61.1197V58.8111C89.5261 56.669 91.8818 53.8794 93.5088 50.6651C95.1357 47.4507 95.9888 43.9006 96 40.2979ZM70.0074 44.5096L68.5602 39.5593C70.0177 39.4895 71.5016 39.446 73 39.446C81.0159 39.446 88.3001 40.4487 92.0219 42.0026C88.87 43.2855 82.47 44.5582 73 44.5582C71.9607 44.5582 70.9717 44.5386 70.0074 44.5096ZM73 36.0377C86.9823 36.0377 94.2963 38.8114 94.2963 40.2979C94.2721 40.4391 94.2193 40.5739 94.1412 40.694C94.0632 40.8141 93.9614 40.917 93.8423 40.9965C90.2526 39.0124 82.1957 37.7423 73 37.7423C71.3346 37.7423 69.682 37.7908 68.0678 37.8752L67.5797 36.2055C69.3447 36.1024 71.1549 36.0377 73 36.0377ZM57.5193 21.6672C57.9151 21.1643 58.4903 20.8343 59.1242 20.7465C59.7581 20.6586 60.4014 20.8198 60.919 21.1961C61.3403 21.5133 61.6461 21.9597 61.7896 22.4671L68.2126 44.4423C66.4338 44.3559 64.6585 44.2068 62.8902 43.9951L57.1232 23.7927C57.0187 23.432 57.0001 23.052 57.0689 22.6829C57.1377 22.3138 57.292 21.966 57.5193 21.6672ZM61.0485 43.7455C58.638 43.431 56.2702 42.8481 53.9892 42.0077C55.9639 41.2635 58.0123 40.7318 60.0996 40.4215L61.0485 43.7455ZM59.1727 37.1766L59.6285 38.7731C57.0382 39.123 54.5181 39.8737 52.1586 40.9982C52.0394 40.9187 51.9377 40.8157 51.8597 40.6956C51.7816 40.5755 51.7288 40.4408 51.7046 40.2996C51.7046 39.5909 53.7166 38.204 59.1727 37.1766ZM84.9259 61.1197C84.9267 61.3089 84.8645 61.4929 84.7492 61.6429C84.6338 61.7928 84.4718 61.9001 84.2887 61.9477C76.8702 63.7449 69.1298 63.7449 61.7113 61.9477C61.5282 61.9001 61.3662 61.7928 61.2508 61.6429C61.1355 61.4929 61.0733 61.3089 61.0741 61.1197V59.8334C68.8383 62.2733 77.1647 62.2682 84.9259 59.8189V61.1197ZM84.6678 58.1083C77.0946 60.5475 68.9479 60.5558 61.3697 58.1321C58.7688 56.4246 56.5711 54.171 54.9294 51.5281C53.2876 48.8851 52.2413 45.9163 51.863 42.828C55.9306 45.3036 65.8223 46.262 73 46.262C80.1777 46.262 90.0694 45.3036 94.137 42.828C93.7598 45.9091 92.7176 48.8713 91.0826 51.5098C89.4476 54.1483 87.2589 56.3992 84.6678 58.1083ZM71.2963 32.6301C71.4106 32.6269 71.5231 32.601 71.6273 32.5541C71.7316 32.5072 71.8255 32.4401 71.9037 32.3567C72.0646 32.1861 72.1518 31.959 72.1464 31.7246C72.1464 31.7143 72.1413 30.6001 73.736 27.8698C74.3051 26.9771 74.6355 25.9533 74.6955 24.8963C74.7555 23.8393 74.543 22.7846 74.0784 21.8333C73.3714 20.3587 72.0681 19.103 71.4207 19.0076C71.2545 18.9852 71.0855 19.0126 70.935 19.0865C70.7846 19.1604 70.6595 19.2773 70.5756 19.4225C70.4902 19.5694 70.4496 19.738 70.4587 19.9076C70.4677 20.0772 70.5262 20.2405 70.6267 20.3775C70.66 20.4226 71.413 21.5019 69.7655 23.6725C67.8974 26.1311 68.9954 29.2745 69.8166 30.9289C70.66 32.6301 70.9138 32.6301 71.2963 32.6301ZM71.1225 24.7025C71.6999 23.9808 72.1284 23.1519 72.3833 22.2635C72.584 22.6169 72.7403 22.9937 72.8484 23.3855C73.0048 23.9975 73.0337 24.6352 72.9333 25.2589C72.8329 25.8826 72.6054 26.479 72.2649 27.0111C71.7962 27.7985 71.3826 28.6174 71.0271 29.462C70.4572 28.0708 70.0296 26.1422 71.1225 24.7025ZM78.963 32.6301C79.0772 32.6269 79.1897 32.601 79.294 32.5541C79.3982 32.5072 79.4921 32.4401 79.5703 32.3567C79.7313 32.1861 79.8185 31.959 79.8131 31.7246C79.8131 31.7143 79.808 30.6001 81.4027 27.8698C81.9718 26.9771 82.3022 25.9533 82.3622 24.8963C82.4221 23.8393 82.2096 22.7846 81.7451 21.8333C81.0381 20.3587 79.7347 19.103 79.0873 19.0076C78.9212 18.9853 78.7522 19.0128 78.6018 19.0866C78.4513 19.1605 78.3262 19.2774 78.2423 19.4225C78.1569 19.5694 78.1163 19.738 78.1253 19.9076C78.1344 20.0772 78.1928 20.2405 78.2934 20.3775C78.3266 20.4226 79.0797 21.5019 77.4322 23.6725C75.5641 26.1311 76.6621 29.2745 77.4833 30.9289C78.3266 32.6301 78.5805 32.6301 78.963 32.6301ZM78.7892 24.7025C79.3666 23.9808 79.7951 23.1519 80.0499 22.2635C80.2507 22.6169 80.4069 22.9937 80.515 23.3855C80.6714 23.9975 80.7004 24.6352 80.6 25.2589C80.4996 25.8826 80.2721 26.479 79.9315 27.0111C79.4628 27.7985 79.0493 28.6174 78.6938 29.462C78.1239 28.0708 77.6963 26.1422 78.7892 24.7025ZM86.6296 32.6301C86.7439 32.6269 86.8564 32.601 86.9606 32.5541C87.0649 32.5072 87.1588 32.4401 87.237 32.3567C87.3979 32.1861 87.4852 31.959 87.4798 31.7246C87.4798 31.7143 87.4747 30.6001 89.0693 27.8698C89.6385 26.9771 89.9689 25.9533 90.0288 24.8963C90.0888 23.8393 89.8763 22.7846 89.4118 21.8333C88.7047 20.3587 87.4014 19.103 86.754 19.0076C86.5879 18.9854 86.4189 19.0129 86.2685 19.0868C86.1181 19.1606 85.993 19.2775 85.909 19.4225C85.8236 19.5694 85.7829 19.738 85.792 19.9076C85.8011 20.0772 85.8595 20.2405 85.9601 20.3775C85.9933 20.4226 86.7463 21.5019 85.0989 23.6725C83.2307 26.1311 84.3288 29.2745 85.15 30.9289C85.9933 32.6301 86.2471 32.6301 86.6296 32.6301ZM86.4559 24.7025C87.0332 23.9808 87.4617 23.1519 87.7166 22.2635C87.9174 22.6169 88.0736 22.9937 88.1817 23.3855C88.3381 23.9975 88.367 24.6352 88.2666 25.2589C88.1663 25.8826 87.9387 26.479 87.5982 27.0111C87.1295 27.7985 86.7159 28.6174 86.3604 29.462C85.7906 28.0708 85.3629 26.1422 86.4559 24.7025Z" fill="#F83103"/>
<path d="M55.543 76.5918H57.248C57.2871 76.9355 57.4688 77.2148 57.793 77.4297C58.1211 77.6406 58.5215 77.7461 58.9941 77.7461C59.4629 77.7461 59.8438 77.6465 60.1367 77.4473C60.4336 77.2441 60.582 76.9863 60.582 76.6738C60.582 76.4004 60.4727 76.1797 60.2539 76.0117C60.0352 75.8438 59.6699 75.7031 59.1582 75.5898L58.0566 75.3496C56.5059 75.0176 55.7305 74.2305 55.7305 72.9883C55.7305 72.2148 56.0312 71.5898 56.6328 71.1133C57.2383 70.6367 58.0156 70.3984 58.9648 70.3984C59.9414 70.3984 60.7207 70.6309 61.3027 71.0957C61.8848 71.5566 62.1836 72.1719 62.1992 72.9414H60.541C60.5137 72.5859 60.3555 72.3066 60.0664 72.1035C59.7812 71.8965 59.416 71.793 58.9707 71.793C58.5332 71.793 58.1797 71.8887 57.9102 72.0801C57.6445 72.2715 57.5117 72.5234 57.5117 72.8359C57.5117 73.0938 57.6191 73.3027 57.834 73.4629C58.0527 73.623 58.4062 73.7598 58.8945 73.873L59.9199 74.0898C60.7676 74.2695 61.3848 74.5508 61.7715 74.9336C62.1582 75.3125 62.3516 75.8242 62.3516 76.4688C62.3516 77.2891 62.043 77.9414 61.4258 78.4258C60.8086 78.9062 59.9746 79.1465 58.9238 79.1465C57.9043 79.1465 57.0918 78.9199 56.4863 78.4668C55.8848 78.0098 55.5703 77.3848 55.543 76.5918Z" fill="#F83103"/>
<path d="M68.4512 78.2676C67.8926 78.8457 67.1348 79.1348 66.1777 79.1348C65.2207 79.1348 64.4629 78.8438 63.9043 78.2617C63.3457 77.6797 63.0664 76.877 63.0664 75.8535C63.0664 74.8418 63.3477 74.0449 63.9102 73.4629C64.4766 72.877 65.2324 72.584 66.1777 72.584C67.127 72.584 67.8828 72.877 68.4453 73.4629C69.0078 74.0449 69.2891 74.8418 69.2891 75.8535C69.2891 76.8809 69.0098 77.6855 68.4512 78.2676ZM66.1777 77.8281C66.5996 77.8281 66.9336 77.6562 67.1797 77.3125C67.4258 76.9688 67.5488 76.4844 67.5488 75.8594C67.5488 75.2422 67.4258 74.7598 67.1797 74.4121C66.9336 74.0645 66.5996 73.8906 66.1777 73.8906C65.7559 73.8906 65.4199 74.0645 65.1699 74.4121C64.9238 74.7598 64.8008 75.2422 64.8008 75.8594C64.8008 76.4844 64.9238 76.9688 65.1699 77.3125C65.416 77.6562 65.752 77.8281 66.1777 77.8281Z" fill="#F83103"/>
<path d="M75.9746 72.7188V79H74.3223V77.8691H74.2871C73.959 78.7012 73.332 79.1172 72.4062 79.1172C71.7188 79.1172 71.1699 78.9082 70.7598 78.4902C70.3496 78.0684 70.1445 77.4941 70.1445 76.7676V72.7188H71.8555V76.4102C71.8555 76.8281 71.9551 77.1465 72.1543 77.3652C72.3574 77.584 72.6484 77.6934 73.0273 77.6934C73.4062 77.6934 73.707 77.5684 73.9297 77.3184C74.1523 77.0684 74.2637 76.7344 74.2637 76.3164V72.7188H75.9746Z" fill="#F83103"/>
<path d="M80.7559 72.6191C81.5527 72.6191 82.1797 72.9062 82.6367 73.4805C83.0977 74.0547 83.3281 74.8477 83.3281 75.8594C83.3281 76.8672 83.1016 77.6602 82.6484 78.2383C82.1953 78.8125 81.5742 79.0996 80.7852 79.0996C80.3359 79.0996 79.9395 78.998 79.5957 78.7949C79.2559 78.5879 79.002 78.3047 78.834 77.9453H78.7988V81.0508H77.0879V72.7188H78.7754V73.8145H78.8105C78.9824 73.4395 79.2363 73.1465 79.5723 72.9355C79.9121 72.7246 80.3066 72.6191 80.7559 72.6191ZM80.1816 77.7227C80.6074 77.7227 80.9453 77.5547 81.1953 77.2188C81.4492 76.8828 81.5762 76.4297 81.5762 75.8594C81.5762 75.2891 81.4492 74.8359 81.1953 74.5C80.9453 74.1602 80.6074 73.9902 80.1816 73.9902C79.7637 73.9902 79.4277 74.1621 79.1738 74.5059C78.9199 74.8457 78.793 75.2969 78.793 75.8594C78.793 76.4258 78.918 76.8789 79.168 77.2188C79.4219 77.5547 79.7598 77.7227 80.1816 77.7227Z" fill="#F83103"/>
<path d="M84.1074 74.5645C84.1074 73.9668 84.3477 73.4883 84.8281 73.1289C85.3086 72.7656 85.9512 72.584 86.7559 72.584C87.541 72.584 88.1719 72.7676 88.6484 73.1348C89.125 73.502 89.3691 73.9902 89.3809 74.5996H87.8047C87.7852 74.3457 87.6797 74.1465 87.4883 74.002C87.3008 73.8574 87.0488 73.7852 86.7324 73.7852C86.4355 73.7852 86.1973 73.8477 86.0176 73.9727C85.8418 74.0938 85.7539 74.2559 85.7539 74.459C85.7539 74.7637 86.0273 74.9805 86.5742 75.1094L87.7754 75.3672C88.4043 75.5078 88.8555 75.7129 89.1289 75.9824C89.4062 76.248 89.5449 76.6152 89.5449 77.084C89.5449 77.7012 89.2871 78.1973 88.7715 78.5723C88.2559 78.9473 87.582 79.1348 86.75 79.1348C85.9219 79.1348 85.2598 78.9512 84.7637 78.584C84.2676 78.2168 83.9961 77.7227 83.9492 77.1016H85.6191C85.6621 77.3672 85.7832 77.5723 85.9824 77.7168C86.1855 77.8613 86.457 77.9336 86.7969 77.9336C87.1211 77.9336 87.375 77.875 87.5586 77.7578C87.7461 77.6367 87.8398 77.4727 87.8398 77.2656C87.8398 77.1055 87.7812 76.9785 87.6641 76.8848C87.5469 76.7871 87.3477 76.7051 87.0664 76.6387L85.9062 76.3809C84.707 76.1074 84.1074 75.502 84.1074 74.5645Z" fill="#F83103"/>
<path d="M11 36C11 22.1929 22.1929 11 36 11H110C123.807 11 135 22.1929 135 36V73C135 86.8071 123.807 98 110 98H36C22.1929 98 11 86.8071 11 73V36Z" stroke="#F83103" stroke-width="2" mask="url(#path-1-outside-1_356_197)"/>
<path d="M96 40.2979C96 35.9226 82.2451 34.3347 73 34.3347C70.9862 34.3347 69.0074 34.4037 67.089 34.5256L63.426 21.9909C63.1125 20.9526 62.4032 20.0794 61.4512 19.5597C60.4992 19.0401 59.381 18.9158 58.3382 19.2137C57.2954 19.5116 56.4116 20.2078 55.8777 21.1519C55.3439 22.096 55.2028 23.2123 55.4851 24.2595L58.7017 35.5274C54.5489 36.3222 50 37.7704 50 40.2979C50.0114 43.9003 50.8646 47.4501 52.4915 50.6642C54.1184 53.8782 56.474 56.6675 59.3704 58.8094V61.1197C59.3668 61.6925 59.5569 62.2497 59.9097 62.7009C60.2626 63.1521 60.7575 63.4709 61.3143 63.6055C68.9938 65.4648 77.0062 65.4648 84.6857 63.6055C85.2425 63.4709 85.7374 63.1521 86.0903 62.7009C86.4431 62.2497 86.6332 61.6925 86.6296 61.1197V58.8111C89.5261 56.669 91.8818 53.8794 93.5088 50.6651C95.1357 47.4507 95.9888 43.9006 96 40.2979ZM70.0074 44.5096L68.5602 39.5593C70.0177 39.4895 71.5016 39.446 73 39.446C81.0159 39.446 88.3001 40.4487 92.0219 42.0026C88.87 43.2855 82.47 44.5582 73 44.5582C71.9607 44.5582 70.9717 44.5386 70.0074 44.5096ZM73 36.0377C86.9823 36.0377 94.2963 38.8114 94.2963 40.2979C94.2721 40.4391 94.2193 40.5739 94.1412 40.694C94.0632 40.8141 93.9614 40.917 93.8423 40.9965C90.2526 39.0124 82.1957 37.7423 73 37.7423C71.3346 37.7423 69.682 37.7908 68.0678 37.8752L67.5797 36.2055C69.3447 36.1024 71.1549 36.0377 73 36.0377ZM57.5193 21.6672C57.9151 21.1643 58.4903 20.8343 59.1242 20.7465C59.7581 20.6586 60.4014 20.8198 60.919 21.1961C61.3403 21.5133 61.6461 21.9597 61.7896 22.4671L68.2126 44.4423C66.4338 44.3559 64.6585 44.2068 62.8902 43.9951L57.1232 23.7927C57.0187 23.432 57.0001 23.052 57.0689 22.6829C57.1377 22.3138 57.292 21.966 57.5193 21.6672ZM61.0485 43.7455C58.638 43.431 56.2702 42.8481 53.9892 42.0077C55.9639 41.2635 58.0123 40.7318 60.0996 40.4215L61.0485 43.7455ZM59.1727 37.1766L59.6285 38.7731C57.0382 39.123 54.5181 39.8737 52.1586 40.9982C52.0394 40.9187 51.9377 40.8157 51.8597 40.6956C51.7816 40.5755 51.7288 40.4408 51.7046 40.2996C51.7046 39.5909 53.7166 38.204 59.1727 37.1766ZM84.9259 61.1197C84.9267 61.3089 84.8645 61.4929 84.7492 61.6429C84.6338 61.7928 84.4718 61.9001 84.2887 61.9477C76.8702 63.7449 69.1298 63.7449 61.7113 61.9477C61.5282 61.9001 61.3662 61.7928 61.2508 61.6429C61.1355 61.4929 61.0733 61.3089 61.0741 61.1197V59.8334C68.8383 62.2733 77.1647 62.2682 84.9259 59.8189V61.1197ZM84.6678 58.1083C77.0946 60.5475 68.9479 60.5558 61.3697 58.1321C58.7688 56.4246 56.5711 54.171 54.9294 51.5281C53.2876 48.8851 52.2413 45.9163 51.863 42.828C55.9306 45.3036 65.8223 46.262 73 46.262C80.1777 46.262 90.0694 45.3036 94.137 42.828C93.7598 45.9091 92.7176 48.8713 91.0826 51.5098C89.4476 54.1483 87.2589 56.3992 84.6678 58.1083ZM71.2963 32.6301C71.4106 32.6269 71.5231 32.601 71.6273 32.5541C71.7316 32.5072 71.8255 32.4401 71.9037 32.3567C72.0646 32.1861 72.1518 31.959 72.1464 31.7246C72.1464 31.7143 72.1413 30.6001 73.736 27.8698C74.3051 26.9771 74.6355 25.9533 74.6955 24.8963C74.7555 23.8393 74.543 22.7846 74.0784 21.8333C73.3714 20.3587 72.0681 19.103 71.4207 19.0076C71.2545 18.9852 71.0855 19.0126 70.935 19.0865C70.7846 19.1604 70.6595 19.2773 70.5756 19.4225C70.4902 19.5694 70.4496 19.738 70.4587 19.9076C70.4677 20.0772 70.5262 20.2405 70.6267 20.3775C70.66 20.4226 71.413 21.5019 69.7655 23.6725C67.8974 26.1311 68.9954 29.2745 69.8166 30.9289C70.66 32.6301 70.9138 32.6301 71.2963 32.6301ZM71.1225 24.7025C71.6999 23.9808 72.1284 23.1519 72.3833 22.2635C72.584 22.6169 72.7403 22.9937 72.8484 23.3855C73.0048 23.9975 73.0337 24.6352 72.9333 25.2589C72.8329 25.8826 72.6054 26.479 72.2649 27.0111C71.7962 27.7985 71.3826 28.6174 71.0271 29.462C70.4572 28.0708 70.0296 26.1422 71.1225 24.7025ZM78.963 32.6301C79.0772 32.6269 79.1897 32.601 79.294 32.5541C79.3982 32.5072 79.4921 32.4401 79.5703 32.3567C79.7313 32.1861 79.8185 31.959 79.8131 31.7246C79.8131 31.7143 79.808 30.6001 81.4027 27.8698C81.9718 26.9771 82.3022 25.9533 82.3622 24.8963C82.4221 23.8393 82.2096 22.7846 81.7451 21.8333C81.0381 20.3587 79.7347 19.103 79.0873 19.0076C78.9212 18.9853 78.7522 19.0128 78.6018 19.0866C78.4513 19.1605 78.3262 19.2774 78.2423 19.4225C78.1569 19.5694 78.1163 19.738 78.1253 19.9076C78.1344 20.0772 78.1928 20.2405 78.2934 20.3775C78.3266 20.4226 79.0797 21.5019 77.4322 23.6725C75.5641 26.1311 76.6621 29.2745 77.4833 30.9289C78.3266 32.6301 78.5805 32.6301 78.963 32.6301ZM78.7892 24.7025C79.3666 23.9808 79.7951 23.1519 80.0499 22.2635C80.2507 22.6169 80.4069 22.9937 80.515 23.3855C80.6714 23.9975 80.7004 24.6352 80.6 25.2589C80.4996 25.8826 80.2721 26.479 79.9315 27.0111C79.4628 27.7985 79.0493 28.6174 78.6938 29.462C78.1239 28.0708 77.6963 26.1422 78.7892 24.7025ZM86.6296 32.6301C86.7439 32.6269 86.8564 32.601 86.9606 32.5541C87.0649 32.5072 87.1588 32.4401 87.237 32.3567C87.3979 32.1861 87.4852 31.959 87.4798 31.7246C87.4798 31.7143 87.4747 30.6001 89.0693 27.8698C89.6385 26.9771 89.9689 25.9533 90.0288 24.8963C90.0888 23.8393 89.8763 22.7846 89.4118 21.8333C88.7047 20.3587 87.4014 19.103 86.754 19.0076C86.5879 18.9854 86.4189 19.0129 86.2685 19.0868C86.1181 19.1606 85.993 19.2775 85.909 19.4225C85.8236 19.5694 85.7829 19.738 85.792 19.9076C85.8011 20.0772 85.8595 20.2405 85.9601 20.3775C85.9933 20.4226 86.7463 21.5019 85.0989 23.6725C83.2307 26.1311 84.3288 29.2745 85.15 30.9289C85.9933 32.6301 86.2471 32.6301 86.6296 32.6301ZM86.4559 24.7025C87.0332 23.9808 87.4617 23.1519 87.7166 22.2635C87.9174 22.6169 88.0736 22.9937 88.1817 23.3855C88.3381 23.9975 88.367 24.6352 88.2666 25.2589C88.1663 25.8826 87.9387 26.479 87.5982 27.0111C87.1295 27.7985 86.7159 28.6174 86.3604 29.462C85.7906 28.0708 85.3629 26.1422 86.4559 24.7025Z" stroke="#F83103" stroke-width="2" mask="url(#path-1-outside-1_356_197)"/>
<path d="M55.543 76.5918H57.248C57.2871 76.9355 57.4688 77.2148 57.793 77.4297C58.1211 77.6406 58.5215 77.7461 58.9941 77.7461C59.4629 77.7461 59.8438 77.6465 60.1367 77.4473C60.4336 77.2441 60.582 76.9863 60.582 76.6738C60.582 76.4004 60.4727 76.1797 60.2539 76.0117C60.0352 75.8438 59.6699 75.7031 59.1582 75.5898L58.0566 75.3496C56.5059 75.0176 55.7305 74.2305 55.7305 72.9883C55.7305 72.2148 56.0312 71.5898 56.6328 71.1133C57.2383 70.6367 58.0156 70.3984 58.9648 70.3984C59.9414 70.3984 60.7207 70.6309 61.3027 71.0957C61.8848 71.5566 62.1836 72.1719 62.1992 72.9414H60.541C60.5137 72.5859 60.3555 72.3066 60.0664 72.1035C59.7812 71.8965 59.416 71.793 58.9707 71.793C58.5332 71.793 58.1797 71.8887 57.9102 72.0801C57.6445 72.2715 57.5117 72.5234 57.5117 72.8359C57.5117 73.0938 57.6191 73.3027 57.834 73.4629C58.0527 73.623 58.4062 73.7598 58.8945 73.873L59.9199 74.0898C60.7676 74.2695 61.3848 74.5508 61.7715 74.9336C62.1582 75.3125 62.3516 75.8242 62.3516 76.4688C62.3516 77.2891 62.043 77.9414 61.4258 78.4258C60.8086 78.9062 59.9746 79.1465 58.9238 79.1465C57.9043 79.1465 57.0918 78.9199 56.4863 78.4668C55.8848 78.0098 55.5703 77.3848 55.543 76.5918Z" stroke="#F83103" stroke-width="2" mask="url(#path-1-outside-1_356_197)"/>
<path d="M68.4512 78.2676C67.8926 78.8457 67.1348 79.1348 66.1777 79.1348C65.2207 79.1348 64.4629 78.8438 63.9043 78.2617C63.3457 77.6797 63.0664 76.877 63.0664 75.8535C63.0664 74.8418 63.3477 74.0449 63.9102 73.4629C64.4766 72.877 65.2324 72.584 66.1777 72.584C67.127 72.584 67.8828 72.877 68.4453 73.4629C69.0078 74.0449 69.2891 74.8418 69.2891 75.8535C69.2891 76.8809 69.0098 77.6855 68.4512 78.2676ZM66.1777 77.8281C66.5996 77.8281 66.9336 77.6562 67.1797 77.3125C67.4258 76.9688 67.5488 76.4844 67.5488 75.8594C67.5488 75.2422 67.4258 74.7598 67.1797 74.4121C66.9336 74.0645 66.5996 73.8906 66.1777 73.8906C65.7559 73.8906 65.4199 74.0645 65.1699 74.4121C64.9238 74.7598 64.8008 75.2422 64.8008 75.8594C64.8008 76.4844 64.9238 76.9688 65.1699 77.3125C65.416 77.6562 65.752 77.8281 66.1777 77.8281Z" stroke="#F83103" stroke-width="2" mask="url(#path-1-outside-1_356_197)"/>
<path d="M75.9746 72.7188V79H74.3223V77.8691H74.2871C73.959 78.7012 73.332 79.1172 72.4062 79.1172C71.7188 79.1172 71.1699 78.9082 70.7598 78.4902C70.3496 78.0684 70.1445 77.4941 70.1445 76.7676V72.7188H71.8555V76.4102C71.8555 76.8281 71.9551 77.1465 72.1543 77.3652C72.3574 77.584 72.6484 77.6934 73.0273 77.6934C73.4062 77.6934 73.707 77.5684 73.9297 77.3184C74.1523 77.0684 74.2637 76.7344 74.2637 76.3164V72.7188H75.9746Z" stroke="#F83103" stroke-width="2" mask="url(#path-1-outside-1_356_197)"/>
<path d="M80.7559 72.6191C81.5527 72.6191 82.1797 72.9062 82.6367 73.4805C83.0977 74.0547 83.3281 74.8477 83.3281 75.8594C83.3281 76.8672 83.1016 77.6602 82.6484 78.2383C82.1953 78.8125 81.5742 79.0996 80.7852 79.0996C80.3359 79.0996 79.9395 78.998 79.5957 78.7949C79.2559 78.5879 79.002 78.3047 78.834 77.9453H78.7988V81.0508H77.0879V72.7188H78.7754V73.8145H78.8105C78.9824 73.4395 79.2363 73.1465 79.5723 72.9355C79.9121 72.7246 80.3066 72.6191 80.7559 72.6191ZM80.1816 77.7227C80.6074 77.7227 80.9453 77.5547 81.1953 77.2188C81.4492 76.8828 81.5762 76.4297 81.5762 75.8594C81.5762 75.2891 81.4492 74.8359 81.1953 74.5C80.9453 74.1602 80.6074 73.9902 80.1816 73.9902C79.7637 73.9902 79.4277 74.1621 79.1738 74.5059C78.9199 74.8457 78.793 75.2969 78.793 75.8594C78.793 76.4258 78.918 76.8789 79.168 77.2188C79.4219 77.5547 79.7598 77.7227 80.1816 77.7227Z" stroke="#F83103" stroke-width="2" mask="url(#path-1-outside-1_356_197)"/>
<path d="M84.1074 74.5645C84.1074 73.9668 84.3477 73.4883 84.8281 73.1289C85.3086 72.7656 85.9512 72.584 86.7559 72.584C87.541 72.584 88.1719 72.7676 88.6484 73.1348C89.125 73.502 89.3691 73.9902 89.3809 74.5996H87.8047C87.7852 74.3457 87.6797 74.1465 87.4883 74.002C87.3008 73.8574 87.0488 73.7852 86.7324 73.7852C86.4355 73.7852 86.1973 73.8477 86.0176 73.9727C85.8418 74.0938 85.7539 74.2559 85.7539 74.459C85.7539 74.7637 86.0273 74.9805 86.5742 75.1094L87.7754 75.3672C88.4043 75.5078 88.8555 75.7129 89.1289 75.9824C89.4062 76.248 89.5449 76.6152 89.5449 77.084C89.5449 77.7012 89.2871 78.1973 88.7715 78.5723C88.2559 78.9473 87.582 79.1348 86.75 79.1348C85.9219 79.1348 85.2598 78.9512 84.7637 78.584C84.2676 78.2168 83.9961 77.7227 83.9492 77.1016H85.6191C85.6621 77.3672 85.7832 77.5723 85.9824 77.7168C86.1855 77.8613 86.457 77.9336 86.7969 77.9336C87.1211 77.9336 87.375 77.875 87.5586 77.7578C87.7461 77.6367 87.8398 77.4727 87.8398 77.2656C87.8398 77.1055 87.7812 76.9785 87.6641 76.8848C87.5469 76.7871 87.3477 76.7051 87.0664 76.6387L85.9062 76.3809C84.707 76.1074 84.1074 75.502 84.1074 74.5645Z" stroke="#F83103" stroke-width="2" mask="url(#path-1-outside-1_356_197)"/>
</g>
<defs>
<filter id="filter0_d_356_197" x="0" y="0" width="146" height="109" filterUnits="userSpaceOnUse" color-interpolation-filters="sRGB">
<feFlood flood-opacity="0" result="BackgroundImageFix"/>
<feColorMatrix in="SourceAlpha" type="matrix" values="0 0 0 0 0 0 0 0 0 0 0 0 0 0 0 0 0 0 127 0" result="hardAlpha"/>
<feOffset/>
<feGaussianBlur stdDeviation="5"/>
<feComposite in2="hardAlpha" operator="out"/>
<feColorMatrix type="matrix" values="0 0 0 0 0.972549 0 0 0 0 0.192157 0 0 0 0 0.0117647 0 0 0 0.25 0"/>
<feBlend mode="normal" in2="BackgroundImageFix" result="effect1_dropShadow_356_197"/>
<feBlend mode="normal" in="SourceGraphic" in2="effect1_dropShadow_356_197" result="shape"/>
</filter>
</defs>
</svg>
