<svg width="124" height="87" viewBox="0 0 124 87" fill="none" xmlns="http://www.w3.org/2000/svg">
<path d="M0 25C0 11.1929 11.1929 0 25 0H99C112.807 0 124 11.1929 124 25V62C124 75.8071 112.807 87 99 87H25C11.1929 87 0 75.8071 0 62V25Z" fill="#2E3235"/>
<path d="M85 29.2979C85 24.9226 71.2451 23.3347 62 23.3347C59.9862 23.3347 58.0074 23.4037 56.089 23.5256L52.426 10.9909C52.1125 9.95263 51.4032 9.07935 50.4512 8.55971C49.4992 8.04007 48.381 7.91579 47.3382 8.21371C46.2954 8.51162 45.4116 9.20783 44.8777 10.1519C44.3439 11.096 44.2028 12.2123 44.4851 13.2595L47.7017 24.5274C43.5489 25.3222 39 26.7704 39 29.2979C39.0114 32.9003 39.8646 36.4501 41.4915 39.6642C43.1184 42.8782 45.474 45.6675 48.3704 47.8094V50.1197C48.3668 50.6925 48.5569 51.2497 48.9097 51.7009C49.2626 52.1521 49.7575 52.4709 50.3143 52.6055C57.9938 54.4648 66.0062 54.4648 73.6857 52.6055C74.2425 52.4709 74.7374 52.1521 75.0903 51.7009C75.4431 51.2497 75.6332 50.6925 75.6296 50.1197V47.8111C78.5261 45.669 80.8818 42.8794 82.5088 39.6651C84.1357 36.4507 84.9888 32.9006 85 29.2979ZM59.0074 33.5096L57.5602 28.5593C59.0177 28.4895 60.5016 28.446 62 28.446C70.0159 28.446 77.3001 29.4487 81.0219 31.0026C77.87 32.2855 71.47 33.5582 62 33.5582C60.9607 33.5582 59.9717 33.5386 59.0074 33.5096ZM62 25.0377C75.9823 25.0377 83.2963 27.8114 83.2963 29.2979C83.2721 29.4391 83.2193 29.5739 83.1412 29.694C83.0632 29.8141 82.9614 29.917 82.8423 29.9965C79.2526 28.0124 71.1957 26.7423 62 26.7423C60.3346 26.7423 58.682 26.7908 57.0678 26.8752L56.5797 25.2055C58.3447 25.1024 60.1549 25.0377 62 25.0377ZM46.5193 10.6672C46.9151 10.1643 47.4903 9.8343 48.1242 9.74646C48.7581 9.65862 49.4014 9.81978 49.919 10.1961C50.3403 10.5133 50.6461 10.9597 50.7896 11.4671L57.2126 33.4423C55.4338 33.3559 53.6585 33.2068 51.8902 32.9951L46.1232 12.7927C46.0187 12.432 46.0001 12.052 46.0689 11.6829C46.1377 11.3138 46.292 10.966 46.5193 10.6672ZM50.0485 32.7455C47.638 32.431 45.2702 31.8481 42.9892 31.0077C44.9639 30.2635 47.0123 29.7318 49.0996 29.4215L50.0485 32.7455ZM48.1727 26.1766L48.6285 27.7731C46.0382 28.123 43.5181 28.8737 41.1586 29.9982C41.0394 29.9187 40.9377 29.8157 40.8597 29.6956C40.7816 29.5755 40.7288 29.4408 40.7046 29.2996C40.7046 28.5909 42.7166 27.204 48.1727 26.1766ZM73.9259 50.1197C73.9267 50.3089 73.8645 50.4929 73.7492 50.6429C73.6338 50.7928 73.4718 50.9001 73.2887 50.9477C65.8702 52.7449 58.1298 52.7449 50.7113 50.9477C50.5282 50.9001 50.3662 50.7928 50.2508 50.6429C50.1355 50.4929 50.0733 50.3089 50.0741 50.1197V48.8334C57.8383 51.2733 66.1647 51.2682 73.9259 48.8189V50.1197ZM73.6678 47.1083C66.0946 49.5475 57.9479 49.5558 50.3697 47.1321C47.7688 45.4246 45.5711 43.171 43.9294 40.5281C42.2876 37.8851 41.2413 34.9163 40.863 31.828C44.9306 34.3036 54.8223 35.262 62 35.262C69.1777 35.262 79.0694 34.3036 83.137 31.828C82.7598 34.9091 81.7176 37.8713 80.0826 40.5098C78.4476 43.1483 76.2589 45.3992 73.6678 47.1083ZM60.2963 21.6301C60.4106 21.6269 60.5231 21.601 60.6273 21.5541C60.7316 21.5072 60.8255 21.4401 60.9037 21.3567C61.0646 21.1861 61.1518 20.959 61.1464 20.7246C61.1464 20.7143 61.1413 19.6001 62.736 16.8698C63.3051 15.9771 63.6355 14.9533 63.6955 13.8963C63.7555 12.8393 63.543 11.7846 63.0784 10.8333C62.3714 9.35871 61.0681 8.10303 60.4207 8.00762C60.2545 7.98516 60.0855 8.01261 59.935 8.08648C59.7846 8.16036 59.6595 8.27732 59.5756 8.42249C59.4902 8.56936 59.4496 8.73796 59.4587 8.9076C59.4677 9.07724 59.5262 9.24054 59.6267 9.37745C59.66 9.4226 60.413 10.5019 58.7655 12.6725C56.8974 15.1311 57.9954 18.2745 58.8166 19.9289C59.66 21.6301 59.9138 21.6301 60.2963 21.6301ZM60.1225 13.7025C60.6999 12.9808 61.1284 12.1519 61.3833 11.2635C61.584 11.6169 61.7403 11.9937 61.8484 12.3855C62.0048 12.9975 62.0337 13.6352 61.9333 14.2589C61.8329 14.8826 61.6054 15.479 61.2649 16.0111C60.7962 16.7985 60.3826 17.6174 60.0271 18.462C59.4572 17.0708 59.0296 15.1422 60.1225 13.7025ZM67.963 21.6301C68.0772 21.6269 68.1897 21.601 68.294 21.5541C68.3982 21.5072 68.4921 21.4401 68.5703 21.3567C68.7313 21.1861 68.8185 20.959 68.8131 20.7246C68.8131 20.7143 68.808 19.6001 70.4027 16.8698C70.9718 15.9771 71.3022 14.9533 71.3622 13.8963C71.4221 12.8393 71.2096 11.7846 70.7451 10.8333C70.0381 9.35871 68.7347 8.10303 68.0873 8.00762C67.9212 7.98527 67.7522 8.01278 67.6018 8.08664C67.4513 8.1605 67.3262 8.2774 67.2423 8.42249C67.1569 8.56936 67.1163 8.73796 67.1253 8.9076C67.1344 9.07724 67.1928 9.24054 67.2934 9.37745C67.3266 9.4226 68.0797 10.5019 66.4322 12.6725C64.5641 15.1311 65.6621 18.2745 66.4833 19.9289C67.3266 21.6301 67.5805 21.6301 67.963 21.6301ZM67.7892 13.7025C68.3666 12.9808 68.7951 12.1519 69.0499 11.2635C69.2507 11.6169 69.4069 11.9937 69.515 12.3855C69.6714 12.9975 69.7004 13.6352 69.6 14.2589C69.4996 14.8826 69.2721 15.479 68.9315 16.0111C68.4628 16.7985 68.0493 17.6174 67.6938 18.462C67.1239 17.0708 66.6963 15.1422 67.7892 13.7025ZM75.6296 21.6301C75.7439 21.6269 75.8564 21.601 75.9606 21.5541C76.0649 21.5072 76.1588 21.4401 76.237 21.3567C76.3979 21.1861 76.4852 20.959 76.4798 20.7246C76.4798 20.7143 76.4747 19.6001 78.0693 16.8698C78.6385 15.9771 78.9689 14.9533 79.0288 13.8963C79.0888 12.8393 78.8763 11.7846 78.4118 10.8333C77.7047 9.35871 76.4014 8.10303 75.754 8.00762C75.5879 7.98539 75.4189 8.01294 75.2685 8.0868C75.1181 8.16065 74.993 8.27748 74.909 8.42249C74.8236 8.56936 74.7829 8.73796 74.792 8.9076C74.8011 9.07724 74.8595 9.24054 74.9601 9.37745C74.9933 9.4226 75.7463 10.5019 74.0989 12.6725C72.2307 15.1311 73.3288 18.2745 74.15 19.9289C74.9933 21.6301 75.2471 21.6301 75.6296 21.6301ZM75.4559 13.7025C76.0332 12.9808 76.4617 12.1519 76.7166 11.2635C76.9174 11.6169 77.0736 11.9937 77.1817 12.3855C77.3381 12.9975 77.367 13.6352 77.2666 14.2589C77.1663 14.8826 76.9387 15.479 76.5982 16.0111C76.1295 16.7985 75.7159 17.6174 75.3604 18.462C74.7906 17.0708 74.3629 15.1422 75.4559 13.7025Z" fill="white"/>
<path d="M44.543 65.5918H46.248C46.2871 65.9355 46.4688 66.2148 46.793 66.4297C47.1211 66.6406 47.5215 66.7461 47.9941 66.7461C48.4629 66.7461 48.8438 66.6465 49.1367 66.4473C49.4336 66.2441 49.582 65.9863 49.582 65.6738C49.582 65.4004 49.4727 65.1797 49.2539 65.0117C49.0352 64.8438 48.6699 64.7031 48.1582 64.5898L47.0566 64.3496C45.5059 64.0176 44.7305 63.2305 44.7305 61.9883C44.7305 61.2148 45.0312 60.5898 45.6328 60.1133C46.2383 59.6367 47.0156 59.3984 47.9648 59.3984C48.9414 59.3984 49.7207 59.6309 50.3027 60.0957C50.8848 60.5566 51.1836 61.1719 51.1992 61.9414H49.541C49.5137 61.5859 49.3555 61.3066 49.0664 61.1035C48.7812 60.8965 48.416 60.793 47.9707 60.793C47.5332 60.793 47.1797 60.8887 46.9102 61.0801C46.6445 61.2715 46.5117 61.5234 46.5117 61.8359C46.5117 62.0938 46.6191 62.3027 46.834 62.4629C47.0527 62.623 47.4062 62.7598 47.8945 62.873L48.9199 63.0898C49.7676 63.2695 50.3848 63.5508 50.7715 63.9336C51.1582 64.3125 51.3516 64.8242 51.3516 65.4688C51.3516 66.2891 51.043 66.9414 50.4258 67.4258C49.8086 67.9062 48.9746 68.1465 47.9238 68.1465C46.9043 68.1465 46.0918 67.9199 45.4863 67.4668C44.8848 67.0098 44.5703 66.3848 44.543 65.5918Z" fill="white"/>
<path d="M57.4512 67.2676C56.8926 67.8457 56.1348 68.1348 55.1777 68.1348C54.2207 68.1348 53.4629 67.8438 52.9043 67.2617C52.3457 66.6797 52.0664 65.877 52.0664 64.8535C52.0664 63.8418 52.3477 63.0449 52.9102 62.4629C53.4766 61.877 54.2324 61.584 55.1777 61.584C56.127 61.584 56.8828 61.877 57.4453 62.4629C58.0078 63.0449 58.2891 63.8418 58.2891 64.8535C58.2891 65.8809 58.0098 66.6855 57.4512 67.2676ZM55.1777 66.8281C55.5996 66.8281 55.9336 66.6562 56.1797 66.3125C56.4258 65.9688 56.5488 65.4844 56.5488 64.8594C56.5488 64.2422 56.4258 63.7598 56.1797 63.4121C55.9336 63.0645 55.5996 62.8906 55.1777 62.8906C54.7559 62.8906 54.4199 63.0645 54.1699 63.4121C53.9238 63.7598 53.8008 64.2422 53.8008 64.8594C53.8008 65.4844 53.9238 65.9688 54.1699 66.3125C54.416 66.6562 54.752 66.8281 55.1777 66.8281Z" fill="white"/>
<path d="M64.9746 61.7188V68H63.3223V66.8691H63.2871C62.959 67.7012 62.332 68.1172 61.4062 68.1172C60.7188 68.1172 60.1699 67.9082 59.7598 67.4902C59.3496 67.0684 59.1445 66.4941 59.1445 65.7676V61.7188H60.8555V65.4102C60.8555 65.8281 60.9551 66.1465 61.1543 66.3652C61.3574 66.584 61.6484 66.6934 62.0273 66.6934C62.4062 66.6934 62.707 66.5684 62.9297 66.3184C63.1523 66.0684 63.2637 65.7344 63.2637 65.3164V61.7188H64.9746Z" fill="white"/>
<path d="M69.7559 61.6191C70.5527 61.6191 71.1797 61.9062 71.6367 62.4805C72.0977 63.0547 72.3281 63.8477 72.3281 64.8594C72.3281 65.8672 72.1016 66.6602 71.6484 67.2383C71.1953 67.8125 70.5742 68.0996 69.7852 68.0996C69.3359 68.0996 68.9395 67.998 68.5957 67.7949C68.2559 67.5879 68.002 67.3047 67.834 66.9453H67.7988V70.0508H66.0879V61.7188H67.7754V62.8145H67.8105C67.9824 62.4395 68.2363 62.1465 68.5723 61.9355C68.9121 61.7246 69.3066 61.6191 69.7559 61.6191ZM69.1816 66.7227C69.6074 66.7227 69.9453 66.5547 70.1953 66.2188C70.4492 65.8828 70.5762 65.4297 70.5762 64.8594C70.5762 64.2891 70.4492 63.8359 70.1953 63.5C69.9453 63.1602 69.6074 62.9902 69.1816 62.9902C68.7637 62.9902 68.4277 63.1621 68.1738 63.5059C67.9199 63.8457 67.793 64.2969 67.793 64.8594C67.793 65.4258 67.918 65.8789 68.168 66.2188C68.4219 66.5547 68.7598 66.7227 69.1816 66.7227Z" fill="white"/>
<path d="M73.1074 63.5645C73.1074 62.9668 73.3477 62.4883 73.8281 62.1289C74.3086 61.7656 74.9512 61.584 75.7559 61.584C76.541 61.584 77.1719 61.7676 77.6484 62.1348C78.125 62.502 78.3691 62.9902 78.3809 63.5996H76.8047C76.7852 63.3457 76.6797 63.1465 76.4883 63.002C76.3008 62.8574 76.0488 62.7852 75.7324 62.7852C75.4355 62.7852 75.1973 62.8477 75.0176 62.9727C74.8418 63.0938 74.7539 63.2559 74.7539 63.459C74.7539 63.7637 75.0273 63.9805 75.5742 64.1094L76.7754 64.3672C77.4043 64.5078 77.8555 64.7129 78.1289 64.9824C78.4062 65.248 78.5449 65.6152 78.5449 66.084C78.5449 66.7012 78.2871 67.1973 77.7715 67.5723C77.2559 67.9473 76.582 68.1348 75.75 68.1348C74.9219 68.1348 74.2598 67.9512 73.7637 67.584C73.2676 67.2168 72.9961 66.7227 72.9492 66.1016H74.6191C74.6621 66.3672 74.7832 66.5723 74.9824 66.7168C75.1855 66.8613 75.457 66.9336 75.7969 66.9336C76.1211 66.9336 76.375 66.875 76.5586 66.7578C76.7461 66.6367 76.8398 66.4727 76.8398 66.2656C76.8398 66.1055 76.7812 65.9785 76.6641 65.8848C76.5469 65.7871 76.3477 65.7051 76.0664 65.6387L74.9062 65.3809C73.707 65.1074 73.1074 64.502 73.1074 63.5645Z" fill="white"/>
</svg>
