<svg width="146" height="109" viewBox="0 0 146 109" fill="none" xmlns="http://www.w3.org/2000/svg">
<g filter="url(#filter0_d_356_187)">
<mask id="path-1-outside-1_356_187" maskUnits="userSpaceOnUse" x="10" y="10" width="126" height="89" fill="black">
<rect fill="white" x="10" y="10" width="126" height="89"/>
<path d="M11 36C11 22.1929 22.1929 11 36 11H110C123.807 11 135 22.1929 135 36V73C135 86.8071 123.807 98 110 98H36C22.1929 98 11 86.8071 11 73V36Z"/>
<path d="M61.0156 79H59.2461V72.0039H56.8027V70.5449H63.4648V72.0039H61.0156V79Z"/>
<path d="M65.2812 77.8633C65.6602 77.8633 65.9805 77.7539 66.2422 77.5352C66.5078 77.3125 66.6406 77.0332 66.6406 76.6973V76.2402L65.3164 76.3223C64.9961 76.3457 64.748 76.4258 64.5723 76.5625C64.4004 76.6992 64.3145 76.8789 64.3145 77.1016C64.3145 77.3359 64.4023 77.5215 64.5781 77.6582C64.7539 77.7949 64.9883 77.8633 65.2812 77.8633ZM64.7188 79.0996C64.1133 79.0996 63.6113 78.9219 63.2129 78.5664C62.8145 78.2109 62.6152 77.7539 62.6152 77.1953C62.6152 76.625 62.8262 76.1777 63.248 75.8535C63.6699 75.5293 64.2734 75.3438 65.0586 75.2969L66.6406 75.2031V74.7871C66.6406 74.498 66.5449 74.2715 66.3535 74.1074C66.166 73.9434 65.9102 73.8613 65.5859 73.8613C65.2734 73.8613 65.0176 73.9316 64.8184 74.0723C64.623 74.2129 64.5039 74.4023 64.4609 74.6406H62.8965C62.9277 74.0234 63.1914 73.5273 63.6875 73.1523C64.1836 72.7734 64.8418 72.584 65.6621 72.584C66.4668 72.584 67.1113 72.7754 67.5957 73.1582C68.0801 73.541 68.3223 74.0488 68.3223 74.6816V79H66.6699V78.0391H66.6348C66.4629 78.3672 66.2012 78.627 65.8496 78.8184C65.498 79.0059 65.1211 79.0996 64.7188 79.0996Z"/>
<path d="M75.1367 75.0566H73.5488C73.498 74.7168 73.3633 74.4434 73.1445 74.2363C72.9297 74.0293 72.6504 73.9258 72.3066 73.9258C71.8809 73.9258 71.5449 74.0977 71.2988 74.4414C71.0566 74.7812 70.9355 75.252 70.9355 75.8535C70.9355 76.4668 71.0566 76.9434 71.2988 77.2832C71.5449 77.623 71.8828 77.793 72.3125 77.793C72.6523 77.793 72.9297 77.6973 73.1445 77.5059C73.3594 77.3105 73.4941 77.041 73.5488 76.6973H75.1426C75.0996 77.4395 74.8203 78.0312 74.3047 78.4727C73.7891 78.9141 73.1191 79.1348 72.2949 79.1348C71.3418 79.1348 70.5879 78.8438 70.0332 78.2617C69.4785 77.6758 69.2012 76.873 69.2012 75.8535C69.2012 74.8496 69.4785 74.0547 70.0332 73.4688C70.5918 72.8789 71.3418 72.584 72.2832 72.584C73.1191 72.584 73.793 72.8145 74.3047 73.2754C74.8203 73.7363 75.0977 74.3301 75.1367 75.0566Z"/>
<path d="M81.125 78.2676C80.5664 78.8457 79.8086 79.1348 78.8516 79.1348C77.8945 79.1348 77.1367 78.8438 76.5781 78.2617C76.0195 77.6797 75.7402 76.877 75.7402 75.8535C75.7402 74.8418 76.0215 74.0449 76.584 73.4629C77.1504 72.877 77.9062 72.584 78.8516 72.584C79.8008 72.584 80.5566 72.877 81.1191 73.4629C81.6816 74.0449 81.9629 74.8418 81.9629 75.8535C81.9629 76.8809 81.6836 77.6855 81.125 78.2676ZM78.8516 77.8281C79.2734 77.8281 79.6074 77.6562 79.8535 77.3125C80.0996 76.9688 80.2227 76.4844 80.2227 75.8594C80.2227 75.2422 80.0996 74.7598 79.8535 74.4121C79.6074 74.0645 79.2734 73.8906 78.8516 73.8906C78.4297 73.8906 78.0938 74.0645 77.8438 74.4121C77.5977 74.7598 77.4746 75.2422 77.4746 75.8594C77.4746 76.4844 77.5977 76.9688 77.8438 77.3125C78.0898 77.6562 78.4258 77.8281 78.8516 77.8281Z"/>
<path d="M82.7422 74.5645C82.7422 73.9668 82.9824 73.4883 83.4629 73.1289C83.9434 72.7656 84.5859 72.584 85.3906 72.584C86.1758 72.584 86.8066 72.7676 87.2832 73.1348C87.7598 73.502 88.0039 73.9902 88.0156 74.5996H86.4395C86.4199 74.3457 86.3145 74.1465 86.123 74.002C85.9355 73.8574 85.6836 73.7852 85.3672 73.7852C85.0703 73.7852 84.832 73.8477 84.6523 73.9727C84.4766 74.0938 84.3887 74.2559 84.3887 74.459C84.3887 74.7637 84.6621 74.9805 85.209 75.1094L86.4102 75.3672C87.0391 75.5078 87.4902 75.7129 87.7637 75.9824C88.041 76.248 88.1797 76.6152 88.1797 77.084C88.1797 77.7012 87.9219 78.1973 87.4062 78.5723C86.8906 78.9473 86.2168 79.1348 85.3848 79.1348C84.5566 79.1348 83.8945 78.9512 83.3984 78.584C82.9023 78.2168 82.6309 77.7227 82.584 77.1016H84.2539C84.2969 77.3672 84.418 77.5723 84.6172 77.7168C84.8203 77.8613 85.0918 77.9336 85.4316 77.9336C85.7559 77.9336 86.0098 77.875 86.1934 77.7578C86.3809 77.6367 86.4746 77.4727 86.4746 77.2656C86.4746 77.1055 86.416 76.9785 86.2988 76.8848C86.1816 76.7871 85.9824 76.7051 85.7012 76.6387L84.541 76.3809C83.3418 76.1074 82.7422 75.502 82.7422 74.5645Z"/>
<path d="M98 54.6784C98 45.3502 93.1562 36.6388 85.4219 32.0132C83.9375 28.3899 80.3438 26 76.3594 26C74.5625 26 72.8438 26.4626 71.3594 27.3106C70.8125 27.6189 70.1875 27.6189 69.6406 27.3106C67.8438 26.2313 66.125 25.9229 64.6406 26.3084C63.2344 26.6938 62.0625 27.8502 61.2031 29.4692C60.8906 30.0859 60.1875 30.4714 59.4844 30.3943C57.8438 30.163 56.4375 30.4714 55.3438 31.3194C53.7031 32.63 53.1562 34.9427 53.0781 36.6388C53.0781 37.1013 52.8438 37.4868 52.5312 37.7181C51.2031 38.7974 50.7344 40.3392 51.0469 42.1123C49.0938 45.967 48 50.2841 48 54.6784C48 55.9119 48.4688 57.0683 49.3281 57.9934C49.875 58.533 50.4219 58.9185 51.125 59.1498C51.9062 60.3062 53.2344 61 54.7188 61H91.2812C92.7656 61 94.0938 60.2291 94.7969 59.1498C96.75 58.4559 98 56.7599 98 54.6784ZM53.5469 38.8745C54.1719 38.3348 54.5625 37.5639 54.6406 36.7159C54.7188 35.5595 55.0312 33.478 56.3594 32.4758C57.1406 31.859 58.0781 31.7048 59.3281 31.859C60.6562 32.0903 61.9844 31.3965 62.6094 30.163C63.0781 29.2379 63.8594 28.0815 65.1094 27.7731C66.125 27.4648 67.4531 27.7731 68.8594 28.6211C69.875 29.2379 71.125 29.2379 72.1406 28.6982C73.3906 27.9273 74.875 27.5419 76.3594 27.5419C79.7969 27.5419 82.9219 29.6233 84.0938 32.7841C84.3281 33.4009 84.7188 35.4824 84.6406 37.2555C82.6094 36.022 80.4219 35.0969 78.0781 34.5573V30.8568C78.0781 30.4714 77.7656 30.0859 77.2969 30.0859C76.9062 30.0859 76.5156 30.3943 76.5156 30.8568V34.2489C75.3438 34.0947 74.1719 33.9405 73 33.9405C70.9688 33.9405 69.0156 34.2489 67.0625 34.7115V30.7797C67.0625 30.3943 66.75 30.0088 66.2812 30.0088C65.8906 30.0088 65.5 30.3172 65.5 30.7797V35.174C63.9375 35.7137 62.4531 36.4846 61.0469 37.3326C60.1094 36.0991 58.3906 35.0969 58.1562 35.0198C57.7656 34.7885 57.2969 34.9427 57.1406 35.3282C56.9062 35.7137 57.0625 36.1762 57.4531 36.3304C58.2344 36.793 59.3281 37.5639 59.875 38.2577C57.4531 40.0308 55.3438 42.2665 53.7812 44.8106C53.1562 43.8084 52.7656 42.9604 52.5312 42.1123C52.2969 40.7247 52.6094 39.6454 53.5469 38.8745ZM49.4844 54.6784C49.4844 51.0551 50.2656 47.4317 51.75 44.1938C52.0625 44.8877 52.4531 45.5815 53 46.2753C51.3594 49.4361 50.4219 52.9824 50.4219 56.837V56.9141C49.875 56.2974 49.4844 55.5264 49.4844 54.6784ZM91.2812 59.4581H54.7188C53.2344 59.4581 51.9844 58.2247 51.9844 56.7599C51.9844 45.0419 61.3594 35.4053 73 35.4053C84.6406 35.4053 94.0156 44.9648 94.0156 56.7599C94.0156 58.3018 92.8438 59.4581 91.2812 59.4581ZM95.5781 56.9912C95.5781 56.9141 95.5781 56.837 95.5781 56.837C95.5781 49.2048 91.8281 42.3436 86.0469 38.2577C86.2031 36.9471 86.125 35.4824 85.9688 34.2489C92.5312 38.7974 96.5156 46.5066 96.5156 54.8326C96.5156 55.6035 96.125 56.3744 95.5781 56.9912Z"/>
<path d="M65.1094 50.9009C63.8594 50.9009 62.8437 51.9031 62.8437 53.1366C62.8437 54.3701 63.8594 55.3723 65.1094 55.3723C66.3594 55.3723 67.375 54.3701 67.375 53.1366C67.2969 51.9031 66.2812 50.9009 65.1094 50.9009ZM65.1094 53.8304C64.7187 53.8304 64.4062 53.522 64.4062 53.1366C64.4062 52.7511 64.7187 52.4427 65.1094 52.4427C65.5 52.4427 65.8125 52.7511 65.8125 53.1366C65.8125 53.522 65.5 53.8304 65.1094 53.8304ZM73.1562 51.9031C72.7656 51.9031 72.375 52.2115 72.375 52.674C72.375 53.0595 72.6875 53.445 73.1562 53.445C73.5469 53.445 73.8594 53.7533 73.8594 54.1388C73.8594 54.5242 73.5469 54.8326 73.1562 54.8326C72.7656 54.8326 72.375 55.141 72.375 55.6035C72.375 55.989 72.6875 56.3745 73.1562 56.3745C74.4062 56.3745 75.4219 55.3723 75.4219 54.1388C75.3437 52.9053 74.3281 51.9031 73.1562 51.9031ZM68.5469 43.0375C68.1562 43.0375 67.7656 43.3458 67.7656 43.8084C67.7656 44.1938 67.4531 44.5022 67.0625 44.5022C66.6719 44.5022 66.3594 44.1938 66.3594 43.8084C66.3594 43.4229 66.0469 43.0375 65.5781 43.0375C65.1875 43.0375 64.7969 43.3458 64.7969 43.8084C64.7969 45.0419 65.8125 46.0441 67.0625 46.0441C68.3125 46.0441 69.3281 45.0419 69.3281 43.8084C69.3281 43.3458 69.0156 43.0375 68.5469 43.0375ZM58.5469 44.5022C57.2969 44.5022 56.2812 45.5044 56.2812 46.7379C56.2812 47.9714 57.2969 48.9736 58.5469 48.9736C59.7969 48.9736 60.8125 47.9714 60.8125 46.7379C60.8125 45.5044 59.7969 44.5022 58.5469 44.5022ZM58.5469 47.4317C58.1562 47.4317 57.8437 47.1234 57.8437 46.7379C57.8437 46.3524 58.1562 46.0441 58.5469 46.0441C58.9375 46.0441 59.25 46.3524 59.25 46.7379C59.3281 47.1234 59.0156 47.4317 58.5469 47.4317ZM73.3906 38.1806C73 38.1806 72.6094 38.489 72.6094 38.9516C72.6094 39.337 72.9219 39.7225 73.3906 39.7225C73.7812 39.7225 74.0937 40.0309 74.0937 40.4163C74.0937 40.8018 73.7812 41.1101 73.3906 41.1101C73 41.1101 72.6094 41.4185 72.6094 41.8811C72.6094 42.2665 72.9219 42.652 73.3906 42.652C74.6406 42.652 75.6562 41.6498 75.6562 40.4163C75.5781 39.1828 74.5625 38.1806 73.3906 38.1806ZM83.4687 40.7247C83.0781 40.4934 82.6094 40.6476 82.4531 41.0331C82.2187 41.4185 82.375 41.8811 82.7656 42.0353C83.1562 42.1894 83.2344 42.652 83.0781 42.9604C82.9219 43.2687 82.4531 43.4229 82.1406 43.2687C81.75 43.1146 81.2812 43.1916 81.125 43.5771C80.9687 43.9626 81.0469 44.4251 81.4375 44.5793C81.75 44.7335 82.1406 44.8106 82.4531 44.8106C83.2344 44.8106 84.0156 44.348 84.4062 43.6542C84.9531 42.652 84.5625 41.3414 83.4687 40.7247ZM82.2969 50.0529C81.0469 50.0529 80.0312 51.0551 80.0312 52.2886C80.0312 53.522 81.0469 54.5242 82.2969 54.5242C82.6875 54.5242 83.0781 54.2159 83.0781 53.7533C83.0781 53.3679 82.7656 52.9824 82.2969 52.9824C81.9062 52.9824 81.5937 52.674 81.5937 52.2886C81.5937 51.9031 81.9062 51.5947 82.2969 51.5947C82.6875 51.5947 83 51.9031 83 52.2886C83 52.674 83.3125 53.0595 83.7812 53.0595C84.25 53.0595 84.5625 52.7511 84.5625 52.2886C84.5625 51.0551 83.5469 50.0529 82.2969 50.0529ZM89.5625 53.522C88.3125 53.522 87.2969 54.5242 87.2969 55.7577C87.2969 56.9912 88.3125 57.9934 89.5625 57.9934C90.8125 57.9934 91.8281 56.9912 91.8281 55.7577C91.75 54.5242 90.8125 53.522 89.5625 53.522ZM89.5625 56.4516C89.1719 56.4516 88.8594 56.1432 88.8594 55.7577C88.8594 55.3723 89.1719 55.0639 89.5625 55.0639C89.9531 55.0639 90.2656 55.3723 90.2656 55.7577C90.2656 56.0661 89.9531 56.4516 89.5625 56.4516Z"/>
</mask>
<path d="M11 36C11 22.1929 22.1929 11 36 11H110C123.807 11 135 22.1929 135 36V73C135 86.8071 123.807 98 110 98H36C22.1929 98 11 86.8071 11 73V36Z" fill="#2E3235"/>
<path d="M61.0156 79H59.2461V72.0039H56.8027V70.5449H63.4648V72.0039H61.0156V79Z" fill="#F83103"/>
<path d="M65.2812 77.8633C65.6602 77.8633 65.9805 77.7539 66.2422 77.5352C66.5078 77.3125 66.6406 77.0332 66.6406 76.6973V76.2402L65.3164 76.3223C64.9961 76.3457 64.748 76.4258 64.5723 76.5625C64.4004 76.6992 64.3145 76.8789 64.3145 77.1016C64.3145 77.3359 64.4023 77.5215 64.5781 77.6582C64.7539 77.7949 64.9883 77.8633 65.2812 77.8633ZM64.7188 79.0996C64.1133 79.0996 63.6113 78.9219 63.2129 78.5664C62.8145 78.2109 62.6152 77.7539 62.6152 77.1953C62.6152 76.625 62.8262 76.1777 63.248 75.8535C63.6699 75.5293 64.2734 75.3438 65.0586 75.2969L66.6406 75.2031V74.7871C66.6406 74.498 66.5449 74.2715 66.3535 74.1074C66.166 73.9434 65.9102 73.8613 65.5859 73.8613C65.2734 73.8613 65.0176 73.9316 64.8184 74.0723C64.623 74.2129 64.5039 74.4023 64.4609 74.6406H62.8965C62.9277 74.0234 63.1914 73.5273 63.6875 73.1523C64.1836 72.7734 64.8418 72.584 65.6621 72.584C66.4668 72.584 67.1113 72.7754 67.5957 73.1582C68.0801 73.541 68.3223 74.0488 68.3223 74.6816V79H66.6699V78.0391H66.6348C66.4629 78.3672 66.2012 78.627 65.8496 78.8184C65.498 79.0059 65.1211 79.0996 64.7188 79.0996Z" fill="#F83103"/>
<path d="M75.1367 75.0566H73.5488C73.498 74.7168 73.3633 74.4434 73.1445 74.2363C72.9297 74.0293 72.6504 73.9258 72.3066 73.9258C71.8809 73.9258 71.5449 74.0977 71.2988 74.4414C71.0566 74.7812 70.9355 75.252 70.9355 75.8535C70.9355 76.4668 71.0566 76.9434 71.2988 77.2832C71.5449 77.623 71.8828 77.793 72.3125 77.793C72.6523 77.793 72.9297 77.6973 73.1445 77.5059C73.3594 77.3105 73.4941 77.041 73.5488 76.6973H75.1426C75.0996 77.4395 74.8203 78.0312 74.3047 78.4727C73.7891 78.9141 73.1191 79.1348 72.2949 79.1348C71.3418 79.1348 70.5879 78.8438 70.0332 78.2617C69.4785 77.6758 69.2012 76.873 69.2012 75.8535C69.2012 74.8496 69.4785 74.0547 70.0332 73.4688C70.5918 72.8789 71.3418 72.584 72.2832 72.584C73.1191 72.584 73.793 72.8145 74.3047 73.2754C74.8203 73.7363 75.0977 74.3301 75.1367 75.0566Z" fill="#F83103"/>
<path d="M81.125 78.2676C80.5664 78.8457 79.8086 79.1348 78.8516 79.1348C77.8945 79.1348 77.1367 78.8438 76.5781 78.2617C76.0195 77.6797 75.7402 76.877 75.7402 75.8535C75.7402 74.8418 76.0215 74.0449 76.584 73.4629C77.1504 72.877 77.9062 72.584 78.8516 72.584C79.8008 72.584 80.5566 72.877 81.1191 73.4629C81.6816 74.0449 81.9629 74.8418 81.9629 75.8535C81.9629 76.8809 81.6836 77.6855 81.125 78.2676ZM78.8516 77.8281C79.2734 77.8281 79.6074 77.6562 79.8535 77.3125C80.0996 76.9688 80.2227 76.4844 80.2227 75.8594C80.2227 75.2422 80.0996 74.7598 79.8535 74.4121C79.6074 74.0645 79.2734 73.8906 78.8516 73.8906C78.4297 73.8906 78.0938 74.0645 77.8438 74.4121C77.5977 74.7598 77.4746 75.2422 77.4746 75.8594C77.4746 76.4844 77.5977 76.9688 77.8438 77.3125C78.0898 77.6562 78.4258 77.8281 78.8516 77.8281Z" fill="#F83103"/>
<path d="M82.7422 74.5645C82.7422 73.9668 82.9824 73.4883 83.4629 73.1289C83.9434 72.7656 84.5859 72.584 85.3906 72.584C86.1758 72.584 86.8066 72.7676 87.2832 73.1348C87.7598 73.502 88.0039 73.9902 88.0156 74.5996H86.4395C86.4199 74.3457 86.3145 74.1465 86.123 74.002C85.9355 73.8574 85.6836 73.7852 85.3672 73.7852C85.0703 73.7852 84.832 73.8477 84.6523 73.9727C84.4766 74.0938 84.3887 74.2559 84.3887 74.459C84.3887 74.7637 84.6621 74.9805 85.209 75.1094L86.4102 75.3672C87.0391 75.5078 87.4902 75.7129 87.7637 75.9824C88.041 76.248 88.1797 76.6152 88.1797 77.084C88.1797 77.7012 87.9219 78.1973 87.4062 78.5723C86.8906 78.9473 86.2168 79.1348 85.3848 79.1348C84.5566 79.1348 83.8945 78.9512 83.3984 78.584C82.9023 78.2168 82.6309 77.7227 82.584 77.1016H84.2539C84.2969 77.3672 84.418 77.5723 84.6172 77.7168C84.8203 77.8613 85.0918 77.9336 85.4316 77.9336C85.7559 77.9336 86.0098 77.875 86.1934 77.7578C86.3809 77.6367 86.4746 77.4727 86.4746 77.2656C86.4746 77.1055 86.416 76.9785 86.2988 76.8848C86.1816 76.7871 85.9824 76.7051 85.7012 76.6387L84.541 76.3809C83.3418 76.1074 82.7422 75.502 82.7422 74.5645Z" fill="#F83103"/>
<path d="M98 54.6784C98 45.3502 93.1562 36.6388 85.4219 32.0132C83.9375 28.3899 80.3438 26 76.3594 26C74.5625 26 72.8438 26.4626 71.3594 27.3106C70.8125 27.6189 70.1875 27.6189 69.6406 27.3106C67.8438 26.2313 66.125 25.9229 64.6406 26.3084C63.2344 26.6938 62.0625 27.8502 61.2031 29.4692C60.8906 30.0859 60.1875 30.4714 59.4844 30.3943C57.8438 30.163 56.4375 30.4714 55.3438 31.3194C53.7031 32.63 53.1562 34.9427 53.0781 36.6388C53.0781 37.1013 52.8438 37.4868 52.5312 37.7181C51.2031 38.7974 50.7344 40.3392 51.0469 42.1123C49.0938 45.967 48 50.2841 48 54.6784C48 55.9119 48.4688 57.0683 49.3281 57.9934C49.875 58.533 50.4219 58.9185 51.125 59.1498C51.9062 60.3062 53.2344 61 54.7188 61H91.2812C92.7656 61 94.0938 60.2291 94.7969 59.1498C96.75 58.4559 98 56.7599 98 54.6784ZM53.5469 38.8745C54.1719 38.3348 54.5625 37.5639 54.6406 36.7159C54.7188 35.5595 55.0312 33.478 56.3594 32.4758C57.1406 31.859 58.0781 31.7048 59.3281 31.859C60.6562 32.0903 61.9844 31.3965 62.6094 30.163C63.0781 29.2379 63.8594 28.0815 65.1094 27.7731C66.125 27.4648 67.4531 27.7731 68.8594 28.6211C69.875 29.2379 71.125 29.2379 72.1406 28.6982C73.3906 27.9273 74.875 27.5419 76.3594 27.5419C79.7969 27.5419 82.9219 29.6233 84.0938 32.7841C84.3281 33.4009 84.7188 35.4824 84.6406 37.2555C82.6094 36.022 80.4219 35.0969 78.0781 34.5573V30.8568C78.0781 30.4714 77.7656 30.0859 77.2969 30.0859C76.9062 30.0859 76.5156 30.3943 76.5156 30.8568V34.2489C75.3438 34.0947 74.1719 33.9405 73 33.9405C70.9688 33.9405 69.0156 34.2489 67.0625 34.7115V30.7797C67.0625 30.3943 66.75 30.0088 66.2812 30.0088C65.8906 30.0088 65.5 30.3172 65.5 30.7797V35.174C63.9375 35.7137 62.4531 36.4846 61.0469 37.3326C60.1094 36.0991 58.3906 35.0969 58.1562 35.0198C57.7656 34.7885 57.2969 34.9427 57.1406 35.3282C56.9062 35.7137 57.0625 36.1762 57.4531 36.3304C58.2344 36.793 59.3281 37.5639 59.875 38.2577C57.4531 40.0308 55.3438 42.2665 53.7812 44.8106C53.1562 43.8084 52.7656 42.9604 52.5312 42.1123C52.2969 40.7247 52.6094 39.6454 53.5469 38.8745ZM49.4844 54.6784C49.4844 51.0551 50.2656 47.4317 51.75 44.1938C52.0625 44.8877 52.4531 45.5815 53 46.2753C51.3594 49.4361 50.4219 52.9824 50.4219 56.837V56.9141C49.875 56.2974 49.4844 55.5264 49.4844 54.6784ZM91.2812 59.4581H54.7188C53.2344 59.4581 51.9844 58.2247 51.9844 56.7599C51.9844 45.0419 61.3594 35.4053 73 35.4053C84.6406 35.4053 94.0156 44.9648 94.0156 56.7599C94.0156 58.3018 92.8438 59.4581 91.2812 59.4581ZM95.5781 56.9912C95.5781 56.9141 95.5781 56.837 95.5781 56.837C95.5781 49.2048 91.8281 42.3436 86.0469 38.2577C86.2031 36.9471 86.125 35.4824 85.9688 34.2489C92.5312 38.7974 96.5156 46.5066 96.5156 54.8326C96.5156 55.6035 96.125 56.3744 95.5781 56.9912Z" fill="#F83103"/>
<path d="M65.1094 50.9009C63.8594 50.9009 62.8437 51.9031 62.8437 53.1366C62.8437 54.3701 63.8594 55.3723 65.1094 55.3723C66.3594 55.3723 67.375 54.3701 67.375 53.1366C67.2969 51.9031 66.2812 50.9009 65.1094 50.9009ZM65.1094 53.8304C64.7187 53.8304 64.4062 53.522 64.4062 53.1366C64.4062 52.7511 64.7187 52.4427 65.1094 52.4427C65.5 52.4427 65.8125 52.7511 65.8125 53.1366C65.8125 53.522 65.5 53.8304 65.1094 53.8304ZM73.1562 51.9031C72.7656 51.9031 72.375 52.2115 72.375 52.674C72.375 53.0595 72.6875 53.445 73.1562 53.445C73.5469 53.445 73.8594 53.7533 73.8594 54.1388C73.8594 54.5242 73.5469 54.8326 73.1562 54.8326C72.7656 54.8326 72.375 55.141 72.375 55.6035C72.375 55.989 72.6875 56.3745 73.1562 56.3745C74.4062 56.3745 75.4219 55.3723 75.4219 54.1388C75.3437 52.9053 74.3281 51.9031 73.1562 51.9031ZM68.5469 43.0375C68.1562 43.0375 67.7656 43.3458 67.7656 43.8084C67.7656 44.1938 67.4531 44.5022 67.0625 44.5022C66.6719 44.5022 66.3594 44.1938 66.3594 43.8084C66.3594 43.4229 66.0469 43.0375 65.5781 43.0375C65.1875 43.0375 64.7969 43.3458 64.7969 43.8084C64.7969 45.0419 65.8125 46.0441 67.0625 46.0441C68.3125 46.0441 69.3281 45.0419 69.3281 43.8084C69.3281 43.3458 69.0156 43.0375 68.5469 43.0375ZM58.5469 44.5022C57.2969 44.5022 56.2812 45.5044 56.2812 46.7379C56.2812 47.9714 57.2969 48.9736 58.5469 48.9736C59.7969 48.9736 60.8125 47.9714 60.8125 46.7379C60.8125 45.5044 59.7969 44.5022 58.5469 44.5022ZM58.5469 47.4317C58.1562 47.4317 57.8437 47.1234 57.8437 46.7379C57.8437 46.3524 58.1562 46.0441 58.5469 46.0441C58.9375 46.0441 59.25 46.3524 59.25 46.7379C59.3281 47.1234 59.0156 47.4317 58.5469 47.4317ZM73.3906 38.1806C73 38.1806 72.6094 38.489 72.6094 38.9516C72.6094 39.337 72.9219 39.7225 73.3906 39.7225C73.7812 39.7225 74.0937 40.0309 74.0937 40.4163C74.0937 40.8018 73.7812 41.1101 73.3906 41.1101C73 41.1101 72.6094 41.4185 72.6094 41.8811C72.6094 42.2665 72.9219 42.652 73.3906 42.652C74.6406 42.652 75.6562 41.6498 75.6562 40.4163C75.5781 39.1828 74.5625 38.1806 73.3906 38.1806ZM83.4687 40.7247C83.0781 40.4934 82.6094 40.6476 82.4531 41.0331C82.2187 41.4185 82.375 41.8811 82.7656 42.0353C83.1562 42.1894 83.2344 42.652 83.0781 42.9604C82.9219 43.2687 82.4531 43.4229 82.1406 43.2687C81.75 43.1146 81.2812 43.1916 81.125 43.5771C80.9687 43.9626 81.0469 44.4251 81.4375 44.5793C81.75 44.7335 82.1406 44.8106 82.4531 44.8106C83.2344 44.8106 84.0156 44.348 84.4062 43.6542C84.9531 42.652 84.5625 41.3414 83.4687 40.7247ZM82.2969 50.0529C81.0469 50.0529 80.0312 51.0551 80.0312 52.2886C80.0312 53.522 81.0469 54.5242 82.2969 54.5242C82.6875 54.5242 83.0781 54.2159 83.0781 53.7533C83.0781 53.3679 82.7656 52.9824 82.2969 52.9824C81.9062 52.9824 81.5937 52.674 81.5937 52.2886C81.5937 51.9031 81.9062 51.5947 82.2969 51.5947C82.6875 51.5947 83 51.9031 83 52.2886C83 52.674 83.3125 53.0595 83.7812 53.0595C84.25 53.0595 84.5625 52.7511 84.5625 52.2886C84.5625 51.0551 83.5469 50.0529 82.2969 50.0529ZM89.5625 53.522C88.3125 53.522 87.2969 54.5242 87.2969 55.7577C87.2969 56.9912 88.3125 57.9934 89.5625 57.9934C90.8125 57.9934 91.8281 56.9912 91.8281 55.7577C91.75 54.5242 90.8125 53.522 89.5625 53.522ZM89.5625 56.4516C89.1719 56.4516 88.8594 56.1432 88.8594 55.7577C88.8594 55.3723 89.1719 55.0639 89.5625 55.0639C89.9531 55.0639 90.2656 55.3723 90.2656 55.7577C90.2656 56.0661 89.9531 56.4516 89.5625 56.4516Z" fill="#F83103"/>
<path d="M11 36C11 22.1929 22.1929 11 36 11H110C123.807 11 135 22.1929 135 36V73C135 86.8071 123.807 98 110 98H36C22.1929 98 11 86.8071 11 73V36Z" stroke="#F83103" stroke-width="2" mask="url(#path-1-outside-1_356_187)"/>
<path d="M61.0156 79H59.2461V72.0039H56.8027V70.5449H63.4648V72.0039H61.0156V79Z" stroke="#F83103" stroke-width="2" mask="url(#path-1-outside-1_356_187)"/>
<path d="M65.2812 77.8633C65.6602 77.8633 65.9805 77.7539 66.2422 77.5352C66.5078 77.3125 66.6406 77.0332 66.6406 76.6973V76.2402L65.3164 76.3223C64.9961 76.3457 64.748 76.4258 64.5723 76.5625C64.4004 76.6992 64.3145 76.8789 64.3145 77.1016C64.3145 77.3359 64.4023 77.5215 64.5781 77.6582C64.7539 77.7949 64.9883 77.8633 65.2812 77.8633ZM64.7188 79.0996C64.1133 79.0996 63.6113 78.9219 63.2129 78.5664C62.8145 78.2109 62.6152 77.7539 62.6152 77.1953C62.6152 76.625 62.8262 76.1777 63.248 75.8535C63.6699 75.5293 64.2734 75.3438 65.0586 75.2969L66.6406 75.2031V74.7871C66.6406 74.498 66.5449 74.2715 66.3535 74.1074C66.166 73.9434 65.9102 73.8613 65.5859 73.8613C65.2734 73.8613 65.0176 73.9316 64.8184 74.0723C64.623 74.2129 64.5039 74.4023 64.4609 74.6406H62.8965C62.9277 74.0234 63.1914 73.5273 63.6875 73.1523C64.1836 72.7734 64.8418 72.584 65.6621 72.584C66.4668 72.584 67.1113 72.7754 67.5957 73.1582C68.0801 73.541 68.3223 74.0488 68.3223 74.6816V79H66.6699V78.0391H66.6348C66.4629 78.3672 66.2012 78.627 65.8496 78.8184C65.498 79.0059 65.1211 79.0996 64.7188 79.0996Z" stroke="#F83103" stroke-width="2" mask="url(#path-1-outside-1_356_187)"/>
<path d="M75.1367 75.0566H73.5488C73.498 74.7168 73.3633 74.4434 73.1445 74.2363C72.9297 74.0293 72.6504 73.9258 72.3066 73.9258C71.8809 73.9258 71.5449 74.0977 71.2988 74.4414C71.0566 74.7812 70.9355 75.252 70.9355 75.8535C70.9355 76.4668 71.0566 76.9434 71.2988 77.2832C71.5449 77.623 71.8828 77.793 72.3125 77.793C72.6523 77.793 72.9297 77.6973 73.1445 77.5059C73.3594 77.3105 73.4941 77.041 73.5488 76.6973H75.1426C75.0996 77.4395 74.8203 78.0312 74.3047 78.4727C73.7891 78.9141 73.1191 79.1348 72.2949 79.1348C71.3418 79.1348 70.5879 78.8438 70.0332 78.2617C69.4785 77.6758 69.2012 76.873 69.2012 75.8535C69.2012 74.8496 69.4785 74.0547 70.0332 73.4688C70.5918 72.8789 71.3418 72.584 72.2832 72.584C73.1191 72.584 73.793 72.8145 74.3047 73.2754C74.8203 73.7363 75.0977 74.3301 75.1367 75.0566Z" stroke="#F83103" stroke-width="2" mask="url(#path-1-outside-1_356_187)"/>
<path d="M81.125 78.2676C80.5664 78.8457 79.8086 79.1348 78.8516 79.1348C77.8945 79.1348 77.1367 78.8438 76.5781 78.2617C76.0195 77.6797 75.7402 76.877 75.7402 75.8535C75.7402 74.8418 76.0215 74.0449 76.584 73.4629C77.1504 72.877 77.9062 72.584 78.8516 72.584C79.8008 72.584 80.5566 72.877 81.1191 73.4629C81.6816 74.0449 81.9629 74.8418 81.9629 75.8535C81.9629 76.8809 81.6836 77.6855 81.125 78.2676ZM78.8516 77.8281C79.2734 77.8281 79.6074 77.6562 79.8535 77.3125C80.0996 76.9688 80.2227 76.4844 80.2227 75.8594C80.2227 75.2422 80.0996 74.7598 79.8535 74.4121C79.6074 74.0645 79.2734 73.8906 78.8516 73.8906C78.4297 73.8906 78.0938 74.0645 77.8438 74.4121C77.5977 74.7598 77.4746 75.2422 77.4746 75.8594C77.4746 76.4844 77.5977 76.9688 77.8438 77.3125C78.0898 77.6562 78.4258 77.8281 78.8516 77.8281Z" stroke="#F83103" stroke-width="2" mask="url(#path-1-outside-1_356_187)"/>
<path d="M82.7422 74.5645C82.7422 73.9668 82.9824 73.4883 83.4629 73.1289C83.9434 72.7656 84.5859 72.584 85.3906 72.584C86.1758 72.584 86.8066 72.7676 87.2832 73.1348C87.7598 73.502 88.0039 73.9902 88.0156 74.5996H86.4395C86.4199 74.3457 86.3145 74.1465 86.123 74.002C85.9355 73.8574 85.6836 73.7852 85.3672 73.7852C85.0703 73.7852 84.832 73.8477 84.6523 73.9727C84.4766 74.0938 84.3887 74.2559 84.3887 74.459C84.3887 74.7637 84.6621 74.9805 85.209 75.1094L86.4102 75.3672C87.0391 75.5078 87.4902 75.7129 87.7637 75.9824C88.041 76.248 88.1797 76.6152 88.1797 77.084C88.1797 77.7012 87.9219 78.1973 87.4062 78.5723C86.8906 78.9473 86.2168 79.1348 85.3848 79.1348C84.5566 79.1348 83.8945 78.9512 83.3984 78.584C82.9023 78.2168 82.6309 77.7227 82.584 77.1016H84.2539C84.2969 77.3672 84.418 77.5723 84.6172 77.7168C84.8203 77.8613 85.0918 77.9336 85.4316 77.9336C85.7559 77.9336 86.0098 77.875 86.1934 77.7578C86.3809 77.6367 86.4746 77.4727 86.4746 77.2656C86.4746 77.1055 86.416 76.9785 86.2988 76.8848C86.1816 76.7871 85.9824 76.7051 85.7012 76.6387L84.541 76.3809C83.3418 76.1074 82.7422 75.502 82.7422 74.5645Z" stroke="#F83103" stroke-width="2" mask="url(#path-1-outside-1_356_187)"/>
<path d="M98 54.6784C98 45.3502 93.1562 36.6388 85.4219 32.0132C83.9375 28.3899 80.3438 26 76.3594 26C74.5625 26 72.8438 26.4626 71.3594 27.3106C70.8125 27.6189 70.1875 27.6189 69.6406 27.3106C67.8438 26.2313 66.125 25.9229 64.6406 26.3084C63.2344 26.6938 62.0625 27.8502 61.2031 29.4692C60.8906 30.0859 60.1875 30.4714 59.4844 30.3943C57.8438 30.163 56.4375 30.4714 55.3438 31.3194C53.7031 32.63 53.1562 34.9427 53.0781 36.6388C53.0781 37.1013 52.8438 37.4868 52.5312 37.7181C51.2031 38.7974 50.7344 40.3392 51.0469 42.1123C49.0938 45.967 48 50.2841 48 54.6784C48 55.9119 48.4688 57.0683 49.3281 57.9934C49.875 58.533 50.4219 58.9185 51.125 59.1498C51.9062 60.3062 53.2344 61 54.7188 61H91.2812C92.7656 61 94.0938 60.2291 94.7969 59.1498C96.75 58.4559 98 56.7599 98 54.6784ZM53.5469 38.8745C54.1719 38.3348 54.5625 37.5639 54.6406 36.7159C54.7188 35.5595 55.0312 33.478 56.3594 32.4758C57.1406 31.859 58.0781 31.7048 59.3281 31.859C60.6562 32.0903 61.9844 31.3965 62.6094 30.163C63.0781 29.2379 63.8594 28.0815 65.1094 27.7731C66.125 27.4648 67.4531 27.7731 68.8594 28.6211C69.875 29.2379 71.125 29.2379 72.1406 28.6982C73.3906 27.9273 74.875 27.5419 76.3594 27.5419C79.7969 27.5419 82.9219 29.6233 84.0938 32.7841C84.3281 33.4009 84.7188 35.4824 84.6406 37.2555C82.6094 36.022 80.4219 35.0969 78.0781 34.5573V30.8568C78.0781 30.4714 77.7656 30.0859 77.2969 30.0859C76.9062 30.0859 76.5156 30.3943 76.5156 30.8568V34.2489C75.3438 34.0947 74.1719 33.9405 73 33.9405C70.9688 33.9405 69.0156 34.2489 67.0625 34.7115V30.7797C67.0625 30.3943 66.75 30.0088 66.2812 30.0088C65.8906 30.0088 65.5 30.3172 65.5 30.7797V35.174C63.9375 35.7137 62.4531 36.4846 61.0469 37.3326C60.1094 36.0991 58.3906 35.0969 58.1562 35.0198C57.7656 34.7885 57.2969 34.9427 57.1406 35.3282C56.9062 35.7137 57.0625 36.1762 57.4531 36.3304C58.2344 36.793 59.3281 37.5639 59.875 38.2577C57.4531 40.0308 55.3438 42.2665 53.7812 44.8106C53.1562 43.8084 52.7656 42.9604 52.5312 42.1123C52.2969 40.7247 52.6094 39.6454 53.5469 38.8745ZM49.4844 54.6784C49.4844 51.0551 50.2656 47.4317 51.75 44.1938C52.0625 44.8877 52.4531 45.5815 53 46.2753C51.3594 49.4361 50.4219 52.9824 50.4219 56.837V56.9141C49.875 56.2974 49.4844 55.5264 49.4844 54.6784ZM91.2812 59.4581H54.7188C53.2344 59.4581 51.9844 58.2247 51.9844 56.7599C51.9844 45.0419 61.3594 35.4053 73 35.4053C84.6406 35.4053 94.0156 44.9648 94.0156 56.7599C94.0156 58.3018 92.8438 59.4581 91.2812 59.4581ZM95.5781 56.9912C95.5781 56.9141 95.5781 56.837 95.5781 56.837C95.5781 49.2048 91.8281 42.3436 86.0469 38.2577C86.2031 36.9471 86.125 35.4824 85.9688 34.2489C92.5312 38.7974 96.5156 46.5066 96.5156 54.8326C96.5156 55.6035 96.125 56.3744 95.5781 56.9912Z" stroke="#F83103" stroke-width="2" mask="url(#path-1-outside-1_356_187)"/>
<path d="M65.1094 50.9009C63.8594 50.9009 62.8437 51.9031 62.8437 53.1366C62.8437 54.3701 63.8594 55.3723 65.1094 55.3723C66.3594 55.3723 67.375 54.3701 67.375 53.1366C67.2969 51.9031 66.2812 50.9009 65.1094 50.9009ZM65.1094 53.8304C64.7187 53.8304 64.4062 53.522 64.4062 53.1366C64.4062 52.7511 64.7187 52.4427 65.1094 52.4427C65.5 52.4427 65.8125 52.7511 65.8125 53.1366C65.8125 53.522 65.5 53.8304 65.1094 53.8304ZM73.1562 51.9031C72.7656 51.9031 72.375 52.2115 72.375 52.674C72.375 53.0595 72.6875 53.445 73.1562 53.445C73.5469 53.445 73.8594 53.7533 73.8594 54.1388C73.8594 54.5242 73.5469 54.8326 73.1562 54.8326C72.7656 54.8326 72.375 55.141 72.375 55.6035C72.375 55.989 72.6875 56.3745 73.1562 56.3745C74.4062 56.3745 75.4219 55.3723 75.4219 54.1388C75.3437 52.9053 74.3281 51.9031 73.1562 51.9031ZM68.5469 43.0375C68.1562 43.0375 67.7656 43.3458 67.7656 43.8084C67.7656 44.1938 67.4531 44.5022 67.0625 44.5022C66.6719 44.5022 66.3594 44.1938 66.3594 43.8084C66.3594 43.4229 66.0469 43.0375 65.5781 43.0375C65.1875 43.0375 64.7969 43.3458 64.7969 43.8084C64.7969 45.0419 65.8125 46.0441 67.0625 46.0441C68.3125 46.0441 69.3281 45.0419 69.3281 43.8084C69.3281 43.3458 69.0156 43.0375 68.5469 43.0375ZM58.5469 44.5022C57.2969 44.5022 56.2812 45.5044 56.2812 46.7379C56.2812 47.9714 57.2969 48.9736 58.5469 48.9736C59.7969 48.9736 60.8125 47.9714 60.8125 46.7379C60.8125 45.5044 59.7969 44.5022 58.5469 44.5022ZM58.5469 47.4317C58.1562 47.4317 57.8437 47.1234 57.8437 46.7379C57.8437 46.3524 58.1562 46.0441 58.5469 46.0441C58.9375 46.0441 59.25 46.3524 59.25 46.7379C59.3281 47.1234 59.0156 47.4317 58.5469 47.4317ZM73.3906 38.1806C73 38.1806 72.6094 38.489 72.6094 38.9516C72.6094 39.337 72.9219 39.7225 73.3906 39.7225C73.7812 39.7225 74.0937 40.0309 74.0937 40.4163C74.0937 40.8018 73.7812 41.1101 73.3906 41.1101C73 41.1101 72.6094 41.4185 72.6094 41.8811C72.6094 42.2665 72.9219 42.652 73.3906 42.652C74.6406 42.652 75.6562 41.6498 75.6562 40.4163C75.5781 39.1828 74.5625 38.1806 73.3906 38.1806ZM83.4687 40.7247C83.0781 40.4934 82.6094 40.6476 82.4531 41.0331C82.2187 41.4185 82.375 41.8811 82.7656 42.0353C83.1562 42.1894 83.2344 42.652 83.0781 42.9604C82.9219 43.2687 82.4531 43.4229 82.1406 43.2687C81.75 43.1146 81.2812 43.1916 81.125 43.5771C80.9687 43.9626 81.0469 44.4251 81.4375 44.5793C81.75 44.7335 82.1406 44.8106 82.4531 44.8106C83.2344 44.8106 84.0156 44.348 84.4062 43.6542C84.9531 42.652 84.5625 41.3414 83.4687 40.7247ZM82.2969 50.0529C81.0469 50.0529 80.0312 51.0551 80.0312 52.2886C80.0312 53.522 81.0469 54.5242 82.2969 54.5242C82.6875 54.5242 83.0781 54.2159 83.0781 53.7533C83.0781 53.3679 82.7656 52.9824 82.2969 52.9824C81.9062 52.9824 81.5937 52.674 81.5937 52.2886C81.5937 51.9031 81.9062 51.5947 82.2969 51.5947C82.6875 51.5947 83 51.9031 83 52.2886C83 52.674 83.3125 53.0595 83.7812 53.0595C84.25 53.0595 84.5625 52.7511 84.5625 52.2886C84.5625 51.0551 83.5469 50.0529 82.2969 50.0529ZM89.5625 53.522C88.3125 53.522 87.2969 54.5242 87.2969 55.7577C87.2969 56.9912 88.3125 57.9934 89.5625 57.9934C90.8125 57.9934 91.8281 56.9912 91.8281 55.7577C91.75 54.5242 90.8125 53.522 89.5625 53.522ZM89.5625 56.4516C89.1719 56.4516 88.8594 56.1432 88.8594 55.7577C88.8594 55.3723 89.1719 55.0639 89.5625 55.0639C89.9531 55.0639 90.2656 55.3723 90.2656 55.7577C90.2656 56.0661 89.9531 56.4516 89.5625 56.4516Z" stroke="#F83103" stroke-width="2" mask="url(#path-1-outside-1_356_187)"/>
</g>
<defs>
<filter id="filter0_d_356_187" x="0" y="0" width="146" height="109" filterUnits="userSpaceOnUse" color-interpolation-filters="sRGB">
<feFlood flood-opacity="0" result="BackgroundImageFix"/>
<feColorMatrix in="SourceAlpha" type="matrix" values="0 0 0 0 0 0 0 0 0 0 0 0 0 0 0 0 0 0 127 0" result="hardAlpha"/>
<feOffset/>
<feGaussianBlur stdDeviation="5"/>
<feComposite in2="hardAlpha" operator="out"/>
<feColorMatrix type="matrix" values="0 0 0 0 0.972549 0 0 0 0 0.192157 0 0 0 0 0.0117647 0 0 0 0.25 0"/>
<feBlend mode="normal" in2="BackgroundImageFix" result="effect1_dropShadow_356_187"/>
<feBlend mode="normal" in="SourceGraphic" in2="effect1_dropShadow_356_187" result="shape"/>
</filter>
</defs>
</svg>
