<svg width="124" height="87" viewBox="0 0 124 87" fill="none" xmlns="http://www.w3.org/2000/svg">
<path d="M0 25C0 11.1929 11.1929 0 25 0H99C112.807 0 124 11.1929 124 25V62C124 75.8071 112.807 87 99 87H25C11.1929 87 0 75.8071 0 62V25Z" fill="#2E3235"/>
<path d="M50.0156 68H48.2461V61.0039H45.8027V59.5449H52.4648V61.0039H50.0156V68Z" fill="white"/>
<path d="M54.2812 66.8633C54.6602 66.8633 54.9805 66.7539 55.2422 66.5352C55.5078 66.3125 55.6406 66.0332 55.6406 65.6973V65.2402L54.3164 65.3223C53.9961 65.3457 53.748 65.4258 53.5723 65.5625C53.4004 65.6992 53.3145 65.8789 53.3145 66.1016C53.3145 66.3359 53.4023 66.5215 53.5781 66.6582C53.7539 66.7949 53.9883 66.8633 54.2812 66.8633ZM53.7188 68.0996C53.1133 68.0996 52.6113 67.9219 52.2129 67.5664C51.8145 67.2109 51.6152 66.7539 51.6152 66.1953C51.6152 65.625 51.8262 65.1777 52.248 64.8535C52.6699 64.5293 53.2734 64.3438 54.0586 64.2969L55.6406 64.2031V63.7871C55.6406 63.498 55.5449 63.2715 55.3535 63.1074C55.166 62.9434 54.9102 62.8613 54.5859 62.8613C54.2734 62.8613 54.0176 62.9316 53.8184 63.0723C53.623 63.2129 53.5039 63.4023 53.4609 63.6406H51.8965C51.9277 63.0234 52.1914 62.5273 52.6875 62.1523C53.1836 61.7734 53.8418 61.584 54.6621 61.584C55.4668 61.584 56.1113 61.7754 56.5957 62.1582C57.0801 62.541 57.3223 63.0488 57.3223 63.6816V68H55.6699V67.0391H55.6348C55.4629 67.3672 55.2012 67.627 54.8496 67.8184C54.498 68.0059 54.1211 68.0996 53.7188 68.0996Z" fill="white"/>
<path d="M64.1367 64.0566H62.5488C62.498 63.7168 62.3633 63.4434 62.1445 63.2363C61.9297 63.0293 61.6504 62.9258 61.3066 62.9258C60.8809 62.9258 60.5449 63.0977 60.2988 63.4414C60.0566 63.7812 59.9355 64.252 59.9355 64.8535C59.9355 65.4668 60.0566 65.9434 60.2988 66.2832C60.5449 66.623 60.8828 66.793 61.3125 66.793C61.6523 66.793 61.9297 66.6973 62.1445 66.5059C62.3594 66.3105 62.4941 66.041 62.5488 65.6973H64.1426C64.0996 66.4395 63.8203 67.0312 63.3047 67.4727C62.7891 67.9141 62.1191 68.1348 61.2949 68.1348C60.3418 68.1348 59.5879 67.8438 59.0332 67.2617C58.4785 66.6758 58.2012 65.873 58.2012 64.8535C58.2012 63.8496 58.4785 63.0547 59.0332 62.4688C59.5918 61.8789 60.3418 61.584 61.2832 61.584C62.1191 61.584 62.793 61.8145 63.3047 62.2754C63.8203 62.7363 64.0977 63.3301 64.1367 64.0566Z" fill="white"/>
<path d="M70.125 67.2676C69.5664 67.8457 68.8086 68.1348 67.8516 68.1348C66.8945 68.1348 66.1367 67.8438 65.5781 67.2617C65.0195 66.6797 64.7402 65.877 64.7402 64.8535C64.7402 63.8418 65.0215 63.0449 65.584 62.4629C66.1504 61.877 66.9062 61.584 67.8516 61.584C68.8008 61.584 69.5566 61.877 70.1191 62.4629C70.6816 63.0449 70.9629 63.8418 70.9629 64.8535C70.9629 65.8809 70.6836 66.6855 70.125 67.2676ZM67.8516 66.8281C68.2734 66.8281 68.6074 66.6562 68.8535 66.3125C69.0996 65.9688 69.2227 65.4844 69.2227 64.8594C69.2227 64.2422 69.0996 63.7598 68.8535 63.4121C68.6074 63.0645 68.2734 62.8906 67.8516 62.8906C67.4297 62.8906 67.0938 63.0645 66.8438 63.4121C66.5977 63.7598 66.4746 64.2422 66.4746 64.8594C66.4746 65.4844 66.5977 65.9688 66.8438 66.3125C67.0898 66.6562 67.4258 66.8281 67.8516 66.8281Z" fill="white"/>
<path d="M71.7422 63.5645C71.7422 62.9668 71.9824 62.4883 72.4629 62.1289C72.9434 61.7656 73.5859 61.584 74.3906 61.584C75.1758 61.584 75.8066 61.7676 76.2832 62.1348C76.7598 62.502 77.0039 62.9902 77.0156 63.5996H75.4395C75.4199 63.3457 75.3145 63.1465 75.123 63.002C74.9355 62.8574 74.6836 62.7852 74.3672 62.7852C74.0703 62.7852 73.832 62.8477 73.6523 62.9727C73.4766 63.0938 73.3887 63.2559 73.3887 63.459C73.3887 63.7637 73.6621 63.9805 74.209 64.1094L75.4102 64.3672C76.0391 64.5078 76.4902 64.7129 76.7637 64.9824C77.041 65.248 77.1797 65.6152 77.1797 66.084C77.1797 66.7012 76.9219 67.1973 76.4062 67.5723C75.8906 67.9473 75.2168 68.1348 74.3848 68.1348C73.5566 68.1348 72.8945 67.9512 72.3984 67.584C71.9023 67.2168 71.6309 66.7227 71.584 66.1016H73.2539C73.2969 66.3672 73.418 66.5723 73.6172 66.7168C73.8203 66.8613 74.0918 66.9336 74.4316 66.9336C74.7559 66.9336 75.0098 66.875 75.1934 66.7578C75.3809 66.6367 75.4746 66.4727 75.4746 66.2656C75.4746 66.1055 75.416 65.9785 75.2988 65.8848C75.1816 65.7871 74.9824 65.7051 74.7012 65.6387L73.541 65.3809C72.3418 65.1074 71.7422 64.502 71.7422 63.5645Z" fill="white"/>
<path d="M87 43.6784C87 34.3502 82.1562 25.6388 74.4219 21.0132C72.9375 17.3899 69.3438 15 65.3594 15C63.5625 15 61.8438 15.4626 60.3594 16.3106C59.8125 16.6189 59.1875 16.6189 58.6406 16.3106C56.8438 15.2313 55.125 14.9229 53.6406 15.3084C52.2344 15.6938 51.0625 16.8502 50.2031 18.4692C49.8906 19.0859 49.1875 19.4714 48.4844 19.3943C46.8438 19.163 45.4375 19.4714 44.3438 20.3194C42.7031 21.63 42.1562 23.9427 42.0781 25.6388C42.0781 26.1013 41.8438 26.4868 41.5312 26.7181C40.2031 27.7974 39.7344 29.3392 40.0469 31.1123C38.0938 34.967 37 39.2841 37 43.6784C37 44.9119 37.4688 46.0683 38.3281 46.9934C38.875 47.533 39.4219 47.9185 40.125 48.1498C40.9062 49.3062 42.2344 50 43.7188 50H80.2812C81.7656 50 83.0938 49.2291 83.7969 48.1498C85.75 47.4559 87 45.7599 87 43.6784ZM42.5469 27.8745C43.1719 27.3348 43.5625 26.5639 43.6406 25.7159C43.7188 24.5595 44.0312 22.478 45.3594 21.4758C46.1406 20.859 47.0781 20.7048 48.3281 20.859C49.6562 21.0903 50.9844 20.3965 51.6094 19.163C52.0781 18.2379 52.8594 17.0815 54.1094 16.7731C55.125 16.4648 56.4531 16.7731 57.8594 17.6211C58.875 18.2379 60.125 18.2379 61.1406 17.6982C62.3906 16.9273 63.875 16.5419 65.3594 16.5419C68.7969 16.5419 71.9219 18.6233 73.0938 21.7841C73.3281 22.4009 73.7188 24.4824 73.6406 26.2555C71.6094 25.022 69.4219 24.0969 67.0781 23.5573V19.8568C67.0781 19.4714 66.7656 19.0859 66.2969 19.0859C65.9062 19.0859 65.5156 19.3943 65.5156 19.8568V23.2489C64.3438 23.0947 63.1719 22.9405 62 22.9405C59.9688 22.9405 58.0156 23.2489 56.0625 23.7115V19.7797C56.0625 19.3943 55.75 19.0088 55.2812 19.0088C54.8906 19.0088 54.5 19.3172 54.5 19.7797V24.174C52.9375 24.7137 51.4531 25.4846 50.0469 26.3326C49.1094 25.0991 47.3906 24.0969 47.1562 24.0198C46.7656 23.7885 46.2969 23.9427 46.1406 24.3282C45.9062 24.7137 46.0625 25.1762 46.4531 25.3304C47.2344 25.793 48.3281 26.5639 48.875 27.2577C46.4531 29.0308 44.3438 31.2665 42.7812 33.8106C42.1562 32.8084 41.7656 31.9604 41.5312 31.1123C41.2969 29.7247 41.6094 28.6454 42.5469 27.8745ZM38.4844 43.6784C38.4844 40.0551 39.2656 36.4317 40.75 33.1938C41.0625 33.8877 41.4531 34.5815 42 35.2753C40.3594 38.4361 39.4219 41.9824 39.4219 45.837V45.9141C38.875 45.2974 38.4844 44.5264 38.4844 43.6784ZM80.2812 48.4581H43.7188C42.2344 48.4581 40.9844 47.2247 40.9844 45.7599C40.9844 34.0419 50.3594 24.4053 62 24.4053C73.6406 24.4053 83.0156 33.9648 83.0156 45.7599C83.0156 47.3018 81.8438 48.4581 80.2812 48.4581ZM84.5781 45.9912C84.5781 45.9141 84.5781 45.837 84.5781 45.837C84.5781 38.2048 80.8281 31.3436 75.0469 27.2577C75.2031 25.9471 75.125 24.4824 74.9688 23.2489C81.5312 27.7974 85.5156 35.5066 85.5156 43.8326C85.5156 44.6035 85.125 45.3744 84.5781 45.9912Z" fill="white"/>
<path d="M54.1094 39.9009C52.8594 39.9009 51.8437 40.9031 51.8437 42.1366C51.8437 43.3701 52.8594 44.3723 54.1094 44.3723C55.3594 44.3723 56.375 43.3701 56.375 42.1366C56.2969 40.9031 55.2812 39.9009 54.1094 39.9009ZM54.1094 42.8304C53.7187 42.8304 53.4062 42.522 53.4062 42.1366C53.4062 41.7511 53.7187 41.4427 54.1094 41.4427C54.5 41.4427 54.8125 41.7511 54.8125 42.1366C54.8125 42.522 54.5 42.8304 54.1094 42.8304ZM62.1562 40.9031C61.7656 40.9031 61.375 41.2115 61.375 41.674C61.375 42.0595 61.6875 42.445 62.1562 42.445C62.5469 42.445 62.8594 42.7533 62.8594 43.1388C62.8594 43.5242 62.5469 43.8326 62.1562 43.8326C61.7656 43.8326 61.375 44.141 61.375 44.6035C61.375 44.989 61.6875 45.3745 62.1562 45.3745C63.4062 45.3745 64.4219 44.3723 64.4219 43.1388C64.3437 41.9053 63.3281 40.9031 62.1562 40.9031ZM57.5469 32.0375C57.1562 32.0375 56.7656 32.3458 56.7656 32.8084C56.7656 33.1938 56.4531 33.5022 56.0625 33.5022C55.6719 33.5022 55.3594 33.1938 55.3594 32.8084C55.3594 32.4229 55.0469 32.0375 54.5781 32.0375C54.1875 32.0375 53.7969 32.3458 53.7969 32.8084C53.7969 34.0419 54.8125 35.0441 56.0625 35.0441C57.3125 35.0441 58.3281 34.0419 58.3281 32.8084C58.3281 32.3458 58.0156 32.0375 57.5469 32.0375ZM47.5469 33.5022C46.2969 33.5022 45.2812 34.5044 45.2812 35.7379C45.2812 36.9714 46.2969 37.9736 47.5469 37.9736C48.7969 37.9736 49.8125 36.9714 49.8125 35.7379C49.8125 34.5044 48.7969 33.5022 47.5469 33.5022ZM47.5469 36.4317C47.1562 36.4317 46.8437 36.1234 46.8437 35.7379C46.8437 35.3524 47.1562 35.0441 47.5469 35.0441C47.9375 35.0441 48.25 35.3524 48.25 35.7379C48.3281 36.1234 48.0156 36.4317 47.5469 36.4317ZM62.3906 27.1806C62 27.1806 61.6094 27.489 61.6094 27.9516C61.6094 28.337 61.9219 28.7225 62.3906 28.7225C62.7812 28.7225 63.0937 29.0309 63.0937 29.4163C63.0937 29.8018 62.7812 30.1101 62.3906 30.1101C62 30.1101 61.6094 30.4185 61.6094 30.8811C61.6094 31.2665 61.9219 31.652 62.3906 31.652C63.6406 31.652 64.6562 30.6498 64.6562 29.4163C64.5781 28.1828 63.5625 27.1806 62.3906 27.1806ZM72.4687 29.7247C72.0781 29.4934 71.6094 29.6476 71.4531 30.0331C71.2187 30.4185 71.375 30.8811 71.7656 31.0353C72.1562 31.1894 72.2344 31.652 72.0781 31.9604C71.9219 32.2687 71.4531 32.4229 71.1406 32.2687C70.75 32.1146 70.2812 32.1916 70.125 32.5771C69.9687 32.9626 70.0469 33.4251 70.4375 33.5793C70.75 33.7335 71.1406 33.8106 71.4531 33.8106C72.2344 33.8106 73.0156 33.348 73.4062 32.6542C73.9531 31.652 73.5625 30.3414 72.4687 29.7247ZM71.2969 39.0529C70.0469 39.0529 69.0312 40.0551 69.0312 41.2886C69.0312 42.522 70.0469 43.5242 71.2969 43.5242C71.6875 43.5242 72.0781 43.2159 72.0781 42.7533C72.0781 42.3679 71.7656 41.9824 71.2969 41.9824C70.9062 41.9824 70.5937 41.674 70.5937 41.2886C70.5937 40.9031 70.9062 40.5947 71.2969 40.5947C71.6875 40.5947 72 40.9031 72 41.2886C72 41.674 72.3125 42.0595 72.7812 42.0595C73.25 42.0595 73.5625 41.7511 73.5625 41.2886C73.5625 40.0551 72.5469 39.0529 71.2969 39.0529ZM78.5625 42.522C77.3125 42.522 76.2969 43.5242 76.2969 44.7577C76.2969 45.9912 77.3125 46.9934 78.5625 46.9934C79.8125 46.9934 80.8281 45.9912 80.8281 44.7577C80.75 43.5242 79.8125 42.522 78.5625 42.522ZM78.5625 45.4516C78.1719 45.4516 77.8594 45.1432 77.8594 44.7577C77.8594 44.3723 78.1719 44.0639 78.5625 44.0639C78.9531 44.0639 79.2656 44.3723 79.2656 44.7577C79.2656 45.0661 78.9531 45.4516 78.5625 45.4516Z" fill="white"/>
</svg>
